%TF.GenerationSoftware,KiCad,Pcbnew,8.0.1*%
%TF.CreationDate,2024-10-08T23:28:17-07:00*%
%TF.ProjectId,POEPico,504f4550-6963-46f2-9e6b-696361645f70,rev?*%
%TF.SameCoordinates,Original*%
%TF.FileFunction,Legend,Top*%
%TF.FilePolarity,Positive*%
%FSLAX46Y46*%
G04 Gerber Fmt 4.6, Leading zero omitted, Abs format (unit mm)*
G04 Created by KiCad (PCBNEW 8.0.1) date 2024-10-08 23:28:17*
%MOMM*%
%LPD*%
G01*
G04 APERTURE LIST*
%ADD10C,0.150000*%
%ADD11C,0.100000*%
%ADD12C,0.120000*%
%ADD13C,0.152400*%
%ADD14C,0.350000*%
%ADD15C,0.200000*%
%ADD16C,0.400000*%
G04 APERTURE END LIST*
D10*
X147211981Y-50581857D02*
X147259601Y-50629476D01*
X147259601Y-50629476D02*
X147307220Y-50772333D01*
X147307220Y-50772333D02*
X147307220Y-50867571D01*
X147307220Y-50867571D02*
X147259601Y-51010428D01*
X147259601Y-51010428D02*
X147164362Y-51105666D01*
X147164362Y-51105666D02*
X147069124Y-51153285D01*
X147069124Y-51153285D02*
X146878648Y-51200904D01*
X146878648Y-51200904D02*
X146735791Y-51200904D01*
X146735791Y-51200904D02*
X146545315Y-51153285D01*
X146545315Y-51153285D02*
X146450077Y-51105666D01*
X146450077Y-51105666D02*
X146354839Y-51010428D01*
X146354839Y-51010428D02*
X146307220Y-50867571D01*
X146307220Y-50867571D02*
X146307220Y-50772333D01*
X146307220Y-50772333D02*
X146354839Y-50629476D01*
X146354839Y-50629476D02*
X146402458Y-50581857D01*
X146307220Y-49677095D02*
X146307220Y-50153285D01*
X146307220Y-50153285D02*
X146783410Y-50200904D01*
X146783410Y-50200904D02*
X146735791Y-50153285D01*
X146735791Y-50153285D02*
X146688172Y-50058047D01*
X146688172Y-50058047D02*
X146688172Y-49819952D01*
X146688172Y-49819952D02*
X146735791Y-49724714D01*
X146735791Y-49724714D02*
X146783410Y-49677095D01*
X146783410Y-49677095D02*
X146878648Y-49629476D01*
X146878648Y-49629476D02*
X147116743Y-49629476D01*
X147116743Y-49629476D02*
X147211981Y-49677095D01*
X147211981Y-49677095D02*
X147259601Y-49724714D01*
X147259601Y-49724714D02*
X147307220Y-49819952D01*
X147307220Y-49819952D02*
X147307220Y-50058047D01*
X147307220Y-50058047D02*
X147259601Y-50153285D01*
X147259601Y-50153285D02*
X147211981Y-50200904D01*
X146402458Y-49248523D02*
X146354839Y-49200904D01*
X146354839Y-49200904D02*
X146307220Y-49105666D01*
X146307220Y-49105666D02*
X146307220Y-48867571D01*
X146307220Y-48867571D02*
X146354839Y-48772333D01*
X146354839Y-48772333D02*
X146402458Y-48724714D01*
X146402458Y-48724714D02*
X146497696Y-48677095D01*
X146497696Y-48677095D02*
X146592934Y-48677095D01*
X146592934Y-48677095D02*
X146735791Y-48724714D01*
X146735791Y-48724714D02*
X147307220Y-49296142D01*
X147307220Y-49296142D02*
X147307220Y-48677095D01*
X142694819Y-72016857D02*
X142218628Y-72350190D01*
X142694819Y-72588285D02*
X141694819Y-72588285D01*
X141694819Y-72588285D02*
X141694819Y-72207333D01*
X141694819Y-72207333D02*
X141742438Y-72112095D01*
X141742438Y-72112095D02*
X141790057Y-72064476D01*
X141790057Y-72064476D02*
X141885295Y-72016857D01*
X141885295Y-72016857D02*
X142028152Y-72016857D01*
X142028152Y-72016857D02*
X142123390Y-72064476D01*
X142123390Y-72064476D02*
X142171009Y-72112095D01*
X142171009Y-72112095D02*
X142218628Y-72207333D01*
X142218628Y-72207333D02*
X142218628Y-72588285D01*
X141790057Y-71635904D02*
X141742438Y-71588285D01*
X141742438Y-71588285D02*
X141694819Y-71493047D01*
X141694819Y-71493047D02*
X141694819Y-71254952D01*
X141694819Y-71254952D02*
X141742438Y-71159714D01*
X141742438Y-71159714D02*
X141790057Y-71112095D01*
X141790057Y-71112095D02*
X141885295Y-71064476D01*
X141885295Y-71064476D02*
X141980533Y-71064476D01*
X141980533Y-71064476D02*
X142123390Y-71112095D01*
X142123390Y-71112095D02*
X142694819Y-71683523D01*
X142694819Y-71683523D02*
X142694819Y-71064476D01*
X142123390Y-70493047D02*
X142075771Y-70588285D01*
X142075771Y-70588285D02*
X142028152Y-70635904D01*
X142028152Y-70635904D02*
X141932914Y-70683523D01*
X141932914Y-70683523D02*
X141885295Y-70683523D01*
X141885295Y-70683523D02*
X141790057Y-70635904D01*
X141790057Y-70635904D02*
X141742438Y-70588285D01*
X141742438Y-70588285D02*
X141694819Y-70493047D01*
X141694819Y-70493047D02*
X141694819Y-70302571D01*
X141694819Y-70302571D02*
X141742438Y-70207333D01*
X141742438Y-70207333D02*
X141790057Y-70159714D01*
X141790057Y-70159714D02*
X141885295Y-70112095D01*
X141885295Y-70112095D02*
X141932914Y-70112095D01*
X141932914Y-70112095D02*
X142028152Y-70159714D01*
X142028152Y-70159714D02*
X142075771Y-70207333D01*
X142075771Y-70207333D02*
X142123390Y-70302571D01*
X142123390Y-70302571D02*
X142123390Y-70493047D01*
X142123390Y-70493047D02*
X142171009Y-70588285D01*
X142171009Y-70588285D02*
X142218628Y-70635904D01*
X142218628Y-70635904D02*
X142313866Y-70683523D01*
X142313866Y-70683523D02*
X142504342Y-70683523D01*
X142504342Y-70683523D02*
X142599580Y-70635904D01*
X142599580Y-70635904D02*
X142647200Y-70588285D01*
X142647200Y-70588285D02*
X142694819Y-70493047D01*
X142694819Y-70493047D02*
X142694819Y-70302571D01*
X142694819Y-70302571D02*
X142647200Y-70207333D01*
X142647200Y-70207333D02*
X142599580Y-70159714D01*
X142599580Y-70159714D02*
X142504342Y-70112095D01*
X142504342Y-70112095D02*
X142313866Y-70112095D01*
X142313866Y-70112095D02*
X142218628Y-70159714D01*
X142218628Y-70159714D02*
X142171009Y-70207333D01*
X142171009Y-70207333D02*
X142123390Y-70302571D01*
X150614142Y-39189819D02*
X150280809Y-38713628D01*
X150042714Y-39189819D02*
X150042714Y-38189819D01*
X150042714Y-38189819D02*
X150423666Y-38189819D01*
X150423666Y-38189819D02*
X150518904Y-38237438D01*
X150518904Y-38237438D02*
X150566523Y-38285057D01*
X150566523Y-38285057D02*
X150614142Y-38380295D01*
X150614142Y-38380295D02*
X150614142Y-38523152D01*
X150614142Y-38523152D02*
X150566523Y-38618390D01*
X150566523Y-38618390D02*
X150518904Y-38666009D01*
X150518904Y-38666009D02*
X150423666Y-38713628D01*
X150423666Y-38713628D02*
X150042714Y-38713628D01*
X150995095Y-38285057D02*
X151042714Y-38237438D01*
X151042714Y-38237438D02*
X151137952Y-38189819D01*
X151137952Y-38189819D02*
X151376047Y-38189819D01*
X151376047Y-38189819D02*
X151471285Y-38237438D01*
X151471285Y-38237438D02*
X151518904Y-38285057D01*
X151518904Y-38285057D02*
X151566523Y-38380295D01*
X151566523Y-38380295D02*
X151566523Y-38475533D01*
X151566523Y-38475533D02*
X151518904Y-38618390D01*
X151518904Y-38618390D02*
X150947476Y-39189819D01*
X150947476Y-39189819D02*
X151566523Y-39189819D01*
X151899857Y-38189819D02*
X152566523Y-38189819D01*
X152566523Y-38189819D02*
X152137952Y-39189819D01*
X149725142Y-35877819D02*
X149391809Y-35401628D01*
X149153714Y-35877819D02*
X149153714Y-34877819D01*
X149153714Y-34877819D02*
X149534666Y-34877819D01*
X149534666Y-34877819D02*
X149629904Y-34925438D01*
X149629904Y-34925438D02*
X149677523Y-34973057D01*
X149677523Y-34973057D02*
X149725142Y-35068295D01*
X149725142Y-35068295D02*
X149725142Y-35211152D01*
X149725142Y-35211152D02*
X149677523Y-35306390D01*
X149677523Y-35306390D02*
X149629904Y-35354009D01*
X149629904Y-35354009D02*
X149534666Y-35401628D01*
X149534666Y-35401628D02*
X149153714Y-35401628D01*
X150106095Y-34973057D02*
X150153714Y-34925438D01*
X150153714Y-34925438D02*
X150248952Y-34877819D01*
X150248952Y-34877819D02*
X150487047Y-34877819D01*
X150487047Y-34877819D02*
X150582285Y-34925438D01*
X150582285Y-34925438D02*
X150629904Y-34973057D01*
X150629904Y-34973057D02*
X150677523Y-35068295D01*
X150677523Y-35068295D02*
X150677523Y-35163533D01*
X150677523Y-35163533D02*
X150629904Y-35306390D01*
X150629904Y-35306390D02*
X150058476Y-35877819D01*
X150058476Y-35877819D02*
X150677523Y-35877819D01*
X151534666Y-34877819D02*
X151344190Y-34877819D01*
X151344190Y-34877819D02*
X151248952Y-34925438D01*
X151248952Y-34925438D02*
X151201333Y-34973057D01*
X151201333Y-34973057D02*
X151106095Y-35115914D01*
X151106095Y-35115914D02*
X151058476Y-35306390D01*
X151058476Y-35306390D02*
X151058476Y-35687342D01*
X151058476Y-35687342D02*
X151106095Y-35782580D01*
X151106095Y-35782580D02*
X151153714Y-35830200D01*
X151153714Y-35830200D02*
X151248952Y-35877819D01*
X151248952Y-35877819D02*
X151439428Y-35877819D01*
X151439428Y-35877819D02*
X151534666Y-35830200D01*
X151534666Y-35830200D02*
X151582285Y-35782580D01*
X151582285Y-35782580D02*
X151629904Y-35687342D01*
X151629904Y-35687342D02*
X151629904Y-35449247D01*
X151629904Y-35449247D02*
X151582285Y-35354009D01*
X151582285Y-35354009D02*
X151534666Y-35306390D01*
X151534666Y-35306390D02*
X151439428Y-35258771D01*
X151439428Y-35258771D02*
X151248952Y-35258771D01*
X151248952Y-35258771D02*
X151153714Y-35306390D01*
X151153714Y-35306390D02*
X151106095Y-35354009D01*
X151106095Y-35354009D02*
X151058476Y-35449247D01*
X151661905Y-100698819D02*
X151661905Y-99698819D01*
X151661905Y-99698819D02*
X151900000Y-99698819D01*
X151900000Y-99698819D02*
X152042857Y-99746438D01*
X152042857Y-99746438D02*
X152138095Y-99841676D01*
X152138095Y-99841676D02*
X152185714Y-99936914D01*
X152185714Y-99936914D02*
X152233333Y-100127390D01*
X152233333Y-100127390D02*
X152233333Y-100270247D01*
X152233333Y-100270247D02*
X152185714Y-100460723D01*
X152185714Y-100460723D02*
X152138095Y-100555961D01*
X152138095Y-100555961D02*
X152042857Y-100651200D01*
X152042857Y-100651200D02*
X151900000Y-100698819D01*
X151900000Y-100698819D02*
X151661905Y-100698819D01*
X152614286Y-99794057D02*
X152661905Y-99746438D01*
X152661905Y-99746438D02*
X152757143Y-99698819D01*
X152757143Y-99698819D02*
X152995238Y-99698819D01*
X152995238Y-99698819D02*
X153090476Y-99746438D01*
X153090476Y-99746438D02*
X153138095Y-99794057D01*
X153138095Y-99794057D02*
X153185714Y-99889295D01*
X153185714Y-99889295D02*
X153185714Y-99984533D01*
X153185714Y-99984533D02*
X153138095Y-100127390D01*
X153138095Y-100127390D02*
X152566667Y-100698819D01*
X152566667Y-100698819D02*
X153185714Y-100698819D01*
X154029580Y-28328857D02*
X154077200Y-28376476D01*
X154077200Y-28376476D02*
X154124819Y-28519333D01*
X154124819Y-28519333D02*
X154124819Y-28614571D01*
X154124819Y-28614571D02*
X154077200Y-28757428D01*
X154077200Y-28757428D02*
X153981961Y-28852666D01*
X153981961Y-28852666D02*
X153886723Y-28900285D01*
X153886723Y-28900285D02*
X153696247Y-28947904D01*
X153696247Y-28947904D02*
X153553390Y-28947904D01*
X153553390Y-28947904D02*
X153362914Y-28900285D01*
X153362914Y-28900285D02*
X153267676Y-28852666D01*
X153267676Y-28852666D02*
X153172438Y-28757428D01*
X153172438Y-28757428D02*
X153124819Y-28614571D01*
X153124819Y-28614571D02*
X153124819Y-28519333D01*
X153124819Y-28519333D02*
X153172438Y-28376476D01*
X153172438Y-28376476D02*
X153220057Y-28328857D01*
X153124819Y-27471714D02*
X153124819Y-27662190D01*
X153124819Y-27662190D02*
X153172438Y-27757428D01*
X153172438Y-27757428D02*
X153220057Y-27805047D01*
X153220057Y-27805047D02*
X153362914Y-27900285D01*
X153362914Y-27900285D02*
X153553390Y-27947904D01*
X153553390Y-27947904D02*
X153934342Y-27947904D01*
X153934342Y-27947904D02*
X154029580Y-27900285D01*
X154029580Y-27900285D02*
X154077200Y-27852666D01*
X154077200Y-27852666D02*
X154124819Y-27757428D01*
X154124819Y-27757428D02*
X154124819Y-27566952D01*
X154124819Y-27566952D02*
X154077200Y-27471714D01*
X154077200Y-27471714D02*
X154029580Y-27424095D01*
X154029580Y-27424095D02*
X153934342Y-27376476D01*
X153934342Y-27376476D02*
X153696247Y-27376476D01*
X153696247Y-27376476D02*
X153601009Y-27424095D01*
X153601009Y-27424095D02*
X153553390Y-27471714D01*
X153553390Y-27471714D02*
X153505771Y-27566952D01*
X153505771Y-27566952D02*
X153505771Y-27757428D01*
X153505771Y-27757428D02*
X153553390Y-27852666D01*
X153553390Y-27852666D02*
X153601009Y-27900285D01*
X153601009Y-27900285D02*
X153696247Y-27947904D01*
X153124819Y-27043142D02*
X153124819Y-26376476D01*
X153124819Y-26376476D02*
X154124819Y-26805047D01*
X125802580Y-124119257D02*
X125850200Y-124166876D01*
X125850200Y-124166876D02*
X125897819Y-124309733D01*
X125897819Y-124309733D02*
X125897819Y-124404971D01*
X125897819Y-124404971D02*
X125850200Y-124547828D01*
X125850200Y-124547828D02*
X125754961Y-124643066D01*
X125754961Y-124643066D02*
X125659723Y-124690685D01*
X125659723Y-124690685D02*
X125469247Y-124738304D01*
X125469247Y-124738304D02*
X125326390Y-124738304D01*
X125326390Y-124738304D02*
X125135914Y-124690685D01*
X125135914Y-124690685D02*
X125040676Y-124643066D01*
X125040676Y-124643066D02*
X124945438Y-124547828D01*
X124945438Y-124547828D02*
X124897819Y-124404971D01*
X124897819Y-124404971D02*
X124897819Y-124309733D01*
X124897819Y-124309733D02*
X124945438Y-124166876D01*
X124945438Y-124166876D02*
X124993057Y-124119257D01*
X124897819Y-123262114D02*
X124897819Y-123452590D01*
X124897819Y-123452590D02*
X124945438Y-123547828D01*
X124945438Y-123547828D02*
X124993057Y-123595447D01*
X124993057Y-123595447D02*
X125135914Y-123690685D01*
X125135914Y-123690685D02*
X125326390Y-123738304D01*
X125326390Y-123738304D02*
X125707342Y-123738304D01*
X125707342Y-123738304D02*
X125802580Y-123690685D01*
X125802580Y-123690685D02*
X125850200Y-123643066D01*
X125850200Y-123643066D02*
X125897819Y-123547828D01*
X125897819Y-123547828D02*
X125897819Y-123357352D01*
X125897819Y-123357352D02*
X125850200Y-123262114D01*
X125850200Y-123262114D02*
X125802580Y-123214495D01*
X125802580Y-123214495D02*
X125707342Y-123166876D01*
X125707342Y-123166876D02*
X125469247Y-123166876D01*
X125469247Y-123166876D02*
X125374009Y-123214495D01*
X125374009Y-123214495D02*
X125326390Y-123262114D01*
X125326390Y-123262114D02*
X125278771Y-123357352D01*
X125278771Y-123357352D02*
X125278771Y-123547828D01*
X125278771Y-123547828D02*
X125326390Y-123643066D01*
X125326390Y-123643066D02*
X125374009Y-123690685D01*
X125374009Y-123690685D02*
X125469247Y-123738304D01*
X124993057Y-122785923D02*
X124945438Y-122738304D01*
X124945438Y-122738304D02*
X124897819Y-122643066D01*
X124897819Y-122643066D02*
X124897819Y-122404971D01*
X124897819Y-122404971D02*
X124945438Y-122309733D01*
X124945438Y-122309733D02*
X124993057Y-122262114D01*
X124993057Y-122262114D02*
X125088295Y-122214495D01*
X125088295Y-122214495D02*
X125183533Y-122214495D01*
X125183533Y-122214495D02*
X125326390Y-122262114D01*
X125326390Y-122262114D02*
X125897819Y-122833542D01*
X125897819Y-122833542D02*
X125897819Y-122214495D01*
X135531579Y-92071042D02*
X135579199Y-92118661D01*
X135579199Y-92118661D02*
X135626818Y-92261518D01*
X135626818Y-92261518D02*
X135626818Y-92356756D01*
X135626818Y-92356756D02*
X135579199Y-92499613D01*
X135579199Y-92499613D02*
X135483960Y-92594851D01*
X135483960Y-92594851D02*
X135388722Y-92642470D01*
X135388722Y-92642470D02*
X135198246Y-92690089D01*
X135198246Y-92690089D02*
X135055389Y-92690089D01*
X135055389Y-92690089D02*
X134864913Y-92642470D01*
X134864913Y-92642470D02*
X134769675Y-92594851D01*
X134769675Y-92594851D02*
X134674437Y-92499613D01*
X134674437Y-92499613D02*
X134626818Y-92356756D01*
X134626818Y-92356756D02*
X134626818Y-92261518D01*
X134626818Y-92261518D02*
X134674437Y-92118661D01*
X134674437Y-92118661D02*
X134722056Y-92071042D01*
X134960151Y-91213899D02*
X135626818Y-91213899D01*
X134579199Y-91451994D02*
X135293484Y-91690089D01*
X135293484Y-91690089D02*
X135293484Y-91071042D01*
X135055389Y-90547232D02*
X135007770Y-90642470D01*
X135007770Y-90642470D02*
X134960151Y-90690089D01*
X134960151Y-90690089D02*
X134864913Y-90737708D01*
X134864913Y-90737708D02*
X134817294Y-90737708D01*
X134817294Y-90737708D02*
X134722056Y-90690089D01*
X134722056Y-90690089D02*
X134674437Y-90642470D01*
X134674437Y-90642470D02*
X134626818Y-90547232D01*
X134626818Y-90547232D02*
X134626818Y-90356756D01*
X134626818Y-90356756D02*
X134674437Y-90261518D01*
X134674437Y-90261518D02*
X134722056Y-90213899D01*
X134722056Y-90213899D02*
X134817294Y-90166280D01*
X134817294Y-90166280D02*
X134864913Y-90166280D01*
X134864913Y-90166280D02*
X134960151Y-90213899D01*
X134960151Y-90213899D02*
X135007770Y-90261518D01*
X135007770Y-90261518D02*
X135055389Y-90356756D01*
X135055389Y-90356756D02*
X135055389Y-90547232D01*
X135055389Y-90547232D02*
X135103008Y-90642470D01*
X135103008Y-90642470D02*
X135150627Y-90690089D01*
X135150627Y-90690089D02*
X135245865Y-90737708D01*
X135245865Y-90737708D02*
X135436341Y-90737708D01*
X135436341Y-90737708D02*
X135531579Y-90690089D01*
X135531579Y-90690089D02*
X135579199Y-90642470D01*
X135579199Y-90642470D02*
X135626818Y-90547232D01*
X135626818Y-90547232D02*
X135626818Y-90356756D01*
X135626818Y-90356756D02*
X135579199Y-90261518D01*
X135579199Y-90261518D02*
X135531579Y-90213899D01*
X135531579Y-90213899D02*
X135436341Y-90166280D01*
X135436341Y-90166280D02*
X135245865Y-90166280D01*
X135245865Y-90166280D02*
X135150627Y-90213899D01*
X135150627Y-90213899D02*
X135103008Y-90261518D01*
X135103008Y-90261518D02*
X135055389Y-90356756D01*
X123168580Y-95130857D02*
X123216200Y-95178476D01*
X123216200Y-95178476D02*
X123263819Y-95321333D01*
X123263819Y-95321333D02*
X123263819Y-95416571D01*
X123263819Y-95416571D02*
X123216200Y-95559428D01*
X123216200Y-95559428D02*
X123120961Y-95654666D01*
X123120961Y-95654666D02*
X123025723Y-95702285D01*
X123025723Y-95702285D02*
X122835247Y-95749904D01*
X122835247Y-95749904D02*
X122692390Y-95749904D01*
X122692390Y-95749904D02*
X122501914Y-95702285D01*
X122501914Y-95702285D02*
X122406676Y-95654666D01*
X122406676Y-95654666D02*
X122311438Y-95559428D01*
X122311438Y-95559428D02*
X122263819Y-95416571D01*
X122263819Y-95416571D02*
X122263819Y-95321333D01*
X122263819Y-95321333D02*
X122311438Y-95178476D01*
X122311438Y-95178476D02*
X122359057Y-95130857D01*
X122597152Y-94273714D02*
X123263819Y-94273714D01*
X122216200Y-94511809D02*
X122930485Y-94749904D01*
X122930485Y-94749904D02*
X122930485Y-94130857D01*
X122263819Y-93845142D02*
X122263819Y-93178476D01*
X122263819Y-93178476D02*
X123263819Y-93607047D01*
X121517580Y-95130857D02*
X121565200Y-95178476D01*
X121565200Y-95178476D02*
X121612819Y-95321333D01*
X121612819Y-95321333D02*
X121612819Y-95416571D01*
X121612819Y-95416571D02*
X121565200Y-95559428D01*
X121565200Y-95559428D02*
X121469961Y-95654666D01*
X121469961Y-95654666D02*
X121374723Y-95702285D01*
X121374723Y-95702285D02*
X121184247Y-95749904D01*
X121184247Y-95749904D02*
X121041390Y-95749904D01*
X121041390Y-95749904D02*
X120850914Y-95702285D01*
X120850914Y-95702285D02*
X120755676Y-95654666D01*
X120755676Y-95654666D02*
X120660438Y-95559428D01*
X120660438Y-95559428D02*
X120612819Y-95416571D01*
X120612819Y-95416571D02*
X120612819Y-95321333D01*
X120612819Y-95321333D02*
X120660438Y-95178476D01*
X120660438Y-95178476D02*
X120708057Y-95130857D01*
X120946152Y-94273714D02*
X121612819Y-94273714D01*
X120565200Y-94511809D02*
X121279485Y-94749904D01*
X121279485Y-94749904D02*
X121279485Y-94130857D01*
X120612819Y-93321333D02*
X120612819Y-93511809D01*
X120612819Y-93511809D02*
X120660438Y-93607047D01*
X120660438Y-93607047D02*
X120708057Y-93654666D01*
X120708057Y-93654666D02*
X120850914Y-93749904D01*
X120850914Y-93749904D02*
X121041390Y-93797523D01*
X121041390Y-93797523D02*
X121422342Y-93797523D01*
X121422342Y-93797523D02*
X121517580Y-93749904D01*
X121517580Y-93749904D02*
X121565200Y-93702285D01*
X121565200Y-93702285D02*
X121612819Y-93607047D01*
X121612819Y-93607047D02*
X121612819Y-93416571D01*
X121612819Y-93416571D02*
X121565200Y-93321333D01*
X121565200Y-93321333D02*
X121517580Y-93273714D01*
X121517580Y-93273714D02*
X121422342Y-93226095D01*
X121422342Y-93226095D02*
X121184247Y-93226095D01*
X121184247Y-93226095D02*
X121089009Y-93273714D01*
X121089009Y-93273714D02*
X121041390Y-93321333D01*
X121041390Y-93321333D02*
X120993771Y-93416571D01*
X120993771Y-93416571D02*
X120993771Y-93607047D01*
X120993771Y-93607047D02*
X121041390Y-93702285D01*
X121041390Y-93702285D02*
X121089009Y-93749904D01*
X121089009Y-93749904D02*
X121184247Y-93797523D01*
X151884142Y-33887580D02*
X151836523Y-33935200D01*
X151836523Y-33935200D02*
X151693666Y-33982819D01*
X151693666Y-33982819D02*
X151598428Y-33982819D01*
X151598428Y-33982819D02*
X151455571Y-33935200D01*
X151455571Y-33935200D02*
X151360333Y-33839961D01*
X151360333Y-33839961D02*
X151312714Y-33744723D01*
X151312714Y-33744723D02*
X151265095Y-33554247D01*
X151265095Y-33554247D02*
X151265095Y-33411390D01*
X151265095Y-33411390D02*
X151312714Y-33220914D01*
X151312714Y-33220914D02*
X151360333Y-33125676D01*
X151360333Y-33125676D02*
X151455571Y-33030438D01*
X151455571Y-33030438D02*
X151598428Y-32982819D01*
X151598428Y-32982819D02*
X151693666Y-32982819D01*
X151693666Y-32982819D02*
X151836523Y-33030438D01*
X151836523Y-33030438D02*
X151884142Y-33078057D01*
X152741285Y-33316152D02*
X152741285Y-33982819D01*
X152503190Y-32935200D02*
X152265095Y-33649485D01*
X152265095Y-33649485D02*
X152884142Y-33649485D01*
X153741285Y-32982819D02*
X153265095Y-32982819D01*
X153265095Y-32982819D02*
X153217476Y-33459009D01*
X153217476Y-33459009D02*
X153265095Y-33411390D01*
X153265095Y-33411390D02*
X153360333Y-33363771D01*
X153360333Y-33363771D02*
X153598428Y-33363771D01*
X153598428Y-33363771D02*
X153693666Y-33411390D01*
X153693666Y-33411390D02*
X153741285Y-33459009D01*
X153741285Y-33459009D02*
X153788904Y-33554247D01*
X153788904Y-33554247D02*
X153788904Y-33792342D01*
X153788904Y-33792342D02*
X153741285Y-33887580D01*
X153741285Y-33887580D02*
X153693666Y-33935200D01*
X153693666Y-33935200D02*
X153598428Y-33982819D01*
X153598428Y-33982819D02*
X153360333Y-33982819D01*
X153360333Y-33982819D02*
X153265095Y-33935200D01*
X153265095Y-33935200D02*
X153217476Y-33887580D01*
X137937543Y-40670209D02*
X137889924Y-40717829D01*
X137889924Y-40717829D02*
X137747067Y-40765448D01*
X137747067Y-40765448D02*
X137651829Y-40765448D01*
X137651829Y-40765448D02*
X137508972Y-40717829D01*
X137508972Y-40717829D02*
X137413734Y-40622590D01*
X137413734Y-40622590D02*
X137366115Y-40527352D01*
X137366115Y-40527352D02*
X137318496Y-40336876D01*
X137318496Y-40336876D02*
X137318496Y-40194019D01*
X137318496Y-40194019D02*
X137366115Y-40003543D01*
X137366115Y-40003543D02*
X137413734Y-39908305D01*
X137413734Y-39908305D02*
X137508972Y-39813067D01*
X137508972Y-39813067D02*
X137651829Y-39765448D01*
X137651829Y-39765448D02*
X137747067Y-39765448D01*
X137747067Y-39765448D02*
X137889924Y-39813067D01*
X137889924Y-39813067D02*
X137937543Y-39860686D01*
X138794686Y-40098781D02*
X138794686Y-40765448D01*
X138556591Y-39717829D02*
X138318496Y-40432114D01*
X138318496Y-40432114D02*
X138937543Y-40432114D01*
X139747067Y-40098781D02*
X139747067Y-40765448D01*
X139508972Y-39717829D02*
X139270877Y-40432114D01*
X139270877Y-40432114D02*
X139889924Y-40432114D01*
X150600580Y-29217857D02*
X150648200Y-29265476D01*
X150648200Y-29265476D02*
X150695819Y-29408333D01*
X150695819Y-29408333D02*
X150695819Y-29503571D01*
X150695819Y-29503571D02*
X150648200Y-29646428D01*
X150648200Y-29646428D02*
X150552961Y-29741666D01*
X150552961Y-29741666D02*
X150457723Y-29789285D01*
X150457723Y-29789285D02*
X150267247Y-29836904D01*
X150267247Y-29836904D02*
X150124390Y-29836904D01*
X150124390Y-29836904D02*
X149933914Y-29789285D01*
X149933914Y-29789285D02*
X149838676Y-29741666D01*
X149838676Y-29741666D02*
X149743438Y-29646428D01*
X149743438Y-29646428D02*
X149695819Y-29503571D01*
X149695819Y-29503571D02*
X149695819Y-29408333D01*
X149695819Y-29408333D02*
X149743438Y-29265476D01*
X149743438Y-29265476D02*
X149791057Y-29217857D01*
X150029152Y-28360714D02*
X150695819Y-28360714D01*
X149648200Y-28598809D02*
X150362485Y-28836904D01*
X150362485Y-28836904D02*
X150362485Y-28217857D01*
X149791057Y-27884523D02*
X149743438Y-27836904D01*
X149743438Y-27836904D02*
X149695819Y-27741666D01*
X149695819Y-27741666D02*
X149695819Y-27503571D01*
X149695819Y-27503571D02*
X149743438Y-27408333D01*
X149743438Y-27408333D02*
X149791057Y-27360714D01*
X149791057Y-27360714D02*
X149886295Y-27313095D01*
X149886295Y-27313095D02*
X149981533Y-27313095D01*
X149981533Y-27313095D02*
X150124390Y-27360714D01*
X150124390Y-27360714D02*
X150695819Y-27932142D01*
X150695819Y-27932142D02*
X150695819Y-27313095D01*
X140567580Y-31757857D02*
X140615200Y-31805476D01*
X140615200Y-31805476D02*
X140662819Y-31948333D01*
X140662819Y-31948333D02*
X140662819Y-32043571D01*
X140662819Y-32043571D02*
X140615200Y-32186428D01*
X140615200Y-32186428D02*
X140519961Y-32281666D01*
X140519961Y-32281666D02*
X140424723Y-32329285D01*
X140424723Y-32329285D02*
X140234247Y-32376904D01*
X140234247Y-32376904D02*
X140091390Y-32376904D01*
X140091390Y-32376904D02*
X139900914Y-32329285D01*
X139900914Y-32329285D02*
X139805676Y-32281666D01*
X139805676Y-32281666D02*
X139710438Y-32186428D01*
X139710438Y-32186428D02*
X139662819Y-32043571D01*
X139662819Y-32043571D02*
X139662819Y-31948333D01*
X139662819Y-31948333D02*
X139710438Y-31805476D01*
X139710438Y-31805476D02*
X139758057Y-31757857D01*
X139996152Y-30900714D02*
X140662819Y-30900714D01*
X139615200Y-31138809D02*
X140329485Y-31376904D01*
X140329485Y-31376904D02*
X140329485Y-30757857D01*
X139662819Y-30186428D02*
X139662819Y-30091190D01*
X139662819Y-30091190D02*
X139710438Y-29995952D01*
X139710438Y-29995952D02*
X139758057Y-29948333D01*
X139758057Y-29948333D02*
X139853295Y-29900714D01*
X139853295Y-29900714D02*
X140043771Y-29853095D01*
X140043771Y-29853095D02*
X140281866Y-29853095D01*
X140281866Y-29853095D02*
X140472342Y-29900714D01*
X140472342Y-29900714D02*
X140567580Y-29948333D01*
X140567580Y-29948333D02*
X140615200Y-29995952D01*
X140615200Y-29995952D02*
X140662819Y-30091190D01*
X140662819Y-30091190D02*
X140662819Y-30186428D01*
X140662819Y-30186428D02*
X140615200Y-30281666D01*
X140615200Y-30281666D02*
X140567580Y-30329285D01*
X140567580Y-30329285D02*
X140472342Y-30376904D01*
X140472342Y-30376904D02*
X140281866Y-30424523D01*
X140281866Y-30424523D02*
X140043771Y-30424523D01*
X140043771Y-30424523D02*
X139853295Y-30376904D01*
X139853295Y-30376904D02*
X139758057Y-30329285D01*
X139758057Y-30329285D02*
X139710438Y-30281666D01*
X139710438Y-30281666D02*
X139662819Y-30186428D01*
X142472580Y-46362857D02*
X142520200Y-46410476D01*
X142520200Y-46410476D02*
X142567819Y-46553333D01*
X142567819Y-46553333D02*
X142567819Y-46648571D01*
X142567819Y-46648571D02*
X142520200Y-46791428D01*
X142520200Y-46791428D02*
X142424961Y-46886666D01*
X142424961Y-46886666D02*
X142329723Y-46934285D01*
X142329723Y-46934285D02*
X142139247Y-46981904D01*
X142139247Y-46981904D02*
X141996390Y-46981904D01*
X141996390Y-46981904D02*
X141805914Y-46934285D01*
X141805914Y-46934285D02*
X141710676Y-46886666D01*
X141710676Y-46886666D02*
X141615438Y-46791428D01*
X141615438Y-46791428D02*
X141567819Y-46648571D01*
X141567819Y-46648571D02*
X141567819Y-46553333D01*
X141567819Y-46553333D02*
X141615438Y-46410476D01*
X141615438Y-46410476D02*
X141663057Y-46362857D01*
X142567819Y-45410476D02*
X142567819Y-45981904D01*
X142567819Y-45696190D02*
X141567819Y-45696190D01*
X141567819Y-45696190D02*
X141710676Y-45791428D01*
X141710676Y-45791428D02*
X141805914Y-45886666D01*
X141805914Y-45886666D02*
X141853533Y-45981904D01*
X141567819Y-45077142D02*
X141567819Y-44410476D01*
X141567819Y-44410476D02*
X142567819Y-44839047D01*
X133707581Y-97591495D02*
X133755201Y-97639114D01*
X133755201Y-97639114D02*
X133802820Y-97781971D01*
X133802820Y-97781971D02*
X133802820Y-97877209D01*
X133802820Y-97877209D02*
X133755201Y-98020066D01*
X133755201Y-98020066D02*
X133659962Y-98115304D01*
X133659962Y-98115304D02*
X133564724Y-98162923D01*
X133564724Y-98162923D02*
X133374248Y-98210542D01*
X133374248Y-98210542D02*
X133231391Y-98210542D01*
X133231391Y-98210542D02*
X133040915Y-98162923D01*
X133040915Y-98162923D02*
X132945677Y-98115304D01*
X132945677Y-98115304D02*
X132850439Y-98020066D01*
X132850439Y-98020066D02*
X132802820Y-97877209D01*
X132802820Y-97877209D02*
X132802820Y-97781971D01*
X132802820Y-97781971D02*
X132850439Y-97639114D01*
X132850439Y-97639114D02*
X132898058Y-97591495D01*
X133802820Y-97115304D02*
X133802820Y-96924828D01*
X133802820Y-96924828D02*
X133755201Y-96829590D01*
X133755201Y-96829590D02*
X133707581Y-96781971D01*
X133707581Y-96781971D02*
X133564724Y-96686733D01*
X133564724Y-96686733D02*
X133374248Y-96639114D01*
X133374248Y-96639114D02*
X132993296Y-96639114D01*
X132993296Y-96639114D02*
X132898058Y-96686733D01*
X132898058Y-96686733D02*
X132850439Y-96734352D01*
X132850439Y-96734352D02*
X132802820Y-96829590D01*
X132802820Y-96829590D02*
X132802820Y-97020066D01*
X132802820Y-97020066D02*
X132850439Y-97115304D01*
X132850439Y-97115304D02*
X132898058Y-97162923D01*
X132898058Y-97162923D02*
X132993296Y-97210542D01*
X132993296Y-97210542D02*
X133231391Y-97210542D01*
X133231391Y-97210542D02*
X133326629Y-97162923D01*
X133326629Y-97162923D02*
X133374248Y-97115304D01*
X133374248Y-97115304D02*
X133421867Y-97020066D01*
X133421867Y-97020066D02*
X133421867Y-96829590D01*
X133421867Y-96829590D02*
X133374248Y-96734352D01*
X133374248Y-96734352D02*
X133326629Y-96686733D01*
X133326629Y-96686733D02*
X133231391Y-96639114D01*
X115181142Y-46192409D02*
X115133523Y-46240029D01*
X115133523Y-46240029D02*
X114990666Y-46287648D01*
X114990666Y-46287648D02*
X114895428Y-46287648D01*
X114895428Y-46287648D02*
X114752571Y-46240029D01*
X114752571Y-46240029D02*
X114657333Y-46144790D01*
X114657333Y-46144790D02*
X114609714Y-46049552D01*
X114609714Y-46049552D02*
X114562095Y-45859076D01*
X114562095Y-45859076D02*
X114562095Y-45716219D01*
X114562095Y-45716219D02*
X114609714Y-45525743D01*
X114609714Y-45525743D02*
X114657333Y-45430505D01*
X114657333Y-45430505D02*
X114752571Y-45335267D01*
X114752571Y-45335267D02*
X114895428Y-45287648D01*
X114895428Y-45287648D02*
X114990666Y-45287648D01*
X114990666Y-45287648D02*
X115133523Y-45335267D01*
X115133523Y-45335267D02*
X115181142Y-45382886D01*
X116038285Y-45287648D02*
X115847809Y-45287648D01*
X115847809Y-45287648D02*
X115752571Y-45335267D01*
X115752571Y-45335267D02*
X115704952Y-45382886D01*
X115704952Y-45382886D02*
X115609714Y-45525743D01*
X115609714Y-45525743D02*
X115562095Y-45716219D01*
X115562095Y-45716219D02*
X115562095Y-46097171D01*
X115562095Y-46097171D02*
X115609714Y-46192409D01*
X115609714Y-46192409D02*
X115657333Y-46240029D01*
X115657333Y-46240029D02*
X115752571Y-46287648D01*
X115752571Y-46287648D02*
X115943047Y-46287648D01*
X115943047Y-46287648D02*
X116038285Y-46240029D01*
X116038285Y-46240029D02*
X116085904Y-46192409D01*
X116085904Y-46192409D02*
X116133523Y-46097171D01*
X116133523Y-46097171D02*
X116133523Y-45859076D01*
X116133523Y-45859076D02*
X116085904Y-45763838D01*
X116085904Y-45763838D02*
X116038285Y-45716219D01*
X116038285Y-45716219D02*
X115943047Y-45668600D01*
X115943047Y-45668600D02*
X115752571Y-45668600D01*
X115752571Y-45668600D02*
X115657333Y-45716219D01*
X115657333Y-45716219D02*
X115609714Y-45763838D01*
X115609714Y-45763838D02*
X115562095Y-45859076D01*
X116990666Y-45620981D02*
X116990666Y-46287648D01*
X116752571Y-45240029D02*
X116514476Y-45954314D01*
X116514476Y-45954314D02*
X117133523Y-45954314D01*
D11*
X142073333Y-26873419D02*
X141597143Y-26873419D01*
X141597143Y-26873419D02*
X141597143Y-25873419D01*
X142930476Y-26873419D02*
X142359048Y-26873419D01*
X142644762Y-26873419D02*
X142644762Y-25873419D01*
X142644762Y-25873419D02*
X142549524Y-26016276D01*
X142549524Y-26016276D02*
X142454286Y-26111514D01*
X142454286Y-26111514D02*
X142359048Y-26159133D01*
D10*
X132095543Y-102273609D02*
X132047924Y-102321229D01*
X132047924Y-102321229D02*
X131905067Y-102368848D01*
X131905067Y-102368848D02*
X131809829Y-102368848D01*
X131809829Y-102368848D02*
X131666972Y-102321229D01*
X131666972Y-102321229D02*
X131571734Y-102225990D01*
X131571734Y-102225990D02*
X131524115Y-102130752D01*
X131524115Y-102130752D02*
X131476496Y-101940276D01*
X131476496Y-101940276D02*
X131476496Y-101797419D01*
X131476496Y-101797419D02*
X131524115Y-101606943D01*
X131524115Y-101606943D02*
X131571734Y-101511705D01*
X131571734Y-101511705D02*
X131666972Y-101416467D01*
X131666972Y-101416467D02*
X131809829Y-101368848D01*
X131809829Y-101368848D02*
X131905067Y-101368848D01*
X131905067Y-101368848D02*
X132047924Y-101416467D01*
X132047924Y-101416467D02*
X132095543Y-101464086D01*
X132476496Y-101464086D02*
X132524115Y-101416467D01*
X132524115Y-101416467D02*
X132619353Y-101368848D01*
X132619353Y-101368848D02*
X132857448Y-101368848D01*
X132857448Y-101368848D02*
X132952686Y-101416467D01*
X132952686Y-101416467D02*
X133000305Y-101464086D01*
X133000305Y-101464086D02*
X133047924Y-101559324D01*
X133047924Y-101559324D02*
X133047924Y-101654562D01*
X133047924Y-101654562D02*
X133000305Y-101797419D01*
X133000305Y-101797419D02*
X132428877Y-102368848D01*
X132428877Y-102368848D02*
X133047924Y-102368848D01*
X133905067Y-101368848D02*
X133714591Y-101368848D01*
X133714591Y-101368848D02*
X133619353Y-101416467D01*
X133619353Y-101416467D02*
X133571734Y-101464086D01*
X133571734Y-101464086D02*
X133476496Y-101606943D01*
X133476496Y-101606943D02*
X133428877Y-101797419D01*
X133428877Y-101797419D02*
X133428877Y-102178371D01*
X133428877Y-102178371D02*
X133476496Y-102273609D01*
X133476496Y-102273609D02*
X133524115Y-102321229D01*
X133524115Y-102321229D02*
X133619353Y-102368848D01*
X133619353Y-102368848D02*
X133809829Y-102368848D01*
X133809829Y-102368848D02*
X133905067Y-102321229D01*
X133905067Y-102321229D02*
X133952686Y-102273609D01*
X133952686Y-102273609D02*
X134000305Y-102178371D01*
X134000305Y-102178371D02*
X134000305Y-101940276D01*
X134000305Y-101940276D02*
X133952686Y-101845038D01*
X133952686Y-101845038D02*
X133905067Y-101797419D01*
X133905067Y-101797419D02*
X133809829Y-101749800D01*
X133809829Y-101749800D02*
X133619353Y-101749800D01*
X133619353Y-101749800D02*
X133524115Y-101797419D01*
X133524115Y-101797419D02*
X133476496Y-101845038D01*
X133476496Y-101845038D02*
X133428877Y-101940276D01*
X118918534Y-96504248D02*
X118585201Y-96028057D01*
X118347106Y-96504248D02*
X118347106Y-95504248D01*
X118347106Y-95504248D02*
X118728058Y-95504248D01*
X118728058Y-95504248D02*
X118823296Y-95551867D01*
X118823296Y-95551867D02*
X118870915Y-95599486D01*
X118870915Y-95599486D02*
X118918534Y-95694724D01*
X118918534Y-95694724D02*
X118918534Y-95837581D01*
X118918534Y-95837581D02*
X118870915Y-95932819D01*
X118870915Y-95932819D02*
X118823296Y-95980438D01*
X118823296Y-95980438D02*
X118728058Y-96028057D01*
X118728058Y-96028057D02*
X118347106Y-96028057D01*
X119775677Y-95837581D02*
X119775677Y-96504248D01*
X119537582Y-95456629D02*
X119299487Y-96170914D01*
X119299487Y-96170914D02*
X119918534Y-96170914D01*
X117627895Y-123178219D02*
X117627895Y-123987742D01*
X117627895Y-123987742D02*
X117675514Y-124082980D01*
X117675514Y-124082980D02*
X117723133Y-124130600D01*
X117723133Y-124130600D02*
X117818371Y-124178219D01*
X117818371Y-124178219D02*
X118008847Y-124178219D01*
X118008847Y-124178219D02*
X118104085Y-124130600D01*
X118104085Y-124130600D02*
X118151704Y-124082980D01*
X118151704Y-124082980D02*
X118199323Y-123987742D01*
X118199323Y-123987742D02*
X118199323Y-123178219D01*
X119151704Y-123178219D02*
X118675514Y-123178219D01*
X118675514Y-123178219D02*
X118627895Y-123654409D01*
X118627895Y-123654409D02*
X118675514Y-123606790D01*
X118675514Y-123606790D02*
X118770752Y-123559171D01*
X118770752Y-123559171D02*
X119008847Y-123559171D01*
X119008847Y-123559171D02*
X119104085Y-123606790D01*
X119104085Y-123606790D02*
X119151704Y-123654409D01*
X119151704Y-123654409D02*
X119199323Y-123749647D01*
X119199323Y-123749647D02*
X119199323Y-123987742D01*
X119199323Y-123987742D02*
X119151704Y-124082980D01*
X119151704Y-124082980D02*
X119104085Y-124130600D01*
X119104085Y-124130600D02*
X119008847Y-124178219D01*
X119008847Y-124178219D02*
X118770752Y-124178219D01*
X118770752Y-124178219D02*
X118675514Y-124130600D01*
X118675514Y-124130600D02*
X118627895Y-124082980D01*
X140706220Y-45523295D02*
X140230029Y-45856628D01*
X140706220Y-46094723D02*
X139706220Y-46094723D01*
X139706220Y-46094723D02*
X139706220Y-45713771D01*
X139706220Y-45713771D02*
X139753839Y-45618533D01*
X139753839Y-45618533D02*
X139801458Y-45570914D01*
X139801458Y-45570914D02*
X139896696Y-45523295D01*
X139896696Y-45523295D02*
X140039553Y-45523295D01*
X140039553Y-45523295D02*
X140134791Y-45570914D01*
X140134791Y-45570914D02*
X140182410Y-45618533D01*
X140182410Y-45618533D02*
X140230029Y-45713771D01*
X140230029Y-45713771D02*
X140230029Y-46094723D01*
X140706220Y-45047104D02*
X140706220Y-44856628D01*
X140706220Y-44856628D02*
X140658601Y-44761390D01*
X140658601Y-44761390D02*
X140610981Y-44713771D01*
X140610981Y-44713771D02*
X140468124Y-44618533D01*
X140468124Y-44618533D02*
X140277648Y-44570914D01*
X140277648Y-44570914D02*
X139896696Y-44570914D01*
X139896696Y-44570914D02*
X139801458Y-44618533D01*
X139801458Y-44618533D02*
X139753839Y-44666152D01*
X139753839Y-44666152D02*
X139706220Y-44761390D01*
X139706220Y-44761390D02*
X139706220Y-44951866D01*
X139706220Y-44951866D02*
X139753839Y-45047104D01*
X139753839Y-45047104D02*
X139801458Y-45094723D01*
X139801458Y-45094723D02*
X139896696Y-45142342D01*
X139896696Y-45142342D02*
X140134791Y-45142342D01*
X140134791Y-45142342D02*
X140230029Y-45094723D01*
X140230029Y-45094723D02*
X140277648Y-45047104D01*
X140277648Y-45047104D02*
X140325267Y-44951866D01*
X140325267Y-44951866D02*
X140325267Y-44761390D01*
X140325267Y-44761390D02*
X140277648Y-44666152D01*
X140277648Y-44666152D02*
X140230029Y-44618533D01*
X140230029Y-44618533D02*
X140134791Y-44570914D01*
X147665743Y-101562648D02*
X147332410Y-101086457D01*
X147094315Y-101562648D02*
X147094315Y-100562648D01*
X147094315Y-100562648D02*
X147475267Y-100562648D01*
X147475267Y-100562648D02*
X147570505Y-100610267D01*
X147570505Y-100610267D02*
X147618124Y-100657886D01*
X147618124Y-100657886D02*
X147665743Y-100753124D01*
X147665743Y-100753124D02*
X147665743Y-100895981D01*
X147665743Y-100895981D02*
X147618124Y-100991219D01*
X147618124Y-100991219D02*
X147570505Y-101038838D01*
X147570505Y-101038838D02*
X147475267Y-101086457D01*
X147475267Y-101086457D02*
X147094315Y-101086457D01*
X148618124Y-101562648D02*
X148046696Y-101562648D01*
X148332410Y-101562648D02*
X148332410Y-100562648D01*
X148332410Y-100562648D02*
X148237172Y-100705505D01*
X148237172Y-100705505D02*
X148141934Y-100800743D01*
X148141934Y-100800743D02*
X148046696Y-100848362D01*
X149522886Y-100562648D02*
X149046696Y-100562648D01*
X149046696Y-100562648D02*
X148999077Y-101038838D01*
X148999077Y-101038838D02*
X149046696Y-100991219D01*
X149046696Y-100991219D02*
X149141934Y-100943600D01*
X149141934Y-100943600D02*
X149380029Y-100943600D01*
X149380029Y-100943600D02*
X149475267Y-100991219D01*
X149475267Y-100991219D02*
X149522886Y-101038838D01*
X149522886Y-101038838D02*
X149570505Y-101134076D01*
X149570505Y-101134076D02*
X149570505Y-101372171D01*
X149570505Y-101372171D02*
X149522886Y-101467409D01*
X149522886Y-101467409D02*
X149475267Y-101515029D01*
X149475267Y-101515029D02*
X149380029Y-101562648D01*
X149380029Y-101562648D02*
X149141934Y-101562648D01*
X149141934Y-101562648D02*
X149046696Y-101515029D01*
X149046696Y-101515029D02*
X148999077Y-101467409D01*
X129232819Y-121121257D02*
X128756628Y-121454590D01*
X129232819Y-121692685D02*
X128232819Y-121692685D01*
X128232819Y-121692685D02*
X128232819Y-121311733D01*
X128232819Y-121311733D02*
X128280438Y-121216495D01*
X128280438Y-121216495D02*
X128328057Y-121168876D01*
X128328057Y-121168876D02*
X128423295Y-121121257D01*
X128423295Y-121121257D02*
X128566152Y-121121257D01*
X128566152Y-121121257D02*
X128661390Y-121168876D01*
X128661390Y-121168876D02*
X128709009Y-121216495D01*
X128709009Y-121216495D02*
X128756628Y-121311733D01*
X128756628Y-121311733D02*
X128756628Y-121692685D01*
X128232819Y-120787923D02*
X128232819Y-120168876D01*
X128232819Y-120168876D02*
X128613771Y-120502209D01*
X128613771Y-120502209D02*
X128613771Y-120359352D01*
X128613771Y-120359352D02*
X128661390Y-120264114D01*
X128661390Y-120264114D02*
X128709009Y-120216495D01*
X128709009Y-120216495D02*
X128804247Y-120168876D01*
X128804247Y-120168876D02*
X129042342Y-120168876D01*
X129042342Y-120168876D02*
X129137580Y-120216495D01*
X129137580Y-120216495D02*
X129185200Y-120264114D01*
X129185200Y-120264114D02*
X129232819Y-120359352D01*
X129232819Y-120359352D02*
X129232819Y-120645066D01*
X129232819Y-120645066D02*
X129185200Y-120740304D01*
X129185200Y-120740304D02*
X129137580Y-120787923D01*
X128232819Y-119311733D02*
X128232819Y-119502209D01*
X128232819Y-119502209D02*
X128280438Y-119597447D01*
X128280438Y-119597447D02*
X128328057Y-119645066D01*
X128328057Y-119645066D02*
X128470914Y-119740304D01*
X128470914Y-119740304D02*
X128661390Y-119787923D01*
X128661390Y-119787923D02*
X129042342Y-119787923D01*
X129042342Y-119787923D02*
X129137580Y-119740304D01*
X129137580Y-119740304D02*
X129185200Y-119692685D01*
X129185200Y-119692685D02*
X129232819Y-119597447D01*
X129232819Y-119597447D02*
X129232819Y-119406971D01*
X129232819Y-119406971D02*
X129185200Y-119311733D01*
X129185200Y-119311733D02*
X129137580Y-119264114D01*
X129137580Y-119264114D02*
X129042342Y-119216495D01*
X129042342Y-119216495D02*
X128804247Y-119216495D01*
X128804247Y-119216495D02*
X128709009Y-119264114D01*
X128709009Y-119264114D02*
X128661390Y-119311733D01*
X128661390Y-119311733D02*
X128613771Y-119406971D01*
X128613771Y-119406971D02*
X128613771Y-119597447D01*
X128613771Y-119597447D02*
X128661390Y-119692685D01*
X128661390Y-119692685D02*
X128709009Y-119740304D01*
X128709009Y-119740304D02*
X128804247Y-119787923D01*
X137080306Y-27851848D02*
X137080306Y-26851848D01*
X137080306Y-26851848D02*
X137318401Y-26851848D01*
X137318401Y-26851848D02*
X137461258Y-26899467D01*
X137461258Y-26899467D02*
X137556496Y-26994705D01*
X137556496Y-26994705D02*
X137604115Y-27089943D01*
X137604115Y-27089943D02*
X137651734Y-27280419D01*
X137651734Y-27280419D02*
X137651734Y-27423276D01*
X137651734Y-27423276D02*
X137604115Y-27613752D01*
X137604115Y-27613752D02*
X137556496Y-27708990D01*
X137556496Y-27708990D02*
X137461258Y-27804229D01*
X137461258Y-27804229D02*
X137318401Y-27851848D01*
X137318401Y-27851848D02*
X137080306Y-27851848D01*
X138508877Y-27185181D02*
X138508877Y-27851848D01*
X138270782Y-26804229D02*
X138032687Y-27518514D01*
X138032687Y-27518514D02*
X138651734Y-27518514D01*
X144201996Y-93441848D02*
X144201996Y-94251371D01*
X144201996Y-94251371D02*
X144249615Y-94346609D01*
X144249615Y-94346609D02*
X144297234Y-94394229D01*
X144297234Y-94394229D02*
X144392472Y-94441848D01*
X144392472Y-94441848D02*
X144582948Y-94441848D01*
X144582948Y-94441848D02*
X144678186Y-94394229D01*
X144678186Y-94394229D02*
X144725805Y-94346609D01*
X144725805Y-94346609D02*
X144773424Y-94251371D01*
X144773424Y-94251371D02*
X144773424Y-93441848D01*
X145154377Y-93441848D02*
X145821043Y-93441848D01*
X145821043Y-93441848D02*
X145392472Y-94441848D01*
X137321534Y-42431448D02*
X136988201Y-41955257D01*
X136750106Y-42431448D02*
X136750106Y-41431448D01*
X136750106Y-41431448D02*
X137131058Y-41431448D01*
X137131058Y-41431448D02*
X137226296Y-41479067D01*
X137226296Y-41479067D02*
X137273915Y-41526686D01*
X137273915Y-41526686D02*
X137321534Y-41621924D01*
X137321534Y-41621924D02*
X137321534Y-41764781D01*
X137321534Y-41764781D02*
X137273915Y-41860019D01*
X137273915Y-41860019D02*
X137226296Y-41907638D01*
X137226296Y-41907638D02*
X137131058Y-41955257D01*
X137131058Y-41955257D02*
X136750106Y-41955257D01*
X138178677Y-41431448D02*
X137988201Y-41431448D01*
X137988201Y-41431448D02*
X137892963Y-41479067D01*
X137892963Y-41479067D02*
X137845344Y-41526686D01*
X137845344Y-41526686D02*
X137750106Y-41669543D01*
X137750106Y-41669543D02*
X137702487Y-41860019D01*
X137702487Y-41860019D02*
X137702487Y-42240971D01*
X137702487Y-42240971D02*
X137750106Y-42336209D01*
X137750106Y-42336209D02*
X137797725Y-42383829D01*
X137797725Y-42383829D02*
X137892963Y-42431448D01*
X137892963Y-42431448D02*
X138083439Y-42431448D01*
X138083439Y-42431448D02*
X138178677Y-42383829D01*
X138178677Y-42383829D02*
X138226296Y-42336209D01*
X138226296Y-42336209D02*
X138273915Y-42240971D01*
X138273915Y-42240971D02*
X138273915Y-42002876D01*
X138273915Y-42002876D02*
X138226296Y-41907638D01*
X138226296Y-41907638D02*
X138178677Y-41860019D01*
X138178677Y-41860019D02*
X138083439Y-41812400D01*
X138083439Y-41812400D02*
X137892963Y-41812400D01*
X137892963Y-41812400D02*
X137797725Y-41860019D01*
X137797725Y-41860019D02*
X137750106Y-41907638D01*
X137750106Y-41907638D02*
X137702487Y-42002876D01*
X151757142Y-42142580D02*
X151709523Y-42190200D01*
X151709523Y-42190200D02*
X151566666Y-42237819D01*
X151566666Y-42237819D02*
X151471428Y-42237819D01*
X151471428Y-42237819D02*
X151328571Y-42190200D01*
X151328571Y-42190200D02*
X151233333Y-42094961D01*
X151233333Y-42094961D02*
X151185714Y-41999723D01*
X151185714Y-41999723D02*
X151138095Y-41809247D01*
X151138095Y-41809247D02*
X151138095Y-41666390D01*
X151138095Y-41666390D02*
X151185714Y-41475914D01*
X151185714Y-41475914D02*
X151233333Y-41380676D01*
X151233333Y-41380676D02*
X151328571Y-41285438D01*
X151328571Y-41285438D02*
X151471428Y-41237819D01*
X151471428Y-41237819D02*
X151566666Y-41237819D01*
X151566666Y-41237819D02*
X151709523Y-41285438D01*
X151709523Y-41285438D02*
X151757142Y-41333057D01*
X152614285Y-41237819D02*
X152423809Y-41237819D01*
X152423809Y-41237819D02*
X152328571Y-41285438D01*
X152328571Y-41285438D02*
X152280952Y-41333057D01*
X152280952Y-41333057D02*
X152185714Y-41475914D01*
X152185714Y-41475914D02*
X152138095Y-41666390D01*
X152138095Y-41666390D02*
X152138095Y-42047342D01*
X152138095Y-42047342D02*
X152185714Y-42142580D01*
X152185714Y-42142580D02*
X152233333Y-42190200D01*
X152233333Y-42190200D02*
X152328571Y-42237819D01*
X152328571Y-42237819D02*
X152519047Y-42237819D01*
X152519047Y-42237819D02*
X152614285Y-42190200D01*
X152614285Y-42190200D02*
X152661904Y-42142580D01*
X152661904Y-42142580D02*
X152709523Y-42047342D01*
X152709523Y-42047342D02*
X152709523Y-41809247D01*
X152709523Y-41809247D02*
X152661904Y-41714009D01*
X152661904Y-41714009D02*
X152614285Y-41666390D01*
X152614285Y-41666390D02*
X152519047Y-41618771D01*
X152519047Y-41618771D02*
X152328571Y-41618771D01*
X152328571Y-41618771D02*
X152233333Y-41666390D01*
X152233333Y-41666390D02*
X152185714Y-41714009D01*
X152185714Y-41714009D02*
X152138095Y-41809247D01*
X153614285Y-41237819D02*
X153138095Y-41237819D01*
X153138095Y-41237819D02*
X153090476Y-41714009D01*
X153090476Y-41714009D02*
X153138095Y-41666390D01*
X153138095Y-41666390D02*
X153233333Y-41618771D01*
X153233333Y-41618771D02*
X153471428Y-41618771D01*
X153471428Y-41618771D02*
X153566666Y-41666390D01*
X153566666Y-41666390D02*
X153614285Y-41714009D01*
X153614285Y-41714009D02*
X153661904Y-41809247D01*
X153661904Y-41809247D02*
X153661904Y-42047342D01*
X153661904Y-42047342D02*
X153614285Y-42142580D01*
X153614285Y-42142580D02*
X153566666Y-42190200D01*
X153566666Y-42190200D02*
X153471428Y-42237819D01*
X153471428Y-42237819D02*
X153233333Y-42237819D01*
X153233333Y-42237819D02*
X153138095Y-42190200D01*
X153138095Y-42190200D02*
X153090476Y-42142580D01*
D11*
X137715734Y-52908419D02*
X137239544Y-52908419D01*
X137239544Y-52908419D02*
X137239544Y-51908419D01*
X137953830Y-51908419D02*
X138572877Y-51908419D01*
X138572877Y-51908419D02*
X138239544Y-52289371D01*
X138239544Y-52289371D02*
X138382401Y-52289371D01*
X138382401Y-52289371D02*
X138477639Y-52336990D01*
X138477639Y-52336990D02*
X138525258Y-52384609D01*
X138525258Y-52384609D02*
X138572877Y-52479847D01*
X138572877Y-52479847D02*
X138572877Y-52717942D01*
X138572877Y-52717942D02*
X138525258Y-52813180D01*
X138525258Y-52813180D02*
X138477639Y-52860800D01*
X138477639Y-52860800D02*
X138382401Y-52908419D01*
X138382401Y-52908419D02*
X138096687Y-52908419D01*
X138096687Y-52908419D02*
X138001449Y-52860800D01*
X138001449Y-52860800D02*
X137953830Y-52813180D01*
D10*
X141978142Y-117580580D02*
X141930523Y-117628200D01*
X141930523Y-117628200D02*
X141787666Y-117675819D01*
X141787666Y-117675819D02*
X141692428Y-117675819D01*
X141692428Y-117675819D02*
X141549571Y-117628200D01*
X141549571Y-117628200D02*
X141454333Y-117532961D01*
X141454333Y-117532961D02*
X141406714Y-117437723D01*
X141406714Y-117437723D02*
X141359095Y-117247247D01*
X141359095Y-117247247D02*
X141359095Y-117104390D01*
X141359095Y-117104390D02*
X141406714Y-116913914D01*
X141406714Y-116913914D02*
X141454333Y-116818676D01*
X141454333Y-116818676D02*
X141549571Y-116723438D01*
X141549571Y-116723438D02*
X141692428Y-116675819D01*
X141692428Y-116675819D02*
X141787666Y-116675819D01*
X141787666Y-116675819D02*
X141930523Y-116723438D01*
X141930523Y-116723438D02*
X141978142Y-116771057D01*
X142311476Y-116675819D02*
X142930523Y-116675819D01*
X142930523Y-116675819D02*
X142597190Y-117056771D01*
X142597190Y-117056771D02*
X142740047Y-117056771D01*
X142740047Y-117056771D02*
X142835285Y-117104390D01*
X142835285Y-117104390D02*
X142882904Y-117152009D01*
X142882904Y-117152009D02*
X142930523Y-117247247D01*
X142930523Y-117247247D02*
X142930523Y-117485342D01*
X142930523Y-117485342D02*
X142882904Y-117580580D01*
X142882904Y-117580580D02*
X142835285Y-117628200D01*
X142835285Y-117628200D02*
X142740047Y-117675819D01*
X142740047Y-117675819D02*
X142454333Y-117675819D01*
X142454333Y-117675819D02*
X142359095Y-117628200D01*
X142359095Y-117628200D02*
X142311476Y-117580580D01*
X143787666Y-117009152D02*
X143787666Y-117675819D01*
X143549571Y-116628200D02*
X143311476Y-117342485D01*
X143311476Y-117342485D02*
X143930523Y-117342485D01*
X126056180Y-120782257D02*
X126103800Y-120829876D01*
X126103800Y-120829876D02*
X126151419Y-120972733D01*
X126151419Y-120972733D02*
X126151419Y-121067971D01*
X126151419Y-121067971D02*
X126103800Y-121210828D01*
X126103800Y-121210828D02*
X126008561Y-121306066D01*
X126008561Y-121306066D02*
X125913323Y-121353685D01*
X125913323Y-121353685D02*
X125722847Y-121401304D01*
X125722847Y-121401304D02*
X125579990Y-121401304D01*
X125579990Y-121401304D02*
X125389514Y-121353685D01*
X125389514Y-121353685D02*
X125294276Y-121306066D01*
X125294276Y-121306066D02*
X125199038Y-121210828D01*
X125199038Y-121210828D02*
X125151419Y-121067971D01*
X125151419Y-121067971D02*
X125151419Y-120972733D01*
X125151419Y-120972733D02*
X125199038Y-120829876D01*
X125199038Y-120829876D02*
X125246657Y-120782257D01*
X125246657Y-120401304D02*
X125199038Y-120353685D01*
X125199038Y-120353685D02*
X125151419Y-120258447D01*
X125151419Y-120258447D02*
X125151419Y-120020352D01*
X125151419Y-120020352D02*
X125199038Y-119925114D01*
X125199038Y-119925114D02*
X125246657Y-119877495D01*
X125246657Y-119877495D02*
X125341895Y-119829876D01*
X125341895Y-119829876D02*
X125437133Y-119829876D01*
X125437133Y-119829876D02*
X125579990Y-119877495D01*
X125579990Y-119877495D02*
X126151419Y-120448923D01*
X126151419Y-120448923D02*
X126151419Y-119829876D01*
X125151419Y-119210828D02*
X125151419Y-119115590D01*
X125151419Y-119115590D02*
X125199038Y-119020352D01*
X125199038Y-119020352D02*
X125246657Y-118972733D01*
X125246657Y-118972733D02*
X125341895Y-118925114D01*
X125341895Y-118925114D02*
X125532371Y-118877495D01*
X125532371Y-118877495D02*
X125770466Y-118877495D01*
X125770466Y-118877495D02*
X125960942Y-118925114D01*
X125960942Y-118925114D02*
X126056180Y-118972733D01*
X126056180Y-118972733D02*
X126103800Y-119020352D01*
X126103800Y-119020352D02*
X126151419Y-119115590D01*
X126151419Y-119115590D02*
X126151419Y-119210828D01*
X126151419Y-119210828D02*
X126103800Y-119306066D01*
X126103800Y-119306066D02*
X126056180Y-119353685D01*
X126056180Y-119353685D02*
X125960942Y-119401304D01*
X125960942Y-119401304D02*
X125770466Y-119448923D01*
X125770466Y-119448923D02*
X125532371Y-119448923D01*
X125532371Y-119448923D02*
X125341895Y-119401304D01*
X125341895Y-119401304D02*
X125246657Y-119353685D01*
X125246657Y-119353685D02*
X125199038Y-119306066D01*
X125199038Y-119306066D02*
X125151419Y-119210828D01*
X135993581Y-97559686D02*
X136041201Y-97607305D01*
X136041201Y-97607305D02*
X136088820Y-97750162D01*
X136088820Y-97750162D02*
X136088820Y-97845400D01*
X136088820Y-97845400D02*
X136041201Y-97988257D01*
X136041201Y-97988257D02*
X135945962Y-98083495D01*
X135945962Y-98083495D02*
X135850724Y-98131114D01*
X135850724Y-98131114D02*
X135660248Y-98178733D01*
X135660248Y-98178733D02*
X135517391Y-98178733D01*
X135517391Y-98178733D02*
X135326915Y-98131114D01*
X135326915Y-98131114D02*
X135231677Y-98083495D01*
X135231677Y-98083495D02*
X135136439Y-97988257D01*
X135136439Y-97988257D02*
X135088820Y-97845400D01*
X135088820Y-97845400D02*
X135088820Y-97750162D01*
X135088820Y-97750162D02*
X135136439Y-97607305D01*
X135136439Y-97607305D02*
X135184058Y-97559686D01*
X136088820Y-96607305D02*
X136088820Y-97178733D01*
X136088820Y-96893019D02*
X135088820Y-96893019D01*
X135088820Y-96893019D02*
X135231677Y-96988257D01*
X135231677Y-96988257D02*
X135326915Y-97083495D01*
X135326915Y-97083495D02*
X135374534Y-97178733D01*
X136088820Y-95654924D02*
X136088820Y-96226352D01*
X136088820Y-95940638D02*
X135088820Y-95940638D01*
X135088820Y-95940638D02*
X135231677Y-96035876D01*
X135231677Y-96035876D02*
X135326915Y-96131114D01*
X135326915Y-96131114D02*
X135374534Y-96226352D01*
X134524761Y-49064057D02*
X134429523Y-49016438D01*
X134429523Y-49016438D02*
X134334285Y-48921200D01*
X134334285Y-48921200D02*
X134191428Y-48778342D01*
X134191428Y-48778342D02*
X134096190Y-48730723D01*
X134096190Y-48730723D02*
X134000952Y-48730723D01*
X134048571Y-48968819D02*
X133953333Y-48921200D01*
X133953333Y-48921200D02*
X133858095Y-48825961D01*
X133858095Y-48825961D02*
X133810476Y-48635485D01*
X133810476Y-48635485D02*
X133810476Y-48302152D01*
X133810476Y-48302152D02*
X133858095Y-48111676D01*
X133858095Y-48111676D02*
X133953333Y-48016438D01*
X133953333Y-48016438D02*
X134048571Y-47968819D01*
X134048571Y-47968819D02*
X134239047Y-47968819D01*
X134239047Y-47968819D02*
X134334285Y-48016438D01*
X134334285Y-48016438D02*
X134429523Y-48111676D01*
X134429523Y-48111676D02*
X134477142Y-48302152D01*
X134477142Y-48302152D02*
X134477142Y-48635485D01*
X134477142Y-48635485D02*
X134429523Y-48825961D01*
X134429523Y-48825961D02*
X134334285Y-48921200D01*
X134334285Y-48921200D02*
X134239047Y-48968819D01*
X134239047Y-48968819D02*
X134048571Y-48968819D01*
X134810476Y-47968819D02*
X135429523Y-47968819D01*
X135429523Y-47968819D02*
X135096190Y-48349771D01*
X135096190Y-48349771D02*
X135239047Y-48349771D01*
X135239047Y-48349771D02*
X135334285Y-48397390D01*
X135334285Y-48397390D02*
X135381904Y-48445009D01*
X135381904Y-48445009D02*
X135429523Y-48540247D01*
X135429523Y-48540247D02*
X135429523Y-48778342D01*
X135429523Y-48778342D02*
X135381904Y-48873580D01*
X135381904Y-48873580D02*
X135334285Y-48921200D01*
X135334285Y-48921200D02*
X135239047Y-48968819D01*
X135239047Y-48968819D02*
X134953333Y-48968819D01*
X134953333Y-48968819D02*
X134858095Y-48921200D01*
X134858095Y-48921200D02*
X134810476Y-48873580D01*
X133820819Y-52704999D02*
X134058914Y-52704999D01*
X133963676Y-52943094D02*
X134058914Y-52704999D01*
X134058914Y-52704999D02*
X133963676Y-52466904D01*
X134249390Y-52847856D02*
X134058914Y-52704999D01*
X134058914Y-52704999D02*
X134249390Y-52562142D01*
X134911180Y-52705000D02*
X134673085Y-52705000D01*
X134768323Y-52466905D02*
X134673085Y-52705000D01*
X134673085Y-52705000D02*
X134768323Y-52943095D01*
X134482609Y-52562143D02*
X134673085Y-52705000D01*
X134673085Y-52705000D02*
X134482609Y-52847857D01*
X132954071Y-90027871D02*
X132858833Y-89980252D01*
X132858833Y-89980252D02*
X132763595Y-89885014D01*
X132763595Y-89885014D02*
X132620738Y-89742156D01*
X132620738Y-89742156D02*
X132525500Y-89694537D01*
X132525500Y-89694537D02*
X132430262Y-89694537D01*
X132477881Y-89932633D02*
X132382643Y-89885014D01*
X132382643Y-89885014D02*
X132287405Y-89789775D01*
X132287405Y-89789775D02*
X132239786Y-89599299D01*
X132239786Y-89599299D02*
X132239786Y-89265966D01*
X132239786Y-89265966D02*
X132287405Y-89075490D01*
X132287405Y-89075490D02*
X132382643Y-88980252D01*
X132382643Y-88980252D02*
X132477881Y-88932633D01*
X132477881Y-88932633D02*
X132668357Y-88932633D01*
X132668357Y-88932633D02*
X132763595Y-88980252D01*
X132763595Y-88980252D02*
X132858833Y-89075490D01*
X132858833Y-89075490D02*
X132906452Y-89265966D01*
X132906452Y-89265966D02*
X132906452Y-89599299D01*
X132906452Y-89599299D02*
X132858833Y-89789775D01*
X132858833Y-89789775D02*
X132763595Y-89885014D01*
X132763595Y-89885014D02*
X132668357Y-89932633D01*
X132668357Y-89932633D02*
X132477881Y-89932633D01*
X133858833Y-89932633D02*
X133287405Y-89932633D01*
X133573119Y-89932633D02*
X133573119Y-88932633D01*
X133573119Y-88932633D02*
X133477881Y-89075490D01*
X133477881Y-89075490D02*
X133382643Y-89170728D01*
X133382643Y-89170728D02*
X133287405Y-89218347D01*
X134715976Y-89265966D02*
X134715976Y-89932633D01*
X134477881Y-88885014D02*
X134239786Y-89599299D01*
X134239786Y-89599299D02*
X134858833Y-89599299D01*
X133637410Y-113628933D02*
X133637410Y-113962266D01*
X134161220Y-113962266D02*
X133161220Y-113962266D01*
X133161220Y-113962266D02*
X133161220Y-113486076D01*
X133637410Y-112771790D02*
X133685029Y-112628933D01*
X133685029Y-112628933D02*
X133732648Y-112581314D01*
X133732648Y-112581314D02*
X133827886Y-112533695D01*
X133827886Y-112533695D02*
X133970743Y-112533695D01*
X133970743Y-112533695D02*
X134065981Y-112581314D01*
X134065981Y-112581314D02*
X134113601Y-112628933D01*
X134113601Y-112628933D02*
X134161220Y-112724171D01*
X134161220Y-112724171D02*
X134161220Y-113105123D01*
X134161220Y-113105123D02*
X133161220Y-113105123D01*
X133161220Y-113105123D02*
X133161220Y-112771790D01*
X133161220Y-112771790D02*
X133208839Y-112676552D01*
X133208839Y-112676552D02*
X133256458Y-112628933D01*
X133256458Y-112628933D02*
X133351696Y-112581314D01*
X133351696Y-112581314D02*
X133446934Y-112581314D01*
X133446934Y-112581314D02*
X133542172Y-112628933D01*
X133542172Y-112628933D02*
X133589791Y-112676552D01*
X133589791Y-112676552D02*
X133637410Y-112771790D01*
X133637410Y-112771790D02*
X133637410Y-113105123D01*
X134161220Y-111581314D02*
X134161220Y-112152742D01*
X134161220Y-111867028D02*
X133161220Y-111867028D01*
X133161220Y-111867028D02*
X133304077Y-111962266D01*
X133304077Y-111962266D02*
X133399315Y-112057504D01*
X133399315Y-112057504D02*
X133446934Y-112152742D01*
X138535580Y-115083457D02*
X138583200Y-115131076D01*
X138583200Y-115131076D02*
X138630819Y-115273933D01*
X138630819Y-115273933D02*
X138630819Y-115369171D01*
X138630819Y-115369171D02*
X138583200Y-115512028D01*
X138583200Y-115512028D02*
X138487961Y-115607266D01*
X138487961Y-115607266D02*
X138392723Y-115654885D01*
X138392723Y-115654885D02*
X138202247Y-115702504D01*
X138202247Y-115702504D02*
X138059390Y-115702504D01*
X138059390Y-115702504D02*
X137868914Y-115654885D01*
X137868914Y-115654885D02*
X137773676Y-115607266D01*
X137773676Y-115607266D02*
X137678438Y-115512028D01*
X137678438Y-115512028D02*
X137630819Y-115369171D01*
X137630819Y-115369171D02*
X137630819Y-115273933D01*
X137630819Y-115273933D02*
X137678438Y-115131076D01*
X137678438Y-115131076D02*
X137726057Y-115083457D01*
X137726057Y-114702504D02*
X137678438Y-114654885D01*
X137678438Y-114654885D02*
X137630819Y-114559647D01*
X137630819Y-114559647D02*
X137630819Y-114321552D01*
X137630819Y-114321552D02*
X137678438Y-114226314D01*
X137678438Y-114226314D02*
X137726057Y-114178695D01*
X137726057Y-114178695D02*
X137821295Y-114131076D01*
X137821295Y-114131076D02*
X137916533Y-114131076D01*
X137916533Y-114131076D02*
X138059390Y-114178695D01*
X138059390Y-114178695D02*
X138630819Y-114750123D01*
X138630819Y-114750123D02*
X138630819Y-114131076D01*
X137964152Y-113273933D02*
X138630819Y-113273933D01*
X137583200Y-113512028D02*
X138297485Y-113750123D01*
X138297485Y-113750123D02*
X138297485Y-113131076D01*
X132095543Y-103416609D02*
X132047924Y-103464229D01*
X132047924Y-103464229D02*
X131905067Y-103511848D01*
X131905067Y-103511848D02*
X131809829Y-103511848D01*
X131809829Y-103511848D02*
X131666972Y-103464229D01*
X131666972Y-103464229D02*
X131571734Y-103368990D01*
X131571734Y-103368990D02*
X131524115Y-103273752D01*
X131524115Y-103273752D02*
X131476496Y-103083276D01*
X131476496Y-103083276D02*
X131476496Y-102940419D01*
X131476496Y-102940419D02*
X131524115Y-102749943D01*
X131524115Y-102749943D02*
X131571734Y-102654705D01*
X131571734Y-102654705D02*
X131666972Y-102559467D01*
X131666972Y-102559467D02*
X131809829Y-102511848D01*
X131809829Y-102511848D02*
X131905067Y-102511848D01*
X131905067Y-102511848D02*
X132047924Y-102559467D01*
X132047924Y-102559467D02*
X132095543Y-102607086D01*
X132476496Y-102607086D02*
X132524115Y-102559467D01*
X132524115Y-102559467D02*
X132619353Y-102511848D01*
X132619353Y-102511848D02*
X132857448Y-102511848D01*
X132857448Y-102511848D02*
X132952686Y-102559467D01*
X132952686Y-102559467D02*
X133000305Y-102607086D01*
X133000305Y-102607086D02*
X133047924Y-102702324D01*
X133047924Y-102702324D02*
X133047924Y-102797562D01*
X133047924Y-102797562D02*
X133000305Y-102940419D01*
X133000305Y-102940419D02*
X132428877Y-103511848D01*
X132428877Y-103511848D02*
X133047924Y-103511848D01*
X133381258Y-102511848D02*
X134047924Y-102511848D01*
X134047924Y-102511848D02*
X133619353Y-103511848D01*
X139554220Y-97504886D02*
X139078029Y-97838219D01*
X139554220Y-98076314D02*
X138554220Y-98076314D01*
X138554220Y-98076314D02*
X138554220Y-97695362D01*
X138554220Y-97695362D02*
X138601839Y-97600124D01*
X138601839Y-97600124D02*
X138649458Y-97552505D01*
X138649458Y-97552505D02*
X138744696Y-97504886D01*
X138744696Y-97504886D02*
X138887553Y-97504886D01*
X138887553Y-97504886D02*
X138982791Y-97552505D01*
X138982791Y-97552505D02*
X139030410Y-97600124D01*
X139030410Y-97600124D02*
X139078029Y-97695362D01*
X139078029Y-97695362D02*
X139078029Y-98076314D01*
X138649458Y-97123933D02*
X138601839Y-97076314D01*
X138601839Y-97076314D02*
X138554220Y-96981076D01*
X138554220Y-96981076D02*
X138554220Y-96742981D01*
X138554220Y-96742981D02*
X138601839Y-96647743D01*
X138601839Y-96647743D02*
X138649458Y-96600124D01*
X138649458Y-96600124D02*
X138744696Y-96552505D01*
X138744696Y-96552505D02*
X138839934Y-96552505D01*
X138839934Y-96552505D02*
X138982791Y-96600124D01*
X138982791Y-96600124D02*
X139554220Y-97171552D01*
X139554220Y-97171552D02*
X139554220Y-96552505D01*
X138554220Y-95933457D02*
X138554220Y-95838219D01*
X138554220Y-95838219D02*
X138601839Y-95742981D01*
X138601839Y-95742981D02*
X138649458Y-95695362D01*
X138649458Y-95695362D02*
X138744696Y-95647743D01*
X138744696Y-95647743D02*
X138935172Y-95600124D01*
X138935172Y-95600124D02*
X139173267Y-95600124D01*
X139173267Y-95600124D02*
X139363743Y-95647743D01*
X139363743Y-95647743D02*
X139458981Y-95695362D01*
X139458981Y-95695362D02*
X139506601Y-95742981D01*
X139506601Y-95742981D02*
X139554220Y-95838219D01*
X139554220Y-95838219D02*
X139554220Y-95933457D01*
X139554220Y-95933457D02*
X139506601Y-96028695D01*
X139506601Y-96028695D02*
X139458981Y-96076314D01*
X139458981Y-96076314D02*
X139363743Y-96123933D01*
X139363743Y-96123933D02*
X139173267Y-96171552D01*
X139173267Y-96171552D02*
X138935172Y-96171552D01*
X138935172Y-96171552D02*
X138744696Y-96123933D01*
X138744696Y-96123933D02*
X138649458Y-96076314D01*
X138649458Y-96076314D02*
X138601839Y-96028695D01*
X138601839Y-96028695D02*
X138554220Y-95933457D01*
X132123543Y-101130609D02*
X132075924Y-101178229D01*
X132075924Y-101178229D02*
X131933067Y-101225848D01*
X131933067Y-101225848D02*
X131837829Y-101225848D01*
X131837829Y-101225848D02*
X131694972Y-101178229D01*
X131694972Y-101178229D02*
X131599734Y-101082990D01*
X131599734Y-101082990D02*
X131552115Y-100987752D01*
X131552115Y-100987752D02*
X131504496Y-100797276D01*
X131504496Y-100797276D02*
X131504496Y-100654419D01*
X131504496Y-100654419D02*
X131552115Y-100463943D01*
X131552115Y-100463943D02*
X131599734Y-100368705D01*
X131599734Y-100368705D02*
X131694972Y-100273467D01*
X131694972Y-100273467D02*
X131837829Y-100225848D01*
X131837829Y-100225848D02*
X131933067Y-100225848D01*
X131933067Y-100225848D02*
X132075924Y-100273467D01*
X132075924Y-100273467D02*
X132123543Y-100321086D01*
X132504496Y-100321086D02*
X132552115Y-100273467D01*
X132552115Y-100273467D02*
X132647353Y-100225848D01*
X132647353Y-100225848D02*
X132885448Y-100225848D01*
X132885448Y-100225848D02*
X132980686Y-100273467D01*
X132980686Y-100273467D02*
X133028305Y-100321086D01*
X133028305Y-100321086D02*
X133075924Y-100416324D01*
X133075924Y-100416324D02*
X133075924Y-100511562D01*
X133075924Y-100511562D02*
X133028305Y-100654419D01*
X133028305Y-100654419D02*
X132456877Y-101225848D01*
X132456877Y-101225848D02*
X133075924Y-101225848D01*
X133980686Y-100225848D02*
X133504496Y-100225848D01*
X133504496Y-100225848D02*
X133456877Y-100702038D01*
X133456877Y-100702038D02*
X133504496Y-100654419D01*
X133504496Y-100654419D02*
X133599734Y-100606800D01*
X133599734Y-100606800D02*
X133837829Y-100606800D01*
X133837829Y-100606800D02*
X133933067Y-100654419D01*
X133933067Y-100654419D02*
X133980686Y-100702038D01*
X133980686Y-100702038D02*
X134028305Y-100797276D01*
X134028305Y-100797276D02*
X134028305Y-101035371D01*
X134028305Y-101035371D02*
X133980686Y-101130609D01*
X133980686Y-101130609D02*
X133933067Y-101178229D01*
X133933067Y-101178229D02*
X133837829Y-101225848D01*
X133837829Y-101225848D02*
X133599734Y-101225848D01*
X133599734Y-101225848D02*
X133504496Y-101178229D01*
X133504496Y-101178229D02*
X133456877Y-101130609D01*
X122527981Y-65159486D02*
X122575601Y-65207105D01*
X122575601Y-65207105D02*
X122623220Y-65349962D01*
X122623220Y-65349962D02*
X122623220Y-65445200D01*
X122623220Y-65445200D02*
X122575601Y-65588057D01*
X122575601Y-65588057D02*
X122480362Y-65683295D01*
X122480362Y-65683295D02*
X122385124Y-65730914D01*
X122385124Y-65730914D02*
X122194648Y-65778533D01*
X122194648Y-65778533D02*
X122051791Y-65778533D01*
X122051791Y-65778533D02*
X121861315Y-65730914D01*
X121861315Y-65730914D02*
X121766077Y-65683295D01*
X121766077Y-65683295D02*
X121670839Y-65588057D01*
X121670839Y-65588057D02*
X121623220Y-65445200D01*
X121623220Y-65445200D02*
X121623220Y-65349962D01*
X121623220Y-65349962D02*
X121670839Y-65207105D01*
X121670839Y-65207105D02*
X121718458Y-65159486D01*
X122623220Y-64207105D02*
X122623220Y-64778533D01*
X122623220Y-64492819D02*
X121623220Y-64492819D01*
X121623220Y-64492819D02*
X121766077Y-64588057D01*
X121766077Y-64588057D02*
X121861315Y-64683295D01*
X121861315Y-64683295D02*
X121908934Y-64778533D01*
X121623220Y-63349962D02*
X121623220Y-63540438D01*
X121623220Y-63540438D02*
X121670839Y-63635676D01*
X121670839Y-63635676D02*
X121718458Y-63683295D01*
X121718458Y-63683295D02*
X121861315Y-63778533D01*
X121861315Y-63778533D02*
X122051791Y-63826152D01*
X122051791Y-63826152D02*
X122432743Y-63826152D01*
X122432743Y-63826152D02*
X122527981Y-63778533D01*
X122527981Y-63778533D02*
X122575601Y-63730914D01*
X122575601Y-63730914D02*
X122623220Y-63635676D01*
X122623220Y-63635676D02*
X122623220Y-63445200D01*
X122623220Y-63445200D02*
X122575601Y-63349962D01*
X122575601Y-63349962D02*
X122527981Y-63302343D01*
X122527981Y-63302343D02*
X122432743Y-63254724D01*
X122432743Y-63254724D02*
X122194648Y-63254724D01*
X122194648Y-63254724D02*
X122099410Y-63302343D01*
X122099410Y-63302343D02*
X122051791Y-63349962D01*
X122051791Y-63349962D02*
X122004172Y-63445200D01*
X122004172Y-63445200D02*
X122004172Y-63635676D01*
X122004172Y-63635676D02*
X122051791Y-63730914D01*
X122051791Y-63730914D02*
X122099410Y-63778533D01*
X122099410Y-63778533D02*
X122194648Y-63826152D01*
X132123543Y-105714609D02*
X132075924Y-105762229D01*
X132075924Y-105762229D02*
X131933067Y-105809848D01*
X131933067Y-105809848D02*
X131837829Y-105809848D01*
X131837829Y-105809848D02*
X131694972Y-105762229D01*
X131694972Y-105762229D02*
X131599734Y-105666990D01*
X131599734Y-105666990D02*
X131552115Y-105571752D01*
X131552115Y-105571752D02*
X131504496Y-105381276D01*
X131504496Y-105381276D02*
X131504496Y-105238419D01*
X131504496Y-105238419D02*
X131552115Y-105047943D01*
X131552115Y-105047943D02*
X131599734Y-104952705D01*
X131599734Y-104952705D02*
X131694972Y-104857467D01*
X131694972Y-104857467D02*
X131837829Y-104809848D01*
X131837829Y-104809848D02*
X131933067Y-104809848D01*
X131933067Y-104809848D02*
X132075924Y-104857467D01*
X132075924Y-104857467D02*
X132123543Y-104905086D01*
X132456877Y-104809848D02*
X133075924Y-104809848D01*
X133075924Y-104809848D02*
X132742591Y-105190800D01*
X132742591Y-105190800D02*
X132885448Y-105190800D01*
X132885448Y-105190800D02*
X132980686Y-105238419D01*
X132980686Y-105238419D02*
X133028305Y-105286038D01*
X133028305Y-105286038D02*
X133075924Y-105381276D01*
X133075924Y-105381276D02*
X133075924Y-105619371D01*
X133075924Y-105619371D02*
X133028305Y-105714609D01*
X133028305Y-105714609D02*
X132980686Y-105762229D01*
X132980686Y-105762229D02*
X132885448Y-105809848D01*
X132885448Y-105809848D02*
X132599734Y-105809848D01*
X132599734Y-105809848D02*
X132504496Y-105762229D01*
X132504496Y-105762229D02*
X132456877Y-105714609D01*
X133456877Y-104905086D02*
X133504496Y-104857467D01*
X133504496Y-104857467D02*
X133599734Y-104809848D01*
X133599734Y-104809848D02*
X133837829Y-104809848D01*
X133837829Y-104809848D02*
X133933067Y-104857467D01*
X133933067Y-104857467D02*
X133980686Y-104905086D01*
X133980686Y-104905086D02*
X134028305Y-105000324D01*
X134028305Y-105000324D02*
X134028305Y-105095562D01*
X134028305Y-105095562D02*
X133980686Y-105238419D01*
X133980686Y-105238419D02*
X133409258Y-105809848D01*
X133409258Y-105809848D02*
X134028305Y-105809848D01*
X122882819Y-46450286D02*
X122406628Y-46783619D01*
X122882819Y-47021714D02*
X121882819Y-47021714D01*
X121882819Y-47021714D02*
X121882819Y-46640762D01*
X121882819Y-46640762D02*
X121930438Y-46545524D01*
X121930438Y-46545524D02*
X121978057Y-46497905D01*
X121978057Y-46497905D02*
X122073295Y-46450286D01*
X122073295Y-46450286D02*
X122216152Y-46450286D01*
X122216152Y-46450286D02*
X122311390Y-46497905D01*
X122311390Y-46497905D02*
X122359009Y-46545524D01*
X122359009Y-46545524D02*
X122406628Y-46640762D01*
X122406628Y-46640762D02*
X122406628Y-47021714D01*
X122882819Y-45497905D02*
X122882819Y-46069333D01*
X122882819Y-45783619D02*
X121882819Y-45783619D01*
X121882819Y-45783619D02*
X122025676Y-45878857D01*
X122025676Y-45878857D02*
X122120914Y-45974095D01*
X122120914Y-45974095D02*
X122168533Y-46069333D01*
X122882819Y-44545524D02*
X122882819Y-45116952D01*
X122882819Y-44831238D02*
X121882819Y-44831238D01*
X121882819Y-44831238D02*
X122025676Y-44926476D01*
X122025676Y-44926476D02*
X122120914Y-45021714D01*
X122120914Y-45021714D02*
X122168533Y-45116952D01*
X150360742Y-37411019D02*
X150027409Y-36934828D01*
X149789314Y-37411019D02*
X149789314Y-36411019D01*
X149789314Y-36411019D02*
X150170266Y-36411019D01*
X150170266Y-36411019D02*
X150265504Y-36458638D01*
X150265504Y-36458638D02*
X150313123Y-36506257D01*
X150313123Y-36506257D02*
X150360742Y-36601495D01*
X150360742Y-36601495D02*
X150360742Y-36744352D01*
X150360742Y-36744352D02*
X150313123Y-36839590D01*
X150313123Y-36839590D02*
X150265504Y-36887209D01*
X150265504Y-36887209D02*
X150170266Y-36934828D01*
X150170266Y-36934828D02*
X149789314Y-36934828D01*
X150694076Y-36411019D02*
X151313123Y-36411019D01*
X151313123Y-36411019D02*
X150979790Y-36791971D01*
X150979790Y-36791971D02*
X151122647Y-36791971D01*
X151122647Y-36791971D02*
X151217885Y-36839590D01*
X151217885Y-36839590D02*
X151265504Y-36887209D01*
X151265504Y-36887209D02*
X151313123Y-36982447D01*
X151313123Y-36982447D02*
X151313123Y-37220542D01*
X151313123Y-37220542D02*
X151265504Y-37315780D01*
X151265504Y-37315780D02*
X151217885Y-37363400D01*
X151217885Y-37363400D02*
X151122647Y-37411019D01*
X151122647Y-37411019D02*
X150836933Y-37411019D01*
X150836933Y-37411019D02*
X150741695Y-37363400D01*
X150741695Y-37363400D02*
X150694076Y-37315780D01*
X151932171Y-36411019D02*
X152027409Y-36411019D01*
X152027409Y-36411019D02*
X152122647Y-36458638D01*
X152122647Y-36458638D02*
X152170266Y-36506257D01*
X152170266Y-36506257D02*
X152217885Y-36601495D01*
X152217885Y-36601495D02*
X152265504Y-36791971D01*
X152265504Y-36791971D02*
X152265504Y-37030066D01*
X152265504Y-37030066D02*
X152217885Y-37220542D01*
X152217885Y-37220542D02*
X152170266Y-37315780D01*
X152170266Y-37315780D02*
X152122647Y-37363400D01*
X152122647Y-37363400D02*
X152027409Y-37411019D01*
X152027409Y-37411019D02*
X151932171Y-37411019D01*
X151932171Y-37411019D02*
X151836933Y-37363400D01*
X151836933Y-37363400D02*
X151789314Y-37315780D01*
X151789314Y-37315780D02*
X151741695Y-37220542D01*
X151741695Y-37220542D02*
X151694076Y-37030066D01*
X151694076Y-37030066D02*
X151694076Y-36791971D01*
X151694076Y-36791971D02*
X151741695Y-36601495D01*
X151741695Y-36601495D02*
X151789314Y-36506257D01*
X151789314Y-36506257D02*
X151836933Y-36458638D01*
X151836933Y-36458638D02*
X151932171Y-36411019D01*
X144821220Y-58359533D02*
X144821220Y-57788105D01*
X145821220Y-58073819D02*
X144821220Y-58073819D01*
X145821220Y-56930962D02*
X145821220Y-57502390D01*
X145821220Y-57216676D02*
X144821220Y-57216676D01*
X144821220Y-57216676D02*
X144964077Y-57311914D01*
X144964077Y-57311914D02*
X145059315Y-57407152D01*
X145059315Y-57407152D02*
X145106934Y-57502390D01*
X145796095Y-34887819D02*
X145796095Y-35697342D01*
X145796095Y-35697342D02*
X145843714Y-35792580D01*
X145843714Y-35792580D02*
X145891333Y-35840200D01*
X145891333Y-35840200D02*
X145986571Y-35887819D01*
X145986571Y-35887819D02*
X146177047Y-35887819D01*
X146177047Y-35887819D02*
X146272285Y-35840200D01*
X146272285Y-35840200D02*
X146319904Y-35792580D01*
X146319904Y-35792580D02*
X146367523Y-35697342D01*
X146367523Y-35697342D02*
X146367523Y-34887819D01*
X146748476Y-34887819D02*
X147367523Y-34887819D01*
X147367523Y-34887819D02*
X147034190Y-35268771D01*
X147034190Y-35268771D02*
X147177047Y-35268771D01*
X147177047Y-35268771D02*
X147272285Y-35316390D01*
X147272285Y-35316390D02*
X147319904Y-35364009D01*
X147319904Y-35364009D02*
X147367523Y-35459247D01*
X147367523Y-35459247D02*
X147367523Y-35697342D01*
X147367523Y-35697342D02*
X147319904Y-35792580D01*
X147319904Y-35792580D02*
X147272285Y-35840200D01*
X147272285Y-35840200D02*
X147177047Y-35887819D01*
X147177047Y-35887819D02*
X146891333Y-35887819D01*
X146891333Y-35887819D02*
X146796095Y-35840200D01*
X146796095Y-35840200D02*
X146748476Y-35792580D01*
X148458620Y-104290686D02*
X147982429Y-104624019D01*
X148458620Y-104862114D02*
X147458620Y-104862114D01*
X147458620Y-104862114D02*
X147458620Y-104481162D01*
X147458620Y-104481162D02*
X147506239Y-104385924D01*
X147506239Y-104385924D02*
X147553858Y-104338305D01*
X147553858Y-104338305D02*
X147649096Y-104290686D01*
X147649096Y-104290686D02*
X147791953Y-104290686D01*
X147791953Y-104290686D02*
X147887191Y-104338305D01*
X147887191Y-104338305D02*
X147934810Y-104385924D01*
X147934810Y-104385924D02*
X147982429Y-104481162D01*
X147982429Y-104481162D02*
X147982429Y-104862114D01*
X148458620Y-103338305D02*
X148458620Y-103909733D01*
X148458620Y-103624019D02*
X147458620Y-103624019D01*
X147458620Y-103624019D02*
X147601477Y-103719257D01*
X147601477Y-103719257D02*
X147696715Y-103814495D01*
X147696715Y-103814495D02*
X147744334Y-103909733D01*
X147458620Y-102481162D02*
X147458620Y-102671638D01*
X147458620Y-102671638D02*
X147506239Y-102766876D01*
X147506239Y-102766876D02*
X147553858Y-102814495D01*
X147553858Y-102814495D02*
X147696715Y-102909733D01*
X147696715Y-102909733D02*
X147887191Y-102957352D01*
X147887191Y-102957352D02*
X148268143Y-102957352D01*
X148268143Y-102957352D02*
X148363381Y-102909733D01*
X148363381Y-102909733D02*
X148411001Y-102862114D01*
X148411001Y-102862114D02*
X148458620Y-102766876D01*
X148458620Y-102766876D02*
X148458620Y-102576400D01*
X148458620Y-102576400D02*
X148411001Y-102481162D01*
X148411001Y-102481162D02*
X148363381Y-102433543D01*
X148363381Y-102433543D02*
X148268143Y-102385924D01*
X148268143Y-102385924D02*
X148030048Y-102385924D01*
X148030048Y-102385924D02*
X147934810Y-102433543D01*
X147934810Y-102433543D02*
X147887191Y-102481162D01*
X147887191Y-102481162D02*
X147839572Y-102576400D01*
X147839572Y-102576400D02*
X147839572Y-102766876D01*
X147839572Y-102766876D02*
X147887191Y-102862114D01*
X147887191Y-102862114D02*
X147934810Y-102909733D01*
X147934810Y-102909733D02*
X148030048Y-102957352D01*
X129137580Y-95797666D02*
X129185200Y-95845285D01*
X129185200Y-95845285D02*
X129232819Y-95988142D01*
X129232819Y-95988142D02*
X129232819Y-96083380D01*
X129232819Y-96083380D02*
X129185200Y-96226237D01*
X129185200Y-96226237D02*
X129089961Y-96321475D01*
X129089961Y-96321475D02*
X128994723Y-96369094D01*
X128994723Y-96369094D02*
X128804247Y-96416713D01*
X128804247Y-96416713D02*
X128661390Y-96416713D01*
X128661390Y-96416713D02*
X128470914Y-96369094D01*
X128470914Y-96369094D02*
X128375676Y-96321475D01*
X128375676Y-96321475D02*
X128280438Y-96226237D01*
X128280438Y-96226237D02*
X128232819Y-96083380D01*
X128232819Y-96083380D02*
X128232819Y-95988142D01*
X128232819Y-95988142D02*
X128280438Y-95845285D01*
X128280438Y-95845285D02*
X128328057Y-95797666D01*
X128566152Y-94940523D02*
X129232819Y-94940523D01*
X128185200Y-95178618D02*
X128899485Y-95416713D01*
X128899485Y-95416713D02*
X128899485Y-94797666D01*
X149373020Y-97508886D02*
X148896829Y-97842219D01*
X149373020Y-98080314D02*
X148373020Y-98080314D01*
X148373020Y-98080314D02*
X148373020Y-97699362D01*
X148373020Y-97699362D02*
X148420639Y-97604124D01*
X148420639Y-97604124D02*
X148468258Y-97556505D01*
X148468258Y-97556505D02*
X148563496Y-97508886D01*
X148563496Y-97508886D02*
X148706353Y-97508886D01*
X148706353Y-97508886D02*
X148801591Y-97556505D01*
X148801591Y-97556505D02*
X148849210Y-97604124D01*
X148849210Y-97604124D02*
X148896829Y-97699362D01*
X148896829Y-97699362D02*
X148896829Y-98080314D01*
X149373020Y-96556505D02*
X149373020Y-97127933D01*
X149373020Y-96842219D02*
X148373020Y-96842219D01*
X148373020Y-96842219D02*
X148515877Y-96937457D01*
X148515877Y-96937457D02*
X148611115Y-97032695D01*
X148611115Y-97032695D02*
X148658734Y-97127933D01*
X149373020Y-96080314D02*
X149373020Y-95889838D01*
X149373020Y-95889838D02*
X149325401Y-95794600D01*
X149325401Y-95794600D02*
X149277781Y-95746981D01*
X149277781Y-95746981D02*
X149134924Y-95651743D01*
X149134924Y-95651743D02*
X148944448Y-95604124D01*
X148944448Y-95604124D02*
X148563496Y-95604124D01*
X148563496Y-95604124D02*
X148468258Y-95651743D01*
X148468258Y-95651743D02*
X148420639Y-95699362D01*
X148420639Y-95699362D02*
X148373020Y-95794600D01*
X148373020Y-95794600D02*
X148373020Y-95985076D01*
X148373020Y-95985076D02*
X148420639Y-96080314D01*
X148420639Y-96080314D02*
X148468258Y-96127933D01*
X148468258Y-96127933D02*
X148563496Y-96175552D01*
X148563496Y-96175552D02*
X148801591Y-96175552D01*
X148801591Y-96175552D02*
X148896829Y-96127933D01*
X148896829Y-96127933D02*
X148944448Y-96080314D01*
X148944448Y-96080314D02*
X148992067Y-95985076D01*
X148992067Y-95985076D02*
X148992067Y-95794600D01*
X148992067Y-95794600D02*
X148944448Y-95699362D01*
X148944448Y-95699362D02*
X148896829Y-95651743D01*
X148896829Y-95651743D02*
X148801591Y-95604124D01*
X138316072Y-90011686D02*
X138220834Y-89964067D01*
X138220834Y-89964067D02*
X138125596Y-89868829D01*
X138125596Y-89868829D02*
X137982739Y-89725971D01*
X137982739Y-89725971D02*
X137887501Y-89678352D01*
X137887501Y-89678352D02*
X137792263Y-89678352D01*
X137839882Y-89916448D02*
X137744644Y-89868829D01*
X137744644Y-89868829D02*
X137649406Y-89773590D01*
X137649406Y-89773590D02*
X137601787Y-89583114D01*
X137601787Y-89583114D02*
X137601787Y-89249781D01*
X137601787Y-89249781D02*
X137649406Y-89059305D01*
X137649406Y-89059305D02*
X137744644Y-88964067D01*
X137744644Y-88964067D02*
X137839882Y-88916448D01*
X137839882Y-88916448D02*
X138030358Y-88916448D01*
X138030358Y-88916448D02*
X138125596Y-88964067D01*
X138125596Y-88964067D02*
X138220834Y-89059305D01*
X138220834Y-89059305D02*
X138268453Y-89249781D01*
X138268453Y-89249781D02*
X138268453Y-89583114D01*
X138268453Y-89583114D02*
X138220834Y-89773590D01*
X138220834Y-89773590D02*
X138125596Y-89868829D01*
X138125596Y-89868829D02*
X138030358Y-89916448D01*
X138030358Y-89916448D02*
X137839882Y-89916448D01*
X139220834Y-89916448D02*
X138649406Y-89916448D01*
X138935120Y-89916448D02*
X138935120Y-88916448D01*
X138935120Y-88916448D02*
X138839882Y-89059305D01*
X138839882Y-89059305D02*
X138744644Y-89154543D01*
X138744644Y-89154543D02*
X138649406Y-89202162D01*
X139554168Y-88916448D02*
X140173215Y-88916448D01*
X140173215Y-88916448D02*
X139839882Y-89297400D01*
X139839882Y-89297400D02*
X139982739Y-89297400D01*
X139982739Y-89297400D02*
X140077977Y-89345019D01*
X140077977Y-89345019D02*
X140125596Y-89392638D01*
X140125596Y-89392638D02*
X140173215Y-89487876D01*
X140173215Y-89487876D02*
X140173215Y-89725971D01*
X140173215Y-89725971D02*
X140125596Y-89821209D01*
X140125596Y-89821209D02*
X140077977Y-89868829D01*
X140077977Y-89868829D02*
X139982739Y-89916448D01*
X139982739Y-89916448D02*
X139697025Y-89916448D01*
X139697025Y-89916448D02*
X139601787Y-89868829D01*
X139601787Y-89868829D02*
X139554168Y-89821209D01*
X147439142Y-45444580D02*
X147391523Y-45492200D01*
X147391523Y-45492200D02*
X147248666Y-45539819D01*
X147248666Y-45539819D02*
X147153428Y-45539819D01*
X147153428Y-45539819D02*
X147010571Y-45492200D01*
X147010571Y-45492200D02*
X146915333Y-45396961D01*
X146915333Y-45396961D02*
X146867714Y-45301723D01*
X146867714Y-45301723D02*
X146820095Y-45111247D01*
X146820095Y-45111247D02*
X146820095Y-44968390D01*
X146820095Y-44968390D02*
X146867714Y-44777914D01*
X146867714Y-44777914D02*
X146915333Y-44682676D01*
X146915333Y-44682676D02*
X147010571Y-44587438D01*
X147010571Y-44587438D02*
X147153428Y-44539819D01*
X147153428Y-44539819D02*
X147248666Y-44539819D01*
X147248666Y-44539819D02*
X147391523Y-44587438D01*
X147391523Y-44587438D02*
X147439142Y-44635057D01*
X148391523Y-45539819D02*
X147820095Y-45539819D01*
X148105809Y-45539819D02*
X148105809Y-44539819D01*
X148105809Y-44539819D02*
X148010571Y-44682676D01*
X148010571Y-44682676D02*
X147915333Y-44777914D01*
X147915333Y-44777914D02*
X147820095Y-44825533D01*
X148867714Y-45539819D02*
X149058190Y-45539819D01*
X149058190Y-45539819D02*
X149153428Y-45492200D01*
X149153428Y-45492200D02*
X149201047Y-45444580D01*
X149201047Y-45444580D02*
X149296285Y-45301723D01*
X149296285Y-45301723D02*
X149343904Y-45111247D01*
X149343904Y-45111247D02*
X149343904Y-44730295D01*
X149343904Y-44730295D02*
X149296285Y-44635057D01*
X149296285Y-44635057D02*
X149248666Y-44587438D01*
X149248666Y-44587438D02*
X149153428Y-44539819D01*
X149153428Y-44539819D02*
X148962952Y-44539819D01*
X148962952Y-44539819D02*
X148867714Y-44587438D01*
X148867714Y-44587438D02*
X148820095Y-44635057D01*
X148820095Y-44635057D02*
X148772476Y-44730295D01*
X148772476Y-44730295D02*
X148772476Y-44968390D01*
X148772476Y-44968390D02*
X148820095Y-45063628D01*
X148820095Y-45063628D02*
X148867714Y-45111247D01*
X148867714Y-45111247D02*
X148962952Y-45158866D01*
X148962952Y-45158866D02*
X149153428Y-45158866D01*
X149153428Y-45158866D02*
X149248666Y-45111247D01*
X149248666Y-45111247D02*
X149296285Y-45063628D01*
X149296285Y-45063628D02*
X149343904Y-44968390D01*
X146737781Y-110912617D02*
X146785401Y-110960236D01*
X146785401Y-110960236D02*
X146833020Y-111103093D01*
X146833020Y-111103093D02*
X146833020Y-111198331D01*
X146833020Y-111198331D02*
X146785401Y-111341188D01*
X146785401Y-111341188D02*
X146690162Y-111436426D01*
X146690162Y-111436426D02*
X146594924Y-111484045D01*
X146594924Y-111484045D02*
X146404448Y-111531664D01*
X146404448Y-111531664D02*
X146261591Y-111531664D01*
X146261591Y-111531664D02*
X146071115Y-111484045D01*
X146071115Y-111484045D02*
X145975877Y-111436426D01*
X145975877Y-111436426D02*
X145880639Y-111341188D01*
X145880639Y-111341188D02*
X145833020Y-111198331D01*
X145833020Y-111198331D02*
X145833020Y-111103093D01*
X145833020Y-111103093D02*
X145880639Y-110960236D01*
X145880639Y-110960236D02*
X145928258Y-110912617D01*
X145928258Y-110531664D02*
X145880639Y-110484045D01*
X145880639Y-110484045D02*
X145833020Y-110388807D01*
X145833020Y-110388807D02*
X145833020Y-110150712D01*
X145833020Y-110150712D02*
X145880639Y-110055474D01*
X145880639Y-110055474D02*
X145928258Y-110007855D01*
X145928258Y-110007855D02*
X146023496Y-109960236D01*
X146023496Y-109960236D02*
X146118734Y-109960236D01*
X146118734Y-109960236D02*
X146261591Y-110007855D01*
X146261591Y-110007855D02*
X146833020Y-110579283D01*
X146833020Y-110579283D02*
X146833020Y-109960236D01*
X146833020Y-109007855D02*
X146833020Y-109579283D01*
X146833020Y-109293569D02*
X145833020Y-109293569D01*
X145833020Y-109293569D02*
X145975877Y-109388807D01*
X145975877Y-109388807D02*
X146071115Y-109484045D01*
X146071115Y-109484045D02*
X146118734Y-109579283D01*
X126755134Y-94787209D02*
X126707515Y-94834829D01*
X126707515Y-94834829D02*
X126564658Y-94882448D01*
X126564658Y-94882448D02*
X126469420Y-94882448D01*
X126469420Y-94882448D02*
X126326563Y-94834829D01*
X126326563Y-94834829D02*
X126231325Y-94739590D01*
X126231325Y-94739590D02*
X126183706Y-94644352D01*
X126183706Y-94644352D02*
X126136087Y-94453876D01*
X126136087Y-94453876D02*
X126136087Y-94311019D01*
X126136087Y-94311019D02*
X126183706Y-94120543D01*
X126183706Y-94120543D02*
X126231325Y-94025305D01*
X126231325Y-94025305D02*
X126326563Y-93930067D01*
X126326563Y-93930067D02*
X126469420Y-93882448D01*
X126469420Y-93882448D02*
X126564658Y-93882448D01*
X126564658Y-93882448D02*
X126707515Y-93930067D01*
X126707515Y-93930067D02*
X126755134Y-93977686D01*
X127136087Y-93977686D02*
X127183706Y-93930067D01*
X127183706Y-93930067D02*
X127278944Y-93882448D01*
X127278944Y-93882448D02*
X127517039Y-93882448D01*
X127517039Y-93882448D02*
X127612277Y-93930067D01*
X127612277Y-93930067D02*
X127659896Y-93977686D01*
X127659896Y-93977686D02*
X127707515Y-94072924D01*
X127707515Y-94072924D02*
X127707515Y-94168162D01*
X127707515Y-94168162D02*
X127659896Y-94311019D01*
X127659896Y-94311019D02*
X127088468Y-94882448D01*
X127088468Y-94882448D02*
X127707515Y-94882448D01*
X124533819Y-46489857D02*
X124057628Y-46823190D01*
X124533819Y-47061285D02*
X123533819Y-47061285D01*
X123533819Y-47061285D02*
X123533819Y-46680333D01*
X123533819Y-46680333D02*
X123581438Y-46585095D01*
X123581438Y-46585095D02*
X123629057Y-46537476D01*
X123629057Y-46537476D02*
X123724295Y-46489857D01*
X123724295Y-46489857D02*
X123867152Y-46489857D01*
X123867152Y-46489857D02*
X123962390Y-46537476D01*
X123962390Y-46537476D02*
X124010009Y-46585095D01*
X124010009Y-46585095D02*
X124057628Y-46680333D01*
X124057628Y-46680333D02*
X124057628Y-47061285D01*
X124533819Y-45537476D02*
X124533819Y-46108904D01*
X124533819Y-45823190D02*
X123533819Y-45823190D01*
X123533819Y-45823190D02*
X123676676Y-45918428D01*
X123676676Y-45918428D02*
X123771914Y-46013666D01*
X123771914Y-46013666D02*
X123819533Y-46108904D01*
X123629057Y-45156523D02*
X123581438Y-45108904D01*
X123581438Y-45108904D02*
X123533819Y-45013666D01*
X123533819Y-45013666D02*
X123533819Y-44775571D01*
X123533819Y-44775571D02*
X123581438Y-44680333D01*
X123581438Y-44680333D02*
X123629057Y-44632714D01*
X123629057Y-44632714D02*
X123724295Y-44585095D01*
X123724295Y-44585095D02*
X123819533Y-44585095D01*
X123819533Y-44585095D02*
X123962390Y-44632714D01*
X123962390Y-44632714D02*
X124533819Y-45204142D01*
X124533819Y-45204142D02*
X124533819Y-44585095D01*
X115530820Y-102577752D02*
X116245105Y-102577752D01*
X116245105Y-102577752D02*
X116387962Y-102625371D01*
X116387962Y-102625371D02*
X116483201Y-102720609D01*
X116483201Y-102720609D02*
X116530820Y-102863466D01*
X116530820Y-102863466D02*
X116530820Y-102958704D01*
X116530820Y-101577752D02*
X116530820Y-102149180D01*
X116530820Y-101863466D02*
X115530820Y-101863466D01*
X115530820Y-101863466D02*
X115673677Y-101958704D01*
X115673677Y-101958704D02*
X115768915Y-102053942D01*
X115768915Y-102053942D02*
X115816534Y-102149180D01*
X115530820Y-100958704D02*
X115530820Y-100863466D01*
X115530820Y-100863466D02*
X115578439Y-100768228D01*
X115578439Y-100768228D02*
X115626058Y-100720609D01*
X115626058Y-100720609D02*
X115721296Y-100672990D01*
X115721296Y-100672990D02*
X115911772Y-100625371D01*
X115911772Y-100625371D02*
X116149867Y-100625371D01*
X116149867Y-100625371D02*
X116340343Y-100672990D01*
X116340343Y-100672990D02*
X116435581Y-100720609D01*
X116435581Y-100720609D02*
X116483201Y-100768228D01*
X116483201Y-100768228D02*
X116530820Y-100863466D01*
X116530820Y-100863466D02*
X116530820Y-100958704D01*
X116530820Y-100958704D02*
X116483201Y-101053942D01*
X116483201Y-101053942D02*
X116435581Y-101101561D01*
X116435581Y-101101561D02*
X116340343Y-101149180D01*
X116340343Y-101149180D02*
X116149867Y-101196799D01*
X116149867Y-101196799D02*
X115911772Y-101196799D01*
X115911772Y-101196799D02*
X115721296Y-101149180D01*
X115721296Y-101149180D02*
X115626058Y-101101561D01*
X115626058Y-101101561D02*
X115578439Y-101053942D01*
X115578439Y-101053942D02*
X115530820Y-100958704D01*
D11*
X140736705Y-83221209D02*
X140165277Y-83221209D01*
X140450991Y-82221209D02*
X140450991Y-83221209D01*
X139260515Y-82221209D02*
X139593848Y-82697400D01*
X139831943Y-82221209D02*
X139831943Y-83221209D01*
X139831943Y-83221209D02*
X139450991Y-83221209D01*
X139450991Y-83221209D02*
X139355753Y-83173590D01*
X139355753Y-83173590D02*
X139308134Y-83125971D01*
X139308134Y-83125971D02*
X139260515Y-83030733D01*
X139260515Y-83030733D02*
X139260515Y-82887876D01*
X139260515Y-82887876D02*
X139308134Y-82792638D01*
X139308134Y-82792638D02*
X139355753Y-82745019D01*
X139355753Y-82745019D02*
X139450991Y-82697400D01*
X139450991Y-82697400D02*
X139831943Y-82697400D01*
X138308134Y-82221209D02*
X138879562Y-82221209D01*
X138593848Y-82221209D02*
X138593848Y-83221209D01*
X138593848Y-83221209D02*
X138689086Y-83078352D01*
X138689086Y-83078352D02*
X138784324Y-82983114D01*
X138784324Y-82983114D02*
X138879562Y-82935495D01*
D10*
X137321534Y-43828448D02*
X136988201Y-43352257D01*
X136750106Y-43828448D02*
X136750106Y-42828448D01*
X136750106Y-42828448D02*
X137131058Y-42828448D01*
X137131058Y-42828448D02*
X137226296Y-42876067D01*
X137226296Y-42876067D02*
X137273915Y-42923686D01*
X137273915Y-42923686D02*
X137321534Y-43018924D01*
X137321534Y-43018924D02*
X137321534Y-43161781D01*
X137321534Y-43161781D02*
X137273915Y-43257019D01*
X137273915Y-43257019D02*
X137226296Y-43304638D01*
X137226296Y-43304638D02*
X137131058Y-43352257D01*
X137131058Y-43352257D02*
X136750106Y-43352257D01*
X137654868Y-42828448D02*
X138273915Y-42828448D01*
X138273915Y-42828448D02*
X137940582Y-43209400D01*
X137940582Y-43209400D02*
X138083439Y-43209400D01*
X138083439Y-43209400D02*
X138178677Y-43257019D01*
X138178677Y-43257019D02*
X138226296Y-43304638D01*
X138226296Y-43304638D02*
X138273915Y-43399876D01*
X138273915Y-43399876D02*
X138273915Y-43637971D01*
X138273915Y-43637971D02*
X138226296Y-43733209D01*
X138226296Y-43733209D02*
X138178677Y-43780829D01*
X138178677Y-43780829D02*
X138083439Y-43828448D01*
X138083439Y-43828448D02*
X137797725Y-43828448D01*
X137797725Y-43828448D02*
X137702487Y-43780829D01*
X137702487Y-43780829D02*
X137654868Y-43733209D01*
X139131058Y-43161781D02*
X139131058Y-43828448D01*
X138892963Y-42780829D02*
X138654868Y-43495114D01*
X138654868Y-43495114D02*
X139273915Y-43495114D01*
X126706333Y-93577580D02*
X126658714Y-93625200D01*
X126658714Y-93625200D02*
X126515857Y-93672819D01*
X126515857Y-93672819D02*
X126420619Y-93672819D01*
X126420619Y-93672819D02*
X126277762Y-93625200D01*
X126277762Y-93625200D02*
X126182524Y-93529961D01*
X126182524Y-93529961D02*
X126134905Y-93434723D01*
X126134905Y-93434723D02*
X126087286Y-93244247D01*
X126087286Y-93244247D02*
X126087286Y-93101390D01*
X126087286Y-93101390D02*
X126134905Y-92910914D01*
X126134905Y-92910914D02*
X126182524Y-92815676D01*
X126182524Y-92815676D02*
X126277762Y-92720438D01*
X126277762Y-92720438D02*
X126420619Y-92672819D01*
X126420619Y-92672819D02*
X126515857Y-92672819D01*
X126515857Y-92672819D02*
X126658714Y-92720438D01*
X126658714Y-92720438D02*
X126706333Y-92768057D01*
X127658714Y-93672819D02*
X127087286Y-93672819D01*
X127373000Y-93672819D02*
X127373000Y-92672819D01*
X127373000Y-92672819D02*
X127277762Y-92815676D01*
X127277762Y-92815676D02*
X127182524Y-92910914D01*
X127182524Y-92910914D02*
X127087286Y-92958533D01*
X115006067Y-43488848D02*
X115006067Y-44203133D01*
X115006067Y-44203133D02*
X114958448Y-44345990D01*
X114958448Y-44345990D02*
X114863210Y-44441229D01*
X114863210Y-44441229D02*
X114720353Y-44488848D01*
X114720353Y-44488848D02*
X114625115Y-44488848D01*
X115434639Y-43584086D02*
X115482258Y-43536467D01*
X115482258Y-43536467D02*
X115577496Y-43488848D01*
X115577496Y-43488848D02*
X115815591Y-43488848D01*
X115815591Y-43488848D02*
X115910829Y-43536467D01*
X115910829Y-43536467D02*
X115958448Y-43584086D01*
X115958448Y-43584086D02*
X116006067Y-43679324D01*
X116006067Y-43679324D02*
X116006067Y-43774562D01*
X116006067Y-43774562D02*
X115958448Y-43917419D01*
X115958448Y-43917419D02*
X115387020Y-44488848D01*
X115387020Y-44488848D02*
X116006067Y-44488848D01*
X132123543Y-106972609D02*
X132075924Y-107020229D01*
X132075924Y-107020229D02*
X131933067Y-107067848D01*
X131933067Y-107067848D02*
X131837829Y-107067848D01*
X131837829Y-107067848D02*
X131694972Y-107020229D01*
X131694972Y-107020229D02*
X131599734Y-106924990D01*
X131599734Y-106924990D02*
X131552115Y-106829752D01*
X131552115Y-106829752D02*
X131504496Y-106639276D01*
X131504496Y-106639276D02*
X131504496Y-106496419D01*
X131504496Y-106496419D02*
X131552115Y-106305943D01*
X131552115Y-106305943D02*
X131599734Y-106210705D01*
X131599734Y-106210705D02*
X131694972Y-106115467D01*
X131694972Y-106115467D02*
X131837829Y-106067848D01*
X131837829Y-106067848D02*
X131933067Y-106067848D01*
X131933067Y-106067848D02*
X132075924Y-106115467D01*
X132075924Y-106115467D02*
X132123543Y-106163086D01*
X132456877Y-106067848D02*
X133075924Y-106067848D01*
X133075924Y-106067848D02*
X132742591Y-106448800D01*
X132742591Y-106448800D02*
X132885448Y-106448800D01*
X132885448Y-106448800D02*
X132980686Y-106496419D01*
X132980686Y-106496419D02*
X133028305Y-106544038D01*
X133028305Y-106544038D02*
X133075924Y-106639276D01*
X133075924Y-106639276D02*
X133075924Y-106877371D01*
X133075924Y-106877371D02*
X133028305Y-106972609D01*
X133028305Y-106972609D02*
X132980686Y-107020229D01*
X132980686Y-107020229D02*
X132885448Y-107067848D01*
X132885448Y-107067848D02*
X132599734Y-107067848D01*
X132599734Y-107067848D02*
X132504496Y-107020229D01*
X132504496Y-107020229D02*
X132456877Y-106972609D01*
X133409258Y-106067848D02*
X134075924Y-106067848D01*
X134075924Y-106067848D02*
X133647353Y-107067848D01*
X139932580Y-66682857D02*
X139980200Y-66730476D01*
X139980200Y-66730476D02*
X140027819Y-66873333D01*
X140027819Y-66873333D02*
X140027819Y-66968571D01*
X140027819Y-66968571D02*
X139980200Y-67111428D01*
X139980200Y-67111428D02*
X139884961Y-67206666D01*
X139884961Y-67206666D02*
X139789723Y-67254285D01*
X139789723Y-67254285D02*
X139599247Y-67301904D01*
X139599247Y-67301904D02*
X139456390Y-67301904D01*
X139456390Y-67301904D02*
X139265914Y-67254285D01*
X139265914Y-67254285D02*
X139170676Y-67206666D01*
X139170676Y-67206666D02*
X139075438Y-67111428D01*
X139075438Y-67111428D02*
X139027819Y-66968571D01*
X139027819Y-66968571D02*
X139027819Y-66873333D01*
X139027819Y-66873333D02*
X139075438Y-66730476D01*
X139075438Y-66730476D02*
X139123057Y-66682857D01*
X139027819Y-65778095D02*
X139027819Y-66254285D01*
X139027819Y-66254285D02*
X139504009Y-66301904D01*
X139504009Y-66301904D02*
X139456390Y-66254285D01*
X139456390Y-66254285D02*
X139408771Y-66159047D01*
X139408771Y-66159047D02*
X139408771Y-65920952D01*
X139408771Y-65920952D02*
X139456390Y-65825714D01*
X139456390Y-65825714D02*
X139504009Y-65778095D01*
X139504009Y-65778095D02*
X139599247Y-65730476D01*
X139599247Y-65730476D02*
X139837342Y-65730476D01*
X139837342Y-65730476D02*
X139932580Y-65778095D01*
X139932580Y-65778095D02*
X139980200Y-65825714D01*
X139980200Y-65825714D02*
X140027819Y-65920952D01*
X140027819Y-65920952D02*
X140027819Y-66159047D01*
X140027819Y-66159047D02*
X139980200Y-66254285D01*
X139980200Y-66254285D02*
X139932580Y-66301904D01*
X139361152Y-64873333D02*
X140027819Y-64873333D01*
X138980200Y-65111428D02*
X139694485Y-65349523D01*
X139694485Y-65349523D02*
X139694485Y-64730476D01*
X131421581Y-97591495D02*
X131469201Y-97639114D01*
X131469201Y-97639114D02*
X131516820Y-97781971D01*
X131516820Y-97781971D02*
X131516820Y-97877209D01*
X131516820Y-97877209D02*
X131469201Y-98020066D01*
X131469201Y-98020066D02*
X131373962Y-98115304D01*
X131373962Y-98115304D02*
X131278724Y-98162923D01*
X131278724Y-98162923D02*
X131088248Y-98210542D01*
X131088248Y-98210542D02*
X130945391Y-98210542D01*
X130945391Y-98210542D02*
X130754915Y-98162923D01*
X130754915Y-98162923D02*
X130659677Y-98115304D01*
X130659677Y-98115304D02*
X130564439Y-98020066D01*
X130564439Y-98020066D02*
X130516820Y-97877209D01*
X130516820Y-97877209D02*
X130516820Y-97781971D01*
X130516820Y-97781971D02*
X130564439Y-97639114D01*
X130564439Y-97639114D02*
X130612058Y-97591495D01*
X130516820Y-97258161D02*
X130516820Y-96591495D01*
X130516820Y-96591495D02*
X131516820Y-97020066D01*
X145684543Y-52495448D02*
X145351210Y-52019257D01*
X145113115Y-52495448D02*
X145113115Y-51495448D01*
X145113115Y-51495448D02*
X145494067Y-51495448D01*
X145494067Y-51495448D02*
X145589305Y-51543067D01*
X145589305Y-51543067D02*
X145636924Y-51590686D01*
X145636924Y-51590686D02*
X145684543Y-51685924D01*
X145684543Y-51685924D02*
X145684543Y-51828781D01*
X145684543Y-51828781D02*
X145636924Y-51924019D01*
X145636924Y-51924019D02*
X145589305Y-51971638D01*
X145589305Y-51971638D02*
X145494067Y-52019257D01*
X145494067Y-52019257D02*
X145113115Y-52019257D01*
X146065496Y-51590686D02*
X146113115Y-51543067D01*
X146113115Y-51543067D02*
X146208353Y-51495448D01*
X146208353Y-51495448D02*
X146446448Y-51495448D01*
X146446448Y-51495448D02*
X146541686Y-51543067D01*
X146541686Y-51543067D02*
X146589305Y-51590686D01*
X146589305Y-51590686D02*
X146636924Y-51685924D01*
X146636924Y-51685924D02*
X146636924Y-51781162D01*
X146636924Y-51781162D02*
X146589305Y-51924019D01*
X146589305Y-51924019D02*
X146017877Y-52495448D01*
X146017877Y-52495448D02*
X146636924Y-52495448D01*
X147494067Y-51828781D02*
X147494067Y-52495448D01*
X147255972Y-51447829D02*
X147017877Y-52162114D01*
X147017877Y-52162114D02*
X147636924Y-52162114D01*
X150727580Y-43314857D02*
X150775200Y-43362476D01*
X150775200Y-43362476D02*
X150822819Y-43505333D01*
X150822819Y-43505333D02*
X150822819Y-43600571D01*
X150822819Y-43600571D02*
X150775200Y-43743428D01*
X150775200Y-43743428D02*
X150679961Y-43838666D01*
X150679961Y-43838666D02*
X150584723Y-43886285D01*
X150584723Y-43886285D02*
X150394247Y-43933904D01*
X150394247Y-43933904D02*
X150251390Y-43933904D01*
X150251390Y-43933904D02*
X150060914Y-43886285D01*
X150060914Y-43886285D02*
X149965676Y-43838666D01*
X149965676Y-43838666D02*
X149870438Y-43743428D01*
X149870438Y-43743428D02*
X149822819Y-43600571D01*
X149822819Y-43600571D02*
X149822819Y-43505333D01*
X149822819Y-43505333D02*
X149870438Y-43362476D01*
X149870438Y-43362476D02*
X149918057Y-43314857D01*
X150822819Y-42362476D02*
X150822819Y-42933904D01*
X150822819Y-42648190D02*
X149822819Y-42648190D01*
X149822819Y-42648190D02*
X149965676Y-42743428D01*
X149965676Y-42743428D02*
X150060914Y-42838666D01*
X150060914Y-42838666D02*
X150108533Y-42933904D01*
X150251390Y-41791047D02*
X150203771Y-41886285D01*
X150203771Y-41886285D02*
X150156152Y-41933904D01*
X150156152Y-41933904D02*
X150060914Y-41981523D01*
X150060914Y-41981523D02*
X150013295Y-41981523D01*
X150013295Y-41981523D02*
X149918057Y-41933904D01*
X149918057Y-41933904D02*
X149870438Y-41886285D01*
X149870438Y-41886285D02*
X149822819Y-41791047D01*
X149822819Y-41791047D02*
X149822819Y-41600571D01*
X149822819Y-41600571D02*
X149870438Y-41505333D01*
X149870438Y-41505333D02*
X149918057Y-41457714D01*
X149918057Y-41457714D02*
X150013295Y-41410095D01*
X150013295Y-41410095D02*
X150060914Y-41410095D01*
X150060914Y-41410095D02*
X150156152Y-41457714D01*
X150156152Y-41457714D02*
X150203771Y-41505333D01*
X150203771Y-41505333D02*
X150251390Y-41600571D01*
X150251390Y-41600571D02*
X150251390Y-41791047D01*
X150251390Y-41791047D02*
X150299009Y-41886285D01*
X150299009Y-41886285D02*
X150346628Y-41933904D01*
X150346628Y-41933904D02*
X150441866Y-41981523D01*
X150441866Y-41981523D02*
X150632342Y-41981523D01*
X150632342Y-41981523D02*
X150727580Y-41933904D01*
X150727580Y-41933904D02*
X150775200Y-41886285D01*
X150775200Y-41886285D02*
X150822819Y-41791047D01*
X150822819Y-41791047D02*
X150822819Y-41600571D01*
X150822819Y-41600571D02*
X150775200Y-41505333D01*
X150775200Y-41505333D02*
X150727580Y-41457714D01*
X150727580Y-41457714D02*
X150632342Y-41410095D01*
X150632342Y-41410095D02*
X150441866Y-41410095D01*
X150441866Y-41410095D02*
X150346628Y-41457714D01*
X150346628Y-41457714D02*
X150299009Y-41505333D01*
X150299009Y-41505333D02*
X150251390Y-41600571D01*
X141075580Y-117115857D02*
X141123200Y-117163476D01*
X141123200Y-117163476D02*
X141170819Y-117306333D01*
X141170819Y-117306333D02*
X141170819Y-117401571D01*
X141170819Y-117401571D02*
X141123200Y-117544428D01*
X141123200Y-117544428D02*
X141027961Y-117639666D01*
X141027961Y-117639666D02*
X140932723Y-117687285D01*
X140932723Y-117687285D02*
X140742247Y-117734904D01*
X140742247Y-117734904D02*
X140599390Y-117734904D01*
X140599390Y-117734904D02*
X140408914Y-117687285D01*
X140408914Y-117687285D02*
X140313676Y-117639666D01*
X140313676Y-117639666D02*
X140218438Y-117544428D01*
X140218438Y-117544428D02*
X140170819Y-117401571D01*
X140170819Y-117401571D02*
X140170819Y-117306333D01*
X140170819Y-117306333D02*
X140218438Y-117163476D01*
X140218438Y-117163476D02*
X140266057Y-117115857D01*
X140170819Y-116782523D02*
X140170819Y-116163476D01*
X140170819Y-116163476D02*
X140551771Y-116496809D01*
X140551771Y-116496809D02*
X140551771Y-116353952D01*
X140551771Y-116353952D02*
X140599390Y-116258714D01*
X140599390Y-116258714D02*
X140647009Y-116211095D01*
X140647009Y-116211095D02*
X140742247Y-116163476D01*
X140742247Y-116163476D02*
X140980342Y-116163476D01*
X140980342Y-116163476D02*
X141075580Y-116211095D01*
X141075580Y-116211095D02*
X141123200Y-116258714D01*
X141123200Y-116258714D02*
X141170819Y-116353952D01*
X141170819Y-116353952D02*
X141170819Y-116639666D01*
X141170819Y-116639666D02*
X141123200Y-116734904D01*
X141123200Y-116734904D02*
X141075580Y-116782523D01*
X140170819Y-115306333D02*
X140170819Y-115496809D01*
X140170819Y-115496809D02*
X140218438Y-115592047D01*
X140218438Y-115592047D02*
X140266057Y-115639666D01*
X140266057Y-115639666D02*
X140408914Y-115734904D01*
X140408914Y-115734904D02*
X140599390Y-115782523D01*
X140599390Y-115782523D02*
X140980342Y-115782523D01*
X140980342Y-115782523D02*
X141075580Y-115734904D01*
X141075580Y-115734904D02*
X141123200Y-115687285D01*
X141123200Y-115687285D02*
X141170819Y-115592047D01*
X141170819Y-115592047D02*
X141170819Y-115401571D01*
X141170819Y-115401571D02*
X141123200Y-115306333D01*
X141123200Y-115306333D02*
X141075580Y-115258714D01*
X141075580Y-115258714D02*
X140980342Y-115211095D01*
X140980342Y-115211095D02*
X140742247Y-115211095D01*
X140742247Y-115211095D02*
X140647009Y-115258714D01*
X140647009Y-115258714D02*
X140599390Y-115306333D01*
X140599390Y-115306333D02*
X140551771Y-115401571D01*
X140551771Y-115401571D02*
X140551771Y-115592047D01*
X140551771Y-115592047D02*
X140599390Y-115687285D01*
X140599390Y-115687285D02*
X140647009Y-115734904D01*
X140647009Y-115734904D02*
X140742247Y-115782523D01*
X131550580Y-94114857D02*
X131598200Y-94162476D01*
X131598200Y-94162476D02*
X131645819Y-94305333D01*
X131645819Y-94305333D02*
X131645819Y-94400571D01*
X131645819Y-94400571D02*
X131598200Y-94543428D01*
X131598200Y-94543428D02*
X131502961Y-94638666D01*
X131502961Y-94638666D02*
X131407723Y-94686285D01*
X131407723Y-94686285D02*
X131217247Y-94733904D01*
X131217247Y-94733904D02*
X131074390Y-94733904D01*
X131074390Y-94733904D02*
X130883914Y-94686285D01*
X130883914Y-94686285D02*
X130788676Y-94638666D01*
X130788676Y-94638666D02*
X130693438Y-94543428D01*
X130693438Y-94543428D02*
X130645819Y-94400571D01*
X130645819Y-94400571D02*
X130645819Y-94305333D01*
X130645819Y-94305333D02*
X130693438Y-94162476D01*
X130693438Y-94162476D02*
X130741057Y-94114857D01*
X130645819Y-93210095D02*
X130645819Y-93686285D01*
X130645819Y-93686285D02*
X131122009Y-93733904D01*
X131122009Y-93733904D02*
X131074390Y-93686285D01*
X131074390Y-93686285D02*
X131026771Y-93591047D01*
X131026771Y-93591047D02*
X131026771Y-93352952D01*
X131026771Y-93352952D02*
X131074390Y-93257714D01*
X131074390Y-93257714D02*
X131122009Y-93210095D01*
X131122009Y-93210095D02*
X131217247Y-93162476D01*
X131217247Y-93162476D02*
X131455342Y-93162476D01*
X131455342Y-93162476D02*
X131550580Y-93210095D01*
X131550580Y-93210095D02*
X131598200Y-93257714D01*
X131598200Y-93257714D02*
X131645819Y-93352952D01*
X131645819Y-93352952D02*
X131645819Y-93591047D01*
X131645819Y-93591047D02*
X131598200Y-93686285D01*
X131598200Y-93686285D02*
X131550580Y-93733904D01*
X131645819Y-92210095D02*
X131645819Y-92781523D01*
X131645819Y-92495809D02*
X130645819Y-92495809D01*
X130645819Y-92495809D02*
X130788676Y-92591047D01*
X130788676Y-92591047D02*
X130883914Y-92686285D01*
X130883914Y-92686285D02*
X130931533Y-92781523D01*
X150053343Y-100114848D02*
X149720010Y-99638657D01*
X149481915Y-100114848D02*
X149481915Y-99114848D01*
X149481915Y-99114848D02*
X149862867Y-99114848D01*
X149862867Y-99114848D02*
X149958105Y-99162467D01*
X149958105Y-99162467D02*
X150005724Y-99210086D01*
X150005724Y-99210086D02*
X150053343Y-99305324D01*
X150053343Y-99305324D02*
X150053343Y-99448181D01*
X150053343Y-99448181D02*
X150005724Y-99543419D01*
X150005724Y-99543419D02*
X149958105Y-99591038D01*
X149958105Y-99591038D02*
X149862867Y-99638657D01*
X149862867Y-99638657D02*
X149481915Y-99638657D01*
X151005724Y-100114848D02*
X150434296Y-100114848D01*
X150720010Y-100114848D02*
X150720010Y-99114848D01*
X150720010Y-99114848D02*
X150624772Y-99257705D01*
X150624772Y-99257705D02*
X150529534Y-99352943D01*
X150529534Y-99352943D02*
X150434296Y-99400562D01*
X151577153Y-99543419D02*
X151481915Y-99495800D01*
X151481915Y-99495800D02*
X151434296Y-99448181D01*
X151434296Y-99448181D02*
X151386677Y-99352943D01*
X151386677Y-99352943D02*
X151386677Y-99305324D01*
X151386677Y-99305324D02*
X151434296Y-99210086D01*
X151434296Y-99210086D02*
X151481915Y-99162467D01*
X151481915Y-99162467D02*
X151577153Y-99114848D01*
X151577153Y-99114848D02*
X151767629Y-99114848D01*
X151767629Y-99114848D02*
X151862867Y-99162467D01*
X151862867Y-99162467D02*
X151910486Y-99210086D01*
X151910486Y-99210086D02*
X151958105Y-99305324D01*
X151958105Y-99305324D02*
X151958105Y-99352943D01*
X151958105Y-99352943D02*
X151910486Y-99448181D01*
X151910486Y-99448181D02*
X151862867Y-99495800D01*
X151862867Y-99495800D02*
X151767629Y-99543419D01*
X151767629Y-99543419D02*
X151577153Y-99543419D01*
X151577153Y-99543419D02*
X151481915Y-99591038D01*
X151481915Y-99591038D02*
X151434296Y-99638657D01*
X151434296Y-99638657D02*
X151386677Y-99733895D01*
X151386677Y-99733895D02*
X151386677Y-99924371D01*
X151386677Y-99924371D02*
X151434296Y-100019609D01*
X151434296Y-100019609D02*
X151481915Y-100067229D01*
X151481915Y-100067229D02*
X151577153Y-100114848D01*
X151577153Y-100114848D02*
X151767629Y-100114848D01*
X151767629Y-100114848D02*
X151862867Y-100067229D01*
X151862867Y-100067229D02*
X151910486Y-100019609D01*
X151910486Y-100019609D02*
X151958105Y-99924371D01*
X151958105Y-99924371D02*
X151958105Y-99733895D01*
X151958105Y-99733895D02*
X151910486Y-99638657D01*
X151910486Y-99638657D02*
X151862867Y-99591038D01*
X151862867Y-99591038D02*
X151767629Y-99543419D01*
X149296820Y-110912617D02*
X148820629Y-111245950D01*
X149296820Y-111484045D02*
X148296820Y-111484045D01*
X148296820Y-111484045D02*
X148296820Y-111103093D01*
X148296820Y-111103093D02*
X148344439Y-111007855D01*
X148344439Y-111007855D02*
X148392058Y-110960236D01*
X148392058Y-110960236D02*
X148487296Y-110912617D01*
X148487296Y-110912617D02*
X148630153Y-110912617D01*
X148630153Y-110912617D02*
X148725391Y-110960236D01*
X148725391Y-110960236D02*
X148773010Y-111007855D01*
X148773010Y-111007855D02*
X148820629Y-111103093D01*
X148820629Y-111103093D02*
X148820629Y-111484045D01*
X149296820Y-109960236D02*
X149296820Y-110531664D01*
X149296820Y-110245950D02*
X148296820Y-110245950D01*
X148296820Y-110245950D02*
X148439677Y-110341188D01*
X148439677Y-110341188D02*
X148534915Y-110436426D01*
X148534915Y-110436426D02*
X148582534Y-110531664D01*
X148630153Y-109103093D02*
X149296820Y-109103093D01*
X148249201Y-109341188D02*
X148963486Y-109579283D01*
X148963486Y-109579283D02*
X148963486Y-108960236D01*
X137392580Y-115111457D02*
X137440200Y-115159076D01*
X137440200Y-115159076D02*
X137487819Y-115301933D01*
X137487819Y-115301933D02*
X137487819Y-115397171D01*
X137487819Y-115397171D02*
X137440200Y-115540028D01*
X137440200Y-115540028D02*
X137344961Y-115635266D01*
X137344961Y-115635266D02*
X137249723Y-115682885D01*
X137249723Y-115682885D02*
X137059247Y-115730504D01*
X137059247Y-115730504D02*
X136916390Y-115730504D01*
X136916390Y-115730504D02*
X136725914Y-115682885D01*
X136725914Y-115682885D02*
X136630676Y-115635266D01*
X136630676Y-115635266D02*
X136535438Y-115540028D01*
X136535438Y-115540028D02*
X136487819Y-115397171D01*
X136487819Y-115397171D02*
X136487819Y-115301933D01*
X136487819Y-115301933D02*
X136535438Y-115159076D01*
X136535438Y-115159076D02*
X136583057Y-115111457D01*
X136583057Y-114730504D02*
X136535438Y-114682885D01*
X136535438Y-114682885D02*
X136487819Y-114587647D01*
X136487819Y-114587647D02*
X136487819Y-114349552D01*
X136487819Y-114349552D02*
X136535438Y-114254314D01*
X136535438Y-114254314D02*
X136583057Y-114206695D01*
X136583057Y-114206695D02*
X136678295Y-114159076D01*
X136678295Y-114159076D02*
X136773533Y-114159076D01*
X136773533Y-114159076D02*
X136916390Y-114206695D01*
X136916390Y-114206695D02*
X137487819Y-114778123D01*
X137487819Y-114778123D02*
X137487819Y-114159076D01*
X136487819Y-113825742D02*
X136487819Y-113206695D01*
X136487819Y-113206695D02*
X136868771Y-113540028D01*
X136868771Y-113540028D02*
X136868771Y-113397171D01*
X136868771Y-113397171D02*
X136916390Y-113301933D01*
X136916390Y-113301933D02*
X136964009Y-113254314D01*
X136964009Y-113254314D02*
X137059247Y-113206695D01*
X137059247Y-113206695D02*
X137297342Y-113206695D01*
X137297342Y-113206695D02*
X137392580Y-113254314D01*
X137392580Y-113254314D02*
X137440200Y-113301933D01*
X137440200Y-113301933D02*
X137487819Y-113397171D01*
X137487819Y-113397171D02*
X137487819Y-113682885D01*
X137487819Y-113682885D02*
X137440200Y-113778123D01*
X137440200Y-113778123D02*
X137392580Y-113825742D01*
X148793819Y-35174157D02*
X148317628Y-35507490D01*
X148793819Y-35745585D02*
X147793819Y-35745585D01*
X147793819Y-35745585D02*
X147793819Y-35364633D01*
X147793819Y-35364633D02*
X147841438Y-35269395D01*
X147841438Y-35269395D02*
X147889057Y-35221776D01*
X147889057Y-35221776D02*
X147984295Y-35174157D01*
X147984295Y-35174157D02*
X148127152Y-35174157D01*
X148127152Y-35174157D02*
X148222390Y-35221776D01*
X148222390Y-35221776D02*
X148270009Y-35269395D01*
X148270009Y-35269395D02*
X148317628Y-35364633D01*
X148317628Y-35364633D02*
X148317628Y-35745585D01*
X147889057Y-34793204D02*
X147841438Y-34745585D01*
X147841438Y-34745585D02*
X147793819Y-34650347D01*
X147793819Y-34650347D02*
X147793819Y-34412252D01*
X147793819Y-34412252D02*
X147841438Y-34317014D01*
X147841438Y-34317014D02*
X147889057Y-34269395D01*
X147889057Y-34269395D02*
X147984295Y-34221776D01*
X147984295Y-34221776D02*
X148079533Y-34221776D01*
X148079533Y-34221776D02*
X148222390Y-34269395D01*
X148222390Y-34269395D02*
X148793819Y-34840823D01*
X148793819Y-34840823D02*
X148793819Y-34221776D01*
X147793819Y-33888442D02*
X147793819Y-33269395D01*
X147793819Y-33269395D02*
X148174771Y-33602728D01*
X148174771Y-33602728D02*
X148174771Y-33459871D01*
X148174771Y-33459871D02*
X148222390Y-33364633D01*
X148222390Y-33364633D02*
X148270009Y-33317014D01*
X148270009Y-33317014D02*
X148365247Y-33269395D01*
X148365247Y-33269395D02*
X148603342Y-33269395D01*
X148603342Y-33269395D02*
X148698580Y-33317014D01*
X148698580Y-33317014D02*
X148746200Y-33364633D01*
X148746200Y-33364633D02*
X148793819Y-33459871D01*
X148793819Y-33459871D02*
X148793819Y-33745585D01*
X148793819Y-33745585D02*
X148746200Y-33840823D01*
X148746200Y-33840823D02*
X148698580Y-33888442D01*
X136388220Y-104866933D02*
X137197743Y-104866933D01*
X137197743Y-104866933D02*
X137292981Y-104819314D01*
X137292981Y-104819314D02*
X137340601Y-104771695D01*
X137340601Y-104771695D02*
X137388220Y-104676457D01*
X137388220Y-104676457D02*
X137388220Y-104485981D01*
X137388220Y-104485981D02*
X137340601Y-104390743D01*
X137340601Y-104390743D02*
X137292981Y-104343124D01*
X137292981Y-104343124D02*
X137197743Y-104295505D01*
X137197743Y-104295505D02*
X136388220Y-104295505D01*
X136388220Y-103390743D02*
X136388220Y-103581219D01*
X136388220Y-103581219D02*
X136435839Y-103676457D01*
X136435839Y-103676457D02*
X136483458Y-103724076D01*
X136483458Y-103724076D02*
X136626315Y-103819314D01*
X136626315Y-103819314D02*
X136816791Y-103866933D01*
X136816791Y-103866933D02*
X137197743Y-103866933D01*
X137197743Y-103866933D02*
X137292981Y-103819314D01*
X137292981Y-103819314D02*
X137340601Y-103771695D01*
X137340601Y-103771695D02*
X137388220Y-103676457D01*
X137388220Y-103676457D02*
X137388220Y-103485981D01*
X137388220Y-103485981D02*
X137340601Y-103390743D01*
X137340601Y-103390743D02*
X137292981Y-103343124D01*
X137292981Y-103343124D02*
X137197743Y-103295505D01*
X137197743Y-103295505D02*
X136959648Y-103295505D01*
X136959648Y-103295505D02*
X136864410Y-103343124D01*
X136864410Y-103343124D02*
X136816791Y-103390743D01*
X136816791Y-103390743D02*
X136769172Y-103485981D01*
X136769172Y-103485981D02*
X136769172Y-103676457D01*
X136769172Y-103676457D02*
X136816791Y-103771695D01*
X136816791Y-103771695D02*
X136864410Y-103819314D01*
X136864410Y-103819314D02*
X136959648Y-103866933D01*
X124575820Y-94501695D02*
X124099629Y-94835028D01*
X124575820Y-95073123D02*
X123575820Y-95073123D01*
X123575820Y-95073123D02*
X123575820Y-94692171D01*
X123575820Y-94692171D02*
X123623439Y-94596933D01*
X123623439Y-94596933D02*
X123671058Y-94549314D01*
X123671058Y-94549314D02*
X123766296Y-94501695D01*
X123766296Y-94501695D02*
X123909153Y-94501695D01*
X123909153Y-94501695D02*
X124004391Y-94549314D01*
X124004391Y-94549314D02*
X124052010Y-94596933D01*
X124052010Y-94596933D02*
X124099629Y-94692171D01*
X124099629Y-94692171D02*
X124099629Y-95073123D01*
X124575820Y-93549314D02*
X124575820Y-94120742D01*
X124575820Y-93835028D02*
X123575820Y-93835028D01*
X123575820Y-93835028D02*
X123718677Y-93930266D01*
X123718677Y-93930266D02*
X123813915Y-94025504D01*
X123813915Y-94025504D02*
X123861534Y-94120742D01*
X131339020Y-66108123D02*
X130339020Y-66108123D01*
X130339020Y-66108123D02*
X130339020Y-65870028D01*
X130339020Y-65870028D02*
X130386639Y-65727171D01*
X130386639Y-65727171D02*
X130481877Y-65631933D01*
X130481877Y-65631933D02*
X130577115Y-65584314D01*
X130577115Y-65584314D02*
X130767591Y-65536695D01*
X130767591Y-65536695D02*
X130910448Y-65536695D01*
X130910448Y-65536695D02*
X131100924Y-65584314D01*
X131100924Y-65584314D02*
X131196162Y-65631933D01*
X131196162Y-65631933D02*
X131291401Y-65727171D01*
X131291401Y-65727171D02*
X131339020Y-65870028D01*
X131339020Y-65870028D02*
X131339020Y-66108123D01*
X131339020Y-64584314D02*
X131339020Y-65155742D01*
X131339020Y-64870028D02*
X130339020Y-64870028D01*
X130339020Y-64870028D02*
X130481877Y-64965266D01*
X130481877Y-64965266D02*
X130577115Y-65060504D01*
X130577115Y-65060504D02*
X130624734Y-65155742D01*
X130278581Y-97591495D02*
X130326201Y-97639114D01*
X130326201Y-97639114D02*
X130373820Y-97781971D01*
X130373820Y-97781971D02*
X130373820Y-97877209D01*
X130373820Y-97877209D02*
X130326201Y-98020066D01*
X130326201Y-98020066D02*
X130230962Y-98115304D01*
X130230962Y-98115304D02*
X130135724Y-98162923D01*
X130135724Y-98162923D02*
X129945248Y-98210542D01*
X129945248Y-98210542D02*
X129802391Y-98210542D01*
X129802391Y-98210542D02*
X129611915Y-98162923D01*
X129611915Y-98162923D02*
X129516677Y-98115304D01*
X129516677Y-98115304D02*
X129421439Y-98020066D01*
X129421439Y-98020066D02*
X129373820Y-97877209D01*
X129373820Y-97877209D02*
X129373820Y-97781971D01*
X129373820Y-97781971D02*
X129421439Y-97639114D01*
X129421439Y-97639114D02*
X129469058Y-97591495D01*
X129373820Y-96734352D02*
X129373820Y-96924828D01*
X129373820Y-96924828D02*
X129421439Y-97020066D01*
X129421439Y-97020066D02*
X129469058Y-97067685D01*
X129469058Y-97067685D02*
X129611915Y-97162923D01*
X129611915Y-97162923D02*
X129802391Y-97210542D01*
X129802391Y-97210542D02*
X130183343Y-97210542D01*
X130183343Y-97210542D02*
X130278581Y-97162923D01*
X130278581Y-97162923D02*
X130326201Y-97115304D01*
X130326201Y-97115304D02*
X130373820Y-97020066D01*
X130373820Y-97020066D02*
X130373820Y-96829590D01*
X130373820Y-96829590D02*
X130326201Y-96734352D01*
X130326201Y-96734352D02*
X130278581Y-96686733D01*
X130278581Y-96686733D02*
X130183343Y-96639114D01*
X130183343Y-96639114D02*
X129945248Y-96639114D01*
X129945248Y-96639114D02*
X129850010Y-96686733D01*
X129850010Y-96686733D02*
X129802391Y-96734352D01*
X129802391Y-96734352D02*
X129754772Y-96829590D01*
X129754772Y-96829590D02*
X129754772Y-97020066D01*
X129754772Y-97020066D02*
X129802391Y-97115304D01*
X129802391Y-97115304D02*
X129850010Y-97162923D01*
X129850010Y-97162923D02*
X129945248Y-97210542D01*
X129135581Y-97591495D02*
X129183201Y-97639114D01*
X129183201Y-97639114D02*
X129230820Y-97781971D01*
X129230820Y-97781971D02*
X129230820Y-97877209D01*
X129230820Y-97877209D02*
X129183201Y-98020066D01*
X129183201Y-98020066D02*
X129087962Y-98115304D01*
X129087962Y-98115304D02*
X128992724Y-98162923D01*
X128992724Y-98162923D02*
X128802248Y-98210542D01*
X128802248Y-98210542D02*
X128659391Y-98210542D01*
X128659391Y-98210542D02*
X128468915Y-98162923D01*
X128468915Y-98162923D02*
X128373677Y-98115304D01*
X128373677Y-98115304D02*
X128278439Y-98020066D01*
X128278439Y-98020066D02*
X128230820Y-97877209D01*
X128230820Y-97877209D02*
X128230820Y-97781971D01*
X128230820Y-97781971D02*
X128278439Y-97639114D01*
X128278439Y-97639114D02*
X128326058Y-97591495D01*
X128230820Y-96686733D02*
X128230820Y-97162923D01*
X128230820Y-97162923D02*
X128707010Y-97210542D01*
X128707010Y-97210542D02*
X128659391Y-97162923D01*
X128659391Y-97162923D02*
X128611772Y-97067685D01*
X128611772Y-97067685D02*
X128611772Y-96829590D01*
X128611772Y-96829590D02*
X128659391Y-96734352D01*
X128659391Y-96734352D02*
X128707010Y-96686733D01*
X128707010Y-96686733D02*
X128802248Y-96639114D01*
X128802248Y-96639114D02*
X129040343Y-96639114D01*
X129040343Y-96639114D02*
X129135581Y-96686733D01*
X129135581Y-96686733D02*
X129183201Y-96734352D01*
X129183201Y-96734352D02*
X129230820Y-96829590D01*
X129230820Y-96829590D02*
X129230820Y-97067685D01*
X129230820Y-97067685D02*
X129183201Y-97162923D01*
X129183201Y-97162923D02*
X129135581Y-97210542D01*
X132564581Y-97591495D02*
X132612201Y-97639114D01*
X132612201Y-97639114D02*
X132659820Y-97781971D01*
X132659820Y-97781971D02*
X132659820Y-97877209D01*
X132659820Y-97877209D02*
X132612201Y-98020066D01*
X132612201Y-98020066D02*
X132516962Y-98115304D01*
X132516962Y-98115304D02*
X132421724Y-98162923D01*
X132421724Y-98162923D02*
X132231248Y-98210542D01*
X132231248Y-98210542D02*
X132088391Y-98210542D01*
X132088391Y-98210542D02*
X131897915Y-98162923D01*
X131897915Y-98162923D02*
X131802677Y-98115304D01*
X131802677Y-98115304D02*
X131707439Y-98020066D01*
X131707439Y-98020066D02*
X131659820Y-97877209D01*
X131659820Y-97877209D02*
X131659820Y-97781971D01*
X131659820Y-97781971D02*
X131707439Y-97639114D01*
X131707439Y-97639114D02*
X131755058Y-97591495D01*
X132088391Y-97020066D02*
X132040772Y-97115304D01*
X132040772Y-97115304D02*
X131993153Y-97162923D01*
X131993153Y-97162923D02*
X131897915Y-97210542D01*
X131897915Y-97210542D02*
X131850296Y-97210542D01*
X131850296Y-97210542D02*
X131755058Y-97162923D01*
X131755058Y-97162923D02*
X131707439Y-97115304D01*
X131707439Y-97115304D02*
X131659820Y-97020066D01*
X131659820Y-97020066D02*
X131659820Y-96829590D01*
X131659820Y-96829590D02*
X131707439Y-96734352D01*
X131707439Y-96734352D02*
X131755058Y-96686733D01*
X131755058Y-96686733D02*
X131850296Y-96639114D01*
X131850296Y-96639114D02*
X131897915Y-96639114D01*
X131897915Y-96639114D02*
X131993153Y-96686733D01*
X131993153Y-96686733D02*
X132040772Y-96734352D01*
X132040772Y-96734352D02*
X132088391Y-96829590D01*
X132088391Y-96829590D02*
X132088391Y-97020066D01*
X132088391Y-97020066D02*
X132136010Y-97115304D01*
X132136010Y-97115304D02*
X132183629Y-97162923D01*
X132183629Y-97162923D02*
X132278867Y-97210542D01*
X132278867Y-97210542D02*
X132469343Y-97210542D01*
X132469343Y-97210542D02*
X132564581Y-97162923D01*
X132564581Y-97162923D02*
X132612201Y-97115304D01*
X132612201Y-97115304D02*
X132659820Y-97020066D01*
X132659820Y-97020066D02*
X132659820Y-96829590D01*
X132659820Y-96829590D02*
X132612201Y-96734352D01*
X132612201Y-96734352D02*
X132564581Y-96686733D01*
X132564581Y-96686733D02*
X132469343Y-96639114D01*
X132469343Y-96639114D02*
X132278867Y-96639114D01*
X132278867Y-96639114D02*
X132183629Y-96686733D01*
X132183629Y-96686733D02*
X132136010Y-96734352D01*
X132136010Y-96734352D02*
X132088391Y-96829590D01*
X134850581Y-97585086D02*
X134898201Y-97632705D01*
X134898201Y-97632705D02*
X134945820Y-97775562D01*
X134945820Y-97775562D02*
X134945820Y-97870800D01*
X134945820Y-97870800D02*
X134898201Y-98013657D01*
X134898201Y-98013657D02*
X134802962Y-98108895D01*
X134802962Y-98108895D02*
X134707724Y-98156514D01*
X134707724Y-98156514D02*
X134517248Y-98204133D01*
X134517248Y-98204133D02*
X134374391Y-98204133D01*
X134374391Y-98204133D02*
X134183915Y-98156514D01*
X134183915Y-98156514D02*
X134088677Y-98108895D01*
X134088677Y-98108895D02*
X133993439Y-98013657D01*
X133993439Y-98013657D02*
X133945820Y-97870800D01*
X133945820Y-97870800D02*
X133945820Y-97775562D01*
X133945820Y-97775562D02*
X133993439Y-97632705D01*
X133993439Y-97632705D02*
X134041058Y-97585086D01*
X134945820Y-96632705D02*
X134945820Y-97204133D01*
X134945820Y-96918419D02*
X133945820Y-96918419D01*
X133945820Y-96918419D02*
X134088677Y-97013657D01*
X134088677Y-97013657D02*
X134183915Y-97108895D01*
X134183915Y-97108895D02*
X134231534Y-97204133D01*
X133945820Y-96013657D02*
X133945820Y-95918419D01*
X133945820Y-95918419D02*
X133993439Y-95823181D01*
X133993439Y-95823181D02*
X134041058Y-95775562D01*
X134041058Y-95775562D02*
X134136296Y-95727943D01*
X134136296Y-95727943D02*
X134326772Y-95680324D01*
X134326772Y-95680324D02*
X134564867Y-95680324D01*
X134564867Y-95680324D02*
X134755343Y-95727943D01*
X134755343Y-95727943D02*
X134850581Y-95775562D01*
X134850581Y-95775562D02*
X134898201Y-95823181D01*
X134898201Y-95823181D02*
X134945820Y-95918419D01*
X134945820Y-95918419D02*
X134945820Y-96013657D01*
X134945820Y-96013657D02*
X134898201Y-96108895D01*
X134898201Y-96108895D02*
X134850581Y-96156514D01*
X134850581Y-96156514D02*
X134755343Y-96204133D01*
X134755343Y-96204133D02*
X134564867Y-96251752D01*
X134564867Y-96251752D02*
X134326772Y-96251752D01*
X134326772Y-96251752D02*
X134136296Y-96204133D01*
X134136296Y-96204133D02*
X134041058Y-96156514D01*
X134041058Y-96156514D02*
X133993439Y-96108895D01*
X133993439Y-96108895D02*
X133945820Y-96013657D01*
X140916819Y-28558557D02*
X140440628Y-28891890D01*
X140916819Y-29129985D02*
X139916819Y-29129985D01*
X139916819Y-29129985D02*
X139916819Y-28749033D01*
X139916819Y-28749033D02*
X139964438Y-28653795D01*
X139964438Y-28653795D02*
X140012057Y-28606176D01*
X140012057Y-28606176D02*
X140107295Y-28558557D01*
X140107295Y-28558557D02*
X140250152Y-28558557D01*
X140250152Y-28558557D02*
X140345390Y-28606176D01*
X140345390Y-28606176D02*
X140393009Y-28653795D01*
X140393009Y-28653795D02*
X140440628Y-28749033D01*
X140440628Y-28749033D02*
X140440628Y-29129985D01*
X140012057Y-28177604D02*
X139964438Y-28129985D01*
X139964438Y-28129985D02*
X139916819Y-28034747D01*
X139916819Y-28034747D02*
X139916819Y-27796652D01*
X139916819Y-27796652D02*
X139964438Y-27701414D01*
X139964438Y-27701414D02*
X140012057Y-27653795D01*
X140012057Y-27653795D02*
X140107295Y-27606176D01*
X140107295Y-27606176D02*
X140202533Y-27606176D01*
X140202533Y-27606176D02*
X140345390Y-27653795D01*
X140345390Y-27653795D02*
X140916819Y-28225223D01*
X140916819Y-28225223D02*
X140916819Y-27606176D01*
X140916819Y-26653795D02*
X140916819Y-27225223D01*
X140916819Y-26939509D02*
X139916819Y-26939509D01*
X139916819Y-26939509D02*
X140059676Y-27034747D01*
X140059676Y-27034747D02*
X140154914Y-27129985D01*
X140154914Y-27129985D02*
X140202533Y-27225223D01*
X151376142Y-45461580D02*
X151328523Y-45509200D01*
X151328523Y-45509200D02*
X151185666Y-45556819D01*
X151185666Y-45556819D02*
X151090428Y-45556819D01*
X151090428Y-45556819D02*
X150947571Y-45509200D01*
X150947571Y-45509200D02*
X150852333Y-45413961D01*
X150852333Y-45413961D02*
X150804714Y-45318723D01*
X150804714Y-45318723D02*
X150757095Y-45128247D01*
X150757095Y-45128247D02*
X150757095Y-44985390D01*
X150757095Y-44985390D02*
X150804714Y-44794914D01*
X150804714Y-44794914D02*
X150852333Y-44699676D01*
X150852333Y-44699676D02*
X150947571Y-44604438D01*
X150947571Y-44604438D02*
X151090428Y-44556819D01*
X151090428Y-44556819D02*
X151185666Y-44556819D01*
X151185666Y-44556819D02*
X151328523Y-44604438D01*
X151328523Y-44604438D02*
X151376142Y-44652057D01*
X152233285Y-44556819D02*
X152042809Y-44556819D01*
X152042809Y-44556819D02*
X151947571Y-44604438D01*
X151947571Y-44604438D02*
X151899952Y-44652057D01*
X151899952Y-44652057D02*
X151804714Y-44794914D01*
X151804714Y-44794914D02*
X151757095Y-44985390D01*
X151757095Y-44985390D02*
X151757095Y-45366342D01*
X151757095Y-45366342D02*
X151804714Y-45461580D01*
X151804714Y-45461580D02*
X151852333Y-45509200D01*
X151852333Y-45509200D02*
X151947571Y-45556819D01*
X151947571Y-45556819D02*
X152138047Y-45556819D01*
X152138047Y-45556819D02*
X152233285Y-45509200D01*
X152233285Y-45509200D02*
X152280904Y-45461580D01*
X152280904Y-45461580D02*
X152328523Y-45366342D01*
X152328523Y-45366342D02*
X152328523Y-45128247D01*
X152328523Y-45128247D02*
X152280904Y-45033009D01*
X152280904Y-45033009D02*
X152233285Y-44985390D01*
X152233285Y-44985390D02*
X152138047Y-44937771D01*
X152138047Y-44937771D02*
X151947571Y-44937771D01*
X151947571Y-44937771D02*
X151852333Y-44985390D01*
X151852333Y-44985390D02*
X151804714Y-45033009D01*
X151804714Y-45033009D02*
X151757095Y-45128247D01*
X153185666Y-44556819D02*
X152995190Y-44556819D01*
X152995190Y-44556819D02*
X152899952Y-44604438D01*
X152899952Y-44604438D02*
X152852333Y-44652057D01*
X152852333Y-44652057D02*
X152757095Y-44794914D01*
X152757095Y-44794914D02*
X152709476Y-44985390D01*
X152709476Y-44985390D02*
X152709476Y-45366342D01*
X152709476Y-45366342D02*
X152757095Y-45461580D01*
X152757095Y-45461580D02*
X152804714Y-45509200D01*
X152804714Y-45509200D02*
X152899952Y-45556819D01*
X152899952Y-45556819D02*
X153090428Y-45556819D01*
X153090428Y-45556819D02*
X153185666Y-45509200D01*
X153185666Y-45509200D02*
X153233285Y-45461580D01*
X153233285Y-45461580D02*
X153280904Y-45366342D01*
X153280904Y-45366342D02*
X153280904Y-45128247D01*
X153280904Y-45128247D02*
X153233285Y-45033009D01*
X153233285Y-45033009D02*
X153185666Y-44985390D01*
X153185666Y-44985390D02*
X153090428Y-44937771D01*
X153090428Y-44937771D02*
X152899952Y-44937771D01*
X152899952Y-44937771D02*
X152804714Y-44985390D01*
X152804714Y-44985390D02*
X152757095Y-45033009D01*
X152757095Y-45033009D02*
X152709476Y-45128247D01*
X144726819Y-46743857D02*
X144250628Y-47077190D01*
X144726819Y-47315285D02*
X143726819Y-47315285D01*
X143726819Y-47315285D02*
X143726819Y-46934333D01*
X143726819Y-46934333D02*
X143774438Y-46839095D01*
X143774438Y-46839095D02*
X143822057Y-46791476D01*
X143822057Y-46791476D02*
X143917295Y-46743857D01*
X143917295Y-46743857D02*
X144060152Y-46743857D01*
X144060152Y-46743857D02*
X144155390Y-46791476D01*
X144155390Y-46791476D02*
X144203009Y-46839095D01*
X144203009Y-46839095D02*
X144250628Y-46934333D01*
X144250628Y-46934333D02*
X144250628Y-47315285D01*
X144726819Y-45791476D02*
X144726819Y-46362904D01*
X144726819Y-46077190D02*
X143726819Y-46077190D01*
X143726819Y-46077190D02*
X143869676Y-46172428D01*
X143869676Y-46172428D02*
X143964914Y-46267666D01*
X143964914Y-46267666D02*
X144012533Y-46362904D01*
X143726819Y-45172428D02*
X143726819Y-45077190D01*
X143726819Y-45077190D02*
X143774438Y-44981952D01*
X143774438Y-44981952D02*
X143822057Y-44934333D01*
X143822057Y-44934333D02*
X143917295Y-44886714D01*
X143917295Y-44886714D02*
X144107771Y-44839095D01*
X144107771Y-44839095D02*
X144345866Y-44839095D01*
X144345866Y-44839095D02*
X144536342Y-44886714D01*
X144536342Y-44886714D02*
X144631580Y-44934333D01*
X144631580Y-44934333D02*
X144679200Y-44981952D01*
X144679200Y-44981952D02*
X144726819Y-45077190D01*
X144726819Y-45077190D02*
X144726819Y-45172428D01*
X144726819Y-45172428D02*
X144679200Y-45267666D01*
X144679200Y-45267666D02*
X144631580Y-45315285D01*
X144631580Y-45315285D02*
X144536342Y-45362904D01*
X144536342Y-45362904D02*
X144345866Y-45410523D01*
X144345866Y-45410523D02*
X144107771Y-45410523D01*
X144107771Y-45410523D02*
X143917295Y-45362904D01*
X143917295Y-45362904D02*
X143822057Y-45315285D01*
X143822057Y-45315285D02*
X143774438Y-45267666D01*
X143774438Y-45267666D02*
X143726819Y-45172428D01*
X126761334Y-95955609D02*
X126713715Y-96003229D01*
X126713715Y-96003229D02*
X126570858Y-96050848D01*
X126570858Y-96050848D02*
X126475620Y-96050848D01*
X126475620Y-96050848D02*
X126332763Y-96003229D01*
X126332763Y-96003229D02*
X126237525Y-95907990D01*
X126237525Y-95907990D02*
X126189906Y-95812752D01*
X126189906Y-95812752D02*
X126142287Y-95622276D01*
X126142287Y-95622276D02*
X126142287Y-95479419D01*
X126142287Y-95479419D02*
X126189906Y-95288943D01*
X126189906Y-95288943D02*
X126237525Y-95193705D01*
X126237525Y-95193705D02*
X126332763Y-95098467D01*
X126332763Y-95098467D02*
X126475620Y-95050848D01*
X126475620Y-95050848D02*
X126570858Y-95050848D01*
X126570858Y-95050848D02*
X126713715Y-95098467D01*
X126713715Y-95098467D02*
X126761334Y-95146086D01*
X127094668Y-95050848D02*
X127713715Y-95050848D01*
X127713715Y-95050848D02*
X127380382Y-95431800D01*
X127380382Y-95431800D02*
X127523239Y-95431800D01*
X127523239Y-95431800D02*
X127618477Y-95479419D01*
X127618477Y-95479419D02*
X127666096Y-95527038D01*
X127666096Y-95527038D02*
X127713715Y-95622276D01*
X127713715Y-95622276D02*
X127713715Y-95860371D01*
X127713715Y-95860371D02*
X127666096Y-95955609D01*
X127666096Y-95955609D02*
X127618477Y-96003229D01*
X127618477Y-96003229D02*
X127523239Y-96050848D01*
X127523239Y-96050848D02*
X127237525Y-96050848D01*
X127237525Y-96050848D02*
X127142287Y-96003229D01*
X127142287Y-96003229D02*
X127094668Y-95955609D01*
X138757819Y-66555857D02*
X138281628Y-66889190D01*
X138757819Y-67127285D02*
X137757819Y-67127285D01*
X137757819Y-67127285D02*
X137757819Y-66746333D01*
X137757819Y-66746333D02*
X137805438Y-66651095D01*
X137805438Y-66651095D02*
X137853057Y-66603476D01*
X137853057Y-66603476D02*
X137948295Y-66555857D01*
X137948295Y-66555857D02*
X138091152Y-66555857D01*
X138091152Y-66555857D02*
X138186390Y-66603476D01*
X138186390Y-66603476D02*
X138234009Y-66651095D01*
X138234009Y-66651095D02*
X138281628Y-66746333D01*
X138281628Y-66746333D02*
X138281628Y-67127285D01*
X137757819Y-66222523D02*
X137757819Y-65603476D01*
X137757819Y-65603476D02*
X138138771Y-65936809D01*
X138138771Y-65936809D02*
X138138771Y-65793952D01*
X138138771Y-65793952D02*
X138186390Y-65698714D01*
X138186390Y-65698714D02*
X138234009Y-65651095D01*
X138234009Y-65651095D02*
X138329247Y-65603476D01*
X138329247Y-65603476D02*
X138567342Y-65603476D01*
X138567342Y-65603476D02*
X138662580Y-65651095D01*
X138662580Y-65651095D02*
X138710200Y-65698714D01*
X138710200Y-65698714D02*
X138757819Y-65793952D01*
X138757819Y-65793952D02*
X138757819Y-66079666D01*
X138757819Y-66079666D02*
X138710200Y-66174904D01*
X138710200Y-66174904D02*
X138662580Y-66222523D01*
X138757819Y-64651095D02*
X138757819Y-65222523D01*
X138757819Y-64936809D02*
X137757819Y-64936809D01*
X137757819Y-64936809D02*
X137900676Y-65032047D01*
X137900676Y-65032047D02*
X137995914Y-65127285D01*
X137995914Y-65127285D02*
X138043533Y-65222523D01*
X146536580Y-69022486D02*
X146584200Y-69070105D01*
X146584200Y-69070105D02*
X146631819Y-69212962D01*
X146631819Y-69212962D02*
X146631819Y-69308200D01*
X146631819Y-69308200D02*
X146584200Y-69451057D01*
X146584200Y-69451057D02*
X146488961Y-69546295D01*
X146488961Y-69546295D02*
X146393723Y-69593914D01*
X146393723Y-69593914D02*
X146203247Y-69641533D01*
X146203247Y-69641533D02*
X146060390Y-69641533D01*
X146060390Y-69641533D02*
X145869914Y-69593914D01*
X145869914Y-69593914D02*
X145774676Y-69546295D01*
X145774676Y-69546295D02*
X145679438Y-69451057D01*
X145679438Y-69451057D02*
X145631819Y-69308200D01*
X145631819Y-69308200D02*
X145631819Y-69212962D01*
X145631819Y-69212962D02*
X145679438Y-69070105D01*
X145679438Y-69070105D02*
X145727057Y-69022486D01*
X145631819Y-68117724D02*
X145631819Y-68593914D01*
X145631819Y-68593914D02*
X146108009Y-68641533D01*
X146108009Y-68641533D02*
X146060390Y-68593914D01*
X146060390Y-68593914D02*
X146012771Y-68498676D01*
X146012771Y-68498676D02*
X146012771Y-68260581D01*
X146012771Y-68260581D02*
X146060390Y-68165343D01*
X146060390Y-68165343D02*
X146108009Y-68117724D01*
X146108009Y-68117724D02*
X146203247Y-68070105D01*
X146203247Y-68070105D02*
X146441342Y-68070105D01*
X146441342Y-68070105D02*
X146536580Y-68117724D01*
X146536580Y-68117724D02*
X146584200Y-68165343D01*
X146584200Y-68165343D02*
X146631819Y-68260581D01*
X146631819Y-68260581D02*
X146631819Y-68498676D01*
X146631819Y-68498676D02*
X146584200Y-68593914D01*
X146584200Y-68593914D02*
X146536580Y-68641533D01*
X145631819Y-67451057D02*
X145631819Y-67355819D01*
X145631819Y-67355819D02*
X145679438Y-67260581D01*
X145679438Y-67260581D02*
X145727057Y-67212962D01*
X145727057Y-67212962D02*
X145822295Y-67165343D01*
X145822295Y-67165343D02*
X146012771Y-67117724D01*
X146012771Y-67117724D02*
X146250866Y-67117724D01*
X146250866Y-67117724D02*
X146441342Y-67165343D01*
X146441342Y-67165343D02*
X146536580Y-67212962D01*
X146536580Y-67212962D02*
X146584200Y-67260581D01*
X146584200Y-67260581D02*
X146631819Y-67355819D01*
X146631819Y-67355819D02*
X146631819Y-67451057D01*
X146631819Y-67451057D02*
X146584200Y-67546295D01*
X146584200Y-67546295D02*
X146536580Y-67593914D01*
X146536580Y-67593914D02*
X146441342Y-67641533D01*
X146441342Y-67641533D02*
X146250866Y-67689152D01*
X146250866Y-67689152D02*
X146012771Y-67689152D01*
X146012771Y-67689152D02*
X145822295Y-67641533D01*
X145822295Y-67641533D02*
X145727057Y-67593914D01*
X145727057Y-67593914D02*
X145679438Y-67546295D01*
X145679438Y-67546295D02*
X145631819Y-67451057D01*
X132349543Y-66272580D02*
X132301924Y-66320200D01*
X132301924Y-66320200D02*
X132159067Y-66367819D01*
X132159067Y-66367819D02*
X132063829Y-66367819D01*
X132063829Y-66367819D02*
X131920972Y-66320200D01*
X131920972Y-66320200D02*
X131825734Y-66224961D01*
X131825734Y-66224961D02*
X131778115Y-66129723D01*
X131778115Y-66129723D02*
X131730496Y-65939247D01*
X131730496Y-65939247D02*
X131730496Y-65796390D01*
X131730496Y-65796390D02*
X131778115Y-65605914D01*
X131778115Y-65605914D02*
X131825734Y-65510676D01*
X131825734Y-65510676D02*
X131920972Y-65415438D01*
X131920972Y-65415438D02*
X132063829Y-65367819D01*
X132063829Y-65367819D02*
X132159067Y-65367819D01*
X132159067Y-65367819D02*
X132301924Y-65415438D01*
X132301924Y-65415438D02*
X132349543Y-65463057D01*
X133206686Y-65701152D02*
X133206686Y-66367819D01*
X132968591Y-65320200D02*
X132730496Y-66034485D01*
X132730496Y-66034485D02*
X133349543Y-66034485D01*
X133778115Y-66367819D02*
X133968591Y-66367819D01*
X133968591Y-66367819D02*
X134063829Y-66320200D01*
X134063829Y-66320200D02*
X134111448Y-66272580D01*
X134111448Y-66272580D02*
X134206686Y-66129723D01*
X134206686Y-66129723D02*
X134254305Y-65939247D01*
X134254305Y-65939247D02*
X134254305Y-65558295D01*
X134254305Y-65558295D02*
X134206686Y-65463057D01*
X134206686Y-65463057D02*
X134159067Y-65415438D01*
X134159067Y-65415438D02*
X134063829Y-65367819D01*
X134063829Y-65367819D02*
X133873353Y-65367819D01*
X133873353Y-65367819D02*
X133778115Y-65415438D01*
X133778115Y-65415438D02*
X133730496Y-65463057D01*
X133730496Y-65463057D02*
X133682877Y-65558295D01*
X133682877Y-65558295D02*
X133682877Y-65796390D01*
X133682877Y-65796390D02*
X133730496Y-65891628D01*
X133730496Y-65891628D02*
X133778115Y-65939247D01*
X133778115Y-65939247D02*
X133873353Y-65986866D01*
X133873353Y-65986866D02*
X134063829Y-65986866D01*
X134063829Y-65986866D02*
X134159067Y-65939247D01*
X134159067Y-65939247D02*
X134206686Y-65891628D01*
X134206686Y-65891628D02*
X134254305Y-65796390D01*
X118918534Y-97698048D02*
X118585201Y-97221857D01*
X118347106Y-97698048D02*
X118347106Y-96698048D01*
X118347106Y-96698048D02*
X118728058Y-96698048D01*
X118728058Y-96698048D02*
X118823296Y-96745667D01*
X118823296Y-96745667D02*
X118870915Y-96793286D01*
X118870915Y-96793286D02*
X118918534Y-96888524D01*
X118918534Y-96888524D02*
X118918534Y-97031381D01*
X118918534Y-97031381D02*
X118870915Y-97126619D01*
X118870915Y-97126619D02*
X118823296Y-97174238D01*
X118823296Y-97174238D02*
X118728058Y-97221857D01*
X118728058Y-97221857D02*
X118347106Y-97221857D01*
X119251868Y-96698048D02*
X119870915Y-96698048D01*
X119870915Y-96698048D02*
X119537582Y-97079000D01*
X119537582Y-97079000D02*
X119680439Y-97079000D01*
X119680439Y-97079000D02*
X119775677Y-97126619D01*
X119775677Y-97126619D02*
X119823296Y-97174238D01*
X119823296Y-97174238D02*
X119870915Y-97269476D01*
X119870915Y-97269476D02*
X119870915Y-97507571D01*
X119870915Y-97507571D02*
X119823296Y-97602809D01*
X119823296Y-97602809D02*
X119775677Y-97650429D01*
X119775677Y-97650429D02*
X119680439Y-97698048D01*
X119680439Y-97698048D02*
X119394725Y-97698048D01*
X119394725Y-97698048D02*
X119299487Y-97650429D01*
X119299487Y-97650429D02*
X119251868Y-97602809D01*
X121156096Y-99521248D02*
X121156096Y-100330771D01*
X121156096Y-100330771D02*
X121203715Y-100426009D01*
X121203715Y-100426009D02*
X121251334Y-100473629D01*
X121251334Y-100473629D02*
X121346572Y-100521248D01*
X121346572Y-100521248D02*
X121537048Y-100521248D01*
X121537048Y-100521248D02*
X121632286Y-100473629D01*
X121632286Y-100473629D02*
X121679905Y-100426009D01*
X121679905Y-100426009D02*
X121727524Y-100330771D01*
X121727524Y-100330771D02*
X121727524Y-99521248D01*
X122727524Y-100521248D02*
X122156096Y-100521248D01*
X122441810Y-100521248D02*
X122441810Y-99521248D01*
X122441810Y-99521248D02*
X122346572Y-99664105D01*
X122346572Y-99664105D02*
X122251334Y-99759343D01*
X122251334Y-99759343D02*
X122156096Y-99806962D01*
X134397761Y-56176057D02*
X134302523Y-56128438D01*
X134302523Y-56128438D02*
X134207285Y-56033200D01*
X134207285Y-56033200D02*
X134064428Y-55890342D01*
X134064428Y-55890342D02*
X133969190Y-55842723D01*
X133969190Y-55842723D02*
X133873952Y-55842723D01*
X133921571Y-56080819D02*
X133826333Y-56033200D01*
X133826333Y-56033200D02*
X133731095Y-55937961D01*
X133731095Y-55937961D02*
X133683476Y-55747485D01*
X133683476Y-55747485D02*
X133683476Y-55414152D01*
X133683476Y-55414152D02*
X133731095Y-55223676D01*
X133731095Y-55223676D02*
X133826333Y-55128438D01*
X133826333Y-55128438D02*
X133921571Y-55080819D01*
X133921571Y-55080819D02*
X134112047Y-55080819D01*
X134112047Y-55080819D02*
X134207285Y-55128438D01*
X134207285Y-55128438D02*
X134302523Y-55223676D01*
X134302523Y-55223676D02*
X134350142Y-55414152D01*
X134350142Y-55414152D02*
X134350142Y-55747485D01*
X134350142Y-55747485D02*
X134302523Y-55937961D01*
X134302523Y-55937961D02*
X134207285Y-56033200D01*
X134207285Y-56033200D02*
X134112047Y-56080819D01*
X134112047Y-56080819D02*
X133921571Y-56080819D01*
X135302523Y-56080819D02*
X134731095Y-56080819D01*
X135016809Y-56080819D02*
X135016809Y-55080819D01*
X135016809Y-55080819D02*
X134921571Y-55223676D01*
X134921571Y-55223676D02*
X134826333Y-55318914D01*
X134826333Y-55318914D02*
X134731095Y-55366533D01*
X133820819Y-59816999D02*
X134058914Y-59816999D01*
X133963676Y-60055094D02*
X134058914Y-59816999D01*
X134058914Y-59816999D02*
X133963676Y-59578904D01*
X134249390Y-59959856D02*
X134058914Y-59816999D01*
X134058914Y-59816999D02*
X134249390Y-59674142D01*
X134911180Y-59817000D02*
X134673085Y-59817000D01*
X134768323Y-59578905D02*
X134673085Y-59817000D01*
X134673085Y-59817000D02*
X134768323Y-60055095D01*
X134482609Y-59674143D02*
X134673085Y-59817000D01*
X134673085Y-59817000D02*
X134482609Y-59959857D01*
X151043943Y-98698809D02*
X150996324Y-98746429D01*
X150996324Y-98746429D02*
X150853467Y-98794048D01*
X150853467Y-98794048D02*
X150758229Y-98794048D01*
X150758229Y-98794048D02*
X150615372Y-98746429D01*
X150615372Y-98746429D02*
X150520134Y-98651190D01*
X150520134Y-98651190D02*
X150472515Y-98555952D01*
X150472515Y-98555952D02*
X150424896Y-98365476D01*
X150424896Y-98365476D02*
X150424896Y-98222619D01*
X150424896Y-98222619D02*
X150472515Y-98032143D01*
X150472515Y-98032143D02*
X150520134Y-97936905D01*
X150520134Y-97936905D02*
X150615372Y-97841667D01*
X150615372Y-97841667D02*
X150758229Y-97794048D01*
X150758229Y-97794048D02*
X150853467Y-97794048D01*
X150853467Y-97794048D02*
X150996324Y-97841667D01*
X150996324Y-97841667D02*
X151043943Y-97889286D01*
X151424896Y-97889286D02*
X151472515Y-97841667D01*
X151472515Y-97841667D02*
X151567753Y-97794048D01*
X151567753Y-97794048D02*
X151805848Y-97794048D01*
X151805848Y-97794048D02*
X151901086Y-97841667D01*
X151901086Y-97841667D02*
X151948705Y-97889286D01*
X151948705Y-97889286D02*
X151996324Y-97984524D01*
X151996324Y-97984524D02*
X151996324Y-98079762D01*
X151996324Y-98079762D02*
X151948705Y-98222619D01*
X151948705Y-98222619D02*
X151377277Y-98794048D01*
X151377277Y-98794048D02*
X151996324Y-98794048D01*
X152377277Y-97889286D02*
X152424896Y-97841667D01*
X152424896Y-97841667D02*
X152520134Y-97794048D01*
X152520134Y-97794048D02*
X152758229Y-97794048D01*
X152758229Y-97794048D02*
X152853467Y-97841667D01*
X152853467Y-97841667D02*
X152901086Y-97889286D01*
X152901086Y-97889286D02*
X152948705Y-97984524D01*
X152948705Y-97984524D02*
X152948705Y-98079762D01*
X152948705Y-98079762D02*
X152901086Y-98222619D01*
X152901086Y-98222619D02*
X152329658Y-98794048D01*
X152329658Y-98794048D02*
X152948705Y-98794048D01*
X130700767Y-118580648D02*
X130700767Y-119294933D01*
X130700767Y-119294933D02*
X130653148Y-119437790D01*
X130653148Y-119437790D02*
X130557910Y-119533029D01*
X130557910Y-119533029D02*
X130415053Y-119580648D01*
X130415053Y-119580648D02*
X130319815Y-119580648D01*
X131700767Y-119580648D02*
X131129339Y-119580648D01*
X131415053Y-119580648D02*
X131415053Y-118580648D01*
X131415053Y-118580648D02*
X131319815Y-118723505D01*
X131319815Y-118723505D02*
X131224577Y-118818743D01*
X131224577Y-118818743D02*
X131129339Y-118866362D01*
D11*
X126462333Y-87519048D02*
X125986143Y-87519048D01*
X125986143Y-87519048D02*
X125986143Y-86519048D01*
X127224238Y-86852381D02*
X127224238Y-87519048D01*
X126986143Y-86471429D02*
X126748048Y-87185714D01*
X126748048Y-87185714D02*
X127367095Y-87185714D01*
D10*
X127920761Y-49064057D02*
X127825523Y-49016438D01*
X127825523Y-49016438D02*
X127730285Y-48921200D01*
X127730285Y-48921200D02*
X127587428Y-48778342D01*
X127587428Y-48778342D02*
X127492190Y-48730723D01*
X127492190Y-48730723D02*
X127396952Y-48730723D01*
X127444571Y-48968819D02*
X127349333Y-48921200D01*
X127349333Y-48921200D02*
X127254095Y-48825961D01*
X127254095Y-48825961D02*
X127206476Y-48635485D01*
X127206476Y-48635485D02*
X127206476Y-48302152D01*
X127206476Y-48302152D02*
X127254095Y-48111676D01*
X127254095Y-48111676D02*
X127349333Y-48016438D01*
X127349333Y-48016438D02*
X127444571Y-47968819D01*
X127444571Y-47968819D02*
X127635047Y-47968819D01*
X127635047Y-47968819D02*
X127730285Y-48016438D01*
X127730285Y-48016438D02*
X127825523Y-48111676D01*
X127825523Y-48111676D02*
X127873142Y-48302152D01*
X127873142Y-48302152D02*
X127873142Y-48635485D01*
X127873142Y-48635485D02*
X127825523Y-48825961D01*
X127825523Y-48825961D02*
X127730285Y-48921200D01*
X127730285Y-48921200D02*
X127635047Y-48968819D01*
X127635047Y-48968819D02*
X127444571Y-48968819D01*
X128206476Y-47968819D02*
X128873142Y-47968819D01*
X128873142Y-47968819D02*
X128444571Y-48968819D01*
X127216819Y-52704999D02*
X127454914Y-52704999D01*
X127359676Y-52943094D02*
X127454914Y-52704999D01*
X127454914Y-52704999D02*
X127359676Y-52466904D01*
X127645390Y-52847856D02*
X127454914Y-52704999D01*
X127454914Y-52704999D02*
X127645390Y-52562142D01*
X128307180Y-52705000D02*
X128069085Y-52705000D01*
X128164323Y-52466905D02*
X128069085Y-52705000D01*
X128069085Y-52705000D02*
X128164323Y-52943095D01*
X127878609Y-52562143D02*
X128069085Y-52705000D01*
X128069085Y-52705000D02*
X127878609Y-52847857D01*
X149525420Y-43279886D02*
X149049229Y-43613219D01*
X149525420Y-43851314D02*
X148525420Y-43851314D01*
X148525420Y-43851314D02*
X148525420Y-43470362D01*
X148525420Y-43470362D02*
X148573039Y-43375124D01*
X148573039Y-43375124D02*
X148620658Y-43327505D01*
X148620658Y-43327505D02*
X148715896Y-43279886D01*
X148715896Y-43279886D02*
X148858753Y-43279886D01*
X148858753Y-43279886D02*
X148953991Y-43327505D01*
X148953991Y-43327505D02*
X149001610Y-43375124D01*
X149001610Y-43375124D02*
X149049229Y-43470362D01*
X149049229Y-43470362D02*
X149049229Y-43851314D01*
X148525420Y-42946552D02*
X148525420Y-42279886D01*
X148525420Y-42279886D02*
X149525420Y-42708457D01*
X127920761Y-56176057D02*
X127825523Y-56128438D01*
X127825523Y-56128438D02*
X127730285Y-56033200D01*
X127730285Y-56033200D02*
X127587428Y-55890342D01*
X127587428Y-55890342D02*
X127492190Y-55842723D01*
X127492190Y-55842723D02*
X127396952Y-55842723D01*
X127444571Y-56080819D02*
X127349333Y-56033200D01*
X127349333Y-56033200D02*
X127254095Y-55937961D01*
X127254095Y-55937961D02*
X127206476Y-55747485D01*
X127206476Y-55747485D02*
X127206476Y-55414152D01*
X127206476Y-55414152D02*
X127254095Y-55223676D01*
X127254095Y-55223676D02*
X127349333Y-55128438D01*
X127349333Y-55128438D02*
X127444571Y-55080819D01*
X127444571Y-55080819D02*
X127635047Y-55080819D01*
X127635047Y-55080819D02*
X127730285Y-55128438D01*
X127730285Y-55128438D02*
X127825523Y-55223676D01*
X127825523Y-55223676D02*
X127873142Y-55414152D01*
X127873142Y-55414152D02*
X127873142Y-55747485D01*
X127873142Y-55747485D02*
X127825523Y-55937961D01*
X127825523Y-55937961D02*
X127730285Y-56033200D01*
X127730285Y-56033200D02*
X127635047Y-56080819D01*
X127635047Y-56080819D02*
X127444571Y-56080819D01*
X128777904Y-55080819D02*
X128301714Y-55080819D01*
X128301714Y-55080819D02*
X128254095Y-55557009D01*
X128254095Y-55557009D02*
X128301714Y-55509390D01*
X128301714Y-55509390D02*
X128396952Y-55461771D01*
X128396952Y-55461771D02*
X128635047Y-55461771D01*
X128635047Y-55461771D02*
X128730285Y-55509390D01*
X128730285Y-55509390D02*
X128777904Y-55557009D01*
X128777904Y-55557009D02*
X128825523Y-55652247D01*
X128825523Y-55652247D02*
X128825523Y-55890342D01*
X128825523Y-55890342D02*
X128777904Y-55985580D01*
X128777904Y-55985580D02*
X128730285Y-56033200D01*
X128730285Y-56033200D02*
X128635047Y-56080819D01*
X128635047Y-56080819D02*
X128396952Y-56080819D01*
X128396952Y-56080819D02*
X128301714Y-56033200D01*
X128301714Y-56033200D02*
X128254095Y-55985580D01*
X127216819Y-59816999D02*
X127454914Y-59816999D01*
X127359676Y-60055094D02*
X127454914Y-59816999D01*
X127454914Y-59816999D02*
X127359676Y-59578904D01*
X127645390Y-59959856D02*
X127454914Y-59816999D01*
X127454914Y-59816999D02*
X127645390Y-59674142D01*
X128307180Y-59817000D02*
X128069085Y-59817000D01*
X128164323Y-59578905D02*
X128069085Y-59817000D01*
X128069085Y-59817000D02*
X128164323Y-60055095D01*
X127878609Y-59674143D02*
X128069085Y-59817000D01*
X128069085Y-59817000D02*
X127878609Y-59959857D01*
X150295610Y-109519257D02*
X150295610Y-109995448D01*
X149962277Y-108995448D02*
X150295610Y-109519257D01*
X150295610Y-109519257D02*
X150628943Y-108995448D01*
X150914658Y-109090686D02*
X150962277Y-109043067D01*
X150962277Y-109043067D02*
X151057515Y-108995448D01*
X151057515Y-108995448D02*
X151295610Y-108995448D01*
X151295610Y-108995448D02*
X151390848Y-109043067D01*
X151390848Y-109043067D02*
X151438467Y-109090686D01*
X151438467Y-109090686D02*
X151486086Y-109185924D01*
X151486086Y-109185924D02*
X151486086Y-109281162D01*
X151486086Y-109281162D02*
X151438467Y-109424019D01*
X151438467Y-109424019D02*
X150867039Y-109995448D01*
X150867039Y-109995448D02*
X151486086Y-109995448D01*
X139805580Y-115083457D02*
X139853200Y-115131076D01*
X139853200Y-115131076D02*
X139900819Y-115273933D01*
X139900819Y-115273933D02*
X139900819Y-115369171D01*
X139900819Y-115369171D02*
X139853200Y-115512028D01*
X139853200Y-115512028D02*
X139757961Y-115607266D01*
X139757961Y-115607266D02*
X139662723Y-115654885D01*
X139662723Y-115654885D02*
X139472247Y-115702504D01*
X139472247Y-115702504D02*
X139329390Y-115702504D01*
X139329390Y-115702504D02*
X139138914Y-115654885D01*
X139138914Y-115654885D02*
X139043676Y-115607266D01*
X139043676Y-115607266D02*
X138948438Y-115512028D01*
X138948438Y-115512028D02*
X138900819Y-115369171D01*
X138900819Y-115369171D02*
X138900819Y-115273933D01*
X138900819Y-115273933D02*
X138948438Y-115131076D01*
X138948438Y-115131076D02*
X138996057Y-115083457D01*
X138900819Y-114750123D02*
X138900819Y-114131076D01*
X138900819Y-114131076D02*
X139281771Y-114464409D01*
X139281771Y-114464409D02*
X139281771Y-114321552D01*
X139281771Y-114321552D02*
X139329390Y-114226314D01*
X139329390Y-114226314D02*
X139377009Y-114178695D01*
X139377009Y-114178695D02*
X139472247Y-114131076D01*
X139472247Y-114131076D02*
X139710342Y-114131076D01*
X139710342Y-114131076D02*
X139805580Y-114178695D01*
X139805580Y-114178695D02*
X139853200Y-114226314D01*
X139853200Y-114226314D02*
X139900819Y-114321552D01*
X139900819Y-114321552D02*
X139900819Y-114607266D01*
X139900819Y-114607266D02*
X139853200Y-114702504D01*
X139853200Y-114702504D02*
X139805580Y-114750123D01*
X138900819Y-113512028D02*
X138900819Y-113416790D01*
X138900819Y-113416790D02*
X138948438Y-113321552D01*
X138948438Y-113321552D02*
X138996057Y-113273933D01*
X138996057Y-113273933D02*
X139091295Y-113226314D01*
X139091295Y-113226314D02*
X139281771Y-113178695D01*
X139281771Y-113178695D02*
X139519866Y-113178695D01*
X139519866Y-113178695D02*
X139710342Y-113226314D01*
X139710342Y-113226314D02*
X139805580Y-113273933D01*
X139805580Y-113273933D02*
X139853200Y-113321552D01*
X139853200Y-113321552D02*
X139900819Y-113416790D01*
X139900819Y-113416790D02*
X139900819Y-113512028D01*
X139900819Y-113512028D02*
X139853200Y-113607266D01*
X139853200Y-113607266D02*
X139805580Y-113654885D01*
X139805580Y-113654885D02*
X139710342Y-113702504D01*
X139710342Y-113702504D02*
X139519866Y-113750123D01*
X139519866Y-113750123D02*
X139281771Y-113750123D01*
X139281771Y-113750123D02*
X139091295Y-113702504D01*
X139091295Y-113702504D02*
X138996057Y-113654885D01*
X138996057Y-113654885D02*
X138948438Y-113607266D01*
X138948438Y-113607266D02*
X138900819Y-113512028D01*
X150332743Y-40968219D02*
X149999410Y-40492028D01*
X149761315Y-40968219D02*
X149761315Y-39968219D01*
X149761315Y-39968219D02*
X150142267Y-39968219D01*
X150142267Y-39968219D02*
X150237505Y-40015838D01*
X150237505Y-40015838D02*
X150285124Y-40063457D01*
X150285124Y-40063457D02*
X150332743Y-40158695D01*
X150332743Y-40158695D02*
X150332743Y-40301552D01*
X150332743Y-40301552D02*
X150285124Y-40396790D01*
X150285124Y-40396790D02*
X150237505Y-40444409D01*
X150237505Y-40444409D02*
X150142267Y-40492028D01*
X150142267Y-40492028D02*
X149761315Y-40492028D01*
X150713696Y-40063457D02*
X150761315Y-40015838D01*
X150761315Y-40015838D02*
X150856553Y-39968219D01*
X150856553Y-39968219D02*
X151094648Y-39968219D01*
X151094648Y-39968219D02*
X151189886Y-40015838D01*
X151189886Y-40015838D02*
X151237505Y-40063457D01*
X151237505Y-40063457D02*
X151285124Y-40158695D01*
X151285124Y-40158695D02*
X151285124Y-40253933D01*
X151285124Y-40253933D02*
X151237505Y-40396790D01*
X151237505Y-40396790D02*
X150666077Y-40968219D01*
X150666077Y-40968219D02*
X151285124Y-40968219D01*
X152189886Y-39968219D02*
X151713696Y-39968219D01*
X151713696Y-39968219D02*
X151666077Y-40444409D01*
X151666077Y-40444409D02*
X151713696Y-40396790D01*
X151713696Y-40396790D02*
X151808934Y-40349171D01*
X151808934Y-40349171D02*
X152047029Y-40349171D01*
X152047029Y-40349171D02*
X152142267Y-40396790D01*
X152142267Y-40396790D02*
X152189886Y-40444409D01*
X152189886Y-40444409D02*
X152237505Y-40539647D01*
X152237505Y-40539647D02*
X152237505Y-40777742D01*
X152237505Y-40777742D02*
X152189886Y-40872980D01*
X152189886Y-40872980D02*
X152142267Y-40920600D01*
X152142267Y-40920600D02*
X152047029Y-40968219D01*
X152047029Y-40968219D02*
X151808934Y-40968219D01*
X151808934Y-40968219D02*
X151713696Y-40920600D01*
X151713696Y-40920600D02*
X151666077Y-40872980D01*
X132123543Y-104559609D02*
X132075924Y-104607229D01*
X132075924Y-104607229D02*
X131933067Y-104654848D01*
X131933067Y-104654848D02*
X131837829Y-104654848D01*
X131837829Y-104654848D02*
X131694972Y-104607229D01*
X131694972Y-104607229D02*
X131599734Y-104511990D01*
X131599734Y-104511990D02*
X131552115Y-104416752D01*
X131552115Y-104416752D02*
X131504496Y-104226276D01*
X131504496Y-104226276D02*
X131504496Y-104083419D01*
X131504496Y-104083419D02*
X131552115Y-103892943D01*
X131552115Y-103892943D02*
X131599734Y-103797705D01*
X131599734Y-103797705D02*
X131694972Y-103702467D01*
X131694972Y-103702467D02*
X131837829Y-103654848D01*
X131837829Y-103654848D02*
X131933067Y-103654848D01*
X131933067Y-103654848D02*
X132075924Y-103702467D01*
X132075924Y-103702467D02*
X132123543Y-103750086D01*
X132456877Y-103654848D02*
X133075924Y-103654848D01*
X133075924Y-103654848D02*
X132742591Y-104035800D01*
X132742591Y-104035800D02*
X132885448Y-104035800D01*
X132885448Y-104035800D02*
X132980686Y-104083419D01*
X132980686Y-104083419D02*
X133028305Y-104131038D01*
X133028305Y-104131038D02*
X133075924Y-104226276D01*
X133075924Y-104226276D02*
X133075924Y-104464371D01*
X133075924Y-104464371D02*
X133028305Y-104559609D01*
X133028305Y-104559609D02*
X132980686Y-104607229D01*
X132980686Y-104607229D02*
X132885448Y-104654848D01*
X132885448Y-104654848D02*
X132599734Y-104654848D01*
X132599734Y-104654848D02*
X132504496Y-104607229D01*
X132504496Y-104607229D02*
X132456877Y-104559609D01*
X134028305Y-104654848D02*
X133456877Y-104654848D01*
X133742591Y-104654848D02*
X133742591Y-103654848D01*
X133742591Y-103654848D02*
X133647353Y-103797705D01*
X133647353Y-103797705D02*
X133552115Y-103892943D01*
X133552115Y-103892943D02*
X133456877Y-103940562D01*
X125795820Y-94501695D02*
X125319629Y-94835028D01*
X125795820Y-95073123D02*
X124795820Y-95073123D01*
X124795820Y-95073123D02*
X124795820Y-94692171D01*
X124795820Y-94692171D02*
X124843439Y-94596933D01*
X124843439Y-94596933D02*
X124891058Y-94549314D01*
X124891058Y-94549314D02*
X124986296Y-94501695D01*
X124986296Y-94501695D02*
X125129153Y-94501695D01*
X125129153Y-94501695D02*
X125224391Y-94549314D01*
X125224391Y-94549314D02*
X125272010Y-94596933D01*
X125272010Y-94596933D02*
X125319629Y-94692171D01*
X125319629Y-94692171D02*
X125319629Y-95073123D01*
X124891058Y-94120742D02*
X124843439Y-94073123D01*
X124843439Y-94073123D02*
X124795820Y-93977885D01*
X124795820Y-93977885D02*
X124795820Y-93739790D01*
X124795820Y-93739790D02*
X124843439Y-93644552D01*
X124843439Y-93644552D02*
X124891058Y-93596933D01*
X124891058Y-93596933D02*
X124986296Y-93549314D01*
X124986296Y-93549314D02*
X125081534Y-93549314D01*
X125081534Y-93549314D02*
X125224391Y-93596933D01*
X125224391Y-93596933D02*
X125795820Y-94168361D01*
X125795820Y-94168361D02*
X125795820Y-93549314D01*
X126992542Y-117732980D02*
X126944923Y-117780600D01*
X126944923Y-117780600D02*
X126802066Y-117828219D01*
X126802066Y-117828219D02*
X126706828Y-117828219D01*
X126706828Y-117828219D02*
X126563971Y-117780600D01*
X126563971Y-117780600D02*
X126468733Y-117685361D01*
X126468733Y-117685361D02*
X126421114Y-117590123D01*
X126421114Y-117590123D02*
X126373495Y-117399647D01*
X126373495Y-117399647D02*
X126373495Y-117256790D01*
X126373495Y-117256790D02*
X126421114Y-117066314D01*
X126421114Y-117066314D02*
X126468733Y-116971076D01*
X126468733Y-116971076D02*
X126563971Y-116875838D01*
X126563971Y-116875838D02*
X126706828Y-116828219D01*
X126706828Y-116828219D02*
X126802066Y-116828219D01*
X126802066Y-116828219D02*
X126944923Y-116875838D01*
X126944923Y-116875838D02*
X126992542Y-116923457D01*
X127944923Y-117828219D02*
X127373495Y-117828219D01*
X127659209Y-117828219D02*
X127659209Y-116828219D01*
X127659209Y-116828219D02*
X127563971Y-116971076D01*
X127563971Y-116971076D02*
X127468733Y-117066314D01*
X127468733Y-117066314D02*
X127373495Y-117113933D01*
X128849685Y-116828219D02*
X128373495Y-116828219D01*
X128373495Y-116828219D02*
X128325876Y-117304409D01*
X128325876Y-117304409D02*
X128373495Y-117256790D01*
X128373495Y-117256790D02*
X128468733Y-117209171D01*
X128468733Y-117209171D02*
X128706828Y-117209171D01*
X128706828Y-117209171D02*
X128802066Y-117256790D01*
X128802066Y-117256790D02*
X128849685Y-117304409D01*
X128849685Y-117304409D02*
X128897304Y-117399647D01*
X128897304Y-117399647D02*
X128897304Y-117637742D01*
X128897304Y-117637742D02*
X128849685Y-117732980D01*
X128849685Y-117732980D02*
X128802066Y-117780600D01*
X128802066Y-117780600D02*
X128706828Y-117828219D01*
X128706828Y-117828219D02*
X128468733Y-117828219D01*
X128468733Y-117828219D02*
X128373495Y-117780600D01*
X128373495Y-117780600D02*
X128325876Y-117732980D01*
X115474809Y-115294628D02*
X115474809Y-115770819D01*
X115141476Y-114770819D02*
X115474809Y-115294628D01*
X115474809Y-115294628D02*
X115808142Y-114770819D01*
X116665285Y-115770819D02*
X116093857Y-115770819D01*
X116379571Y-115770819D02*
X116379571Y-114770819D01*
X116379571Y-114770819D02*
X116284333Y-114913676D01*
X116284333Y-114913676D02*
X116189095Y-115008914D01*
X116189095Y-115008914D02*
X116093857Y-115056533D01*
D12*
%TO.C,C52*%
X146052401Y-49831164D02*
X146052401Y-50046836D01*
X145332401Y-49831164D02*
X145332401Y-50046836D01*
%TO.C,R28*%
X143537000Y-68640881D02*
X143537000Y-68118377D01*
X145007000Y-68640881D02*
X145007000Y-68118377D01*
%TO.C,R27*%
X146408001Y-37775000D02*
X146408001Y-39695000D01*
X146408001Y-39695000D02*
X149093001Y-39695000D01*
X149093001Y-37775000D02*
X146408001Y-37775000D01*
%TO.C,R26*%
X150849000Y-32687748D02*
X150849000Y-33210252D01*
X149379000Y-32687748D02*
X149379000Y-33210252D01*
%TO.C,D2*%
X151300000Y-101354000D02*
X152800000Y-101354000D01*
X151300000Y-101354000D02*
X151200000Y-101354000D01*
X151200000Y-101354000D02*
X151100000Y-101354000D01*
X151100000Y-101354000D02*
X151100000Y-101554000D01*
X151100000Y-101554000D02*
X151100000Y-102354000D01*
X151100000Y-102354000D02*
X152800000Y-102354000D01*
%TO.C,C67*%
X152777401Y-27761181D02*
X152777401Y-27238677D01*
X151307401Y-27761181D02*
X151307401Y-27238677D01*
%TO.C,C62*%
X126363000Y-123616980D02*
X126363000Y-123335820D01*
X127383000Y-123616980D02*
X127383000Y-123335820D01*
%TO.C,C48*%
X134231999Y-90716933D02*
X134231999Y-92139437D01*
X132411999Y-90716933D02*
X132411999Y-92139437D01*
%TO.C,C47*%
X123319000Y-91271420D02*
X123319000Y-91552580D01*
X122299000Y-91271420D02*
X122299000Y-91552580D01*
%TO.C,C46*%
X121668000Y-91271420D02*
X121668000Y-91552580D01*
X120648000Y-91271420D02*
X120648000Y-91552580D01*
%TO.C,C45*%
X153008000Y-30787748D02*
X153008000Y-31310252D01*
X151538000Y-30787748D02*
X151538000Y-31310252D01*
%TO.C,C44*%
X138688237Y-39510629D02*
X138472565Y-39510629D01*
X138688237Y-38790629D02*
X138472565Y-38790629D01*
%TO.C,C42*%
X147728000Y-28455252D02*
X147728000Y-27932748D01*
X149198000Y-28455252D02*
X149198000Y-27932748D01*
%TO.C,C40*%
X141551252Y-34390000D02*
X141028748Y-34390000D01*
X141551252Y-32920000D02*
X141028748Y-32920000D01*
%TO.C,C17*%
X142431734Y-42695793D02*
X142431734Y-42911465D01*
X141711734Y-42695793D02*
X141711734Y-42911465D01*
%TO.C,C9*%
X132976001Y-99438865D02*
X132976001Y-99223193D01*
X133696001Y-99438865D02*
X133696001Y-99223193D01*
%TO.C,C64*%
X118030164Y-45472829D02*
X118245836Y-45472829D01*
X118030164Y-46192829D02*
X118245836Y-46192829D01*
%TO.C,C26*%
X135259237Y-101554029D02*
X135043565Y-101554029D01*
X135259237Y-102274029D02*
X135043565Y-102274029D01*
D11*
%TO.C,R4*%
X118056201Y-98313829D02*
G75*
G02*
X117956201Y-98313829I-50000J0D01*
G01*
X117956201Y-98313829D02*
G75*
G02*
X118056201Y-98313829I50000J0D01*
G01*
%TO.C,U5*%
X117554600Y-116384400D02*
X117854600Y-116384400D01*
X117554600Y-116759400D02*
X117554600Y-116384400D01*
X117554600Y-122434400D02*
X117554600Y-122934400D01*
X117554600Y-122934400D02*
X117954600Y-122934400D01*
X120304600Y-122934400D02*
X120779600Y-122934400D01*
X120629600Y-116384400D02*
X121104600Y-116384400D01*
X120779600Y-122934400D02*
X121104600Y-122634400D01*
X121104600Y-116384400D02*
X121104600Y-116834400D01*
X121104600Y-122634400D02*
X121299600Y-122634400D01*
D12*
%TO.C,R9*%
X139741401Y-42676049D02*
X139741401Y-42957209D01*
X140761401Y-42676049D02*
X140761401Y-42957209D01*
%TO.C,R15*%
X149707237Y-101808029D02*
X149491565Y-101808029D01*
X149707237Y-102528029D02*
X149491565Y-102528029D01*
%TO.C,R36*%
X128268000Y-123596980D02*
X128268000Y-123315820D01*
X129288000Y-123596980D02*
X129288000Y-123315820D01*
%TO.C,D4*%
X136458401Y-28116929D02*
X136458401Y-33176929D01*
X139178401Y-28116929D02*
X136458401Y-28116929D01*
X139178401Y-28116929D02*
X139178401Y-33176929D01*
%TO.C,U7*%
X144963901Y-94827029D02*
X144163901Y-94827029D01*
X144963901Y-94827029D02*
X145763901Y-94827029D01*
X144963901Y-97947029D02*
X144163901Y-97947029D01*
X144963901Y-97947029D02*
X145763901Y-97947029D01*
X143663901Y-94877029D02*
X143423901Y-94547029D01*
X143903901Y-94547029D01*
X143663901Y-94877029D01*
G36*
X143663901Y-94877029D02*
G01*
X143423901Y-94547029D01*
X143903901Y-94547029D01*
X143663901Y-94877029D01*
G37*
%TO.C,R6*%
X138733981Y-36718629D02*
X138452821Y-36718629D01*
X138733981Y-37738629D02*
X138452821Y-37738629D01*
%TO.C,C65*%
X152225836Y-42566000D02*
X152010164Y-42566000D01*
X152225836Y-43286000D02*
X152010164Y-43286000D01*
%TO.C,C34*%
X142190837Y-114194000D02*
X141975165Y-114194000D01*
X142190837Y-114914000D02*
X141975165Y-114914000D01*
%TO.C,C20*%
X124176600Y-120031564D02*
X124176600Y-120247236D01*
X124896600Y-120031564D02*
X124896600Y-120247236D01*
%TO.C,C11*%
X135262001Y-99438865D02*
X135262001Y-99223193D01*
X135982001Y-99438865D02*
X135982001Y-99223193D01*
D13*
%TO.C,Q3*%
X130515901Y-48859329D02*
X130515901Y-49177190D01*
X130515901Y-52199068D02*
X130515901Y-52516929D01*
X130515901Y-52516929D02*
X133360701Y-52516929D01*
X133360701Y-48859329D02*
X130515901Y-48859329D01*
X133360701Y-49110789D02*
X133360701Y-48859329D01*
X133360701Y-52516929D02*
X133360701Y-52265469D01*
D12*
%TO.C,Q14*%
X133525500Y-85517814D02*
X132875500Y-85517814D01*
X133525500Y-85517814D02*
X134175500Y-85517814D01*
X133525500Y-88637814D02*
X132875500Y-88637814D01*
X133525500Y-88637814D02*
X134175500Y-88637814D01*
X134928000Y-88917814D02*
X134448000Y-88917814D01*
X134688000Y-88587814D01*
X134928000Y-88917814D01*
G36*
X134928000Y-88917814D02*
G01*
X134448000Y-88917814D01*
X134688000Y-88587814D01*
X134928000Y-88917814D01*
G37*
%TO.C,FB1*%
X134446401Y-114055600D02*
X134446401Y-111535600D01*
X136166401Y-114055600D02*
X136166401Y-111535600D01*
%TO.C,C24*%
X137867401Y-111947764D02*
X137867401Y-112163436D01*
X138587401Y-111947764D02*
X138587401Y-112163436D01*
%TO.C,C27*%
X135259237Y-102697029D02*
X135043565Y-102697029D01*
X135259237Y-103417029D02*
X135043565Y-103417029D01*
%TO.C,R20*%
X139899401Y-96969865D02*
X139899401Y-96754193D01*
X140619401Y-96969865D02*
X140619401Y-96754193D01*
%TO.C,C25*%
X135259237Y-100538029D02*
X135043565Y-100538029D01*
X135259237Y-101258029D02*
X135043565Y-101258029D01*
%TO.C,C16*%
X123113401Y-64777881D02*
X123113401Y-64255377D01*
X124583401Y-64777881D02*
X124583401Y-64255377D01*
%TO.C,C32*%
X135259237Y-104995029D02*
X135043565Y-104995029D01*
X135259237Y-105715029D02*
X135043565Y-105715029D01*
%TO.C,R11*%
X119780001Y-45274993D02*
X119780001Y-45490665D01*
X120500001Y-45274993D02*
X120500001Y-45490665D01*
%TO.C,R30*%
X147954420Y-37467000D02*
X148235580Y-37467000D01*
X147954420Y-36447000D02*
X148235580Y-36447000D01*
%TO.C,T1*%
X137391401Y-54797629D02*
X137391401Y-60397629D01*
X139466401Y-53167629D02*
X142266401Y-53167629D01*
X139466401Y-62027629D02*
X142266401Y-62027629D01*
X144341401Y-54797629D02*
X144341401Y-60397629D01*
X144896401Y-53987629D02*
X144566401Y-53747629D01*
X144896401Y-53507629D01*
X144896401Y-53987629D01*
G36*
X144896401Y-53987629D02*
G01*
X144566401Y-53747629D01*
X144896401Y-53507629D01*
X144896401Y-53987629D01*
G37*
%TO.C,U3*%
X140915401Y-35765629D02*
X140915401Y-35530629D01*
X140915401Y-40510629D02*
X140915401Y-40035629D01*
X141390401Y-35290629D02*
X141215401Y-35290629D01*
X141390401Y-40510629D02*
X140915401Y-40510629D01*
X144660401Y-35290629D02*
X145135401Y-35290629D01*
X144660401Y-40510629D02*
X145135401Y-40510629D01*
X145135401Y-35290629D02*
X145135401Y-35765629D01*
X145135401Y-40510629D02*
X145135401Y-40035629D01*
X140915401Y-35290629D02*
X140675401Y-34960629D01*
X141155401Y-34960629D01*
X140915401Y-35290629D01*
G36*
X140915401Y-35290629D02*
G01*
X140675401Y-34960629D01*
X141155401Y-34960629D01*
X140915401Y-35290629D01*
G37*
%TO.C,R16*%
X148789401Y-103556193D02*
X148789401Y-103771865D01*
X149509401Y-103556193D02*
X149509401Y-103771865D01*
%TO.C,C4*%
X127981001Y-99223193D02*
X127981001Y-99438865D01*
X127261001Y-99223193D02*
X127261001Y-99438865D01*
%TO.C,R19*%
X147392401Y-96969865D02*
X147392401Y-96754193D01*
X148112401Y-96969865D02*
X148112401Y-96754193D01*
%TO.C,Q13*%
X138887501Y-85501629D02*
X138237501Y-85501629D01*
X138887501Y-85501629D02*
X139537501Y-85501629D01*
X138887501Y-88621629D02*
X138237501Y-88621629D01*
X138887501Y-88621629D02*
X139537501Y-88621629D01*
X140290001Y-88901629D02*
X139810001Y-88901629D01*
X140050001Y-88571629D01*
X140290001Y-88901629D01*
G36*
X140290001Y-88901629D02*
G01*
X139810001Y-88901629D01*
X140050001Y-88571629D01*
X140290001Y-88901629D01*
G37*
%TO.C,C19*%
X147087401Y-42663049D02*
X147087401Y-42944209D01*
X148107401Y-42663049D02*
X148107401Y-42944209D01*
%TO.C,C21*%
X147265401Y-107949265D02*
X147265401Y-107733593D01*
X147985401Y-107949265D02*
X147985401Y-107733593D01*
%TO.C,C2*%
X126820165Y-96332029D02*
X127035837Y-96332029D01*
X126820165Y-97052029D02*
X127035837Y-97052029D01*
%TO.C,R12*%
X121566801Y-45274993D02*
X121566801Y-45490665D01*
X120846801Y-45274993D02*
X120846801Y-45490665D01*
D11*
%TO.C,J10*%
X114664001Y-94992029D02*
X114664001Y-95492029D01*
X114664001Y-94992029D02*
X115164001Y-94992029D01*
X114664001Y-100292029D02*
X114664001Y-99792029D01*
X114664001Y-100292029D02*
X115164001Y-100292029D01*
X117464001Y-94992029D02*
X116964001Y-94992029D01*
X117464001Y-94992029D02*
X117464001Y-95492029D01*
X117464001Y-100292029D02*
X116964001Y-100292029D01*
X117464001Y-100292029D02*
X117464001Y-99792029D01*
%TO.C,TR1*%
X140974801Y-81678629D02*
X121474801Y-81678629D01*
X121474801Y-69678629D01*
X140974801Y-69678629D01*
X140974801Y-81678629D01*
D14*
X142149801Y-80678629D02*
G75*
G02*
X141799801Y-80678629I-175000J0D01*
G01*
X141799801Y-80678629D02*
G75*
G02*
X142149801Y-80678629I175000J0D01*
G01*
D12*
%TO.C,R34*%
X138733981Y-35067629D02*
X138452821Y-35067629D01*
X138733981Y-36087629D02*
X138452821Y-36087629D01*
%TO.C,C1*%
X126838001Y-99223193D02*
X126838001Y-99438865D01*
X126118001Y-99223193D02*
X126118001Y-99438865D01*
D15*
%TO.C,J2*%
X114398401Y-26912629D02*
X114398401Y-43112629D01*
X126788401Y-26912629D02*
X114398401Y-26912629D01*
X126788401Y-43112629D02*
X114398401Y-43112629D01*
X129988401Y-26912629D02*
X135848401Y-26912629D01*
X129988401Y-43112629D02*
X135848401Y-43112629D01*
X135848401Y-43112629D02*
X135848401Y-26912629D01*
D16*
X135388401Y-27812629D02*
G75*
G02*
X134988401Y-27812629I-200000J0D01*
G01*
X134988401Y-27812629D02*
G75*
G02*
X135388401Y-27812629I200000J0D01*
G01*
D12*
%TO.C,C37*%
X135259237Y-106126029D02*
X135043565Y-106126029D01*
X135259237Y-106846029D02*
X135043565Y-106846029D01*
%TO.C,C54*%
X139109401Y-63557793D02*
X139109401Y-63773465D01*
X139829401Y-63557793D02*
X139829401Y-63773465D01*
%TO.C,C7*%
X130690001Y-99438865D02*
X130690001Y-99223193D01*
X131410001Y-99438865D02*
X131410001Y-99223193D01*
%TO.C,R24*%
X146186821Y-52927629D02*
X146467981Y-52927629D01*
X146186821Y-53947629D02*
X146467981Y-53947629D01*
%TO.C,C18*%
X145202401Y-42663049D02*
X145202401Y-42944209D01*
X146222401Y-42663049D02*
X146222401Y-42944209D01*
%TO.C,C36*%
X140153401Y-111947764D02*
X140153401Y-112163436D01*
X140873401Y-111947764D02*
X140873401Y-112163436D01*
%TO.C,C51*%
X130831000Y-91078164D02*
X130831000Y-91293836D01*
X131551000Y-91078164D02*
X131551000Y-91293836D01*
%TO.C,R18*%
X150821237Y-103996029D02*
X150605565Y-103996029D01*
X150821237Y-104716029D02*
X150605565Y-104716029D01*
%TO.C,R14*%
X147265401Y-109708193D02*
X147265401Y-109923865D01*
X147985401Y-109708193D02*
X147985401Y-109923865D01*
%TO.C,C23*%
X136724401Y-111947764D02*
X136724401Y-112163436D01*
X137444401Y-111947764D02*
X137444401Y-112163436D01*
%TO.C,R23*%
X147826000Y-31482420D02*
X147826000Y-31763580D01*
X148846000Y-31482420D02*
X148846000Y-31763580D01*
%TO.C,U6*%
X138153401Y-99995029D02*
X138628401Y-99995029D01*
X138153401Y-100470029D02*
X138153401Y-99995029D01*
X138153401Y-107740029D02*
X138153401Y-107915029D01*
X138628401Y-108215029D02*
X138393401Y-108215029D01*
X146373401Y-99995029D02*
X145898401Y-99995029D01*
X146373401Y-100470029D02*
X146373401Y-99995029D01*
X146373401Y-107740029D02*
X146373401Y-108215029D01*
X146373401Y-108215029D02*
X145898401Y-108215029D01*
X138153401Y-108215029D02*
X137823401Y-108455029D01*
X137823401Y-107975029D01*
X138153401Y-108215029D01*
G36*
X138153401Y-108215029D02*
G01*
X137823401Y-108455029D01*
X137823401Y-107975029D01*
X138153401Y-108215029D01*
G37*
%TO.C,R1*%
X123761001Y-96104193D02*
X123761001Y-96319865D01*
X124481001Y-96104193D02*
X124481001Y-96319865D01*
%TO.C,D1*%
X126770401Y-68886629D02*
X126770401Y-63376629D01*
X126770401Y-68886629D02*
X130070401Y-68886629D01*
X130070401Y-68886629D02*
X130070401Y-63376629D01*
%TO.C,C6*%
X129547001Y-99438865D02*
X129547001Y-99223193D01*
X130267001Y-99438865D02*
X130267001Y-99223193D01*
%TO.C,C5*%
X128404001Y-99438865D02*
X128404001Y-99223193D01*
X129124001Y-99438865D02*
X129124001Y-99223193D01*
%TO.C,C8*%
X131833001Y-99438865D02*
X131833001Y-99223193D01*
X132553001Y-99438865D02*
X132553001Y-99223193D01*
%TO.C,C10*%
X134119001Y-99438865D02*
X134119001Y-99223193D01*
X134839001Y-99438865D02*
X134839001Y-99223193D01*
%TO.C,R21*%
X141265401Y-31014580D02*
X141265401Y-30733420D01*
X142285401Y-31014580D02*
X142285401Y-30733420D01*
%TO.C,C66*%
X152225836Y-43582000D02*
X152010164Y-43582000D01*
X152225836Y-44302000D02*
X152010164Y-44302000D01*
%TO.C,R10*%
X145182401Y-46181209D02*
X145182401Y-45900049D01*
X146202401Y-46181209D02*
X146202401Y-45900049D01*
%TO.C,C3*%
X126820165Y-97475029D02*
X127035837Y-97475029D01*
X126820165Y-98195029D02*
X127035837Y-98195029D01*
%TO.C,R31*%
X137966401Y-63557793D02*
X137966401Y-63773465D01*
X138686401Y-63557793D02*
X138686401Y-63773465D01*
%TO.C,C50*%
X141753401Y-68239049D02*
X141753401Y-68520209D01*
X142773401Y-68239049D02*
X142773401Y-68520209D01*
%TO.C,C49*%
X133703653Y-66847629D02*
X132281149Y-66847629D01*
X133703653Y-68667629D02*
X132281149Y-68667629D01*
%TO.C,R3*%
X118993365Y-99096829D02*
X119209037Y-99096829D01*
X118993365Y-99816829D02*
X119209037Y-99816829D01*
%TO.C,U1*%
X119921001Y-101869029D02*
X119921001Y-101459029D01*
X119921001Y-108439029D02*
X119921001Y-107789029D01*
X120571001Y-101219029D02*
X120221001Y-101219029D01*
X120571001Y-108439029D02*
X119921001Y-108439029D01*
X126491001Y-101219029D02*
X127141001Y-101219029D01*
X126491001Y-108439029D02*
X127141001Y-108439029D01*
X127141001Y-101219029D02*
X127141001Y-101869029D01*
X127141001Y-108439029D02*
X127141001Y-107789029D01*
X119921001Y-101219029D02*
X119681001Y-100889029D01*
X120161001Y-100889029D01*
X119921001Y-101219029D01*
G36*
X119921001Y-101219029D02*
G01*
X119681001Y-100889029D01*
X120161001Y-100889029D01*
X119921001Y-101219029D01*
G37*
D13*
%TO.C,Q1*%
X130515901Y-56022829D02*
X130515901Y-56340690D01*
X130515901Y-59362568D02*
X130515901Y-59680429D01*
X130515901Y-59680429D02*
X133360701Y-59680429D01*
X133360701Y-56022829D02*
X130515901Y-56022829D01*
X133360701Y-56274289D02*
X133360701Y-56022829D01*
X133360701Y-59680429D02*
X133360701Y-59428969D01*
D12*
%TO.C,C22*%
X151781237Y-102854029D02*
X151565565Y-102854029D01*
X151781237Y-103574029D02*
X151565565Y-103574029D01*
%TO.C,J1*%
X138511501Y-122619429D02*
X138511501Y-121069429D01*
X138211501Y-125419429D02*
X138211501Y-122619429D01*
X138211501Y-122619429D02*
X138511501Y-122619429D01*
X133461501Y-119369429D02*
X133061501Y-119819429D01*
X133061501Y-119819429D02*
X132661501Y-119369429D01*
X132661501Y-119369429D02*
X133461501Y-119369429D01*
X130511501Y-125419429D02*
X130511501Y-122619429D01*
X130211501Y-122619429D02*
X130511501Y-122619429D01*
X130211501Y-122619429D02*
X130211501Y-121069429D01*
%TO.C,R13*%
X140882965Y-113178000D02*
X141098637Y-113178000D01*
X140882965Y-113898000D02*
X141098637Y-113898000D01*
D13*
%TO.C,Q7*%
X124038901Y-48859329D02*
X124038901Y-49177190D01*
X124038901Y-52199068D02*
X124038901Y-52516929D01*
X124038901Y-52516929D02*
X126883701Y-52516929D01*
X126883701Y-48859329D02*
X124038901Y-48859329D01*
X126883701Y-49110789D02*
X126883701Y-48859329D01*
X126883701Y-52516929D02*
X126883701Y-52265469D01*
D12*
%TO.C,R7*%
X143382067Y-42676049D02*
X143382067Y-42957209D01*
X144402067Y-42676049D02*
X144402067Y-42957209D01*
D13*
%TO.C,Q5*%
X124038901Y-56022829D02*
X124038901Y-56340690D01*
X124038901Y-59362568D02*
X124038901Y-59680429D01*
X124038901Y-59680429D02*
X126883701Y-59680429D01*
X126883701Y-56022829D02*
X124038901Y-56022829D01*
X126883701Y-56274289D02*
X126883701Y-56022829D01*
X126883701Y-59680429D02*
X126883701Y-59428969D01*
D11*
%TO.C,Y2*%
X148871801Y-105709429D02*
X149171801Y-105709429D01*
X149171801Y-105609429D02*
X149971801Y-105609429D01*
X149171801Y-105709429D02*
X149171801Y-105609429D01*
X149171801Y-108109429D02*
X149171801Y-108209429D01*
X149171801Y-108209429D02*
X149971801Y-108209429D01*
X152371801Y-105609429D02*
X151571801Y-105609429D01*
X152371801Y-105709429D02*
X152371801Y-105609429D01*
X152371801Y-108109429D02*
X152371801Y-108209429D01*
X152371801Y-108209429D02*
X151571801Y-108209429D01*
D12*
%TO.C,C30*%
X139010401Y-111947764D02*
X139010401Y-112163436D01*
X139730401Y-111947764D02*
X139730401Y-112163436D01*
%TO.C,R25*%
X147952421Y-40003000D02*
X148233581Y-40003000D01*
X147952421Y-41023000D02*
X148233581Y-41023000D01*
%TO.C,C31*%
X135259237Y-103840029D02*
X135043565Y-103840029D01*
X135259237Y-104560029D02*
X135043565Y-104560029D01*
%TO.C,R2*%
X124981001Y-96104193D02*
X124981001Y-96319865D01*
X125701001Y-96104193D02*
X125701001Y-96319865D01*
%TO.C,C15*%
X125091764Y-116999400D02*
X125307436Y-116999400D01*
X125091764Y-117719400D02*
X125307436Y-117719400D01*
%TD*%
M02*
