%TF.GenerationSoftware,KiCad,Pcbnew,8.0.1*%
%TF.CreationDate,2024-10-08T23:28:17-07:00*%
%TF.ProjectId,POEPico,504f4550-6963-46f2-9e6b-696361645f70,rev?*%
%TF.SameCoordinates,Original*%
%TF.FileFunction,Copper,L3,Inr*%
%TF.FilePolarity,Positive*%
%FSLAX46Y46*%
G04 Gerber Fmt 4.6, Leading zero omitted, Abs format (unit mm)*
G04 Created by KiCad (PCBNEW 8.0.1) date 2024-10-08 23:28:17*
%MOMM*%
%LPD*%
G01*
G04 APERTURE LIST*
%TA.AperFunction,ComponentPad*%
%ADD10C,1.524000*%
%TD*%
%TA.AperFunction,ComponentPad*%
%ADD11C,1.408000*%
%TD*%
%TA.AperFunction,ComponentPad*%
%ADD12C,1.545000*%
%TD*%
%TA.AperFunction,ComponentPad*%
%ADD13C,2.400000*%
%TD*%
%TA.AperFunction,ComponentPad*%
%ADD14O,1.350000X1.700000*%
%TD*%
%TA.AperFunction,ComponentPad*%
%ADD15O,1.100000X1.500000*%
%TD*%
%TA.AperFunction,ComponentPad*%
%ADD16R,1.700000X1.700000*%
%TD*%
%TA.AperFunction,ComponentPad*%
%ADD17O,1.700000X1.700000*%
%TD*%
%TA.AperFunction,ViaPad*%
%ADD18C,0.600000*%
%TD*%
%TA.AperFunction,Conductor*%
%ADD19C,0.508000*%
%TD*%
%TA.AperFunction,Conductor*%
%ADD20C,0.200000*%
%TD*%
G04 APERTURE END LIST*
D10*
%TO.N,/Connectors/USB_BOOT*%
%TO.C,J10*%
X116064001Y-98892029D03*
%TO.N,GND*%
X116084001Y-96352029D03*
%TD*%
D11*
%TO.N,/Connectors/ETH_TXP*%
%TO.C,J2*%
X134278401Y-29297629D03*
%TO.N,/Connectors/ETH_TXN*%
X131738401Y-30567629D03*
%TO.N,/Connectors/CT*%
X134278401Y-31837629D03*
%TO.N,/Connectors/ETH_RXP*%
X131738401Y-33107629D03*
%TO.N,/Connectors/ETH_RXN*%
X134278401Y-34377629D03*
%TO.N,/Connectors/VC1P*%
X134278401Y-36917629D03*
%TO.N,/Connectors/VC1N*%
X131738401Y-38187629D03*
%TO.N,/Connectors/VC2P*%
X134278401Y-39457629D03*
%TO.N,/Connectors/VC2N*%
X131738401Y-40727629D03*
D12*
%TO.N,Net-(J2-Pad11)*%
X121308401Y-28387629D03*
%TO.N,/Connectors/LED1_Y*%
X121308401Y-30927629D03*
%TO.N,Net-(J2-Pad13)*%
X121308401Y-39097629D03*
%TO.N,/Connectors/LED2_G*%
X121308401Y-41637629D03*
D13*
%TO.N,CGND*%
X128438401Y-27267629D03*
X128438401Y-42757629D03*
%TD*%
D14*
%TO.N,CGND*%
%TO.C,J1*%
X137091501Y-123799429D03*
D15*
X136781501Y-120799429D03*
X131941501Y-120799429D03*
D14*
X131631501Y-123799429D03*
%TD*%
D16*
%TO.N,GND*%
%TO.C,J21*%
X116078000Y-91400429D03*
D17*
%TO.N,+3V3*%
X118618000Y-91400429D03*
%TO.N,GND*%
X116078000Y-88860429D03*
%TO.N,/Connectors/GPIO0*%
X118618000Y-88860429D03*
%TO.N,GND*%
X116078000Y-86320429D03*
%TO.N,/Connectors/GPIO1*%
X118618000Y-86320429D03*
%TO.N,GND*%
X116078000Y-83780429D03*
%TO.N,/Connectors/GPIO2*%
X118618000Y-83780429D03*
%TO.N,GND*%
X116078000Y-81240429D03*
%TO.N,/Connectors/GPIO3*%
X118618000Y-81240429D03*
%TO.N,GND*%
X116078000Y-78700429D03*
%TO.N,/Connectors/GPIO4*%
X118618000Y-78700429D03*
%TO.N,GND*%
X116078000Y-76160429D03*
%TO.N,/Connectors/GPIO5*%
X118618000Y-76160429D03*
%TO.N,GND*%
X116078000Y-73620429D03*
%TO.N,/Connectors/GPIO6*%
X118618000Y-73620429D03*
%TO.N,GND*%
X116078000Y-71080429D03*
%TO.N,/Connectors/GPIO7*%
X118618000Y-71080429D03*
%TO.N,GND*%
X116078000Y-68540429D03*
%TO.N,/Connectors/GPIO8*%
X118618000Y-68540429D03*
%TO.N,GND*%
X116078000Y-66000429D03*
%TO.N,/Connectors/GPIO9*%
X118618000Y-66000429D03*
%TO.N,GND*%
X116078000Y-63460429D03*
%TO.N,/Connectors/GPIO10*%
X118618000Y-63460429D03*
%TO.N,GND*%
X116078000Y-60920429D03*
%TO.N,/Connectors/GPIO11*%
X118618000Y-60920429D03*
%TO.N,GND*%
X116078000Y-58380429D03*
%TO.N,/Connectors/GPIO12*%
X118618000Y-58380429D03*
%TO.N,GND*%
X116078000Y-55840429D03*
%TO.N,/Connectors/GPIO13*%
X118618000Y-55840429D03*
%TO.N,GND*%
X116078000Y-53300429D03*
%TO.N,/Connectors/GPIO14*%
X118618000Y-53300429D03*
%TO.N,GND*%
X116078000Y-50760429D03*
%TO.N,/Connectors/GPIO15*%
X118618000Y-50760429D03*
%TO.N,GND*%
X116078000Y-48220429D03*
%TO.N,+5V0*%
X118618000Y-48220429D03*
%TD*%
D16*
%TO.N,/Connectors/SWCLK*%
%TO.C,J22*%
X150088600Y-90576400D03*
D17*
%TO.N,GND*%
X152628600Y-90576400D03*
%TO.N,/Connectors/SWD*%
X150088600Y-88036400D03*
%TO.N,GND*%
X152628600Y-88036400D03*
%TO.N,/Connectors/RUN*%
X150088600Y-85496400D03*
%TO.N,GND*%
X152628600Y-85496400D03*
%TO.N,/Connectors/GPIO16*%
X150088600Y-82956400D03*
%TO.N,GND*%
X152628600Y-82956400D03*
%TO.N,/Connectors/GPIO17*%
X150088600Y-80416400D03*
%TO.N,GND*%
X152628600Y-80416400D03*
%TO.N,/Connectors/GPIO18*%
X150088600Y-77876400D03*
%TO.N,GND*%
X152628600Y-77876400D03*
%TO.N,/Connectors/GPIO19*%
X150088600Y-75336400D03*
%TO.N,GND*%
X152628600Y-75336400D03*
%TO.N,/Connectors/GPIO20*%
X150088600Y-72796400D03*
%TO.N,GND*%
X152628600Y-72796400D03*
%TO.N,/Connectors/GPIO21*%
X150088600Y-70256400D03*
%TO.N,GND*%
X152628600Y-70256400D03*
%TO.N,/Connectors/GPIO22*%
X150088600Y-67716400D03*
%TO.N,GND*%
X152628600Y-67716400D03*
%TO.N,/Connectors/GPIO23*%
X150088600Y-65176400D03*
%TO.N,GND*%
X152628600Y-65176400D03*
%TO.N,/Connectors/GPIO24*%
X150088600Y-62636400D03*
%TO.N,GND*%
X152628600Y-62636400D03*
%TO.N,/Connectors/GPIO25*%
X150088600Y-60096400D03*
%TO.N,GND*%
X152628600Y-60096400D03*
%TO.N,/Connectors/GPIO26*%
X150088600Y-57556400D03*
%TO.N,GND*%
X152628600Y-57556400D03*
%TO.N,/Connectors/GPIO27*%
X150088600Y-55016400D03*
%TO.N,GND*%
X152628600Y-55016400D03*
%TO.N,/Connectors/GPIO28*%
X150088600Y-52476400D03*
%TO.N,GND*%
X152628600Y-52476400D03*
%TO.N,/Connectors/GPIO29*%
X150088600Y-49936400D03*
%TO.N,GND*%
X152628600Y-49936400D03*
%TO.N,+12V0*%
X150088600Y-47396400D03*
%TO.N,GND*%
X152628600Y-47396400D03*
%TD*%
D18*
%TO.N,+3V3*%
X122936000Y-124079000D03*
X122174000Y-124079000D03*
X121412000Y-124079000D03*
%TO.N,Net-(C52-Pad1)*%
X146304000Y-48133000D03*
%TO.N,VDD*%
X134770401Y-46802629D03*
X127457200Y-45151629D03*
X131722401Y-60645629D03*
X134770401Y-49850629D03*
X134770401Y-51501629D03*
X139852400Y-52425600D03*
X137310401Y-45965129D03*
X133246401Y-60645629D03*
X137310401Y-46802629D03*
X140665200Y-52425600D03*
X134770401Y-45965129D03*
X140665200Y-54965600D03*
X132484401Y-47691629D03*
X137310401Y-45151629D03*
X131670901Y-47691629D03*
X141775401Y-27649929D03*
X133321901Y-47691629D03*
X134770401Y-50688129D03*
X132484401Y-60645629D03*
X139851700Y-54965600D03*
X125806200Y-45151629D03*
X126619700Y-45151629D03*
X134770401Y-45151629D03*
X125356900Y-65471629D03*
%TO.N,VSS*%
X122832401Y-55311629D03*
X141755401Y-78171629D03*
X124356401Y-48199629D03*
X151534401Y-38674629D03*
X138834401Y-43591629D03*
X123607101Y-55311629D03*
X137818401Y-40452629D03*
X137922000Y-66040000D03*
X123607101Y-48199629D03*
X141628401Y-53755129D03*
X150238727Y-27180273D03*
X124356401Y-55311629D03*
X139827000Y-58166000D03*
X123848401Y-62296629D03*
X122832401Y-48199629D03*
%TO.N,GND*%
X144958401Y-94167029D03*
X141148401Y-96382029D03*
X128270000Y-95504000D03*
X148613401Y-109336029D03*
X130810000Y-115570000D03*
X142595600Y-56482629D03*
X133604000Y-115570000D03*
X136144000Y-87061629D03*
X126720600Y-117348000D03*
X144041401Y-66334629D03*
X133655401Y-106486029D03*
X133604000Y-116332000D03*
X118793801Y-115316000D03*
X120400099Y-118618000D03*
X130810000Y-116332000D03*
X120396000Y-117475000D03*
X130810000Y-114808000D03*
X138988800Y-121033000D03*
X153416000Y-103214029D03*
X117094000Y-112776000D03*
X124536600Y-122763900D03*
X135622001Y-97835029D03*
X147752401Y-98259029D03*
X143413401Y-98953029D03*
X152042401Y-45685029D03*
X143508001Y-115824000D03*
X133604000Y-114808000D03*
X152628600Y-93472000D03*
X134874000Y-91948000D03*
%TO.N,/Power/TG12*%
X128674401Y-59121629D03*
%TO.N,/Power/TG45*%
X134389401Y-52898629D03*
%TO.N,/Power/BG12*%
X127912401Y-60264629D03*
%TO.N,/Power/BG36*%
X122959401Y-61407629D03*
X127150401Y-61407629D03*
%TO.N,/Power/BG45*%
X122197401Y-51663128D03*
%TO.N,/Connectors/GPIO16*%
X127493010Y-110455029D03*
%TO.N,/Connectors/GPIO13*%
X119641689Y-110350946D03*
%TO.N,/Connectors/RUN*%
X126693007Y-110455029D03*
%TO.N,/Connectors/GPIO28*%
X128903001Y-101958632D03*
%TO.N,/Connectors/GPIO24*%
X129665001Y-104613029D03*
%TO.N,/Connectors/GPIO15*%
X121689401Y-110350946D03*
%TO.N,/MicroController/QSPI_SD0*%
X123261561Y-97726376D03*
%TO.N,/Connectors/GPIO2*%
X117879401Y-102489000D03*
%TO.N,/Connectors/GPIO21*%
X128903001Y-106873435D03*
%TO.N,/Connectors/GPIO1*%
X117854845Y-101689375D03*
%TO.N,/Connectors/GPIO5*%
X116965001Y-104206629D03*
%TO.N,/Connectors/GPIO26*%
X128903001Y-103558638D03*
%TO.N,/Connectors/GPIO25*%
X130505200Y-103606600D03*
%TO.N,/Connectors/GPIO10*%
X117879401Y-108245035D03*
%TO.N,/Connectors/GPIO19*%
X129702299Y-108380194D03*
%TO.N,/MicroController/QSPI_SS*%
X120698801Y-99456635D03*
%TO.N,/Connectors/GPIO17*%
X128293401Y-110455029D03*
%TO.N,/Connectors/GPIO7*%
X117914151Y-105845781D03*
%TO.N,/Connectors/GPIO0*%
X117856386Y-100889374D03*
%TO.N,/MicroController/QSPI_SCLK*%
X123261561Y-98654755D03*
%TO.N,/Connectors/GPIO20*%
X128903001Y-107673438D03*
%TO.N,/Connectors/GPIO8*%
X117879401Y-106645029D03*
%TO.N,/Connectors/GPIO22*%
X130435760Y-105757007D03*
%TO.N,/Connectors/GPIO29*%
X128903001Y-101158629D03*
%TO.N,/MicroController/QSPI_SD1*%
X120698801Y-98656632D03*
%TO.N,/Connectors/GPIO9*%
X117879401Y-107445032D03*
%TO.N,/Connectors/GPIO4*%
X117879401Y-104206629D03*
%TO.N,/MicroController/QSPI_SD3*%
X123261561Y-99454758D03*
%TO.N,/Connectors/SWCLK*%
X125093001Y-110455029D03*
%TO.N,/Connectors/GPIO11*%
X117879401Y-109045038D03*
%TO.N,/Connectors/SWD*%
X125893004Y-110455029D03*
%TO.N,/MicroController/QSPI_SD2*%
X120698801Y-97856629D03*
%TO.N,/Connectors/GPIO12*%
X118767995Y-110350946D03*
%TO.N,/Connectors/GPIO27*%
X128903001Y-102758635D03*
%TO.N,/Connectors/GPIO23*%
X131445000Y-104613029D03*
%TO.N,/Connectors/GPIO18*%
X131445000Y-108458000D03*
%TO.N,/Connectors/GPIO3*%
X117879401Y-103393829D03*
%TO.N,/Connectors/GPIO14*%
X120848011Y-110350946D03*
%TO.N,/Connectors/GPIO6*%
X116967249Y-105245781D03*
%TO.N,/Connectors/USB_DN*%
X134874000Y-117345197D03*
X143838201Y-113131600D03*
X125341001Y-94300629D03*
%TO.N,/Connectors/USB_DP*%
X134874000Y-118145200D03*
X144701801Y-113131600D03*
X124121001Y-94300629D03*
%TO.N,+3V3*%
X151407401Y-99314000D03*
X129907001Y-97851429D03*
X148156201Y-103184029D03*
X128778000Y-120904000D03*
X127254000Y-120904000D03*
X115316000Y-100838000D03*
X148410201Y-100041029D03*
X127254000Y-118364000D03*
X147343401Y-102190429D03*
X128016000Y-118364000D03*
X128016000Y-120904000D03*
X128778000Y-118364000D03*
%TO.N,/MicroController/XI_RP*%
X121664001Y-112029829D03*
%TO.N,+5V0*%
X123278799Y-115697000D03*
X121679600Y-115697601D03*
X122478800Y-115697000D03*
%TO.N,/MicroController/XO_RP*%
X121664001Y-112868029D03*
%TO.N,/MicroController/EEDO*%
X141148401Y-97342029D03*
X142383401Y-97337029D03*
%TO.N,Net-(D5-K)*%
X139469401Y-49977629D03*
%TO.N,Net-(D6-K)*%
X149502401Y-35448829D03*
%TO.N,Net-(D7-K)*%
X139469401Y-66055829D03*
%TO.N,Net-(Q9-G)*%
X143550215Y-33822215D03*
%TO.N,Net-(U3-ISEN+)*%
X146098801Y-39360429D03*
%TO.N,Net-(Q11-D)*%
X141755401Y-75678629D03*
X152654000Y-33147000D03*
%TO.N,Net-(Q12-G)*%
X144066801Y-71695629D03*
%TO.N,Net-(Q12-D)*%
X142263401Y-66334629D03*
%TO.N,Net-(U3-VIN)*%
X150252401Y-29388946D03*
X136575800Y-67757629D03*
X150264401Y-28514629D03*
%TO.N,Net-(C44-Pad1)*%
X139355401Y-40452629D03*
X148663601Y-35448829D03*
%TO.N,Net-(Q10-B)*%
X151534401Y-40071629D03*
%TO.N,+12V0*%
X134874000Y-90948185D03*
X133858000Y-84582000D03*
%TO.N,/MicroController/VDD_33A*%
X146204933Y-109232166D03*
X141958601Y-111575600D03*
%TO.N,/MicroController/VDD_CORE*%
X148133401Y-104144029D03*
X136703401Y-104355029D03*
%TO.N,/MicroController/VDD_PLL*%
X146140030Y-114554000D03*
%TO.N,/MicroController/VDD_USBPLL*%
X147546601Y-106355029D03*
%TO.N,Net-(C52-Pad1)*%
X150022977Y-42992629D03*
X151534401Y-37100029D03*
%TO.N,Net-(U6-EXRES)*%
X141470801Y-112522000D03*
X142513401Y-110813600D03*
%TO.N,Net-(U6-NFDX_LED{slash}GPIO8)*%
X150264401Y-100041029D03*
%TO.N,Net-(Q10-E)*%
X148471401Y-33721629D03*
%TO.N,Net-(Q13-B)*%
X145095401Y-78222429D03*
%TO.N,/Connectors/ETH_TXN*%
X136398000Y-108419997D03*
%TO.N,/Connectors/LED2_G*%
X150368000Y-97282000D03*
%TO.N,/Connectors/ETH_TXP*%
X136398000Y-109220000D03*
%TO.N,/Connectors/LED1_Y*%
X149352000Y-97282000D03*
%TO.N,/Connectors/ETH_RXN*%
X140423997Y-109982000D03*
%TO.N,/Connectors/ETH_RXP*%
X141224000Y-109982000D03*
%TO.N,/Connectors/CT*%
X150391401Y-26266629D03*
%TO.N,/Connectors/VC1P*%
X128840401Y-60264629D03*
%TO.N,/Connectors/VC1N*%
X126896401Y-54041629D03*
X132230401Y-62677629D03*
X132230401Y-64225629D03*
%TO.N,/Connectors/VC2P*%
X133119401Y-53533629D03*
%TO.N,Net-(U3-HSSRC)*%
X145692401Y-33848629D03*
X144905001Y-33848629D03*
%TD*%
D19*
%TO.N,+3V3*%
X127254000Y-120904000D02*
X128778000Y-120904000D01*
X127254000Y-121112818D02*
X127254000Y-120904000D01*
X124287818Y-124079000D02*
X127254000Y-121112818D01*
X122936000Y-124079000D02*
X124287818Y-124079000D01*
X122174000Y-124079000D02*
X122936000Y-124079000D01*
X121412000Y-124079000D02*
X122174000Y-124079000D01*
%TO.N,VSS*%
X139827000Y-64135000D02*
X137922000Y-66040000D01*
X123607101Y-55311629D02*
X124356401Y-55311629D01*
X123607101Y-48199629D02*
X124356401Y-48199629D01*
X123607101Y-55311629D02*
X123607101Y-60742101D01*
X142509401Y-77417629D02*
X141755401Y-78171629D01*
X142509401Y-70627401D02*
X142509401Y-77417629D01*
X139827000Y-58166000D02*
X139827000Y-64135000D01*
X123607101Y-55311629D02*
X122832401Y-55311629D01*
X123848401Y-60983401D02*
X123848401Y-62296629D01*
X123607101Y-48199629D02*
X122832401Y-48199629D01*
X137922000Y-66040000D02*
X142509401Y-70627401D01*
X123607101Y-60742101D02*
X123848401Y-60983401D01*
X123607101Y-55311629D02*
X123607101Y-48199629D01*
%TO.N,GND*%
X134940503Y-91948000D02*
X134874000Y-91948000D01*
X136144000Y-90744503D02*
X134940503Y-91948000D01*
X136144000Y-87061629D02*
X136144000Y-90744503D01*
D20*
%TO.N,/Connectors/USB_DN*%
X134425471Y-117745200D02*
X130509400Y-117745200D01*
X124493001Y-110703558D02*
X124493001Y-110206500D01*
X130509400Y-117745200D02*
X124956002Y-112191802D01*
X124956002Y-94685628D02*
X125341001Y-94300629D01*
X134874000Y-117345197D02*
X134673997Y-117545200D01*
X134673997Y-117545200D02*
X134625471Y-117545200D01*
X124956002Y-109743499D02*
X124956002Y-94685628D01*
X134625471Y-117545200D02*
X134425471Y-117745200D01*
X124956002Y-111166559D02*
X124493001Y-110703558D01*
X124956002Y-112191802D02*
X124956002Y-111166559D01*
X124493001Y-110206500D02*
X124956002Y-109743499D01*
%TO.N,/Connectors/USB_DP*%
X124121001Y-94300629D02*
X124506000Y-94685628D01*
X124043021Y-110889946D02*
X124506000Y-111352925D01*
X124506000Y-109557133D02*
X124043021Y-110020112D01*
X130273000Y-118145200D02*
X134874000Y-118145200D01*
X124506000Y-111352925D02*
X124506000Y-112378200D01*
X124506000Y-94685628D02*
X124506000Y-109557133D01*
X124043021Y-110020112D02*
X124043021Y-110889946D01*
X124506000Y-112378200D02*
X130273000Y-118145200D01*
D19*
%TO.N,+3V3*%
X116840000Y-100838000D02*
X115316000Y-100838000D01*
X118618000Y-99060000D02*
X116840000Y-100838000D01*
X118618000Y-91400429D02*
X118618000Y-99060000D01*
D20*
%TO.N,/Connectors/ETH_TXN*%
X136398000Y-104898157D02*
X136454872Y-104955029D01*
X137303401Y-104603558D02*
X137303401Y-67636701D01*
X136398000Y-32537357D02*
X134694272Y-30833629D01*
X136398000Y-66731300D02*
X136398000Y-32537357D01*
X137303401Y-67636701D02*
X136398000Y-66731300D01*
X136454872Y-104955029D02*
X136951930Y-104955029D01*
X136951930Y-104955029D02*
X137303401Y-104603558D01*
X134694272Y-30833629D02*
X134226202Y-30833629D01*
X136398000Y-108419997D02*
X136398000Y-104898157D01*
X134226202Y-30833629D02*
X133960202Y-30567629D01*
X133960202Y-30567629D02*
X131738401Y-30567629D01*
%TO.N,/Connectors/LED2_G*%
X149103471Y-97882000D02*
X145695401Y-101290070D01*
X130187231Y-106357007D02*
X127000000Y-103169776D01*
X126909530Y-92873530D02*
X124369530Y-92873530D01*
X149768000Y-97882000D02*
X149103471Y-97882000D01*
X127000000Y-92964000D02*
X126909530Y-92873530D01*
X124369530Y-92873530D02*
X121308401Y-89812401D01*
X145695401Y-101290070D02*
X145695401Y-106359128D01*
X150368000Y-97282000D02*
X149768000Y-97882000D01*
X145695401Y-106359128D02*
X141072529Y-110982000D01*
X121308401Y-89812401D02*
X121308401Y-41637629D01*
X135309282Y-110982000D02*
X130684289Y-106357007D01*
X127000000Y-103169776D02*
X127000000Y-92964000D01*
X141072529Y-110982000D02*
X135309282Y-110982000D01*
X130684289Y-106357007D02*
X130187231Y-106357007D01*
%TO.N,/Connectors/ETH_TXP*%
X136848000Y-32350989D02*
X134880660Y-30383649D01*
X134880660Y-30383649D02*
X134412620Y-30383649D01*
X136848000Y-48113559D02*
X137910401Y-47051158D01*
X137910401Y-47051158D02*
X137910401Y-44903100D01*
X134412620Y-30383649D02*
X134278401Y-30249430D01*
X136848000Y-43840699D02*
X136848000Y-32350989D01*
X136848000Y-66544932D02*
X136848000Y-48113559D01*
X137753381Y-67450313D02*
X136848000Y-66544932D01*
X137753381Y-107913145D02*
X137753381Y-67450313D01*
X136646529Y-109019997D02*
X137753381Y-107913145D01*
X136598003Y-109019997D02*
X136646529Y-109019997D01*
X136398000Y-109220000D02*
X136598003Y-109019997D01*
X137910401Y-44903100D02*
X136848000Y-43840699D01*
X134278401Y-30249430D02*
X134278401Y-29297629D01*
%TO.N,/Connectors/LED1_Y*%
X138310401Y-44584401D02*
X137414000Y-43688000D01*
X141265200Y-54686929D02*
X138310401Y-51732130D01*
X148938600Y-63848600D02*
X141265200Y-56175200D01*
X129586675Y-28240676D02*
X126554722Y-31272629D01*
X141265200Y-56175200D02*
X141265200Y-54686929D01*
X149352000Y-97282000D02*
X148938600Y-96868600D01*
X138418401Y-32017758D02*
X134641319Y-28240676D01*
X148938600Y-96868600D02*
X148938600Y-63848600D01*
X138310401Y-51732130D02*
X138310401Y-44584401D01*
X126554722Y-31272629D02*
X121653401Y-31272629D01*
X138418401Y-42683599D02*
X138418401Y-32017758D01*
X134641319Y-28240676D02*
X129586675Y-28240676D01*
X137414000Y-43688000D02*
X138418401Y-42683599D01*
%TO.N,/Connectors/ETH_RXN*%
X135700200Y-109982000D02*
X131485740Y-105767540D01*
X132045000Y-104861558D02*
X132045000Y-103661503D01*
X140423997Y-109982000D02*
X135700200Y-109982000D01*
X131289000Y-34827000D02*
X131826000Y-34290000D01*
X130734401Y-37771758D02*
X131289000Y-37217159D01*
X131289000Y-37217159D02*
X131289000Y-34827000D01*
X131485740Y-105420818D02*
X132045000Y-104861558D01*
X131289000Y-61060757D02*
X130734401Y-60506158D01*
X130734401Y-60506158D02*
X130734401Y-37771758D01*
X131485740Y-105767540D02*
X131485740Y-105420818D01*
X131826000Y-34290000D02*
X134190772Y-34290000D01*
X131289000Y-102905503D02*
X131289000Y-61060757D01*
X132045000Y-103661503D02*
X131289000Y-102905503D01*
%TO.N,/Connectors/ETH_RXP*%
X140672526Y-110582000D02*
X140175468Y-110582000D01*
X130839000Y-61247125D02*
X130284421Y-60692546D01*
X130839000Y-34711314D02*
X131738401Y-33811913D01*
X141023997Y-110182003D02*
X141023997Y-110230529D01*
X131105200Y-103855129D02*
X131105200Y-103358071D01*
X130839000Y-103091871D02*
X130839000Y-61247125D01*
X130395020Y-104565309D02*
X131105200Y-103855129D01*
X130284421Y-60692546D02*
X130284421Y-37585370D01*
X135513800Y-110432000D02*
X131035760Y-105953960D01*
X131035760Y-105953960D02*
X131035760Y-105508478D01*
X140175468Y-110582000D02*
X140025468Y-110432000D01*
X141224000Y-109982000D02*
X141023997Y-110182003D01*
X130284421Y-37585370D02*
X130839000Y-37030791D01*
X130395020Y-104867738D02*
X130395020Y-104565309D01*
X131105200Y-103358071D02*
X130839000Y-103091871D01*
X130839000Y-37030791D02*
X130839000Y-34711314D01*
X131738401Y-33811913D02*
X131738401Y-33107629D01*
X131035760Y-105508478D02*
X130395020Y-104867738D01*
X141023997Y-110230529D02*
X140672526Y-110582000D01*
X140025468Y-110432000D02*
X135513800Y-110432000D01*
%TD*%
%TA.AperFunction,Conductor*%
%TO.N,CGND*%
G36*
X127110684Y-25986814D02*
G01*
X127156439Y-26039618D01*
X127166383Y-26108776D01*
X127140592Y-26168442D01*
X127029856Y-26307300D01*
X126902459Y-26527957D01*
X126809374Y-26765134D01*
X126809369Y-26765151D01*
X126752674Y-27013549D01*
X126733634Y-27267624D01*
X126733634Y-27267633D01*
X126752674Y-27521709D01*
X126752674Y-27521711D01*
X126803059Y-27742465D01*
X126798786Y-27812204D01*
X126757487Y-27868561D01*
X126692275Y-27893644D01*
X126623854Y-27879489D01*
X126606685Y-27868435D01*
X126432609Y-27734862D01*
X126285494Y-27649925D01*
X126219695Y-27611936D01*
X126219686Y-27611932D01*
X125992563Y-27517854D01*
X125992556Y-27517852D01*
X125992554Y-27517851D01*
X125755078Y-27454220D01*
X125714340Y-27448856D01*
X125511335Y-27422129D01*
X125511328Y-27422129D01*
X125265474Y-27422129D01*
X125265466Y-27422129D01*
X125033460Y-27452674D01*
X125021724Y-27454220D01*
X124960298Y-27470679D01*
X124784248Y-27517851D01*
X124784238Y-27517854D01*
X124557115Y-27611932D01*
X124557106Y-27611936D01*
X124344188Y-27734865D01*
X124149146Y-27884526D01*
X124149139Y-27884532D01*
X123975304Y-28058367D01*
X123975298Y-28058374D01*
X123825637Y-28253416D01*
X123702708Y-28466334D01*
X123702704Y-28466343D01*
X123608626Y-28693466D01*
X123608623Y-28693476D01*
X123562892Y-28864150D01*
X123544993Y-28930949D01*
X123544991Y-28930960D01*
X123512901Y-29174694D01*
X123512901Y-29420563D01*
X123539628Y-29623568D01*
X123544992Y-29664306D01*
X123596528Y-29856643D01*
X123608623Y-29901781D01*
X123608626Y-29901791D01*
X123702704Y-30128914D01*
X123702708Y-30128923D01*
X123703705Y-30130649D01*
X123825634Y-30341837D01*
X123926005Y-30472643D01*
X123951199Y-30537812D01*
X123937161Y-30606256D01*
X123888347Y-30656246D01*
X123827629Y-30672129D01*
X122652996Y-30672129D01*
X122585957Y-30652444D01*
X122540202Y-30599640D01*
X122533221Y-30580223D01*
X122509200Y-30490579D01*
X122509199Y-30490574D01*
X122415063Y-30288698D01*
X122304399Y-30130653D01*
X122287302Y-30106235D01*
X122287298Y-30106231D01*
X122129796Y-29948729D01*
X122129792Y-29948726D01*
X122129791Y-29948725D01*
X121947337Y-29820969D01*
X121947329Y-29820965D01*
X121838057Y-29770011D01*
X121785617Y-29723839D01*
X121766465Y-29656646D01*
X121786680Y-29589764D01*
X121838057Y-29545247D01*
X121868539Y-29531033D01*
X121947333Y-29494291D01*
X122129796Y-29366529D01*
X122287301Y-29209024D01*
X122415063Y-29026561D01*
X122509199Y-28824684D01*
X122566850Y-28609528D01*
X122586264Y-28387629D01*
X122566850Y-28165730D01*
X122509199Y-27950574D01*
X122415063Y-27748698D01*
X122343553Y-27646571D01*
X122287302Y-27566235D01*
X122222047Y-27500980D01*
X122129796Y-27408729D01*
X122129792Y-27408726D01*
X122129791Y-27408725D01*
X121947337Y-27280969D01*
X121947329Y-27280965D01*
X121745462Y-27186833D01*
X121745448Y-27186828D01*
X121530305Y-27129181D01*
X121530295Y-27129179D01*
X121308402Y-27109766D01*
X121308400Y-27109766D01*
X121086506Y-27129179D01*
X121086496Y-27129181D01*
X120871353Y-27186828D01*
X120871344Y-27186832D01*
X120669471Y-27280966D01*
X120669469Y-27280967D01*
X120487003Y-27408730D01*
X120329502Y-27566231D01*
X120201739Y-27748697D01*
X120201738Y-27748699D01*
X120107604Y-27950572D01*
X120107600Y-27950581D01*
X120049953Y-28165724D01*
X120049951Y-28165734D01*
X120030538Y-28387628D01*
X120030538Y-28387629D01*
X120049951Y-28609523D01*
X120049953Y-28609533D01*
X120107600Y-28824676D01*
X120107605Y-28824690D01*
X120201737Y-29026557D01*
X120201741Y-29026565D01*
X120329497Y-29209019D01*
X120329502Y-29209025D01*
X120487004Y-29366527D01*
X120487010Y-29366532D01*
X120669464Y-29494288D01*
X120669466Y-29494289D01*
X120669469Y-29494291D01*
X120724395Y-29519903D01*
X120778745Y-29545247D01*
X120831185Y-29591419D01*
X120850337Y-29658612D01*
X120830122Y-29725494D01*
X120778746Y-29770011D01*
X120669471Y-29820966D01*
X120669469Y-29820967D01*
X120487003Y-29948730D01*
X120329502Y-30106231D01*
X120201739Y-30288697D01*
X120201738Y-30288699D01*
X120107604Y-30490572D01*
X120107600Y-30490581D01*
X120049953Y-30705724D01*
X120049951Y-30705734D01*
X120030538Y-30927628D01*
X120030538Y-30927629D01*
X120049951Y-31149523D01*
X120049953Y-31149533D01*
X120107600Y-31364676D01*
X120107605Y-31364690D01*
X120201737Y-31566557D01*
X120201741Y-31566565D01*
X120329497Y-31749019D01*
X120329502Y-31749025D01*
X120487004Y-31906527D01*
X120487010Y-31906532D01*
X120669464Y-32034288D01*
X120669466Y-32034289D01*
X120669469Y-32034291D01*
X120724395Y-32059903D01*
X120871339Y-32128424D01*
X120871341Y-32128424D01*
X120871346Y-32128427D01*
X121086502Y-32186078D01*
X121264021Y-32201609D01*
X121308400Y-32205492D01*
X121308401Y-32205492D01*
X121308402Y-32205492D01*
X121345384Y-32202256D01*
X121530300Y-32186078D01*
X121745456Y-32128427D01*
X121947333Y-32034291D01*
X122129796Y-31906529D01*
X122129803Y-31906521D01*
X122133939Y-31903052D01*
X122135400Y-31904793D01*
X122188200Y-31875963D01*
X122214558Y-31873129D01*
X126468053Y-31873129D01*
X126468069Y-31873130D01*
X126475665Y-31873130D01*
X126633776Y-31873130D01*
X126633779Y-31873130D01*
X126786507Y-31832206D01*
X126857164Y-31791412D01*
X126923438Y-31753149D01*
X127035242Y-31641345D01*
X127035242Y-31641343D01*
X127045446Y-31631140D01*
X127045449Y-31631135D01*
X129799091Y-28877495D01*
X129860414Y-28844010D01*
X129886772Y-28841176D01*
X132991765Y-28841176D01*
X133058804Y-28860861D01*
X133104559Y-28913665D01*
X133114503Y-28982823D01*
X133111033Y-28999103D01*
X133090102Y-29072671D01*
X133089337Y-29075359D01*
X133068741Y-29297628D01*
X133068741Y-29297629D01*
X133089337Y-29519902D01*
X133089338Y-29519905D01*
X133150424Y-29734604D01*
X133150427Y-29734610D01*
X133176941Y-29787857D01*
X133189202Y-29856643D01*
X133162329Y-29921137D01*
X133104853Y-29960865D01*
X133065941Y-29967129D01*
X132856035Y-29967129D01*
X132788996Y-29947444D01*
X132757081Y-29917856D01*
X132744949Y-29901791D01*
X132632351Y-29752686D01*
X132632349Y-29752683D01*
X132467385Y-29602300D01*
X132467375Y-29602293D01*
X132277596Y-29484787D01*
X132277590Y-29484785D01*
X132069440Y-29404147D01*
X131850014Y-29363129D01*
X131626788Y-29363129D01*
X131407362Y-29404147D01*
X131356898Y-29423697D01*
X131199211Y-29484785D01*
X131199205Y-29484787D01*
X131009426Y-29602293D01*
X131009416Y-29602300D01*
X130844452Y-29752684D01*
X130709927Y-29930824D01*
X130610427Y-30130647D01*
X130610424Y-30130653D01*
X130549338Y-30345352D01*
X130549337Y-30345355D01*
X130528741Y-30567628D01*
X130528741Y-30567629D01*
X130549337Y-30789902D01*
X130549338Y-30789905D01*
X130610424Y-31004604D01*
X130610427Y-31004609D01*
X130709927Y-31204433D01*
X130844451Y-31382572D01*
X131009418Y-31532959D01*
X131009425Y-31532963D01*
X131009426Y-31532964D01*
X131199205Y-31650470D01*
X131199206Y-31650470D01*
X131199209Y-31650472D01*
X131383853Y-31722003D01*
X131439252Y-31764575D01*
X131462843Y-31830342D01*
X131447132Y-31898422D01*
X131397108Y-31947201D01*
X131383862Y-31953250D01*
X131240617Y-32008744D01*
X131199211Y-32024785D01*
X131199205Y-32024787D01*
X131009426Y-32142293D01*
X131009416Y-32142300D01*
X130844452Y-32292684D01*
X130709927Y-32470824D01*
X130610427Y-32670647D01*
X130610424Y-32670653D01*
X130549338Y-32885352D01*
X130549337Y-32885355D01*
X130528741Y-33107628D01*
X130528741Y-33107629D01*
X130549337Y-33329902D01*
X130549338Y-33329905D01*
X130610424Y-33544604D01*
X130610427Y-33544609D01*
X130709927Y-33744433D01*
X130734381Y-33776815D01*
X130751052Y-33798892D01*
X130775743Y-33864253D01*
X130761177Y-33932588D01*
X130739778Y-33961299D01*
X130470286Y-34230792D01*
X130358481Y-34342596D01*
X130358475Y-34342604D01*
X130318173Y-34412411D01*
X130318173Y-34412413D01*
X130279423Y-34479528D01*
X130279423Y-34479529D01*
X130238499Y-34632257D01*
X130238499Y-34632259D01*
X130238499Y-34800360D01*
X130238500Y-34800373D01*
X130238500Y-36730693D01*
X130218815Y-36797732D01*
X130202181Y-36818374D01*
X129803902Y-37216652D01*
X129803900Y-37216654D01*
X129778484Y-37260676D01*
X129767742Y-37279284D01*
X129724844Y-37353585D01*
X129683920Y-37506313D01*
X129683920Y-37506315D01*
X129683920Y-37674416D01*
X129683921Y-37674429D01*
X129683921Y-41314673D01*
X129664236Y-41381712D01*
X129611432Y-41427467D01*
X129542274Y-41437411D01*
X129490069Y-41417127D01*
X129290778Y-41281253D01*
X129290777Y-41281252D01*
X129061224Y-41170707D01*
X129061226Y-41170707D01*
X128817748Y-41095604D01*
X128817742Y-41095602D01*
X128565805Y-41057629D01*
X128310996Y-41057629D01*
X128059059Y-41095602D01*
X128059053Y-41095604D01*
X127815576Y-41170707D01*
X127586025Y-41281252D01*
X127586017Y-41281257D01*
X127375491Y-41424791D01*
X127374749Y-41425383D01*
X127374436Y-41425510D01*
X127371662Y-41427402D01*
X127371256Y-41426807D01*
X127310058Y-41451781D01*
X127241364Y-41439013D01*
X127190478Y-41391134D01*
X127173556Y-41323345D01*
X127177674Y-41296342D01*
X127231810Y-41094306D01*
X127263901Y-40850556D01*
X127263901Y-40604702D01*
X127231810Y-40360952D01*
X127168179Y-40123476D01*
X127074095Y-39896337D01*
X126951168Y-39683421D01*
X126846994Y-39547659D01*
X126801503Y-39488374D01*
X126801497Y-39488367D01*
X126627662Y-39314532D01*
X126627655Y-39314526D01*
X126432613Y-39164865D01*
X126432612Y-39164864D01*
X126432609Y-39164862D01*
X126219693Y-39041935D01*
X126219686Y-39041932D01*
X125992563Y-38947854D01*
X125992556Y-38947852D01*
X125992554Y-38947851D01*
X125755078Y-38884220D01*
X125714340Y-38878856D01*
X125511335Y-38852129D01*
X125511328Y-38852129D01*
X125265474Y-38852129D01*
X125265466Y-38852129D01*
X125033460Y-38882674D01*
X125021724Y-38884220D01*
X124784248Y-38947851D01*
X124784238Y-38947854D01*
X124557115Y-39041932D01*
X124557106Y-39041936D01*
X124344188Y-39164865D01*
X124149146Y-39314526D01*
X124149139Y-39314532D01*
X123975304Y-39488367D01*
X123975298Y-39488374D01*
X123825637Y-39683416D01*
X123702708Y-39896334D01*
X123702704Y-39896343D01*
X123608626Y-40123466D01*
X123608623Y-40123476D01*
X123561746Y-40298427D01*
X123544993Y-40360949D01*
X123544991Y-40360960D01*
X123512901Y-40604694D01*
X123512901Y-40850563D01*
X123532405Y-40998699D01*
X123544992Y-41094306D01*
X123608250Y-41330389D01*
X123608623Y-41331781D01*
X123608626Y-41331791D01*
X123658328Y-41451781D01*
X123702707Y-41558921D01*
X123825634Y-41771837D01*
X123825636Y-41771840D01*
X123825637Y-41771841D01*
X123975298Y-41966883D01*
X123975304Y-41966890D01*
X124149139Y-42140725D01*
X124149145Y-42140730D01*
X124344193Y-42290396D01*
X124557109Y-42413323D01*
X124677656Y-42463255D01*
X124774931Y-42503548D01*
X124784248Y-42507407D01*
X125021724Y-42571038D01*
X125265474Y-42603129D01*
X125265481Y-42603129D01*
X125511321Y-42603129D01*
X125511328Y-42603129D01*
X125755078Y-42571038D01*
X125992554Y-42507407D01*
X126219693Y-42413323D01*
X126432609Y-42290396D01*
X126606682Y-42156824D01*
X126671850Y-42131630D01*
X126740295Y-42145668D01*
X126790285Y-42194482D01*
X126805949Y-42262573D01*
X126803059Y-42282792D01*
X126752674Y-42503546D01*
X126752674Y-42503548D01*
X126733634Y-42757624D01*
X126733634Y-42757633D01*
X126752674Y-43011708D01*
X126809369Y-43260106D01*
X126809374Y-43260123D01*
X126902459Y-43497300D01*
X126902458Y-43497300D01*
X127029855Y-43717956D01*
X127029862Y-43717967D01*
X127071853Y-43770620D01*
X127071854Y-43770621D01*
X127722553Y-43119921D01*
X127729450Y-43136571D01*
X127817000Y-43267599D01*
X127928431Y-43379030D01*
X128059459Y-43466580D01*
X128076105Y-43473475D01*
X127425214Y-44124367D01*
X127432681Y-44129458D01*
X127476983Y-44183487D01*
X127485041Y-44252891D01*
X127454299Y-44315633D01*
X127394515Y-44351795D01*
X127376713Y-44355132D01*
X127277949Y-44366259D01*
X127277937Y-44366262D01*
X127107680Y-44425838D01*
X127104420Y-44427887D01*
X127102015Y-44428566D01*
X127101406Y-44428860D01*
X127101354Y-44428753D01*
X127037183Y-44446886D01*
X126975531Y-44428782D01*
X126975494Y-44428860D01*
X126975025Y-44428634D01*
X126972480Y-44427887D01*
X126969219Y-44425838D01*
X126798962Y-44366262D01*
X126798949Y-44366259D01*
X126619704Y-44346064D01*
X126619696Y-44346064D01*
X126440450Y-44366259D01*
X126440437Y-44366262D01*
X126270183Y-44425837D01*
X126266745Y-44427493D01*
X126264303Y-44427894D01*
X126263606Y-44428139D01*
X126263563Y-44428016D01*
X126197803Y-44438840D01*
X126159155Y-44427493D01*
X126155716Y-44425837D01*
X125985462Y-44366262D01*
X125985449Y-44366259D01*
X125806204Y-44346064D01*
X125806196Y-44346064D01*
X125626950Y-44366259D01*
X125626945Y-44366260D01*
X125456676Y-44425840D01*
X125303937Y-44521813D01*
X125176384Y-44649366D01*
X125080411Y-44802105D01*
X125020831Y-44972374D01*
X125020830Y-44972379D01*
X125000635Y-45151625D01*
X125000635Y-45151632D01*
X125020830Y-45330878D01*
X125020831Y-45330883D01*
X125080411Y-45501152D01*
X125152332Y-45615612D01*
X125176384Y-45653891D01*
X125303938Y-45781445D01*
X125355633Y-45813927D01*
X125454056Y-45875771D01*
X125456678Y-45877418D01*
X125548146Y-45909424D01*
X125626945Y-45936997D01*
X125626950Y-45936998D01*
X125806196Y-45957194D01*
X125806200Y-45957194D01*
X125806204Y-45957194D01*
X125985449Y-45936998D01*
X125985452Y-45936997D01*
X125985455Y-45936997D01*
X126155722Y-45877418D01*
X126155725Y-45877415D01*
X126159142Y-45875771D01*
X126161573Y-45875370D01*
X126162295Y-45875118D01*
X126162339Y-45875244D01*
X126228082Y-45864415D01*
X126266758Y-45875771D01*
X126270177Y-45877417D01*
X126270178Y-45877418D01*
X126361646Y-45909424D01*
X126440445Y-45936997D01*
X126440450Y-45936998D01*
X126619696Y-45957194D01*
X126619700Y-45957194D01*
X126619704Y-45957194D01*
X126798949Y-45936998D01*
X126798952Y-45936997D01*
X126798955Y-45936997D01*
X126969222Y-45877418D01*
X126972475Y-45875374D01*
X126974879Y-45874694D01*
X126975495Y-45874398D01*
X126975546Y-45874505D01*
X127039711Y-45856372D01*
X127101367Y-45874476D01*
X127101405Y-45874398D01*
X127101879Y-45874626D01*
X127104425Y-45875374D01*
X127107678Y-45877418D01*
X127277945Y-45936997D01*
X127277950Y-45936998D01*
X127457196Y-45957194D01*
X127457200Y-45957194D01*
X127457204Y-45957194D01*
X127636449Y-45936998D01*
X127636452Y-45936997D01*
X127636455Y-45936997D01*
X127806722Y-45877418D01*
X127959462Y-45781445D01*
X128087016Y-45653891D01*
X128182989Y-45501151D01*
X128242568Y-45330884D01*
X128262765Y-45151629D01*
X128252004Y-45056126D01*
X128242569Y-44972379D01*
X128242568Y-44972374D01*
X128228926Y-44933388D01*
X128182989Y-44802107D01*
X128087016Y-44649367D01*
X128087015Y-44649366D01*
X128082675Y-44643924D01*
X128083926Y-44642926D01*
X128054472Y-44588985D01*
X128059456Y-44519293D01*
X128101328Y-44463360D01*
X128166792Y-44438943D01*
X128194119Y-44440012D01*
X128310996Y-44457628D01*
X128311005Y-44457629D01*
X128565797Y-44457629D01*
X128565805Y-44457628D01*
X128817742Y-44419655D01*
X128817748Y-44419653D01*
X129061225Y-44344550D01*
X129290777Y-44234005D01*
X129290788Y-44233998D01*
X129490069Y-44098131D01*
X129556548Y-44076630D01*
X129624098Y-44094484D01*
X129671273Y-44146024D01*
X129683921Y-44200584D01*
X129683921Y-58853150D01*
X129664236Y-58920189D01*
X129611432Y-58965944D01*
X129542274Y-58975888D01*
X129478718Y-58946863D01*
X129442879Y-58894105D01*
X129425379Y-58844093D01*
X129400190Y-58772107D01*
X129304217Y-58619367D01*
X129176663Y-58491813D01*
X129117339Y-58454537D01*
X129023924Y-58395840D01*
X128853655Y-58336260D01*
X128853650Y-58336259D01*
X128674405Y-58316064D01*
X128674397Y-58316064D01*
X128495151Y-58336259D01*
X128495146Y-58336260D01*
X128324877Y-58395840D01*
X128172138Y-58491813D01*
X128044585Y-58619366D01*
X127948612Y-58772105D01*
X127889032Y-58942374D01*
X127889031Y-58942379D01*
X127868836Y-59121625D01*
X127868836Y-59121632D01*
X127889031Y-59300878D01*
X127889035Y-59300895D01*
X127891814Y-59308837D01*
X127895373Y-59378616D01*
X127860641Y-59439242D01*
X127798646Y-59471466D01*
X127788655Y-59473006D01*
X127733150Y-59479259D01*
X127733146Y-59479260D01*
X127562877Y-59538840D01*
X127410138Y-59634813D01*
X127282585Y-59762366D01*
X127186612Y-59915105D01*
X127127032Y-60085374D01*
X127127031Y-60085379D01*
X127106836Y-60264625D01*
X127106836Y-60264632D01*
X127127031Y-60443878D01*
X127127035Y-60443895D01*
X127129814Y-60451837D01*
X127133373Y-60521616D01*
X127098641Y-60582242D01*
X127036646Y-60614466D01*
X127026655Y-60616006D01*
X126971150Y-60622259D01*
X126971146Y-60622260D01*
X126800877Y-60681840D01*
X126648138Y-60777813D01*
X126520585Y-60905366D01*
X126424612Y-61058105D01*
X126365032Y-61228374D01*
X126365031Y-61228379D01*
X126344836Y-61407625D01*
X126344836Y-61407632D01*
X126365031Y-61586878D01*
X126365032Y-61586883D01*
X126424612Y-61757152D01*
X126496817Y-61872064D01*
X126520585Y-61909891D01*
X126648139Y-62037445D01*
X126721811Y-62083736D01*
X126756565Y-62105574D01*
X126800879Y-62133418D01*
X126963807Y-62190429D01*
X126971146Y-62192997D01*
X126971151Y-62192998D01*
X127150397Y-62213194D01*
X127150401Y-62213194D01*
X127150405Y-62213194D01*
X127329650Y-62192998D01*
X127329653Y-62192997D01*
X127329656Y-62192997D01*
X127499923Y-62133418D01*
X127652663Y-62037445D01*
X127780217Y-61909891D01*
X127876190Y-61757151D01*
X127935769Y-61586884D01*
X127951051Y-61451255D01*
X127955966Y-61407632D01*
X127955966Y-61407625D01*
X127935770Y-61228382D01*
X127935769Y-61228376D01*
X127935769Y-61228374D01*
X127932986Y-61220423D01*
X127929426Y-61150646D01*
X127964155Y-61090019D01*
X128026149Y-61057792D01*
X128036119Y-61056254D01*
X128091656Y-61049997D01*
X128261923Y-60990418D01*
X128297918Y-60967801D01*
X128310428Y-60959940D01*
X128377664Y-60940939D01*
X128442374Y-60959940D01*
X128490876Y-60990417D01*
X128661146Y-61049997D01*
X128661151Y-61049998D01*
X128840397Y-61070194D01*
X128840401Y-61070194D01*
X128840405Y-61070194D01*
X129019650Y-61049998D01*
X129019653Y-61049997D01*
X129019656Y-61049997D01*
X129189923Y-60990418D01*
X129342663Y-60894445D01*
X129470217Y-60766891D01*
X129470220Y-60766885D01*
X129474560Y-60761445D01*
X129476473Y-60762970D01*
X129520261Y-60724231D01*
X129589313Y-60713576D01*
X129653165Y-60741944D01*
X129691543Y-60800330D01*
X129692702Y-60804380D01*
X129724844Y-60924331D01*
X129746697Y-60962181D01*
X129803900Y-61061260D01*
X129803902Y-61061263D01*
X129922770Y-61180131D01*
X129922776Y-61180136D01*
X130202181Y-61459541D01*
X130235666Y-61520864D01*
X130238500Y-61547222D01*
X130238500Y-96945318D01*
X130218815Y-97012357D01*
X130166011Y-97058112D01*
X130096853Y-97068056D01*
X130086913Y-97066210D01*
X130086258Y-97066060D01*
X129907005Y-97045864D01*
X129906997Y-97045864D01*
X129727751Y-97066059D01*
X129727746Y-97066060D01*
X129557477Y-97125640D01*
X129404738Y-97221613D01*
X129277185Y-97349166D01*
X129181212Y-97501905D01*
X129121632Y-97672174D01*
X129121631Y-97672179D01*
X129101436Y-97851425D01*
X129101436Y-97851432D01*
X129121631Y-98030678D01*
X129121632Y-98030683D01*
X129181212Y-98200952D01*
X129243589Y-98300224D01*
X129277185Y-98353691D01*
X129404739Y-98481245D01*
X129406738Y-98482501D01*
X129531378Y-98560818D01*
X129557479Y-98577218D01*
X129725520Y-98636018D01*
X129727746Y-98636797D01*
X129727751Y-98636798D01*
X129906997Y-98656994D01*
X129907001Y-98656994D01*
X129907005Y-98656994D01*
X130052556Y-98640594D01*
X130086256Y-98636797D01*
X130086266Y-98636793D01*
X130086898Y-98636650D01*
X130087331Y-98636676D01*
X130093176Y-98636018D01*
X130093291Y-98637041D01*
X130156637Y-98640918D01*
X130212998Y-98682212D01*
X130238087Y-98747422D01*
X130238500Y-98757539D01*
X130238500Y-102763848D01*
X130218815Y-102830887D01*
X130166011Y-102876642D01*
X130155827Y-102880739D01*
X130155675Y-102880812D01*
X130002939Y-102976783D01*
X129882270Y-103097452D01*
X129820947Y-103130936D01*
X129751255Y-103125952D01*
X129695322Y-103084080D01*
X129670905Y-103018616D01*
X129677547Y-102968815D01*
X129688369Y-102937890D01*
X129688370Y-102937884D01*
X129708566Y-102758638D01*
X129708566Y-102758631D01*
X129688370Y-102579385D01*
X129688369Y-102579380D01*
X129626490Y-102402540D01*
X129628636Y-102401788D01*
X129619038Y-102343489D01*
X129627392Y-102315042D01*
X129626490Y-102314727D01*
X129688367Y-102137894D01*
X129688370Y-102137881D01*
X129708566Y-101958635D01*
X129708566Y-101958628D01*
X129688370Y-101779382D01*
X129688369Y-101779377D01*
X129626490Y-101602537D01*
X129628636Y-101601785D01*
X129619038Y-101543486D01*
X129627392Y-101515039D01*
X129626490Y-101514724D01*
X129688367Y-101337891D01*
X129688370Y-101337878D01*
X129708566Y-101158632D01*
X129708566Y-101158625D01*
X129688370Y-100979379D01*
X129688369Y-100979374D01*
X129656878Y-100889377D01*
X129628790Y-100809107D01*
X129532817Y-100656367D01*
X129405263Y-100528813D01*
X129252524Y-100432840D01*
X129082255Y-100373260D01*
X129082250Y-100373259D01*
X128903005Y-100353064D01*
X128902997Y-100353064D01*
X128723751Y-100373259D01*
X128723746Y-100373260D01*
X128553477Y-100432840D01*
X128400738Y-100528813D01*
X128273185Y-100656366D01*
X128177212Y-100809105D01*
X128117632Y-100979374D01*
X128117631Y-100979379D01*
X128097436Y-101158625D01*
X128097436Y-101158632D01*
X128117631Y-101337878D01*
X128117634Y-101337891D01*
X128179511Y-101514723D01*
X128177367Y-101515472D01*
X128186961Y-101573790D01*
X128178613Y-101602224D01*
X128179511Y-101602538D01*
X128117634Y-101779369D01*
X128117631Y-101779382D01*
X128097436Y-101958628D01*
X128097436Y-101958635D01*
X128117631Y-102137881D01*
X128117634Y-102137894D01*
X128179511Y-102314726D01*
X128177367Y-102315475D01*
X128186961Y-102373793D01*
X128178613Y-102402227D01*
X128179511Y-102402541D01*
X128117634Y-102579372D01*
X128117631Y-102579385D01*
X128097436Y-102758631D01*
X128097436Y-102758638D01*
X128117631Y-102937884D01*
X128117634Y-102937897D01*
X128179511Y-103114729D01*
X128177367Y-103115478D01*
X128186961Y-103173796D01*
X128178613Y-103202231D01*
X128179511Y-103202546D01*
X128167571Y-103236666D01*
X128126848Y-103293441D01*
X128061894Y-103319187D01*
X127993333Y-103305729D01*
X127962849Y-103283390D01*
X127636819Y-102957360D01*
X127603334Y-102896037D01*
X127600500Y-102869679D01*
X127600500Y-96253094D01*
X127620185Y-96186055D01*
X127672989Y-96140300D01*
X127742147Y-96130356D01*
X127790471Y-96148100D01*
X127828193Y-96171802D01*
X127920475Y-96229788D01*
X128090745Y-96289368D01*
X128090750Y-96289369D01*
X128269996Y-96309565D01*
X128270000Y-96309565D01*
X128270004Y-96309565D01*
X128449249Y-96289369D01*
X128449252Y-96289368D01*
X128449255Y-96289368D01*
X128619522Y-96229789D01*
X128772262Y-96133816D01*
X128899816Y-96006262D01*
X128995789Y-95853522D01*
X129055368Y-95683255D01*
X129061956Y-95624787D01*
X129075565Y-95504003D01*
X129075565Y-95503996D01*
X129055369Y-95324750D01*
X129055368Y-95324745D01*
X129030786Y-95254494D01*
X128995789Y-95154478D01*
X128992929Y-95149927D01*
X128944790Y-95073313D01*
X128899816Y-95001738D01*
X128772262Y-94874184D01*
X128749528Y-94859899D01*
X128619523Y-94778211D01*
X128449254Y-94718631D01*
X128449249Y-94718630D01*
X128270004Y-94698435D01*
X128269996Y-94698435D01*
X128090750Y-94718630D01*
X128090745Y-94718631D01*
X127920476Y-94778211D01*
X127790472Y-94859899D01*
X127723235Y-94878899D01*
X127656400Y-94858531D01*
X127611186Y-94805263D01*
X127600500Y-94754905D01*
X127600500Y-93053059D01*
X127600501Y-93053046D01*
X127600501Y-92884945D01*
X127600501Y-92884943D01*
X127559577Y-92732215D01*
X127533259Y-92686632D01*
X127525844Y-92673788D01*
X127525843Y-92673787D01*
X127516266Y-92657199D01*
X127480520Y-92595284D01*
X127368716Y-92483480D01*
X127278246Y-92393010D01*
X127191434Y-92342890D01*
X127191434Y-92342889D01*
X127191430Y-92342888D01*
X127141315Y-92313953D01*
X126988587Y-92273029D01*
X126830473Y-92273029D01*
X126822877Y-92273029D01*
X126822861Y-92273030D01*
X124669627Y-92273030D01*
X124602588Y-92253345D01*
X124581946Y-92236711D01*
X121945220Y-89599985D01*
X121911735Y-89538662D01*
X121908901Y-89512304D01*
X121908901Y-65471632D01*
X124551335Y-65471632D01*
X124571530Y-65650878D01*
X124571531Y-65650883D01*
X124631111Y-65821152D01*
X124727084Y-65973891D01*
X124854638Y-66101445D01*
X124912384Y-66137729D01*
X124989392Y-66186117D01*
X125007378Y-66197418D01*
X125177645Y-66256997D01*
X125177650Y-66256998D01*
X125356896Y-66277194D01*
X125356900Y-66277194D01*
X125356904Y-66277194D01*
X125536149Y-66256998D01*
X125536152Y-66256997D01*
X125536155Y-66256997D01*
X125706422Y-66197418D01*
X125859162Y-66101445D01*
X125986716Y-65973891D01*
X126082689Y-65821151D01*
X126142268Y-65650884D01*
X126142269Y-65650878D01*
X126162465Y-65471632D01*
X126162465Y-65471625D01*
X126142269Y-65292379D01*
X126142268Y-65292374D01*
X126125724Y-65245094D01*
X126082689Y-65122107D01*
X125986716Y-64969367D01*
X125859162Y-64841813D01*
X125834623Y-64826394D01*
X125706423Y-64745840D01*
X125536154Y-64686260D01*
X125536149Y-64686259D01*
X125356904Y-64666064D01*
X125356896Y-64666064D01*
X125177650Y-64686259D01*
X125177645Y-64686260D01*
X125007376Y-64745840D01*
X124854637Y-64841813D01*
X124727084Y-64969366D01*
X124631111Y-65122105D01*
X124571531Y-65292374D01*
X124571530Y-65292379D01*
X124551335Y-65471625D01*
X124551335Y-65471632D01*
X121908901Y-65471632D01*
X121908901Y-61441796D01*
X121918240Y-61409989D01*
X121910761Y-61394855D01*
X121908901Y-61373461D01*
X121908901Y-55776909D01*
X121928586Y-55709870D01*
X121981390Y-55664115D01*
X122050548Y-55654171D01*
X122114104Y-55683196D01*
X122137893Y-55710935D01*
X122202585Y-55813891D01*
X122330139Y-55941445D01*
X122482879Y-56037418D01*
X122628949Y-56088530D01*
X122653146Y-56096997D01*
X122653151Y-56096998D01*
X122742484Y-56107063D01*
X122806898Y-56134129D01*
X122846453Y-56191724D01*
X122852601Y-56230283D01*
X122852601Y-60508925D01*
X122832916Y-60575964D01*
X122780112Y-60621719D01*
X122769555Y-60625966D01*
X122762121Y-60628567D01*
X122609879Y-60681839D01*
X122457138Y-60777813D01*
X122329585Y-60905366D01*
X122233612Y-61058105D01*
X122174032Y-61228374D01*
X122174031Y-61228379D01*
X122156121Y-61387344D01*
X122149484Y-61403137D01*
X122151878Y-61406861D01*
X122156121Y-61427913D01*
X122174031Y-61586878D01*
X122174032Y-61586883D01*
X122233612Y-61757152D01*
X122305817Y-61872064D01*
X122329585Y-61909891D01*
X122457139Y-62037445D01*
X122530811Y-62083736D01*
X122565565Y-62105574D01*
X122609879Y-62133418D01*
X122772807Y-62190429D01*
X122780146Y-62192997D01*
X122780151Y-62192998D01*
X122936121Y-62210571D01*
X123000535Y-62237637D01*
X123040090Y-62295232D01*
X123045458Y-62319907D01*
X123063031Y-62475879D01*
X123063032Y-62475883D01*
X123122612Y-62646152D01*
X123203314Y-62774587D01*
X123218585Y-62798891D01*
X123346139Y-62926445D01*
X123498879Y-63022418D01*
X123669146Y-63081997D01*
X123669151Y-63081998D01*
X123848397Y-63102194D01*
X123848401Y-63102194D01*
X123848405Y-63102194D01*
X124027650Y-63081998D01*
X124027653Y-63081997D01*
X124027656Y-63081997D01*
X124197923Y-63022418D01*
X124350663Y-62926445D01*
X124478217Y-62798891D01*
X124574190Y-62646151D01*
X124633769Y-62475884D01*
X124642207Y-62400996D01*
X124653966Y-62296632D01*
X124653966Y-62296625D01*
X124633770Y-62117379D01*
X124633769Y-62117374D01*
X124609859Y-62049043D01*
X124602901Y-62008088D01*
X124602901Y-61063847D01*
X124602902Y-61063826D01*
X124602902Y-60909086D01*
X124573907Y-60763326D01*
X124573905Y-60763320D01*
X124573128Y-60761445D01*
X124563673Y-60738617D01*
X124563404Y-60737967D01*
X124563392Y-60737940D01*
X124525569Y-60646625D01*
X124517031Y-60626012D01*
X124447547Y-60522022D01*
X124447276Y-60521616D01*
X124434462Y-60502437D01*
X124397920Y-60465895D01*
X124364435Y-60404572D01*
X124361601Y-60378214D01*
X124361601Y-56227421D01*
X124381286Y-56160382D01*
X124434090Y-56114627D01*
X124471719Y-56104201D01*
X124535650Y-56096998D01*
X124535653Y-56096997D01*
X124535656Y-56096997D01*
X124705923Y-56037418D01*
X124858663Y-55941445D01*
X124986217Y-55813891D01*
X125082190Y-55661151D01*
X125141769Y-55490884D01*
X125141770Y-55490878D01*
X125161966Y-55311632D01*
X125161966Y-55311625D01*
X125141770Y-55132379D01*
X125141769Y-55132374D01*
X125101188Y-55016400D01*
X125082190Y-54962107D01*
X125079993Y-54958611D01*
X125009985Y-54847194D01*
X124986217Y-54809367D01*
X124858663Y-54681813D01*
X124843052Y-54672004D01*
X124705922Y-54585839D01*
X124535650Y-54526259D01*
X124471717Y-54519056D01*
X124407303Y-54491989D01*
X124367748Y-54434394D01*
X124361601Y-54395836D01*
X124361601Y-54041632D01*
X126090836Y-54041632D01*
X126111031Y-54220878D01*
X126111032Y-54220883D01*
X126170612Y-54391152D01*
X126215970Y-54463338D01*
X126266585Y-54543891D01*
X126394139Y-54671445D01*
X126395029Y-54672004D01*
X126544604Y-54765989D01*
X126546879Y-54767418D01*
X126717146Y-54826997D01*
X126717151Y-54826998D01*
X126896397Y-54847194D01*
X126896401Y-54847194D01*
X126896405Y-54847194D01*
X127075650Y-54826998D01*
X127075653Y-54826997D01*
X127075656Y-54826997D01*
X127245923Y-54767418D01*
X127398663Y-54671445D01*
X127526217Y-54543891D01*
X127622190Y-54391151D01*
X127681769Y-54220884D01*
X127681770Y-54220878D01*
X127701966Y-54041632D01*
X127701966Y-54041625D01*
X127681770Y-53862379D01*
X127681769Y-53862374D01*
X127647379Y-53764093D01*
X127622190Y-53692107D01*
X127526217Y-53539367D01*
X127398663Y-53411813D01*
X127346357Y-53378947D01*
X127245924Y-53315840D01*
X127075655Y-53256260D01*
X127075650Y-53256259D01*
X126896405Y-53236064D01*
X126896397Y-53236064D01*
X126717151Y-53256259D01*
X126717146Y-53256260D01*
X126546877Y-53315840D01*
X126394138Y-53411813D01*
X126266585Y-53539366D01*
X126170612Y-53692105D01*
X126111032Y-53862374D01*
X126111031Y-53862379D01*
X126090836Y-54041625D01*
X126090836Y-54041632D01*
X124361601Y-54041632D01*
X124361601Y-49115421D01*
X124381286Y-49048382D01*
X124434090Y-49002627D01*
X124471719Y-48992201D01*
X124535650Y-48984998D01*
X124535653Y-48984997D01*
X124535656Y-48984997D01*
X124705923Y-48925418D01*
X124858663Y-48829445D01*
X124986217Y-48701891D01*
X125082190Y-48549151D01*
X125141769Y-48378884D01*
X125141770Y-48378878D01*
X125161966Y-48199632D01*
X125161966Y-48199625D01*
X125141770Y-48020379D01*
X125141769Y-48020374D01*
X125118456Y-47953750D01*
X125082190Y-47850107D01*
X125079993Y-47846611D01*
X124986216Y-47697366D01*
X124858663Y-47569813D01*
X124705924Y-47473840D01*
X124535655Y-47414260D01*
X124535650Y-47414259D01*
X124356405Y-47394064D01*
X124356397Y-47394064D01*
X124177151Y-47414259D01*
X124177138Y-47414262D01*
X124108816Y-47438170D01*
X124067861Y-47445129D01*
X123895641Y-47445129D01*
X123854686Y-47438170D01*
X123786363Y-47414262D01*
X123786350Y-47414259D01*
X123607105Y-47394064D01*
X123607097Y-47394064D01*
X123427851Y-47414259D01*
X123427838Y-47414262D01*
X123359516Y-47438170D01*
X123318561Y-47445129D01*
X123120941Y-47445129D01*
X123079986Y-47438170D01*
X123011663Y-47414262D01*
X123011650Y-47414259D01*
X122832405Y-47394064D01*
X122832397Y-47394064D01*
X122653151Y-47414259D01*
X122653146Y-47414260D01*
X122482877Y-47473840D01*
X122330138Y-47569813D01*
X122202585Y-47697366D01*
X122137895Y-47800320D01*
X122085560Y-47846611D01*
X122016506Y-47857259D01*
X121952658Y-47828884D01*
X121914286Y-47770494D01*
X121908901Y-47734348D01*
X121908901Y-42835752D01*
X121928586Y-42768713D01*
X121961777Y-42734177D01*
X121965929Y-42731270D01*
X122129796Y-42616529D01*
X122287301Y-42459024D01*
X122415063Y-42276561D01*
X122509199Y-42074684D01*
X122566850Y-41859528D01*
X122586264Y-41637629D01*
X122566850Y-41415730D01*
X122519227Y-41237998D01*
X122509201Y-41200581D01*
X122509200Y-41200580D01*
X122509199Y-41200574D01*
X122415063Y-40998698D01*
X122351182Y-40907466D01*
X122287302Y-40816235D01*
X122268484Y-40797417D01*
X122129796Y-40658729D01*
X122129792Y-40658726D01*
X122129791Y-40658725D01*
X121947337Y-40530969D01*
X121947329Y-40530965D01*
X121838057Y-40480011D01*
X121785617Y-40433839D01*
X121766465Y-40366646D01*
X121786680Y-40299764D01*
X121838057Y-40255247D01*
X121857950Y-40245970D01*
X121947333Y-40204291D01*
X122129796Y-40076529D01*
X122287301Y-39919024D01*
X122415063Y-39736561D01*
X122509199Y-39534684D01*
X122566850Y-39319528D01*
X122586264Y-39097629D01*
X122566850Y-38875730D01*
X122509199Y-38660574D01*
X122415063Y-38458698D01*
X122287301Y-38276234D01*
X122129796Y-38118729D01*
X122129792Y-38118726D01*
X122129791Y-38118725D01*
X121947337Y-37990969D01*
X121947329Y-37990965D01*
X121745462Y-37896833D01*
X121745448Y-37896828D01*
X121530305Y-37839181D01*
X121530295Y-37839179D01*
X121308402Y-37819766D01*
X121308400Y-37819766D01*
X121086506Y-37839179D01*
X121086496Y-37839181D01*
X120871353Y-37896828D01*
X120871344Y-37896832D01*
X120669471Y-37990966D01*
X120669469Y-37990967D01*
X120487003Y-38118730D01*
X120329502Y-38276231D01*
X120201739Y-38458697D01*
X120201738Y-38458699D01*
X120107604Y-38660572D01*
X120107600Y-38660581D01*
X120049953Y-38875724D01*
X120049951Y-38875734D01*
X120030538Y-39097628D01*
X120030538Y-39097629D01*
X120049951Y-39319523D01*
X120049953Y-39319533D01*
X120107600Y-39534676D01*
X120107605Y-39534690D01*
X120201737Y-39736557D01*
X120201741Y-39736565D01*
X120329497Y-39919019D01*
X120329502Y-39919025D01*
X120487004Y-40076527D01*
X120487010Y-40076532D01*
X120669464Y-40204288D01*
X120669466Y-40204289D01*
X120669469Y-40204291D01*
X120743168Y-40238657D01*
X120778745Y-40255247D01*
X120831185Y-40301419D01*
X120850337Y-40368612D01*
X120830122Y-40435494D01*
X120778746Y-40480011D01*
X120669471Y-40530966D01*
X120669469Y-40530967D01*
X120487003Y-40658730D01*
X120329502Y-40816231D01*
X120201739Y-40998697D01*
X120201738Y-40998699D01*
X120107604Y-41200572D01*
X120107600Y-41200581D01*
X120049953Y-41415724D01*
X120049951Y-41415734D01*
X120030538Y-41637628D01*
X120030538Y-41637629D01*
X120049951Y-41859523D01*
X120049953Y-41859533D01*
X120107600Y-42074676D01*
X120107605Y-42074690D01*
X120201737Y-42276557D01*
X120201741Y-42276565D01*
X120329497Y-42459019D01*
X120329501Y-42459024D01*
X120487006Y-42616529D01*
X120650873Y-42731270D01*
X120655025Y-42734177D01*
X120698649Y-42788754D01*
X120707901Y-42835752D01*
X120707901Y-89725731D01*
X120707900Y-89725749D01*
X120707900Y-89891455D01*
X120707899Y-89891455D01*
X120744715Y-90028854D01*
X120748824Y-90044186D01*
X120767118Y-90075872D01*
X120767119Y-90075874D01*
X120767120Y-90075874D01*
X120825751Y-90177427D01*
X120827880Y-90181115D01*
X120827882Y-90181118D01*
X120946750Y-90299986D01*
X120946756Y-90299991D01*
X123884669Y-93237904D01*
X123884679Y-93237915D01*
X123889009Y-93242245D01*
X123889010Y-93242246D01*
X123965382Y-93318618D01*
X123998866Y-93379939D01*
X123993882Y-93449631D01*
X123952011Y-93505565D01*
X123918655Y-93523339D01*
X123771481Y-93574838D01*
X123618738Y-93670813D01*
X123491185Y-93798366D01*
X123395212Y-93951105D01*
X123335632Y-94121374D01*
X123335631Y-94121379D01*
X123315436Y-94300625D01*
X123315436Y-94300632D01*
X123335631Y-94479878D01*
X123335632Y-94479883D01*
X123395212Y-94650152D01*
X123487385Y-94796844D01*
X123491185Y-94802891D01*
X123618739Y-94930445D01*
X123653677Y-94952398D01*
X123771478Y-95026418D01*
X123803751Y-95037710D01*
X123822453Y-95044254D01*
X123879230Y-95084975D01*
X123904978Y-95149927D01*
X123905500Y-95161296D01*
X123905500Y-96961220D01*
X123885815Y-97028259D01*
X123833011Y-97074014D01*
X123763853Y-97083958D01*
X123715528Y-97066214D01*
X123611084Y-97000587D01*
X123440815Y-96941007D01*
X123440810Y-96941006D01*
X123261565Y-96920811D01*
X123261557Y-96920811D01*
X123082311Y-96941006D01*
X123082306Y-96941007D01*
X122912037Y-97000587D01*
X122759298Y-97096560D01*
X122631745Y-97224113D01*
X122535772Y-97376852D01*
X122476192Y-97547121D01*
X122476191Y-97547126D01*
X122455996Y-97726372D01*
X122455996Y-97726379D01*
X122476191Y-97905625D01*
X122476192Y-97905630D01*
X122535772Y-98075899D01*
X122566369Y-98124593D01*
X122585369Y-98191829D01*
X122566370Y-98256536D01*
X122535769Y-98305237D01*
X122476194Y-98475492D01*
X122476191Y-98475505D01*
X122455996Y-98654751D01*
X122455996Y-98654758D01*
X122476191Y-98834004D01*
X122476194Y-98834017D01*
X122538071Y-99010849D01*
X122535927Y-99011598D01*
X122545521Y-99069916D01*
X122537173Y-99098350D01*
X122538071Y-99098664D01*
X122476194Y-99275495D01*
X122476191Y-99275508D01*
X122455996Y-99454754D01*
X122455996Y-99454761D01*
X122476191Y-99634007D01*
X122476192Y-99634012D01*
X122535772Y-99804281D01*
X122571898Y-99861774D01*
X122631745Y-99957020D01*
X122759299Y-100084574D01*
X122814987Y-100119565D01*
X122894543Y-100169554D01*
X122912039Y-100180547D01*
X122963129Y-100198424D01*
X123082306Y-100240126D01*
X123082311Y-100240127D01*
X123261557Y-100260323D01*
X123261561Y-100260323D01*
X123261565Y-100260323D01*
X123440810Y-100240127D01*
X123440813Y-100240126D01*
X123440816Y-100240126D01*
X123611083Y-100180547D01*
X123715528Y-100114919D01*
X123782764Y-100095919D01*
X123849599Y-100116286D01*
X123894814Y-100169554D01*
X123905500Y-100219913D01*
X123905500Y-109257035D01*
X123885815Y-109324074D01*
X123869181Y-109344716D01*
X123562502Y-109651394D01*
X123562500Y-109651396D01*
X123542782Y-109685551D01*
X123521587Y-109722262D01*
X123483444Y-109788327D01*
X123442520Y-109941055D01*
X123442520Y-109941057D01*
X123442520Y-110109158D01*
X123442521Y-110109171D01*
X123442521Y-110803276D01*
X123442520Y-110803294D01*
X123442520Y-110969000D01*
X123442519Y-110969000D01*
X123483444Y-111121732D01*
X123483445Y-111121733D01*
X123507341Y-111163122D01*
X123555885Y-111247203D01*
X123562502Y-111258663D01*
X123681370Y-111377531D01*
X123681376Y-111377536D01*
X123869181Y-111565341D01*
X123902666Y-111626664D01*
X123905500Y-111653022D01*
X123905500Y-112291530D01*
X123905499Y-112291548D01*
X123905499Y-112457254D01*
X123905498Y-112457254D01*
X123946422Y-112609983D01*
X123951733Y-112619182D01*
X124025477Y-112746912D01*
X124025481Y-112746917D01*
X124144349Y-112865785D01*
X124144354Y-112865789D01*
X128650659Y-117372095D01*
X128684143Y-117433416D01*
X128679159Y-117503108D01*
X128637287Y-117559041D01*
X128603932Y-117576815D01*
X128437955Y-117634894D01*
X128368177Y-117638457D01*
X128356045Y-117634894D01*
X128195262Y-117578633D01*
X128195249Y-117578630D01*
X128016004Y-117558435D01*
X128015996Y-117558435D01*
X127836750Y-117578630D01*
X127836742Y-117578632D01*
X127675953Y-117634895D01*
X127606175Y-117638456D01*
X127594043Y-117634894D01*
X127590972Y-117633819D01*
X127534199Y-117593095D01*
X127508455Y-117528141D01*
X127508713Y-117502897D01*
X127526165Y-117348003D01*
X127526165Y-117347996D01*
X127505969Y-117168750D01*
X127505968Y-117168745D01*
X127490828Y-117125478D01*
X127446389Y-116998478D01*
X127444626Y-116995673D01*
X127350415Y-116845737D01*
X127222862Y-116718184D01*
X127070123Y-116622211D01*
X126899854Y-116562631D01*
X126899849Y-116562630D01*
X126720604Y-116542435D01*
X126720596Y-116542435D01*
X126541350Y-116562630D01*
X126541345Y-116562631D01*
X126371076Y-116622211D01*
X126218337Y-116718184D01*
X126090784Y-116845737D01*
X125994811Y-116998476D01*
X125935231Y-117168745D01*
X125935230Y-117168750D01*
X125915035Y-117347996D01*
X125915035Y-117348003D01*
X125935230Y-117527249D01*
X125935231Y-117527254D01*
X125994811Y-117697523D01*
X126074610Y-117824522D01*
X126090784Y-117850262D01*
X126218338Y-117977816D01*
X126308680Y-118034582D01*
X126342628Y-118055913D01*
X126371078Y-118073789D01*
X126383618Y-118078177D01*
X126440394Y-118118896D01*
X126466144Y-118183848D01*
X126465886Y-118209102D01*
X126448435Y-118363995D01*
X126448435Y-118364003D01*
X126468630Y-118543249D01*
X126468631Y-118543254D01*
X126528211Y-118713523D01*
X126566850Y-118775016D01*
X126624184Y-118866262D01*
X126751738Y-118993816D01*
X126904478Y-119089789D01*
X126991565Y-119120262D01*
X127074745Y-119149368D01*
X127074750Y-119149369D01*
X127253996Y-119169565D01*
X127254000Y-119169565D01*
X127254004Y-119169565D01*
X127433249Y-119149369D01*
X127433251Y-119149368D01*
X127433255Y-119149368D01*
X127433258Y-119149366D01*
X127433262Y-119149366D01*
X127594045Y-119093106D01*
X127663824Y-119089544D01*
X127675955Y-119093106D01*
X127836737Y-119149366D01*
X127836743Y-119149367D01*
X127836745Y-119149368D01*
X127836746Y-119149368D01*
X127836750Y-119149369D01*
X128015996Y-119169565D01*
X128016000Y-119169565D01*
X128016004Y-119169565D01*
X128195249Y-119149369D01*
X128195251Y-119149368D01*
X128195255Y-119149368D01*
X128195258Y-119149366D01*
X128195262Y-119149366D01*
X128356045Y-119093106D01*
X128425824Y-119089544D01*
X128437955Y-119093106D01*
X128598737Y-119149366D01*
X128598743Y-119149367D01*
X128598745Y-119149368D01*
X128598746Y-119149368D01*
X128598750Y-119149369D01*
X128777996Y-119169565D01*
X128778000Y-119169565D01*
X128778004Y-119169565D01*
X128957249Y-119149369D01*
X128957252Y-119149368D01*
X128957255Y-119149368D01*
X129127522Y-119089789D01*
X129280262Y-118993816D01*
X129407816Y-118866262D01*
X129503789Y-118713522D01*
X129563368Y-118543255D01*
X129563368Y-118543254D01*
X129565183Y-118538068D01*
X129605905Y-118481292D01*
X129670858Y-118455545D01*
X129739419Y-118469001D01*
X129769906Y-118491342D01*
X129904284Y-118625720D01*
X129904286Y-118625721D01*
X129904290Y-118625724D01*
X130041209Y-118704773D01*
X130041216Y-118704777D01*
X130193943Y-118745701D01*
X130193945Y-118745701D01*
X130359654Y-118745701D01*
X130359670Y-118745700D01*
X134291588Y-118745700D01*
X134358627Y-118765385D01*
X134368903Y-118772755D01*
X134371736Y-118775014D01*
X134371738Y-118775016D01*
X134524478Y-118870989D01*
X134694745Y-118930568D01*
X134694750Y-118930569D01*
X134873996Y-118950765D01*
X134874000Y-118950765D01*
X134874004Y-118950765D01*
X135053249Y-118930569D01*
X135053252Y-118930568D01*
X135053255Y-118930568D01*
X135223522Y-118870989D01*
X135376262Y-118775016D01*
X135503816Y-118647462D01*
X135599789Y-118494722D01*
X135659368Y-118324455D01*
X135665675Y-118268478D01*
X135679565Y-118145203D01*
X135679565Y-118145196D01*
X135659369Y-117965950D01*
X135659368Y-117965945D01*
X135597489Y-117789105D01*
X135599635Y-117788353D01*
X135590037Y-117730054D01*
X135598391Y-117701607D01*
X135597489Y-117701292D01*
X135659366Y-117524459D01*
X135659369Y-117524446D01*
X135679565Y-117345200D01*
X135679565Y-117345193D01*
X135659369Y-117165947D01*
X135659368Y-117165942D01*
X135651935Y-117144700D01*
X135599789Y-116995675D01*
X135598951Y-116994342D01*
X135505577Y-116845738D01*
X135503816Y-116842935D01*
X135376262Y-116715381D01*
X135335280Y-116689630D01*
X135223523Y-116619408D01*
X135053254Y-116559828D01*
X135053249Y-116559827D01*
X134874004Y-116539632D01*
X134873996Y-116539632D01*
X134694750Y-116559827D01*
X134694742Y-116559829D01*
X134557406Y-116607885D01*
X134487627Y-116611446D01*
X134427000Y-116576717D01*
X134394773Y-116514724D01*
X134393232Y-116476959D01*
X134409565Y-116332002D01*
X134409565Y-116331996D01*
X134389369Y-116152750D01*
X134389366Y-116152737D01*
X134333106Y-115991955D01*
X134329544Y-115922176D01*
X134333106Y-115910045D01*
X134363213Y-115824003D01*
X142702436Y-115824003D01*
X142722631Y-116003249D01*
X142722632Y-116003254D01*
X142782212Y-116173523D01*
X142824268Y-116240454D01*
X142878185Y-116326262D01*
X143005739Y-116453816D01*
X143158479Y-116549789D01*
X143235435Y-116576717D01*
X143328746Y-116609368D01*
X143328751Y-116609369D01*
X143507997Y-116629565D01*
X143508001Y-116629565D01*
X143508005Y-116629565D01*
X143687250Y-116609369D01*
X143687253Y-116609368D01*
X143687256Y-116609368D01*
X143857523Y-116549789D01*
X144010263Y-116453816D01*
X144137817Y-116326262D01*
X144233790Y-116173522D01*
X144293369Y-116003255D01*
X144294642Y-115991956D01*
X144313566Y-115824003D01*
X144313566Y-115823996D01*
X144293370Y-115644750D01*
X144293369Y-115644745D01*
X144267216Y-115570003D01*
X144233790Y-115474478D01*
X144137817Y-115321738D01*
X144010263Y-115194184D01*
X144002013Y-115189000D01*
X143857524Y-115098211D01*
X143687255Y-115038631D01*
X143687250Y-115038630D01*
X143508005Y-115018435D01*
X143507997Y-115018435D01*
X143328751Y-115038630D01*
X143328746Y-115038631D01*
X143158477Y-115098211D01*
X143005738Y-115194184D01*
X142878185Y-115321737D01*
X142782212Y-115474476D01*
X142722632Y-115644745D01*
X142722631Y-115644750D01*
X142702436Y-115823996D01*
X142702436Y-115824003D01*
X134363213Y-115824003D01*
X134389366Y-115749262D01*
X134389369Y-115749249D01*
X134409565Y-115570003D01*
X134409565Y-115569996D01*
X134389369Y-115390750D01*
X134389366Y-115390737D01*
X134333106Y-115229955D01*
X134329544Y-115160176D01*
X134333106Y-115148045D01*
X134389366Y-114987262D01*
X134389369Y-114987249D01*
X134409565Y-114808003D01*
X134409565Y-114807996D01*
X134389369Y-114628750D01*
X134389368Y-114628745D01*
X134363215Y-114554003D01*
X145334465Y-114554003D01*
X145354660Y-114733249D01*
X145354661Y-114733254D01*
X145414241Y-114903523D01*
X145466850Y-114987249D01*
X145510214Y-115056262D01*
X145637768Y-115183816D01*
X145790508Y-115279789D01*
X145960775Y-115339368D01*
X145960780Y-115339369D01*
X146140026Y-115359565D01*
X146140030Y-115359565D01*
X146140034Y-115359565D01*
X146319279Y-115339369D01*
X146319282Y-115339368D01*
X146319285Y-115339368D01*
X146489552Y-115279789D01*
X146642292Y-115183816D01*
X146769846Y-115056262D01*
X146865819Y-114903522D01*
X146925398Y-114733255D01*
X146937173Y-114628750D01*
X146945595Y-114554003D01*
X146945595Y-114553996D01*
X146925399Y-114374750D01*
X146925398Y-114374745D01*
X146865818Y-114204476D01*
X146769845Y-114051737D01*
X146642292Y-113924184D01*
X146489553Y-113828211D01*
X146319284Y-113768631D01*
X146319279Y-113768630D01*
X146140034Y-113748435D01*
X146140026Y-113748435D01*
X145960780Y-113768630D01*
X145960775Y-113768631D01*
X145790506Y-113828211D01*
X145637767Y-113924184D01*
X145510214Y-114051737D01*
X145414241Y-114204476D01*
X145354661Y-114374745D01*
X145354660Y-114374750D01*
X145334465Y-114553996D01*
X145334465Y-114554003D01*
X134363215Y-114554003D01*
X134329789Y-114458478D01*
X134233816Y-114305738D01*
X134106262Y-114178184D01*
X133953523Y-114082211D01*
X133783254Y-114022631D01*
X133783249Y-114022630D01*
X133604004Y-114002435D01*
X133603996Y-114002435D01*
X133424750Y-114022630D01*
X133424745Y-114022631D01*
X133254476Y-114082211D01*
X133101737Y-114178184D01*
X132974184Y-114305737D01*
X132878211Y-114458476D01*
X132818631Y-114628745D01*
X132818630Y-114628750D01*
X132798435Y-114807996D01*
X132798435Y-114808003D01*
X132818630Y-114987249D01*
X132818633Y-114987262D01*
X132874894Y-115148045D01*
X132878456Y-115217824D01*
X132874894Y-115229955D01*
X132818633Y-115390737D01*
X132818630Y-115390750D01*
X132798435Y-115569996D01*
X132798435Y-115570003D01*
X132818630Y-115749249D01*
X132818633Y-115749262D01*
X132874894Y-115910045D01*
X132878456Y-115979824D01*
X132874894Y-115991955D01*
X132818633Y-116152737D01*
X132818630Y-116152750D01*
X132798435Y-116331996D01*
X132798435Y-116332003D01*
X132818630Y-116511249D01*
X132818631Y-116511254D01*
X132878211Y-116681523D01*
X132974184Y-116834262D01*
X133072941Y-116933019D01*
X133106426Y-116994342D01*
X133101442Y-117064034D01*
X133059570Y-117119967D01*
X132994106Y-117144384D01*
X132985260Y-117144700D01*
X131428740Y-117144700D01*
X131361701Y-117125015D01*
X131315946Y-117072211D01*
X131306002Y-117003053D01*
X131335027Y-116939497D01*
X131341059Y-116933019D01*
X131439816Y-116834262D01*
X131535789Y-116681522D01*
X131595368Y-116511255D01*
X131595369Y-116511249D01*
X131615565Y-116332003D01*
X131615565Y-116331996D01*
X131595369Y-116152750D01*
X131595366Y-116152737D01*
X131539106Y-115991955D01*
X131535544Y-115922176D01*
X131539106Y-115910045D01*
X131595366Y-115749262D01*
X131595369Y-115749249D01*
X131615565Y-115570003D01*
X131615565Y-115569996D01*
X131595369Y-115390750D01*
X131595366Y-115390737D01*
X131539106Y-115229955D01*
X131535544Y-115160176D01*
X131539106Y-115148045D01*
X131595366Y-114987262D01*
X131595369Y-114987249D01*
X131615565Y-114808003D01*
X131615565Y-114807996D01*
X131595369Y-114628750D01*
X131595368Y-114628745D01*
X131569215Y-114554003D01*
X131535789Y-114458478D01*
X131439816Y-114305738D01*
X131312262Y-114178184D01*
X131159523Y-114082211D01*
X130989254Y-114022631D01*
X130989249Y-114022630D01*
X130810004Y-114002435D01*
X130809996Y-114002435D01*
X130630750Y-114022630D01*
X130630745Y-114022631D01*
X130460476Y-114082211D01*
X130307737Y-114178184D01*
X130180184Y-114305737D01*
X130084211Y-114458476D01*
X130024631Y-114628745D01*
X130024630Y-114628750D01*
X130004435Y-114807996D01*
X130004435Y-114808003D01*
X130024630Y-114987249D01*
X130024633Y-114987262D01*
X130080894Y-115148045D01*
X130084456Y-115217824D01*
X130080894Y-115229955D01*
X130024633Y-115390737D01*
X130024630Y-115390750D01*
X130004435Y-115569996D01*
X130004435Y-115570003D01*
X130024630Y-115749249D01*
X130024633Y-115749262D01*
X130080894Y-115910045D01*
X130084456Y-115979824D01*
X130080894Y-115991956D01*
X130022815Y-116157932D01*
X129982093Y-116214707D01*
X129917140Y-116240454D01*
X129848579Y-116226997D01*
X129818093Y-116204657D01*
X125592821Y-111979385D01*
X125559336Y-111918062D01*
X125556502Y-111891704D01*
X125556502Y-111359997D01*
X125576187Y-111292958D01*
X125628991Y-111247203D01*
X125698149Y-111237259D01*
X125708104Y-111239108D01*
X125713744Y-111240395D01*
X125713749Y-111240397D01*
X125713754Y-111240397D01*
X125713756Y-111240398D01*
X125893000Y-111260594D01*
X125893004Y-111260594D01*
X125893008Y-111260594D01*
X126072253Y-111240398D01*
X126072255Y-111240397D01*
X126072259Y-111240397D01*
X126072262Y-111240395D01*
X126072266Y-111240395D01*
X126249099Y-111178518D01*
X126249850Y-111180666D01*
X126308132Y-111171064D01*
X126336596Y-111179420D01*
X126336912Y-111178518D01*
X126513752Y-111240397D01*
X126513757Y-111240398D01*
X126693003Y-111260594D01*
X126693007Y-111260594D01*
X126693011Y-111260594D01*
X126872256Y-111240398D01*
X126872258Y-111240397D01*
X126872262Y-111240397D01*
X126872265Y-111240395D01*
X126872269Y-111240395D01*
X127049102Y-111178518D01*
X127049853Y-111180666D01*
X127108135Y-111171064D01*
X127136599Y-111179420D01*
X127136915Y-111178518D01*
X127313755Y-111240397D01*
X127313760Y-111240398D01*
X127493006Y-111260594D01*
X127493010Y-111260594D01*
X127493014Y-111260594D01*
X127672259Y-111240398D01*
X127672261Y-111240397D01*
X127672265Y-111240397D01*
X127672268Y-111240395D01*
X127672272Y-111240395D01*
X127849105Y-111178518D01*
X127849837Y-111180611D01*
X127908314Y-111170968D01*
X127937000Y-111179389D01*
X127937306Y-111178518D01*
X128114146Y-111240397D01*
X128114151Y-111240398D01*
X128293397Y-111260594D01*
X128293401Y-111260594D01*
X128293405Y-111260594D01*
X128472650Y-111240398D01*
X128472653Y-111240397D01*
X128472656Y-111240397D01*
X128642923Y-111180818D01*
X128795663Y-111084845D01*
X128923217Y-110957291D01*
X129019190Y-110804551D01*
X129078769Y-110634284D01*
X129078770Y-110634278D01*
X129098966Y-110455032D01*
X129098966Y-110455025D01*
X129078770Y-110275779D01*
X129078769Y-110275774D01*
X129046580Y-110183784D01*
X129019190Y-110105507D01*
X129015209Y-110099172D01*
X128953789Y-110001422D01*
X128923217Y-109952767D01*
X128795663Y-109825213D01*
X128790596Y-109822029D01*
X128642924Y-109729240D01*
X128472655Y-109669660D01*
X128472650Y-109669659D01*
X128293405Y-109649464D01*
X128293397Y-109649464D01*
X128114151Y-109669659D01*
X128114138Y-109669662D01*
X127937307Y-109731539D01*
X127936576Y-109729451D01*
X127878065Y-109739085D01*
X127849408Y-109730671D01*
X127849105Y-109731540D01*
X127672264Y-109669660D01*
X127672259Y-109669659D01*
X127493014Y-109649464D01*
X127493006Y-109649464D01*
X127313760Y-109669659D01*
X127313747Y-109669662D01*
X127136916Y-109731539D01*
X127136167Y-109729398D01*
X127077831Y-109738987D01*
X127049415Y-109730640D01*
X127049101Y-109731539D01*
X126872269Y-109669662D01*
X126872256Y-109669659D01*
X126693011Y-109649464D01*
X126693003Y-109649464D01*
X126513757Y-109669659D01*
X126513744Y-109669662D01*
X126336913Y-109731539D01*
X126336164Y-109729398D01*
X126277828Y-109738987D01*
X126249412Y-109730640D01*
X126249098Y-109731539D01*
X126072266Y-109669662D01*
X126072253Y-109669659D01*
X125893008Y-109649464D01*
X125893000Y-109649464D01*
X125713749Y-109669660D01*
X125708083Y-109670953D01*
X125638344Y-109666673D01*
X125581991Y-109625369D01*
X125556914Y-109560154D01*
X125556502Y-109550059D01*
X125556502Y-95161296D01*
X125576187Y-95094257D01*
X125628991Y-95048502D01*
X125639545Y-95044255D01*
X125690523Y-95026418D01*
X125843263Y-94930445D01*
X125970817Y-94802891D01*
X126066790Y-94650151D01*
X126126369Y-94479884D01*
X126146566Y-94300629D01*
X126143967Y-94277565D01*
X126126370Y-94121379D01*
X126126369Y-94121374D01*
X126066789Y-93951105D01*
X125970816Y-93798366D01*
X125858161Y-93685711D01*
X125824676Y-93624388D01*
X125829660Y-93554696D01*
X125871532Y-93498763D01*
X125936996Y-93474346D01*
X125945842Y-93474030D01*
X126275500Y-93474030D01*
X126342539Y-93493715D01*
X126388294Y-93546519D01*
X126399500Y-93598030D01*
X126399500Y-103083106D01*
X126399499Y-103083124D01*
X126399499Y-103248830D01*
X126399498Y-103248830D01*
X126399499Y-103248833D01*
X126434480Y-103379383D01*
X126440423Y-103401560D01*
X126440424Y-103401564D01*
X126468263Y-103449783D01*
X126468264Y-103449783D01*
X126519477Y-103538488D01*
X126519481Y-103538493D01*
X126638349Y-103657361D01*
X126638355Y-103657366D01*
X128852016Y-105871027D01*
X128885501Y-105932350D01*
X128880517Y-106002042D01*
X128838645Y-106057975D01*
X128778220Y-106081928D01*
X128723750Y-106088065D01*
X128723746Y-106088066D01*
X128553477Y-106147646D01*
X128400738Y-106243619D01*
X128273185Y-106371172D01*
X128177212Y-106523911D01*
X128117632Y-106694180D01*
X128117631Y-106694185D01*
X128097436Y-106873431D01*
X128097436Y-106873438D01*
X128117631Y-107052684D01*
X128117634Y-107052697D01*
X128179511Y-107229529D01*
X128177367Y-107230278D01*
X128186961Y-107288596D01*
X128178613Y-107317030D01*
X128179511Y-107317344D01*
X128117634Y-107494175D01*
X128117631Y-107494188D01*
X128097436Y-107673434D01*
X128097436Y-107673441D01*
X128117631Y-107852687D01*
X128117632Y-107852692D01*
X128177212Y-108022961D01*
X128270708Y-108171758D01*
X128273185Y-108175700D01*
X128400739Y-108303254D01*
X128491081Y-108360020D01*
X128544628Y-108393666D01*
X128553479Y-108399227D01*
X128689426Y-108446797D01*
X128723746Y-108458806D01*
X128723751Y-108458807D01*
X128811023Y-108468640D01*
X128875437Y-108495706D01*
X128914992Y-108553301D01*
X128915797Y-108556208D01*
X128976509Y-108729715D01*
X129062002Y-108865775D01*
X129072483Y-108882456D01*
X129200037Y-109010010D01*
X129352777Y-109105983D01*
X129497929Y-109156774D01*
X129523044Y-109165562D01*
X129523049Y-109165563D01*
X129702295Y-109185759D01*
X129702299Y-109185759D01*
X129702303Y-109185759D01*
X129881548Y-109165563D01*
X129881551Y-109165562D01*
X129881554Y-109165562D01*
X130051821Y-109105983D01*
X130204561Y-109010010D01*
X130332115Y-108882456D01*
X130428088Y-108729716D01*
X130442994Y-108687116D01*
X130483714Y-108630340D01*
X130548666Y-108604591D01*
X130617228Y-108618046D01*
X130667632Y-108666432D01*
X130677077Y-108687114D01*
X130719209Y-108807519D01*
X130719211Y-108807522D01*
X130815184Y-108960262D01*
X130942738Y-109087816D01*
X130971649Y-109105982D01*
X131083554Y-109176297D01*
X131095478Y-109183789D01*
X131211215Y-109224287D01*
X131265745Y-109243368D01*
X131265750Y-109243369D01*
X131444996Y-109263565D01*
X131445000Y-109263565D01*
X131445004Y-109263565D01*
X131624249Y-109243369D01*
X131624252Y-109243368D01*
X131624255Y-109243368D01*
X131794522Y-109183789D01*
X131947262Y-109087816D01*
X132074816Y-108960262D01*
X132132355Y-108868689D01*
X132184687Y-108822399D01*
X132253740Y-108811750D01*
X132317589Y-108840125D01*
X132325028Y-108846981D01*
X134824421Y-111346374D01*
X134824431Y-111346385D01*
X134828761Y-111350715D01*
X134828762Y-111350716D01*
X134940566Y-111462520D01*
X135027377Y-111512639D01*
X135027379Y-111512641D01*
X135053230Y-111527566D01*
X135077497Y-111541577D01*
X135230225Y-111582501D01*
X135230228Y-111582501D01*
X135395935Y-111582501D01*
X135395951Y-111582500D01*
X140985860Y-111582500D01*
X140985876Y-111582501D01*
X141030982Y-111582501D01*
X141098021Y-111602186D01*
X141143776Y-111654990D01*
X141153720Y-111724148D01*
X141124695Y-111787704D01*
X141096954Y-111811495D01*
X140968538Y-111892184D01*
X140840985Y-112019737D01*
X140745012Y-112172476D01*
X140685432Y-112342745D01*
X140685431Y-112342750D01*
X140665236Y-112521996D01*
X140665236Y-112522003D01*
X140685431Y-112701249D01*
X140685432Y-112701254D01*
X140745012Y-112871523D01*
X140797621Y-112955249D01*
X140840985Y-113024262D01*
X140968539Y-113151816D01*
X141058881Y-113208582D01*
X141073155Y-113217551D01*
X141121279Y-113247789D01*
X141208366Y-113278262D01*
X141291546Y-113307368D01*
X141291551Y-113307369D01*
X141470797Y-113327565D01*
X141470801Y-113327565D01*
X141470805Y-113327565D01*
X141650050Y-113307369D01*
X141650053Y-113307368D01*
X141650056Y-113307368D01*
X141820323Y-113247789D01*
X141973063Y-113151816D01*
X141993276Y-113131603D01*
X143032636Y-113131603D01*
X143052831Y-113310849D01*
X143052832Y-113310854D01*
X143112412Y-113481123D01*
X143208385Y-113633862D01*
X143335939Y-113761416D01*
X143406401Y-113805690D01*
X143442242Y-113828211D01*
X143488679Y-113857389D01*
X143658946Y-113916968D01*
X143658951Y-113916969D01*
X143838197Y-113937165D01*
X143838201Y-113937165D01*
X143838205Y-113937165D01*
X144017450Y-113916969D01*
X144017453Y-113916968D01*
X144017456Y-113916968D01*
X144187723Y-113857389D01*
X144204028Y-113847143D01*
X144271264Y-113828143D01*
X144335973Y-113847143D01*
X144352277Y-113857388D01*
X144352279Y-113857389D01*
X144522546Y-113916968D01*
X144522551Y-113916969D01*
X144701797Y-113937165D01*
X144701801Y-113937165D01*
X144701805Y-113937165D01*
X144881050Y-113916969D01*
X144881053Y-113916968D01*
X144881056Y-113916968D01*
X145051323Y-113857389D01*
X145204063Y-113761416D01*
X145331617Y-113633862D01*
X145427590Y-113481122D01*
X145487169Y-113310855D01*
X145487562Y-113307368D01*
X145507366Y-113131603D01*
X145507366Y-113131596D01*
X145487170Y-112952350D01*
X145487169Y-112952345D01*
X145458888Y-112871522D01*
X145427590Y-112782078D01*
X145423768Y-112775996D01*
X145331616Y-112629337D01*
X145204063Y-112501784D01*
X145051324Y-112405811D01*
X144881055Y-112346231D01*
X144881050Y-112346230D01*
X144701805Y-112326035D01*
X144701797Y-112326035D01*
X144522551Y-112346230D01*
X144522538Y-112346233D01*
X144352279Y-112405810D01*
X144335969Y-112416058D01*
X144268732Y-112435056D01*
X144204033Y-112416058D01*
X144187722Y-112405810D01*
X144017463Y-112346233D01*
X144017450Y-112346230D01*
X143838205Y-112326035D01*
X143838197Y-112326035D01*
X143658951Y-112346230D01*
X143658946Y-112346231D01*
X143488677Y-112405811D01*
X143335938Y-112501784D01*
X143208385Y-112629337D01*
X143112412Y-112782076D01*
X143052832Y-112952345D01*
X143052831Y-112952350D01*
X143032636Y-113131596D01*
X143032636Y-113131603D01*
X141993276Y-113131603D01*
X142100617Y-113024262D01*
X142196590Y-112871522D01*
X142256169Y-112701255D01*
X142257575Y-112688779D01*
X142276366Y-112522003D01*
X142276366Y-112521997D01*
X142263976Y-112412034D01*
X142276030Y-112343212D01*
X142321221Y-112293158D01*
X142460863Y-112205416D01*
X142588417Y-112077862D01*
X142684390Y-111925122D01*
X142743969Y-111754855D01*
X142755636Y-111651301D01*
X142782702Y-111586889D01*
X142837902Y-111548144D01*
X142862923Y-111539389D01*
X143015663Y-111443416D01*
X143143217Y-111315862D01*
X143239190Y-111163122D01*
X143298769Y-110992855D01*
X143300132Y-110980761D01*
X143318966Y-110813603D01*
X143318966Y-110813596D01*
X143298770Y-110634350D01*
X143298769Y-110634345D01*
X143239189Y-110464076D01*
X143143216Y-110311337D01*
X143015663Y-110183784D01*
X142996412Y-110171688D01*
X142965733Y-110152410D01*
X142919443Y-110100078D01*
X142908794Y-110031024D01*
X142937169Y-109967176D01*
X142944013Y-109959749D01*
X143671593Y-109232169D01*
X145399368Y-109232169D01*
X145419563Y-109411415D01*
X145419564Y-109411420D01*
X145479144Y-109581689D01*
X145544406Y-109685552D01*
X145575117Y-109734428D01*
X145702671Y-109861982D01*
X145774022Y-109906815D01*
X145847152Y-109952766D01*
X145855411Y-109957955D01*
X145902480Y-109974425D01*
X146025678Y-110017534D01*
X146025683Y-110017535D01*
X146204929Y-110037731D01*
X146204933Y-110037731D01*
X146204937Y-110037731D01*
X146384182Y-110017535D01*
X146384185Y-110017534D01*
X146384188Y-110017534D01*
X146554455Y-109957955D01*
X146707195Y-109861982D01*
X146834749Y-109734428D01*
X146930722Y-109581688D01*
X146990301Y-109411421D01*
X146993346Y-109384396D01*
X146998795Y-109336032D01*
X147807836Y-109336032D01*
X147828031Y-109515278D01*
X147828032Y-109515283D01*
X147887612Y-109685552D01*
X147978631Y-109830407D01*
X147983585Y-109838291D01*
X148111139Y-109965845D01*
X148263879Y-110061818D01*
X148388735Y-110105507D01*
X148434146Y-110121397D01*
X148434151Y-110121398D01*
X148613397Y-110141594D01*
X148613401Y-110141594D01*
X148613405Y-110141594D01*
X148792650Y-110121398D01*
X148792653Y-110121397D01*
X148792656Y-110121397D01*
X148962923Y-110061818D01*
X149115663Y-109965845D01*
X149243217Y-109838291D01*
X149339190Y-109685551D01*
X149398769Y-109515284D01*
X149410000Y-109415608D01*
X149418966Y-109336032D01*
X149418966Y-109336025D01*
X149398770Y-109156779D01*
X149398769Y-109156774D01*
X149380996Y-109105982D01*
X149339190Y-108986507D01*
X149243217Y-108833767D01*
X149115663Y-108706213D01*
X149052352Y-108666432D01*
X148962924Y-108610240D01*
X148792655Y-108550660D01*
X148792650Y-108550659D01*
X148613405Y-108530464D01*
X148613397Y-108530464D01*
X148434151Y-108550659D01*
X148434146Y-108550660D01*
X148263877Y-108610240D01*
X148111138Y-108706213D01*
X147983585Y-108833766D01*
X147887612Y-108986505D01*
X147828032Y-109156774D01*
X147828031Y-109156779D01*
X147807836Y-109336025D01*
X147807836Y-109336032D01*
X146998795Y-109336032D01*
X147010498Y-109232169D01*
X147010498Y-109232162D01*
X146990302Y-109052916D01*
X146990301Y-109052911D01*
X146967065Y-108986507D01*
X146930722Y-108882644D01*
X146920122Y-108865775D01*
X146883518Y-108807519D01*
X146834749Y-108729904D01*
X146707195Y-108602350D01*
X146633761Y-108556208D01*
X146554456Y-108506377D01*
X146384187Y-108446797D01*
X146384182Y-108446796D01*
X146204937Y-108426601D01*
X146204929Y-108426601D01*
X146025683Y-108446796D01*
X146025678Y-108446797D01*
X145855409Y-108506377D01*
X145702670Y-108602350D01*
X145575117Y-108729903D01*
X145479144Y-108882642D01*
X145419564Y-109052911D01*
X145419563Y-109052916D01*
X145399368Y-109232162D01*
X145399368Y-109232169D01*
X143671593Y-109232169D01*
X146053907Y-106849856D01*
X146053912Y-106849852D01*
X146064115Y-106839648D01*
X146064117Y-106839648D01*
X146175921Y-106727844D01*
X146231747Y-106631149D01*
X146254978Y-106590913D01*
X146295901Y-106438186D01*
X146295901Y-106355032D01*
X146741036Y-106355032D01*
X146761231Y-106534278D01*
X146761232Y-106534283D01*
X146820812Y-106704552D01*
X146896045Y-106824284D01*
X146916785Y-106857291D01*
X147044339Y-106984845D01*
X147116021Y-107029886D01*
X147152313Y-107052690D01*
X147197079Y-107080818D01*
X147367346Y-107140397D01*
X147367351Y-107140398D01*
X147546597Y-107160594D01*
X147546601Y-107160594D01*
X147546605Y-107160594D01*
X147725850Y-107140398D01*
X147725853Y-107140397D01*
X147725856Y-107140397D01*
X147896123Y-107080818D01*
X148048863Y-106984845D01*
X148176417Y-106857291D01*
X148272390Y-106704551D01*
X148331969Y-106534284D01*
X148337406Y-106486029D01*
X148352166Y-106355032D01*
X148352166Y-106355025D01*
X148331970Y-106175779D01*
X148331969Y-106175774D01*
X148301279Y-106088067D01*
X148272390Y-106005507D01*
X148176417Y-105852767D01*
X148048863Y-105725213D01*
X147979866Y-105681859D01*
X147896124Y-105629240D01*
X147725855Y-105569660D01*
X147725850Y-105569659D01*
X147546605Y-105549464D01*
X147546597Y-105549464D01*
X147367351Y-105569659D01*
X147367346Y-105569660D01*
X147197077Y-105629240D01*
X147044338Y-105725213D01*
X146916785Y-105852766D01*
X146820812Y-106005505D01*
X146761232Y-106175774D01*
X146761231Y-106175779D01*
X146741036Y-106355025D01*
X146741036Y-106355032D01*
X146295901Y-106355032D01*
X146295901Y-106280071D01*
X146295901Y-102251222D01*
X146313434Y-102191510D01*
X146522955Y-102191510D01*
X146538878Y-102216287D01*
X146543121Y-102237339D01*
X146558031Y-102369678D01*
X146558032Y-102369683D01*
X146617612Y-102539952D01*
X146658740Y-102605406D01*
X146713585Y-102692691D01*
X146841139Y-102820245D01*
X146993879Y-102916218D01*
X147111456Y-102957360D01*
X147164146Y-102975797D01*
X147164151Y-102975798D01*
X147248245Y-102985273D01*
X147312659Y-103012339D01*
X147352214Y-103069934D01*
X147357582Y-103122376D01*
X147350636Y-103184025D01*
X147350636Y-103184032D01*
X147370831Y-103363278D01*
X147370834Y-103363291D01*
X147430410Y-103533549D01*
X147459543Y-103579914D01*
X147478543Y-103647151D01*
X147459544Y-103711855D01*
X147407610Y-103794509D01*
X147348034Y-103964766D01*
X147348031Y-103964779D01*
X147327836Y-104144025D01*
X147327836Y-104144032D01*
X147348031Y-104323278D01*
X147348032Y-104323283D01*
X147407612Y-104493552D01*
X147471531Y-104595278D01*
X147503585Y-104646291D01*
X147631139Y-104773845D01*
X147783879Y-104869818D01*
X147899550Y-104910293D01*
X147954146Y-104929397D01*
X147954151Y-104929398D01*
X148133397Y-104949594D01*
X148133401Y-104949594D01*
X148133405Y-104949594D01*
X148312650Y-104929398D01*
X148312653Y-104929397D01*
X148312656Y-104929397D01*
X148482923Y-104869818D01*
X148635663Y-104773845D01*
X148763217Y-104646291D01*
X148859190Y-104493551D01*
X148918769Y-104323284D01*
X148918770Y-104323278D01*
X148938966Y-104144032D01*
X148938966Y-104144025D01*
X148918770Y-103964779D01*
X148918767Y-103964766D01*
X148859190Y-103794507D01*
X148830058Y-103748142D01*
X148811058Y-103680905D01*
X148830059Y-103616198D01*
X148881989Y-103533553D01*
X148881990Y-103533551D01*
X148941569Y-103363284D01*
X148942462Y-103355362D01*
X148961766Y-103184032D01*
X148961766Y-103184025D01*
X148941570Y-103004779D01*
X148941569Y-103004774D01*
X148931775Y-102976784D01*
X148881990Y-102834507D01*
X148879715Y-102830887D01*
X148804867Y-102711767D01*
X148786017Y-102681767D01*
X148658463Y-102554213D01*
X148635765Y-102539951D01*
X148505724Y-102458240D01*
X148335455Y-102398660D01*
X148335451Y-102398659D01*
X148251355Y-102389184D01*
X148186941Y-102362117D01*
X148147386Y-102304522D01*
X148142019Y-102252082D01*
X148148966Y-102190429D01*
X148148468Y-102186010D01*
X148128770Y-102011179D01*
X148128769Y-102011174D01*
X148078892Y-101868634D01*
X148069190Y-101840907D01*
X147973217Y-101688167D01*
X147845663Y-101560613D01*
X147810956Y-101538805D01*
X147692924Y-101464640D01*
X147522655Y-101405060D01*
X147522650Y-101405059D01*
X147343405Y-101384864D01*
X147343397Y-101384864D01*
X147164151Y-101405059D01*
X147164146Y-101405060D01*
X146993877Y-101464640D01*
X146841138Y-101560613D01*
X146713585Y-101688166D01*
X146617612Y-101840905D01*
X146558032Y-102011174D01*
X146558031Y-102011179D01*
X146543121Y-102143518D01*
X146522955Y-102191510D01*
X146313434Y-102191510D01*
X146315049Y-102186010D01*
X146297761Y-102151029D01*
X146295901Y-102129635D01*
X146295901Y-101590166D01*
X146315586Y-101523127D01*
X146332215Y-101502490D01*
X147482744Y-100351960D01*
X147544065Y-100318477D01*
X147613757Y-100323461D01*
X147669690Y-100365333D01*
X147682142Y-100385838D01*
X147684412Y-100390551D01*
X147780385Y-100543291D01*
X147907939Y-100670845D01*
X148060679Y-100766818D01*
X148182800Y-100809550D01*
X148230946Y-100826397D01*
X148230951Y-100826398D01*
X148410197Y-100846594D01*
X148410201Y-100846594D01*
X148410205Y-100846594D01*
X148589450Y-100826398D01*
X148589453Y-100826397D01*
X148589456Y-100826397D01*
X148759723Y-100766818D01*
X148912463Y-100670845D01*
X149040017Y-100543291D01*
X149135990Y-100390551D01*
X149195569Y-100220284D01*
X149195611Y-100219913D01*
X149214081Y-100055987D01*
X149219665Y-100042696D01*
X149218017Y-100039360D01*
X149454936Y-100039360D01*
X149459441Y-100048476D01*
X149460521Y-100055987D01*
X149479031Y-100220278D01*
X149479032Y-100220283D01*
X149538612Y-100390552D01*
X149565184Y-100432840D01*
X149634585Y-100543291D01*
X149762139Y-100670845D01*
X149914879Y-100766818D01*
X150037000Y-100809550D01*
X150085146Y-100826397D01*
X150085151Y-100826398D01*
X150264397Y-100846594D01*
X150264401Y-100846594D01*
X150264405Y-100846594D01*
X150443650Y-100826398D01*
X150443653Y-100826397D01*
X150443656Y-100826397D01*
X150613923Y-100766818D01*
X150766663Y-100670845D01*
X150894217Y-100543291D01*
X150990190Y-100390551D01*
X151049769Y-100220284D01*
X151052232Y-100198421D01*
X151079295Y-100134009D01*
X151136888Y-100094451D01*
X151206725Y-100092310D01*
X151216407Y-100095260D01*
X151228146Y-100099368D01*
X151228149Y-100099368D01*
X151228151Y-100099369D01*
X151407397Y-100119565D01*
X151407401Y-100119565D01*
X151407405Y-100119565D01*
X151586650Y-100099369D01*
X151586653Y-100099368D01*
X151586656Y-100099368D01*
X151756923Y-100039789D01*
X151909663Y-99943816D01*
X152037217Y-99816262D01*
X152133190Y-99663522D01*
X152192769Y-99493255D01*
X152196895Y-99456635D01*
X152212966Y-99314003D01*
X152212966Y-99313996D01*
X152192770Y-99134750D01*
X152192769Y-99134745D01*
X152182155Y-99104413D01*
X152133190Y-98964478D01*
X152037217Y-98811738D01*
X151909663Y-98684184D01*
X151890210Y-98671961D01*
X151756924Y-98588211D01*
X151586655Y-98528631D01*
X151586650Y-98528630D01*
X151407405Y-98508435D01*
X151407397Y-98508435D01*
X151228151Y-98528630D01*
X151228146Y-98528631D01*
X151057877Y-98588211D01*
X150905138Y-98684184D01*
X150777585Y-98811737D01*
X150681611Y-98964478D01*
X150622032Y-99134747D01*
X150622031Y-99134751D01*
X150619568Y-99156613D01*
X150592499Y-99221026D01*
X150534903Y-99260580D01*
X150465066Y-99262715D01*
X150455395Y-99259768D01*
X150443655Y-99255660D01*
X150264405Y-99235464D01*
X150264397Y-99235464D01*
X150085151Y-99255659D01*
X150085146Y-99255660D01*
X149914877Y-99315240D01*
X149762138Y-99411213D01*
X149634585Y-99538766D01*
X149538612Y-99691505D01*
X149479032Y-99861774D01*
X149479031Y-99861779D01*
X149460521Y-100026070D01*
X149454936Y-100039360D01*
X149218017Y-100039360D01*
X149215161Y-100033581D01*
X149214081Y-100026070D01*
X149195570Y-99861779D01*
X149195569Y-99861774D01*
X149152398Y-99738398D01*
X149135990Y-99691507D01*
X149128016Y-99678817D01*
X149067712Y-99582844D01*
X149040017Y-99538767D01*
X148912463Y-99411213D01*
X148759723Y-99315240D01*
X148755010Y-99312970D01*
X148703152Y-99266146D01*
X148684841Y-99198718D01*
X148705891Y-99132095D01*
X148721128Y-99113576D01*
X149315887Y-98518819D01*
X149377210Y-98485334D01*
X149403568Y-98482500D01*
X149681331Y-98482500D01*
X149681347Y-98482501D01*
X149688943Y-98482501D01*
X149847054Y-98482501D01*
X149847057Y-98482501D01*
X149999785Y-98441577D01*
X150049904Y-98412639D01*
X150136716Y-98362520D01*
X150248520Y-98250716D01*
X150248520Y-98250714D01*
X150258728Y-98240507D01*
X150258730Y-98240504D01*
X150386535Y-98112698D01*
X150447856Y-98079215D01*
X150460311Y-98077163D01*
X150547255Y-98067368D01*
X150717522Y-98007789D01*
X150870262Y-97911816D01*
X150997816Y-97784262D01*
X151093789Y-97631522D01*
X151153368Y-97461255D01*
X151154246Y-97453464D01*
X151173565Y-97282003D01*
X151173565Y-97281996D01*
X151153369Y-97102750D01*
X151153368Y-97102745D01*
X151098282Y-96945318D01*
X151093789Y-96932478D01*
X151090975Y-96928000D01*
X151032392Y-96834766D01*
X150997816Y-96779738D01*
X150870262Y-96652184D01*
X150840266Y-96633336D01*
X150717523Y-96556211D01*
X150547254Y-96496631D01*
X150547249Y-96496630D01*
X150368004Y-96476435D01*
X150367996Y-96476435D01*
X150188750Y-96496630D01*
X150188745Y-96496631D01*
X150018476Y-96556211D01*
X149925972Y-96614336D01*
X149858735Y-96633336D01*
X149794028Y-96614336D01*
X149701520Y-96556209D01*
X149622144Y-96528434D01*
X149565369Y-96487712D01*
X149539622Y-96422759D01*
X149539100Y-96411393D01*
X149539100Y-93472003D01*
X151823035Y-93472003D01*
X151843230Y-93651249D01*
X151843231Y-93651254D01*
X151902811Y-93821523D01*
X151984233Y-93951105D01*
X151998784Y-93974262D01*
X152126338Y-94101816D01*
X152216680Y-94158582D01*
X152230128Y-94167032D01*
X152279078Y-94197789D01*
X152449345Y-94257368D01*
X152449350Y-94257369D01*
X152628596Y-94277565D01*
X152628600Y-94277565D01*
X152628604Y-94277565D01*
X152807849Y-94257369D01*
X152807852Y-94257368D01*
X152807855Y-94257368D01*
X152978122Y-94197789D01*
X153130862Y-94101816D01*
X153258416Y-93974262D01*
X153354389Y-93821522D01*
X153413968Y-93651255D01*
X153422578Y-93574838D01*
X153434165Y-93472003D01*
X153434165Y-93471996D01*
X153413969Y-93292750D01*
X153413968Y-93292745D01*
X153396298Y-93242246D01*
X153354389Y-93122478D01*
X153258416Y-92969738D01*
X153130862Y-92842184D01*
X153106208Y-92826693D01*
X152978123Y-92746211D01*
X152807854Y-92686631D01*
X152807849Y-92686630D01*
X152628604Y-92666435D01*
X152628596Y-92666435D01*
X152449350Y-92686630D01*
X152449345Y-92686631D01*
X152279076Y-92746211D01*
X152126337Y-92842184D01*
X151998784Y-92969737D01*
X151902811Y-93122476D01*
X151843231Y-93292745D01*
X151843230Y-93292750D01*
X151823035Y-93471996D01*
X151823035Y-93472003D01*
X149539100Y-93472003D01*
X149539100Y-92050899D01*
X149558785Y-91983860D01*
X149611589Y-91938105D01*
X149663100Y-91926899D01*
X150986471Y-91926899D01*
X150986472Y-91926899D01*
X151046083Y-91920491D01*
X151180931Y-91870196D01*
X151296146Y-91783946D01*
X151382396Y-91668731D01*
X151431410Y-91537316D01*
X151473281Y-91481384D01*
X151538745Y-91456966D01*
X151607018Y-91471817D01*
X151635273Y-91492969D01*
X151757199Y-91614895D01*
X151853984Y-91682665D01*
X151950765Y-91750432D01*
X151950767Y-91750433D01*
X151950770Y-91750435D01*
X152164937Y-91850303D01*
X152393192Y-91911463D01*
X152581518Y-91927939D01*
X152628599Y-91932059D01*
X152628600Y-91932059D01*
X152628601Y-91932059D01*
X152667834Y-91928626D01*
X152864008Y-91911463D01*
X153092263Y-91850303D01*
X153306430Y-91750435D01*
X153500001Y-91614895D01*
X153649320Y-91465576D01*
X153710643Y-91432091D01*
X153780335Y-91437075D01*
X153836268Y-91478947D01*
X153860685Y-91544411D01*
X153861001Y-91553257D01*
X153861001Y-102346887D01*
X153841316Y-102413926D01*
X153788512Y-102459681D01*
X153719354Y-102469625D01*
X153696047Y-102463929D01*
X153595257Y-102428661D01*
X153595249Y-102428659D01*
X153416004Y-102408464D01*
X153415996Y-102408464D01*
X153236750Y-102428659D01*
X153236745Y-102428660D01*
X153066476Y-102488240D01*
X152913737Y-102584213D01*
X152786184Y-102711766D01*
X152690211Y-102864505D01*
X152630631Y-103034774D01*
X152630630Y-103034779D01*
X152610435Y-103214025D01*
X152610435Y-103214032D01*
X152630630Y-103393278D01*
X152630631Y-103393283D01*
X152690211Y-103563552D01*
X152744717Y-103650297D01*
X152786184Y-103716291D01*
X152913738Y-103843845D01*
X153066478Y-103939818D01*
X153225022Y-103995295D01*
X153236745Y-103999397D01*
X153236750Y-103999398D01*
X153415996Y-104019594D01*
X153416000Y-104019594D01*
X153416004Y-104019594D01*
X153595249Y-103999398D01*
X153595251Y-103999397D01*
X153595255Y-103999397D01*
X153595258Y-103999395D01*
X153595262Y-103999395D01*
X153696046Y-103964129D01*
X153765825Y-103960566D01*
X153826452Y-103995295D01*
X153858680Y-104057288D01*
X153861001Y-104081170D01*
X153861001Y-124842129D01*
X153841316Y-124909168D01*
X153788512Y-124954923D01*
X153737001Y-124966129D01*
X138060864Y-124966129D01*
X137993825Y-124946444D01*
X137948070Y-124893640D01*
X137938126Y-124824482D01*
X137967151Y-124760926D01*
X137973183Y-124754448D01*
X137987742Y-124739888D01*
X137987746Y-124739883D01*
X138096448Y-124590266D01*
X138180416Y-124425472D01*
X138180417Y-124425469D01*
X138237567Y-124249576D01*
X138266501Y-124066902D01*
X138266501Y-124049429D01*
X137441501Y-124049429D01*
X137441501Y-123549429D01*
X138266501Y-123549429D01*
X138266501Y-123531955D01*
X138237567Y-123349281D01*
X138180417Y-123173388D01*
X138180416Y-123173385D01*
X138096448Y-123008591D01*
X137987746Y-122858974D01*
X137987742Y-122858969D01*
X137856960Y-122728187D01*
X137856955Y-122728183D01*
X137707338Y-122619481D01*
X137542544Y-122535513D01*
X137542538Y-122535511D01*
X137366645Y-122478361D01*
X137341501Y-122474379D01*
X137341501Y-123304454D01*
X137306406Y-123269359D01*
X137226596Y-123223281D01*
X137137579Y-123199429D01*
X137045423Y-123199429D01*
X136956406Y-123223281D01*
X136876596Y-123269359D01*
X136841501Y-123304454D01*
X136841501Y-122474379D01*
X136841500Y-122474379D01*
X136816356Y-122478361D01*
X136640463Y-122535511D01*
X136640457Y-122535513D01*
X136475663Y-122619481D01*
X136326046Y-122728183D01*
X136326041Y-122728187D01*
X136195259Y-122858969D01*
X136195255Y-122858974D01*
X136086553Y-123008591D01*
X136002585Y-123173385D01*
X136002584Y-123173388D01*
X135945434Y-123349281D01*
X135916501Y-123531955D01*
X135916501Y-123549429D01*
X136741501Y-123549429D01*
X136741501Y-124049429D01*
X135916501Y-124049429D01*
X135916501Y-124066902D01*
X135945434Y-124249576D01*
X136002584Y-124425469D01*
X136002585Y-124425472D01*
X136086553Y-124590266D01*
X136195255Y-124739883D01*
X136195259Y-124739888D01*
X136209819Y-124754448D01*
X136243304Y-124815771D01*
X136238320Y-124885463D01*
X136196448Y-124941396D01*
X136130984Y-124965813D01*
X136122138Y-124966129D01*
X132600864Y-124966129D01*
X132533825Y-124946444D01*
X132488070Y-124893640D01*
X132478126Y-124824482D01*
X132507151Y-124760926D01*
X132513183Y-124754448D01*
X132527742Y-124739888D01*
X132527746Y-124739883D01*
X132636448Y-124590266D01*
X132720416Y-124425472D01*
X132720417Y-124425469D01*
X132777567Y-124249576D01*
X132806501Y-124066902D01*
X132806501Y-124049429D01*
X131981501Y-124049429D01*
X131981501Y-123549429D01*
X132806501Y-123549429D01*
X132806501Y-123531955D01*
X132777567Y-123349281D01*
X132720417Y-123173388D01*
X132720416Y-123173385D01*
X132636448Y-123008591D01*
X132527746Y-122858974D01*
X132527742Y-122858969D01*
X132396960Y-122728187D01*
X132396955Y-122728183D01*
X132247338Y-122619481D01*
X132082544Y-122535513D01*
X132082538Y-122535511D01*
X131906645Y-122478361D01*
X131881501Y-122474379D01*
X131881501Y-123304454D01*
X131846406Y-123269359D01*
X131766596Y-123223281D01*
X131677579Y-123199429D01*
X131585423Y-123199429D01*
X131496406Y-123223281D01*
X131416596Y-123269359D01*
X131381501Y-123304454D01*
X131381501Y-122474379D01*
X131381500Y-122474379D01*
X131356356Y-122478361D01*
X131180463Y-122535511D01*
X131180457Y-122535513D01*
X131015663Y-122619481D01*
X130866046Y-122728183D01*
X130866041Y-122728187D01*
X130735259Y-122858969D01*
X130735255Y-122858974D01*
X130626553Y-123008591D01*
X130542585Y-123173385D01*
X130542584Y-123173388D01*
X130485434Y-123349281D01*
X130456501Y-123531955D01*
X130456501Y-123549429D01*
X131281501Y-123549429D01*
X131281501Y-124049429D01*
X130456501Y-124049429D01*
X130456501Y-124066902D01*
X130485434Y-124249576D01*
X130542584Y-124425469D01*
X130542585Y-124425472D01*
X130626553Y-124590266D01*
X130735255Y-124739883D01*
X130735259Y-124739888D01*
X130749819Y-124754448D01*
X130783304Y-124815771D01*
X130778320Y-124885463D01*
X130736448Y-124941396D01*
X130670984Y-124965813D01*
X130662138Y-124966129D01*
X124726973Y-124966129D01*
X124659934Y-124946444D01*
X124614179Y-124893640D01*
X124604235Y-124824482D01*
X124633260Y-124760926D01*
X124658080Y-124739028D01*
X124768784Y-124665059D01*
X127713299Y-121720541D01*
X127774620Y-121687058D01*
X127829369Y-121690419D01*
X127829963Y-121687820D01*
X127836748Y-121689369D01*
X128015996Y-121709565D01*
X128016000Y-121709565D01*
X128016004Y-121709565D01*
X128195249Y-121689369D01*
X128195251Y-121689368D01*
X128195255Y-121689368D01*
X128195258Y-121689366D01*
X128195262Y-121689366D01*
X128263585Y-121665459D01*
X128304540Y-121658500D01*
X128489460Y-121658500D01*
X128530415Y-121665459D01*
X128598737Y-121689366D01*
X128598743Y-121689367D01*
X128598745Y-121689368D01*
X128598746Y-121689368D01*
X128598750Y-121689369D01*
X128777996Y-121709565D01*
X128778000Y-121709565D01*
X128778004Y-121709565D01*
X128957249Y-121689369D01*
X128957252Y-121689368D01*
X128957255Y-121689368D01*
X129127522Y-121629789D01*
X129280262Y-121533816D01*
X129407816Y-121406262D01*
X129503789Y-121253522D01*
X129556512Y-121102849D01*
X130891501Y-121102849D01*
X130931849Y-121305695D01*
X130931851Y-121305703D01*
X131011001Y-121496787D01*
X131011006Y-121496797D01*
X131125911Y-121668764D01*
X131125914Y-121668768D01*
X131272161Y-121815015D01*
X131272165Y-121815018D01*
X131444132Y-121929923D01*
X131444142Y-121929928D01*
X131635224Y-122009077D01*
X131635226Y-122009078D01*
X131691501Y-122020271D01*
X131691501Y-121209047D01*
X131741947Y-121259493D01*
X131816056Y-121302280D01*
X131898714Y-121324429D01*
X131984288Y-121324429D01*
X132066946Y-121302280D01*
X132141055Y-121259493D01*
X132191501Y-121209047D01*
X132191501Y-122020271D01*
X132247775Y-122009078D01*
X132247777Y-122009077D01*
X132438859Y-121929928D01*
X132438869Y-121929923D01*
X132610836Y-121815018D01*
X132610840Y-121815015D01*
X132757087Y-121668768D01*
X132757090Y-121668764D01*
X132871995Y-121496797D01*
X132872000Y-121496787D01*
X132951150Y-121305703D01*
X132951152Y-121305695D01*
X132991500Y-121102849D01*
X135731501Y-121102849D01*
X135771849Y-121305695D01*
X135771851Y-121305703D01*
X135851001Y-121496787D01*
X135851006Y-121496797D01*
X135965911Y-121668764D01*
X135965914Y-121668768D01*
X136112161Y-121815015D01*
X136112165Y-121815018D01*
X136284132Y-121929923D01*
X136284142Y-121929928D01*
X136475224Y-122009077D01*
X136475226Y-122009078D01*
X136531501Y-122020271D01*
X136531501Y-121209047D01*
X136581947Y-121259493D01*
X136656056Y-121302280D01*
X136738714Y-121324429D01*
X136824288Y-121324429D01*
X136906946Y-121302280D01*
X136981055Y-121259493D01*
X137031501Y-121209047D01*
X137031501Y-122020271D01*
X137087775Y-122009078D01*
X137087777Y-122009077D01*
X137278859Y-121929928D01*
X137278869Y-121929923D01*
X137450836Y-121815018D01*
X137450840Y-121815015D01*
X137597087Y-121668768D01*
X137597090Y-121668764D01*
X137711995Y-121496797D01*
X137712000Y-121496787D01*
X137791150Y-121305703D01*
X137791152Y-121305695D01*
X137831500Y-121102849D01*
X137831501Y-121102846D01*
X137831501Y-121049429D01*
X137104568Y-121049429D01*
X137106501Y-121042216D01*
X137106501Y-121033003D01*
X138183235Y-121033003D01*
X138203430Y-121212249D01*
X138203431Y-121212254D01*
X138263011Y-121382523D01*
X138334815Y-121496797D01*
X138358984Y-121535262D01*
X138486538Y-121662816D01*
X138639278Y-121758789D01*
X138799963Y-121815015D01*
X138809545Y-121818368D01*
X138809550Y-121818369D01*
X138988796Y-121838565D01*
X138988800Y-121838565D01*
X138988804Y-121838565D01*
X139168049Y-121818369D01*
X139168052Y-121818368D01*
X139168055Y-121818368D01*
X139338322Y-121758789D01*
X139491062Y-121662816D01*
X139618616Y-121535262D01*
X139714589Y-121382522D01*
X139774168Y-121212255D01*
X139774169Y-121212249D01*
X139794365Y-121033003D01*
X139794365Y-121032996D01*
X139774169Y-120853750D01*
X139774168Y-120853745D01*
X139755907Y-120801558D01*
X139714589Y-120683478D01*
X139618616Y-120530738D01*
X139491062Y-120403184D01*
X139389495Y-120339365D01*
X139338323Y-120307211D01*
X139168054Y-120247631D01*
X139168049Y-120247630D01*
X138988804Y-120227435D01*
X138988796Y-120227435D01*
X138809550Y-120247630D01*
X138809545Y-120247631D01*
X138639276Y-120307211D01*
X138486537Y-120403184D01*
X138358984Y-120530737D01*
X138263011Y-120683476D01*
X138203431Y-120853745D01*
X138203430Y-120853750D01*
X138183235Y-121032996D01*
X138183235Y-121033003D01*
X137106501Y-121033003D01*
X137106501Y-120556642D01*
X137104568Y-120549429D01*
X137831501Y-120549429D01*
X137831501Y-120496012D01*
X137831500Y-120496008D01*
X137791152Y-120293162D01*
X137791150Y-120293154D01*
X137712000Y-120102070D01*
X137711995Y-120102060D01*
X137597090Y-119930093D01*
X137597087Y-119930089D01*
X137450840Y-119783842D01*
X137450836Y-119783839D01*
X137278869Y-119668934D01*
X137278859Y-119668929D01*
X137087773Y-119589778D01*
X137087768Y-119589776D01*
X137031501Y-119578584D01*
X137031501Y-120389811D01*
X136981055Y-120339365D01*
X136906946Y-120296578D01*
X136824288Y-120274429D01*
X136738714Y-120274429D01*
X136656056Y-120296578D01*
X136581947Y-120339365D01*
X136531501Y-120389811D01*
X136531501Y-119578585D01*
X136531500Y-119578584D01*
X136475233Y-119589776D01*
X136475228Y-119589778D01*
X136284142Y-119668929D01*
X136284132Y-119668934D01*
X136112165Y-119783839D01*
X136112161Y-119783842D01*
X135965914Y-119930089D01*
X135965911Y-119930093D01*
X135851006Y-120102060D01*
X135851001Y-120102070D01*
X135771851Y-120293154D01*
X135771849Y-120293162D01*
X135731501Y-120496008D01*
X135731501Y-120549429D01*
X136458434Y-120549429D01*
X136456501Y-120556642D01*
X136456501Y-121042216D01*
X136458434Y-121049429D01*
X135731501Y-121049429D01*
X135731501Y-121102849D01*
X132991500Y-121102849D01*
X132991501Y-121102846D01*
X132991501Y-121049429D01*
X132264568Y-121049429D01*
X132266501Y-121042216D01*
X132266501Y-120556642D01*
X132264568Y-120549429D01*
X132991501Y-120549429D01*
X132991501Y-120496012D01*
X132991500Y-120496008D01*
X132951152Y-120293162D01*
X132951150Y-120293154D01*
X132872000Y-120102070D01*
X132871995Y-120102060D01*
X132757090Y-119930093D01*
X132757087Y-119930089D01*
X132610840Y-119783842D01*
X132610836Y-119783839D01*
X132438869Y-119668934D01*
X132438859Y-119668929D01*
X132247773Y-119589778D01*
X132247768Y-119589776D01*
X132191501Y-119578584D01*
X132191501Y-120389811D01*
X132141055Y-120339365D01*
X132066946Y-120296578D01*
X131984288Y-120274429D01*
X131898714Y-120274429D01*
X131816056Y-120296578D01*
X131741947Y-120339365D01*
X131691501Y-120389811D01*
X131691501Y-119578585D01*
X131691500Y-119578584D01*
X131635233Y-119589776D01*
X131635228Y-119589778D01*
X131444142Y-119668929D01*
X131444132Y-119668934D01*
X131272165Y-119783839D01*
X131272161Y-119783842D01*
X131125914Y-119930089D01*
X131125911Y-119930093D01*
X131011006Y-120102060D01*
X131011001Y-120102070D01*
X130931851Y-120293154D01*
X130931849Y-120293162D01*
X130891501Y-120496008D01*
X130891501Y-120549429D01*
X131618434Y-120549429D01*
X131616501Y-120556642D01*
X131616501Y-121042216D01*
X131618434Y-121049429D01*
X130891501Y-121049429D01*
X130891501Y-121102849D01*
X129556512Y-121102849D01*
X129563368Y-121083255D01*
X129563369Y-121083249D01*
X129583565Y-120904003D01*
X129583565Y-120903996D01*
X129563369Y-120724750D01*
X129563368Y-120724745D01*
X129503788Y-120554476D01*
X129453211Y-120473984D01*
X129407816Y-120401738D01*
X129280262Y-120274184D01*
X129238002Y-120247630D01*
X129127523Y-120178211D01*
X128957254Y-120118631D01*
X128957249Y-120118630D01*
X128778004Y-120098435D01*
X128777996Y-120098435D01*
X128598750Y-120118630D01*
X128598737Y-120118633D01*
X128530415Y-120142541D01*
X128489460Y-120149500D01*
X128304540Y-120149500D01*
X128263585Y-120142541D01*
X128195262Y-120118633D01*
X128195249Y-120118630D01*
X128016004Y-120098435D01*
X128015996Y-120098435D01*
X127836750Y-120118630D01*
X127836737Y-120118633D01*
X127768415Y-120142541D01*
X127727460Y-120149500D01*
X127542540Y-120149500D01*
X127501585Y-120142541D01*
X127433262Y-120118633D01*
X127433249Y-120118630D01*
X127254004Y-120098435D01*
X127253996Y-120098435D01*
X127074750Y-120118630D01*
X127074745Y-120118631D01*
X126904476Y-120178211D01*
X126751737Y-120274184D01*
X126624184Y-120401737D01*
X126528210Y-120554478D01*
X126468630Y-120724750D01*
X126459976Y-120801558D01*
X126432909Y-120865972D01*
X126424437Y-120875355D01*
X125186684Y-122113107D01*
X125125361Y-122146592D01*
X125055669Y-122141608D01*
X125033031Y-122130420D01*
X124886123Y-122038111D01*
X124715854Y-121978531D01*
X124715849Y-121978530D01*
X124536604Y-121958335D01*
X124536596Y-121958335D01*
X124357350Y-121978530D01*
X124357345Y-121978531D01*
X124187076Y-122038111D01*
X124034337Y-122134084D01*
X123906784Y-122261637D01*
X123810811Y-122414376D01*
X123751231Y-122584645D01*
X123751230Y-122584650D01*
X123731035Y-122763896D01*
X123731035Y-122763903D01*
X123751230Y-122943149D01*
X123751231Y-122943154D01*
X123810811Y-123113424D01*
X123824072Y-123134527D01*
X123843073Y-123201763D01*
X123822706Y-123268599D01*
X123769439Y-123313813D01*
X123719079Y-123324500D01*
X123224540Y-123324500D01*
X123183585Y-123317541D01*
X123115262Y-123293633D01*
X123115249Y-123293630D01*
X122936004Y-123273435D01*
X122935996Y-123273435D01*
X122756750Y-123293630D01*
X122756737Y-123293633D01*
X122688415Y-123317541D01*
X122647460Y-123324500D01*
X122462540Y-123324500D01*
X122421585Y-123317541D01*
X122353262Y-123293633D01*
X122353249Y-123293630D01*
X122174004Y-123273435D01*
X122173996Y-123273435D01*
X121994750Y-123293630D01*
X121994737Y-123293633D01*
X121926415Y-123317541D01*
X121885460Y-123324500D01*
X121700540Y-123324500D01*
X121659585Y-123317541D01*
X121591262Y-123293633D01*
X121591249Y-123293630D01*
X121412004Y-123273435D01*
X121411996Y-123273435D01*
X121232750Y-123293630D01*
X121232745Y-123293631D01*
X121062476Y-123353211D01*
X120909737Y-123449184D01*
X120782184Y-123576737D01*
X120686211Y-123729476D01*
X120626631Y-123899745D01*
X120626630Y-123899750D01*
X120606435Y-124078996D01*
X120606435Y-124079003D01*
X120626630Y-124258249D01*
X120626631Y-124258254D01*
X120686211Y-124428523D01*
X120782184Y-124581262D01*
X120909738Y-124708816D01*
X120954808Y-124737135D01*
X121001099Y-124789470D01*
X121011747Y-124858523D01*
X120983372Y-124922372D01*
X120924983Y-124960744D01*
X120888836Y-124966129D01*
X114986001Y-124966129D01*
X114918962Y-124946444D01*
X114873207Y-124893640D01*
X114862001Y-124842129D01*
X114862001Y-117475003D01*
X119590435Y-117475003D01*
X119610630Y-117654249D01*
X119610631Y-117654254D01*
X119670211Y-117824523D01*
X119769889Y-117983158D01*
X119767330Y-117984765D01*
X119788686Y-118036978D01*
X119775976Y-118105682D01*
X119770333Y-118115658D01*
X119674310Y-118268476D01*
X119614730Y-118438745D01*
X119614729Y-118438750D01*
X119594534Y-118617996D01*
X119594534Y-118618003D01*
X119614729Y-118797249D01*
X119614730Y-118797254D01*
X119674310Y-118967523D01*
X119753220Y-119093106D01*
X119770283Y-119120262D01*
X119897837Y-119247816D01*
X120050577Y-119343789D01*
X120220844Y-119403368D01*
X120220849Y-119403369D01*
X120400095Y-119423565D01*
X120400099Y-119423565D01*
X120400103Y-119423565D01*
X120579348Y-119403369D01*
X120579351Y-119403368D01*
X120579354Y-119403368D01*
X120749621Y-119343789D01*
X120902361Y-119247816D01*
X121029915Y-119120262D01*
X121125888Y-118967522D01*
X121185467Y-118797255D01*
X121187973Y-118775014D01*
X121205664Y-118618003D01*
X121205664Y-118617996D01*
X121185468Y-118438750D01*
X121185467Y-118438745D01*
X121159314Y-118364003D01*
X121125888Y-118268478D01*
X121029915Y-118115738D01*
X121029914Y-118115737D01*
X121026210Y-118109842D01*
X121028753Y-118108243D01*
X121007402Y-118055913D01*
X121020172Y-117987220D01*
X121025766Y-117977341D01*
X121025816Y-117977262D01*
X121121789Y-117824522D01*
X121181368Y-117654255D01*
X121183176Y-117638211D01*
X121201565Y-117475003D01*
X121201565Y-117474996D01*
X121181369Y-117295750D01*
X121181368Y-117295745D01*
X121121789Y-117125478D01*
X121025816Y-116972738D01*
X120898262Y-116845184D01*
X120880880Y-116834262D01*
X120745523Y-116749211D01*
X120575254Y-116689631D01*
X120575249Y-116689630D01*
X120396004Y-116669435D01*
X120395996Y-116669435D01*
X120216750Y-116689630D01*
X120216745Y-116689631D01*
X120046476Y-116749211D01*
X119893737Y-116845184D01*
X119766184Y-116972737D01*
X119670211Y-117125476D01*
X119610631Y-117295745D01*
X119610630Y-117295750D01*
X119590435Y-117474996D01*
X119590435Y-117475003D01*
X114862001Y-117475003D01*
X114862001Y-115316003D01*
X117988236Y-115316003D01*
X118008431Y-115495249D01*
X118008432Y-115495254D01*
X118068012Y-115665523D01*
X118088170Y-115697604D01*
X118163985Y-115818262D01*
X118291539Y-115945816D01*
X118444279Y-116041789D01*
X118459523Y-116047123D01*
X118614546Y-116101368D01*
X118614551Y-116101369D01*
X118793797Y-116121565D01*
X118793801Y-116121565D01*
X118793805Y-116121565D01*
X118973050Y-116101369D01*
X118973053Y-116101368D01*
X118973056Y-116101368D01*
X119143323Y-116041789D01*
X119296063Y-115945816D01*
X119423617Y-115818262D01*
X119499432Y-115697604D01*
X120874035Y-115697604D01*
X120894230Y-115876850D01*
X120894231Y-115876855D01*
X120953811Y-116047124D01*
X120987895Y-116101368D01*
X121049784Y-116199863D01*
X121177338Y-116327417D01*
X121184637Y-116332003D01*
X121329121Y-116422789D01*
X121330078Y-116423390D01*
X121417028Y-116453815D01*
X121500345Y-116482969D01*
X121500350Y-116482970D01*
X121679596Y-116503166D01*
X121679600Y-116503166D01*
X121679604Y-116503166D01*
X121858849Y-116482970D01*
X121858851Y-116482969D01*
X121858855Y-116482969D01*
X121858858Y-116482967D01*
X121858862Y-116482967D01*
X122035695Y-116421090D01*
X122036425Y-116423177D01*
X122094916Y-116413524D01*
X122122326Y-116421570D01*
X122122705Y-116420489D01*
X122299545Y-116482368D01*
X122299550Y-116482369D01*
X122478796Y-116502565D01*
X122478800Y-116502565D01*
X122478804Y-116502565D01*
X122658049Y-116482369D01*
X122658051Y-116482368D01*
X122658055Y-116482368D01*
X122658058Y-116482366D01*
X122658062Y-116482366D01*
X122834895Y-116420489D01*
X122835647Y-116422640D01*
X122893910Y-116413033D01*
X122922387Y-116421392D01*
X122922704Y-116420489D01*
X123099536Y-116482366D01*
X123099542Y-116482367D01*
X123099544Y-116482368D01*
X123099545Y-116482368D01*
X123099549Y-116482369D01*
X123278795Y-116502565D01*
X123278799Y-116502565D01*
X123278803Y-116502565D01*
X123458048Y-116482369D01*
X123458051Y-116482368D01*
X123458054Y-116482368D01*
X123628321Y-116422789D01*
X123781061Y-116326816D01*
X123908615Y-116199262D01*
X124004588Y-116046522D01*
X124064167Y-115876255D01*
X124064168Y-115876249D01*
X124084364Y-115697003D01*
X124084364Y-115696996D01*
X124064168Y-115517750D01*
X124064167Y-115517745D01*
X124049027Y-115474478D01*
X124004588Y-115347478D01*
X123988414Y-115321738D01*
X123962056Y-115279789D01*
X123908615Y-115194738D01*
X123781061Y-115067184D01*
X123735621Y-115038632D01*
X123628322Y-114971211D01*
X123458053Y-114911631D01*
X123458048Y-114911630D01*
X123278803Y-114891435D01*
X123278795Y-114891435D01*
X123099549Y-114911630D01*
X123099536Y-114911633D01*
X122922705Y-114973510D01*
X122921955Y-114971366D01*
X122863638Y-114980959D01*
X122835209Y-114972611D01*
X122834895Y-114973511D01*
X122658054Y-114911631D01*
X122658049Y-114911630D01*
X122478804Y-114891435D01*
X122478796Y-114891435D01*
X122299550Y-114911630D01*
X122299537Y-114911633D01*
X122122706Y-114973510D01*
X122121978Y-114971430D01*
X122063436Y-114981070D01*
X122036070Y-114973034D01*
X122035694Y-114974111D01*
X121858862Y-114912234D01*
X121858849Y-114912231D01*
X121679604Y-114892036D01*
X121679596Y-114892036D01*
X121500350Y-114912231D01*
X121500345Y-114912232D01*
X121330076Y-114971812D01*
X121177337Y-115067785D01*
X121049784Y-115195338D01*
X120953811Y-115348077D01*
X120894231Y-115518346D01*
X120894230Y-115518351D01*
X120874035Y-115697597D01*
X120874035Y-115697604D01*
X119499432Y-115697604D01*
X119519590Y-115665522D01*
X119579169Y-115495255D01*
X119581510Y-115474478D01*
X119599366Y-115316003D01*
X119599366Y-115315996D01*
X119579170Y-115136750D01*
X119579169Y-115136745D01*
X119555039Y-115067785D01*
X119519590Y-114966478D01*
X119423617Y-114813738D01*
X119296063Y-114686184D01*
X119143324Y-114590211D01*
X118973055Y-114530631D01*
X118973050Y-114530630D01*
X118793805Y-114510435D01*
X118793797Y-114510435D01*
X118614551Y-114530630D01*
X118614546Y-114530631D01*
X118444277Y-114590211D01*
X118291538Y-114686184D01*
X118163985Y-114813737D01*
X118068012Y-114966476D01*
X118008432Y-115136745D01*
X118008431Y-115136750D01*
X117988236Y-115315996D01*
X117988236Y-115316003D01*
X114862001Y-115316003D01*
X114862001Y-112776003D01*
X116288435Y-112776003D01*
X116308630Y-112955249D01*
X116308631Y-112955254D01*
X116368211Y-113125523D01*
X116464184Y-113278262D01*
X116591738Y-113405816D01*
X116682080Y-113462582D01*
X116738199Y-113497844D01*
X116744478Y-113501789D01*
X116914745Y-113561368D01*
X116914750Y-113561369D01*
X117093996Y-113581565D01*
X117094000Y-113581565D01*
X117094004Y-113581565D01*
X117273249Y-113561369D01*
X117273252Y-113561368D01*
X117273255Y-113561368D01*
X117443522Y-113501789D01*
X117596262Y-113405816D01*
X117723816Y-113278262D01*
X117819789Y-113125522D01*
X117879368Y-112955255D01*
X117879369Y-112955249D01*
X117899565Y-112776003D01*
X117899565Y-112775996D01*
X117879369Y-112596750D01*
X117879368Y-112596745D01*
X117853215Y-112522003D01*
X117819789Y-112426478D01*
X117806802Y-112405810D01*
X117739779Y-112299143D01*
X117723816Y-112273738D01*
X117596262Y-112146184D01*
X117443523Y-112050211D01*
X117273254Y-111990631D01*
X117273249Y-111990630D01*
X117094004Y-111970435D01*
X117093996Y-111970435D01*
X116914750Y-111990630D01*
X116914745Y-111990631D01*
X116744476Y-112050211D01*
X116591737Y-112146184D01*
X116464184Y-112273737D01*
X116368211Y-112426476D01*
X116308631Y-112596745D01*
X116308630Y-112596750D01*
X116288435Y-112775996D01*
X116288435Y-112776003D01*
X114862001Y-112776003D01*
X114862001Y-101701993D01*
X114881686Y-101634954D01*
X114934490Y-101589199D01*
X115003648Y-101579255D01*
X115026956Y-101584952D01*
X115136737Y-101623366D01*
X115136743Y-101623367D01*
X115136745Y-101623368D01*
X115136746Y-101623368D01*
X115136750Y-101623369D01*
X115315996Y-101643565D01*
X115316000Y-101643565D01*
X115316004Y-101643565D01*
X115495249Y-101623369D01*
X115495251Y-101623368D01*
X115495255Y-101623368D01*
X115495258Y-101623366D01*
X115495262Y-101623366D01*
X115563585Y-101599459D01*
X115604540Y-101592500D01*
X116759554Y-101592500D01*
X116759574Y-101592501D01*
X116765688Y-101592501D01*
X116914302Y-101592501D01*
X116914312Y-101592501D01*
X116914321Y-101592499D01*
X116915306Y-101592402D01*
X116915828Y-101592501D01*
X116920404Y-101592501D01*
X116920404Y-101593368D01*
X116983953Y-101605414D01*
X117034669Y-101653473D01*
X117050693Y-101701921D01*
X117069475Y-101868624D01*
X117069478Y-101868637D01*
X117129054Y-102038893D01*
X117129057Y-102038900D01*
X117135664Y-102049415D01*
X117154663Y-102116652D01*
X117147711Y-102156339D01*
X117094033Y-102309742D01*
X117094031Y-102309750D01*
X117073836Y-102488996D01*
X117073836Y-102489003D01*
X117094031Y-102668249D01*
X117094034Y-102668262D01*
X117153609Y-102838517D01*
X117176811Y-102875443D01*
X117195810Y-102942680D01*
X117176811Y-103007384D01*
X117153610Y-103044308D01*
X117094034Y-103214566D01*
X117094031Y-103214578D01*
X117085427Y-103290948D01*
X117058360Y-103355362D01*
X117000765Y-103394917D01*
X116971834Y-103399529D01*
X116971920Y-103400284D01*
X116785751Y-103421259D01*
X116785746Y-103421260D01*
X116615477Y-103480840D01*
X116462738Y-103576813D01*
X116335185Y-103704366D01*
X116239212Y-103857105D01*
X116179632Y-104027374D01*
X116179631Y-104027379D01*
X116159436Y-104206625D01*
X116159436Y-104206632D01*
X116179631Y-104385878D01*
X116179632Y-104385883D01*
X116239213Y-104556155D01*
X116305734Y-104662021D01*
X116324735Y-104729257D01*
X116305735Y-104793965D01*
X116241460Y-104896257D01*
X116181880Y-105066526D01*
X116181879Y-105066531D01*
X116161684Y-105245777D01*
X116161684Y-105245784D01*
X116181879Y-105425030D01*
X116181880Y-105425035D01*
X116241460Y-105595304D01*
X116307660Y-105700660D01*
X116337433Y-105748043D01*
X116464987Y-105875597D01*
X116617727Y-105971570D01*
X116770507Y-106025030D01*
X116787994Y-106031149D01*
X116787999Y-106031150D01*
X116967245Y-106051346D01*
X116967249Y-106051346D01*
X116967250Y-106051346D01*
X116974135Y-106050570D01*
X117033249Y-106043909D01*
X117102068Y-106055963D01*
X117153448Y-106103311D01*
X117164172Y-106126173D01*
X117178730Y-106167776D01*
X117182293Y-106237555D01*
X117166684Y-106274702D01*
X117153610Y-106295509D01*
X117094034Y-106465766D01*
X117094031Y-106465779D01*
X117073836Y-106645025D01*
X117073836Y-106645032D01*
X117094031Y-106824278D01*
X117094034Y-106824291D01*
X117155911Y-107001123D01*
X117153767Y-107001872D01*
X117163361Y-107060190D01*
X117155013Y-107088624D01*
X117155911Y-107088938D01*
X117094034Y-107265769D01*
X117094031Y-107265782D01*
X117073836Y-107445028D01*
X117073836Y-107445035D01*
X117094031Y-107624281D01*
X117094034Y-107624294D01*
X117155911Y-107801126D01*
X117153767Y-107801875D01*
X117163361Y-107860193D01*
X117155013Y-107888627D01*
X117155911Y-107888941D01*
X117094034Y-108065772D01*
X117094031Y-108065785D01*
X117073836Y-108245031D01*
X117073836Y-108245038D01*
X117094031Y-108424284D01*
X117094034Y-108424297D01*
X117155911Y-108601129D01*
X117153767Y-108601878D01*
X117163361Y-108660196D01*
X117155013Y-108688630D01*
X117155911Y-108688944D01*
X117094034Y-108865775D01*
X117094031Y-108865788D01*
X117073836Y-109045034D01*
X117073836Y-109045041D01*
X117094031Y-109224287D01*
X117094032Y-109224292D01*
X117153612Y-109394561D01*
X117164206Y-109411421D01*
X117249585Y-109547300D01*
X117377139Y-109674854D01*
X117394165Y-109685552D01*
X117514366Y-109761080D01*
X117529879Y-109770827D01*
X117676206Y-109822029D01*
X117700146Y-109830406D01*
X117700151Y-109830407D01*
X117879397Y-109850603D01*
X117879401Y-109850603D01*
X117879403Y-109850603D01*
X117907723Y-109847412D01*
X117976545Y-109859466D01*
X118027924Y-109906815D01*
X118045549Y-109974425D01*
X118038649Y-110011586D01*
X117982627Y-110171688D01*
X117982625Y-110171696D01*
X117962430Y-110350942D01*
X117962430Y-110350949D01*
X117982625Y-110530195D01*
X117982626Y-110530200D01*
X118042206Y-110700469D01*
X118138179Y-110853208D01*
X118265733Y-110980762D01*
X118284979Y-110992855D01*
X118418469Y-111076733D01*
X118418473Y-111076735D01*
X118547064Y-111121731D01*
X118588740Y-111136314D01*
X118588745Y-111136315D01*
X118767991Y-111156511D01*
X118767995Y-111156511D01*
X118767999Y-111156511D01*
X118947244Y-111136315D01*
X118947247Y-111136314D01*
X118947250Y-111136314D01*
X119117517Y-111076735D01*
X119117519Y-111076734D01*
X119138869Y-111063319D01*
X119206106Y-111044318D01*
X119270815Y-111063319D01*
X119292164Y-111076734D01*
X119462434Y-111136314D01*
X119462439Y-111136315D01*
X119641685Y-111156511D01*
X119641689Y-111156511D01*
X119641693Y-111156511D01*
X119820938Y-111136315D01*
X119820941Y-111136314D01*
X119820944Y-111136314D01*
X119991211Y-111076735D01*
X120143951Y-110980762D01*
X120157169Y-110967544D01*
X120218492Y-110934059D01*
X120288184Y-110939043D01*
X120332531Y-110967544D01*
X120345749Y-110980762D01*
X120364995Y-110992855D01*
X120498485Y-111076733D01*
X120498489Y-111076735D01*
X120627080Y-111121731D01*
X120668756Y-111136314D01*
X120668761Y-111136315D01*
X120848007Y-111156511D01*
X120848011Y-111156511D01*
X120848015Y-111156511D01*
X121027260Y-111136315D01*
X121027262Y-111136314D01*
X121027266Y-111136314D01*
X121027269Y-111136312D01*
X121027273Y-111136312D01*
X121078311Y-111118452D01*
X121197533Y-111076735D01*
X121202729Y-111073469D01*
X121269963Y-111054466D01*
X121334681Y-111073469D01*
X121339879Y-111076735D01*
X121339880Y-111076735D01*
X121345134Y-111080037D01*
X121391422Y-111132374D01*
X121402067Y-111201428D01*
X121373688Y-111265275D01*
X121320113Y-111302068D01*
X121314479Y-111304039D01*
X121161738Y-111400013D01*
X121034185Y-111527566D01*
X120938212Y-111680305D01*
X120878632Y-111850574D01*
X120878631Y-111850579D01*
X120858436Y-112029825D01*
X120858436Y-112029832D01*
X120878631Y-112209078D01*
X120878634Y-112209091D01*
X120938210Y-112379350D01*
X120940478Y-112382958D01*
X120941229Y-112385618D01*
X120941232Y-112385623D01*
X120941231Y-112385623D01*
X120959478Y-112450195D01*
X120940478Y-112514900D01*
X120938210Y-112518507D01*
X120878634Y-112688766D01*
X120878631Y-112688779D01*
X120858436Y-112868025D01*
X120858436Y-112868032D01*
X120878631Y-113047278D01*
X120878632Y-113047283D01*
X120938212Y-113217552D01*
X120976359Y-113278262D01*
X121034185Y-113370291D01*
X121161739Y-113497845D01*
X121314479Y-113593818D01*
X121428918Y-113633862D01*
X121484746Y-113653397D01*
X121484751Y-113653398D01*
X121663997Y-113673594D01*
X121664001Y-113673594D01*
X121664005Y-113673594D01*
X121843250Y-113653398D01*
X121843253Y-113653397D01*
X121843256Y-113653397D01*
X122013523Y-113593818D01*
X122166263Y-113497845D01*
X122293817Y-113370291D01*
X122389790Y-113217551D01*
X122449369Y-113047284D01*
X122459738Y-112955255D01*
X122469566Y-112868032D01*
X122469566Y-112868025D01*
X122449370Y-112688779D01*
X122449369Y-112688774D01*
X122425018Y-112619182D01*
X122389790Y-112518507D01*
X122387527Y-112514905D01*
X122386775Y-112512244D01*
X122386770Y-112512234D01*
X122386771Y-112512233D01*
X122368524Y-112447669D01*
X122387527Y-112382953D01*
X122389789Y-112379352D01*
X122389790Y-112379351D01*
X122449369Y-112209084D01*
X122449370Y-112209078D01*
X122469566Y-112029832D01*
X122469566Y-112029825D01*
X122449370Y-111850579D01*
X122449369Y-111850574D01*
X122435695Y-111811495D01*
X122389790Y-111680307D01*
X122293817Y-111527567D01*
X122166263Y-111400013D01*
X122166261Y-111400011D01*
X122008273Y-111300740D01*
X121961983Y-111248406D01*
X121951335Y-111179352D01*
X121979710Y-111115504D01*
X122033295Y-111078704D01*
X122038923Y-111076735D01*
X122191663Y-110980762D01*
X122319217Y-110853208D01*
X122415190Y-110700468D01*
X122474769Y-110530201D01*
X122474770Y-110530195D01*
X122494966Y-110350949D01*
X122494966Y-110350942D01*
X122474770Y-110171696D01*
X122474769Y-110171691D01*
X122451610Y-110105507D01*
X122415190Y-110001424D01*
X122398225Y-109974425D01*
X122355743Y-109906815D01*
X122319217Y-109848684D01*
X122191663Y-109721130D01*
X122135041Y-109685552D01*
X122038924Y-109625157D01*
X121868655Y-109565577D01*
X121868650Y-109565576D01*
X121689405Y-109545381D01*
X121689397Y-109545381D01*
X121510151Y-109565576D01*
X121510146Y-109565577D01*
X121339876Y-109625158D01*
X121334673Y-109628427D01*
X121267436Y-109647423D01*
X121202739Y-109628427D01*
X121197535Y-109625158D01*
X121197534Y-109625157D01*
X121197533Y-109625157D01*
X121143749Y-109606337D01*
X121027265Y-109565577D01*
X121027260Y-109565576D01*
X120848015Y-109545381D01*
X120848007Y-109545381D01*
X120668761Y-109565576D01*
X120668756Y-109565577D01*
X120498487Y-109625157D01*
X120345748Y-109721130D01*
X120332531Y-109734348D01*
X120271208Y-109767833D01*
X120201516Y-109762849D01*
X120157169Y-109734348D01*
X120143951Y-109721130D01*
X119991212Y-109625157D01*
X119820943Y-109565577D01*
X119820938Y-109565576D01*
X119641693Y-109545381D01*
X119641685Y-109545381D01*
X119462439Y-109565576D01*
X119462426Y-109565579D01*
X119292168Y-109625155D01*
X119270813Y-109638574D01*
X119203576Y-109657574D01*
X119138871Y-109638574D01*
X119117515Y-109625155D01*
X118947257Y-109565579D01*
X118947244Y-109565576D01*
X118767999Y-109545381D01*
X118767996Y-109545381D01*
X118767995Y-109545381D01*
X118763847Y-109545848D01*
X118739668Y-109548572D01*
X118670847Y-109536515D01*
X118619469Y-109489165D01*
X118601846Y-109421554D01*
X118608747Y-109384396D01*
X118664767Y-109224300D01*
X118664770Y-109224287D01*
X118684966Y-109045041D01*
X118684966Y-109045034D01*
X118664770Y-108865788D01*
X118664769Y-108865783D01*
X118602890Y-108688943D01*
X118605036Y-108688191D01*
X118595438Y-108629892D01*
X118603792Y-108601445D01*
X118602890Y-108601130D01*
X118664767Y-108424297D01*
X118664770Y-108424284D01*
X118684966Y-108245038D01*
X118684966Y-108245031D01*
X118664770Y-108065785D01*
X118664769Y-108065780D01*
X118602890Y-107888940D01*
X118605036Y-107888188D01*
X118595438Y-107829889D01*
X118603792Y-107801442D01*
X118602890Y-107801127D01*
X118664767Y-107624294D01*
X118664770Y-107624281D01*
X118684966Y-107445035D01*
X118684966Y-107445028D01*
X118664770Y-107265782D01*
X118664769Y-107265777D01*
X118602890Y-107088937D01*
X118605036Y-107088185D01*
X118595438Y-107029886D01*
X118603792Y-107001439D01*
X118602890Y-107001124D01*
X118664767Y-106824291D01*
X118664770Y-106824278D01*
X118684966Y-106645032D01*
X118684966Y-106645025D01*
X118664770Y-106465779D01*
X118664767Y-106465766D01*
X118614821Y-106323031D01*
X118611258Y-106253253D01*
X118626866Y-106216108D01*
X118639940Y-106195303D01*
X118672129Y-106103311D01*
X118699517Y-106025043D01*
X118699520Y-106025030D01*
X118719716Y-105845784D01*
X118719716Y-105845777D01*
X118699520Y-105666531D01*
X118699519Y-105666526D01*
X118639939Y-105496257D01*
X118543966Y-105343518D01*
X118416413Y-105215965D01*
X118416407Y-105215960D01*
X118264134Y-105120280D01*
X118217843Y-105067946D01*
X118207195Y-104998892D01*
X118235570Y-104935044D01*
X118264132Y-104910294D01*
X118381663Y-104836445D01*
X118509217Y-104708891D01*
X118605190Y-104556151D01*
X118664769Y-104385884D01*
X118664770Y-104385878D01*
X118684966Y-104206632D01*
X118684966Y-104206625D01*
X118664770Y-104027379D01*
X118664769Y-104027374D01*
X118642864Y-103964774D01*
X118605190Y-103857107D01*
X118605188Y-103857104D01*
X118605188Y-103857103D01*
X118603710Y-103854033D01*
X118603350Y-103851849D01*
X118602890Y-103850534D01*
X118603120Y-103850453D01*
X118592356Y-103785092D01*
X118603710Y-103746425D01*
X118605188Y-103743354D01*
X118605187Y-103743354D01*
X118605190Y-103743351D01*
X118664769Y-103573084D01*
X118679910Y-103438706D01*
X118684966Y-103393832D01*
X118684966Y-103393825D01*
X118664770Y-103214579D01*
X118664769Y-103214574D01*
X118653014Y-103180981D01*
X118605190Y-103044307D01*
X118605188Y-103044304D01*
X118605188Y-103044303D01*
X118581991Y-103007384D01*
X118562991Y-102940148D01*
X118581992Y-102875440D01*
X118605190Y-102838522D01*
X118664769Y-102668255D01*
X118664770Y-102668249D01*
X118684966Y-102489003D01*
X118684966Y-102488996D01*
X118664770Y-102309750D01*
X118664769Y-102309745D01*
X118605190Y-102139478D01*
X118604190Y-102137887D01*
X118598581Y-102128961D01*
X118579581Y-102061725D01*
X118586532Y-102022039D01*
X118640213Y-101868630D01*
X118650269Y-101779382D01*
X118660410Y-101689378D01*
X118660410Y-101689371D01*
X118640214Y-101510125D01*
X118640213Y-101510120D01*
X118578334Y-101333280D01*
X118580959Y-101332361D01*
X118571654Y-101275827D01*
X118580504Y-101245689D01*
X118579875Y-101245469D01*
X118641752Y-101068636D01*
X118641755Y-101068623D01*
X118661951Y-100889377D01*
X118661951Y-100889370D01*
X118641755Y-100710124D01*
X118641754Y-100710119D01*
X118582174Y-100539850D01*
X118489308Y-100392055D01*
X118470308Y-100324818D01*
X118490676Y-100257983D01*
X118506617Y-100238406D01*
X119098963Y-99646060D01*
X119098966Y-99646059D01*
X119204059Y-99540966D01*
X119260404Y-99456638D01*
X119893236Y-99456638D01*
X119913431Y-99635884D01*
X119913432Y-99635889D01*
X119973012Y-99806158D01*
X120053682Y-99934543D01*
X120068985Y-99958897D01*
X120196539Y-100086451D01*
X120217098Y-100099369D01*
X120346291Y-100180547D01*
X120349279Y-100182424D01*
X120457460Y-100220278D01*
X120519546Y-100242003D01*
X120519551Y-100242004D01*
X120698797Y-100262200D01*
X120698801Y-100262200D01*
X120698805Y-100262200D01*
X120878050Y-100242004D01*
X120878053Y-100242003D01*
X120878056Y-100242003D01*
X121048323Y-100182424D01*
X121201063Y-100086451D01*
X121328617Y-99958897D01*
X121424590Y-99806157D01*
X121484169Y-99635890D01*
X121484170Y-99635884D01*
X121504366Y-99456638D01*
X121504366Y-99456631D01*
X121484170Y-99277385D01*
X121484169Y-99277380D01*
X121422290Y-99100540D01*
X121424436Y-99099788D01*
X121414838Y-99041489D01*
X121423192Y-99013042D01*
X121422290Y-99012727D01*
X121484167Y-98835894D01*
X121484170Y-98835881D01*
X121504366Y-98656635D01*
X121504366Y-98656628D01*
X121484170Y-98477382D01*
X121484169Y-98477377D01*
X121422290Y-98300537D01*
X121424436Y-98299785D01*
X121414838Y-98241486D01*
X121423192Y-98213039D01*
X121422290Y-98212724D01*
X121484167Y-98035891D01*
X121484170Y-98035878D01*
X121504366Y-97856632D01*
X121504366Y-97856625D01*
X121484170Y-97677379D01*
X121484169Y-97677374D01*
X121457129Y-97600099D01*
X121424590Y-97507107D01*
X121421321Y-97501905D01*
X121385383Y-97444709D01*
X121328617Y-97354367D01*
X121201063Y-97226813D01*
X121160321Y-97201213D01*
X121048324Y-97130840D01*
X120878055Y-97071260D01*
X120878050Y-97071259D01*
X120698805Y-97051064D01*
X120698797Y-97051064D01*
X120519551Y-97071259D01*
X120519546Y-97071260D01*
X120349277Y-97130840D01*
X120196538Y-97226813D01*
X120068985Y-97354366D01*
X119973012Y-97507105D01*
X119913432Y-97677374D01*
X119913431Y-97677379D01*
X119893236Y-97856625D01*
X119893236Y-97856632D01*
X119913431Y-98035878D01*
X119913434Y-98035891D01*
X119975311Y-98212723D01*
X119973167Y-98213472D01*
X119982761Y-98271790D01*
X119974413Y-98300224D01*
X119975311Y-98300538D01*
X119913434Y-98477369D01*
X119913431Y-98477382D01*
X119893236Y-98656628D01*
X119893236Y-98656635D01*
X119913431Y-98835881D01*
X119913434Y-98835894D01*
X119975311Y-99012726D01*
X119973167Y-99013475D01*
X119982761Y-99071793D01*
X119974413Y-99100227D01*
X119975311Y-99100541D01*
X119913434Y-99277372D01*
X119913431Y-99277385D01*
X119893236Y-99456631D01*
X119893236Y-99456638D01*
X119260404Y-99456638D01*
X119270185Y-99442000D01*
X119286630Y-99417389D01*
X119331287Y-99309576D01*
X119343505Y-99280080D01*
X119352380Y-99235464D01*
X119355252Y-99221026D01*
X119372501Y-99134314D01*
X119372501Y-98980578D01*
X119372500Y-98980552D01*
X119372500Y-92585329D01*
X119392185Y-92518290D01*
X119425377Y-92483754D01*
X119425768Y-92483480D01*
X119489401Y-92438924D01*
X119656495Y-92271830D01*
X119792035Y-92078259D01*
X119891903Y-91864092D01*
X119953063Y-91635837D01*
X119973659Y-91400429D01*
X119953063Y-91165021D01*
X119906626Y-90991714D01*
X119891905Y-90936773D01*
X119891904Y-90936772D01*
X119891903Y-90936766D01*
X119792035Y-90722600D01*
X119705253Y-90598661D01*
X119656494Y-90529026D01*
X119489402Y-90361935D01*
X119489396Y-90361930D01*
X119303842Y-90232004D01*
X119260217Y-90177427D01*
X119253023Y-90107929D01*
X119284546Y-90045574D01*
X119303842Y-90028854D01*
X119442539Y-89931737D01*
X119489401Y-89898924D01*
X119656495Y-89731830D01*
X119792035Y-89538259D01*
X119891903Y-89324092D01*
X119953063Y-89095837D01*
X119973659Y-88860429D01*
X119953063Y-88625021D01*
X119891903Y-88396766D01*
X119792035Y-88182600D01*
X119786425Y-88174587D01*
X119656494Y-87989026D01*
X119489402Y-87821935D01*
X119489396Y-87821930D01*
X119303842Y-87692004D01*
X119260217Y-87637427D01*
X119253023Y-87567929D01*
X119284546Y-87505574D01*
X119303842Y-87488854D01*
X119326026Y-87473320D01*
X119489401Y-87358924D01*
X119656495Y-87191830D01*
X119792035Y-86998259D01*
X119891903Y-86784092D01*
X119953063Y-86555837D01*
X119973659Y-86320429D01*
X119972753Y-86310079D01*
X119957752Y-86138617D01*
X119953063Y-86085021D01*
X119891903Y-85856766D01*
X119792035Y-85642600D01*
X119786425Y-85634587D01*
X119656494Y-85449026D01*
X119489402Y-85281935D01*
X119489396Y-85281930D01*
X119303842Y-85152004D01*
X119260217Y-85097427D01*
X119253023Y-85027929D01*
X119284546Y-84965574D01*
X119303842Y-84948854D01*
X119328595Y-84931522D01*
X119489401Y-84818924D01*
X119656495Y-84651830D01*
X119792035Y-84458259D01*
X119891903Y-84244092D01*
X119953063Y-84015837D01*
X119973659Y-83780429D01*
X119953063Y-83545021D01*
X119891903Y-83316766D01*
X119792035Y-83102600D01*
X119786425Y-83094587D01*
X119656494Y-82909026D01*
X119489402Y-82741935D01*
X119489396Y-82741930D01*
X119303842Y-82612004D01*
X119260217Y-82557427D01*
X119253023Y-82487929D01*
X119284546Y-82425574D01*
X119303842Y-82408854D01*
X119326026Y-82393320D01*
X119489401Y-82278924D01*
X119656495Y-82111830D01*
X119792035Y-81918259D01*
X119891903Y-81704092D01*
X119953063Y-81475837D01*
X119973659Y-81240429D01*
X119953063Y-81005021D01*
X119891903Y-80776766D01*
X119792035Y-80562600D01*
X119786425Y-80554587D01*
X119656494Y-80369026D01*
X119489402Y-80201935D01*
X119489396Y-80201930D01*
X119303842Y-80072004D01*
X119260217Y-80017427D01*
X119253023Y-79947929D01*
X119284546Y-79885574D01*
X119303842Y-79868854D01*
X119326026Y-79853320D01*
X119489401Y-79738924D01*
X119656495Y-79571830D01*
X119792035Y-79378259D01*
X119891903Y-79164092D01*
X119953063Y-78935837D01*
X119973659Y-78700429D01*
X119953063Y-78465021D01*
X119891903Y-78236766D01*
X119792035Y-78022600D01*
X119786425Y-78014587D01*
X119656494Y-77829026D01*
X119489402Y-77661935D01*
X119489396Y-77661930D01*
X119303842Y-77532004D01*
X119260217Y-77477427D01*
X119253023Y-77407929D01*
X119284546Y-77345574D01*
X119303842Y-77328854D01*
X119326026Y-77313320D01*
X119489401Y-77198924D01*
X119656495Y-77031830D01*
X119792035Y-76838259D01*
X119891903Y-76624092D01*
X119953063Y-76395837D01*
X119973659Y-76160429D01*
X119953063Y-75925021D01*
X119891903Y-75696766D01*
X119792035Y-75482600D01*
X119786425Y-75474587D01*
X119656494Y-75289026D01*
X119489402Y-75121935D01*
X119489396Y-75121930D01*
X119303842Y-74992004D01*
X119260217Y-74937427D01*
X119253023Y-74867929D01*
X119284546Y-74805574D01*
X119303842Y-74788854D01*
X119341756Y-74762306D01*
X119489401Y-74658924D01*
X119656495Y-74491830D01*
X119792035Y-74298259D01*
X119891903Y-74084092D01*
X119953063Y-73855837D01*
X119973659Y-73620429D01*
X119953063Y-73385021D01*
X119891903Y-73156766D01*
X119792035Y-72942600D01*
X119786425Y-72934587D01*
X119656494Y-72749026D01*
X119489402Y-72581935D01*
X119489396Y-72581930D01*
X119303842Y-72452004D01*
X119260217Y-72397427D01*
X119253023Y-72327929D01*
X119284546Y-72265574D01*
X119303842Y-72248854D01*
X119371569Y-72201431D01*
X119489401Y-72118924D01*
X119656495Y-71951830D01*
X119792035Y-71758259D01*
X119891903Y-71544092D01*
X119953063Y-71315837D01*
X119973659Y-71080429D01*
X119953063Y-70845021D01*
X119891903Y-70616766D01*
X119792035Y-70402600D01*
X119786425Y-70394587D01*
X119656494Y-70209026D01*
X119489402Y-70041935D01*
X119489396Y-70041930D01*
X119303842Y-69912004D01*
X119260217Y-69857427D01*
X119253023Y-69787929D01*
X119284546Y-69725574D01*
X119303842Y-69708854D01*
X119326026Y-69693320D01*
X119489401Y-69578924D01*
X119656495Y-69411830D01*
X119792035Y-69218259D01*
X119891903Y-69004092D01*
X119953063Y-68775837D01*
X119973659Y-68540429D01*
X119953063Y-68305021D01*
X119891903Y-68076766D01*
X119792035Y-67862600D01*
X119786425Y-67854587D01*
X119656494Y-67669026D01*
X119489402Y-67501935D01*
X119489396Y-67501930D01*
X119303842Y-67372004D01*
X119260217Y-67317427D01*
X119253023Y-67247929D01*
X119284546Y-67185574D01*
X119303842Y-67168854D01*
X119373617Y-67119997D01*
X119489401Y-67038924D01*
X119656495Y-66871830D01*
X119792035Y-66678259D01*
X119891903Y-66464092D01*
X119953063Y-66235837D01*
X119973659Y-66000429D01*
X119972318Y-65985107D01*
X119957752Y-65818617D01*
X119953063Y-65765021D01*
X119896405Y-65553567D01*
X119891905Y-65536773D01*
X119891904Y-65536772D01*
X119891903Y-65536766D01*
X119792035Y-65322600D01*
X119786425Y-65314587D01*
X119656494Y-65129026D01*
X119489402Y-64961935D01*
X119489396Y-64961930D01*
X119303842Y-64832004D01*
X119260217Y-64777427D01*
X119253023Y-64707929D01*
X119284546Y-64645574D01*
X119303842Y-64628854D01*
X119380536Y-64575152D01*
X119489401Y-64498924D01*
X119656495Y-64331830D01*
X119792035Y-64138259D01*
X119891903Y-63924092D01*
X119953063Y-63695837D01*
X119973659Y-63460429D01*
X119953063Y-63225021D01*
X119891903Y-62996766D01*
X119792035Y-62782600D01*
X119786425Y-62774587D01*
X119656494Y-62589026D01*
X119489402Y-62421935D01*
X119489396Y-62421930D01*
X119303842Y-62292004D01*
X119260217Y-62237427D01*
X119253023Y-62167929D01*
X119284546Y-62105574D01*
X119303842Y-62088854D01*
X119377263Y-62037444D01*
X119489401Y-61958924D01*
X119656495Y-61791830D01*
X119792035Y-61598259D01*
X119891903Y-61384092D01*
X119953063Y-61155837D01*
X119973659Y-60920429D01*
X119953063Y-60685021D01*
X119894479Y-60466379D01*
X119891905Y-60456773D01*
X119891904Y-60456772D01*
X119891903Y-60456766D01*
X119792035Y-60242600D01*
X119786425Y-60234587D01*
X119656494Y-60049026D01*
X119489402Y-59881935D01*
X119489396Y-59881930D01*
X119303842Y-59752004D01*
X119260217Y-59697427D01*
X119253023Y-59627929D01*
X119284546Y-59565574D01*
X119303842Y-59548854D01*
X119403232Y-59479260D01*
X119489401Y-59418924D01*
X119656495Y-59251830D01*
X119792035Y-59058259D01*
X119891903Y-58844092D01*
X119953063Y-58615837D01*
X119973659Y-58380429D01*
X119953063Y-58145021D01*
X119891903Y-57916766D01*
X119792035Y-57702600D01*
X119786425Y-57694587D01*
X119656494Y-57509026D01*
X119489402Y-57341935D01*
X119489396Y-57341930D01*
X119303842Y-57212004D01*
X119260217Y-57157427D01*
X119253023Y-57087929D01*
X119284546Y-57025574D01*
X119303842Y-57008854D01*
X119338065Y-56984891D01*
X119489401Y-56878924D01*
X119656495Y-56711830D01*
X119792035Y-56518259D01*
X119891903Y-56304092D01*
X119953063Y-56075837D01*
X119973659Y-55840429D01*
X119953063Y-55605021D01*
X119891903Y-55376766D01*
X119792035Y-55162600D01*
X119786425Y-55154587D01*
X119656494Y-54969026D01*
X119489402Y-54801935D01*
X119489396Y-54801930D01*
X119303842Y-54672004D01*
X119260217Y-54617427D01*
X119253023Y-54547929D01*
X119284546Y-54485574D01*
X119303842Y-54468854D01*
X119408122Y-54395836D01*
X119489401Y-54338924D01*
X119656495Y-54171830D01*
X119792035Y-53978259D01*
X119891903Y-53764092D01*
X119953063Y-53535837D01*
X119973659Y-53300429D01*
X119953063Y-53065021D01*
X119891903Y-52836766D01*
X119792035Y-52622600D01*
X119786425Y-52614587D01*
X119656494Y-52429026D01*
X119489402Y-52261935D01*
X119489396Y-52261930D01*
X119303842Y-52132004D01*
X119260217Y-52077427D01*
X119253023Y-52007929D01*
X119284546Y-51945574D01*
X119303842Y-51928854D01*
X119326026Y-51913320D01*
X119489401Y-51798924D01*
X119656495Y-51631830D01*
X119792035Y-51438259D01*
X119891903Y-51224092D01*
X119953063Y-50995837D01*
X119973659Y-50760429D01*
X119953063Y-50525021D01*
X119903114Y-50338606D01*
X119891905Y-50296773D01*
X119891904Y-50296772D01*
X119891903Y-50296766D01*
X119792035Y-50082600D01*
X119786425Y-50074587D01*
X119656494Y-49889026D01*
X119489402Y-49721935D01*
X119489396Y-49721930D01*
X119303842Y-49592004D01*
X119260217Y-49537427D01*
X119253023Y-49467929D01*
X119284546Y-49405574D01*
X119303842Y-49388854D01*
X119362454Y-49347813D01*
X119489401Y-49258924D01*
X119656495Y-49091830D01*
X119792035Y-48898259D01*
X119891903Y-48684092D01*
X119953063Y-48455837D01*
X119973659Y-48220429D01*
X119971839Y-48199632D01*
X119957752Y-48038617D01*
X119953063Y-47985021D01*
X119891903Y-47756766D01*
X119792035Y-47542600D01*
X119786425Y-47534587D01*
X119656494Y-47349026D01*
X119489402Y-47181935D01*
X119489395Y-47181930D01*
X119295834Y-47046396D01*
X119295830Y-47046394D01*
X119281460Y-47039693D01*
X119081663Y-46946526D01*
X119081659Y-46946525D01*
X119081655Y-46946523D01*
X118853413Y-46885367D01*
X118853403Y-46885365D01*
X118618001Y-46864770D01*
X118617999Y-46864770D01*
X118382596Y-46885365D01*
X118382586Y-46885367D01*
X118154344Y-46946523D01*
X118154335Y-46946527D01*
X117940171Y-47046393D01*
X117940169Y-47046394D01*
X117746597Y-47181934D01*
X117579505Y-47349026D01*
X117449575Y-47534587D01*
X117394998Y-47578212D01*
X117325500Y-47585406D01*
X117263145Y-47553883D01*
X117246425Y-47534587D01*
X117116494Y-47349026D01*
X116949402Y-47181935D01*
X116949395Y-47181930D01*
X116755834Y-47046396D01*
X116755830Y-47046394D01*
X116741460Y-47039693D01*
X116541663Y-46946526D01*
X116541659Y-46946525D01*
X116541655Y-46946523D01*
X116313413Y-46885367D01*
X116313403Y-46885365D01*
X116078001Y-46864770D01*
X116077999Y-46864770D01*
X115842596Y-46885365D01*
X115842586Y-46885367D01*
X115614344Y-46946523D01*
X115614335Y-46946527D01*
X115400171Y-47046393D01*
X115400169Y-47046394D01*
X115206597Y-47181934D01*
X115073682Y-47314850D01*
X115012359Y-47348335D01*
X114942667Y-47343351D01*
X114886734Y-47301479D01*
X114862317Y-47236015D01*
X114862001Y-47227169D01*
X114862001Y-26091129D01*
X114881686Y-26024090D01*
X114934490Y-25978335D01*
X114986001Y-25967129D01*
X127043645Y-25967129D01*
X127110684Y-25986814D01*
G37*
%TD.AperFunction*%
%TD*%
M02*
