%TF.GenerationSoftware,KiCad,Pcbnew,8.0.1*%
%TF.CreationDate,2024-10-20T22:07:11-07:00*%
%TF.ProjectId,POEPico,504f4550-6963-46f2-9e6b-696361645f70,rev?*%
%TF.SameCoordinates,Original*%
%TF.FileFunction,Drillmap*%
%TF.FilePolarity,Positive*%
%FSLAX45Y45*%
G04 Gerber Fmt 4.5, Leading zero omitted, Abs format (unit mm)*
G04 Created by KiCad (PCBNEW 8.0.1) date 2024-10-20 22:07:11*
%MOMM*%
%LPD*%
G01*
G04 APERTURE LIST*
%ADD10C,0.200000*%
%ADD11C,0.325000*%
G04 APERTURE END LIST*
D10*
X11436150Y-2546663D02*
X15436150Y-2546663D01*
X15436150Y-12546663D01*
X11436150Y-12546663D01*
X11436150Y-2546663D01*
D11*
X12376340Y-2767263D02*
X12701340Y-3092263D01*
X12701340Y-2767263D02*
X12376340Y-3092263D01*
X12376340Y-3910263D02*
X12701340Y-4235263D01*
X12701340Y-3910263D02*
X12376340Y-4235263D01*
D10*
X11686927Y-12868147D02*
X11686927Y-12668147D01*
X11686927Y-12668147D02*
X11734546Y-12668147D01*
X11734546Y-12668147D02*
X11763117Y-12677670D01*
X11763117Y-12677670D02*
X11782165Y-12696718D01*
X11782165Y-12696718D02*
X11791689Y-12715766D01*
X11791689Y-12715766D02*
X11801213Y-12753861D01*
X11801213Y-12753861D02*
X11801213Y-12782432D01*
X11801213Y-12782432D02*
X11791689Y-12820528D01*
X11791689Y-12820528D02*
X11782165Y-12839575D01*
X11782165Y-12839575D02*
X11763117Y-12858623D01*
X11763117Y-12858623D02*
X11734546Y-12868147D01*
X11734546Y-12868147D02*
X11686927Y-12868147D01*
X11886927Y-12868147D02*
X11886927Y-12734813D01*
X11886927Y-12772909D02*
X11896451Y-12753861D01*
X11896451Y-12753861D02*
X11905974Y-12744337D01*
X11905974Y-12744337D02*
X11925022Y-12734813D01*
X11925022Y-12734813D02*
X11944070Y-12734813D01*
X12010736Y-12868147D02*
X12010736Y-12734813D01*
X12010736Y-12668147D02*
X12001213Y-12677670D01*
X12001213Y-12677670D02*
X12010736Y-12687194D01*
X12010736Y-12687194D02*
X12020260Y-12677670D01*
X12020260Y-12677670D02*
X12010736Y-12668147D01*
X12010736Y-12668147D02*
X12010736Y-12687194D01*
X12134546Y-12868147D02*
X12115498Y-12858623D01*
X12115498Y-12858623D02*
X12105974Y-12839575D01*
X12105974Y-12839575D02*
X12105974Y-12668147D01*
X12239308Y-12868147D02*
X12220260Y-12858623D01*
X12220260Y-12858623D02*
X12210736Y-12839575D01*
X12210736Y-12839575D02*
X12210736Y-12668147D01*
X12467879Y-12868147D02*
X12467879Y-12668147D01*
X12467879Y-12668147D02*
X12534546Y-12811004D01*
X12534546Y-12811004D02*
X12601213Y-12668147D01*
X12601213Y-12668147D02*
X12601213Y-12868147D01*
X12782165Y-12868147D02*
X12782165Y-12763385D01*
X12782165Y-12763385D02*
X12772641Y-12744337D01*
X12772641Y-12744337D02*
X12753594Y-12734813D01*
X12753594Y-12734813D02*
X12715498Y-12734813D01*
X12715498Y-12734813D02*
X12696451Y-12744337D01*
X12782165Y-12858623D02*
X12763117Y-12868147D01*
X12763117Y-12868147D02*
X12715498Y-12868147D01*
X12715498Y-12868147D02*
X12696451Y-12858623D01*
X12696451Y-12858623D02*
X12686927Y-12839575D01*
X12686927Y-12839575D02*
X12686927Y-12820528D01*
X12686927Y-12820528D02*
X12696451Y-12801480D01*
X12696451Y-12801480D02*
X12715498Y-12791956D01*
X12715498Y-12791956D02*
X12763117Y-12791956D01*
X12763117Y-12791956D02*
X12782165Y-12782432D01*
X12877403Y-12734813D02*
X12877403Y-12934813D01*
X12877403Y-12744337D02*
X12896451Y-12734813D01*
X12896451Y-12734813D02*
X12934546Y-12734813D01*
X12934546Y-12734813D02*
X12953594Y-12744337D01*
X12953594Y-12744337D02*
X12963117Y-12753861D01*
X12963117Y-12753861D02*
X12972641Y-12772909D01*
X12972641Y-12772909D02*
X12972641Y-12830051D01*
X12972641Y-12830051D02*
X12963117Y-12849099D01*
X12963117Y-12849099D02*
X12953594Y-12858623D01*
X12953594Y-12858623D02*
X12934546Y-12868147D01*
X12934546Y-12868147D02*
X12896451Y-12868147D01*
X12896451Y-12868147D02*
X12877403Y-12858623D01*
X13058355Y-12849099D02*
X13067879Y-12858623D01*
X13067879Y-12858623D02*
X13058355Y-12868147D01*
X13058355Y-12868147D02*
X13048832Y-12858623D01*
X13048832Y-12858623D02*
X13058355Y-12849099D01*
X13058355Y-12849099D02*
X13058355Y-12868147D01*
X13058355Y-12744337D02*
X13067879Y-12753861D01*
X13067879Y-12753861D02*
X13058355Y-12763385D01*
X13058355Y-12763385D02*
X13048832Y-12753861D01*
X13048832Y-12753861D02*
X13058355Y-12744337D01*
X13058355Y-12744337D02*
X13058355Y-12763385D01*
X11226150Y-13096663D02*
X11426150Y-13296663D01*
X11426150Y-13096663D02*
X11226150Y-13296663D01*
X11667879Y-13088147D02*
X11791689Y-13088147D01*
X11791689Y-13088147D02*
X11725022Y-13164337D01*
X11725022Y-13164337D02*
X11753594Y-13164337D01*
X11753594Y-13164337D02*
X11772641Y-13173861D01*
X11772641Y-13173861D02*
X11782165Y-13183385D01*
X11782165Y-13183385D02*
X11791689Y-13202432D01*
X11791689Y-13202432D02*
X11791689Y-13250051D01*
X11791689Y-13250051D02*
X11782165Y-13269099D01*
X11782165Y-13269099D02*
X11772641Y-13278623D01*
X11772641Y-13278623D02*
X11753594Y-13288147D01*
X11753594Y-13288147D02*
X11696451Y-13288147D01*
X11696451Y-13288147D02*
X11677403Y-13278623D01*
X11677403Y-13278623D02*
X11667879Y-13269099D01*
X11877403Y-13269099D02*
X11886927Y-13278623D01*
X11886927Y-13278623D02*
X11877403Y-13288147D01*
X11877403Y-13288147D02*
X11867879Y-13278623D01*
X11867879Y-13278623D02*
X11877403Y-13269099D01*
X11877403Y-13269099D02*
X11877403Y-13288147D01*
X11963117Y-13107194D02*
X11972641Y-13097670D01*
X11972641Y-13097670D02*
X11991689Y-13088147D01*
X11991689Y-13088147D02*
X12039308Y-13088147D01*
X12039308Y-13088147D02*
X12058355Y-13097670D01*
X12058355Y-13097670D02*
X12067879Y-13107194D01*
X12067879Y-13107194D02*
X12077403Y-13126242D01*
X12077403Y-13126242D02*
X12077403Y-13145289D01*
X12077403Y-13145289D02*
X12067879Y-13173861D01*
X12067879Y-13173861D02*
X11953594Y-13288147D01*
X11953594Y-13288147D02*
X12077403Y-13288147D01*
X12258355Y-13088147D02*
X12163117Y-13088147D01*
X12163117Y-13088147D02*
X12153594Y-13183385D01*
X12153594Y-13183385D02*
X12163117Y-13173861D01*
X12163117Y-13173861D02*
X12182165Y-13164337D01*
X12182165Y-13164337D02*
X12229784Y-13164337D01*
X12229784Y-13164337D02*
X12248832Y-13173861D01*
X12248832Y-13173861D02*
X12258355Y-13183385D01*
X12258355Y-13183385D02*
X12267879Y-13202432D01*
X12267879Y-13202432D02*
X12267879Y-13250051D01*
X12267879Y-13250051D02*
X12258355Y-13269099D01*
X12258355Y-13269099D02*
X12248832Y-13278623D01*
X12248832Y-13278623D02*
X12229784Y-13288147D01*
X12229784Y-13288147D02*
X12182165Y-13288147D01*
X12182165Y-13288147D02*
X12163117Y-13278623D01*
X12163117Y-13278623D02*
X12153594Y-13269099D01*
X12391689Y-13088147D02*
X12410736Y-13088147D01*
X12410736Y-13088147D02*
X12429784Y-13097670D01*
X12429784Y-13097670D02*
X12439308Y-13107194D01*
X12439308Y-13107194D02*
X12448832Y-13126242D01*
X12448832Y-13126242D02*
X12458355Y-13164337D01*
X12458355Y-13164337D02*
X12458355Y-13211956D01*
X12458355Y-13211956D02*
X12448832Y-13250051D01*
X12448832Y-13250051D02*
X12439308Y-13269099D01*
X12439308Y-13269099D02*
X12429784Y-13278623D01*
X12429784Y-13278623D02*
X12410736Y-13288147D01*
X12410736Y-13288147D02*
X12391689Y-13288147D01*
X12391689Y-13288147D02*
X12372641Y-13278623D01*
X12372641Y-13278623D02*
X12363117Y-13269099D01*
X12363117Y-13269099D02*
X12353594Y-13250051D01*
X12353594Y-13250051D02*
X12344070Y-13211956D01*
X12344070Y-13211956D02*
X12344070Y-13164337D01*
X12344070Y-13164337D02*
X12353594Y-13126242D01*
X12353594Y-13126242D02*
X12363117Y-13107194D01*
X12363117Y-13107194D02*
X12372641Y-13097670D01*
X12372641Y-13097670D02*
X12391689Y-13088147D01*
X12544070Y-13288147D02*
X12544070Y-13154813D01*
X12544070Y-13173861D02*
X12553594Y-13164337D01*
X12553594Y-13164337D02*
X12572641Y-13154813D01*
X12572641Y-13154813D02*
X12601213Y-13154813D01*
X12601213Y-13154813D02*
X12620260Y-13164337D01*
X12620260Y-13164337D02*
X12629784Y-13183385D01*
X12629784Y-13183385D02*
X12629784Y-13288147D01*
X12629784Y-13183385D02*
X12639308Y-13164337D01*
X12639308Y-13164337D02*
X12658355Y-13154813D01*
X12658355Y-13154813D02*
X12686927Y-13154813D01*
X12686927Y-13154813D02*
X12705975Y-13164337D01*
X12705975Y-13164337D02*
X12715498Y-13183385D01*
X12715498Y-13183385D02*
X12715498Y-13288147D01*
X12810736Y-13288147D02*
X12810736Y-13154813D01*
X12810736Y-13173861D02*
X12820260Y-13164337D01*
X12820260Y-13164337D02*
X12839308Y-13154813D01*
X12839308Y-13154813D02*
X12867879Y-13154813D01*
X12867879Y-13154813D02*
X12886927Y-13164337D01*
X12886927Y-13164337D02*
X12896451Y-13183385D01*
X12896451Y-13183385D02*
X12896451Y-13288147D01*
X12896451Y-13183385D02*
X12905975Y-13164337D01*
X12905975Y-13164337D02*
X12925022Y-13154813D01*
X12925022Y-13154813D02*
X12953594Y-13154813D01*
X12953594Y-13154813D02*
X12972641Y-13164337D01*
X12972641Y-13164337D02*
X12982165Y-13183385D01*
X12982165Y-13183385D02*
X12982165Y-13288147D01*
X13372641Y-13078623D02*
X13201213Y-13335766D01*
X13629784Y-13088147D02*
X13648832Y-13088147D01*
X13648832Y-13088147D02*
X13667879Y-13097670D01*
X13667879Y-13097670D02*
X13677403Y-13107194D01*
X13677403Y-13107194D02*
X13686927Y-13126242D01*
X13686927Y-13126242D02*
X13696451Y-13164337D01*
X13696451Y-13164337D02*
X13696451Y-13211956D01*
X13696451Y-13211956D02*
X13686927Y-13250051D01*
X13686927Y-13250051D02*
X13677403Y-13269099D01*
X13677403Y-13269099D02*
X13667879Y-13278623D01*
X13667879Y-13278623D02*
X13648832Y-13288147D01*
X13648832Y-13288147D02*
X13629784Y-13288147D01*
X13629784Y-13288147D02*
X13610737Y-13278623D01*
X13610737Y-13278623D02*
X13601213Y-13269099D01*
X13601213Y-13269099D02*
X13591689Y-13250051D01*
X13591689Y-13250051D02*
X13582165Y-13211956D01*
X13582165Y-13211956D02*
X13582165Y-13164337D01*
X13582165Y-13164337D02*
X13591689Y-13126242D01*
X13591689Y-13126242D02*
X13601213Y-13107194D01*
X13601213Y-13107194D02*
X13610737Y-13097670D01*
X13610737Y-13097670D02*
X13629784Y-13088147D01*
X13782165Y-13269099D02*
X13791689Y-13278623D01*
X13791689Y-13278623D02*
X13782165Y-13288147D01*
X13782165Y-13288147D02*
X13772641Y-13278623D01*
X13772641Y-13278623D02*
X13782165Y-13269099D01*
X13782165Y-13269099D02*
X13782165Y-13288147D01*
X13982165Y-13288147D02*
X13867879Y-13288147D01*
X13925022Y-13288147D02*
X13925022Y-13088147D01*
X13925022Y-13088147D02*
X13905975Y-13116718D01*
X13905975Y-13116718D02*
X13886927Y-13135766D01*
X13886927Y-13135766D02*
X13867879Y-13145289D01*
X14058356Y-13107194D02*
X14067879Y-13097670D01*
X14067879Y-13097670D02*
X14086927Y-13088147D01*
X14086927Y-13088147D02*
X14134546Y-13088147D01*
X14134546Y-13088147D02*
X14153594Y-13097670D01*
X14153594Y-13097670D02*
X14163118Y-13107194D01*
X14163118Y-13107194D02*
X14172641Y-13126242D01*
X14172641Y-13126242D02*
X14172641Y-13145289D01*
X14172641Y-13145289D02*
X14163118Y-13173861D01*
X14163118Y-13173861D02*
X14048832Y-13288147D01*
X14048832Y-13288147D02*
X14172641Y-13288147D01*
X14286927Y-13173861D02*
X14267879Y-13164337D01*
X14267879Y-13164337D02*
X14258356Y-13154813D01*
X14258356Y-13154813D02*
X14248832Y-13135766D01*
X14248832Y-13135766D02*
X14248832Y-13126242D01*
X14248832Y-13126242D02*
X14258356Y-13107194D01*
X14258356Y-13107194D02*
X14267879Y-13097670D01*
X14267879Y-13097670D02*
X14286927Y-13088147D01*
X14286927Y-13088147D02*
X14325022Y-13088147D01*
X14325022Y-13088147D02*
X14344070Y-13097670D01*
X14344070Y-13097670D02*
X14353594Y-13107194D01*
X14353594Y-13107194D02*
X14363118Y-13126242D01*
X14363118Y-13126242D02*
X14363118Y-13135766D01*
X14363118Y-13135766D02*
X14353594Y-13154813D01*
X14353594Y-13154813D02*
X14344070Y-13164337D01*
X14344070Y-13164337D02*
X14325022Y-13173861D01*
X14325022Y-13173861D02*
X14286927Y-13173861D01*
X14286927Y-13173861D02*
X14267879Y-13183385D01*
X14267879Y-13183385D02*
X14258356Y-13192909D01*
X14258356Y-13192909D02*
X14248832Y-13211956D01*
X14248832Y-13211956D02*
X14248832Y-13250051D01*
X14248832Y-13250051D02*
X14258356Y-13269099D01*
X14258356Y-13269099D02*
X14267879Y-13278623D01*
X14267879Y-13278623D02*
X14286927Y-13288147D01*
X14286927Y-13288147D02*
X14325022Y-13288147D01*
X14325022Y-13288147D02*
X14344070Y-13278623D01*
X14344070Y-13278623D02*
X14353594Y-13269099D01*
X14353594Y-13269099D02*
X14363118Y-13250051D01*
X14363118Y-13250051D02*
X14363118Y-13211956D01*
X14363118Y-13211956D02*
X14353594Y-13192909D01*
X14353594Y-13192909D02*
X14344070Y-13183385D01*
X14344070Y-13183385D02*
X14325022Y-13173861D01*
X14486927Y-13088147D02*
X14505975Y-13088147D01*
X14505975Y-13088147D02*
X14525022Y-13097670D01*
X14525022Y-13097670D02*
X14534546Y-13107194D01*
X14534546Y-13107194D02*
X14544070Y-13126242D01*
X14544070Y-13126242D02*
X14553594Y-13164337D01*
X14553594Y-13164337D02*
X14553594Y-13211956D01*
X14553594Y-13211956D02*
X14544070Y-13250051D01*
X14544070Y-13250051D02*
X14534546Y-13269099D01*
X14534546Y-13269099D02*
X14525022Y-13278623D01*
X14525022Y-13278623D02*
X14505975Y-13288147D01*
X14505975Y-13288147D02*
X14486927Y-13288147D01*
X14486927Y-13288147D02*
X14467879Y-13278623D01*
X14467879Y-13278623D02*
X14458356Y-13269099D01*
X14458356Y-13269099D02*
X14448832Y-13250051D01*
X14448832Y-13250051D02*
X14439308Y-13211956D01*
X14439308Y-13211956D02*
X14439308Y-13164337D01*
X14439308Y-13164337D02*
X14448832Y-13126242D01*
X14448832Y-13126242D02*
X14458356Y-13107194D01*
X14458356Y-13107194D02*
X14467879Y-13097670D01*
X14467879Y-13097670D02*
X14486927Y-13088147D01*
X14629784Y-13088147D02*
X14629784Y-13126242D01*
X14705975Y-13088147D02*
X14705975Y-13126242D01*
X15001213Y-13364337D02*
X14991689Y-13354813D01*
X14991689Y-13354813D02*
X14972641Y-13326242D01*
X14972641Y-13326242D02*
X14963118Y-13307194D01*
X14963118Y-13307194D02*
X14953594Y-13278623D01*
X14953594Y-13278623D02*
X14944070Y-13231004D01*
X14944070Y-13231004D02*
X14944070Y-13192909D01*
X14944070Y-13192909D02*
X14953594Y-13145289D01*
X14953594Y-13145289D02*
X14963118Y-13116718D01*
X14963118Y-13116718D02*
X14972641Y-13097670D01*
X14972641Y-13097670D02*
X14991689Y-13069099D01*
X14991689Y-13069099D02*
X15001213Y-13059575D01*
X15067880Y-13107194D02*
X15077403Y-13097670D01*
X15077403Y-13097670D02*
X15096451Y-13088147D01*
X15096451Y-13088147D02*
X15144070Y-13088147D01*
X15144070Y-13088147D02*
X15163118Y-13097670D01*
X15163118Y-13097670D02*
X15172641Y-13107194D01*
X15172641Y-13107194D02*
X15182165Y-13126242D01*
X15182165Y-13126242D02*
X15182165Y-13145289D01*
X15182165Y-13145289D02*
X15172641Y-13173861D01*
X15172641Y-13173861D02*
X15058356Y-13288147D01*
X15058356Y-13288147D02*
X15182165Y-13288147D01*
X15420261Y-13288147D02*
X15420261Y-13088147D01*
X15505975Y-13288147D02*
X15505975Y-13183385D01*
X15505975Y-13183385D02*
X15496451Y-13164337D01*
X15496451Y-13164337D02*
X15477403Y-13154813D01*
X15477403Y-13154813D02*
X15448832Y-13154813D01*
X15448832Y-13154813D02*
X15429784Y-13164337D01*
X15429784Y-13164337D02*
X15420261Y-13173861D01*
X15629784Y-13288147D02*
X15610737Y-13278623D01*
X15610737Y-13278623D02*
X15601213Y-13269099D01*
X15601213Y-13269099D02*
X15591689Y-13250051D01*
X15591689Y-13250051D02*
X15591689Y-13192909D01*
X15591689Y-13192909D02*
X15601213Y-13173861D01*
X15601213Y-13173861D02*
X15610737Y-13164337D01*
X15610737Y-13164337D02*
X15629784Y-13154813D01*
X15629784Y-13154813D02*
X15658356Y-13154813D01*
X15658356Y-13154813D02*
X15677403Y-13164337D01*
X15677403Y-13164337D02*
X15686927Y-13173861D01*
X15686927Y-13173861D02*
X15696451Y-13192909D01*
X15696451Y-13192909D02*
X15696451Y-13250051D01*
X15696451Y-13250051D02*
X15686927Y-13269099D01*
X15686927Y-13269099D02*
X15677403Y-13278623D01*
X15677403Y-13278623D02*
X15658356Y-13288147D01*
X15658356Y-13288147D02*
X15629784Y-13288147D01*
X15810737Y-13288147D02*
X15791689Y-13278623D01*
X15791689Y-13278623D02*
X15782165Y-13259575D01*
X15782165Y-13259575D02*
X15782165Y-13088147D01*
X15963118Y-13278623D02*
X15944070Y-13288147D01*
X15944070Y-13288147D02*
X15905975Y-13288147D01*
X15905975Y-13288147D02*
X15886927Y-13278623D01*
X15886927Y-13278623D02*
X15877403Y-13259575D01*
X15877403Y-13259575D02*
X15877403Y-13183385D01*
X15877403Y-13183385D02*
X15886927Y-13164337D01*
X15886927Y-13164337D02*
X15905975Y-13154813D01*
X15905975Y-13154813D02*
X15944070Y-13154813D01*
X15944070Y-13154813D02*
X15963118Y-13164337D01*
X15963118Y-13164337D02*
X15972642Y-13183385D01*
X15972642Y-13183385D02*
X15972642Y-13202432D01*
X15972642Y-13202432D02*
X15877403Y-13221480D01*
X16048832Y-13278623D02*
X16067880Y-13288147D01*
X16067880Y-13288147D02*
X16105975Y-13288147D01*
X16105975Y-13288147D02*
X16125023Y-13278623D01*
X16125023Y-13278623D02*
X16134546Y-13259575D01*
X16134546Y-13259575D02*
X16134546Y-13250051D01*
X16134546Y-13250051D02*
X16125023Y-13231004D01*
X16125023Y-13231004D02*
X16105975Y-13221480D01*
X16105975Y-13221480D02*
X16077403Y-13221480D01*
X16077403Y-13221480D02*
X16058356Y-13211956D01*
X16058356Y-13211956D02*
X16048832Y-13192909D01*
X16048832Y-13192909D02*
X16048832Y-13183385D01*
X16048832Y-13183385D02*
X16058356Y-13164337D01*
X16058356Y-13164337D02*
X16077403Y-13154813D01*
X16077403Y-13154813D02*
X16105975Y-13154813D01*
X16105975Y-13154813D02*
X16125023Y-13164337D01*
X16201213Y-13364337D02*
X16210737Y-13354813D01*
X16210737Y-13354813D02*
X16229784Y-13326242D01*
X16229784Y-13326242D02*
X16239308Y-13307194D01*
X16239308Y-13307194D02*
X16248832Y-13278623D01*
X16248832Y-13278623D02*
X16258356Y-13231004D01*
X16258356Y-13231004D02*
X16258356Y-13192909D01*
X16258356Y-13192909D02*
X16248832Y-13145289D01*
X16248832Y-13145289D02*
X16239308Y-13116718D01*
X16239308Y-13116718D02*
X16229784Y-13097670D01*
X16229784Y-13097670D02*
X16210737Y-13069099D01*
X16210737Y-13069099D02*
X16201213Y-13059575D01*
X16563118Y-13364337D02*
X16553594Y-13354813D01*
X16553594Y-13354813D02*
X16534546Y-13326242D01*
X16534546Y-13326242D02*
X16525023Y-13307194D01*
X16525023Y-13307194D02*
X16515499Y-13278623D01*
X16515499Y-13278623D02*
X16505975Y-13231004D01*
X16505975Y-13231004D02*
X16505975Y-13192909D01*
X16505975Y-13192909D02*
X16515499Y-13145289D01*
X16515499Y-13145289D02*
X16525023Y-13116718D01*
X16525023Y-13116718D02*
X16534546Y-13097670D01*
X16534546Y-13097670D02*
X16553594Y-13069099D01*
X16553594Y-13069099D02*
X16563118Y-13059575D01*
X16639308Y-13154813D02*
X16639308Y-13288147D01*
X16639308Y-13173861D02*
X16648832Y-13164337D01*
X16648832Y-13164337D02*
X16667880Y-13154813D01*
X16667880Y-13154813D02*
X16696451Y-13154813D01*
X16696451Y-13154813D02*
X16715499Y-13164337D01*
X16715499Y-13164337D02*
X16725023Y-13183385D01*
X16725023Y-13183385D02*
X16725023Y-13288147D01*
X16848832Y-13288147D02*
X16829785Y-13278623D01*
X16829785Y-13278623D02*
X16820261Y-13269099D01*
X16820261Y-13269099D02*
X16810737Y-13250051D01*
X16810737Y-13250051D02*
X16810737Y-13192909D01*
X16810737Y-13192909D02*
X16820261Y-13173861D01*
X16820261Y-13173861D02*
X16829785Y-13164337D01*
X16829785Y-13164337D02*
X16848832Y-13154813D01*
X16848832Y-13154813D02*
X16877404Y-13154813D01*
X16877404Y-13154813D02*
X16896451Y-13164337D01*
X16896451Y-13164337D02*
X16905975Y-13173861D01*
X16905975Y-13173861D02*
X16915499Y-13192909D01*
X16915499Y-13192909D02*
X16915499Y-13250051D01*
X16915499Y-13250051D02*
X16905975Y-13269099D01*
X16905975Y-13269099D02*
X16896451Y-13278623D01*
X16896451Y-13278623D02*
X16877404Y-13288147D01*
X16877404Y-13288147D02*
X16848832Y-13288147D01*
X16972642Y-13154813D02*
X17048832Y-13154813D01*
X17001213Y-13088147D02*
X17001213Y-13259575D01*
X17001213Y-13259575D02*
X17010737Y-13278623D01*
X17010737Y-13278623D02*
X17029785Y-13288147D01*
X17029785Y-13288147D02*
X17048832Y-13288147D01*
X17267880Y-13154813D02*
X17267880Y-13354813D01*
X17267880Y-13164337D02*
X17286927Y-13154813D01*
X17286927Y-13154813D02*
X17325023Y-13154813D01*
X17325023Y-13154813D02*
X17344070Y-13164337D01*
X17344070Y-13164337D02*
X17353594Y-13173861D01*
X17353594Y-13173861D02*
X17363118Y-13192909D01*
X17363118Y-13192909D02*
X17363118Y-13250051D01*
X17363118Y-13250051D02*
X17353594Y-13269099D01*
X17353594Y-13269099D02*
X17344070Y-13278623D01*
X17344070Y-13278623D02*
X17325023Y-13288147D01*
X17325023Y-13288147D02*
X17286927Y-13288147D01*
X17286927Y-13288147D02*
X17267880Y-13278623D01*
X17477404Y-13288147D02*
X17458356Y-13278623D01*
X17458356Y-13278623D02*
X17448832Y-13259575D01*
X17448832Y-13259575D02*
X17448832Y-13088147D01*
X17639308Y-13288147D02*
X17639308Y-13183385D01*
X17639308Y-13183385D02*
X17629785Y-13164337D01*
X17629785Y-13164337D02*
X17610737Y-13154813D01*
X17610737Y-13154813D02*
X17572642Y-13154813D01*
X17572642Y-13154813D02*
X17553594Y-13164337D01*
X17639308Y-13278623D02*
X17620261Y-13288147D01*
X17620261Y-13288147D02*
X17572642Y-13288147D01*
X17572642Y-13288147D02*
X17553594Y-13278623D01*
X17553594Y-13278623D02*
X17544070Y-13259575D01*
X17544070Y-13259575D02*
X17544070Y-13240528D01*
X17544070Y-13240528D02*
X17553594Y-13221480D01*
X17553594Y-13221480D02*
X17572642Y-13211956D01*
X17572642Y-13211956D02*
X17620261Y-13211956D01*
X17620261Y-13211956D02*
X17639308Y-13202432D01*
X17705975Y-13154813D02*
X17782166Y-13154813D01*
X17734547Y-13088147D02*
X17734547Y-13259575D01*
X17734547Y-13259575D02*
X17744070Y-13278623D01*
X17744070Y-13278623D02*
X17763118Y-13288147D01*
X17763118Y-13288147D02*
X17782166Y-13288147D01*
X17925023Y-13278623D02*
X17905975Y-13288147D01*
X17905975Y-13288147D02*
X17867880Y-13288147D01*
X17867880Y-13288147D02*
X17848832Y-13278623D01*
X17848832Y-13278623D02*
X17839308Y-13259575D01*
X17839308Y-13259575D02*
X17839308Y-13183385D01*
X17839308Y-13183385D02*
X17848832Y-13164337D01*
X17848832Y-13164337D02*
X17867880Y-13154813D01*
X17867880Y-13154813D02*
X17905975Y-13154813D01*
X17905975Y-13154813D02*
X17925023Y-13164337D01*
X17925023Y-13164337D02*
X17934547Y-13183385D01*
X17934547Y-13183385D02*
X17934547Y-13202432D01*
X17934547Y-13202432D02*
X17839308Y-13221480D01*
X18105975Y-13288147D02*
X18105975Y-13088147D01*
X18105975Y-13278623D02*
X18086928Y-13288147D01*
X18086928Y-13288147D02*
X18048832Y-13288147D01*
X18048832Y-13288147D02*
X18029785Y-13278623D01*
X18029785Y-13278623D02*
X18020261Y-13269099D01*
X18020261Y-13269099D02*
X18010737Y-13250051D01*
X18010737Y-13250051D02*
X18010737Y-13192909D01*
X18010737Y-13192909D02*
X18020261Y-13173861D01*
X18020261Y-13173861D02*
X18029785Y-13164337D01*
X18029785Y-13164337D02*
X18048832Y-13154813D01*
X18048832Y-13154813D02*
X18086928Y-13154813D01*
X18086928Y-13154813D02*
X18105975Y-13164337D01*
X18182166Y-13364337D02*
X18191689Y-13354813D01*
X18191689Y-13354813D02*
X18210737Y-13326242D01*
X18210737Y-13326242D02*
X18220261Y-13307194D01*
X18220261Y-13307194D02*
X18229785Y-13278623D01*
X18229785Y-13278623D02*
X18239308Y-13231004D01*
X18239308Y-13231004D02*
X18239308Y-13192909D01*
X18239308Y-13192909D02*
X18229785Y-13145289D01*
X18229785Y-13145289D02*
X18220261Y-13116718D01*
X18220261Y-13116718D02*
X18210737Y-13097670D01*
X18210737Y-13097670D02*
X18191689Y-13069099D01*
X18191689Y-13069099D02*
X18182166Y-13059575D01*
M02*
