%TF.GenerationSoftware,KiCad,Pcbnew,8.0.1*%
%TF.CreationDate,2024-10-20T18:03:53-07:00*%
%TF.ProjectId,POEPico,504f4550-6963-46f2-9e6b-696361645f70,rev?*%
%TF.SameCoordinates,Original*%
%TF.FileFunction,Paste,Bot*%
%TF.FilePolarity,Positive*%
%FSLAX46Y46*%
G04 Gerber Fmt 4.6, Leading zero omitted, Abs format (unit mm)*
G04 Created by KiCad (PCBNEW 8.0.1) date 2024-10-20 18:03:53*
%MOMM*%
%LPD*%
G01*
G04 APERTURE LIST*
G04 Aperture macros list*
%AMRoundRect*
0 Rectangle with rounded corners*
0 $1 Rounding radius*
0 $2 $3 $4 $5 $6 $7 $8 $9 X,Y pos of 4 corners*
0 Add a 4 corners polygon primitive as box body*
4,1,4,$2,$3,$4,$5,$6,$7,$8,$9,$2,$3,0*
0 Add four circle primitives for the rounded corners*
1,1,$1+$1,$2,$3*
1,1,$1+$1,$4,$5*
1,1,$1+$1,$6,$7*
1,1,$1+$1,$8,$9*
0 Add four rect primitives between the rounded corners*
20,1,$1+$1,$2,$3,$4,$5,0*
20,1,$1+$1,$4,$5,$6,$7,0*
20,1,$1+$1,$6,$7,$8,$9,0*
20,1,$1+$1,$8,$9,$2,$3,0*%
G04 Aperture macros list end*
%ADD10RoundRect,0.135000X0.135000X0.185000X-0.135000X0.185000X-0.135000X-0.185000X0.135000X-0.185000X0*%
%ADD11RoundRect,0.135000X-0.135000X-0.185000X0.135000X-0.185000X0.135000X0.185000X-0.135000X0.185000X0*%
%ADD12RoundRect,0.200000X-0.200000X-0.275000X0.200000X-0.275000X0.200000X0.275000X-0.200000X0.275000X0*%
%ADD13RoundRect,0.200000X0.275000X-0.200000X0.275000X0.200000X-0.275000X0.200000X-0.275000X-0.200000X0*%
%ADD14RoundRect,0.135000X0.185000X-0.135000X0.185000X0.135000X-0.185000X0.135000X-0.185000X-0.135000X0*%
%ADD15RoundRect,0.135000X-0.185000X0.135000X-0.185000X-0.135000X0.185000X-0.135000X0.185000X0.135000X0*%
%ADD16RoundRect,0.140000X-0.140000X-0.170000X0.140000X-0.170000X0.140000X0.170000X-0.140000X0.170000X0*%
%ADD17RoundRect,0.112500X0.237500X-0.112500X0.237500X0.112500X-0.237500X0.112500X-0.237500X-0.112500X0*%
%ADD18R,1.600000X0.550000*%
%ADD19RoundRect,0.250000X-0.475000X0.250000X-0.475000X-0.250000X0.475000X-0.250000X0.475000X0.250000X0*%
%ADD20RoundRect,0.140000X0.170000X-0.140000X0.170000X0.140000X-0.170000X0.140000X-0.170000X-0.140000X0*%
%ADD21RoundRect,0.250000X1.100000X-0.325000X1.100000X0.325000X-1.100000X0.325000X-1.100000X-0.325000X0*%
%ADD22R,1.200000X1.600000*%
%ADD23R,0.800000X0.800000*%
%ADD24RoundRect,0.085000X0.265000X0.085000X-0.265000X0.085000X-0.265000X-0.085000X0.265000X-0.085000X0*%
%ADD25RoundRect,0.162500X0.162500X-0.447500X0.162500X0.447500X-0.162500X0.447500X-0.162500X-0.447500X0*%
%ADD26R,1.219200X0.406400*%
%ADD27R,3.073400X2.489200*%
%ADD28RoundRect,0.140000X-0.170000X0.140000X-0.170000X-0.140000X0.170000X-0.140000X0.170000X0.140000X0*%
%ADD29RoundRect,0.375000X-0.375000X0.375000X-0.375000X-0.375000X0.375000X-0.375000X0.375000X0.375000X0*%
%ADD30RoundRect,0.125000X-0.125000X0.250000X-0.125000X-0.250000X0.125000X-0.250000X0.125000X0.250000X0*%
%ADD31RoundRect,0.100000X-0.100000X0.275000X-0.100000X-0.275000X0.100000X-0.275000X0.100000X0.275000X0*%
%ADD32RoundRect,0.225000X0.250000X-0.225000X0.250000X0.225000X-0.250000X0.225000X-0.250000X-0.225000X0*%
%ADD33RoundRect,0.225000X0.375000X-0.225000X0.375000X0.225000X-0.375000X0.225000X-0.375000X-0.225000X0*%
%ADD34RoundRect,0.150000X-0.650000X-0.150000X0.650000X-0.150000X0.650000X0.150000X-0.650000X0.150000X0*%
%ADD35RoundRect,0.217500X0.217500X0.217500X-0.217500X0.217500X-0.217500X-0.217500X0.217500X-0.217500X0*%
%ADD36RoundRect,0.075000X0.462500X0.075000X-0.462500X0.075000X-0.462500X-0.075000X0.462500X-0.075000X0*%
%ADD37RoundRect,0.075000X0.075000X0.462500X-0.075000X0.462500X-0.075000X-0.462500X0.075000X-0.462500X0*%
%ADD38RoundRect,0.250000X-0.650000X0.325000X-0.650000X-0.325000X0.650000X-0.325000X0.650000X0.325000X0*%
%ADD39RoundRect,0.375000X0.375000X-0.375000X0.375000X0.375000X-0.375000X0.375000X-0.375000X-0.375000X0*%
%ADD40RoundRect,0.125000X0.125000X-0.250000X0.125000X0.250000X-0.125000X0.250000X-0.125000X-0.250000X0*%
%ADD41RoundRect,0.100000X0.100000X-0.275000X0.100000X0.275000X-0.100000X0.275000X-0.100000X-0.275000X0*%
%ADD42R,0.406400X1.219200*%
%ADD43R,2.489200X3.073400*%
G04 APERTURE END LIST*
D10*
%TO.C,R33*%
X119176200Y-120904000D03*
X118156200Y-120904000D03*
%TD*%
D11*
%TO.C,R32*%
X118156200Y-119761000D03*
X119176200Y-119761000D03*
%TD*%
D12*
%TO.C,R29*%
X145045401Y-76723829D03*
X146695401Y-76723829D03*
%TD*%
D13*
%TO.C,R22*%
X139192000Y-33068129D03*
X139192000Y-31418129D03*
%TD*%
D14*
%TO.C,R17*%
X150264401Y-102171629D03*
X150264401Y-101151629D03*
%TD*%
D15*
%TO.C,R5*%
X120373801Y-114098229D03*
X120373801Y-115118229D03*
%TD*%
D16*
%TO.C,C59*%
X118186200Y-117475000D03*
X119146200Y-117475000D03*
%TD*%
D17*
%TO.C,D6*%
X142295401Y-38308629D03*
X142295401Y-37008629D03*
X144295401Y-37658629D03*
%TD*%
D18*
%TO.C,L5*%
X122174000Y-118544000D03*
X122174000Y-117094000D03*
%TD*%
D19*
%TO.C,C55*%
X137287000Y-31293129D03*
X137287000Y-33193129D03*
%TD*%
D20*
%TO.C,C29*%
X150292401Y-104144029D03*
X150292401Y-103184029D03*
%TD*%
D21*
%TO.C,C41*%
X146048001Y-32528729D03*
X146048001Y-29578729D03*
%TD*%
D22*
%TO.C,FB3*%
X152396801Y-105883029D03*
X150796801Y-105883029D03*
%TD*%
D23*
%TO.C,D3*%
X151638000Y-101957000D03*
X151638000Y-100457000D03*
%TD*%
D16*
%TO.C,C63*%
X117658000Y-94030800D03*
X118618000Y-94030800D03*
%TD*%
D24*
%TO.C,U9*%
X121845200Y-119761000D03*
X121845200Y-120261000D03*
X121845200Y-120761000D03*
X120345200Y-120761000D03*
X120345200Y-120261000D03*
X120345200Y-119761000D03*
%TD*%
D25*
%TO.C,Q10*%
X150325401Y-41421629D03*
X148425401Y-41421629D03*
X149375401Y-38801629D03*
%TD*%
D26*
%TO.C,Q8*%
X123603401Y-51663128D03*
X123603401Y-51013130D03*
X123603401Y-50363128D03*
X123603401Y-49713130D03*
D27*
X126003701Y-50688129D03*
%TD*%
D26*
%TO.C,Q2*%
X130093101Y-58826628D03*
X130093101Y-58176630D03*
X130093101Y-57526628D03*
X130093101Y-56876630D03*
D27*
X132493401Y-57851629D03*
%TD*%
D20*
%TO.C,C33*%
X151435401Y-104144029D03*
X151435401Y-103184029D03*
%TD*%
D16*
%TO.C,C58*%
X120345200Y-121920000D03*
X121305200Y-121920000D03*
%TD*%
D26*
%TO.C,Q4*%
X130093101Y-51663128D03*
X130093101Y-51013130D03*
X130093101Y-50363128D03*
X130093101Y-49713130D03*
D27*
X132493401Y-50688129D03*
%TD*%
D25*
%TO.C,D5*%
X139718401Y-64508629D03*
X137818401Y-64508629D03*
X138768401Y-61888629D03*
%TD*%
D28*
%TO.C,C35*%
X147546601Y-107361429D03*
X147546601Y-108321429D03*
%TD*%
%TO.C,C14*%
X120373801Y-112111229D03*
X120373801Y-113071229D03*
%TD*%
D22*
%TO.C,FB2*%
X152396801Y-108169029D03*
X150796801Y-108169029D03*
%TD*%
D29*
%TO.C,Q11*%
X143675401Y-44586629D03*
X141975401Y-44586629D03*
X143675401Y-46286629D03*
X141975401Y-46286629D03*
D30*
X144730401Y-47691629D03*
X143460401Y-47691629D03*
X142190401Y-47691629D03*
X140920401Y-47691629D03*
D31*
X140920401Y-41886629D03*
X142190401Y-41886629D03*
X143460401Y-41886629D03*
X144730401Y-41886629D03*
%TD*%
D32*
%TO.C,C57*%
X124333000Y-120056000D03*
X124333000Y-118506000D03*
%TD*%
D20*
%TO.C,C38*%
X152578401Y-104144029D03*
X152578401Y-103184029D03*
%TD*%
D33*
%TO.C,D7*%
X146200401Y-74995629D03*
X146200401Y-71695629D03*
%TD*%
D34*
%TO.C,U2*%
X118858001Y-99457029D03*
X118858001Y-98187029D03*
X118858001Y-96917029D03*
X118858001Y-95647029D03*
X126058001Y-95647029D03*
X126058001Y-96917029D03*
X126058001Y-98187029D03*
X126058001Y-99457029D03*
%TD*%
D26*
%TO.C,Q6*%
X123616101Y-58826628D03*
X123616101Y-58176630D03*
X123616101Y-57526628D03*
X123616101Y-56876630D03*
D27*
X126016401Y-57851629D03*
%TD*%
D23*
%TO.C,Y1*%
X118793801Y-112029829D03*
X118793801Y-113329829D03*
X115693801Y-113329829D03*
X115693801Y-112029829D03*
%TD*%
D35*
%TO.C,U4*%
X129055401Y-65090629D03*
X129055401Y-64010629D03*
X127975401Y-65090629D03*
X127975401Y-64010629D03*
D36*
X130352901Y-63575629D03*
X130352901Y-64225629D03*
X130352901Y-64875629D03*
X130352901Y-65525629D03*
D37*
X129490401Y-66388129D03*
X128840401Y-66388129D03*
X128190401Y-66388129D03*
X127540401Y-66388129D03*
D36*
X126677901Y-65525629D03*
X126677901Y-64875629D03*
X126677901Y-64225629D03*
X126677901Y-63575629D03*
D37*
X127540401Y-62713129D03*
X128190401Y-62713129D03*
X128840401Y-62713129D03*
X129490401Y-62713129D03*
%TD*%
D16*
%TO.C,C60*%
X118186200Y-118618000D03*
X119146200Y-118618000D03*
%TD*%
D38*
%TO.C,C43*%
X145819401Y-53532629D03*
X145819401Y-56482629D03*
%TD*%
D39*
%TO.C,Q12*%
X143318401Y-61988629D03*
X145018401Y-61988629D03*
X143318401Y-60288629D03*
X145018401Y-60288629D03*
D40*
X142263401Y-58883629D03*
X143533401Y-58883629D03*
X144803401Y-58883629D03*
X146073401Y-58883629D03*
D41*
X146073401Y-64688629D03*
X144803401Y-64688629D03*
X143533401Y-64688629D03*
X142263401Y-64688629D03*
%TD*%
D42*
%TO.C,Q9*%
X143111400Y-32438929D03*
X142461402Y-32438929D03*
X141811400Y-32438929D03*
X141161402Y-32438929D03*
D43*
X142136401Y-30038629D03*
%TD*%
D16*
%TO.C,C13*%
X115693801Y-110201029D03*
X116653801Y-110201029D03*
%TD*%
D20*
%TO.C,C28*%
X149149401Y-104144029D03*
X149149401Y-103184029D03*
%TD*%
%TO.C,C12*%
X128776001Y-97851429D03*
X128776001Y-96891429D03*
%TD*%
M02*
