M48
; DRILL file {KiCad 8.0.1} date 2024-10-20T18:04:31-0700
; FORMAT={-:-/ absolute / inch / decimal}
; #@! TF.CreationDate,2024-10-20T18:04:31-07:00
; #@! TF.GenerationSoftware,Kicad,Pcbnew,8.0.1
; #@! TF.FileFunction,Plated,1,4,PTH
FMAT,2
INCH
; #@! TA.AperFunction,Plated,PTH,ViaDrill
T1C0.0118
; #@! TA.AperFunction,Plated,PTH,ComponentDrill
T2C0.0256
; #@! TA.AperFunction,Plated,PTH,ComponentDrill
T3C0.0276
; #@! TA.AperFunction,Plated,PTH,ComponentDrill
T4C0.0300
; #@! TA.AperFunction,Plated,PTH,ComponentDrill
T5C0.0354
; #@! TA.AperFunction,Plated,PTH,ComponentDrill
T6C0.0394
; #@! TA.AperFunction,Plated,PTH,ComponentDrill
T7C0.0406
; #@! TA.AperFunction,Plated,PTH,ComponentDrill
T8C0.0630
%
G90
G05
T1
X4.54Y-3.97
X4.6049Y-4.1026
X4.605Y-4.1435
X4.61Y-4.44
X4.64Y-4.0035
X4.64Y-3.972
X4.6409Y-4.035
X4.6409Y-4.0706
X4.6409Y-4.1026
X4.6409Y-4.1986
X4.6409Y-4.2301
X4.6409Y-4.2616
X4.6409Y-4.2931
X4.6423Y-4.1672
X4.6759Y-4.3445
X4.6769Y-4.54
X4.7103Y-4.3445
X4.74Y-4.625
X4.7402Y-4.67
X4.7519Y-3.8526
X4.7519Y-3.8841
X4.7519Y-3.9156
X4.7578Y-4.3445
X4.78Y-4.885
X4.7899Y-4.4106
X4.7899Y-4.4436
X4.7905Y-4.555
X4.7909Y-4.3445
X4.81Y-4.885
X4.8109Y-2.034
X4.822Y-4.555
X4.8359Y-1.8976
X4.8359Y-2.1776
X4.84Y-4.885
X4.8409Y-2.4176
X4.8528Y-3.8475
X4.8528Y-3.884
X4.8528Y-3.9155
X4.8535Y-4.555
X4.8664Y-1.8976
X4.8664Y-2.1776
X4.8759Y-2.4526
X4.8867Y-3.7126
X4.8959Y-1.8976
X4.8959Y-2.1776
X4.903Y-4.8332
X4.9249Y-4.3486
X4.9347Y-3.7126
X4.9353Y-2.5776
X4.953Y-1.7776
X4.9564Y-4.3486
X4.985Y-1.7776
X4.9879Y-4.3486
X4.989Y-4.62
X4.9959Y-2.1276
X5.0059Y-2.4176
X5.01Y-4.66
X5.01Y-4.76
X5.018Y-1.7776
X5.0194Y-4.3486
X5.0359Y-2.3726
X5.04Y-4.66
X5.04Y-4.76
X5.05Y-3.76
X5.0509Y-4.3486
X5.0659Y-2.3276
X5.07Y-4.66
X5.07Y-4.76
X5.0725Y-2.3726
X5.0749Y-3.9826
X5.0749Y-4.0141
X5.0749Y-4.0456
X5.0749Y-4.0771
X5.0749Y-4.2076
X5.0749Y-4.2391
X5.1049Y-4.1186
X5.1064Y-4.2669
X5.1144Y-3.8524
X5.1353Y-4.1637
X5.138Y-4.079
X5.15Y-4.52
X5.15Y-4.55
X5.15Y-4.58
X5.175Y-4.1186
X5.175Y-4.27
X5.1839Y-1.8776
X5.1859Y-2.3876
X5.2059Y-2.4676
X5.2059Y-2.5286
X5.2159Y-1.8776
X5.2159Y-2.3876
X5.2409Y-2.1076
X5.2459Y-2.3876
X5.2489Y-1.8776
X5.26Y-4.52
X5.26Y-4.55
X5.26Y-4.58
X5.262Y-4.1924
X5.27Y-3.33
X5.2909Y-2.0826
X5.3059Y-1.7776
X5.3059Y-1.8097
X5.3059Y-1.8426
X5.3059Y-1.9626
X5.3059Y-1.9956
X5.3059Y-2.0276
X5.31Y-3.5806
X5.31Y-3.62
X5.31Y-4.6199
X5.31Y-4.6514
X5.3394Y-3.8518
X5.36Y-3.4276
X5.37Y-4.2685
X5.37Y-4.3
X5.377Y-2.6676
X5.382Y-4.1085
X5.4059Y-1.7776
X5.4059Y-1.8097
X5.4059Y-1.8426
X5.4259Y-1.5926
X5.43Y-2.6
X5.4659Y-1.7162
X5.472Y-4.7651
X5.4864Y-1.5926
X5.4909Y-1.9676
X5.4909Y-2.6006
X5.505Y-2.29
X5.506Y-2.164
X5.506Y-2.064
X5.5285Y-4.33
X5.538Y-2.064
X5.538Y-2.164
X5.557Y-3.7946
X5.557Y-3.8324
X5.56Y-4.33
X5.5697Y-4.43
X5.5759Y-2.1163
X5.5809Y-2.9795
X5.5809Y-3.0776
X5.5817Y-1.0886
X5.5889Y-4.3927
X5.6009Y-2.6116
X5.6056Y-3.8322
X5.6108Y-4.3627
X5.6137Y-3.1763
X5.614Y-2.2237
X5.6462Y-3.8958
X5.6499Y-4.56
X5.6516Y-1.3316
X5.6629Y-4.454
X5.6709Y-2.6116
X5.6719Y-2.8227
X5.6969Y-4.454
X5.7049Y-1.3326
X5.707Y-3.7074
X5.7124Y-3.0796
X5.7359Y-1.3326
X5.7519Y-1.5496
X5.7535Y-4.51
X5.7537Y-3.1763
X5.7561Y-4.3005
X5.76Y-1.895
X5.8009Y-4.0232
X5.8089Y-4.1872
X5.817Y-3.8685
X5.832Y-4.1002
X5.8329Y-4.0624
X5.8429Y-3.9386
X5.8453Y-1.3276
X5.8509Y-4.3046
X5.8529Y-1.3956
X5.88Y-3.83
X5.8859Y-1.3956
X5.9064Y-1.6926
X5.9149Y-1.0701
X5.9154Y-1.157
X5.9159Y-3.9386
X5.92Y-3.83
X5.9209Y-1.0341
X5.9609Y-3.91
X5.9659Y-1.4606
X5.9659Y-1.5226
X5.9659Y-1.5776
X5.9859Y-1.7986
X6.009Y-3.68
X6.01Y-1.305
X6.04Y-4.0635
T4
X4.5694Y-3.8934
X4.5702Y-3.7934
T5
X5.1866Y-1.2034
X5.1866Y-1.3034
X5.1866Y-1.5034
X5.1866Y-1.6034
X5.2866Y-1.1534
X5.2866Y-1.2534
X5.2866Y-1.3534
X5.2866Y-1.4534
X5.2866Y-1.5534
T6
X4.57Y-1.8984
X4.57Y-1.9984
X4.57Y-2.0984
X4.57Y-2.1984
X4.57Y-2.2984
X4.57Y-2.3984
X4.57Y-2.4984
X4.57Y-2.5984
X4.57Y-2.6984
X4.57Y-2.7984
X4.57Y-2.8984
X4.57Y-2.9984
X4.57Y-3.0984
X4.57Y-3.1984
X4.57Y-3.2984
X4.57Y-3.3984
X4.57Y-3.4984
X4.57Y-3.5984
X4.67Y-1.8984
X4.67Y-1.9984
X4.67Y-2.0984
X4.67Y-2.1984
X4.67Y-2.2984
X4.67Y-2.3984
X4.67Y-2.4984
X4.67Y-2.5984
X4.67Y-2.6984
X4.67Y-2.7984
X4.67Y-2.8984
X4.67Y-2.9984
X4.67Y-3.0984
X4.67Y-3.1984
X4.67Y-3.2984
X4.67Y-3.3984
X4.67Y-3.4984
X4.67Y-3.5984
X5.909Y-1.866
X5.909Y-1.966
X5.909Y-2.066
X5.909Y-2.166
X5.909Y-2.266
X5.909Y-2.366
X5.909Y-2.466
X5.909Y-2.566
X5.909Y-2.666
X5.909Y-2.766
X5.909Y-2.866
X5.909Y-2.966
X5.909Y-3.066
X5.909Y-3.166
X5.909Y-3.266
X5.909Y-3.366
X5.909Y-3.466
X5.909Y-3.566
X6.009Y-1.866
X6.009Y-1.966
X6.009Y-2.066
X6.009Y-2.166
X6.009Y-2.266
X6.009Y-2.366
X6.009Y-2.466
X6.009Y-2.566
X6.009Y-2.666
X6.009Y-2.766
X6.009Y-2.866
X6.009Y-2.966
X6.009Y-3.066
X6.009Y-3.166
X6.009Y-3.266
X6.009Y-3.366
X6.009Y-3.466
X6.009Y-3.566
T7
X4.7759Y-1.1176
X4.7759Y-1.2176
X4.7759Y-1.5393
X4.7759Y-1.6393
T8
X5.0566Y-1.0735
X5.0566Y-1.6834
T2
G00X5.1945Y-4.7638
M15
G01X5.1945Y-4.748
M16
G05
G00X5.3851Y-4.7638
M15
G01X5.3851Y-4.748
M16
G05
T3
G00X5.1823Y-4.8838
M15
G01X5.1823Y-4.8642
M16
G05
G00X5.3973Y-4.8838
M15
G01X5.3973Y-4.8642
M16
G05
M30
