%TF.GenerationSoftware,KiCad,Pcbnew,8.0.1*%
%TF.CreationDate,2024-10-20T22:07:07-07:00*%
%TF.ProjectId,POEPico,504f4550-6963-46f2-9e6b-696361645f70,rev?*%
%TF.SameCoordinates,Original*%
%TF.FileFunction,Legend,Top*%
%TF.FilePolarity,Positive*%
%FSLAX46Y46*%
G04 Gerber Fmt 4.6, Leading zero omitted, Abs format (unit mm)*
G04 Created by KiCad (PCBNEW 8.0.1) date 2024-10-20 22:07:07*
%MOMM*%
%LPD*%
G01*
G04 APERTURE LIST*
%ADD10C,0.100000*%
%ADD11C,0.150000*%
%ADD12C,0.120000*%
%ADD13C,0.152400*%
%ADD14C,0.350000*%
%ADD15C,0.200000*%
%ADD16C,0.400000*%
G04 APERTURE END LIST*
D10*
X141439419Y-29005666D02*
X141439419Y-29481856D01*
X141439419Y-29481856D02*
X140439419Y-29481856D01*
X141439419Y-28148523D02*
X141439419Y-28719951D01*
X141439419Y-28434237D02*
X140439419Y-28434237D01*
X140439419Y-28434237D02*
X140582276Y-28529475D01*
X140582276Y-28529475D02*
X140677514Y-28624713D01*
X140677514Y-28624713D02*
X140725133Y-28719951D01*
D11*
X137233819Y-27408094D02*
X136233819Y-27408094D01*
X136233819Y-27408094D02*
X136233819Y-27169999D01*
X136233819Y-27169999D02*
X136281438Y-27027142D01*
X136281438Y-27027142D02*
X136376676Y-26931904D01*
X136376676Y-26931904D02*
X136471914Y-26884285D01*
X136471914Y-26884285D02*
X136662390Y-26836666D01*
X136662390Y-26836666D02*
X136805247Y-26836666D01*
X136805247Y-26836666D02*
X136995723Y-26884285D01*
X136995723Y-26884285D02*
X137090961Y-26931904D01*
X137090961Y-26931904D02*
X137186200Y-27027142D01*
X137186200Y-27027142D02*
X137233819Y-27169999D01*
X137233819Y-27169999D02*
X137233819Y-27408094D01*
X136567152Y-25979523D02*
X137233819Y-25979523D01*
X136186200Y-26217618D02*
X136900485Y-26455713D01*
X136900485Y-26455713D02*
X136900485Y-25836666D01*
X126198333Y-86086448D02*
X125722143Y-86086448D01*
X125722143Y-86086448D02*
X125722143Y-85086448D01*
X126960238Y-85419781D02*
X126960238Y-86086448D01*
X126722143Y-85038829D02*
X126484048Y-85753114D01*
X126484048Y-85753114D02*
X127103095Y-85753114D01*
D10*
X138252419Y-51347666D02*
X138252419Y-51823856D01*
X138252419Y-51823856D02*
X137252419Y-51823856D01*
X137252419Y-51109570D02*
X137252419Y-50490523D01*
X137252419Y-50490523D02*
X137633371Y-50823856D01*
X137633371Y-50823856D02*
X137633371Y-50680999D01*
X137633371Y-50680999D02*
X137680990Y-50585761D01*
X137680990Y-50585761D02*
X137728609Y-50538142D01*
X137728609Y-50538142D02*
X137823847Y-50490523D01*
X137823847Y-50490523D02*
X138061942Y-50490523D01*
X138061942Y-50490523D02*
X138157180Y-50538142D01*
X138157180Y-50538142D02*
X138204800Y-50585761D01*
X138204800Y-50585761D02*
X138252419Y-50680999D01*
X138252419Y-50680999D02*
X138252419Y-50966713D01*
X138252419Y-50966713D02*
X138204800Y-51061951D01*
X138204800Y-51061951D02*
X138157180Y-51109570D01*
D11*
X133963580Y-97591495D02*
X134011200Y-97639114D01*
X134011200Y-97639114D02*
X134058819Y-97781971D01*
X134058819Y-97781971D02*
X134058819Y-97877209D01*
X134058819Y-97877209D02*
X134011200Y-98020066D01*
X134011200Y-98020066D02*
X133915961Y-98115304D01*
X133915961Y-98115304D02*
X133820723Y-98162923D01*
X133820723Y-98162923D02*
X133630247Y-98210542D01*
X133630247Y-98210542D02*
X133487390Y-98210542D01*
X133487390Y-98210542D02*
X133296914Y-98162923D01*
X133296914Y-98162923D02*
X133201676Y-98115304D01*
X133201676Y-98115304D02*
X133106438Y-98020066D01*
X133106438Y-98020066D02*
X133058819Y-97877209D01*
X133058819Y-97877209D02*
X133058819Y-97781971D01*
X133058819Y-97781971D02*
X133106438Y-97639114D01*
X133106438Y-97639114D02*
X133154057Y-97591495D01*
X134058819Y-97115304D02*
X134058819Y-96924828D01*
X134058819Y-96924828D02*
X134011200Y-96829590D01*
X134011200Y-96829590D02*
X133963580Y-96781971D01*
X133963580Y-96781971D02*
X133820723Y-96686733D01*
X133820723Y-96686733D02*
X133630247Y-96639114D01*
X133630247Y-96639114D02*
X133249295Y-96639114D01*
X133249295Y-96639114D02*
X133154057Y-96686733D01*
X133154057Y-96686733D02*
X133106438Y-96734352D01*
X133106438Y-96734352D02*
X133058819Y-96829590D01*
X133058819Y-96829590D02*
X133058819Y-97020066D01*
X133058819Y-97020066D02*
X133106438Y-97115304D01*
X133106438Y-97115304D02*
X133154057Y-97162923D01*
X133154057Y-97162923D02*
X133249295Y-97210542D01*
X133249295Y-97210542D02*
X133487390Y-97210542D01*
X133487390Y-97210542D02*
X133582628Y-97162923D01*
X133582628Y-97162923D02*
X133630247Y-97115304D01*
X133630247Y-97115304D02*
X133677866Y-97020066D01*
X133677866Y-97020066D02*
X133677866Y-96829590D01*
X133677866Y-96829590D02*
X133630247Y-96734352D01*
X133630247Y-96734352D02*
X133582628Y-96686733D01*
X133582628Y-96686733D02*
X133487390Y-96639114D01*
X154029580Y-28328857D02*
X154077200Y-28376476D01*
X154077200Y-28376476D02*
X154124819Y-28519333D01*
X154124819Y-28519333D02*
X154124819Y-28614571D01*
X154124819Y-28614571D02*
X154077200Y-28757428D01*
X154077200Y-28757428D02*
X153981961Y-28852666D01*
X153981961Y-28852666D02*
X153886723Y-28900285D01*
X153886723Y-28900285D02*
X153696247Y-28947904D01*
X153696247Y-28947904D02*
X153553390Y-28947904D01*
X153553390Y-28947904D02*
X153362914Y-28900285D01*
X153362914Y-28900285D02*
X153267676Y-28852666D01*
X153267676Y-28852666D02*
X153172438Y-28757428D01*
X153172438Y-28757428D02*
X153124819Y-28614571D01*
X153124819Y-28614571D02*
X153124819Y-28519333D01*
X153124819Y-28519333D02*
X153172438Y-28376476D01*
X153172438Y-28376476D02*
X153220057Y-28328857D01*
X153124819Y-27471714D02*
X153124819Y-27662190D01*
X153124819Y-27662190D02*
X153172438Y-27757428D01*
X153172438Y-27757428D02*
X153220057Y-27805047D01*
X153220057Y-27805047D02*
X153362914Y-27900285D01*
X153362914Y-27900285D02*
X153553390Y-27947904D01*
X153553390Y-27947904D02*
X153934342Y-27947904D01*
X153934342Y-27947904D02*
X154029580Y-27900285D01*
X154029580Y-27900285D02*
X154077200Y-27852666D01*
X154077200Y-27852666D02*
X154124819Y-27757428D01*
X154124819Y-27757428D02*
X154124819Y-27566952D01*
X154124819Y-27566952D02*
X154077200Y-27471714D01*
X154077200Y-27471714D02*
X154029580Y-27424095D01*
X154029580Y-27424095D02*
X153934342Y-27376476D01*
X153934342Y-27376476D02*
X153696247Y-27376476D01*
X153696247Y-27376476D02*
X153601009Y-27424095D01*
X153601009Y-27424095D02*
X153553390Y-27471714D01*
X153553390Y-27471714D02*
X153505771Y-27566952D01*
X153505771Y-27566952D02*
X153505771Y-27757428D01*
X153505771Y-27757428D02*
X153553390Y-27852666D01*
X153553390Y-27852666D02*
X153601009Y-27900285D01*
X153601009Y-27900285D02*
X153696247Y-27947904D01*
X153124819Y-27043142D02*
X153124819Y-26376476D01*
X153124819Y-26376476D02*
X154124819Y-26805047D01*
X115181142Y-46192409D02*
X115133523Y-46240029D01*
X115133523Y-46240029D02*
X114990666Y-46287648D01*
X114990666Y-46287648D02*
X114895428Y-46287648D01*
X114895428Y-46287648D02*
X114752571Y-46240029D01*
X114752571Y-46240029D02*
X114657333Y-46144790D01*
X114657333Y-46144790D02*
X114609714Y-46049552D01*
X114609714Y-46049552D02*
X114562095Y-45859076D01*
X114562095Y-45859076D02*
X114562095Y-45716219D01*
X114562095Y-45716219D02*
X114609714Y-45525743D01*
X114609714Y-45525743D02*
X114657333Y-45430505D01*
X114657333Y-45430505D02*
X114752571Y-45335267D01*
X114752571Y-45335267D02*
X114895428Y-45287648D01*
X114895428Y-45287648D02*
X114990666Y-45287648D01*
X114990666Y-45287648D02*
X115133523Y-45335267D01*
X115133523Y-45335267D02*
X115181142Y-45382886D01*
X116038285Y-45287648D02*
X115847809Y-45287648D01*
X115847809Y-45287648D02*
X115752571Y-45335267D01*
X115752571Y-45335267D02*
X115704952Y-45382886D01*
X115704952Y-45382886D02*
X115609714Y-45525743D01*
X115609714Y-45525743D02*
X115562095Y-45716219D01*
X115562095Y-45716219D02*
X115562095Y-46097171D01*
X115562095Y-46097171D02*
X115609714Y-46192409D01*
X115609714Y-46192409D02*
X115657333Y-46240029D01*
X115657333Y-46240029D02*
X115752571Y-46287648D01*
X115752571Y-46287648D02*
X115943047Y-46287648D01*
X115943047Y-46287648D02*
X116038285Y-46240029D01*
X116038285Y-46240029D02*
X116085904Y-46192409D01*
X116085904Y-46192409D02*
X116133523Y-46097171D01*
X116133523Y-46097171D02*
X116133523Y-45859076D01*
X116133523Y-45859076D02*
X116085904Y-45763838D01*
X116085904Y-45763838D02*
X116038285Y-45716219D01*
X116038285Y-45716219D02*
X115943047Y-45668600D01*
X115943047Y-45668600D02*
X115752571Y-45668600D01*
X115752571Y-45668600D02*
X115657333Y-45716219D01*
X115657333Y-45716219D02*
X115609714Y-45763838D01*
X115609714Y-45763838D02*
X115562095Y-45859076D01*
X116990666Y-45620981D02*
X116990666Y-46287648D01*
X116752571Y-45240029D02*
X116514476Y-45954314D01*
X116514476Y-45954314D02*
X117133523Y-45954314D01*
X132095543Y-102594580D02*
X132047924Y-102642200D01*
X132047924Y-102642200D02*
X131905067Y-102689819D01*
X131905067Y-102689819D02*
X131809829Y-102689819D01*
X131809829Y-102689819D02*
X131666972Y-102642200D01*
X131666972Y-102642200D02*
X131571734Y-102546961D01*
X131571734Y-102546961D02*
X131524115Y-102451723D01*
X131524115Y-102451723D02*
X131476496Y-102261247D01*
X131476496Y-102261247D02*
X131476496Y-102118390D01*
X131476496Y-102118390D02*
X131524115Y-101927914D01*
X131524115Y-101927914D02*
X131571734Y-101832676D01*
X131571734Y-101832676D02*
X131666972Y-101737438D01*
X131666972Y-101737438D02*
X131809829Y-101689819D01*
X131809829Y-101689819D02*
X131905067Y-101689819D01*
X131905067Y-101689819D02*
X132047924Y-101737438D01*
X132047924Y-101737438D02*
X132095543Y-101785057D01*
X132476496Y-101785057D02*
X132524115Y-101737438D01*
X132524115Y-101737438D02*
X132619353Y-101689819D01*
X132619353Y-101689819D02*
X132857448Y-101689819D01*
X132857448Y-101689819D02*
X132952686Y-101737438D01*
X132952686Y-101737438D02*
X133000305Y-101785057D01*
X133000305Y-101785057D02*
X133047924Y-101880295D01*
X133047924Y-101880295D02*
X133047924Y-101975533D01*
X133047924Y-101975533D02*
X133000305Y-102118390D01*
X133000305Y-102118390D02*
X132428877Y-102689819D01*
X132428877Y-102689819D02*
X133047924Y-102689819D01*
X133905067Y-101689819D02*
X133714591Y-101689819D01*
X133714591Y-101689819D02*
X133619353Y-101737438D01*
X133619353Y-101737438D02*
X133571734Y-101785057D01*
X133571734Y-101785057D02*
X133476496Y-101927914D01*
X133476496Y-101927914D02*
X133428877Y-102118390D01*
X133428877Y-102118390D02*
X133428877Y-102499342D01*
X133428877Y-102499342D02*
X133476496Y-102594580D01*
X133476496Y-102594580D02*
X133524115Y-102642200D01*
X133524115Y-102642200D02*
X133619353Y-102689819D01*
X133619353Y-102689819D02*
X133809829Y-102689819D01*
X133809829Y-102689819D02*
X133905067Y-102642200D01*
X133905067Y-102642200D02*
X133952686Y-102594580D01*
X133952686Y-102594580D02*
X134000305Y-102499342D01*
X134000305Y-102499342D02*
X134000305Y-102261247D01*
X134000305Y-102261247D02*
X133952686Y-102166009D01*
X133952686Y-102166009D02*
X133905067Y-102118390D01*
X133905067Y-102118390D02*
X133809829Y-102070771D01*
X133809829Y-102070771D02*
X133619353Y-102070771D01*
X133619353Y-102070771D02*
X133524115Y-102118390D01*
X133524115Y-102118390D02*
X133476496Y-102166009D01*
X133476496Y-102166009D02*
X133428877Y-102261247D01*
X142472580Y-45981857D02*
X142520200Y-46029476D01*
X142520200Y-46029476D02*
X142567819Y-46172333D01*
X142567819Y-46172333D02*
X142567819Y-46267571D01*
X142567819Y-46267571D02*
X142520200Y-46410428D01*
X142520200Y-46410428D02*
X142424961Y-46505666D01*
X142424961Y-46505666D02*
X142329723Y-46553285D01*
X142329723Y-46553285D02*
X142139247Y-46600904D01*
X142139247Y-46600904D02*
X141996390Y-46600904D01*
X141996390Y-46600904D02*
X141805914Y-46553285D01*
X141805914Y-46553285D02*
X141710676Y-46505666D01*
X141710676Y-46505666D02*
X141615438Y-46410428D01*
X141615438Y-46410428D02*
X141567819Y-46267571D01*
X141567819Y-46267571D02*
X141567819Y-46172333D01*
X141567819Y-46172333D02*
X141615438Y-46029476D01*
X141615438Y-46029476D02*
X141663057Y-45981857D01*
X142567819Y-45029476D02*
X142567819Y-45600904D01*
X142567819Y-45315190D02*
X141567819Y-45315190D01*
X141567819Y-45315190D02*
X141710676Y-45410428D01*
X141710676Y-45410428D02*
X141805914Y-45505666D01*
X141805914Y-45505666D02*
X141853533Y-45600904D01*
X141567819Y-44696142D02*
X141567819Y-44029476D01*
X141567819Y-44029476D02*
X142567819Y-44458047D01*
X118959333Y-96339819D02*
X118626000Y-95863628D01*
X118387905Y-96339819D02*
X118387905Y-95339819D01*
X118387905Y-95339819D02*
X118768857Y-95339819D01*
X118768857Y-95339819D02*
X118864095Y-95387438D01*
X118864095Y-95387438D02*
X118911714Y-95435057D01*
X118911714Y-95435057D02*
X118959333Y-95530295D01*
X118959333Y-95530295D02*
X118959333Y-95673152D01*
X118959333Y-95673152D02*
X118911714Y-95768390D01*
X118911714Y-95768390D02*
X118864095Y-95816009D01*
X118864095Y-95816009D02*
X118768857Y-95863628D01*
X118768857Y-95863628D02*
X118387905Y-95863628D01*
X119816476Y-95673152D02*
X119816476Y-96339819D01*
X119578381Y-95292200D02*
X119340286Y-96006485D01*
X119340286Y-96006485D02*
X119959333Y-96006485D01*
X117627895Y-123178219D02*
X117627895Y-123987742D01*
X117627895Y-123987742D02*
X117675514Y-124082980D01*
X117675514Y-124082980D02*
X117723133Y-124130600D01*
X117723133Y-124130600D02*
X117818371Y-124178219D01*
X117818371Y-124178219D02*
X118008847Y-124178219D01*
X118008847Y-124178219D02*
X118104085Y-124130600D01*
X118104085Y-124130600D02*
X118151704Y-124082980D01*
X118151704Y-124082980D02*
X118199323Y-123987742D01*
X118199323Y-123987742D02*
X118199323Y-123178219D01*
X119151704Y-123178219D02*
X118675514Y-123178219D01*
X118675514Y-123178219D02*
X118627895Y-123654409D01*
X118627895Y-123654409D02*
X118675514Y-123606790D01*
X118675514Y-123606790D02*
X118770752Y-123559171D01*
X118770752Y-123559171D02*
X119008847Y-123559171D01*
X119008847Y-123559171D02*
X119104085Y-123606790D01*
X119104085Y-123606790D02*
X119151704Y-123654409D01*
X119151704Y-123654409D02*
X119199323Y-123749647D01*
X119199323Y-123749647D02*
X119199323Y-123987742D01*
X119199323Y-123987742D02*
X119151704Y-124082980D01*
X119151704Y-124082980D02*
X119104085Y-124130600D01*
X119104085Y-124130600D02*
X119008847Y-124178219D01*
X119008847Y-124178219D02*
X118770752Y-124178219D01*
X118770752Y-124178219D02*
X118675514Y-124130600D01*
X118675514Y-124130600D02*
X118627895Y-124082980D01*
X140789819Y-45632666D02*
X140313628Y-45965999D01*
X140789819Y-46204094D02*
X139789819Y-46204094D01*
X139789819Y-46204094D02*
X139789819Y-45823142D01*
X139789819Y-45823142D02*
X139837438Y-45727904D01*
X139837438Y-45727904D02*
X139885057Y-45680285D01*
X139885057Y-45680285D02*
X139980295Y-45632666D01*
X139980295Y-45632666D02*
X140123152Y-45632666D01*
X140123152Y-45632666D02*
X140218390Y-45680285D01*
X140218390Y-45680285D02*
X140266009Y-45727904D01*
X140266009Y-45727904D02*
X140313628Y-45823142D01*
X140313628Y-45823142D02*
X140313628Y-46204094D01*
X140789819Y-45156475D02*
X140789819Y-44965999D01*
X140789819Y-44965999D02*
X140742200Y-44870761D01*
X140742200Y-44870761D02*
X140694580Y-44823142D01*
X140694580Y-44823142D02*
X140551723Y-44727904D01*
X140551723Y-44727904D02*
X140361247Y-44680285D01*
X140361247Y-44680285D02*
X139980295Y-44680285D01*
X139980295Y-44680285D02*
X139885057Y-44727904D01*
X139885057Y-44727904D02*
X139837438Y-44775523D01*
X139837438Y-44775523D02*
X139789819Y-44870761D01*
X139789819Y-44870761D02*
X139789819Y-45061237D01*
X139789819Y-45061237D02*
X139837438Y-45156475D01*
X139837438Y-45156475D02*
X139885057Y-45204094D01*
X139885057Y-45204094D02*
X139980295Y-45251713D01*
X139980295Y-45251713D02*
X140218390Y-45251713D01*
X140218390Y-45251713D02*
X140313628Y-45204094D01*
X140313628Y-45204094D02*
X140361247Y-45156475D01*
X140361247Y-45156475D02*
X140408866Y-45061237D01*
X140408866Y-45061237D02*
X140408866Y-44870761D01*
X140408866Y-44870761D02*
X140361247Y-44775523D01*
X140361247Y-44775523D02*
X140313628Y-44727904D01*
X140313628Y-44727904D02*
X140218390Y-44680285D01*
X147693142Y-101546819D02*
X147359809Y-101070628D01*
X147121714Y-101546819D02*
X147121714Y-100546819D01*
X147121714Y-100546819D02*
X147502666Y-100546819D01*
X147502666Y-100546819D02*
X147597904Y-100594438D01*
X147597904Y-100594438D02*
X147645523Y-100642057D01*
X147645523Y-100642057D02*
X147693142Y-100737295D01*
X147693142Y-100737295D02*
X147693142Y-100880152D01*
X147693142Y-100880152D02*
X147645523Y-100975390D01*
X147645523Y-100975390D02*
X147597904Y-101023009D01*
X147597904Y-101023009D02*
X147502666Y-101070628D01*
X147502666Y-101070628D02*
X147121714Y-101070628D01*
X148645523Y-101546819D02*
X148074095Y-101546819D01*
X148359809Y-101546819D02*
X148359809Y-100546819D01*
X148359809Y-100546819D02*
X148264571Y-100689676D01*
X148264571Y-100689676D02*
X148169333Y-100784914D01*
X148169333Y-100784914D02*
X148074095Y-100832533D01*
X149550285Y-100546819D02*
X149074095Y-100546819D01*
X149074095Y-100546819D02*
X149026476Y-101023009D01*
X149026476Y-101023009D02*
X149074095Y-100975390D01*
X149074095Y-100975390D02*
X149169333Y-100927771D01*
X149169333Y-100927771D02*
X149407428Y-100927771D01*
X149407428Y-100927771D02*
X149502666Y-100975390D01*
X149502666Y-100975390D02*
X149550285Y-101023009D01*
X149550285Y-101023009D02*
X149597904Y-101118247D01*
X149597904Y-101118247D02*
X149597904Y-101356342D01*
X149597904Y-101356342D02*
X149550285Y-101451580D01*
X149550285Y-101451580D02*
X149502666Y-101499200D01*
X149502666Y-101499200D02*
X149407428Y-101546819D01*
X149407428Y-101546819D02*
X149169333Y-101546819D01*
X149169333Y-101546819D02*
X149074095Y-101499200D01*
X149074095Y-101499200D02*
X149026476Y-101451580D01*
X127627142Y-121739819D02*
X127293809Y-121263628D01*
X127055714Y-121739819D02*
X127055714Y-120739819D01*
X127055714Y-120739819D02*
X127436666Y-120739819D01*
X127436666Y-120739819D02*
X127531904Y-120787438D01*
X127531904Y-120787438D02*
X127579523Y-120835057D01*
X127579523Y-120835057D02*
X127627142Y-120930295D01*
X127627142Y-120930295D02*
X127627142Y-121073152D01*
X127627142Y-121073152D02*
X127579523Y-121168390D01*
X127579523Y-121168390D02*
X127531904Y-121216009D01*
X127531904Y-121216009D02*
X127436666Y-121263628D01*
X127436666Y-121263628D02*
X127055714Y-121263628D01*
X127960476Y-120739819D02*
X128579523Y-120739819D01*
X128579523Y-120739819D02*
X128246190Y-121120771D01*
X128246190Y-121120771D02*
X128389047Y-121120771D01*
X128389047Y-121120771D02*
X128484285Y-121168390D01*
X128484285Y-121168390D02*
X128531904Y-121216009D01*
X128531904Y-121216009D02*
X128579523Y-121311247D01*
X128579523Y-121311247D02*
X128579523Y-121549342D01*
X128579523Y-121549342D02*
X128531904Y-121644580D01*
X128531904Y-121644580D02*
X128484285Y-121692200D01*
X128484285Y-121692200D02*
X128389047Y-121739819D01*
X128389047Y-121739819D02*
X128103333Y-121739819D01*
X128103333Y-121739819D02*
X128008095Y-121692200D01*
X128008095Y-121692200D02*
X127960476Y-121644580D01*
X129436666Y-120739819D02*
X129246190Y-120739819D01*
X129246190Y-120739819D02*
X129150952Y-120787438D01*
X129150952Y-120787438D02*
X129103333Y-120835057D01*
X129103333Y-120835057D02*
X129008095Y-120977914D01*
X129008095Y-120977914D02*
X128960476Y-121168390D01*
X128960476Y-121168390D02*
X128960476Y-121549342D01*
X128960476Y-121549342D02*
X129008095Y-121644580D01*
X129008095Y-121644580D02*
X129055714Y-121692200D01*
X129055714Y-121692200D02*
X129150952Y-121739819D01*
X129150952Y-121739819D02*
X129341428Y-121739819D01*
X129341428Y-121739819D02*
X129436666Y-121692200D01*
X129436666Y-121692200D02*
X129484285Y-121644580D01*
X129484285Y-121644580D02*
X129531904Y-121549342D01*
X129531904Y-121549342D02*
X129531904Y-121311247D01*
X129531904Y-121311247D02*
X129484285Y-121216009D01*
X129484285Y-121216009D02*
X129436666Y-121168390D01*
X129436666Y-121168390D02*
X129341428Y-121120771D01*
X129341428Y-121120771D02*
X129150952Y-121120771D01*
X129150952Y-121120771D02*
X129055714Y-121168390D01*
X129055714Y-121168390D02*
X129008095Y-121216009D01*
X129008095Y-121216009D02*
X128960476Y-121311247D01*
X144201996Y-93441848D02*
X144201996Y-94251371D01*
X144201996Y-94251371D02*
X144249615Y-94346609D01*
X144249615Y-94346609D02*
X144297234Y-94394229D01*
X144297234Y-94394229D02*
X144392472Y-94441848D01*
X144392472Y-94441848D02*
X144582948Y-94441848D01*
X144582948Y-94441848D02*
X144678186Y-94394229D01*
X144678186Y-94394229D02*
X144725805Y-94346609D01*
X144725805Y-94346609D02*
X144773424Y-94251371D01*
X144773424Y-94251371D02*
X144773424Y-93441848D01*
X145154377Y-93441848D02*
X145821043Y-93441848D01*
X145821043Y-93441848D02*
X145392472Y-94441848D01*
X137106819Y-41822666D02*
X136630628Y-42155999D01*
X137106819Y-42394094D02*
X136106819Y-42394094D01*
X136106819Y-42394094D02*
X136106819Y-42013142D01*
X136106819Y-42013142D02*
X136154438Y-41917904D01*
X136154438Y-41917904D02*
X136202057Y-41870285D01*
X136202057Y-41870285D02*
X136297295Y-41822666D01*
X136297295Y-41822666D02*
X136440152Y-41822666D01*
X136440152Y-41822666D02*
X136535390Y-41870285D01*
X136535390Y-41870285D02*
X136583009Y-41917904D01*
X136583009Y-41917904D02*
X136630628Y-42013142D01*
X136630628Y-42013142D02*
X136630628Y-42394094D01*
X136106819Y-40965523D02*
X136106819Y-41155999D01*
X136106819Y-41155999D02*
X136154438Y-41251237D01*
X136154438Y-41251237D02*
X136202057Y-41298856D01*
X136202057Y-41298856D02*
X136344914Y-41394094D01*
X136344914Y-41394094D02*
X136535390Y-41441713D01*
X136535390Y-41441713D02*
X136916342Y-41441713D01*
X136916342Y-41441713D02*
X137011580Y-41394094D01*
X137011580Y-41394094D02*
X137059200Y-41346475D01*
X137059200Y-41346475D02*
X137106819Y-41251237D01*
X137106819Y-41251237D02*
X137106819Y-41060761D01*
X137106819Y-41060761D02*
X137059200Y-40965523D01*
X137059200Y-40965523D02*
X137011580Y-40917904D01*
X137011580Y-40917904D02*
X136916342Y-40870285D01*
X136916342Y-40870285D02*
X136678247Y-40870285D01*
X136678247Y-40870285D02*
X136583009Y-40917904D01*
X136583009Y-40917904D02*
X136535390Y-40965523D01*
X136535390Y-40965523D02*
X136487771Y-41060761D01*
X136487771Y-41060761D02*
X136487771Y-41251237D01*
X136487771Y-41251237D02*
X136535390Y-41346475D01*
X136535390Y-41346475D02*
X136583009Y-41394094D01*
X136583009Y-41394094D02*
X136678247Y-41441713D01*
X151757142Y-42142580D02*
X151709523Y-42190200D01*
X151709523Y-42190200D02*
X151566666Y-42237819D01*
X151566666Y-42237819D02*
X151471428Y-42237819D01*
X151471428Y-42237819D02*
X151328571Y-42190200D01*
X151328571Y-42190200D02*
X151233333Y-42094961D01*
X151233333Y-42094961D02*
X151185714Y-41999723D01*
X151185714Y-41999723D02*
X151138095Y-41809247D01*
X151138095Y-41809247D02*
X151138095Y-41666390D01*
X151138095Y-41666390D02*
X151185714Y-41475914D01*
X151185714Y-41475914D02*
X151233333Y-41380676D01*
X151233333Y-41380676D02*
X151328571Y-41285438D01*
X151328571Y-41285438D02*
X151471428Y-41237819D01*
X151471428Y-41237819D02*
X151566666Y-41237819D01*
X151566666Y-41237819D02*
X151709523Y-41285438D01*
X151709523Y-41285438D02*
X151757142Y-41333057D01*
X152614285Y-41237819D02*
X152423809Y-41237819D01*
X152423809Y-41237819D02*
X152328571Y-41285438D01*
X152328571Y-41285438D02*
X152280952Y-41333057D01*
X152280952Y-41333057D02*
X152185714Y-41475914D01*
X152185714Y-41475914D02*
X152138095Y-41666390D01*
X152138095Y-41666390D02*
X152138095Y-42047342D01*
X152138095Y-42047342D02*
X152185714Y-42142580D01*
X152185714Y-42142580D02*
X152233333Y-42190200D01*
X152233333Y-42190200D02*
X152328571Y-42237819D01*
X152328571Y-42237819D02*
X152519047Y-42237819D01*
X152519047Y-42237819D02*
X152614285Y-42190200D01*
X152614285Y-42190200D02*
X152661904Y-42142580D01*
X152661904Y-42142580D02*
X152709523Y-42047342D01*
X152709523Y-42047342D02*
X152709523Y-41809247D01*
X152709523Y-41809247D02*
X152661904Y-41714009D01*
X152661904Y-41714009D02*
X152614285Y-41666390D01*
X152614285Y-41666390D02*
X152519047Y-41618771D01*
X152519047Y-41618771D02*
X152328571Y-41618771D01*
X152328571Y-41618771D02*
X152233333Y-41666390D01*
X152233333Y-41666390D02*
X152185714Y-41714009D01*
X152185714Y-41714009D02*
X152138095Y-41809247D01*
X153614285Y-41237819D02*
X153138095Y-41237819D01*
X153138095Y-41237819D02*
X153090476Y-41714009D01*
X153090476Y-41714009D02*
X153138095Y-41666390D01*
X153138095Y-41666390D02*
X153233333Y-41618771D01*
X153233333Y-41618771D02*
X153471428Y-41618771D01*
X153471428Y-41618771D02*
X153566666Y-41666390D01*
X153566666Y-41666390D02*
X153614285Y-41714009D01*
X153614285Y-41714009D02*
X153661904Y-41809247D01*
X153661904Y-41809247D02*
X153661904Y-42047342D01*
X153661904Y-42047342D02*
X153614285Y-42142580D01*
X153614285Y-42142580D02*
X153566666Y-42190200D01*
X153566666Y-42190200D02*
X153471428Y-42237819D01*
X153471428Y-42237819D02*
X153233333Y-42237819D01*
X153233333Y-42237819D02*
X153138095Y-42190200D01*
X153138095Y-42190200D02*
X153090476Y-42142580D01*
X141978142Y-117580580D02*
X141930523Y-117628200D01*
X141930523Y-117628200D02*
X141787666Y-117675819D01*
X141787666Y-117675819D02*
X141692428Y-117675819D01*
X141692428Y-117675819D02*
X141549571Y-117628200D01*
X141549571Y-117628200D02*
X141454333Y-117532961D01*
X141454333Y-117532961D02*
X141406714Y-117437723D01*
X141406714Y-117437723D02*
X141359095Y-117247247D01*
X141359095Y-117247247D02*
X141359095Y-117104390D01*
X141359095Y-117104390D02*
X141406714Y-116913914D01*
X141406714Y-116913914D02*
X141454333Y-116818676D01*
X141454333Y-116818676D02*
X141549571Y-116723438D01*
X141549571Y-116723438D02*
X141692428Y-116675819D01*
X141692428Y-116675819D02*
X141787666Y-116675819D01*
X141787666Y-116675819D02*
X141930523Y-116723438D01*
X141930523Y-116723438D02*
X141978142Y-116771057D01*
X142311476Y-116675819D02*
X142930523Y-116675819D01*
X142930523Y-116675819D02*
X142597190Y-117056771D01*
X142597190Y-117056771D02*
X142740047Y-117056771D01*
X142740047Y-117056771D02*
X142835285Y-117104390D01*
X142835285Y-117104390D02*
X142882904Y-117152009D01*
X142882904Y-117152009D02*
X142930523Y-117247247D01*
X142930523Y-117247247D02*
X142930523Y-117485342D01*
X142930523Y-117485342D02*
X142882904Y-117580580D01*
X142882904Y-117580580D02*
X142835285Y-117628200D01*
X142835285Y-117628200D02*
X142740047Y-117675819D01*
X142740047Y-117675819D02*
X142454333Y-117675819D01*
X142454333Y-117675819D02*
X142359095Y-117628200D01*
X142359095Y-117628200D02*
X142311476Y-117580580D01*
X143787666Y-117009152D02*
X143787666Y-117675819D01*
X143549571Y-116628200D02*
X143311476Y-117342485D01*
X143311476Y-117342485D02*
X143930523Y-117342485D01*
X126056180Y-120782257D02*
X126103800Y-120829876D01*
X126103800Y-120829876D02*
X126151419Y-120972733D01*
X126151419Y-120972733D02*
X126151419Y-121067971D01*
X126151419Y-121067971D02*
X126103800Y-121210828D01*
X126103800Y-121210828D02*
X126008561Y-121306066D01*
X126008561Y-121306066D02*
X125913323Y-121353685D01*
X125913323Y-121353685D02*
X125722847Y-121401304D01*
X125722847Y-121401304D02*
X125579990Y-121401304D01*
X125579990Y-121401304D02*
X125389514Y-121353685D01*
X125389514Y-121353685D02*
X125294276Y-121306066D01*
X125294276Y-121306066D02*
X125199038Y-121210828D01*
X125199038Y-121210828D02*
X125151419Y-121067971D01*
X125151419Y-121067971D02*
X125151419Y-120972733D01*
X125151419Y-120972733D02*
X125199038Y-120829876D01*
X125199038Y-120829876D02*
X125246657Y-120782257D01*
X125246657Y-120401304D02*
X125199038Y-120353685D01*
X125199038Y-120353685D02*
X125151419Y-120258447D01*
X125151419Y-120258447D02*
X125151419Y-120020352D01*
X125151419Y-120020352D02*
X125199038Y-119925114D01*
X125199038Y-119925114D02*
X125246657Y-119877495D01*
X125246657Y-119877495D02*
X125341895Y-119829876D01*
X125341895Y-119829876D02*
X125437133Y-119829876D01*
X125437133Y-119829876D02*
X125579990Y-119877495D01*
X125579990Y-119877495D02*
X126151419Y-120448923D01*
X126151419Y-120448923D02*
X126151419Y-119829876D01*
X125151419Y-119210828D02*
X125151419Y-119115590D01*
X125151419Y-119115590D02*
X125199038Y-119020352D01*
X125199038Y-119020352D02*
X125246657Y-118972733D01*
X125246657Y-118972733D02*
X125341895Y-118925114D01*
X125341895Y-118925114D02*
X125532371Y-118877495D01*
X125532371Y-118877495D02*
X125770466Y-118877495D01*
X125770466Y-118877495D02*
X125960942Y-118925114D01*
X125960942Y-118925114D02*
X126056180Y-118972733D01*
X126056180Y-118972733D02*
X126103800Y-119020352D01*
X126103800Y-119020352D02*
X126151419Y-119115590D01*
X126151419Y-119115590D02*
X126151419Y-119210828D01*
X126151419Y-119210828D02*
X126103800Y-119306066D01*
X126103800Y-119306066D02*
X126056180Y-119353685D01*
X126056180Y-119353685D02*
X125960942Y-119401304D01*
X125960942Y-119401304D02*
X125770466Y-119448923D01*
X125770466Y-119448923D02*
X125532371Y-119448923D01*
X125532371Y-119448923D02*
X125341895Y-119401304D01*
X125341895Y-119401304D02*
X125246657Y-119353685D01*
X125246657Y-119353685D02*
X125199038Y-119306066D01*
X125199038Y-119306066D02*
X125151419Y-119210828D01*
X136503580Y-97543857D02*
X136551200Y-97591476D01*
X136551200Y-97591476D02*
X136598819Y-97734333D01*
X136598819Y-97734333D02*
X136598819Y-97829571D01*
X136598819Y-97829571D02*
X136551200Y-97972428D01*
X136551200Y-97972428D02*
X136455961Y-98067666D01*
X136455961Y-98067666D02*
X136360723Y-98115285D01*
X136360723Y-98115285D02*
X136170247Y-98162904D01*
X136170247Y-98162904D02*
X136027390Y-98162904D01*
X136027390Y-98162904D02*
X135836914Y-98115285D01*
X135836914Y-98115285D02*
X135741676Y-98067666D01*
X135741676Y-98067666D02*
X135646438Y-97972428D01*
X135646438Y-97972428D02*
X135598819Y-97829571D01*
X135598819Y-97829571D02*
X135598819Y-97734333D01*
X135598819Y-97734333D02*
X135646438Y-97591476D01*
X135646438Y-97591476D02*
X135694057Y-97543857D01*
X136598819Y-96591476D02*
X136598819Y-97162904D01*
X136598819Y-96877190D02*
X135598819Y-96877190D01*
X135598819Y-96877190D02*
X135741676Y-96972428D01*
X135741676Y-96972428D02*
X135836914Y-97067666D01*
X135836914Y-97067666D02*
X135884533Y-97162904D01*
X136598819Y-95639095D02*
X136598819Y-96210523D01*
X136598819Y-95924809D02*
X135598819Y-95924809D01*
X135598819Y-95924809D02*
X135741676Y-96020047D01*
X135741676Y-96020047D02*
X135836914Y-96115285D01*
X135836914Y-96115285D02*
X135884533Y-96210523D01*
X134524761Y-49064057D02*
X134429523Y-49016438D01*
X134429523Y-49016438D02*
X134334285Y-48921200D01*
X134334285Y-48921200D02*
X134191428Y-48778342D01*
X134191428Y-48778342D02*
X134096190Y-48730723D01*
X134096190Y-48730723D02*
X134000952Y-48730723D01*
X134048571Y-48968819D02*
X133953333Y-48921200D01*
X133953333Y-48921200D02*
X133858095Y-48825961D01*
X133858095Y-48825961D02*
X133810476Y-48635485D01*
X133810476Y-48635485D02*
X133810476Y-48302152D01*
X133810476Y-48302152D02*
X133858095Y-48111676D01*
X133858095Y-48111676D02*
X133953333Y-48016438D01*
X133953333Y-48016438D02*
X134048571Y-47968819D01*
X134048571Y-47968819D02*
X134239047Y-47968819D01*
X134239047Y-47968819D02*
X134334285Y-48016438D01*
X134334285Y-48016438D02*
X134429523Y-48111676D01*
X134429523Y-48111676D02*
X134477142Y-48302152D01*
X134477142Y-48302152D02*
X134477142Y-48635485D01*
X134477142Y-48635485D02*
X134429523Y-48825961D01*
X134429523Y-48825961D02*
X134334285Y-48921200D01*
X134334285Y-48921200D02*
X134239047Y-48968819D01*
X134239047Y-48968819D02*
X134048571Y-48968819D01*
X134810476Y-47968819D02*
X135429523Y-47968819D01*
X135429523Y-47968819D02*
X135096190Y-48349771D01*
X135096190Y-48349771D02*
X135239047Y-48349771D01*
X135239047Y-48349771D02*
X135334285Y-48397390D01*
X135334285Y-48397390D02*
X135381904Y-48445009D01*
X135381904Y-48445009D02*
X135429523Y-48540247D01*
X135429523Y-48540247D02*
X135429523Y-48778342D01*
X135429523Y-48778342D02*
X135381904Y-48873580D01*
X135381904Y-48873580D02*
X135334285Y-48921200D01*
X135334285Y-48921200D02*
X135239047Y-48968819D01*
X135239047Y-48968819D02*
X134953333Y-48968819D01*
X134953333Y-48968819D02*
X134858095Y-48921200D01*
X134858095Y-48921200D02*
X134810476Y-48873580D01*
X133820819Y-52704999D02*
X134058914Y-52704999D01*
X133963676Y-52943094D02*
X134058914Y-52704999D01*
X134058914Y-52704999D02*
X133963676Y-52466904D01*
X134249390Y-52847856D02*
X134058914Y-52704999D01*
X134058914Y-52704999D02*
X134249390Y-52562142D01*
X134911180Y-52705000D02*
X134673085Y-52705000D01*
X134768323Y-52466905D02*
X134673085Y-52705000D01*
X134673085Y-52705000D02*
X134768323Y-52943095D01*
X134482609Y-52562143D02*
X134673085Y-52705000D01*
X134673085Y-52705000D02*
X134482609Y-52847857D01*
X135445571Y-90212057D02*
X135350333Y-90164438D01*
X135350333Y-90164438D02*
X135255095Y-90069200D01*
X135255095Y-90069200D02*
X135112238Y-89926342D01*
X135112238Y-89926342D02*
X135017000Y-89878723D01*
X135017000Y-89878723D02*
X134921762Y-89878723D01*
X134969381Y-90116819D02*
X134874143Y-90069200D01*
X134874143Y-90069200D02*
X134778905Y-89973961D01*
X134778905Y-89973961D02*
X134731286Y-89783485D01*
X134731286Y-89783485D02*
X134731286Y-89450152D01*
X134731286Y-89450152D02*
X134778905Y-89259676D01*
X134778905Y-89259676D02*
X134874143Y-89164438D01*
X134874143Y-89164438D02*
X134969381Y-89116819D01*
X134969381Y-89116819D02*
X135159857Y-89116819D01*
X135159857Y-89116819D02*
X135255095Y-89164438D01*
X135255095Y-89164438D02*
X135350333Y-89259676D01*
X135350333Y-89259676D02*
X135397952Y-89450152D01*
X135397952Y-89450152D02*
X135397952Y-89783485D01*
X135397952Y-89783485D02*
X135350333Y-89973961D01*
X135350333Y-89973961D02*
X135255095Y-90069200D01*
X135255095Y-90069200D02*
X135159857Y-90116819D01*
X135159857Y-90116819D02*
X134969381Y-90116819D01*
X136350333Y-90116819D02*
X135778905Y-90116819D01*
X136064619Y-90116819D02*
X136064619Y-89116819D01*
X136064619Y-89116819D02*
X135969381Y-89259676D01*
X135969381Y-89259676D02*
X135874143Y-89354914D01*
X135874143Y-89354914D02*
X135778905Y-89402533D01*
X137207476Y-89450152D02*
X137207476Y-90116819D01*
X136969381Y-89069200D02*
X136731286Y-89783485D01*
X136731286Y-89783485D02*
X137350333Y-89783485D01*
X123168580Y-95130857D02*
X123216200Y-95178476D01*
X123216200Y-95178476D02*
X123263819Y-95321333D01*
X123263819Y-95321333D02*
X123263819Y-95416571D01*
X123263819Y-95416571D02*
X123216200Y-95559428D01*
X123216200Y-95559428D02*
X123120961Y-95654666D01*
X123120961Y-95654666D02*
X123025723Y-95702285D01*
X123025723Y-95702285D02*
X122835247Y-95749904D01*
X122835247Y-95749904D02*
X122692390Y-95749904D01*
X122692390Y-95749904D02*
X122501914Y-95702285D01*
X122501914Y-95702285D02*
X122406676Y-95654666D01*
X122406676Y-95654666D02*
X122311438Y-95559428D01*
X122311438Y-95559428D02*
X122263819Y-95416571D01*
X122263819Y-95416571D02*
X122263819Y-95321333D01*
X122263819Y-95321333D02*
X122311438Y-95178476D01*
X122311438Y-95178476D02*
X122359057Y-95130857D01*
X122597152Y-94273714D02*
X123263819Y-94273714D01*
X122216200Y-94511809D02*
X122930485Y-94749904D01*
X122930485Y-94749904D02*
X122930485Y-94130857D01*
X122263819Y-93845142D02*
X122263819Y-93178476D01*
X122263819Y-93178476D02*
X123263819Y-93607047D01*
X133637410Y-113628933D02*
X133637410Y-113962266D01*
X134161220Y-113962266D02*
X133161220Y-113962266D01*
X133161220Y-113962266D02*
X133161220Y-113486076D01*
X133637410Y-112771790D02*
X133685029Y-112628933D01*
X133685029Y-112628933D02*
X133732648Y-112581314D01*
X133732648Y-112581314D02*
X133827886Y-112533695D01*
X133827886Y-112533695D02*
X133970743Y-112533695D01*
X133970743Y-112533695D02*
X134065981Y-112581314D01*
X134065981Y-112581314D02*
X134113601Y-112628933D01*
X134113601Y-112628933D02*
X134161220Y-112724171D01*
X134161220Y-112724171D02*
X134161220Y-113105123D01*
X134161220Y-113105123D02*
X133161220Y-113105123D01*
X133161220Y-113105123D02*
X133161220Y-112771790D01*
X133161220Y-112771790D02*
X133208839Y-112676552D01*
X133208839Y-112676552D02*
X133256458Y-112628933D01*
X133256458Y-112628933D02*
X133351696Y-112581314D01*
X133351696Y-112581314D02*
X133446934Y-112581314D01*
X133446934Y-112581314D02*
X133542172Y-112628933D01*
X133542172Y-112628933D02*
X133589791Y-112676552D01*
X133589791Y-112676552D02*
X133637410Y-112771790D01*
X133637410Y-112771790D02*
X133637410Y-113105123D01*
X134161220Y-111581314D02*
X134161220Y-112152742D01*
X134161220Y-111867028D02*
X133161220Y-111867028D01*
X133161220Y-111867028D02*
X133304077Y-111962266D01*
X133304077Y-111962266D02*
X133399315Y-112057504D01*
X133399315Y-112057504D02*
X133446934Y-112152742D01*
X138535580Y-117482857D02*
X138583200Y-117530476D01*
X138583200Y-117530476D02*
X138630819Y-117673333D01*
X138630819Y-117673333D02*
X138630819Y-117768571D01*
X138630819Y-117768571D02*
X138583200Y-117911428D01*
X138583200Y-117911428D02*
X138487961Y-118006666D01*
X138487961Y-118006666D02*
X138392723Y-118054285D01*
X138392723Y-118054285D02*
X138202247Y-118101904D01*
X138202247Y-118101904D02*
X138059390Y-118101904D01*
X138059390Y-118101904D02*
X137868914Y-118054285D01*
X137868914Y-118054285D02*
X137773676Y-118006666D01*
X137773676Y-118006666D02*
X137678438Y-117911428D01*
X137678438Y-117911428D02*
X137630819Y-117768571D01*
X137630819Y-117768571D02*
X137630819Y-117673333D01*
X137630819Y-117673333D02*
X137678438Y-117530476D01*
X137678438Y-117530476D02*
X137726057Y-117482857D01*
X137726057Y-117101904D02*
X137678438Y-117054285D01*
X137678438Y-117054285D02*
X137630819Y-116959047D01*
X137630819Y-116959047D02*
X137630819Y-116720952D01*
X137630819Y-116720952D02*
X137678438Y-116625714D01*
X137678438Y-116625714D02*
X137726057Y-116578095D01*
X137726057Y-116578095D02*
X137821295Y-116530476D01*
X137821295Y-116530476D02*
X137916533Y-116530476D01*
X137916533Y-116530476D02*
X138059390Y-116578095D01*
X138059390Y-116578095D02*
X138630819Y-117149523D01*
X138630819Y-117149523D02*
X138630819Y-116530476D01*
X137964152Y-115673333D02*
X138630819Y-115673333D01*
X137583200Y-115911428D02*
X138297485Y-116149523D01*
X138297485Y-116149523D02*
X138297485Y-115530476D01*
X132095543Y-103864580D02*
X132047924Y-103912200D01*
X132047924Y-103912200D02*
X131905067Y-103959819D01*
X131905067Y-103959819D02*
X131809829Y-103959819D01*
X131809829Y-103959819D02*
X131666972Y-103912200D01*
X131666972Y-103912200D02*
X131571734Y-103816961D01*
X131571734Y-103816961D02*
X131524115Y-103721723D01*
X131524115Y-103721723D02*
X131476496Y-103531247D01*
X131476496Y-103531247D02*
X131476496Y-103388390D01*
X131476496Y-103388390D02*
X131524115Y-103197914D01*
X131524115Y-103197914D02*
X131571734Y-103102676D01*
X131571734Y-103102676D02*
X131666972Y-103007438D01*
X131666972Y-103007438D02*
X131809829Y-102959819D01*
X131809829Y-102959819D02*
X131905067Y-102959819D01*
X131905067Y-102959819D02*
X132047924Y-103007438D01*
X132047924Y-103007438D02*
X132095543Y-103055057D01*
X132476496Y-103055057D02*
X132524115Y-103007438D01*
X132524115Y-103007438D02*
X132619353Y-102959819D01*
X132619353Y-102959819D02*
X132857448Y-102959819D01*
X132857448Y-102959819D02*
X132952686Y-103007438D01*
X132952686Y-103007438D02*
X133000305Y-103055057D01*
X133000305Y-103055057D02*
X133047924Y-103150295D01*
X133047924Y-103150295D02*
X133047924Y-103245533D01*
X133047924Y-103245533D02*
X133000305Y-103388390D01*
X133000305Y-103388390D02*
X132428877Y-103959819D01*
X132428877Y-103959819D02*
X133047924Y-103959819D01*
X133381258Y-102959819D02*
X134047924Y-102959819D01*
X134047924Y-102959819D02*
X133619353Y-103959819D01*
X142821819Y-72016857D02*
X142345628Y-72350190D01*
X142821819Y-72588285D02*
X141821819Y-72588285D01*
X141821819Y-72588285D02*
X141821819Y-72207333D01*
X141821819Y-72207333D02*
X141869438Y-72112095D01*
X141869438Y-72112095D02*
X141917057Y-72064476D01*
X141917057Y-72064476D02*
X142012295Y-72016857D01*
X142012295Y-72016857D02*
X142155152Y-72016857D01*
X142155152Y-72016857D02*
X142250390Y-72064476D01*
X142250390Y-72064476D02*
X142298009Y-72112095D01*
X142298009Y-72112095D02*
X142345628Y-72207333D01*
X142345628Y-72207333D02*
X142345628Y-72588285D01*
X141917057Y-71635904D02*
X141869438Y-71588285D01*
X141869438Y-71588285D02*
X141821819Y-71493047D01*
X141821819Y-71493047D02*
X141821819Y-71254952D01*
X141821819Y-71254952D02*
X141869438Y-71159714D01*
X141869438Y-71159714D02*
X141917057Y-71112095D01*
X141917057Y-71112095D02*
X142012295Y-71064476D01*
X142012295Y-71064476D02*
X142107533Y-71064476D01*
X142107533Y-71064476D02*
X142250390Y-71112095D01*
X142250390Y-71112095D02*
X142821819Y-71683523D01*
X142821819Y-71683523D02*
X142821819Y-71064476D01*
X142250390Y-70493047D02*
X142202771Y-70588285D01*
X142202771Y-70588285D02*
X142155152Y-70635904D01*
X142155152Y-70635904D02*
X142059914Y-70683523D01*
X142059914Y-70683523D02*
X142012295Y-70683523D01*
X142012295Y-70683523D02*
X141917057Y-70635904D01*
X141917057Y-70635904D02*
X141869438Y-70588285D01*
X141869438Y-70588285D02*
X141821819Y-70493047D01*
X141821819Y-70493047D02*
X141821819Y-70302571D01*
X141821819Y-70302571D02*
X141869438Y-70207333D01*
X141869438Y-70207333D02*
X141917057Y-70159714D01*
X141917057Y-70159714D02*
X142012295Y-70112095D01*
X142012295Y-70112095D02*
X142059914Y-70112095D01*
X142059914Y-70112095D02*
X142155152Y-70159714D01*
X142155152Y-70159714D02*
X142202771Y-70207333D01*
X142202771Y-70207333D02*
X142250390Y-70302571D01*
X142250390Y-70302571D02*
X142250390Y-70493047D01*
X142250390Y-70493047D02*
X142298009Y-70588285D01*
X142298009Y-70588285D02*
X142345628Y-70635904D01*
X142345628Y-70635904D02*
X142440866Y-70683523D01*
X142440866Y-70683523D02*
X142631342Y-70683523D01*
X142631342Y-70683523D02*
X142726580Y-70635904D01*
X142726580Y-70635904D02*
X142774200Y-70588285D01*
X142774200Y-70588285D02*
X142821819Y-70493047D01*
X142821819Y-70493047D02*
X142821819Y-70302571D01*
X142821819Y-70302571D02*
X142774200Y-70207333D01*
X142774200Y-70207333D02*
X142726580Y-70159714D01*
X142726580Y-70159714D02*
X142631342Y-70112095D01*
X142631342Y-70112095D02*
X142440866Y-70112095D01*
X142440866Y-70112095D02*
X142345628Y-70159714D01*
X142345628Y-70159714D02*
X142298009Y-70207333D01*
X142298009Y-70207333D02*
X142250390Y-70302571D01*
X141075580Y-28582857D02*
X141123200Y-28630476D01*
X141123200Y-28630476D02*
X141170819Y-28773333D01*
X141170819Y-28773333D02*
X141170819Y-28868571D01*
X141170819Y-28868571D02*
X141123200Y-29011428D01*
X141123200Y-29011428D02*
X141027961Y-29106666D01*
X141027961Y-29106666D02*
X140932723Y-29154285D01*
X140932723Y-29154285D02*
X140742247Y-29201904D01*
X140742247Y-29201904D02*
X140599390Y-29201904D01*
X140599390Y-29201904D02*
X140408914Y-29154285D01*
X140408914Y-29154285D02*
X140313676Y-29106666D01*
X140313676Y-29106666D02*
X140218438Y-29011428D01*
X140218438Y-29011428D02*
X140170819Y-28868571D01*
X140170819Y-28868571D02*
X140170819Y-28773333D01*
X140170819Y-28773333D02*
X140218438Y-28630476D01*
X140218438Y-28630476D02*
X140266057Y-28582857D01*
X140504152Y-27725714D02*
X141170819Y-27725714D01*
X140123200Y-27963809D02*
X140837485Y-28201904D01*
X140837485Y-28201904D02*
X140837485Y-27582857D01*
X140170819Y-27011428D02*
X140170819Y-26916190D01*
X140170819Y-26916190D02*
X140218438Y-26820952D01*
X140218438Y-26820952D02*
X140266057Y-26773333D01*
X140266057Y-26773333D02*
X140361295Y-26725714D01*
X140361295Y-26725714D02*
X140551771Y-26678095D01*
X140551771Y-26678095D02*
X140789866Y-26678095D01*
X140789866Y-26678095D02*
X140980342Y-26725714D01*
X140980342Y-26725714D02*
X141075580Y-26773333D01*
X141075580Y-26773333D02*
X141123200Y-26820952D01*
X141123200Y-26820952D02*
X141170819Y-26916190D01*
X141170819Y-26916190D02*
X141170819Y-27011428D01*
X141170819Y-27011428D02*
X141123200Y-27106666D01*
X141123200Y-27106666D02*
X141075580Y-27154285D01*
X141075580Y-27154285D02*
X140980342Y-27201904D01*
X140980342Y-27201904D02*
X140789866Y-27249523D01*
X140789866Y-27249523D02*
X140551771Y-27249523D01*
X140551771Y-27249523D02*
X140361295Y-27201904D01*
X140361295Y-27201904D02*
X140266057Y-27154285D01*
X140266057Y-27154285D02*
X140218438Y-27106666D01*
X140218438Y-27106666D02*
X140170819Y-27011428D01*
X139544220Y-97504886D02*
X139068029Y-97838219D01*
X139544220Y-98076314D02*
X138544220Y-98076314D01*
X138544220Y-98076314D02*
X138544220Y-97695362D01*
X138544220Y-97695362D02*
X138591839Y-97600124D01*
X138591839Y-97600124D02*
X138639458Y-97552505D01*
X138639458Y-97552505D02*
X138734696Y-97504886D01*
X138734696Y-97504886D02*
X138877553Y-97504886D01*
X138877553Y-97504886D02*
X138972791Y-97552505D01*
X138972791Y-97552505D02*
X139020410Y-97600124D01*
X139020410Y-97600124D02*
X139068029Y-97695362D01*
X139068029Y-97695362D02*
X139068029Y-98076314D01*
X138639458Y-97123933D02*
X138591839Y-97076314D01*
X138591839Y-97076314D02*
X138544220Y-96981076D01*
X138544220Y-96981076D02*
X138544220Y-96742981D01*
X138544220Y-96742981D02*
X138591839Y-96647743D01*
X138591839Y-96647743D02*
X138639458Y-96600124D01*
X138639458Y-96600124D02*
X138734696Y-96552505D01*
X138734696Y-96552505D02*
X138829934Y-96552505D01*
X138829934Y-96552505D02*
X138972791Y-96600124D01*
X138972791Y-96600124D02*
X139544220Y-97171552D01*
X139544220Y-97171552D02*
X139544220Y-96552505D01*
X138544220Y-95933457D02*
X138544220Y-95838219D01*
X138544220Y-95838219D02*
X138591839Y-95742981D01*
X138591839Y-95742981D02*
X138639458Y-95695362D01*
X138639458Y-95695362D02*
X138734696Y-95647743D01*
X138734696Y-95647743D02*
X138925172Y-95600124D01*
X138925172Y-95600124D02*
X139163267Y-95600124D01*
X139163267Y-95600124D02*
X139353743Y-95647743D01*
X139353743Y-95647743D02*
X139448981Y-95695362D01*
X139448981Y-95695362D02*
X139496601Y-95742981D01*
X139496601Y-95742981D02*
X139544220Y-95838219D01*
X139544220Y-95838219D02*
X139544220Y-95933457D01*
X139544220Y-95933457D02*
X139496601Y-96028695D01*
X139496601Y-96028695D02*
X139448981Y-96076314D01*
X139448981Y-96076314D02*
X139353743Y-96123933D01*
X139353743Y-96123933D02*
X139163267Y-96171552D01*
X139163267Y-96171552D02*
X138925172Y-96171552D01*
X138925172Y-96171552D02*
X138734696Y-96123933D01*
X138734696Y-96123933D02*
X138639458Y-96076314D01*
X138639458Y-96076314D02*
X138591839Y-96028695D01*
X138591839Y-96028695D02*
X138544220Y-95933457D01*
X138168142Y-40670209D02*
X138120523Y-40717829D01*
X138120523Y-40717829D02*
X137977666Y-40765448D01*
X137977666Y-40765448D02*
X137882428Y-40765448D01*
X137882428Y-40765448D02*
X137739571Y-40717829D01*
X137739571Y-40717829D02*
X137644333Y-40622590D01*
X137644333Y-40622590D02*
X137596714Y-40527352D01*
X137596714Y-40527352D02*
X137549095Y-40336876D01*
X137549095Y-40336876D02*
X137549095Y-40194019D01*
X137549095Y-40194019D02*
X137596714Y-40003543D01*
X137596714Y-40003543D02*
X137644333Y-39908305D01*
X137644333Y-39908305D02*
X137739571Y-39813067D01*
X137739571Y-39813067D02*
X137882428Y-39765448D01*
X137882428Y-39765448D02*
X137977666Y-39765448D01*
X137977666Y-39765448D02*
X138120523Y-39813067D01*
X138120523Y-39813067D02*
X138168142Y-39860686D01*
X139025285Y-40098781D02*
X139025285Y-40765448D01*
X138787190Y-39717829D02*
X138549095Y-40432114D01*
X138549095Y-40432114D02*
X139168142Y-40432114D01*
X139977666Y-40098781D02*
X139977666Y-40765448D01*
X139739571Y-39717829D02*
X139501476Y-40432114D01*
X139501476Y-40432114D02*
X140120523Y-40432114D01*
X151884142Y-35252819D02*
X151550809Y-34776628D01*
X151312714Y-35252819D02*
X151312714Y-34252819D01*
X151312714Y-34252819D02*
X151693666Y-34252819D01*
X151693666Y-34252819D02*
X151788904Y-34300438D01*
X151788904Y-34300438D02*
X151836523Y-34348057D01*
X151836523Y-34348057D02*
X151884142Y-34443295D01*
X151884142Y-34443295D02*
X151884142Y-34586152D01*
X151884142Y-34586152D02*
X151836523Y-34681390D01*
X151836523Y-34681390D02*
X151788904Y-34729009D01*
X151788904Y-34729009D02*
X151693666Y-34776628D01*
X151693666Y-34776628D02*
X151312714Y-34776628D01*
X152265095Y-34348057D02*
X152312714Y-34300438D01*
X152312714Y-34300438D02*
X152407952Y-34252819D01*
X152407952Y-34252819D02*
X152646047Y-34252819D01*
X152646047Y-34252819D02*
X152741285Y-34300438D01*
X152741285Y-34300438D02*
X152788904Y-34348057D01*
X152788904Y-34348057D02*
X152836523Y-34443295D01*
X152836523Y-34443295D02*
X152836523Y-34538533D01*
X152836523Y-34538533D02*
X152788904Y-34681390D01*
X152788904Y-34681390D02*
X152217476Y-35252819D01*
X152217476Y-35252819D02*
X152836523Y-35252819D01*
X153693666Y-34252819D02*
X153503190Y-34252819D01*
X153503190Y-34252819D02*
X153407952Y-34300438D01*
X153407952Y-34300438D02*
X153360333Y-34348057D01*
X153360333Y-34348057D02*
X153265095Y-34490914D01*
X153265095Y-34490914D02*
X153217476Y-34681390D01*
X153217476Y-34681390D02*
X153217476Y-35062342D01*
X153217476Y-35062342D02*
X153265095Y-35157580D01*
X153265095Y-35157580D02*
X153312714Y-35205200D01*
X153312714Y-35205200D02*
X153407952Y-35252819D01*
X153407952Y-35252819D02*
X153598428Y-35252819D01*
X153598428Y-35252819D02*
X153693666Y-35205200D01*
X153693666Y-35205200D02*
X153741285Y-35157580D01*
X153741285Y-35157580D02*
X153788904Y-35062342D01*
X153788904Y-35062342D02*
X153788904Y-34824247D01*
X153788904Y-34824247D02*
X153741285Y-34729009D01*
X153741285Y-34729009D02*
X153693666Y-34681390D01*
X153693666Y-34681390D02*
X153598428Y-34633771D01*
X153598428Y-34633771D02*
X153407952Y-34633771D01*
X153407952Y-34633771D02*
X153312714Y-34681390D01*
X153312714Y-34681390D02*
X153265095Y-34729009D01*
X153265095Y-34729009D02*
X153217476Y-34824247D01*
X132123543Y-101384609D02*
X132075924Y-101432229D01*
X132075924Y-101432229D02*
X131933067Y-101479848D01*
X131933067Y-101479848D02*
X131837829Y-101479848D01*
X131837829Y-101479848D02*
X131694972Y-101432229D01*
X131694972Y-101432229D02*
X131599734Y-101336990D01*
X131599734Y-101336990D02*
X131552115Y-101241752D01*
X131552115Y-101241752D02*
X131504496Y-101051276D01*
X131504496Y-101051276D02*
X131504496Y-100908419D01*
X131504496Y-100908419D02*
X131552115Y-100717943D01*
X131552115Y-100717943D02*
X131599734Y-100622705D01*
X131599734Y-100622705D02*
X131694972Y-100527467D01*
X131694972Y-100527467D02*
X131837829Y-100479848D01*
X131837829Y-100479848D02*
X131933067Y-100479848D01*
X131933067Y-100479848D02*
X132075924Y-100527467D01*
X132075924Y-100527467D02*
X132123543Y-100575086D01*
X132504496Y-100575086D02*
X132552115Y-100527467D01*
X132552115Y-100527467D02*
X132647353Y-100479848D01*
X132647353Y-100479848D02*
X132885448Y-100479848D01*
X132885448Y-100479848D02*
X132980686Y-100527467D01*
X132980686Y-100527467D02*
X133028305Y-100575086D01*
X133028305Y-100575086D02*
X133075924Y-100670324D01*
X133075924Y-100670324D02*
X133075924Y-100765562D01*
X133075924Y-100765562D02*
X133028305Y-100908419D01*
X133028305Y-100908419D02*
X132456877Y-101479848D01*
X132456877Y-101479848D02*
X133075924Y-101479848D01*
X133980686Y-100479848D02*
X133504496Y-100479848D01*
X133504496Y-100479848D02*
X133456877Y-100956038D01*
X133456877Y-100956038D02*
X133504496Y-100908419D01*
X133504496Y-100908419D02*
X133599734Y-100860800D01*
X133599734Y-100860800D02*
X133837829Y-100860800D01*
X133837829Y-100860800D02*
X133933067Y-100908419D01*
X133933067Y-100908419D02*
X133980686Y-100956038D01*
X133980686Y-100956038D02*
X134028305Y-101051276D01*
X134028305Y-101051276D02*
X134028305Y-101289371D01*
X134028305Y-101289371D02*
X133980686Y-101384609D01*
X133980686Y-101384609D02*
X133933067Y-101432229D01*
X133933067Y-101432229D02*
X133837829Y-101479848D01*
X133837829Y-101479848D02*
X133599734Y-101479848D01*
X133599734Y-101479848D02*
X133504496Y-101432229D01*
X133504496Y-101432229D02*
X133456877Y-101384609D01*
X122527981Y-65159486D02*
X122575601Y-65207105D01*
X122575601Y-65207105D02*
X122623220Y-65349962D01*
X122623220Y-65349962D02*
X122623220Y-65445200D01*
X122623220Y-65445200D02*
X122575601Y-65588057D01*
X122575601Y-65588057D02*
X122480362Y-65683295D01*
X122480362Y-65683295D02*
X122385124Y-65730914D01*
X122385124Y-65730914D02*
X122194648Y-65778533D01*
X122194648Y-65778533D02*
X122051791Y-65778533D01*
X122051791Y-65778533D02*
X121861315Y-65730914D01*
X121861315Y-65730914D02*
X121766077Y-65683295D01*
X121766077Y-65683295D02*
X121670839Y-65588057D01*
X121670839Y-65588057D02*
X121623220Y-65445200D01*
X121623220Y-65445200D02*
X121623220Y-65349962D01*
X121623220Y-65349962D02*
X121670839Y-65207105D01*
X121670839Y-65207105D02*
X121718458Y-65159486D01*
X122623220Y-64207105D02*
X122623220Y-64778533D01*
X122623220Y-64492819D02*
X121623220Y-64492819D01*
X121623220Y-64492819D02*
X121766077Y-64588057D01*
X121766077Y-64588057D02*
X121861315Y-64683295D01*
X121861315Y-64683295D02*
X121908934Y-64778533D01*
X121623220Y-63349962D02*
X121623220Y-63540438D01*
X121623220Y-63540438D02*
X121670839Y-63635676D01*
X121670839Y-63635676D02*
X121718458Y-63683295D01*
X121718458Y-63683295D02*
X121861315Y-63778533D01*
X121861315Y-63778533D02*
X122051791Y-63826152D01*
X122051791Y-63826152D02*
X122432743Y-63826152D01*
X122432743Y-63826152D02*
X122527981Y-63778533D01*
X122527981Y-63778533D02*
X122575601Y-63730914D01*
X122575601Y-63730914D02*
X122623220Y-63635676D01*
X122623220Y-63635676D02*
X122623220Y-63445200D01*
X122623220Y-63445200D02*
X122575601Y-63349962D01*
X122575601Y-63349962D02*
X122527981Y-63302343D01*
X122527981Y-63302343D02*
X122432743Y-63254724D01*
X122432743Y-63254724D02*
X122194648Y-63254724D01*
X122194648Y-63254724D02*
X122099410Y-63302343D01*
X122099410Y-63302343D02*
X122051791Y-63349962D01*
X122051791Y-63349962D02*
X122004172Y-63445200D01*
X122004172Y-63445200D02*
X122004172Y-63635676D01*
X122004172Y-63635676D02*
X122051791Y-63730914D01*
X122051791Y-63730914D02*
X122099410Y-63778533D01*
X122099410Y-63778533D02*
X122194648Y-63826152D01*
X132072142Y-106404580D02*
X132024523Y-106452200D01*
X132024523Y-106452200D02*
X131881666Y-106499819D01*
X131881666Y-106499819D02*
X131786428Y-106499819D01*
X131786428Y-106499819D02*
X131643571Y-106452200D01*
X131643571Y-106452200D02*
X131548333Y-106356961D01*
X131548333Y-106356961D02*
X131500714Y-106261723D01*
X131500714Y-106261723D02*
X131453095Y-106071247D01*
X131453095Y-106071247D02*
X131453095Y-105928390D01*
X131453095Y-105928390D02*
X131500714Y-105737914D01*
X131500714Y-105737914D02*
X131548333Y-105642676D01*
X131548333Y-105642676D02*
X131643571Y-105547438D01*
X131643571Y-105547438D02*
X131786428Y-105499819D01*
X131786428Y-105499819D02*
X131881666Y-105499819D01*
X131881666Y-105499819D02*
X132024523Y-105547438D01*
X132024523Y-105547438D02*
X132072142Y-105595057D01*
X132405476Y-105499819D02*
X133024523Y-105499819D01*
X133024523Y-105499819D02*
X132691190Y-105880771D01*
X132691190Y-105880771D02*
X132834047Y-105880771D01*
X132834047Y-105880771D02*
X132929285Y-105928390D01*
X132929285Y-105928390D02*
X132976904Y-105976009D01*
X132976904Y-105976009D02*
X133024523Y-106071247D01*
X133024523Y-106071247D02*
X133024523Y-106309342D01*
X133024523Y-106309342D02*
X132976904Y-106404580D01*
X132976904Y-106404580D02*
X132929285Y-106452200D01*
X132929285Y-106452200D02*
X132834047Y-106499819D01*
X132834047Y-106499819D02*
X132548333Y-106499819D01*
X132548333Y-106499819D02*
X132453095Y-106452200D01*
X132453095Y-106452200D02*
X132405476Y-106404580D01*
X133405476Y-105595057D02*
X133453095Y-105547438D01*
X133453095Y-105547438D02*
X133548333Y-105499819D01*
X133548333Y-105499819D02*
X133786428Y-105499819D01*
X133786428Y-105499819D02*
X133881666Y-105547438D01*
X133881666Y-105547438D02*
X133929285Y-105595057D01*
X133929285Y-105595057D02*
X133976904Y-105690295D01*
X133976904Y-105690295D02*
X133976904Y-105785533D01*
X133976904Y-105785533D02*
X133929285Y-105928390D01*
X133929285Y-105928390D02*
X133357857Y-106499819D01*
X133357857Y-106499819D02*
X133976904Y-106499819D01*
X123009819Y-46489857D02*
X122533628Y-46823190D01*
X123009819Y-47061285D02*
X122009819Y-47061285D01*
X122009819Y-47061285D02*
X122009819Y-46680333D01*
X122009819Y-46680333D02*
X122057438Y-46585095D01*
X122057438Y-46585095D02*
X122105057Y-46537476D01*
X122105057Y-46537476D02*
X122200295Y-46489857D01*
X122200295Y-46489857D02*
X122343152Y-46489857D01*
X122343152Y-46489857D02*
X122438390Y-46537476D01*
X122438390Y-46537476D02*
X122486009Y-46585095D01*
X122486009Y-46585095D02*
X122533628Y-46680333D01*
X122533628Y-46680333D02*
X122533628Y-47061285D01*
X123009819Y-45537476D02*
X123009819Y-46108904D01*
X123009819Y-45823190D02*
X122009819Y-45823190D01*
X122009819Y-45823190D02*
X122152676Y-45918428D01*
X122152676Y-45918428D02*
X122247914Y-46013666D01*
X122247914Y-46013666D02*
X122295533Y-46108904D01*
X123009819Y-44585095D02*
X123009819Y-45156523D01*
X123009819Y-44870809D02*
X122009819Y-44870809D01*
X122009819Y-44870809D02*
X122152676Y-44966047D01*
X122152676Y-44966047D02*
X122247914Y-45061285D01*
X122247914Y-45061285D02*
X122295533Y-45156523D01*
X147211981Y-50581857D02*
X147259601Y-50629476D01*
X147259601Y-50629476D02*
X147307220Y-50772333D01*
X147307220Y-50772333D02*
X147307220Y-50867571D01*
X147307220Y-50867571D02*
X147259601Y-51010428D01*
X147259601Y-51010428D02*
X147164362Y-51105666D01*
X147164362Y-51105666D02*
X147069124Y-51153285D01*
X147069124Y-51153285D02*
X146878648Y-51200904D01*
X146878648Y-51200904D02*
X146735791Y-51200904D01*
X146735791Y-51200904D02*
X146545315Y-51153285D01*
X146545315Y-51153285D02*
X146450077Y-51105666D01*
X146450077Y-51105666D02*
X146354839Y-51010428D01*
X146354839Y-51010428D02*
X146307220Y-50867571D01*
X146307220Y-50867571D02*
X146307220Y-50772333D01*
X146307220Y-50772333D02*
X146354839Y-50629476D01*
X146354839Y-50629476D02*
X146402458Y-50581857D01*
X146307220Y-49677095D02*
X146307220Y-50153285D01*
X146307220Y-50153285D02*
X146783410Y-50200904D01*
X146783410Y-50200904D02*
X146735791Y-50153285D01*
X146735791Y-50153285D02*
X146688172Y-50058047D01*
X146688172Y-50058047D02*
X146688172Y-49819952D01*
X146688172Y-49819952D02*
X146735791Y-49724714D01*
X146735791Y-49724714D02*
X146783410Y-49677095D01*
X146783410Y-49677095D02*
X146878648Y-49629476D01*
X146878648Y-49629476D02*
X147116743Y-49629476D01*
X147116743Y-49629476D02*
X147211981Y-49677095D01*
X147211981Y-49677095D02*
X147259601Y-49724714D01*
X147259601Y-49724714D02*
X147307220Y-49819952D01*
X147307220Y-49819952D02*
X147307220Y-50058047D01*
X147307220Y-50058047D02*
X147259601Y-50153285D01*
X147259601Y-50153285D02*
X147211981Y-50200904D01*
X146402458Y-49248523D02*
X146354839Y-49200904D01*
X146354839Y-49200904D02*
X146307220Y-49105666D01*
X146307220Y-49105666D02*
X146307220Y-48867571D01*
X146307220Y-48867571D02*
X146354839Y-48772333D01*
X146354839Y-48772333D02*
X146402458Y-48724714D01*
X146402458Y-48724714D02*
X146497696Y-48677095D01*
X146497696Y-48677095D02*
X146592934Y-48677095D01*
X146592934Y-48677095D02*
X146735791Y-48724714D01*
X146735791Y-48724714D02*
X147307220Y-49296142D01*
X147307220Y-49296142D02*
X147307220Y-48677095D01*
X148582142Y-35981819D02*
X148248809Y-35505628D01*
X148010714Y-35981819D02*
X148010714Y-34981819D01*
X148010714Y-34981819D02*
X148391666Y-34981819D01*
X148391666Y-34981819D02*
X148486904Y-35029438D01*
X148486904Y-35029438D02*
X148534523Y-35077057D01*
X148534523Y-35077057D02*
X148582142Y-35172295D01*
X148582142Y-35172295D02*
X148582142Y-35315152D01*
X148582142Y-35315152D02*
X148534523Y-35410390D01*
X148534523Y-35410390D02*
X148486904Y-35458009D01*
X148486904Y-35458009D02*
X148391666Y-35505628D01*
X148391666Y-35505628D02*
X148010714Y-35505628D01*
X148915476Y-34981819D02*
X149534523Y-34981819D01*
X149534523Y-34981819D02*
X149201190Y-35362771D01*
X149201190Y-35362771D02*
X149344047Y-35362771D01*
X149344047Y-35362771D02*
X149439285Y-35410390D01*
X149439285Y-35410390D02*
X149486904Y-35458009D01*
X149486904Y-35458009D02*
X149534523Y-35553247D01*
X149534523Y-35553247D02*
X149534523Y-35791342D01*
X149534523Y-35791342D02*
X149486904Y-35886580D01*
X149486904Y-35886580D02*
X149439285Y-35934200D01*
X149439285Y-35934200D02*
X149344047Y-35981819D01*
X149344047Y-35981819D02*
X149058333Y-35981819D01*
X149058333Y-35981819D02*
X148963095Y-35934200D01*
X148963095Y-35934200D02*
X148915476Y-35886580D01*
X150153571Y-34981819D02*
X150248809Y-34981819D01*
X150248809Y-34981819D02*
X150344047Y-35029438D01*
X150344047Y-35029438D02*
X150391666Y-35077057D01*
X150391666Y-35077057D02*
X150439285Y-35172295D01*
X150439285Y-35172295D02*
X150486904Y-35362771D01*
X150486904Y-35362771D02*
X150486904Y-35600866D01*
X150486904Y-35600866D02*
X150439285Y-35791342D01*
X150439285Y-35791342D02*
X150391666Y-35886580D01*
X150391666Y-35886580D02*
X150344047Y-35934200D01*
X150344047Y-35934200D02*
X150248809Y-35981819D01*
X150248809Y-35981819D02*
X150153571Y-35981819D01*
X150153571Y-35981819D02*
X150058333Y-35934200D01*
X150058333Y-35934200D02*
X150010714Y-35886580D01*
X150010714Y-35886580D02*
X149963095Y-35791342D01*
X149963095Y-35791342D02*
X149915476Y-35600866D01*
X149915476Y-35600866D02*
X149915476Y-35362771D01*
X149915476Y-35362771D02*
X149963095Y-35172295D01*
X149963095Y-35172295D02*
X150010714Y-35077057D01*
X150010714Y-35077057D02*
X150058333Y-35029438D01*
X150058333Y-35029438D02*
X150153571Y-34981819D01*
X144821220Y-58359533D02*
X144821220Y-57788105D01*
X145821220Y-58073819D02*
X144821220Y-58073819D01*
X145821220Y-56930962D02*
X145821220Y-57502390D01*
X145821220Y-57216676D02*
X144821220Y-57216676D01*
X144821220Y-57216676D02*
X144964077Y-57311914D01*
X144964077Y-57311914D02*
X145059315Y-57407152D01*
X145059315Y-57407152D02*
X145106934Y-57502390D01*
X145796095Y-34887819D02*
X145796095Y-35697342D01*
X145796095Y-35697342D02*
X145843714Y-35792580D01*
X145843714Y-35792580D02*
X145891333Y-35840200D01*
X145891333Y-35840200D02*
X145986571Y-35887819D01*
X145986571Y-35887819D02*
X146177047Y-35887819D01*
X146177047Y-35887819D02*
X146272285Y-35840200D01*
X146272285Y-35840200D02*
X146319904Y-35792580D01*
X146319904Y-35792580D02*
X146367523Y-35697342D01*
X146367523Y-35697342D02*
X146367523Y-34887819D01*
X146748476Y-34887819D02*
X147367523Y-34887819D01*
X147367523Y-34887819D02*
X147034190Y-35268771D01*
X147034190Y-35268771D02*
X147177047Y-35268771D01*
X147177047Y-35268771D02*
X147272285Y-35316390D01*
X147272285Y-35316390D02*
X147319904Y-35364009D01*
X147319904Y-35364009D02*
X147367523Y-35459247D01*
X147367523Y-35459247D02*
X147367523Y-35697342D01*
X147367523Y-35697342D02*
X147319904Y-35792580D01*
X147319904Y-35792580D02*
X147272285Y-35840200D01*
X147272285Y-35840200D02*
X147177047Y-35887819D01*
X147177047Y-35887819D02*
X146891333Y-35887819D01*
X146891333Y-35887819D02*
X146796095Y-35840200D01*
X146796095Y-35840200D02*
X146748476Y-35792580D01*
X148282819Y-104274857D02*
X147806628Y-104608190D01*
X148282819Y-104846285D02*
X147282819Y-104846285D01*
X147282819Y-104846285D02*
X147282819Y-104465333D01*
X147282819Y-104465333D02*
X147330438Y-104370095D01*
X147330438Y-104370095D02*
X147378057Y-104322476D01*
X147378057Y-104322476D02*
X147473295Y-104274857D01*
X147473295Y-104274857D02*
X147616152Y-104274857D01*
X147616152Y-104274857D02*
X147711390Y-104322476D01*
X147711390Y-104322476D02*
X147759009Y-104370095D01*
X147759009Y-104370095D02*
X147806628Y-104465333D01*
X147806628Y-104465333D02*
X147806628Y-104846285D01*
X148282819Y-103322476D02*
X148282819Y-103893904D01*
X148282819Y-103608190D02*
X147282819Y-103608190D01*
X147282819Y-103608190D02*
X147425676Y-103703428D01*
X147425676Y-103703428D02*
X147520914Y-103798666D01*
X147520914Y-103798666D02*
X147568533Y-103893904D01*
X147282819Y-102465333D02*
X147282819Y-102655809D01*
X147282819Y-102655809D02*
X147330438Y-102751047D01*
X147330438Y-102751047D02*
X147378057Y-102798666D01*
X147378057Y-102798666D02*
X147520914Y-102893904D01*
X147520914Y-102893904D02*
X147711390Y-102941523D01*
X147711390Y-102941523D02*
X148092342Y-102941523D01*
X148092342Y-102941523D02*
X148187580Y-102893904D01*
X148187580Y-102893904D02*
X148235200Y-102846285D01*
X148235200Y-102846285D02*
X148282819Y-102751047D01*
X148282819Y-102751047D02*
X148282819Y-102560571D01*
X148282819Y-102560571D02*
X148235200Y-102465333D01*
X148235200Y-102465333D02*
X148187580Y-102417714D01*
X148187580Y-102417714D02*
X148092342Y-102370095D01*
X148092342Y-102370095D02*
X147854247Y-102370095D01*
X147854247Y-102370095D02*
X147759009Y-102417714D01*
X147759009Y-102417714D02*
X147711390Y-102465333D01*
X147711390Y-102465333D02*
X147663771Y-102560571D01*
X147663771Y-102560571D02*
X147663771Y-102751047D01*
X147663771Y-102751047D02*
X147711390Y-102846285D01*
X147711390Y-102846285D02*
X147759009Y-102893904D01*
X147759009Y-102893904D02*
X147854247Y-102941523D01*
X129010580Y-95797666D02*
X129058200Y-95845285D01*
X129058200Y-95845285D02*
X129105819Y-95988142D01*
X129105819Y-95988142D02*
X129105819Y-96083380D01*
X129105819Y-96083380D02*
X129058200Y-96226237D01*
X129058200Y-96226237D02*
X128962961Y-96321475D01*
X128962961Y-96321475D02*
X128867723Y-96369094D01*
X128867723Y-96369094D02*
X128677247Y-96416713D01*
X128677247Y-96416713D02*
X128534390Y-96416713D01*
X128534390Y-96416713D02*
X128343914Y-96369094D01*
X128343914Y-96369094D02*
X128248676Y-96321475D01*
X128248676Y-96321475D02*
X128153438Y-96226237D01*
X128153438Y-96226237D02*
X128105819Y-96083380D01*
X128105819Y-96083380D02*
X128105819Y-95988142D01*
X128105819Y-95988142D02*
X128153438Y-95845285D01*
X128153438Y-95845285D02*
X128201057Y-95797666D01*
X128439152Y-94940523D02*
X129105819Y-94940523D01*
X128058200Y-95178618D02*
X128772485Y-95416713D01*
X128772485Y-95416713D02*
X128772485Y-94797666D01*
X148282819Y-95130857D02*
X147806628Y-95464190D01*
X148282819Y-95702285D02*
X147282819Y-95702285D01*
X147282819Y-95702285D02*
X147282819Y-95321333D01*
X147282819Y-95321333D02*
X147330438Y-95226095D01*
X147330438Y-95226095D02*
X147378057Y-95178476D01*
X147378057Y-95178476D02*
X147473295Y-95130857D01*
X147473295Y-95130857D02*
X147616152Y-95130857D01*
X147616152Y-95130857D02*
X147711390Y-95178476D01*
X147711390Y-95178476D02*
X147759009Y-95226095D01*
X147759009Y-95226095D02*
X147806628Y-95321333D01*
X147806628Y-95321333D02*
X147806628Y-95702285D01*
X148282819Y-94178476D02*
X148282819Y-94749904D01*
X148282819Y-94464190D02*
X147282819Y-94464190D01*
X147282819Y-94464190D02*
X147425676Y-94559428D01*
X147425676Y-94559428D02*
X147520914Y-94654666D01*
X147520914Y-94654666D02*
X147568533Y-94749904D01*
X148282819Y-93702285D02*
X148282819Y-93511809D01*
X148282819Y-93511809D02*
X148235200Y-93416571D01*
X148235200Y-93416571D02*
X148187580Y-93368952D01*
X148187580Y-93368952D02*
X148044723Y-93273714D01*
X148044723Y-93273714D02*
X147854247Y-93226095D01*
X147854247Y-93226095D02*
X147473295Y-93226095D01*
X147473295Y-93226095D02*
X147378057Y-93273714D01*
X147378057Y-93273714D02*
X147330438Y-93321333D01*
X147330438Y-93321333D02*
X147282819Y-93416571D01*
X147282819Y-93416571D02*
X147282819Y-93607047D01*
X147282819Y-93607047D02*
X147330438Y-93702285D01*
X147330438Y-93702285D02*
X147378057Y-93749904D01*
X147378057Y-93749904D02*
X147473295Y-93797523D01*
X147473295Y-93797523D02*
X147711390Y-93797523D01*
X147711390Y-93797523D02*
X147806628Y-93749904D01*
X147806628Y-93749904D02*
X147854247Y-93702285D01*
X147854247Y-93702285D02*
X147901866Y-93607047D01*
X147901866Y-93607047D02*
X147901866Y-93416571D01*
X147901866Y-93416571D02*
X147854247Y-93321333D01*
X147854247Y-93321333D02*
X147806628Y-93273714D01*
X147806628Y-93273714D02*
X147711390Y-93226095D01*
X139001571Y-90212057D02*
X138906333Y-90164438D01*
X138906333Y-90164438D02*
X138811095Y-90069200D01*
X138811095Y-90069200D02*
X138668238Y-89926342D01*
X138668238Y-89926342D02*
X138573000Y-89878723D01*
X138573000Y-89878723D02*
X138477762Y-89878723D01*
X138525381Y-90116819D02*
X138430143Y-90069200D01*
X138430143Y-90069200D02*
X138334905Y-89973961D01*
X138334905Y-89973961D02*
X138287286Y-89783485D01*
X138287286Y-89783485D02*
X138287286Y-89450152D01*
X138287286Y-89450152D02*
X138334905Y-89259676D01*
X138334905Y-89259676D02*
X138430143Y-89164438D01*
X138430143Y-89164438D02*
X138525381Y-89116819D01*
X138525381Y-89116819D02*
X138715857Y-89116819D01*
X138715857Y-89116819D02*
X138811095Y-89164438D01*
X138811095Y-89164438D02*
X138906333Y-89259676D01*
X138906333Y-89259676D02*
X138953952Y-89450152D01*
X138953952Y-89450152D02*
X138953952Y-89783485D01*
X138953952Y-89783485D02*
X138906333Y-89973961D01*
X138906333Y-89973961D02*
X138811095Y-90069200D01*
X138811095Y-90069200D02*
X138715857Y-90116819D01*
X138715857Y-90116819D02*
X138525381Y-90116819D01*
X139906333Y-90116819D02*
X139334905Y-90116819D01*
X139620619Y-90116819D02*
X139620619Y-89116819D01*
X139620619Y-89116819D02*
X139525381Y-89259676D01*
X139525381Y-89259676D02*
X139430143Y-89354914D01*
X139430143Y-89354914D02*
X139334905Y-89402533D01*
X140239667Y-89116819D02*
X140858714Y-89116819D01*
X140858714Y-89116819D02*
X140525381Y-89497771D01*
X140525381Y-89497771D02*
X140668238Y-89497771D01*
X140668238Y-89497771D02*
X140763476Y-89545390D01*
X140763476Y-89545390D02*
X140811095Y-89593009D01*
X140811095Y-89593009D02*
X140858714Y-89688247D01*
X140858714Y-89688247D02*
X140858714Y-89926342D01*
X140858714Y-89926342D02*
X140811095Y-90021580D01*
X140811095Y-90021580D02*
X140763476Y-90069200D01*
X140763476Y-90069200D02*
X140668238Y-90116819D01*
X140668238Y-90116819D02*
X140382524Y-90116819D01*
X140382524Y-90116819D02*
X140287286Y-90069200D01*
X140287286Y-90069200D02*
X140239667Y-90021580D01*
X150487142Y-37539819D02*
X150153809Y-37063628D01*
X149915714Y-37539819D02*
X149915714Y-36539819D01*
X149915714Y-36539819D02*
X150296666Y-36539819D01*
X150296666Y-36539819D02*
X150391904Y-36587438D01*
X150391904Y-36587438D02*
X150439523Y-36635057D01*
X150439523Y-36635057D02*
X150487142Y-36730295D01*
X150487142Y-36730295D02*
X150487142Y-36873152D01*
X150487142Y-36873152D02*
X150439523Y-36968390D01*
X150439523Y-36968390D02*
X150391904Y-37016009D01*
X150391904Y-37016009D02*
X150296666Y-37063628D01*
X150296666Y-37063628D02*
X149915714Y-37063628D01*
X150868095Y-36635057D02*
X150915714Y-36587438D01*
X150915714Y-36587438D02*
X151010952Y-36539819D01*
X151010952Y-36539819D02*
X151249047Y-36539819D01*
X151249047Y-36539819D02*
X151344285Y-36587438D01*
X151344285Y-36587438D02*
X151391904Y-36635057D01*
X151391904Y-36635057D02*
X151439523Y-36730295D01*
X151439523Y-36730295D02*
X151439523Y-36825533D01*
X151439523Y-36825533D02*
X151391904Y-36968390D01*
X151391904Y-36968390D02*
X150820476Y-37539819D01*
X150820476Y-37539819D02*
X151439523Y-37539819D01*
X151772857Y-36539819D02*
X152439523Y-36539819D01*
X152439523Y-36539819D02*
X152010952Y-37539819D01*
X147439142Y-45444580D02*
X147391523Y-45492200D01*
X147391523Y-45492200D02*
X147248666Y-45539819D01*
X147248666Y-45539819D02*
X147153428Y-45539819D01*
X147153428Y-45539819D02*
X147010571Y-45492200D01*
X147010571Y-45492200D02*
X146915333Y-45396961D01*
X146915333Y-45396961D02*
X146867714Y-45301723D01*
X146867714Y-45301723D02*
X146820095Y-45111247D01*
X146820095Y-45111247D02*
X146820095Y-44968390D01*
X146820095Y-44968390D02*
X146867714Y-44777914D01*
X146867714Y-44777914D02*
X146915333Y-44682676D01*
X146915333Y-44682676D02*
X147010571Y-44587438D01*
X147010571Y-44587438D02*
X147153428Y-44539819D01*
X147153428Y-44539819D02*
X147248666Y-44539819D01*
X147248666Y-44539819D02*
X147391523Y-44587438D01*
X147391523Y-44587438D02*
X147439142Y-44635057D01*
X148391523Y-45539819D02*
X147820095Y-45539819D01*
X148105809Y-45539819D02*
X148105809Y-44539819D01*
X148105809Y-44539819D02*
X148010571Y-44682676D01*
X148010571Y-44682676D02*
X147915333Y-44777914D01*
X147915333Y-44777914D02*
X147820095Y-44825533D01*
X148867714Y-45539819D02*
X149058190Y-45539819D01*
X149058190Y-45539819D02*
X149153428Y-45492200D01*
X149153428Y-45492200D02*
X149201047Y-45444580D01*
X149201047Y-45444580D02*
X149296285Y-45301723D01*
X149296285Y-45301723D02*
X149343904Y-45111247D01*
X149343904Y-45111247D02*
X149343904Y-44730295D01*
X149343904Y-44730295D02*
X149296285Y-44635057D01*
X149296285Y-44635057D02*
X149248666Y-44587438D01*
X149248666Y-44587438D02*
X149153428Y-44539819D01*
X149153428Y-44539819D02*
X148962952Y-44539819D01*
X148962952Y-44539819D02*
X148867714Y-44587438D01*
X148867714Y-44587438D02*
X148820095Y-44635057D01*
X148820095Y-44635057D02*
X148772476Y-44730295D01*
X148772476Y-44730295D02*
X148772476Y-44968390D01*
X148772476Y-44968390D02*
X148820095Y-45063628D01*
X148820095Y-45063628D02*
X148867714Y-45111247D01*
X148867714Y-45111247D02*
X148962952Y-45158866D01*
X148962952Y-45158866D02*
X149153428Y-45158866D01*
X149153428Y-45158866D02*
X149248666Y-45111247D01*
X149248666Y-45111247D02*
X149296285Y-45063628D01*
X149296285Y-45063628D02*
X149343904Y-44968390D01*
X146737781Y-110912617D02*
X146785401Y-110960236D01*
X146785401Y-110960236D02*
X146833020Y-111103093D01*
X146833020Y-111103093D02*
X146833020Y-111198331D01*
X146833020Y-111198331D02*
X146785401Y-111341188D01*
X146785401Y-111341188D02*
X146690162Y-111436426D01*
X146690162Y-111436426D02*
X146594924Y-111484045D01*
X146594924Y-111484045D02*
X146404448Y-111531664D01*
X146404448Y-111531664D02*
X146261591Y-111531664D01*
X146261591Y-111531664D02*
X146071115Y-111484045D01*
X146071115Y-111484045D02*
X145975877Y-111436426D01*
X145975877Y-111436426D02*
X145880639Y-111341188D01*
X145880639Y-111341188D02*
X145833020Y-111198331D01*
X145833020Y-111198331D02*
X145833020Y-111103093D01*
X145833020Y-111103093D02*
X145880639Y-110960236D01*
X145880639Y-110960236D02*
X145928258Y-110912617D01*
X145928258Y-110531664D02*
X145880639Y-110484045D01*
X145880639Y-110484045D02*
X145833020Y-110388807D01*
X145833020Y-110388807D02*
X145833020Y-110150712D01*
X145833020Y-110150712D02*
X145880639Y-110055474D01*
X145880639Y-110055474D02*
X145928258Y-110007855D01*
X145928258Y-110007855D02*
X146023496Y-109960236D01*
X146023496Y-109960236D02*
X146118734Y-109960236D01*
X146118734Y-109960236D02*
X146261591Y-110007855D01*
X146261591Y-110007855D02*
X146833020Y-110579283D01*
X146833020Y-110579283D02*
X146833020Y-109960236D01*
X146833020Y-109007855D02*
X146833020Y-109579283D01*
X146833020Y-109293569D02*
X145833020Y-109293569D01*
X145833020Y-109293569D02*
X145975877Y-109388807D01*
X145975877Y-109388807D02*
X146071115Y-109484045D01*
X146071115Y-109484045D02*
X146118734Y-109579283D01*
X126755134Y-94787209D02*
X126707515Y-94834829D01*
X126707515Y-94834829D02*
X126564658Y-94882448D01*
X126564658Y-94882448D02*
X126469420Y-94882448D01*
X126469420Y-94882448D02*
X126326563Y-94834829D01*
X126326563Y-94834829D02*
X126231325Y-94739590D01*
X126231325Y-94739590D02*
X126183706Y-94644352D01*
X126183706Y-94644352D02*
X126136087Y-94453876D01*
X126136087Y-94453876D02*
X126136087Y-94311019D01*
X126136087Y-94311019D02*
X126183706Y-94120543D01*
X126183706Y-94120543D02*
X126231325Y-94025305D01*
X126231325Y-94025305D02*
X126326563Y-93930067D01*
X126326563Y-93930067D02*
X126469420Y-93882448D01*
X126469420Y-93882448D02*
X126564658Y-93882448D01*
X126564658Y-93882448D02*
X126707515Y-93930067D01*
X126707515Y-93930067D02*
X126755134Y-93977686D01*
X127136087Y-93977686D02*
X127183706Y-93930067D01*
X127183706Y-93930067D02*
X127278944Y-93882448D01*
X127278944Y-93882448D02*
X127517039Y-93882448D01*
X127517039Y-93882448D02*
X127612277Y-93930067D01*
X127612277Y-93930067D02*
X127659896Y-93977686D01*
X127659896Y-93977686D02*
X127707515Y-94072924D01*
X127707515Y-94072924D02*
X127707515Y-94168162D01*
X127707515Y-94168162D02*
X127659896Y-94311019D01*
X127659896Y-94311019D02*
X127088468Y-94882448D01*
X127088468Y-94882448D02*
X127707515Y-94882448D01*
X124406819Y-46489857D02*
X123930628Y-46823190D01*
X124406819Y-47061285D02*
X123406819Y-47061285D01*
X123406819Y-47061285D02*
X123406819Y-46680333D01*
X123406819Y-46680333D02*
X123454438Y-46585095D01*
X123454438Y-46585095D02*
X123502057Y-46537476D01*
X123502057Y-46537476D02*
X123597295Y-46489857D01*
X123597295Y-46489857D02*
X123740152Y-46489857D01*
X123740152Y-46489857D02*
X123835390Y-46537476D01*
X123835390Y-46537476D02*
X123883009Y-46585095D01*
X123883009Y-46585095D02*
X123930628Y-46680333D01*
X123930628Y-46680333D02*
X123930628Y-47061285D01*
X124406819Y-45537476D02*
X124406819Y-46108904D01*
X124406819Y-45823190D02*
X123406819Y-45823190D01*
X123406819Y-45823190D02*
X123549676Y-45918428D01*
X123549676Y-45918428D02*
X123644914Y-46013666D01*
X123644914Y-46013666D02*
X123692533Y-46108904D01*
X123502057Y-45156523D02*
X123454438Y-45108904D01*
X123454438Y-45108904D02*
X123406819Y-45013666D01*
X123406819Y-45013666D02*
X123406819Y-44775571D01*
X123406819Y-44775571D02*
X123454438Y-44680333D01*
X123454438Y-44680333D02*
X123502057Y-44632714D01*
X123502057Y-44632714D02*
X123597295Y-44585095D01*
X123597295Y-44585095D02*
X123692533Y-44585095D01*
X123692533Y-44585095D02*
X123835390Y-44632714D01*
X123835390Y-44632714D02*
X124406819Y-45204142D01*
X124406819Y-45204142D02*
X124406819Y-44585095D01*
X115530820Y-102577752D02*
X116245105Y-102577752D01*
X116245105Y-102577752D02*
X116387962Y-102625371D01*
X116387962Y-102625371D02*
X116483201Y-102720609D01*
X116483201Y-102720609D02*
X116530820Y-102863466D01*
X116530820Y-102863466D02*
X116530820Y-102958704D01*
X116530820Y-101577752D02*
X116530820Y-102149180D01*
X116530820Y-101863466D02*
X115530820Y-101863466D01*
X115530820Y-101863466D02*
X115673677Y-101958704D01*
X115673677Y-101958704D02*
X115768915Y-102053942D01*
X115768915Y-102053942D02*
X115816534Y-102149180D01*
X115530820Y-100958704D02*
X115530820Y-100863466D01*
X115530820Y-100863466D02*
X115578439Y-100768228D01*
X115578439Y-100768228D02*
X115626058Y-100720609D01*
X115626058Y-100720609D02*
X115721296Y-100672990D01*
X115721296Y-100672990D02*
X115911772Y-100625371D01*
X115911772Y-100625371D02*
X116149867Y-100625371D01*
X116149867Y-100625371D02*
X116340343Y-100672990D01*
X116340343Y-100672990D02*
X116435581Y-100720609D01*
X116435581Y-100720609D02*
X116483201Y-100768228D01*
X116483201Y-100768228D02*
X116530820Y-100863466D01*
X116530820Y-100863466D02*
X116530820Y-100958704D01*
X116530820Y-100958704D02*
X116483201Y-101053942D01*
X116483201Y-101053942D02*
X116435581Y-101101561D01*
X116435581Y-101101561D02*
X116340343Y-101149180D01*
X116340343Y-101149180D02*
X116149867Y-101196799D01*
X116149867Y-101196799D02*
X115911772Y-101196799D01*
X115911772Y-101196799D02*
X115721296Y-101149180D01*
X115721296Y-101149180D02*
X115626058Y-101101561D01*
X115626058Y-101101561D02*
X115578439Y-101053942D01*
X115578439Y-101053942D02*
X115530820Y-100958704D01*
D10*
X140736705Y-83221209D02*
X140165277Y-83221209D01*
X140450991Y-82221209D02*
X140450991Y-83221209D01*
X139260515Y-82221209D02*
X139593848Y-82697400D01*
X139831943Y-82221209D02*
X139831943Y-83221209D01*
X139831943Y-83221209D02*
X139450991Y-83221209D01*
X139450991Y-83221209D02*
X139355753Y-83173590D01*
X139355753Y-83173590D02*
X139308134Y-83125971D01*
X139308134Y-83125971D02*
X139260515Y-83030733D01*
X139260515Y-83030733D02*
X139260515Y-82887876D01*
X139260515Y-82887876D02*
X139308134Y-82792638D01*
X139308134Y-82792638D02*
X139355753Y-82745019D01*
X139355753Y-82745019D02*
X139450991Y-82697400D01*
X139450991Y-82697400D02*
X139831943Y-82697400D01*
X138308134Y-82221209D02*
X138879562Y-82221209D01*
X138593848Y-82221209D02*
X138593848Y-83221209D01*
X138593848Y-83221209D02*
X138689086Y-83078352D01*
X138689086Y-83078352D02*
X138784324Y-82983114D01*
X138784324Y-82983114D02*
X138879562Y-82935495D01*
D11*
X137106819Y-40012857D02*
X136630628Y-40346190D01*
X137106819Y-40584285D02*
X136106819Y-40584285D01*
X136106819Y-40584285D02*
X136106819Y-40203333D01*
X136106819Y-40203333D02*
X136154438Y-40108095D01*
X136154438Y-40108095D02*
X136202057Y-40060476D01*
X136202057Y-40060476D02*
X136297295Y-40012857D01*
X136297295Y-40012857D02*
X136440152Y-40012857D01*
X136440152Y-40012857D02*
X136535390Y-40060476D01*
X136535390Y-40060476D02*
X136583009Y-40108095D01*
X136583009Y-40108095D02*
X136630628Y-40203333D01*
X136630628Y-40203333D02*
X136630628Y-40584285D01*
X136106819Y-39679523D02*
X136106819Y-39060476D01*
X136106819Y-39060476D02*
X136487771Y-39393809D01*
X136487771Y-39393809D02*
X136487771Y-39250952D01*
X136487771Y-39250952D02*
X136535390Y-39155714D01*
X136535390Y-39155714D02*
X136583009Y-39108095D01*
X136583009Y-39108095D02*
X136678247Y-39060476D01*
X136678247Y-39060476D02*
X136916342Y-39060476D01*
X136916342Y-39060476D02*
X137011580Y-39108095D01*
X137011580Y-39108095D02*
X137059200Y-39155714D01*
X137059200Y-39155714D02*
X137106819Y-39250952D01*
X137106819Y-39250952D02*
X137106819Y-39536666D01*
X137106819Y-39536666D02*
X137059200Y-39631904D01*
X137059200Y-39631904D02*
X137011580Y-39679523D01*
X136440152Y-38203333D02*
X137106819Y-38203333D01*
X136059200Y-38441428D02*
X136773485Y-38679523D01*
X136773485Y-38679523D02*
X136773485Y-38060476D01*
X126706333Y-93577580D02*
X126658714Y-93625200D01*
X126658714Y-93625200D02*
X126515857Y-93672819D01*
X126515857Y-93672819D02*
X126420619Y-93672819D01*
X126420619Y-93672819D02*
X126277762Y-93625200D01*
X126277762Y-93625200D02*
X126182524Y-93529961D01*
X126182524Y-93529961D02*
X126134905Y-93434723D01*
X126134905Y-93434723D02*
X126087286Y-93244247D01*
X126087286Y-93244247D02*
X126087286Y-93101390D01*
X126087286Y-93101390D02*
X126134905Y-92910914D01*
X126134905Y-92910914D02*
X126182524Y-92815676D01*
X126182524Y-92815676D02*
X126277762Y-92720438D01*
X126277762Y-92720438D02*
X126420619Y-92672819D01*
X126420619Y-92672819D02*
X126515857Y-92672819D01*
X126515857Y-92672819D02*
X126658714Y-92720438D01*
X126658714Y-92720438D02*
X126706333Y-92768057D01*
X127658714Y-93672819D02*
X127087286Y-93672819D01*
X127373000Y-93672819D02*
X127373000Y-92672819D01*
X127373000Y-92672819D02*
X127277762Y-92815676D01*
X127277762Y-92815676D02*
X127182524Y-92910914D01*
X127182524Y-92910914D02*
X127087286Y-92958533D01*
X115006067Y-43488848D02*
X115006067Y-44203133D01*
X115006067Y-44203133D02*
X114958448Y-44345990D01*
X114958448Y-44345990D02*
X114863210Y-44441229D01*
X114863210Y-44441229D02*
X114720353Y-44488848D01*
X114720353Y-44488848D02*
X114625115Y-44488848D01*
X115434639Y-43584086D02*
X115482258Y-43536467D01*
X115482258Y-43536467D02*
X115577496Y-43488848D01*
X115577496Y-43488848D02*
X115815591Y-43488848D01*
X115815591Y-43488848D02*
X115910829Y-43536467D01*
X115910829Y-43536467D02*
X115958448Y-43584086D01*
X115958448Y-43584086D02*
X116006067Y-43679324D01*
X116006067Y-43679324D02*
X116006067Y-43774562D01*
X116006067Y-43774562D02*
X115958448Y-43917419D01*
X115958448Y-43917419D02*
X115387020Y-44488848D01*
X115387020Y-44488848D02*
X116006067Y-44488848D01*
X132072142Y-107674580D02*
X132024523Y-107722200D01*
X132024523Y-107722200D02*
X131881666Y-107769819D01*
X131881666Y-107769819D02*
X131786428Y-107769819D01*
X131786428Y-107769819D02*
X131643571Y-107722200D01*
X131643571Y-107722200D02*
X131548333Y-107626961D01*
X131548333Y-107626961D02*
X131500714Y-107531723D01*
X131500714Y-107531723D02*
X131453095Y-107341247D01*
X131453095Y-107341247D02*
X131453095Y-107198390D01*
X131453095Y-107198390D02*
X131500714Y-107007914D01*
X131500714Y-107007914D02*
X131548333Y-106912676D01*
X131548333Y-106912676D02*
X131643571Y-106817438D01*
X131643571Y-106817438D02*
X131786428Y-106769819D01*
X131786428Y-106769819D02*
X131881666Y-106769819D01*
X131881666Y-106769819D02*
X132024523Y-106817438D01*
X132024523Y-106817438D02*
X132072142Y-106865057D01*
X132405476Y-106769819D02*
X133024523Y-106769819D01*
X133024523Y-106769819D02*
X132691190Y-107150771D01*
X132691190Y-107150771D02*
X132834047Y-107150771D01*
X132834047Y-107150771D02*
X132929285Y-107198390D01*
X132929285Y-107198390D02*
X132976904Y-107246009D01*
X132976904Y-107246009D02*
X133024523Y-107341247D01*
X133024523Y-107341247D02*
X133024523Y-107579342D01*
X133024523Y-107579342D02*
X132976904Y-107674580D01*
X132976904Y-107674580D02*
X132929285Y-107722200D01*
X132929285Y-107722200D02*
X132834047Y-107769819D01*
X132834047Y-107769819D02*
X132548333Y-107769819D01*
X132548333Y-107769819D02*
X132453095Y-107722200D01*
X132453095Y-107722200D02*
X132405476Y-107674580D01*
X133357857Y-106769819D02*
X134024523Y-106769819D01*
X134024523Y-106769819D02*
X133595952Y-107769819D01*
X139932580Y-66809857D02*
X139980200Y-66857476D01*
X139980200Y-66857476D02*
X140027819Y-67000333D01*
X140027819Y-67000333D02*
X140027819Y-67095571D01*
X140027819Y-67095571D02*
X139980200Y-67238428D01*
X139980200Y-67238428D02*
X139884961Y-67333666D01*
X139884961Y-67333666D02*
X139789723Y-67381285D01*
X139789723Y-67381285D02*
X139599247Y-67428904D01*
X139599247Y-67428904D02*
X139456390Y-67428904D01*
X139456390Y-67428904D02*
X139265914Y-67381285D01*
X139265914Y-67381285D02*
X139170676Y-67333666D01*
X139170676Y-67333666D02*
X139075438Y-67238428D01*
X139075438Y-67238428D02*
X139027819Y-67095571D01*
X139027819Y-67095571D02*
X139027819Y-67000333D01*
X139027819Y-67000333D02*
X139075438Y-66857476D01*
X139075438Y-66857476D02*
X139123057Y-66809857D01*
X139027819Y-65905095D02*
X139027819Y-66381285D01*
X139027819Y-66381285D02*
X139504009Y-66428904D01*
X139504009Y-66428904D02*
X139456390Y-66381285D01*
X139456390Y-66381285D02*
X139408771Y-66286047D01*
X139408771Y-66286047D02*
X139408771Y-66047952D01*
X139408771Y-66047952D02*
X139456390Y-65952714D01*
X139456390Y-65952714D02*
X139504009Y-65905095D01*
X139504009Y-65905095D02*
X139599247Y-65857476D01*
X139599247Y-65857476D02*
X139837342Y-65857476D01*
X139837342Y-65857476D02*
X139932580Y-65905095D01*
X139932580Y-65905095D02*
X139980200Y-65952714D01*
X139980200Y-65952714D02*
X140027819Y-66047952D01*
X140027819Y-66047952D02*
X140027819Y-66286047D01*
X140027819Y-66286047D02*
X139980200Y-66381285D01*
X139980200Y-66381285D02*
X139932580Y-66428904D01*
X139361152Y-65000333D02*
X140027819Y-65000333D01*
X138980200Y-65238428D02*
X139694485Y-65476523D01*
X139694485Y-65476523D02*
X139694485Y-64857476D01*
X131421581Y-97591495D02*
X131469201Y-97639114D01*
X131469201Y-97639114D02*
X131516820Y-97781971D01*
X131516820Y-97781971D02*
X131516820Y-97877209D01*
X131516820Y-97877209D02*
X131469201Y-98020066D01*
X131469201Y-98020066D02*
X131373962Y-98115304D01*
X131373962Y-98115304D02*
X131278724Y-98162923D01*
X131278724Y-98162923D02*
X131088248Y-98210542D01*
X131088248Y-98210542D02*
X130945391Y-98210542D01*
X130945391Y-98210542D02*
X130754915Y-98162923D01*
X130754915Y-98162923D02*
X130659677Y-98115304D01*
X130659677Y-98115304D02*
X130564439Y-98020066D01*
X130564439Y-98020066D02*
X130516820Y-97877209D01*
X130516820Y-97877209D02*
X130516820Y-97781971D01*
X130516820Y-97781971D02*
X130564439Y-97639114D01*
X130564439Y-97639114D02*
X130612058Y-97591495D01*
X130516820Y-97258161D02*
X130516820Y-96591495D01*
X130516820Y-96591495D02*
X131516820Y-97020066D01*
X145684543Y-52462448D02*
X145351210Y-51986257D01*
X145113115Y-52462448D02*
X145113115Y-51462448D01*
X145113115Y-51462448D02*
X145494067Y-51462448D01*
X145494067Y-51462448D02*
X145589305Y-51510067D01*
X145589305Y-51510067D02*
X145636924Y-51557686D01*
X145636924Y-51557686D02*
X145684543Y-51652924D01*
X145684543Y-51652924D02*
X145684543Y-51795781D01*
X145684543Y-51795781D02*
X145636924Y-51891019D01*
X145636924Y-51891019D02*
X145589305Y-51938638D01*
X145589305Y-51938638D02*
X145494067Y-51986257D01*
X145494067Y-51986257D02*
X145113115Y-51986257D01*
X146065496Y-51557686D02*
X146113115Y-51510067D01*
X146113115Y-51510067D02*
X146208353Y-51462448D01*
X146208353Y-51462448D02*
X146446448Y-51462448D01*
X146446448Y-51462448D02*
X146541686Y-51510067D01*
X146541686Y-51510067D02*
X146589305Y-51557686D01*
X146589305Y-51557686D02*
X146636924Y-51652924D01*
X146636924Y-51652924D02*
X146636924Y-51748162D01*
X146636924Y-51748162D02*
X146589305Y-51891019D01*
X146589305Y-51891019D02*
X146017877Y-52462448D01*
X146017877Y-52462448D02*
X146636924Y-52462448D01*
X147494067Y-51795781D02*
X147494067Y-52462448D01*
X147255972Y-51414829D02*
X147017877Y-52129114D01*
X147017877Y-52129114D02*
X147636924Y-52129114D01*
X150727580Y-43314857D02*
X150775200Y-43362476D01*
X150775200Y-43362476D02*
X150822819Y-43505333D01*
X150822819Y-43505333D02*
X150822819Y-43600571D01*
X150822819Y-43600571D02*
X150775200Y-43743428D01*
X150775200Y-43743428D02*
X150679961Y-43838666D01*
X150679961Y-43838666D02*
X150584723Y-43886285D01*
X150584723Y-43886285D02*
X150394247Y-43933904D01*
X150394247Y-43933904D02*
X150251390Y-43933904D01*
X150251390Y-43933904D02*
X150060914Y-43886285D01*
X150060914Y-43886285D02*
X149965676Y-43838666D01*
X149965676Y-43838666D02*
X149870438Y-43743428D01*
X149870438Y-43743428D02*
X149822819Y-43600571D01*
X149822819Y-43600571D02*
X149822819Y-43505333D01*
X149822819Y-43505333D02*
X149870438Y-43362476D01*
X149870438Y-43362476D02*
X149918057Y-43314857D01*
X150822819Y-42362476D02*
X150822819Y-42933904D01*
X150822819Y-42648190D02*
X149822819Y-42648190D01*
X149822819Y-42648190D02*
X149965676Y-42743428D01*
X149965676Y-42743428D02*
X150060914Y-42838666D01*
X150060914Y-42838666D02*
X150108533Y-42933904D01*
X150251390Y-41791047D02*
X150203771Y-41886285D01*
X150203771Y-41886285D02*
X150156152Y-41933904D01*
X150156152Y-41933904D02*
X150060914Y-41981523D01*
X150060914Y-41981523D02*
X150013295Y-41981523D01*
X150013295Y-41981523D02*
X149918057Y-41933904D01*
X149918057Y-41933904D02*
X149870438Y-41886285D01*
X149870438Y-41886285D02*
X149822819Y-41791047D01*
X149822819Y-41791047D02*
X149822819Y-41600571D01*
X149822819Y-41600571D02*
X149870438Y-41505333D01*
X149870438Y-41505333D02*
X149918057Y-41457714D01*
X149918057Y-41457714D02*
X150013295Y-41410095D01*
X150013295Y-41410095D02*
X150060914Y-41410095D01*
X150060914Y-41410095D02*
X150156152Y-41457714D01*
X150156152Y-41457714D02*
X150203771Y-41505333D01*
X150203771Y-41505333D02*
X150251390Y-41600571D01*
X150251390Y-41600571D02*
X150251390Y-41791047D01*
X150251390Y-41791047D02*
X150299009Y-41886285D01*
X150299009Y-41886285D02*
X150346628Y-41933904D01*
X150346628Y-41933904D02*
X150441866Y-41981523D01*
X150441866Y-41981523D02*
X150632342Y-41981523D01*
X150632342Y-41981523D02*
X150727580Y-41933904D01*
X150727580Y-41933904D02*
X150775200Y-41886285D01*
X150775200Y-41886285D02*
X150822819Y-41791047D01*
X150822819Y-41791047D02*
X150822819Y-41600571D01*
X150822819Y-41600571D02*
X150775200Y-41505333D01*
X150775200Y-41505333D02*
X150727580Y-41457714D01*
X150727580Y-41457714D02*
X150632342Y-41410095D01*
X150632342Y-41410095D02*
X150441866Y-41410095D01*
X150441866Y-41410095D02*
X150346628Y-41457714D01*
X150346628Y-41457714D02*
X150299009Y-41505333D01*
X150299009Y-41505333D02*
X150251390Y-41600571D01*
X151661905Y-100698819D02*
X151661905Y-99698819D01*
X151661905Y-99698819D02*
X151900000Y-99698819D01*
X151900000Y-99698819D02*
X152042857Y-99746438D01*
X152042857Y-99746438D02*
X152138095Y-99841676D01*
X152138095Y-99841676D02*
X152185714Y-99936914D01*
X152185714Y-99936914D02*
X152233333Y-100127390D01*
X152233333Y-100127390D02*
X152233333Y-100270247D01*
X152233333Y-100270247D02*
X152185714Y-100460723D01*
X152185714Y-100460723D02*
X152138095Y-100555961D01*
X152138095Y-100555961D02*
X152042857Y-100651200D01*
X152042857Y-100651200D02*
X151900000Y-100698819D01*
X151900000Y-100698819D02*
X151661905Y-100698819D01*
X152614286Y-99794057D02*
X152661905Y-99746438D01*
X152661905Y-99746438D02*
X152757143Y-99698819D01*
X152757143Y-99698819D02*
X152995238Y-99698819D01*
X152995238Y-99698819D02*
X153090476Y-99746438D01*
X153090476Y-99746438D02*
X153138095Y-99794057D01*
X153138095Y-99794057D02*
X153185714Y-99889295D01*
X153185714Y-99889295D02*
X153185714Y-99984533D01*
X153185714Y-99984533D02*
X153138095Y-100127390D01*
X153138095Y-100127390D02*
X152566667Y-100698819D01*
X152566667Y-100698819D02*
X153185714Y-100698819D01*
X141075580Y-117115857D02*
X141123200Y-117163476D01*
X141123200Y-117163476D02*
X141170819Y-117306333D01*
X141170819Y-117306333D02*
X141170819Y-117401571D01*
X141170819Y-117401571D02*
X141123200Y-117544428D01*
X141123200Y-117544428D02*
X141027961Y-117639666D01*
X141027961Y-117639666D02*
X140932723Y-117687285D01*
X140932723Y-117687285D02*
X140742247Y-117734904D01*
X140742247Y-117734904D02*
X140599390Y-117734904D01*
X140599390Y-117734904D02*
X140408914Y-117687285D01*
X140408914Y-117687285D02*
X140313676Y-117639666D01*
X140313676Y-117639666D02*
X140218438Y-117544428D01*
X140218438Y-117544428D02*
X140170819Y-117401571D01*
X140170819Y-117401571D02*
X140170819Y-117306333D01*
X140170819Y-117306333D02*
X140218438Y-117163476D01*
X140218438Y-117163476D02*
X140266057Y-117115857D01*
X140170819Y-116782523D02*
X140170819Y-116163476D01*
X140170819Y-116163476D02*
X140551771Y-116496809D01*
X140551771Y-116496809D02*
X140551771Y-116353952D01*
X140551771Y-116353952D02*
X140599390Y-116258714D01*
X140599390Y-116258714D02*
X140647009Y-116211095D01*
X140647009Y-116211095D02*
X140742247Y-116163476D01*
X140742247Y-116163476D02*
X140980342Y-116163476D01*
X140980342Y-116163476D02*
X141075580Y-116211095D01*
X141075580Y-116211095D02*
X141123200Y-116258714D01*
X141123200Y-116258714D02*
X141170819Y-116353952D01*
X141170819Y-116353952D02*
X141170819Y-116639666D01*
X141170819Y-116639666D02*
X141123200Y-116734904D01*
X141123200Y-116734904D02*
X141075580Y-116782523D01*
X140170819Y-115306333D02*
X140170819Y-115496809D01*
X140170819Y-115496809D02*
X140218438Y-115592047D01*
X140218438Y-115592047D02*
X140266057Y-115639666D01*
X140266057Y-115639666D02*
X140408914Y-115734904D01*
X140408914Y-115734904D02*
X140599390Y-115782523D01*
X140599390Y-115782523D02*
X140980342Y-115782523D01*
X140980342Y-115782523D02*
X141075580Y-115734904D01*
X141075580Y-115734904D02*
X141123200Y-115687285D01*
X141123200Y-115687285D02*
X141170819Y-115592047D01*
X141170819Y-115592047D02*
X141170819Y-115401571D01*
X141170819Y-115401571D02*
X141123200Y-115306333D01*
X141123200Y-115306333D02*
X141075580Y-115258714D01*
X141075580Y-115258714D02*
X140980342Y-115211095D01*
X140980342Y-115211095D02*
X140742247Y-115211095D01*
X140742247Y-115211095D02*
X140647009Y-115258714D01*
X140647009Y-115258714D02*
X140599390Y-115306333D01*
X140599390Y-115306333D02*
X140551771Y-115401571D01*
X140551771Y-115401571D02*
X140551771Y-115592047D01*
X140551771Y-115592047D02*
X140599390Y-115687285D01*
X140599390Y-115687285D02*
X140647009Y-115734904D01*
X140647009Y-115734904D02*
X140742247Y-115782523D01*
X130407580Y-92336857D02*
X130455200Y-92384476D01*
X130455200Y-92384476D02*
X130502819Y-92527333D01*
X130502819Y-92527333D02*
X130502819Y-92622571D01*
X130502819Y-92622571D02*
X130455200Y-92765428D01*
X130455200Y-92765428D02*
X130359961Y-92860666D01*
X130359961Y-92860666D02*
X130264723Y-92908285D01*
X130264723Y-92908285D02*
X130074247Y-92955904D01*
X130074247Y-92955904D02*
X129931390Y-92955904D01*
X129931390Y-92955904D02*
X129740914Y-92908285D01*
X129740914Y-92908285D02*
X129645676Y-92860666D01*
X129645676Y-92860666D02*
X129550438Y-92765428D01*
X129550438Y-92765428D02*
X129502819Y-92622571D01*
X129502819Y-92622571D02*
X129502819Y-92527333D01*
X129502819Y-92527333D02*
X129550438Y-92384476D01*
X129550438Y-92384476D02*
X129598057Y-92336857D01*
X129502819Y-91432095D02*
X129502819Y-91908285D01*
X129502819Y-91908285D02*
X129979009Y-91955904D01*
X129979009Y-91955904D02*
X129931390Y-91908285D01*
X129931390Y-91908285D02*
X129883771Y-91813047D01*
X129883771Y-91813047D02*
X129883771Y-91574952D01*
X129883771Y-91574952D02*
X129931390Y-91479714D01*
X129931390Y-91479714D02*
X129979009Y-91432095D01*
X129979009Y-91432095D02*
X130074247Y-91384476D01*
X130074247Y-91384476D02*
X130312342Y-91384476D01*
X130312342Y-91384476D02*
X130407580Y-91432095D01*
X130407580Y-91432095D02*
X130455200Y-91479714D01*
X130455200Y-91479714D02*
X130502819Y-91574952D01*
X130502819Y-91574952D02*
X130502819Y-91813047D01*
X130502819Y-91813047D02*
X130455200Y-91908285D01*
X130455200Y-91908285D02*
X130407580Y-91955904D01*
X130502819Y-90432095D02*
X130502819Y-91003523D01*
X130502819Y-90717809D02*
X129502819Y-90717809D01*
X129502819Y-90717809D02*
X129645676Y-90813047D01*
X129645676Y-90813047D02*
X129740914Y-90908285D01*
X129740914Y-90908285D02*
X129788533Y-91003523D01*
X151249142Y-97863819D02*
X150915809Y-97387628D01*
X150677714Y-97863819D02*
X150677714Y-96863819D01*
X150677714Y-96863819D02*
X151058666Y-96863819D01*
X151058666Y-96863819D02*
X151153904Y-96911438D01*
X151153904Y-96911438D02*
X151201523Y-96959057D01*
X151201523Y-96959057D02*
X151249142Y-97054295D01*
X151249142Y-97054295D02*
X151249142Y-97197152D01*
X151249142Y-97197152D02*
X151201523Y-97292390D01*
X151201523Y-97292390D02*
X151153904Y-97340009D01*
X151153904Y-97340009D02*
X151058666Y-97387628D01*
X151058666Y-97387628D02*
X150677714Y-97387628D01*
X152201523Y-97863819D02*
X151630095Y-97863819D01*
X151915809Y-97863819D02*
X151915809Y-96863819D01*
X151915809Y-96863819D02*
X151820571Y-97006676D01*
X151820571Y-97006676D02*
X151725333Y-97101914D01*
X151725333Y-97101914D02*
X151630095Y-97149533D01*
X152772952Y-97292390D02*
X152677714Y-97244771D01*
X152677714Y-97244771D02*
X152630095Y-97197152D01*
X152630095Y-97197152D02*
X152582476Y-97101914D01*
X152582476Y-97101914D02*
X152582476Y-97054295D01*
X152582476Y-97054295D02*
X152630095Y-96959057D01*
X152630095Y-96959057D02*
X152677714Y-96911438D01*
X152677714Y-96911438D02*
X152772952Y-96863819D01*
X152772952Y-96863819D02*
X152963428Y-96863819D01*
X152963428Y-96863819D02*
X153058666Y-96911438D01*
X153058666Y-96911438D02*
X153106285Y-96959057D01*
X153106285Y-96959057D02*
X153153904Y-97054295D01*
X153153904Y-97054295D02*
X153153904Y-97101914D01*
X153153904Y-97101914D02*
X153106285Y-97197152D01*
X153106285Y-97197152D02*
X153058666Y-97244771D01*
X153058666Y-97244771D02*
X152963428Y-97292390D01*
X152963428Y-97292390D02*
X152772952Y-97292390D01*
X152772952Y-97292390D02*
X152677714Y-97340009D01*
X152677714Y-97340009D02*
X152630095Y-97387628D01*
X152630095Y-97387628D02*
X152582476Y-97482866D01*
X152582476Y-97482866D02*
X152582476Y-97673342D01*
X152582476Y-97673342D02*
X152630095Y-97768580D01*
X152630095Y-97768580D02*
X152677714Y-97816200D01*
X152677714Y-97816200D02*
X152772952Y-97863819D01*
X152772952Y-97863819D02*
X152963428Y-97863819D01*
X152963428Y-97863819D02*
X153058666Y-97816200D01*
X153058666Y-97816200D02*
X153106285Y-97768580D01*
X153106285Y-97768580D02*
X153153904Y-97673342D01*
X153153904Y-97673342D02*
X153153904Y-97482866D01*
X153153904Y-97482866D02*
X153106285Y-97387628D01*
X153106285Y-97387628D02*
X153058666Y-97340009D01*
X153058666Y-97340009D02*
X152963428Y-97292390D01*
X149250220Y-110458886D02*
X148774029Y-110792219D01*
X149250220Y-111030314D02*
X148250220Y-111030314D01*
X148250220Y-111030314D02*
X148250220Y-110649362D01*
X148250220Y-110649362D02*
X148297839Y-110554124D01*
X148297839Y-110554124D02*
X148345458Y-110506505D01*
X148345458Y-110506505D02*
X148440696Y-110458886D01*
X148440696Y-110458886D02*
X148583553Y-110458886D01*
X148583553Y-110458886D02*
X148678791Y-110506505D01*
X148678791Y-110506505D02*
X148726410Y-110554124D01*
X148726410Y-110554124D02*
X148774029Y-110649362D01*
X148774029Y-110649362D02*
X148774029Y-111030314D01*
X149250220Y-109506505D02*
X149250220Y-110077933D01*
X149250220Y-109792219D02*
X148250220Y-109792219D01*
X148250220Y-109792219D02*
X148393077Y-109887457D01*
X148393077Y-109887457D02*
X148488315Y-109982695D01*
X148488315Y-109982695D02*
X148535934Y-110077933D01*
X148583553Y-108649362D02*
X149250220Y-108649362D01*
X148202601Y-108887457D02*
X148916886Y-109125552D01*
X148916886Y-109125552D02*
X148916886Y-108506505D01*
X121517580Y-95130857D02*
X121565200Y-95178476D01*
X121565200Y-95178476D02*
X121612819Y-95321333D01*
X121612819Y-95321333D02*
X121612819Y-95416571D01*
X121612819Y-95416571D02*
X121565200Y-95559428D01*
X121565200Y-95559428D02*
X121469961Y-95654666D01*
X121469961Y-95654666D02*
X121374723Y-95702285D01*
X121374723Y-95702285D02*
X121184247Y-95749904D01*
X121184247Y-95749904D02*
X121041390Y-95749904D01*
X121041390Y-95749904D02*
X120850914Y-95702285D01*
X120850914Y-95702285D02*
X120755676Y-95654666D01*
X120755676Y-95654666D02*
X120660438Y-95559428D01*
X120660438Y-95559428D02*
X120612819Y-95416571D01*
X120612819Y-95416571D02*
X120612819Y-95321333D01*
X120612819Y-95321333D02*
X120660438Y-95178476D01*
X120660438Y-95178476D02*
X120708057Y-95130857D01*
X120946152Y-94273714D02*
X121612819Y-94273714D01*
X120565200Y-94511809D02*
X121279485Y-94749904D01*
X121279485Y-94749904D02*
X121279485Y-94130857D01*
X120612819Y-93321333D02*
X120612819Y-93511809D01*
X120612819Y-93511809D02*
X120660438Y-93607047D01*
X120660438Y-93607047D02*
X120708057Y-93654666D01*
X120708057Y-93654666D02*
X120850914Y-93749904D01*
X120850914Y-93749904D02*
X121041390Y-93797523D01*
X121041390Y-93797523D02*
X121422342Y-93797523D01*
X121422342Y-93797523D02*
X121517580Y-93749904D01*
X121517580Y-93749904D02*
X121565200Y-93702285D01*
X121565200Y-93702285D02*
X121612819Y-93607047D01*
X121612819Y-93607047D02*
X121612819Y-93416571D01*
X121612819Y-93416571D02*
X121565200Y-93321333D01*
X121565200Y-93321333D02*
X121517580Y-93273714D01*
X121517580Y-93273714D02*
X121422342Y-93226095D01*
X121422342Y-93226095D02*
X121184247Y-93226095D01*
X121184247Y-93226095D02*
X121089009Y-93273714D01*
X121089009Y-93273714D02*
X121041390Y-93321333D01*
X121041390Y-93321333D02*
X120993771Y-93416571D01*
X120993771Y-93416571D02*
X120993771Y-93607047D01*
X120993771Y-93607047D02*
X121041390Y-93702285D01*
X121041390Y-93702285D02*
X121089009Y-93749904D01*
X121089009Y-93749904D02*
X121184247Y-93797523D01*
X137392580Y-115111457D02*
X137440200Y-115159076D01*
X137440200Y-115159076D02*
X137487819Y-115301933D01*
X137487819Y-115301933D02*
X137487819Y-115397171D01*
X137487819Y-115397171D02*
X137440200Y-115540028D01*
X137440200Y-115540028D02*
X137344961Y-115635266D01*
X137344961Y-115635266D02*
X137249723Y-115682885D01*
X137249723Y-115682885D02*
X137059247Y-115730504D01*
X137059247Y-115730504D02*
X136916390Y-115730504D01*
X136916390Y-115730504D02*
X136725914Y-115682885D01*
X136725914Y-115682885D02*
X136630676Y-115635266D01*
X136630676Y-115635266D02*
X136535438Y-115540028D01*
X136535438Y-115540028D02*
X136487819Y-115397171D01*
X136487819Y-115397171D02*
X136487819Y-115301933D01*
X136487819Y-115301933D02*
X136535438Y-115159076D01*
X136535438Y-115159076D02*
X136583057Y-115111457D01*
X136583057Y-114730504D02*
X136535438Y-114682885D01*
X136535438Y-114682885D02*
X136487819Y-114587647D01*
X136487819Y-114587647D02*
X136487819Y-114349552D01*
X136487819Y-114349552D02*
X136535438Y-114254314D01*
X136535438Y-114254314D02*
X136583057Y-114206695D01*
X136583057Y-114206695D02*
X136678295Y-114159076D01*
X136678295Y-114159076D02*
X136773533Y-114159076D01*
X136773533Y-114159076D02*
X136916390Y-114206695D01*
X136916390Y-114206695D02*
X137487819Y-114778123D01*
X137487819Y-114778123D02*
X137487819Y-114159076D01*
X136487819Y-113825742D02*
X136487819Y-113206695D01*
X136487819Y-113206695D02*
X136868771Y-113540028D01*
X136868771Y-113540028D02*
X136868771Y-113397171D01*
X136868771Y-113397171D02*
X136916390Y-113301933D01*
X136916390Y-113301933D02*
X136964009Y-113254314D01*
X136964009Y-113254314D02*
X137059247Y-113206695D01*
X137059247Y-113206695D02*
X137297342Y-113206695D01*
X137297342Y-113206695D02*
X137392580Y-113254314D01*
X137392580Y-113254314D02*
X137440200Y-113301933D01*
X137440200Y-113301933D02*
X137487819Y-113397171D01*
X137487819Y-113397171D02*
X137487819Y-113682885D01*
X137487819Y-113682885D02*
X137440200Y-113778123D01*
X137440200Y-113778123D02*
X137392580Y-113825742D01*
X150822819Y-30487857D02*
X150346628Y-30821190D01*
X150822819Y-31059285D02*
X149822819Y-31059285D01*
X149822819Y-31059285D02*
X149822819Y-30678333D01*
X149822819Y-30678333D02*
X149870438Y-30583095D01*
X149870438Y-30583095D02*
X149918057Y-30535476D01*
X149918057Y-30535476D02*
X150013295Y-30487857D01*
X150013295Y-30487857D02*
X150156152Y-30487857D01*
X150156152Y-30487857D02*
X150251390Y-30535476D01*
X150251390Y-30535476D02*
X150299009Y-30583095D01*
X150299009Y-30583095D02*
X150346628Y-30678333D01*
X150346628Y-30678333D02*
X150346628Y-31059285D01*
X149918057Y-30106904D02*
X149870438Y-30059285D01*
X149870438Y-30059285D02*
X149822819Y-29964047D01*
X149822819Y-29964047D02*
X149822819Y-29725952D01*
X149822819Y-29725952D02*
X149870438Y-29630714D01*
X149870438Y-29630714D02*
X149918057Y-29583095D01*
X149918057Y-29583095D02*
X150013295Y-29535476D01*
X150013295Y-29535476D02*
X150108533Y-29535476D01*
X150108533Y-29535476D02*
X150251390Y-29583095D01*
X150251390Y-29583095D02*
X150822819Y-30154523D01*
X150822819Y-30154523D02*
X150822819Y-29535476D01*
X149822819Y-29202142D02*
X149822819Y-28583095D01*
X149822819Y-28583095D02*
X150203771Y-28916428D01*
X150203771Y-28916428D02*
X150203771Y-28773571D01*
X150203771Y-28773571D02*
X150251390Y-28678333D01*
X150251390Y-28678333D02*
X150299009Y-28630714D01*
X150299009Y-28630714D02*
X150394247Y-28583095D01*
X150394247Y-28583095D02*
X150632342Y-28583095D01*
X150632342Y-28583095D02*
X150727580Y-28630714D01*
X150727580Y-28630714D02*
X150775200Y-28678333D01*
X150775200Y-28678333D02*
X150822819Y-28773571D01*
X150822819Y-28773571D02*
X150822819Y-29059285D01*
X150822819Y-29059285D02*
X150775200Y-29154523D01*
X150775200Y-29154523D02*
X150727580Y-29202142D01*
X136388220Y-104866933D02*
X137197743Y-104866933D01*
X137197743Y-104866933D02*
X137292981Y-104819314D01*
X137292981Y-104819314D02*
X137340601Y-104771695D01*
X137340601Y-104771695D02*
X137388220Y-104676457D01*
X137388220Y-104676457D02*
X137388220Y-104485981D01*
X137388220Y-104485981D02*
X137340601Y-104390743D01*
X137340601Y-104390743D02*
X137292981Y-104343124D01*
X137292981Y-104343124D02*
X137197743Y-104295505D01*
X137197743Y-104295505D02*
X136388220Y-104295505D01*
X136388220Y-103390743D02*
X136388220Y-103581219D01*
X136388220Y-103581219D02*
X136435839Y-103676457D01*
X136435839Y-103676457D02*
X136483458Y-103724076D01*
X136483458Y-103724076D02*
X136626315Y-103819314D01*
X136626315Y-103819314D02*
X136816791Y-103866933D01*
X136816791Y-103866933D02*
X137197743Y-103866933D01*
X137197743Y-103866933D02*
X137292981Y-103819314D01*
X137292981Y-103819314D02*
X137340601Y-103771695D01*
X137340601Y-103771695D02*
X137388220Y-103676457D01*
X137388220Y-103676457D02*
X137388220Y-103485981D01*
X137388220Y-103485981D02*
X137340601Y-103390743D01*
X137340601Y-103390743D02*
X137292981Y-103343124D01*
X137292981Y-103343124D02*
X137197743Y-103295505D01*
X137197743Y-103295505D02*
X136959648Y-103295505D01*
X136959648Y-103295505D02*
X136864410Y-103343124D01*
X136864410Y-103343124D02*
X136816791Y-103390743D01*
X136816791Y-103390743D02*
X136769172Y-103485981D01*
X136769172Y-103485981D02*
X136769172Y-103676457D01*
X136769172Y-103676457D02*
X136816791Y-103771695D01*
X136816791Y-103771695D02*
X136864410Y-103819314D01*
X136864410Y-103819314D02*
X136959648Y-103866933D01*
X124660819Y-94400666D02*
X124184628Y-94733999D01*
X124660819Y-94972094D02*
X123660819Y-94972094D01*
X123660819Y-94972094D02*
X123660819Y-94591142D01*
X123660819Y-94591142D02*
X123708438Y-94495904D01*
X123708438Y-94495904D02*
X123756057Y-94448285D01*
X123756057Y-94448285D02*
X123851295Y-94400666D01*
X123851295Y-94400666D02*
X123994152Y-94400666D01*
X123994152Y-94400666D02*
X124089390Y-94448285D01*
X124089390Y-94448285D02*
X124137009Y-94495904D01*
X124137009Y-94495904D02*
X124184628Y-94591142D01*
X124184628Y-94591142D02*
X124184628Y-94972094D01*
X124660819Y-93448285D02*
X124660819Y-94019713D01*
X124660819Y-93733999D02*
X123660819Y-93733999D01*
X123660819Y-93733999D02*
X123803676Y-93829237D01*
X123803676Y-93829237D02*
X123898914Y-93924475D01*
X123898914Y-93924475D02*
X123946533Y-94019713D01*
X131339020Y-66108123D02*
X130339020Y-66108123D01*
X130339020Y-66108123D02*
X130339020Y-65870028D01*
X130339020Y-65870028D02*
X130386639Y-65727171D01*
X130386639Y-65727171D02*
X130481877Y-65631933D01*
X130481877Y-65631933D02*
X130577115Y-65584314D01*
X130577115Y-65584314D02*
X130767591Y-65536695D01*
X130767591Y-65536695D02*
X130910448Y-65536695D01*
X130910448Y-65536695D02*
X131100924Y-65584314D01*
X131100924Y-65584314D02*
X131196162Y-65631933D01*
X131196162Y-65631933D02*
X131291401Y-65727171D01*
X131291401Y-65727171D02*
X131339020Y-65870028D01*
X131339020Y-65870028D02*
X131339020Y-66108123D01*
X131339020Y-64584314D02*
X131339020Y-65155742D01*
X131339020Y-64870028D02*
X130339020Y-64870028D01*
X130339020Y-64870028D02*
X130481877Y-64965266D01*
X130481877Y-64965266D02*
X130577115Y-65060504D01*
X130577115Y-65060504D02*
X130624734Y-65155742D01*
X130153580Y-97591495D02*
X130201200Y-97639114D01*
X130201200Y-97639114D02*
X130248819Y-97781971D01*
X130248819Y-97781971D02*
X130248819Y-97877209D01*
X130248819Y-97877209D02*
X130201200Y-98020066D01*
X130201200Y-98020066D02*
X130105961Y-98115304D01*
X130105961Y-98115304D02*
X130010723Y-98162923D01*
X130010723Y-98162923D02*
X129820247Y-98210542D01*
X129820247Y-98210542D02*
X129677390Y-98210542D01*
X129677390Y-98210542D02*
X129486914Y-98162923D01*
X129486914Y-98162923D02*
X129391676Y-98115304D01*
X129391676Y-98115304D02*
X129296438Y-98020066D01*
X129296438Y-98020066D02*
X129248819Y-97877209D01*
X129248819Y-97877209D02*
X129248819Y-97781971D01*
X129248819Y-97781971D02*
X129296438Y-97639114D01*
X129296438Y-97639114D02*
X129344057Y-97591495D01*
X129248819Y-96734352D02*
X129248819Y-96924828D01*
X129248819Y-96924828D02*
X129296438Y-97020066D01*
X129296438Y-97020066D02*
X129344057Y-97067685D01*
X129344057Y-97067685D02*
X129486914Y-97162923D01*
X129486914Y-97162923D02*
X129677390Y-97210542D01*
X129677390Y-97210542D02*
X130058342Y-97210542D01*
X130058342Y-97210542D02*
X130153580Y-97162923D01*
X130153580Y-97162923D02*
X130201200Y-97115304D01*
X130201200Y-97115304D02*
X130248819Y-97020066D01*
X130248819Y-97020066D02*
X130248819Y-96829590D01*
X130248819Y-96829590D02*
X130201200Y-96734352D01*
X130201200Y-96734352D02*
X130153580Y-96686733D01*
X130153580Y-96686733D02*
X130058342Y-96639114D01*
X130058342Y-96639114D02*
X129820247Y-96639114D01*
X129820247Y-96639114D02*
X129725009Y-96686733D01*
X129725009Y-96686733D02*
X129677390Y-96734352D01*
X129677390Y-96734352D02*
X129629771Y-96829590D01*
X129629771Y-96829590D02*
X129629771Y-97020066D01*
X129629771Y-97020066D02*
X129677390Y-97115304D01*
X129677390Y-97115304D02*
X129725009Y-97162923D01*
X129725009Y-97162923D02*
X129820247Y-97210542D01*
X128883580Y-97591495D02*
X128931200Y-97639114D01*
X128931200Y-97639114D02*
X128978819Y-97781971D01*
X128978819Y-97781971D02*
X128978819Y-97877209D01*
X128978819Y-97877209D02*
X128931200Y-98020066D01*
X128931200Y-98020066D02*
X128835961Y-98115304D01*
X128835961Y-98115304D02*
X128740723Y-98162923D01*
X128740723Y-98162923D02*
X128550247Y-98210542D01*
X128550247Y-98210542D02*
X128407390Y-98210542D01*
X128407390Y-98210542D02*
X128216914Y-98162923D01*
X128216914Y-98162923D02*
X128121676Y-98115304D01*
X128121676Y-98115304D02*
X128026438Y-98020066D01*
X128026438Y-98020066D02*
X127978819Y-97877209D01*
X127978819Y-97877209D02*
X127978819Y-97781971D01*
X127978819Y-97781971D02*
X128026438Y-97639114D01*
X128026438Y-97639114D02*
X128074057Y-97591495D01*
X127978819Y-96686733D02*
X127978819Y-97162923D01*
X127978819Y-97162923D02*
X128455009Y-97210542D01*
X128455009Y-97210542D02*
X128407390Y-97162923D01*
X128407390Y-97162923D02*
X128359771Y-97067685D01*
X128359771Y-97067685D02*
X128359771Y-96829590D01*
X128359771Y-96829590D02*
X128407390Y-96734352D01*
X128407390Y-96734352D02*
X128455009Y-96686733D01*
X128455009Y-96686733D02*
X128550247Y-96639114D01*
X128550247Y-96639114D02*
X128788342Y-96639114D01*
X128788342Y-96639114D02*
X128883580Y-96686733D01*
X128883580Y-96686733D02*
X128931200Y-96734352D01*
X128931200Y-96734352D02*
X128978819Y-96829590D01*
X128978819Y-96829590D02*
X128978819Y-97067685D01*
X128978819Y-97067685D02*
X128931200Y-97162923D01*
X128931200Y-97162923D02*
X128883580Y-97210542D01*
X132693580Y-97591495D02*
X132741200Y-97639114D01*
X132741200Y-97639114D02*
X132788819Y-97781971D01*
X132788819Y-97781971D02*
X132788819Y-97877209D01*
X132788819Y-97877209D02*
X132741200Y-98020066D01*
X132741200Y-98020066D02*
X132645961Y-98115304D01*
X132645961Y-98115304D02*
X132550723Y-98162923D01*
X132550723Y-98162923D02*
X132360247Y-98210542D01*
X132360247Y-98210542D02*
X132217390Y-98210542D01*
X132217390Y-98210542D02*
X132026914Y-98162923D01*
X132026914Y-98162923D02*
X131931676Y-98115304D01*
X131931676Y-98115304D02*
X131836438Y-98020066D01*
X131836438Y-98020066D02*
X131788819Y-97877209D01*
X131788819Y-97877209D02*
X131788819Y-97781971D01*
X131788819Y-97781971D02*
X131836438Y-97639114D01*
X131836438Y-97639114D02*
X131884057Y-97591495D01*
X132217390Y-97020066D02*
X132169771Y-97115304D01*
X132169771Y-97115304D02*
X132122152Y-97162923D01*
X132122152Y-97162923D02*
X132026914Y-97210542D01*
X132026914Y-97210542D02*
X131979295Y-97210542D01*
X131979295Y-97210542D02*
X131884057Y-97162923D01*
X131884057Y-97162923D02*
X131836438Y-97115304D01*
X131836438Y-97115304D02*
X131788819Y-97020066D01*
X131788819Y-97020066D02*
X131788819Y-96829590D01*
X131788819Y-96829590D02*
X131836438Y-96734352D01*
X131836438Y-96734352D02*
X131884057Y-96686733D01*
X131884057Y-96686733D02*
X131979295Y-96639114D01*
X131979295Y-96639114D02*
X132026914Y-96639114D01*
X132026914Y-96639114D02*
X132122152Y-96686733D01*
X132122152Y-96686733D02*
X132169771Y-96734352D01*
X132169771Y-96734352D02*
X132217390Y-96829590D01*
X132217390Y-96829590D02*
X132217390Y-97020066D01*
X132217390Y-97020066D02*
X132265009Y-97115304D01*
X132265009Y-97115304D02*
X132312628Y-97162923D01*
X132312628Y-97162923D02*
X132407866Y-97210542D01*
X132407866Y-97210542D02*
X132598342Y-97210542D01*
X132598342Y-97210542D02*
X132693580Y-97162923D01*
X132693580Y-97162923D02*
X132741200Y-97115304D01*
X132741200Y-97115304D02*
X132788819Y-97020066D01*
X132788819Y-97020066D02*
X132788819Y-96829590D01*
X132788819Y-96829590D02*
X132741200Y-96734352D01*
X132741200Y-96734352D02*
X132693580Y-96686733D01*
X132693580Y-96686733D02*
X132598342Y-96639114D01*
X132598342Y-96639114D02*
X132407866Y-96639114D01*
X132407866Y-96639114D02*
X132312628Y-96686733D01*
X132312628Y-96686733D02*
X132265009Y-96734352D01*
X132265009Y-96734352D02*
X132217390Y-96829590D01*
X135233580Y-97585086D02*
X135281200Y-97632705D01*
X135281200Y-97632705D02*
X135328819Y-97775562D01*
X135328819Y-97775562D02*
X135328819Y-97870800D01*
X135328819Y-97870800D02*
X135281200Y-98013657D01*
X135281200Y-98013657D02*
X135185961Y-98108895D01*
X135185961Y-98108895D02*
X135090723Y-98156514D01*
X135090723Y-98156514D02*
X134900247Y-98204133D01*
X134900247Y-98204133D02*
X134757390Y-98204133D01*
X134757390Y-98204133D02*
X134566914Y-98156514D01*
X134566914Y-98156514D02*
X134471676Y-98108895D01*
X134471676Y-98108895D02*
X134376438Y-98013657D01*
X134376438Y-98013657D02*
X134328819Y-97870800D01*
X134328819Y-97870800D02*
X134328819Y-97775562D01*
X134328819Y-97775562D02*
X134376438Y-97632705D01*
X134376438Y-97632705D02*
X134424057Y-97585086D01*
X135328819Y-96632705D02*
X135328819Y-97204133D01*
X135328819Y-96918419D02*
X134328819Y-96918419D01*
X134328819Y-96918419D02*
X134471676Y-97013657D01*
X134471676Y-97013657D02*
X134566914Y-97108895D01*
X134566914Y-97108895D02*
X134614533Y-97204133D01*
X134328819Y-96013657D02*
X134328819Y-95918419D01*
X134328819Y-95918419D02*
X134376438Y-95823181D01*
X134376438Y-95823181D02*
X134424057Y-95775562D01*
X134424057Y-95775562D02*
X134519295Y-95727943D01*
X134519295Y-95727943D02*
X134709771Y-95680324D01*
X134709771Y-95680324D02*
X134947866Y-95680324D01*
X134947866Y-95680324D02*
X135138342Y-95727943D01*
X135138342Y-95727943D02*
X135233580Y-95775562D01*
X135233580Y-95775562D02*
X135281200Y-95823181D01*
X135281200Y-95823181D02*
X135328819Y-95918419D01*
X135328819Y-95918419D02*
X135328819Y-96013657D01*
X135328819Y-96013657D02*
X135281200Y-96108895D01*
X135281200Y-96108895D02*
X135233580Y-96156514D01*
X135233580Y-96156514D02*
X135138342Y-96204133D01*
X135138342Y-96204133D02*
X134947866Y-96251752D01*
X134947866Y-96251752D02*
X134709771Y-96251752D01*
X134709771Y-96251752D02*
X134519295Y-96204133D01*
X134519295Y-96204133D02*
X134424057Y-96156514D01*
X134424057Y-96156514D02*
X134376438Y-96108895D01*
X134376438Y-96108895D02*
X134328819Y-96013657D01*
X138041142Y-27124819D02*
X137707809Y-26648628D01*
X137469714Y-27124819D02*
X137469714Y-26124819D01*
X137469714Y-26124819D02*
X137850666Y-26124819D01*
X137850666Y-26124819D02*
X137945904Y-26172438D01*
X137945904Y-26172438D02*
X137993523Y-26220057D01*
X137993523Y-26220057D02*
X138041142Y-26315295D01*
X138041142Y-26315295D02*
X138041142Y-26458152D01*
X138041142Y-26458152D02*
X137993523Y-26553390D01*
X137993523Y-26553390D02*
X137945904Y-26601009D01*
X137945904Y-26601009D02*
X137850666Y-26648628D01*
X137850666Y-26648628D02*
X137469714Y-26648628D01*
X138422095Y-26220057D02*
X138469714Y-26172438D01*
X138469714Y-26172438D02*
X138564952Y-26124819D01*
X138564952Y-26124819D02*
X138803047Y-26124819D01*
X138803047Y-26124819D02*
X138898285Y-26172438D01*
X138898285Y-26172438D02*
X138945904Y-26220057D01*
X138945904Y-26220057D02*
X138993523Y-26315295D01*
X138993523Y-26315295D02*
X138993523Y-26410533D01*
X138993523Y-26410533D02*
X138945904Y-26553390D01*
X138945904Y-26553390D02*
X138374476Y-27124819D01*
X138374476Y-27124819D02*
X138993523Y-27124819D01*
X139945904Y-27124819D02*
X139374476Y-27124819D01*
X139660190Y-27124819D02*
X139660190Y-26124819D01*
X139660190Y-26124819D02*
X139564952Y-26267676D01*
X139564952Y-26267676D02*
X139469714Y-26362914D01*
X139469714Y-26362914D02*
X139374476Y-26410533D01*
X151376142Y-45461580D02*
X151328523Y-45509200D01*
X151328523Y-45509200D02*
X151185666Y-45556819D01*
X151185666Y-45556819D02*
X151090428Y-45556819D01*
X151090428Y-45556819D02*
X150947571Y-45509200D01*
X150947571Y-45509200D02*
X150852333Y-45413961D01*
X150852333Y-45413961D02*
X150804714Y-45318723D01*
X150804714Y-45318723D02*
X150757095Y-45128247D01*
X150757095Y-45128247D02*
X150757095Y-44985390D01*
X150757095Y-44985390D02*
X150804714Y-44794914D01*
X150804714Y-44794914D02*
X150852333Y-44699676D01*
X150852333Y-44699676D02*
X150947571Y-44604438D01*
X150947571Y-44604438D02*
X151090428Y-44556819D01*
X151090428Y-44556819D02*
X151185666Y-44556819D01*
X151185666Y-44556819D02*
X151328523Y-44604438D01*
X151328523Y-44604438D02*
X151376142Y-44652057D01*
X152233285Y-44556819D02*
X152042809Y-44556819D01*
X152042809Y-44556819D02*
X151947571Y-44604438D01*
X151947571Y-44604438D02*
X151899952Y-44652057D01*
X151899952Y-44652057D02*
X151804714Y-44794914D01*
X151804714Y-44794914D02*
X151757095Y-44985390D01*
X151757095Y-44985390D02*
X151757095Y-45366342D01*
X151757095Y-45366342D02*
X151804714Y-45461580D01*
X151804714Y-45461580D02*
X151852333Y-45509200D01*
X151852333Y-45509200D02*
X151947571Y-45556819D01*
X151947571Y-45556819D02*
X152138047Y-45556819D01*
X152138047Y-45556819D02*
X152233285Y-45509200D01*
X152233285Y-45509200D02*
X152280904Y-45461580D01*
X152280904Y-45461580D02*
X152328523Y-45366342D01*
X152328523Y-45366342D02*
X152328523Y-45128247D01*
X152328523Y-45128247D02*
X152280904Y-45033009D01*
X152280904Y-45033009D02*
X152233285Y-44985390D01*
X152233285Y-44985390D02*
X152138047Y-44937771D01*
X152138047Y-44937771D02*
X151947571Y-44937771D01*
X151947571Y-44937771D02*
X151852333Y-44985390D01*
X151852333Y-44985390D02*
X151804714Y-45033009D01*
X151804714Y-45033009D02*
X151757095Y-45128247D01*
X153185666Y-44556819D02*
X152995190Y-44556819D01*
X152995190Y-44556819D02*
X152899952Y-44604438D01*
X152899952Y-44604438D02*
X152852333Y-44652057D01*
X152852333Y-44652057D02*
X152757095Y-44794914D01*
X152757095Y-44794914D02*
X152709476Y-44985390D01*
X152709476Y-44985390D02*
X152709476Y-45366342D01*
X152709476Y-45366342D02*
X152757095Y-45461580D01*
X152757095Y-45461580D02*
X152804714Y-45509200D01*
X152804714Y-45509200D02*
X152899952Y-45556819D01*
X152899952Y-45556819D02*
X153090428Y-45556819D01*
X153090428Y-45556819D02*
X153185666Y-45509200D01*
X153185666Y-45509200D02*
X153233285Y-45461580D01*
X153233285Y-45461580D02*
X153280904Y-45366342D01*
X153280904Y-45366342D02*
X153280904Y-45128247D01*
X153280904Y-45128247D02*
X153233285Y-45033009D01*
X153233285Y-45033009D02*
X153185666Y-44985390D01*
X153185666Y-44985390D02*
X153090428Y-44937771D01*
X153090428Y-44937771D02*
X152899952Y-44937771D01*
X152899952Y-44937771D02*
X152804714Y-44985390D01*
X152804714Y-44985390D02*
X152757095Y-45033009D01*
X152757095Y-45033009D02*
X152709476Y-45128247D01*
X150727580Y-27693857D02*
X150775200Y-27741476D01*
X150775200Y-27741476D02*
X150822819Y-27884333D01*
X150822819Y-27884333D02*
X150822819Y-27979571D01*
X150822819Y-27979571D02*
X150775200Y-28122428D01*
X150775200Y-28122428D02*
X150679961Y-28217666D01*
X150679961Y-28217666D02*
X150584723Y-28265285D01*
X150584723Y-28265285D02*
X150394247Y-28312904D01*
X150394247Y-28312904D02*
X150251390Y-28312904D01*
X150251390Y-28312904D02*
X150060914Y-28265285D01*
X150060914Y-28265285D02*
X149965676Y-28217666D01*
X149965676Y-28217666D02*
X149870438Y-28122428D01*
X149870438Y-28122428D02*
X149822819Y-27979571D01*
X149822819Y-27979571D02*
X149822819Y-27884333D01*
X149822819Y-27884333D02*
X149870438Y-27741476D01*
X149870438Y-27741476D02*
X149918057Y-27693857D01*
X150156152Y-26836714D02*
X150822819Y-26836714D01*
X149775200Y-27074809D02*
X150489485Y-27312904D01*
X150489485Y-27312904D02*
X150489485Y-26693857D01*
X149918057Y-26360523D02*
X149870438Y-26312904D01*
X149870438Y-26312904D02*
X149822819Y-26217666D01*
X149822819Y-26217666D02*
X149822819Y-25979571D01*
X149822819Y-25979571D02*
X149870438Y-25884333D01*
X149870438Y-25884333D02*
X149918057Y-25836714D01*
X149918057Y-25836714D02*
X150013295Y-25789095D01*
X150013295Y-25789095D02*
X150108533Y-25789095D01*
X150108533Y-25789095D02*
X150251390Y-25836714D01*
X150251390Y-25836714D02*
X150822819Y-26408142D01*
X150822819Y-26408142D02*
X150822819Y-25789095D01*
X151884142Y-33887580D02*
X151836523Y-33935200D01*
X151836523Y-33935200D02*
X151693666Y-33982819D01*
X151693666Y-33982819D02*
X151598428Y-33982819D01*
X151598428Y-33982819D02*
X151455571Y-33935200D01*
X151455571Y-33935200D02*
X151360333Y-33839961D01*
X151360333Y-33839961D02*
X151312714Y-33744723D01*
X151312714Y-33744723D02*
X151265095Y-33554247D01*
X151265095Y-33554247D02*
X151265095Y-33411390D01*
X151265095Y-33411390D02*
X151312714Y-33220914D01*
X151312714Y-33220914D02*
X151360333Y-33125676D01*
X151360333Y-33125676D02*
X151455571Y-33030438D01*
X151455571Y-33030438D02*
X151598428Y-32982819D01*
X151598428Y-32982819D02*
X151693666Y-32982819D01*
X151693666Y-32982819D02*
X151836523Y-33030438D01*
X151836523Y-33030438D02*
X151884142Y-33078057D01*
X152741285Y-33316152D02*
X152741285Y-33982819D01*
X152503190Y-32935200D02*
X152265095Y-33649485D01*
X152265095Y-33649485D02*
X152884142Y-33649485D01*
X153741285Y-32982819D02*
X153265095Y-32982819D01*
X153265095Y-32982819D02*
X153217476Y-33459009D01*
X153217476Y-33459009D02*
X153265095Y-33411390D01*
X153265095Y-33411390D02*
X153360333Y-33363771D01*
X153360333Y-33363771D02*
X153598428Y-33363771D01*
X153598428Y-33363771D02*
X153693666Y-33411390D01*
X153693666Y-33411390D02*
X153741285Y-33459009D01*
X153741285Y-33459009D02*
X153788904Y-33554247D01*
X153788904Y-33554247D02*
X153788904Y-33792342D01*
X153788904Y-33792342D02*
X153741285Y-33887580D01*
X153741285Y-33887580D02*
X153693666Y-33935200D01*
X153693666Y-33935200D02*
X153598428Y-33982819D01*
X153598428Y-33982819D02*
X153360333Y-33982819D01*
X153360333Y-33982819D02*
X153265095Y-33935200D01*
X153265095Y-33935200D02*
X153217476Y-33887580D01*
X147901819Y-47759857D02*
X147425628Y-48093190D01*
X147901819Y-48331285D02*
X146901819Y-48331285D01*
X146901819Y-48331285D02*
X146901819Y-47950333D01*
X146901819Y-47950333D02*
X146949438Y-47855095D01*
X146949438Y-47855095D02*
X146997057Y-47807476D01*
X146997057Y-47807476D02*
X147092295Y-47759857D01*
X147092295Y-47759857D02*
X147235152Y-47759857D01*
X147235152Y-47759857D02*
X147330390Y-47807476D01*
X147330390Y-47807476D02*
X147378009Y-47855095D01*
X147378009Y-47855095D02*
X147425628Y-47950333D01*
X147425628Y-47950333D02*
X147425628Y-48331285D01*
X147901819Y-46807476D02*
X147901819Y-47378904D01*
X147901819Y-47093190D02*
X146901819Y-47093190D01*
X146901819Y-47093190D02*
X147044676Y-47188428D01*
X147044676Y-47188428D02*
X147139914Y-47283666D01*
X147139914Y-47283666D02*
X147187533Y-47378904D01*
X146901819Y-46188428D02*
X146901819Y-46093190D01*
X146901819Y-46093190D02*
X146949438Y-45997952D01*
X146949438Y-45997952D02*
X146997057Y-45950333D01*
X146997057Y-45950333D02*
X147092295Y-45902714D01*
X147092295Y-45902714D02*
X147282771Y-45855095D01*
X147282771Y-45855095D02*
X147520866Y-45855095D01*
X147520866Y-45855095D02*
X147711342Y-45902714D01*
X147711342Y-45902714D02*
X147806580Y-45950333D01*
X147806580Y-45950333D02*
X147854200Y-45997952D01*
X147854200Y-45997952D02*
X147901819Y-46093190D01*
X147901819Y-46093190D02*
X147901819Y-46188428D01*
X147901819Y-46188428D02*
X147854200Y-46283666D01*
X147854200Y-46283666D02*
X147806580Y-46331285D01*
X147806580Y-46331285D02*
X147711342Y-46378904D01*
X147711342Y-46378904D02*
X147520866Y-46426523D01*
X147520866Y-46426523D02*
X147282771Y-46426523D01*
X147282771Y-46426523D02*
X147092295Y-46378904D01*
X147092295Y-46378904D02*
X146997057Y-46331285D01*
X146997057Y-46331285D02*
X146949438Y-46283666D01*
X146949438Y-46283666D02*
X146901819Y-46188428D01*
X126761334Y-95955609D02*
X126713715Y-96003229D01*
X126713715Y-96003229D02*
X126570858Y-96050848D01*
X126570858Y-96050848D02*
X126475620Y-96050848D01*
X126475620Y-96050848D02*
X126332763Y-96003229D01*
X126332763Y-96003229D02*
X126237525Y-95907990D01*
X126237525Y-95907990D02*
X126189906Y-95812752D01*
X126189906Y-95812752D02*
X126142287Y-95622276D01*
X126142287Y-95622276D02*
X126142287Y-95479419D01*
X126142287Y-95479419D02*
X126189906Y-95288943D01*
X126189906Y-95288943D02*
X126237525Y-95193705D01*
X126237525Y-95193705D02*
X126332763Y-95098467D01*
X126332763Y-95098467D02*
X126475620Y-95050848D01*
X126475620Y-95050848D02*
X126570858Y-95050848D01*
X126570858Y-95050848D02*
X126713715Y-95098467D01*
X126713715Y-95098467D02*
X126761334Y-95146086D01*
X127094668Y-95050848D02*
X127713715Y-95050848D01*
X127713715Y-95050848D02*
X127380382Y-95431800D01*
X127380382Y-95431800D02*
X127523239Y-95431800D01*
X127523239Y-95431800D02*
X127618477Y-95479419D01*
X127618477Y-95479419D02*
X127666096Y-95527038D01*
X127666096Y-95527038D02*
X127713715Y-95622276D01*
X127713715Y-95622276D02*
X127713715Y-95860371D01*
X127713715Y-95860371D02*
X127666096Y-95955609D01*
X127666096Y-95955609D02*
X127618477Y-96003229D01*
X127618477Y-96003229D02*
X127523239Y-96050848D01*
X127523239Y-96050848D02*
X127237525Y-96050848D01*
X127237525Y-96050848D02*
X127142287Y-96003229D01*
X127142287Y-96003229D02*
X127094668Y-95955609D01*
X138757819Y-66809857D02*
X138281628Y-67143190D01*
X138757819Y-67381285D02*
X137757819Y-67381285D01*
X137757819Y-67381285D02*
X137757819Y-67000333D01*
X137757819Y-67000333D02*
X137805438Y-66905095D01*
X137805438Y-66905095D02*
X137853057Y-66857476D01*
X137853057Y-66857476D02*
X137948295Y-66809857D01*
X137948295Y-66809857D02*
X138091152Y-66809857D01*
X138091152Y-66809857D02*
X138186390Y-66857476D01*
X138186390Y-66857476D02*
X138234009Y-66905095D01*
X138234009Y-66905095D02*
X138281628Y-67000333D01*
X138281628Y-67000333D02*
X138281628Y-67381285D01*
X137757819Y-66476523D02*
X137757819Y-65857476D01*
X137757819Y-65857476D02*
X138138771Y-66190809D01*
X138138771Y-66190809D02*
X138138771Y-66047952D01*
X138138771Y-66047952D02*
X138186390Y-65952714D01*
X138186390Y-65952714D02*
X138234009Y-65905095D01*
X138234009Y-65905095D02*
X138329247Y-65857476D01*
X138329247Y-65857476D02*
X138567342Y-65857476D01*
X138567342Y-65857476D02*
X138662580Y-65905095D01*
X138662580Y-65905095D02*
X138710200Y-65952714D01*
X138710200Y-65952714D02*
X138757819Y-66047952D01*
X138757819Y-66047952D02*
X138757819Y-66333666D01*
X138757819Y-66333666D02*
X138710200Y-66428904D01*
X138710200Y-66428904D02*
X138662580Y-66476523D01*
X138757819Y-64905095D02*
X138757819Y-65476523D01*
X138757819Y-65190809D02*
X137757819Y-65190809D01*
X137757819Y-65190809D02*
X137900676Y-65286047D01*
X137900676Y-65286047D02*
X137995914Y-65381285D01*
X137995914Y-65381285D02*
X138043533Y-65476523D01*
X147806580Y-69222857D02*
X147854200Y-69270476D01*
X147854200Y-69270476D02*
X147901819Y-69413333D01*
X147901819Y-69413333D02*
X147901819Y-69508571D01*
X147901819Y-69508571D02*
X147854200Y-69651428D01*
X147854200Y-69651428D02*
X147758961Y-69746666D01*
X147758961Y-69746666D02*
X147663723Y-69794285D01*
X147663723Y-69794285D02*
X147473247Y-69841904D01*
X147473247Y-69841904D02*
X147330390Y-69841904D01*
X147330390Y-69841904D02*
X147139914Y-69794285D01*
X147139914Y-69794285D02*
X147044676Y-69746666D01*
X147044676Y-69746666D02*
X146949438Y-69651428D01*
X146949438Y-69651428D02*
X146901819Y-69508571D01*
X146901819Y-69508571D02*
X146901819Y-69413333D01*
X146901819Y-69413333D02*
X146949438Y-69270476D01*
X146949438Y-69270476D02*
X146997057Y-69222857D01*
X146901819Y-68318095D02*
X146901819Y-68794285D01*
X146901819Y-68794285D02*
X147378009Y-68841904D01*
X147378009Y-68841904D02*
X147330390Y-68794285D01*
X147330390Y-68794285D02*
X147282771Y-68699047D01*
X147282771Y-68699047D02*
X147282771Y-68460952D01*
X147282771Y-68460952D02*
X147330390Y-68365714D01*
X147330390Y-68365714D02*
X147378009Y-68318095D01*
X147378009Y-68318095D02*
X147473247Y-68270476D01*
X147473247Y-68270476D02*
X147711342Y-68270476D01*
X147711342Y-68270476D02*
X147806580Y-68318095D01*
X147806580Y-68318095D02*
X147854200Y-68365714D01*
X147854200Y-68365714D02*
X147901819Y-68460952D01*
X147901819Y-68460952D02*
X147901819Y-68699047D01*
X147901819Y-68699047D02*
X147854200Y-68794285D01*
X147854200Y-68794285D02*
X147806580Y-68841904D01*
X146901819Y-67651428D02*
X146901819Y-67556190D01*
X146901819Y-67556190D02*
X146949438Y-67460952D01*
X146949438Y-67460952D02*
X146997057Y-67413333D01*
X146997057Y-67413333D02*
X147092295Y-67365714D01*
X147092295Y-67365714D02*
X147282771Y-67318095D01*
X147282771Y-67318095D02*
X147520866Y-67318095D01*
X147520866Y-67318095D02*
X147711342Y-67365714D01*
X147711342Y-67365714D02*
X147806580Y-67413333D01*
X147806580Y-67413333D02*
X147854200Y-67460952D01*
X147854200Y-67460952D02*
X147901819Y-67556190D01*
X147901819Y-67556190D02*
X147901819Y-67651428D01*
X147901819Y-67651428D02*
X147854200Y-67746666D01*
X147854200Y-67746666D02*
X147806580Y-67794285D01*
X147806580Y-67794285D02*
X147711342Y-67841904D01*
X147711342Y-67841904D02*
X147520866Y-67889523D01*
X147520866Y-67889523D02*
X147282771Y-67889523D01*
X147282771Y-67889523D02*
X147092295Y-67841904D01*
X147092295Y-67841904D02*
X146997057Y-67794285D01*
X146997057Y-67794285D02*
X146949438Y-67746666D01*
X146949438Y-67746666D02*
X146901819Y-67651428D01*
X132349543Y-66272580D02*
X132301924Y-66320200D01*
X132301924Y-66320200D02*
X132159067Y-66367819D01*
X132159067Y-66367819D02*
X132063829Y-66367819D01*
X132063829Y-66367819D02*
X131920972Y-66320200D01*
X131920972Y-66320200D02*
X131825734Y-66224961D01*
X131825734Y-66224961D02*
X131778115Y-66129723D01*
X131778115Y-66129723D02*
X131730496Y-65939247D01*
X131730496Y-65939247D02*
X131730496Y-65796390D01*
X131730496Y-65796390D02*
X131778115Y-65605914D01*
X131778115Y-65605914D02*
X131825734Y-65510676D01*
X131825734Y-65510676D02*
X131920972Y-65415438D01*
X131920972Y-65415438D02*
X132063829Y-65367819D01*
X132063829Y-65367819D02*
X132159067Y-65367819D01*
X132159067Y-65367819D02*
X132301924Y-65415438D01*
X132301924Y-65415438D02*
X132349543Y-65463057D01*
X133206686Y-65701152D02*
X133206686Y-66367819D01*
X132968591Y-65320200D02*
X132730496Y-66034485D01*
X132730496Y-66034485D02*
X133349543Y-66034485D01*
X133778115Y-66367819D02*
X133968591Y-66367819D01*
X133968591Y-66367819D02*
X134063829Y-66320200D01*
X134063829Y-66320200D02*
X134111448Y-66272580D01*
X134111448Y-66272580D02*
X134206686Y-66129723D01*
X134206686Y-66129723D02*
X134254305Y-65939247D01*
X134254305Y-65939247D02*
X134254305Y-65558295D01*
X134254305Y-65558295D02*
X134206686Y-65463057D01*
X134206686Y-65463057D02*
X134159067Y-65415438D01*
X134159067Y-65415438D02*
X134063829Y-65367819D01*
X134063829Y-65367819D02*
X133873353Y-65367819D01*
X133873353Y-65367819D02*
X133778115Y-65415438D01*
X133778115Y-65415438D02*
X133730496Y-65463057D01*
X133730496Y-65463057D02*
X133682877Y-65558295D01*
X133682877Y-65558295D02*
X133682877Y-65796390D01*
X133682877Y-65796390D02*
X133730496Y-65891628D01*
X133730496Y-65891628D02*
X133778115Y-65939247D01*
X133778115Y-65939247D02*
X133873353Y-65986866D01*
X133873353Y-65986866D02*
X134063829Y-65986866D01*
X134063829Y-65986866D02*
X134159067Y-65939247D01*
X134159067Y-65939247D02*
X134206686Y-65891628D01*
X134206686Y-65891628D02*
X134254305Y-65796390D01*
X118934534Y-97609819D02*
X118601201Y-97133628D01*
X118363106Y-97609819D02*
X118363106Y-96609819D01*
X118363106Y-96609819D02*
X118744058Y-96609819D01*
X118744058Y-96609819D02*
X118839296Y-96657438D01*
X118839296Y-96657438D02*
X118886915Y-96705057D01*
X118886915Y-96705057D02*
X118934534Y-96800295D01*
X118934534Y-96800295D02*
X118934534Y-96943152D01*
X118934534Y-96943152D02*
X118886915Y-97038390D01*
X118886915Y-97038390D02*
X118839296Y-97086009D01*
X118839296Y-97086009D02*
X118744058Y-97133628D01*
X118744058Y-97133628D02*
X118363106Y-97133628D01*
X119267868Y-96609819D02*
X119886915Y-96609819D01*
X119886915Y-96609819D02*
X119553582Y-96990771D01*
X119553582Y-96990771D02*
X119696439Y-96990771D01*
X119696439Y-96990771D02*
X119791677Y-97038390D01*
X119791677Y-97038390D02*
X119839296Y-97086009D01*
X119839296Y-97086009D02*
X119886915Y-97181247D01*
X119886915Y-97181247D02*
X119886915Y-97419342D01*
X119886915Y-97419342D02*
X119839296Y-97514580D01*
X119839296Y-97514580D02*
X119791677Y-97562200D01*
X119791677Y-97562200D02*
X119696439Y-97609819D01*
X119696439Y-97609819D02*
X119410725Y-97609819D01*
X119410725Y-97609819D02*
X119315487Y-97562200D01*
X119315487Y-97562200D02*
X119267868Y-97514580D01*
X121156096Y-99521248D02*
X121156096Y-100330771D01*
X121156096Y-100330771D02*
X121203715Y-100426009D01*
X121203715Y-100426009D02*
X121251334Y-100473629D01*
X121251334Y-100473629D02*
X121346572Y-100521248D01*
X121346572Y-100521248D02*
X121537048Y-100521248D01*
X121537048Y-100521248D02*
X121632286Y-100473629D01*
X121632286Y-100473629D02*
X121679905Y-100426009D01*
X121679905Y-100426009D02*
X121727524Y-100330771D01*
X121727524Y-100330771D02*
X121727524Y-99521248D01*
X122727524Y-100521248D02*
X122156096Y-100521248D01*
X122441810Y-100521248D02*
X122441810Y-99521248D01*
X122441810Y-99521248D02*
X122346572Y-99664105D01*
X122346572Y-99664105D02*
X122251334Y-99759343D01*
X122251334Y-99759343D02*
X122156096Y-99806962D01*
X134397761Y-56176057D02*
X134302523Y-56128438D01*
X134302523Y-56128438D02*
X134207285Y-56033200D01*
X134207285Y-56033200D02*
X134064428Y-55890342D01*
X134064428Y-55890342D02*
X133969190Y-55842723D01*
X133969190Y-55842723D02*
X133873952Y-55842723D01*
X133921571Y-56080819D02*
X133826333Y-56033200D01*
X133826333Y-56033200D02*
X133731095Y-55937961D01*
X133731095Y-55937961D02*
X133683476Y-55747485D01*
X133683476Y-55747485D02*
X133683476Y-55414152D01*
X133683476Y-55414152D02*
X133731095Y-55223676D01*
X133731095Y-55223676D02*
X133826333Y-55128438D01*
X133826333Y-55128438D02*
X133921571Y-55080819D01*
X133921571Y-55080819D02*
X134112047Y-55080819D01*
X134112047Y-55080819D02*
X134207285Y-55128438D01*
X134207285Y-55128438D02*
X134302523Y-55223676D01*
X134302523Y-55223676D02*
X134350142Y-55414152D01*
X134350142Y-55414152D02*
X134350142Y-55747485D01*
X134350142Y-55747485D02*
X134302523Y-55937961D01*
X134302523Y-55937961D02*
X134207285Y-56033200D01*
X134207285Y-56033200D02*
X134112047Y-56080819D01*
X134112047Y-56080819D02*
X133921571Y-56080819D01*
X135302523Y-56080819D02*
X134731095Y-56080819D01*
X135016809Y-56080819D02*
X135016809Y-55080819D01*
X135016809Y-55080819D02*
X134921571Y-55223676D01*
X134921571Y-55223676D02*
X134826333Y-55318914D01*
X134826333Y-55318914D02*
X134731095Y-55366533D01*
X133820819Y-59816999D02*
X134058914Y-59816999D01*
X133963676Y-60055094D02*
X134058914Y-59816999D01*
X134058914Y-59816999D02*
X133963676Y-59578904D01*
X134249390Y-59959856D02*
X134058914Y-59816999D01*
X134058914Y-59816999D02*
X134249390Y-59674142D01*
X134911180Y-59817000D02*
X134673085Y-59817000D01*
X134768323Y-59578905D02*
X134673085Y-59817000D01*
X134673085Y-59817000D02*
X134768323Y-60055095D01*
X134482609Y-59674143D02*
X134673085Y-59817000D01*
X134673085Y-59817000D02*
X134482609Y-59959857D01*
X151249142Y-99165580D02*
X151201523Y-99213200D01*
X151201523Y-99213200D02*
X151058666Y-99260819D01*
X151058666Y-99260819D02*
X150963428Y-99260819D01*
X150963428Y-99260819D02*
X150820571Y-99213200D01*
X150820571Y-99213200D02*
X150725333Y-99117961D01*
X150725333Y-99117961D02*
X150677714Y-99022723D01*
X150677714Y-99022723D02*
X150630095Y-98832247D01*
X150630095Y-98832247D02*
X150630095Y-98689390D01*
X150630095Y-98689390D02*
X150677714Y-98498914D01*
X150677714Y-98498914D02*
X150725333Y-98403676D01*
X150725333Y-98403676D02*
X150820571Y-98308438D01*
X150820571Y-98308438D02*
X150963428Y-98260819D01*
X150963428Y-98260819D02*
X151058666Y-98260819D01*
X151058666Y-98260819D02*
X151201523Y-98308438D01*
X151201523Y-98308438D02*
X151249142Y-98356057D01*
X151630095Y-98356057D02*
X151677714Y-98308438D01*
X151677714Y-98308438D02*
X151772952Y-98260819D01*
X151772952Y-98260819D02*
X152011047Y-98260819D01*
X152011047Y-98260819D02*
X152106285Y-98308438D01*
X152106285Y-98308438D02*
X152153904Y-98356057D01*
X152153904Y-98356057D02*
X152201523Y-98451295D01*
X152201523Y-98451295D02*
X152201523Y-98546533D01*
X152201523Y-98546533D02*
X152153904Y-98689390D01*
X152153904Y-98689390D02*
X151582476Y-99260819D01*
X151582476Y-99260819D02*
X152201523Y-99260819D01*
X152582476Y-98356057D02*
X152630095Y-98308438D01*
X152630095Y-98308438D02*
X152725333Y-98260819D01*
X152725333Y-98260819D02*
X152963428Y-98260819D01*
X152963428Y-98260819D02*
X153058666Y-98308438D01*
X153058666Y-98308438D02*
X153106285Y-98356057D01*
X153106285Y-98356057D02*
X153153904Y-98451295D01*
X153153904Y-98451295D02*
X153153904Y-98546533D01*
X153153904Y-98546533D02*
X153106285Y-98689390D01*
X153106285Y-98689390D02*
X152534857Y-99260819D01*
X152534857Y-99260819D02*
X153153904Y-99260819D01*
X132961142Y-94847580D02*
X132913523Y-94895200D01*
X132913523Y-94895200D02*
X132770666Y-94942819D01*
X132770666Y-94942819D02*
X132675428Y-94942819D01*
X132675428Y-94942819D02*
X132532571Y-94895200D01*
X132532571Y-94895200D02*
X132437333Y-94799961D01*
X132437333Y-94799961D02*
X132389714Y-94704723D01*
X132389714Y-94704723D02*
X132342095Y-94514247D01*
X132342095Y-94514247D02*
X132342095Y-94371390D01*
X132342095Y-94371390D02*
X132389714Y-94180914D01*
X132389714Y-94180914D02*
X132437333Y-94085676D01*
X132437333Y-94085676D02*
X132532571Y-93990438D01*
X132532571Y-93990438D02*
X132675428Y-93942819D01*
X132675428Y-93942819D02*
X132770666Y-93942819D01*
X132770666Y-93942819D02*
X132913523Y-93990438D01*
X132913523Y-93990438D02*
X132961142Y-94038057D01*
X133818285Y-94276152D02*
X133818285Y-94942819D01*
X133580190Y-93895200D02*
X133342095Y-94609485D01*
X133342095Y-94609485D02*
X133961142Y-94609485D01*
X134484952Y-94371390D02*
X134389714Y-94323771D01*
X134389714Y-94323771D02*
X134342095Y-94276152D01*
X134342095Y-94276152D02*
X134294476Y-94180914D01*
X134294476Y-94180914D02*
X134294476Y-94133295D01*
X134294476Y-94133295D02*
X134342095Y-94038057D01*
X134342095Y-94038057D02*
X134389714Y-93990438D01*
X134389714Y-93990438D02*
X134484952Y-93942819D01*
X134484952Y-93942819D02*
X134675428Y-93942819D01*
X134675428Y-93942819D02*
X134770666Y-93990438D01*
X134770666Y-93990438D02*
X134818285Y-94038057D01*
X134818285Y-94038057D02*
X134865904Y-94133295D01*
X134865904Y-94133295D02*
X134865904Y-94180914D01*
X134865904Y-94180914D02*
X134818285Y-94276152D01*
X134818285Y-94276152D02*
X134770666Y-94323771D01*
X134770666Y-94323771D02*
X134675428Y-94371390D01*
X134675428Y-94371390D02*
X134484952Y-94371390D01*
X134484952Y-94371390D02*
X134389714Y-94419009D01*
X134389714Y-94419009D02*
X134342095Y-94466628D01*
X134342095Y-94466628D02*
X134294476Y-94561866D01*
X134294476Y-94561866D02*
X134294476Y-94752342D01*
X134294476Y-94752342D02*
X134342095Y-94847580D01*
X134342095Y-94847580D02*
X134389714Y-94895200D01*
X134389714Y-94895200D02*
X134484952Y-94942819D01*
X134484952Y-94942819D02*
X134675428Y-94942819D01*
X134675428Y-94942819D02*
X134770666Y-94895200D01*
X134770666Y-94895200D02*
X134818285Y-94847580D01*
X134818285Y-94847580D02*
X134865904Y-94752342D01*
X134865904Y-94752342D02*
X134865904Y-94561866D01*
X134865904Y-94561866D02*
X134818285Y-94466628D01*
X134818285Y-94466628D02*
X134770666Y-94419009D01*
X134770666Y-94419009D02*
X134675428Y-94371390D01*
X130700767Y-118580648D02*
X130700767Y-119294933D01*
X130700767Y-119294933D02*
X130653148Y-119437790D01*
X130653148Y-119437790D02*
X130557910Y-119533029D01*
X130557910Y-119533029D02*
X130415053Y-119580648D01*
X130415053Y-119580648D02*
X130319815Y-119580648D01*
X131700767Y-119580648D02*
X131129339Y-119580648D01*
X131415053Y-119580648D02*
X131415053Y-118580648D01*
X131415053Y-118580648D02*
X131319815Y-118723505D01*
X131319815Y-118723505D02*
X131224577Y-118818743D01*
X131224577Y-118818743D02*
X131129339Y-118866362D01*
X141851142Y-112822819D02*
X141517809Y-112346628D01*
X141279714Y-112822819D02*
X141279714Y-111822819D01*
X141279714Y-111822819D02*
X141660666Y-111822819D01*
X141660666Y-111822819D02*
X141755904Y-111870438D01*
X141755904Y-111870438D02*
X141803523Y-111918057D01*
X141803523Y-111918057D02*
X141851142Y-112013295D01*
X141851142Y-112013295D02*
X141851142Y-112156152D01*
X141851142Y-112156152D02*
X141803523Y-112251390D01*
X141803523Y-112251390D02*
X141755904Y-112299009D01*
X141755904Y-112299009D02*
X141660666Y-112346628D01*
X141660666Y-112346628D02*
X141279714Y-112346628D01*
X142803523Y-112822819D02*
X142232095Y-112822819D01*
X142517809Y-112822819D02*
X142517809Y-111822819D01*
X142517809Y-111822819D02*
X142422571Y-111965676D01*
X142422571Y-111965676D02*
X142327333Y-112060914D01*
X142327333Y-112060914D02*
X142232095Y-112108533D01*
X143136857Y-111822819D02*
X143755904Y-111822819D01*
X143755904Y-111822819D02*
X143422571Y-112203771D01*
X143422571Y-112203771D02*
X143565428Y-112203771D01*
X143565428Y-112203771D02*
X143660666Y-112251390D01*
X143660666Y-112251390D02*
X143708285Y-112299009D01*
X143708285Y-112299009D02*
X143755904Y-112394247D01*
X143755904Y-112394247D02*
X143755904Y-112632342D01*
X143755904Y-112632342D02*
X143708285Y-112727580D01*
X143708285Y-112727580D02*
X143660666Y-112775200D01*
X143660666Y-112775200D02*
X143565428Y-112822819D01*
X143565428Y-112822819D02*
X143279714Y-112822819D01*
X143279714Y-112822819D02*
X143184476Y-112775200D01*
X143184476Y-112775200D02*
X143136857Y-112727580D01*
X127920761Y-49064057D02*
X127825523Y-49016438D01*
X127825523Y-49016438D02*
X127730285Y-48921200D01*
X127730285Y-48921200D02*
X127587428Y-48778342D01*
X127587428Y-48778342D02*
X127492190Y-48730723D01*
X127492190Y-48730723D02*
X127396952Y-48730723D01*
X127444571Y-48968819D02*
X127349333Y-48921200D01*
X127349333Y-48921200D02*
X127254095Y-48825961D01*
X127254095Y-48825961D02*
X127206476Y-48635485D01*
X127206476Y-48635485D02*
X127206476Y-48302152D01*
X127206476Y-48302152D02*
X127254095Y-48111676D01*
X127254095Y-48111676D02*
X127349333Y-48016438D01*
X127349333Y-48016438D02*
X127444571Y-47968819D01*
X127444571Y-47968819D02*
X127635047Y-47968819D01*
X127635047Y-47968819D02*
X127730285Y-48016438D01*
X127730285Y-48016438D02*
X127825523Y-48111676D01*
X127825523Y-48111676D02*
X127873142Y-48302152D01*
X127873142Y-48302152D02*
X127873142Y-48635485D01*
X127873142Y-48635485D02*
X127825523Y-48825961D01*
X127825523Y-48825961D02*
X127730285Y-48921200D01*
X127730285Y-48921200D02*
X127635047Y-48968819D01*
X127635047Y-48968819D02*
X127444571Y-48968819D01*
X128206476Y-47968819D02*
X128873142Y-47968819D01*
X128873142Y-47968819D02*
X128444571Y-48968819D01*
X127216819Y-52704999D02*
X127454914Y-52704999D01*
X127359676Y-52943094D02*
X127454914Y-52704999D01*
X127454914Y-52704999D02*
X127359676Y-52466904D01*
X127645390Y-52847856D02*
X127454914Y-52704999D01*
X127454914Y-52704999D02*
X127645390Y-52562142D01*
X128307180Y-52705000D02*
X128069085Y-52705000D01*
X128164323Y-52466905D02*
X128069085Y-52705000D01*
X128069085Y-52705000D02*
X128164323Y-52943095D01*
X127878609Y-52562143D02*
X128069085Y-52705000D01*
X128069085Y-52705000D02*
X127878609Y-52847857D01*
X144472819Y-45505666D02*
X143996628Y-45838999D01*
X144472819Y-46077094D02*
X143472819Y-46077094D01*
X143472819Y-46077094D02*
X143472819Y-45696142D01*
X143472819Y-45696142D02*
X143520438Y-45600904D01*
X143520438Y-45600904D02*
X143568057Y-45553285D01*
X143568057Y-45553285D02*
X143663295Y-45505666D01*
X143663295Y-45505666D02*
X143806152Y-45505666D01*
X143806152Y-45505666D02*
X143901390Y-45553285D01*
X143901390Y-45553285D02*
X143949009Y-45600904D01*
X143949009Y-45600904D02*
X143996628Y-45696142D01*
X143996628Y-45696142D02*
X143996628Y-46077094D01*
X143472819Y-45172332D02*
X143472819Y-44505666D01*
X143472819Y-44505666D02*
X144472819Y-44934237D01*
X127920761Y-56176057D02*
X127825523Y-56128438D01*
X127825523Y-56128438D02*
X127730285Y-56033200D01*
X127730285Y-56033200D02*
X127587428Y-55890342D01*
X127587428Y-55890342D02*
X127492190Y-55842723D01*
X127492190Y-55842723D02*
X127396952Y-55842723D01*
X127444571Y-56080819D02*
X127349333Y-56033200D01*
X127349333Y-56033200D02*
X127254095Y-55937961D01*
X127254095Y-55937961D02*
X127206476Y-55747485D01*
X127206476Y-55747485D02*
X127206476Y-55414152D01*
X127206476Y-55414152D02*
X127254095Y-55223676D01*
X127254095Y-55223676D02*
X127349333Y-55128438D01*
X127349333Y-55128438D02*
X127444571Y-55080819D01*
X127444571Y-55080819D02*
X127635047Y-55080819D01*
X127635047Y-55080819D02*
X127730285Y-55128438D01*
X127730285Y-55128438D02*
X127825523Y-55223676D01*
X127825523Y-55223676D02*
X127873142Y-55414152D01*
X127873142Y-55414152D02*
X127873142Y-55747485D01*
X127873142Y-55747485D02*
X127825523Y-55937961D01*
X127825523Y-55937961D02*
X127730285Y-56033200D01*
X127730285Y-56033200D02*
X127635047Y-56080819D01*
X127635047Y-56080819D02*
X127444571Y-56080819D01*
X128777904Y-55080819D02*
X128301714Y-55080819D01*
X128301714Y-55080819D02*
X128254095Y-55557009D01*
X128254095Y-55557009D02*
X128301714Y-55509390D01*
X128301714Y-55509390D02*
X128396952Y-55461771D01*
X128396952Y-55461771D02*
X128635047Y-55461771D01*
X128635047Y-55461771D02*
X128730285Y-55509390D01*
X128730285Y-55509390D02*
X128777904Y-55557009D01*
X128777904Y-55557009D02*
X128825523Y-55652247D01*
X128825523Y-55652247D02*
X128825523Y-55890342D01*
X128825523Y-55890342D02*
X128777904Y-55985580D01*
X128777904Y-55985580D02*
X128730285Y-56033200D01*
X128730285Y-56033200D02*
X128635047Y-56080819D01*
X128635047Y-56080819D02*
X128396952Y-56080819D01*
X128396952Y-56080819D02*
X128301714Y-56033200D01*
X128301714Y-56033200D02*
X128254095Y-55985580D01*
X127216819Y-59816999D02*
X127454914Y-59816999D01*
X127359676Y-60055094D02*
X127454914Y-59816999D01*
X127454914Y-59816999D02*
X127359676Y-59578904D01*
X127645390Y-59959856D02*
X127454914Y-59816999D01*
X127454914Y-59816999D02*
X127645390Y-59674142D01*
X128307180Y-59817000D02*
X128069085Y-59817000D01*
X128164323Y-59578905D02*
X128069085Y-59817000D01*
X128069085Y-59817000D02*
X128164323Y-60055095D01*
X127878609Y-59674143D02*
X128069085Y-59817000D01*
X128069085Y-59817000D02*
X127878609Y-59959857D01*
X150295610Y-109519257D02*
X150295610Y-109995448D01*
X149962277Y-108995448D02*
X150295610Y-109519257D01*
X150295610Y-109519257D02*
X150628943Y-108995448D01*
X150914658Y-109090686D02*
X150962277Y-109043067D01*
X150962277Y-109043067D02*
X151057515Y-108995448D01*
X151057515Y-108995448D02*
X151295610Y-108995448D01*
X151295610Y-108995448D02*
X151390848Y-109043067D01*
X151390848Y-109043067D02*
X151438467Y-109090686D01*
X151438467Y-109090686D02*
X151486086Y-109185924D01*
X151486086Y-109185924D02*
X151486086Y-109281162D01*
X151486086Y-109281162D02*
X151438467Y-109424019D01*
X151438467Y-109424019D02*
X150867039Y-109995448D01*
X150867039Y-109995448D02*
X151486086Y-109995448D01*
X139805580Y-115083457D02*
X139853200Y-115131076D01*
X139853200Y-115131076D02*
X139900819Y-115273933D01*
X139900819Y-115273933D02*
X139900819Y-115369171D01*
X139900819Y-115369171D02*
X139853200Y-115512028D01*
X139853200Y-115512028D02*
X139757961Y-115607266D01*
X139757961Y-115607266D02*
X139662723Y-115654885D01*
X139662723Y-115654885D02*
X139472247Y-115702504D01*
X139472247Y-115702504D02*
X139329390Y-115702504D01*
X139329390Y-115702504D02*
X139138914Y-115654885D01*
X139138914Y-115654885D02*
X139043676Y-115607266D01*
X139043676Y-115607266D02*
X138948438Y-115512028D01*
X138948438Y-115512028D02*
X138900819Y-115369171D01*
X138900819Y-115369171D02*
X138900819Y-115273933D01*
X138900819Y-115273933D02*
X138948438Y-115131076D01*
X138948438Y-115131076D02*
X138996057Y-115083457D01*
X138900819Y-114750123D02*
X138900819Y-114131076D01*
X138900819Y-114131076D02*
X139281771Y-114464409D01*
X139281771Y-114464409D02*
X139281771Y-114321552D01*
X139281771Y-114321552D02*
X139329390Y-114226314D01*
X139329390Y-114226314D02*
X139377009Y-114178695D01*
X139377009Y-114178695D02*
X139472247Y-114131076D01*
X139472247Y-114131076D02*
X139710342Y-114131076D01*
X139710342Y-114131076D02*
X139805580Y-114178695D01*
X139805580Y-114178695D02*
X139853200Y-114226314D01*
X139853200Y-114226314D02*
X139900819Y-114321552D01*
X139900819Y-114321552D02*
X139900819Y-114607266D01*
X139900819Y-114607266D02*
X139853200Y-114702504D01*
X139853200Y-114702504D02*
X139805580Y-114750123D01*
X138900819Y-113512028D02*
X138900819Y-113416790D01*
X138900819Y-113416790D02*
X138948438Y-113321552D01*
X138948438Y-113321552D02*
X138996057Y-113273933D01*
X138996057Y-113273933D02*
X139091295Y-113226314D01*
X139091295Y-113226314D02*
X139281771Y-113178695D01*
X139281771Y-113178695D02*
X139519866Y-113178695D01*
X139519866Y-113178695D02*
X139710342Y-113226314D01*
X139710342Y-113226314D02*
X139805580Y-113273933D01*
X139805580Y-113273933D02*
X139853200Y-113321552D01*
X139853200Y-113321552D02*
X139900819Y-113416790D01*
X139900819Y-113416790D02*
X139900819Y-113512028D01*
X139900819Y-113512028D02*
X139853200Y-113607266D01*
X139853200Y-113607266D02*
X139805580Y-113654885D01*
X139805580Y-113654885D02*
X139710342Y-113702504D01*
X139710342Y-113702504D02*
X139519866Y-113750123D01*
X139519866Y-113750123D02*
X139281771Y-113750123D01*
X139281771Y-113750123D02*
X139091295Y-113702504D01*
X139091295Y-113702504D02*
X138996057Y-113654885D01*
X138996057Y-113654885D02*
X138948438Y-113607266D01*
X138948438Y-113607266D02*
X138900819Y-113512028D01*
X150741142Y-39189819D02*
X150407809Y-38713628D01*
X150169714Y-39189819D02*
X150169714Y-38189819D01*
X150169714Y-38189819D02*
X150550666Y-38189819D01*
X150550666Y-38189819D02*
X150645904Y-38237438D01*
X150645904Y-38237438D02*
X150693523Y-38285057D01*
X150693523Y-38285057D02*
X150741142Y-38380295D01*
X150741142Y-38380295D02*
X150741142Y-38523152D01*
X150741142Y-38523152D02*
X150693523Y-38618390D01*
X150693523Y-38618390D02*
X150645904Y-38666009D01*
X150645904Y-38666009D02*
X150550666Y-38713628D01*
X150550666Y-38713628D02*
X150169714Y-38713628D01*
X151122095Y-38285057D02*
X151169714Y-38237438D01*
X151169714Y-38237438D02*
X151264952Y-38189819D01*
X151264952Y-38189819D02*
X151503047Y-38189819D01*
X151503047Y-38189819D02*
X151598285Y-38237438D01*
X151598285Y-38237438D02*
X151645904Y-38285057D01*
X151645904Y-38285057D02*
X151693523Y-38380295D01*
X151693523Y-38380295D02*
X151693523Y-38475533D01*
X151693523Y-38475533D02*
X151645904Y-38618390D01*
X151645904Y-38618390D02*
X151074476Y-39189819D01*
X151074476Y-39189819D02*
X151693523Y-39189819D01*
X152598285Y-38189819D02*
X152122095Y-38189819D01*
X152122095Y-38189819D02*
X152074476Y-38666009D01*
X152074476Y-38666009D02*
X152122095Y-38618390D01*
X152122095Y-38618390D02*
X152217333Y-38570771D01*
X152217333Y-38570771D02*
X152455428Y-38570771D01*
X152455428Y-38570771D02*
X152550666Y-38618390D01*
X152550666Y-38618390D02*
X152598285Y-38666009D01*
X152598285Y-38666009D02*
X152645904Y-38761247D01*
X152645904Y-38761247D02*
X152645904Y-38999342D01*
X152645904Y-38999342D02*
X152598285Y-39094580D01*
X152598285Y-39094580D02*
X152550666Y-39142200D01*
X152550666Y-39142200D02*
X152455428Y-39189819D01*
X152455428Y-39189819D02*
X152217333Y-39189819D01*
X152217333Y-39189819D02*
X152122095Y-39142200D01*
X152122095Y-39142200D02*
X152074476Y-39094580D01*
X125802580Y-124119257D02*
X125850200Y-124166876D01*
X125850200Y-124166876D02*
X125897819Y-124309733D01*
X125897819Y-124309733D02*
X125897819Y-124404971D01*
X125897819Y-124404971D02*
X125850200Y-124547828D01*
X125850200Y-124547828D02*
X125754961Y-124643066D01*
X125754961Y-124643066D02*
X125659723Y-124690685D01*
X125659723Y-124690685D02*
X125469247Y-124738304D01*
X125469247Y-124738304D02*
X125326390Y-124738304D01*
X125326390Y-124738304D02*
X125135914Y-124690685D01*
X125135914Y-124690685D02*
X125040676Y-124643066D01*
X125040676Y-124643066D02*
X124945438Y-124547828D01*
X124945438Y-124547828D02*
X124897819Y-124404971D01*
X124897819Y-124404971D02*
X124897819Y-124309733D01*
X124897819Y-124309733D02*
X124945438Y-124166876D01*
X124945438Y-124166876D02*
X124993057Y-124119257D01*
X124897819Y-123262114D02*
X124897819Y-123452590D01*
X124897819Y-123452590D02*
X124945438Y-123547828D01*
X124945438Y-123547828D02*
X124993057Y-123595447D01*
X124993057Y-123595447D02*
X125135914Y-123690685D01*
X125135914Y-123690685D02*
X125326390Y-123738304D01*
X125326390Y-123738304D02*
X125707342Y-123738304D01*
X125707342Y-123738304D02*
X125802580Y-123690685D01*
X125802580Y-123690685D02*
X125850200Y-123643066D01*
X125850200Y-123643066D02*
X125897819Y-123547828D01*
X125897819Y-123547828D02*
X125897819Y-123357352D01*
X125897819Y-123357352D02*
X125850200Y-123262114D01*
X125850200Y-123262114D02*
X125802580Y-123214495D01*
X125802580Y-123214495D02*
X125707342Y-123166876D01*
X125707342Y-123166876D02*
X125469247Y-123166876D01*
X125469247Y-123166876D02*
X125374009Y-123214495D01*
X125374009Y-123214495D02*
X125326390Y-123262114D01*
X125326390Y-123262114D02*
X125278771Y-123357352D01*
X125278771Y-123357352D02*
X125278771Y-123547828D01*
X125278771Y-123547828D02*
X125326390Y-123643066D01*
X125326390Y-123643066D02*
X125374009Y-123690685D01*
X125374009Y-123690685D02*
X125469247Y-123738304D01*
X124993057Y-122785923D02*
X124945438Y-122738304D01*
X124945438Y-122738304D02*
X124897819Y-122643066D01*
X124897819Y-122643066D02*
X124897819Y-122404971D01*
X124897819Y-122404971D02*
X124945438Y-122309733D01*
X124945438Y-122309733D02*
X124993057Y-122262114D01*
X124993057Y-122262114D02*
X125088295Y-122214495D01*
X125088295Y-122214495D02*
X125183533Y-122214495D01*
X125183533Y-122214495D02*
X125326390Y-122262114D01*
X125326390Y-122262114D02*
X125897819Y-122833542D01*
X125897819Y-122833542D02*
X125897819Y-122214495D01*
X132123543Y-105134580D02*
X132075924Y-105182200D01*
X132075924Y-105182200D02*
X131933067Y-105229819D01*
X131933067Y-105229819D02*
X131837829Y-105229819D01*
X131837829Y-105229819D02*
X131694972Y-105182200D01*
X131694972Y-105182200D02*
X131599734Y-105086961D01*
X131599734Y-105086961D02*
X131552115Y-104991723D01*
X131552115Y-104991723D02*
X131504496Y-104801247D01*
X131504496Y-104801247D02*
X131504496Y-104658390D01*
X131504496Y-104658390D02*
X131552115Y-104467914D01*
X131552115Y-104467914D02*
X131599734Y-104372676D01*
X131599734Y-104372676D02*
X131694972Y-104277438D01*
X131694972Y-104277438D02*
X131837829Y-104229819D01*
X131837829Y-104229819D02*
X131933067Y-104229819D01*
X131933067Y-104229819D02*
X132075924Y-104277438D01*
X132075924Y-104277438D02*
X132123543Y-104325057D01*
X132456877Y-104229819D02*
X133075924Y-104229819D01*
X133075924Y-104229819D02*
X132742591Y-104610771D01*
X132742591Y-104610771D02*
X132885448Y-104610771D01*
X132885448Y-104610771D02*
X132980686Y-104658390D01*
X132980686Y-104658390D02*
X133028305Y-104706009D01*
X133028305Y-104706009D02*
X133075924Y-104801247D01*
X133075924Y-104801247D02*
X133075924Y-105039342D01*
X133075924Y-105039342D02*
X133028305Y-105134580D01*
X133028305Y-105134580D02*
X132980686Y-105182200D01*
X132980686Y-105182200D02*
X132885448Y-105229819D01*
X132885448Y-105229819D02*
X132599734Y-105229819D01*
X132599734Y-105229819D02*
X132504496Y-105182200D01*
X132504496Y-105182200D02*
X132456877Y-105134580D01*
X134028305Y-105229819D02*
X133456877Y-105229819D01*
X133742591Y-105229819D02*
X133742591Y-104229819D01*
X133742591Y-104229819D02*
X133647353Y-104372676D01*
X133647353Y-104372676D02*
X133552115Y-104467914D01*
X133552115Y-104467914D02*
X133456877Y-104515533D01*
X125930819Y-94400666D02*
X125454628Y-94733999D01*
X125930819Y-94972094D02*
X124930819Y-94972094D01*
X124930819Y-94972094D02*
X124930819Y-94591142D01*
X124930819Y-94591142D02*
X124978438Y-94495904D01*
X124978438Y-94495904D02*
X125026057Y-94448285D01*
X125026057Y-94448285D02*
X125121295Y-94400666D01*
X125121295Y-94400666D02*
X125264152Y-94400666D01*
X125264152Y-94400666D02*
X125359390Y-94448285D01*
X125359390Y-94448285D02*
X125407009Y-94495904D01*
X125407009Y-94495904D02*
X125454628Y-94591142D01*
X125454628Y-94591142D02*
X125454628Y-94972094D01*
X125026057Y-94019713D02*
X124978438Y-93972094D01*
X124978438Y-93972094D02*
X124930819Y-93876856D01*
X124930819Y-93876856D02*
X124930819Y-93638761D01*
X124930819Y-93638761D02*
X124978438Y-93543523D01*
X124978438Y-93543523D02*
X125026057Y-93495904D01*
X125026057Y-93495904D02*
X125121295Y-93448285D01*
X125121295Y-93448285D02*
X125216533Y-93448285D01*
X125216533Y-93448285D02*
X125359390Y-93495904D01*
X125359390Y-93495904D02*
X125930819Y-94067332D01*
X125930819Y-94067332D02*
X125930819Y-93448285D01*
X126992542Y-117732980D02*
X126944923Y-117780600D01*
X126944923Y-117780600D02*
X126802066Y-117828219D01*
X126802066Y-117828219D02*
X126706828Y-117828219D01*
X126706828Y-117828219D02*
X126563971Y-117780600D01*
X126563971Y-117780600D02*
X126468733Y-117685361D01*
X126468733Y-117685361D02*
X126421114Y-117590123D01*
X126421114Y-117590123D02*
X126373495Y-117399647D01*
X126373495Y-117399647D02*
X126373495Y-117256790D01*
X126373495Y-117256790D02*
X126421114Y-117066314D01*
X126421114Y-117066314D02*
X126468733Y-116971076D01*
X126468733Y-116971076D02*
X126563971Y-116875838D01*
X126563971Y-116875838D02*
X126706828Y-116828219D01*
X126706828Y-116828219D02*
X126802066Y-116828219D01*
X126802066Y-116828219D02*
X126944923Y-116875838D01*
X126944923Y-116875838D02*
X126992542Y-116923457D01*
X127944923Y-117828219D02*
X127373495Y-117828219D01*
X127659209Y-117828219D02*
X127659209Y-116828219D01*
X127659209Y-116828219D02*
X127563971Y-116971076D01*
X127563971Y-116971076D02*
X127468733Y-117066314D01*
X127468733Y-117066314D02*
X127373495Y-117113933D01*
X128849685Y-116828219D02*
X128373495Y-116828219D01*
X128373495Y-116828219D02*
X128325876Y-117304409D01*
X128325876Y-117304409D02*
X128373495Y-117256790D01*
X128373495Y-117256790D02*
X128468733Y-117209171D01*
X128468733Y-117209171D02*
X128706828Y-117209171D01*
X128706828Y-117209171D02*
X128802066Y-117256790D01*
X128802066Y-117256790D02*
X128849685Y-117304409D01*
X128849685Y-117304409D02*
X128897304Y-117399647D01*
X128897304Y-117399647D02*
X128897304Y-117637742D01*
X128897304Y-117637742D02*
X128849685Y-117732980D01*
X128849685Y-117732980D02*
X128802066Y-117780600D01*
X128802066Y-117780600D02*
X128706828Y-117828219D01*
X128706828Y-117828219D02*
X128468733Y-117828219D01*
X128468733Y-117828219D02*
X128373495Y-117780600D01*
X128373495Y-117780600D02*
X128325876Y-117732980D01*
X115474809Y-115294628D02*
X115474809Y-115770819D01*
X115141476Y-114770819D02*
X115474809Y-115294628D01*
X115474809Y-115294628D02*
X115808142Y-114770819D01*
X116665285Y-115770819D02*
X116093857Y-115770819D01*
X116379571Y-115770819D02*
X116379571Y-114770819D01*
X116379571Y-114770819D02*
X116284333Y-114913676D01*
X116284333Y-114913676D02*
X116189095Y-115008914D01*
X116189095Y-115008914D02*
X116093857Y-115056533D01*
D12*
%TO.C,D4*%
X136818401Y-27612000D02*
X136818401Y-31622000D01*
X138818401Y-27612000D02*
X138818401Y-31622000D01*
X138818401Y-27612000D02*
X136818401Y-27612000D01*
%TO.C,L4*%
X126202221Y-87571629D02*
X126527779Y-87571629D01*
X126202221Y-86551629D02*
X126527779Y-86551629D01*
%TO.C,C9*%
X132976001Y-99438865D02*
X132976001Y-99223193D01*
X133696001Y-99438865D02*
X133696001Y-99223193D01*
%TO.C,C67*%
X151307401Y-27761181D02*
X151307401Y-27238677D01*
X152777401Y-27761181D02*
X152777401Y-27238677D01*
%TO.C,C64*%
X118030164Y-45472829D02*
X118245836Y-45472829D01*
X118030164Y-46192829D02*
X118245836Y-46192829D01*
%TO.C,C26*%
X135259237Y-101554029D02*
X135043565Y-101554029D01*
X135259237Y-102274029D02*
X135043565Y-102274029D01*
%TO.C,C17*%
X141711734Y-42695793D02*
X141711734Y-42911465D01*
X142431734Y-42695793D02*
X142431734Y-42911465D01*
%TO.C,R4*%
X118942560Y-97933829D02*
X119249842Y-97933829D01*
X118942560Y-98693829D02*
X119249842Y-98693829D01*
D10*
%TO.C,U5*%
X117554600Y-116384400D02*
X117854600Y-116384400D01*
X117554600Y-116759400D02*
X117554600Y-116384400D01*
X117554600Y-122434400D02*
X117554600Y-122934400D01*
X117554600Y-122934400D02*
X117954600Y-122934400D01*
X120304600Y-122934400D02*
X120779600Y-122934400D01*
X120629600Y-116384400D02*
X121104600Y-116384400D01*
X120779600Y-122934400D02*
X121104600Y-122634400D01*
X121104600Y-116384400D02*
X121104600Y-116834400D01*
X121104600Y-122634400D02*
X121299600Y-122634400D01*
D12*
%TO.C,R9*%
X139728901Y-42579371D02*
X139728901Y-43053887D01*
X140773901Y-42579371D02*
X140773901Y-43053887D01*
%TO.C,R15*%
X149753042Y-101788029D02*
X149445760Y-101788029D01*
X149753042Y-102548029D02*
X149445760Y-102548029D01*
%TO.C,R36*%
X128255500Y-123693658D02*
X128255500Y-123219142D01*
X129300500Y-123693658D02*
X129300500Y-123219142D01*
%TO.C,U7*%
X144963901Y-94827029D02*
X144163901Y-94827029D01*
X144963901Y-94827029D02*
X145763901Y-94827029D01*
X144963901Y-97947029D02*
X144163901Y-97947029D01*
X144963901Y-97947029D02*
X145763901Y-97947029D01*
X143663901Y-94877029D02*
X143423901Y-94547029D01*
X143903901Y-94547029D01*
X143663901Y-94877029D01*
G36*
X143663901Y-94877029D02*
G01*
X143423901Y-94547029D01*
X143903901Y-94547029D01*
X143663901Y-94877029D01*
G37*
%TO.C,R6*%
X138830659Y-36706129D02*
X138356143Y-36706129D01*
X138830659Y-37751129D02*
X138356143Y-37751129D01*
%TO.C,C65*%
X152225836Y-42566000D02*
X152010164Y-42566000D01*
X152225836Y-43286000D02*
X152010164Y-43286000D01*
%TO.C,C34*%
X142190837Y-114194000D02*
X141975165Y-114194000D01*
X142190837Y-114914000D02*
X141975165Y-114914000D01*
%TO.C,C20*%
X124176600Y-120031564D02*
X124176600Y-120247236D01*
X124896600Y-120031564D02*
X124896600Y-120247236D01*
%TO.C,C11*%
X135262001Y-99438865D02*
X135262001Y-99223193D01*
X135982001Y-99438865D02*
X135982001Y-99223193D01*
D13*
%TO.C,Q3*%
X130515901Y-48859329D02*
X130515901Y-49177190D01*
X130515901Y-52199068D02*
X130515901Y-52516929D01*
X130515901Y-52516929D02*
X133360701Y-52516929D01*
X133360701Y-48859329D02*
X130515901Y-48859329D01*
X133360701Y-49110789D02*
X133360701Y-48859329D01*
X133360701Y-52516929D02*
X133360701Y-52265469D01*
D12*
%TO.C,Q14*%
X133525500Y-85517814D02*
X132875500Y-85517814D01*
X133525500Y-85517814D02*
X134175500Y-85517814D01*
X133525500Y-88637814D02*
X132875500Y-88637814D01*
X133525500Y-88637814D02*
X134175500Y-88637814D01*
X134928000Y-88917814D02*
X134448000Y-88917814D01*
X134688000Y-88587814D01*
X134928000Y-88917814D01*
G36*
X134928000Y-88917814D02*
G01*
X134448000Y-88917814D01*
X134688000Y-88587814D01*
X134928000Y-88917814D01*
G37*
%TO.C,C47*%
X122299000Y-91271420D02*
X122299000Y-91552580D01*
X123319000Y-91271420D02*
X123319000Y-91552580D01*
%TO.C,FB1*%
X134446401Y-114055600D02*
X134446401Y-111535600D01*
X136166401Y-114055600D02*
X136166401Y-111535600D01*
%TO.C,C24*%
X137867401Y-111947764D02*
X137867401Y-112163436D01*
X138587401Y-111947764D02*
X138587401Y-112163436D01*
%TO.C,C27*%
X135259237Y-102697029D02*
X135043565Y-102697029D01*
X135259237Y-103417029D02*
X135043565Y-103417029D01*
%TO.C,R28*%
X143679000Y-69619237D02*
X143679000Y-68171763D01*
X146389000Y-69619237D02*
X146389000Y-68171763D01*
%TO.C,C40*%
X141551252Y-32920000D02*
X141028748Y-32920000D01*
X141551252Y-34390000D02*
X141028748Y-34390000D01*
%TO.C,R20*%
X139879401Y-97015670D02*
X139879401Y-96708388D01*
X140639401Y-97015670D02*
X140639401Y-96708388D01*
%TO.C,C44*%
X138688237Y-38790629D02*
X138472565Y-38790629D01*
X138688237Y-39510629D02*
X138472565Y-39510629D01*
%TO.C,R26*%
X149379000Y-32721936D02*
X149379000Y-33176064D01*
X150849000Y-32721936D02*
X150849000Y-33176064D01*
%TO.C,C25*%
X135259237Y-100538029D02*
X135043565Y-100538029D01*
X135259237Y-101258029D02*
X135043565Y-101258029D01*
%TO.C,C16*%
X123113401Y-64777881D02*
X123113401Y-64255377D01*
X124583401Y-64777881D02*
X124583401Y-64255377D01*
%TO.C,C32*%
X135259237Y-104995029D02*
X135043565Y-104995029D01*
X135259237Y-105715029D02*
X135043565Y-105715029D01*
%TO.C,R11*%
X119760001Y-45229188D02*
X119760001Y-45536470D01*
X120520001Y-45229188D02*
X120520001Y-45536470D01*
%TO.C,C52*%
X145332401Y-49831164D02*
X145332401Y-50046836D01*
X146052401Y-49831164D02*
X146052401Y-50046836D01*
%TO.C,R30*%
X147857742Y-36434500D02*
X148332258Y-36434500D01*
X147857742Y-37479500D02*
X148332258Y-37479500D01*
%TO.C,T1*%
X137391401Y-54797629D02*
X137391401Y-60397629D01*
X139466401Y-53167629D02*
X142266401Y-53167629D01*
X139466401Y-62027629D02*
X142266401Y-62027629D01*
X144341401Y-54797629D02*
X144341401Y-60397629D01*
X144896401Y-53987629D02*
X144566401Y-53747629D01*
X144896401Y-53507629D01*
X144896401Y-53987629D01*
G36*
X144896401Y-53987629D02*
G01*
X144566401Y-53747629D01*
X144896401Y-53507629D01*
X144896401Y-53987629D01*
G37*
%TO.C,U3*%
X140915401Y-35765629D02*
X140915401Y-35530629D01*
X140915401Y-40510629D02*
X140915401Y-40035629D01*
X141390401Y-35290629D02*
X141215401Y-35290629D01*
X141390401Y-40510629D02*
X140915401Y-40510629D01*
X144660401Y-35290629D02*
X145135401Y-35290629D01*
X144660401Y-40510629D02*
X145135401Y-40510629D01*
X145135401Y-35290629D02*
X145135401Y-35765629D01*
X145135401Y-40510629D02*
X145135401Y-40035629D01*
X140915401Y-35290629D02*
X140675401Y-34960629D01*
X141155401Y-34960629D01*
X140915401Y-35290629D01*
G36*
X140915401Y-35290629D02*
G01*
X140675401Y-34960629D01*
X141155401Y-34960629D01*
X140915401Y-35290629D01*
G37*
%TO.C,R16*%
X148769401Y-103510388D02*
X148769401Y-103817670D01*
X149529401Y-103510388D02*
X149529401Y-103817670D01*
%TO.C,C4*%
X127261001Y-99223193D02*
X127261001Y-99438865D01*
X127981001Y-99223193D02*
X127981001Y-99438865D01*
%TO.C,R19*%
X147372401Y-97015670D02*
X147372401Y-96708388D01*
X148132401Y-97015670D02*
X148132401Y-96708388D01*
%TO.C,Q13*%
X138887501Y-85501629D02*
X138237501Y-85501629D01*
X138887501Y-85501629D02*
X139537501Y-85501629D01*
X138887501Y-88621629D02*
X138237501Y-88621629D01*
X138887501Y-88621629D02*
X139537501Y-88621629D01*
X140290001Y-88901629D02*
X139810001Y-88901629D01*
X140050001Y-88571629D01*
X140290001Y-88901629D01*
G36*
X140290001Y-88901629D02*
G01*
X139810001Y-88901629D01*
X140050001Y-88571629D01*
X140290001Y-88901629D01*
G37*
%TO.C,R27*%
X147865937Y-38000000D02*
X148320065Y-38000000D01*
X147865937Y-39470000D02*
X148320065Y-39470000D01*
%TO.C,C19*%
X147087401Y-42663049D02*
X147087401Y-42944209D01*
X148107401Y-42663049D02*
X148107401Y-42944209D01*
%TO.C,C21*%
X147265401Y-107949265D02*
X147265401Y-107733593D01*
X147985401Y-107949265D02*
X147985401Y-107733593D01*
%TO.C,C2*%
X126820165Y-96332029D02*
X127035837Y-96332029D01*
X126820165Y-97052029D02*
X127035837Y-97052029D01*
%TO.C,R12*%
X120826801Y-45229188D02*
X120826801Y-45536470D01*
X121586801Y-45229188D02*
X121586801Y-45536470D01*
D10*
%TO.C,J10*%
X114664001Y-94992029D02*
X114664001Y-95492029D01*
X114664001Y-94992029D02*
X115164001Y-94992029D01*
X114664001Y-100292029D02*
X114664001Y-99792029D01*
X114664001Y-100292029D02*
X115164001Y-100292029D01*
X117464001Y-94992029D02*
X116964001Y-94992029D01*
X117464001Y-94992029D02*
X117464001Y-95492029D01*
X117464001Y-100292029D02*
X116964001Y-100292029D01*
X117464001Y-100292029D02*
X117464001Y-99792029D01*
%TO.C,TR1*%
X140974801Y-81678629D02*
X121474801Y-81678629D01*
X121474801Y-69678629D01*
X140974801Y-69678629D01*
X140974801Y-81678629D01*
D14*
X142149801Y-80678629D02*
G75*
G02*
X141799801Y-80678629I-175000J0D01*
G01*
X141799801Y-80678629D02*
G75*
G02*
X142149801Y-80678629I175000J0D01*
G01*
D12*
%TO.C,R34*%
X138830659Y-35055129D02*
X138356143Y-35055129D01*
X138830659Y-36100129D02*
X138356143Y-36100129D01*
%TO.C,C1*%
X126118001Y-99223193D02*
X126118001Y-99438865D01*
X126838001Y-99223193D02*
X126838001Y-99438865D01*
D15*
%TO.C,J2*%
X114398401Y-26912629D02*
X114398401Y-43112629D01*
X126788401Y-26912629D02*
X114398401Y-26912629D01*
X126788401Y-43112629D02*
X114398401Y-43112629D01*
X129988401Y-26912629D02*
X135848401Y-26912629D01*
X129988401Y-43112629D02*
X135848401Y-43112629D01*
X135848401Y-43112629D02*
X135848401Y-26912629D01*
D16*
X135388401Y-27812629D02*
G75*
G02*
X134988401Y-27812629I-200000J0D01*
G01*
X134988401Y-27812629D02*
G75*
G02*
X135388401Y-27812629I200000J0D01*
G01*
D12*
%TO.C,C37*%
X135259237Y-106126029D02*
X135043565Y-106126029D01*
X135259237Y-106846029D02*
X135043565Y-106846029D01*
%TO.C,C54*%
X139109401Y-63557793D02*
X139109401Y-63773465D01*
X139829401Y-63557793D02*
X139829401Y-63773465D01*
%TO.C,C7*%
X130690001Y-99438865D02*
X130690001Y-99223193D01*
X131410001Y-99438865D02*
X131410001Y-99223193D01*
%TO.C,R24*%
X146090143Y-52915129D02*
X146564659Y-52915129D01*
X146090143Y-53960129D02*
X146564659Y-53960129D01*
%TO.C,C18*%
X145202401Y-42663049D02*
X145202401Y-42944209D01*
X146222401Y-42663049D02*
X146222401Y-42944209D01*
%TO.C,D2*%
X151100000Y-101354000D02*
X151100000Y-101554000D01*
X151100000Y-101554000D02*
X151100000Y-102354000D01*
X151100000Y-102354000D02*
X152800000Y-102354000D01*
X151200000Y-101354000D02*
X151100000Y-101354000D01*
X151300000Y-101354000D02*
X151200000Y-101354000D01*
X151300000Y-101354000D02*
X152800000Y-101354000D01*
%TO.C,C36*%
X140153401Y-111947764D02*
X140153401Y-112163436D01*
X140873401Y-111947764D02*
X140873401Y-112163436D01*
%TO.C,C51*%
X130831000Y-91078164D02*
X130831000Y-91293836D01*
X131551000Y-91078164D02*
X131551000Y-91293836D01*
%TO.C,R18*%
X150867042Y-103976029D02*
X150559760Y-103976029D01*
X150867042Y-104736029D02*
X150559760Y-104736029D01*
%TO.C,R14*%
X147245401Y-109662388D02*
X147245401Y-109969670D01*
X148005401Y-109662388D02*
X148005401Y-109969670D01*
%TO.C,C46*%
X120648000Y-91271420D02*
X120648000Y-91552580D01*
X121668000Y-91271420D02*
X121668000Y-91552580D01*
%TO.C,C23*%
X136724401Y-111947764D02*
X136724401Y-112163436D01*
X137444401Y-111947764D02*
X137444401Y-112163436D01*
%TO.C,R23*%
X147813500Y-31385742D02*
X147813500Y-31860258D01*
X148858500Y-31385742D02*
X148858500Y-31860258D01*
%TO.C,U6*%
X138153401Y-99995029D02*
X138628401Y-99995029D01*
X138153401Y-100470029D02*
X138153401Y-99995029D01*
X138153401Y-107740029D02*
X138153401Y-107915029D01*
X138628401Y-108215029D02*
X138393401Y-108215029D01*
X146373401Y-99995029D02*
X145898401Y-99995029D01*
X146373401Y-100470029D02*
X146373401Y-99995029D01*
X146373401Y-107740029D02*
X146373401Y-108215029D01*
X146373401Y-108215029D02*
X145898401Y-108215029D01*
X138153401Y-108215029D02*
X137823401Y-108455029D01*
X137823401Y-107975029D01*
X138153401Y-108215029D01*
G36*
X138153401Y-108215029D02*
G01*
X137823401Y-108455029D01*
X137823401Y-107975029D01*
X138153401Y-108215029D01*
G37*
%TO.C,R1*%
X123741001Y-96058388D02*
X123741001Y-96365670D01*
X124501001Y-96058388D02*
X124501001Y-96365670D01*
%TO.C,D1*%
X126770401Y-68886629D02*
X126770401Y-63376629D01*
X126770401Y-68886629D02*
X130070401Y-68886629D01*
X130070401Y-68886629D02*
X130070401Y-63376629D01*
%TO.C,C6*%
X129547001Y-99438865D02*
X129547001Y-99223193D01*
X130267001Y-99438865D02*
X130267001Y-99223193D01*
%TO.C,C5*%
X128404001Y-99438865D02*
X128404001Y-99223193D01*
X129124001Y-99438865D02*
X129124001Y-99223193D01*
%TO.C,C8*%
X131833001Y-99438865D02*
X131833001Y-99223193D01*
X132553001Y-99438865D02*
X132553001Y-99223193D01*
%TO.C,C10*%
X134119001Y-99438865D02*
X134119001Y-99223193D01*
X134839001Y-99438865D02*
X134839001Y-99223193D01*
%TO.C,R21*%
X139939500Y-31111258D02*
X139939500Y-30636742D01*
X140984500Y-31111258D02*
X140984500Y-30636742D01*
%TO.C,C66*%
X152225836Y-43582000D02*
X152010164Y-43582000D01*
X152225836Y-44302000D02*
X152010164Y-44302000D01*
%TO.C,C42*%
X147728000Y-28455252D02*
X147728000Y-27932748D01*
X149198000Y-28455252D02*
X149198000Y-27932748D01*
%TO.C,C45*%
X151538000Y-30787748D02*
X151538000Y-31310252D01*
X153008000Y-30787748D02*
X153008000Y-31310252D01*
%TO.C,R10*%
X145169901Y-46277887D02*
X145169901Y-45803371D01*
X146214901Y-46277887D02*
X146214901Y-45803371D01*
%TO.C,C3*%
X126820165Y-97475029D02*
X127035837Y-97475029D01*
X126820165Y-98195029D02*
X127035837Y-98195029D01*
%TO.C,R31*%
X137946401Y-63511988D02*
X137946401Y-63819270D01*
X138706401Y-63511988D02*
X138706401Y-63819270D01*
%TO.C,C50*%
X141753401Y-68239049D02*
X141753401Y-68520209D01*
X142773401Y-68239049D02*
X142773401Y-68520209D01*
%TO.C,C49*%
X133703653Y-66847629D02*
X132281149Y-66847629D01*
X133703653Y-68667629D02*
X132281149Y-68667629D01*
%TO.C,R3*%
X118947560Y-99076829D02*
X119254842Y-99076829D01*
X118947560Y-99836829D02*
X119254842Y-99836829D01*
%TO.C,U1*%
X119921001Y-101869029D02*
X119921001Y-101459029D01*
X119921001Y-108439029D02*
X119921001Y-107789029D01*
X120571001Y-101219029D02*
X120221001Y-101219029D01*
X120571001Y-108439029D02*
X119921001Y-108439029D01*
X126491001Y-101219029D02*
X127141001Y-101219029D01*
X126491001Y-108439029D02*
X127141001Y-108439029D01*
X127141001Y-101219029D02*
X127141001Y-101869029D01*
X127141001Y-108439029D02*
X127141001Y-107789029D01*
X119921001Y-101219029D02*
X119681001Y-100889029D01*
X120161001Y-100889029D01*
X119921001Y-101219029D01*
G36*
X119921001Y-101219029D02*
G01*
X119681001Y-100889029D01*
X120161001Y-100889029D01*
X119921001Y-101219029D01*
G37*
D13*
%TO.C,Q1*%
X130515901Y-56022829D02*
X130515901Y-56340690D01*
X130515901Y-59362568D02*
X130515901Y-59680429D01*
X130515901Y-59680429D02*
X133360701Y-59680429D01*
X133360701Y-56022829D02*
X130515901Y-56022829D01*
X133360701Y-56274289D02*
X133360701Y-56022829D01*
X133360701Y-59680429D02*
X133360701Y-59428969D01*
D12*
%TO.C,C22*%
X151781237Y-102854029D02*
X151565565Y-102854029D01*
X151781237Y-103574029D02*
X151565565Y-103574029D01*
%TO.C,C48*%
X132411999Y-90716933D02*
X132411999Y-92139437D01*
X134231999Y-90716933D02*
X134231999Y-92139437D01*
%TO.C,J1*%
X130211501Y-122619429D02*
X130211501Y-121069429D01*
X130211501Y-122619429D02*
X130511501Y-122619429D01*
X130511501Y-125419429D02*
X130511501Y-122619429D01*
X132661501Y-119369429D02*
X133461501Y-119369429D01*
X133061501Y-119819429D02*
X132661501Y-119369429D01*
X133461501Y-119369429D02*
X133061501Y-119819429D01*
X138211501Y-122619429D02*
X138511501Y-122619429D01*
X138211501Y-125419429D02*
X138211501Y-122619429D01*
X138511501Y-122619429D02*
X138511501Y-121069429D01*
%TO.C,R13*%
X140837160Y-113158000D02*
X141144442Y-113158000D01*
X140837160Y-113918000D02*
X141144442Y-113918000D01*
D13*
%TO.C,Q7*%
X124038901Y-48859329D02*
X124038901Y-49177190D01*
X124038901Y-52199068D02*
X124038901Y-52516929D01*
X124038901Y-52516929D02*
X126883701Y-52516929D01*
X126883701Y-48859329D02*
X124038901Y-48859329D01*
X126883701Y-49110789D02*
X126883701Y-48859329D01*
X126883701Y-52516929D02*
X126883701Y-52265469D01*
D12*
%TO.C,R7*%
X143369567Y-42579371D02*
X143369567Y-43053887D01*
X144414567Y-42579371D02*
X144414567Y-43053887D01*
D13*
%TO.C,Q5*%
X124038901Y-56022829D02*
X124038901Y-56340690D01*
X124038901Y-59362568D02*
X124038901Y-59680429D01*
X124038901Y-59680429D02*
X126883701Y-59680429D01*
X126883701Y-56022829D02*
X124038901Y-56022829D01*
X126883701Y-56274289D02*
X126883701Y-56022829D01*
X126883701Y-59680429D02*
X126883701Y-59428969D01*
D10*
%TO.C,Y2*%
X148871801Y-105709429D02*
X149171801Y-105709429D01*
X149171801Y-105609429D02*
X149971801Y-105609429D01*
X149171801Y-105709429D02*
X149171801Y-105609429D01*
X149171801Y-108109429D02*
X149171801Y-108209429D01*
X149171801Y-108209429D02*
X149971801Y-108209429D01*
X152371801Y-105609429D02*
X151571801Y-105609429D01*
X152371801Y-105709429D02*
X152371801Y-105609429D01*
X152371801Y-108109429D02*
X152371801Y-108209429D01*
X152371801Y-108209429D02*
X151571801Y-108209429D01*
D12*
%TO.C,C30*%
X139010401Y-111947764D02*
X139010401Y-112163436D01*
X139730401Y-111947764D02*
X139730401Y-112163436D01*
%TO.C,R25*%
X147855743Y-39990500D02*
X148330259Y-39990500D01*
X147855743Y-41035500D02*
X148330259Y-41035500D01*
%TO.C,C62*%
X126363000Y-123616980D02*
X126363000Y-123335820D01*
X127383000Y-123616980D02*
X127383000Y-123335820D01*
%TO.C,C31*%
X135259237Y-103840029D02*
X135043565Y-103840029D01*
X135259237Y-104560029D02*
X135043565Y-104560029D01*
%TO.C,R2*%
X124961001Y-96058388D02*
X124961001Y-96365670D01*
X125721001Y-96058388D02*
X125721001Y-96365670D01*
%TO.C,C15*%
X125091764Y-116999400D02*
X125307436Y-116999400D01*
X125091764Y-117719400D02*
X125307436Y-117719400D01*
%TD*%
M02*
