%TF.GenerationSoftware,KiCad,Pcbnew,8.0.1*%
%TF.CreationDate,2024-10-08T23:28:18-07:00*%
%TF.ProjectId,POEPico,504f4550-6963-46f2-9e6b-696361645f70,rev?*%
%TF.SameCoordinates,Original*%
%TF.FileFunction,Legend,Bot*%
%TF.FilePolarity,Positive*%
%FSLAX46Y46*%
G04 Gerber Fmt 4.6, Leading zero omitted, Abs format (unit mm)*
G04 Created by KiCad (PCBNEW 8.0.1) date 2024-10-08 23:28:18*
%MOMM*%
%LPD*%
G01*
G04 APERTURE LIST*
%ADD10C,0.150000*%
%ADD11C,0.120000*%
%ADD12C,0.152400*%
%ADD13C,0.100000*%
G04 APERTURE END LIST*
D10*
X153702819Y-100468905D02*
X152702819Y-100468905D01*
X152702819Y-100468905D02*
X152702819Y-100707000D01*
X152702819Y-100707000D02*
X152750438Y-100849857D01*
X152750438Y-100849857D02*
X152845676Y-100945095D01*
X152845676Y-100945095D02*
X152940914Y-100992714D01*
X152940914Y-100992714D02*
X153131390Y-101040333D01*
X153131390Y-101040333D02*
X153274247Y-101040333D01*
X153274247Y-101040333D02*
X153464723Y-100992714D01*
X153464723Y-100992714D02*
X153559961Y-100945095D01*
X153559961Y-100945095D02*
X153655200Y-100849857D01*
X153655200Y-100849857D02*
X153702819Y-100707000D01*
X153702819Y-100707000D02*
X153702819Y-100468905D01*
X152702819Y-101373667D02*
X152702819Y-101992714D01*
X152702819Y-101992714D02*
X153083771Y-101659381D01*
X153083771Y-101659381D02*
X153083771Y-101802238D01*
X153083771Y-101802238D02*
X153131390Y-101897476D01*
X153131390Y-101897476D02*
X153179009Y-101945095D01*
X153179009Y-101945095D02*
X153274247Y-101992714D01*
X153274247Y-101992714D02*
X153512342Y-101992714D01*
X153512342Y-101992714D02*
X153607580Y-101945095D01*
X153607580Y-101945095D02*
X153655200Y-101897476D01*
X153655200Y-101897476D02*
X153702819Y-101802238D01*
X153702819Y-101802238D02*
X153702819Y-101516524D01*
X153702819Y-101516524D02*
X153655200Y-101421286D01*
X153655200Y-101421286D02*
X153607580Y-101373667D01*
X126122580Y-118638142D02*
X126170200Y-118590523D01*
X126170200Y-118590523D02*
X126217819Y-118447666D01*
X126217819Y-118447666D02*
X126217819Y-118352428D01*
X126217819Y-118352428D02*
X126170200Y-118209571D01*
X126170200Y-118209571D02*
X126074961Y-118114333D01*
X126074961Y-118114333D02*
X125979723Y-118066714D01*
X125979723Y-118066714D02*
X125789247Y-118019095D01*
X125789247Y-118019095D02*
X125646390Y-118019095D01*
X125646390Y-118019095D02*
X125455914Y-118066714D01*
X125455914Y-118066714D02*
X125360676Y-118114333D01*
X125360676Y-118114333D02*
X125265438Y-118209571D01*
X125265438Y-118209571D02*
X125217819Y-118352428D01*
X125217819Y-118352428D02*
X125217819Y-118447666D01*
X125217819Y-118447666D02*
X125265438Y-118590523D01*
X125265438Y-118590523D02*
X125313057Y-118638142D01*
X125217819Y-119542904D02*
X125217819Y-119066714D01*
X125217819Y-119066714D02*
X125694009Y-119019095D01*
X125694009Y-119019095D02*
X125646390Y-119066714D01*
X125646390Y-119066714D02*
X125598771Y-119161952D01*
X125598771Y-119161952D02*
X125598771Y-119400047D01*
X125598771Y-119400047D02*
X125646390Y-119495285D01*
X125646390Y-119495285D02*
X125694009Y-119542904D01*
X125694009Y-119542904D02*
X125789247Y-119590523D01*
X125789247Y-119590523D02*
X126027342Y-119590523D01*
X126027342Y-119590523D02*
X126122580Y-119542904D01*
X126122580Y-119542904D02*
X126170200Y-119495285D01*
X126170200Y-119495285D02*
X126217819Y-119400047D01*
X126217819Y-119400047D02*
X126217819Y-119161952D01*
X126217819Y-119161952D02*
X126170200Y-119066714D01*
X126170200Y-119066714D02*
X126122580Y-119019095D01*
X125217819Y-119923857D02*
X125217819Y-120590523D01*
X125217819Y-120590523D02*
X126217819Y-120161952D01*
X137646580Y-34917142D02*
X137694200Y-34869523D01*
X137694200Y-34869523D02*
X137741819Y-34726666D01*
X137741819Y-34726666D02*
X137741819Y-34631428D01*
X137741819Y-34631428D02*
X137694200Y-34488571D01*
X137694200Y-34488571D02*
X137598961Y-34393333D01*
X137598961Y-34393333D02*
X137503723Y-34345714D01*
X137503723Y-34345714D02*
X137313247Y-34298095D01*
X137313247Y-34298095D02*
X137170390Y-34298095D01*
X137170390Y-34298095D02*
X136979914Y-34345714D01*
X136979914Y-34345714D02*
X136884676Y-34393333D01*
X136884676Y-34393333D02*
X136789438Y-34488571D01*
X136789438Y-34488571D02*
X136741819Y-34631428D01*
X136741819Y-34631428D02*
X136741819Y-34726666D01*
X136741819Y-34726666D02*
X136789438Y-34869523D01*
X136789438Y-34869523D02*
X136837057Y-34917142D01*
X136741819Y-35821904D02*
X136741819Y-35345714D01*
X136741819Y-35345714D02*
X137218009Y-35298095D01*
X137218009Y-35298095D02*
X137170390Y-35345714D01*
X137170390Y-35345714D02*
X137122771Y-35440952D01*
X137122771Y-35440952D02*
X137122771Y-35679047D01*
X137122771Y-35679047D02*
X137170390Y-35774285D01*
X137170390Y-35774285D02*
X137218009Y-35821904D01*
X137218009Y-35821904D02*
X137313247Y-35869523D01*
X137313247Y-35869523D02*
X137551342Y-35869523D01*
X137551342Y-35869523D02*
X137646580Y-35821904D01*
X137646580Y-35821904D02*
X137694200Y-35774285D01*
X137694200Y-35774285D02*
X137741819Y-35679047D01*
X137741819Y-35679047D02*
X137741819Y-35440952D01*
X137741819Y-35440952D02*
X137694200Y-35345714D01*
X137694200Y-35345714D02*
X137646580Y-35298095D01*
X136741819Y-36774285D02*
X136741819Y-36298095D01*
X136741819Y-36298095D02*
X137218009Y-36250476D01*
X137218009Y-36250476D02*
X137170390Y-36298095D01*
X137170390Y-36298095D02*
X137122771Y-36393333D01*
X137122771Y-36393333D02*
X137122771Y-36631428D01*
X137122771Y-36631428D02*
X137170390Y-36726666D01*
X137170390Y-36726666D02*
X137218009Y-36774285D01*
X137218009Y-36774285D02*
X137313247Y-36821904D01*
X137313247Y-36821904D02*
X137551342Y-36821904D01*
X137551342Y-36821904D02*
X137646580Y-36774285D01*
X137646580Y-36774285D02*
X137694200Y-36726666D01*
X137694200Y-36726666D02*
X137741819Y-36631428D01*
X137741819Y-36631428D02*
X137741819Y-36393333D01*
X137741819Y-36393333D02*
X137694200Y-36298095D01*
X137694200Y-36298095D02*
X137646580Y-36250476D01*
X116924057Y-117834580D02*
X116971676Y-117882200D01*
X116971676Y-117882200D02*
X117114533Y-117929819D01*
X117114533Y-117929819D02*
X117209771Y-117929819D01*
X117209771Y-117929819D02*
X117352628Y-117882200D01*
X117352628Y-117882200D02*
X117447866Y-117786961D01*
X117447866Y-117786961D02*
X117495485Y-117691723D01*
X117495485Y-117691723D02*
X117543104Y-117501247D01*
X117543104Y-117501247D02*
X117543104Y-117358390D01*
X117543104Y-117358390D02*
X117495485Y-117167914D01*
X117495485Y-117167914D02*
X117447866Y-117072676D01*
X117447866Y-117072676D02*
X117352628Y-116977438D01*
X117352628Y-116977438D02*
X117209771Y-116929819D01*
X117209771Y-116929819D02*
X117114533Y-116929819D01*
X117114533Y-116929819D02*
X116971676Y-116977438D01*
X116971676Y-116977438D02*
X116924057Y-117025057D01*
X116019295Y-116929819D02*
X116495485Y-116929819D01*
X116495485Y-116929819D02*
X116543104Y-117406009D01*
X116543104Y-117406009D02*
X116495485Y-117358390D01*
X116495485Y-117358390D02*
X116400247Y-117310771D01*
X116400247Y-117310771D02*
X116162152Y-117310771D01*
X116162152Y-117310771D02*
X116066914Y-117358390D01*
X116066914Y-117358390D02*
X116019295Y-117406009D01*
X116019295Y-117406009D02*
X115971676Y-117501247D01*
X115971676Y-117501247D02*
X115971676Y-117739342D01*
X115971676Y-117739342D02*
X116019295Y-117834580D01*
X116019295Y-117834580D02*
X116066914Y-117882200D01*
X116066914Y-117882200D02*
X116162152Y-117929819D01*
X116162152Y-117929819D02*
X116400247Y-117929819D01*
X116400247Y-117929819D02*
X116495485Y-117882200D01*
X116495485Y-117882200D02*
X116543104Y-117834580D01*
X115495485Y-117929819D02*
X115305009Y-117929819D01*
X115305009Y-117929819D02*
X115209771Y-117882200D01*
X115209771Y-117882200D02*
X115162152Y-117834580D01*
X115162152Y-117834580D02*
X115066914Y-117691723D01*
X115066914Y-117691723D02*
X115019295Y-117501247D01*
X115019295Y-117501247D02*
X115019295Y-117120295D01*
X115019295Y-117120295D02*
X115066914Y-117025057D01*
X115066914Y-117025057D02*
X115114533Y-116977438D01*
X115114533Y-116977438D02*
X115209771Y-116929819D01*
X115209771Y-116929819D02*
X115400247Y-116929819D01*
X115400247Y-116929819D02*
X115495485Y-116977438D01*
X115495485Y-116977438D02*
X115543104Y-117025057D01*
X115543104Y-117025057D02*
X115590723Y-117120295D01*
X115590723Y-117120295D02*
X115590723Y-117358390D01*
X115590723Y-117358390D02*
X115543104Y-117453628D01*
X115543104Y-117453628D02*
X115495485Y-117501247D01*
X115495485Y-117501247D02*
X115400247Y-117548866D01*
X115400247Y-117548866D02*
X115209771Y-117548866D01*
X115209771Y-117548866D02*
X115114533Y-117501247D01*
X115114533Y-117501247D02*
X115066914Y-117453628D01*
X115066914Y-117453628D02*
X115019295Y-117358390D01*
X143983495Y-40363448D02*
X143983495Y-39363448D01*
X143983495Y-39363448D02*
X143745400Y-39363448D01*
X143745400Y-39363448D02*
X143602543Y-39411067D01*
X143602543Y-39411067D02*
X143507305Y-39506305D01*
X143507305Y-39506305D02*
X143459686Y-39601543D01*
X143459686Y-39601543D02*
X143412067Y-39792019D01*
X143412067Y-39792019D02*
X143412067Y-39934876D01*
X143412067Y-39934876D02*
X143459686Y-40125352D01*
X143459686Y-40125352D02*
X143507305Y-40220590D01*
X143507305Y-40220590D02*
X143602543Y-40315829D01*
X143602543Y-40315829D02*
X143745400Y-40363448D01*
X143745400Y-40363448D02*
X143983495Y-40363448D01*
X142554924Y-39363448D02*
X142745400Y-39363448D01*
X142745400Y-39363448D02*
X142840638Y-39411067D01*
X142840638Y-39411067D02*
X142888257Y-39458686D01*
X142888257Y-39458686D02*
X142983495Y-39601543D01*
X142983495Y-39601543D02*
X143031114Y-39792019D01*
X143031114Y-39792019D02*
X143031114Y-40172971D01*
X143031114Y-40172971D02*
X142983495Y-40268209D01*
X142983495Y-40268209D02*
X142935876Y-40315829D01*
X142935876Y-40315829D02*
X142840638Y-40363448D01*
X142840638Y-40363448D02*
X142650162Y-40363448D01*
X142650162Y-40363448D02*
X142554924Y-40315829D01*
X142554924Y-40315829D02*
X142507305Y-40268209D01*
X142507305Y-40268209D02*
X142459686Y-40172971D01*
X142459686Y-40172971D02*
X142459686Y-39934876D01*
X142459686Y-39934876D02*
X142507305Y-39839638D01*
X142507305Y-39839638D02*
X142554924Y-39792019D01*
X142554924Y-39792019D02*
X142650162Y-39744400D01*
X142650162Y-39744400D02*
X142840638Y-39744400D01*
X142840638Y-39744400D02*
X142935876Y-39792019D01*
X142935876Y-39792019D02*
X142983495Y-39839638D01*
X142983495Y-39839638D02*
X143031114Y-39934876D01*
X116924057Y-121358819D02*
X117257390Y-120882628D01*
X117495485Y-121358819D02*
X117495485Y-120358819D01*
X117495485Y-120358819D02*
X117114533Y-120358819D01*
X117114533Y-120358819D02*
X117019295Y-120406438D01*
X117019295Y-120406438D02*
X116971676Y-120454057D01*
X116971676Y-120454057D02*
X116924057Y-120549295D01*
X116924057Y-120549295D02*
X116924057Y-120692152D01*
X116924057Y-120692152D02*
X116971676Y-120787390D01*
X116971676Y-120787390D02*
X117019295Y-120835009D01*
X117019295Y-120835009D02*
X117114533Y-120882628D01*
X117114533Y-120882628D02*
X117495485Y-120882628D01*
X116590723Y-120358819D02*
X115971676Y-120358819D01*
X115971676Y-120358819D02*
X116305009Y-120739771D01*
X116305009Y-120739771D02*
X116162152Y-120739771D01*
X116162152Y-120739771D02*
X116066914Y-120787390D01*
X116066914Y-120787390D02*
X116019295Y-120835009D01*
X116019295Y-120835009D02*
X115971676Y-120930247D01*
X115971676Y-120930247D02*
X115971676Y-121168342D01*
X115971676Y-121168342D02*
X116019295Y-121263580D01*
X116019295Y-121263580D02*
X116066914Y-121311200D01*
X116066914Y-121311200D02*
X116162152Y-121358819D01*
X116162152Y-121358819D02*
X116447866Y-121358819D01*
X116447866Y-121358819D02*
X116543104Y-121311200D01*
X116543104Y-121311200D02*
X116590723Y-121263580D01*
X115638342Y-120358819D02*
X115019295Y-120358819D01*
X115019295Y-120358819D02*
X115352628Y-120739771D01*
X115352628Y-120739771D02*
X115209771Y-120739771D01*
X115209771Y-120739771D02*
X115114533Y-120787390D01*
X115114533Y-120787390D02*
X115066914Y-120835009D01*
X115066914Y-120835009D02*
X115019295Y-120930247D01*
X115019295Y-120930247D02*
X115019295Y-121168342D01*
X115019295Y-121168342D02*
X115066914Y-121263580D01*
X115066914Y-121263580D02*
X115114533Y-121311200D01*
X115114533Y-121311200D02*
X115209771Y-121358819D01*
X115209771Y-121358819D02*
X115495485Y-121358819D01*
X115495485Y-121358819D02*
X115590723Y-121311200D01*
X115590723Y-121311200D02*
X115638342Y-121263580D01*
X124428819Y-117652333D02*
X124428819Y-117176143D01*
X124428819Y-117176143D02*
X123428819Y-117176143D01*
X123428819Y-118461857D02*
X123428819Y-117985667D01*
X123428819Y-117985667D02*
X123905009Y-117938048D01*
X123905009Y-117938048D02*
X123857390Y-117985667D01*
X123857390Y-117985667D02*
X123809771Y-118080905D01*
X123809771Y-118080905D02*
X123809771Y-118319000D01*
X123809771Y-118319000D02*
X123857390Y-118414238D01*
X123857390Y-118414238D02*
X123905009Y-118461857D01*
X123905009Y-118461857D02*
X124000247Y-118509476D01*
X124000247Y-118509476D02*
X124238342Y-118509476D01*
X124238342Y-118509476D02*
X124333580Y-118461857D01*
X124333580Y-118461857D02*
X124381200Y-118414238D01*
X124381200Y-118414238D02*
X124428819Y-118319000D01*
X124428819Y-118319000D02*
X124428819Y-118080905D01*
X124428819Y-118080905D02*
X124381200Y-117985667D01*
X124381200Y-117985667D02*
X124333580Y-117938048D01*
X150649381Y-98661571D02*
X150697001Y-98613952D01*
X150697001Y-98613952D02*
X150744620Y-98471095D01*
X150744620Y-98471095D02*
X150744620Y-98375857D01*
X150744620Y-98375857D02*
X150697001Y-98233000D01*
X150697001Y-98233000D02*
X150601762Y-98137762D01*
X150601762Y-98137762D02*
X150506524Y-98090143D01*
X150506524Y-98090143D02*
X150316048Y-98042524D01*
X150316048Y-98042524D02*
X150173191Y-98042524D01*
X150173191Y-98042524D02*
X149982715Y-98090143D01*
X149982715Y-98090143D02*
X149887477Y-98137762D01*
X149887477Y-98137762D02*
X149792239Y-98233000D01*
X149792239Y-98233000D02*
X149744620Y-98375857D01*
X149744620Y-98375857D02*
X149744620Y-98471095D01*
X149744620Y-98471095D02*
X149792239Y-98613952D01*
X149792239Y-98613952D02*
X149839858Y-98661571D01*
X149839858Y-99042524D02*
X149792239Y-99090143D01*
X149792239Y-99090143D02*
X149744620Y-99185381D01*
X149744620Y-99185381D02*
X149744620Y-99423476D01*
X149744620Y-99423476D02*
X149792239Y-99518714D01*
X149792239Y-99518714D02*
X149839858Y-99566333D01*
X149839858Y-99566333D02*
X149935096Y-99613952D01*
X149935096Y-99613952D02*
X150030334Y-99613952D01*
X150030334Y-99613952D02*
X150173191Y-99566333D01*
X150173191Y-99566333D02*
X150744620Y-98994905D01*
X150744620Y-98994905D02*
X150744620Y-99613952D01*
X150744620Y-100090143D02*
X150744620Y-100280619D01*
X150744620Y-100280619D02*
X150697001Y-100375857D01*
X150697001Y-100375857D02*
X150649381Y-100423476D01*
X150649381Y-100423476D02*
X150506524Y-100518714D01*
X150506524Y-100518714D02*
X150316048Y-100566333D01*
X150316048Y-100566333D02*
X149935096Y-100566333D01*
X149935096Y-100566333D02*
X149839858Y-100518714D01*
X149839858Y-100518714D02*
X149792239Y-100471095D01*
X149792239Y-100471095D02*
X149744620Y-100375857D01*
X149744620Y-100375857D02*
X149744620Y-100185381D01*
X149744620Y-100185381D02*
X149792239Y-100090143D01*
X149792239Y-100090143D02*
X149839858Y-100042524D01*
X149839858Y-100042524D02*
X149935096Y-99994905D01*
X149935096Y-99994905D02*
X150173191Y-99994905D01*
X150173191Y-99994905D02*
X150268429Y-100042524D01*
X150268429Y-100042524D02*
X150316048Y-100090143D01*
X150316048Y-100090143D02*
X150363667Y-100185381D01*
X150363667Y-100185381D02*
X150363667Y-100375857D01*
X150363667Y-100375857D02*
X150316048Y-100471095D01*
X150316048Y-100471095D02*
X150268429Y-100518714D01*
X150268429Y-100518714D02*
X150173191Y-100566333D01*
X148769781Y-30438071D02*
X148817401Y-30390452D01*
X148817401Y-30390452D02*
X148865020Y-30247595D01*
X148865020Y-30247595D02*
X148865020Y-30152357D01*
X148865020Y-30152357D02*
X148817401Y-30009500D01*
X148817401Y-30009500D02*
X148722162Y-29914262D01*
X148722162Y-29914262D02*
X148626924Y-29866643D01*
X148626924Y-29866643D02*
X148436448Y-29819024D01*
X148436448Y-29819024D02*
X148293591Y-29819024D01*
X148293591Y-29819024D02*
X148103115Y-29866643D01*
X148103115Y-29866643D02*
X148007877Y-29914262D01*
X148007877Y-29914262D02*
X147912639Y-30009500D01*
X147912639Y-30009500D02*
X147865020Y-30152357D01*
X147865020Y-30152357D02*
X147865020Y-30247595D01*
X147865020Y-30247595D02*
X147912639Y-30390452D01*
X147912639Y-30390452D02*
X147960258Y-30438071D01*
X148198353Y-31295214D02*
X148865020Y-31295214D01*
X147817401Y-31057119D02*
X148531686Y-30819024D01*
X148531686Y-30819024D02*
X148531686Y-31438071D01*
X148865020Y-32342833D02*
X148865020Y-31771405D01*
X148865020Y-32057119D02*
X147865020Y-32057119D01*
X147865020Y-32057119D02*
X148007877Y-31961881D01*
X148007877Y-31961881D02*
X148103115Y-31866643D01*
X148103115Y-31866643D02*
X148150734Y-31771405D01*
X149395934Y-105814038D02*
X149729267Y-105814038D01*
X149729267Y-106337848D02*
X149729267Y-105337848D01*
X149729267Y-105337848D02*
X149253077Y-105337848D01*
X148538791Y-105814038D02*
X148395934Y-105861657D01*
X148395934Y-105861657D02*
X148348315Y-105909276D01*
X148348315Y-105909276D02*
X148300696Y-106004514D01*
X148300696Y-106004514D02*
X148300696Y-106147371D01*
X148300696Y-106147371D02*
X148348315Y-106242609D01*
X148348315Y-106242609D02*
X148395934Y-106290229D01*
X148395934Y-106290229D02*
X148491172Y-106337848D01*
X148491172Y-106337848D02*
X148872124Y-106337848D01*
X148872124Y-106337848D02*
X148872124Y-105337848D01*
X148872124Y-105337848D02*
X148538791Y-105337848D01*
X148538791Y-105337848D02*
X148443553Y-105385467D01*
X148443553Y-105385467D02*
X148395934Y-105433086D01*
X148395934Y-105433086D02*
X148348315Y-105528324D01*
X148348315Y-105528324D02*
X148348315Y-105623562D01*
X148348315Y-105623562D02*
X148395934Y-105718800D01*
X148395934Y-105718800D02*
X148443553Y-105766419D01*
X148443553Y-105766419D02*
X148538791Y-105814038D01*
X148538791Y-105814038D02*
X148872124Y-105814038D01*
X147967362Y-105337848D02*
X147348315Y-105337848D01*
X147348315Y-105337848D02*
X147681648Y-105718800D01*
X147681648Y-105718800D02*
X147538791Y-105718800D01*
X147538791Y-105718800D02*
X147443553Y-105766419D01*
X147443553Y-105766419D02*
X147395934Y-105814038D01*
X147395934Y-105814038D02*
X147348315Y-105909276D01*
X147348315Y-105909276D02*
X147348315Y-106147371D01*
X147348315Y-106147371D02*
X147395934Y-106242609D01*
X147395934Y-106242609D02*
X147443553Y-106290229D01*
X147443553Y-106290229D02*
X147538791Y-106337848D01*
X147538791Y-106337848D02*
X147824505Y-106337848D01*
X147824505Y-106337848D02*
X147919743Y-106290229D01*
X147919743Y-106290229D02*
X147967362Y-106242609D01*
X118780857Y-95550380D02*
X118828476Y-95598000D01*
X118828476Y-95598000D02*
X118971333Y-95645619D01*
X118971333Y-95645619D02*
X119066571Y-95645619D01*
X119066571Y-95645619D02*
X119209428Y-95598000D01*
X119209428Y-95598000D02*
X119304666Y-95502761D01*
X119304666Y-95502761D02*
X119352285Y-95407523D01*
X119352285Y-95407523D02*
X119399904Y-95217047D01*
X119399904Y-95217047D02*
X119399904Y-95074190D01*
X119399904Y-95074190D02*
X119352285Y-94883714D01*
X119352285Y-94883714D02*
X119304666Y-94788476D01*
X119304666Y-94788476D02*
X119209428Y-94693238D01*
X119209428Y-94693238D02*
X119066571Y-94645619D01*
X119066571Y-94645619D02*
X118971333Y-94645619D01*
X118971333Y-94645619D02*
X118828476Y-94693238D01*
X118828476Y-94693238D02*
X118780857Y-94740857D01*
X117923714Y-94645619D02*
X118114190Y-94645619D01*
X118114190Y-94645619D02*
X118209428Y-94693238D01*
X118209428Y-94693238D02*
X118257047Y-94740857D01*
X118257047Y-94740857D02*
X118352285Y-94883714D01*
X118352285Y-94883714D02*
X118399904Y-95074190D01*
X118399904Y-95074190D02*
X118399904Y-95455142D01*
X118399904Y-95455142D02*
X118352285Y-95550380D01*
X118352285Y-95550380D02*
X118304666Y-95598000D01*
X118304666Y-95598000D02*
X118209428Y-95645619D01*
X118209428Y-95645619D02*
X118018952Y-95645619D01*
X118018952Y-95645619D02*
X117923714Y-95598000D01*
X117923714Y-95598000D02*
X117876095Y-95550380D01*
X117876095Y-95550380D02*
X117828476Y-95455142D01*
X117828476Y-95455142D02*
X117828476Y-95217047D01*
X117828476Y-95217047D02*
X117876095Y-95121809D01*
X117876095Y-95121809D02*
X117923714Y-95074190D01*
X117923714Y-95074190D02*
X118018952Y-95026571D01*
X118018952Y-95026571D02*
X118209428Y-95026571D01*
X118209428Y-95026571D02*
X118304666Y-95074190D01*
X118304666Y-95074190D02*
X118352285Y-95121809D01*
X118352285Y-95121809D02*
X118399904Y-95217047D01*
X117495142Y-94645619D02*
X116876095Y-94645619D01*
X116876095Y-94645619D02*
X117209428Y-95026571D01*
X117209428Y-95026571D02*
X117066571Y-95026571D01*
X117066571Y-95026571D02*
X116971333Y-95074190D01*
X116971333Y-95074190D02*
X116923714Y-95121809D01*
X116923714Y-95121809D02*
X116876095Y-95217047D01*
X116876095Y-95217047D02*
X116876095Y-95455142D01*
X116876095Y-95455142D02*
X116923714Y-95550380D01*
X116923714Y-95550380D02*
X116971333Y-95598000D01*
X116971333Y-95598000D02*
X117066571Y-95645619D01*
X117066571Y-95645619D02*
X117352285Y-95645619D01*
X117352285Y-95645619D02*
X117447523Y-95598000D01*
X117447523Y-95598000D02*
X117495142Y-95550380D01*
X121857104Y-117815819D02*
X121857104Y-118625342D01*
X121857104Y-118625342D02*
X121809485Y-118720580D01*
X121809485Y-118720580D02*
X121761866Y-118768200D01*
X121761866Y-118768200D02*
X121666628Y-118815819D01*
X121666628Y-118815819D02*
X121476152Y-118815819D01*
X121476152Y-118815819D02*
X121380914Y-118768200D01*
X121380914Y-118768200D02*
X121333295Y-118720580D01*
X121333295Y-118720580D02*
X121285676Y-118625342D01*
X121285676Y-118625342D02*
X121285676Y-117815819D01*
X120761866Y-118815819D02*
X120571390Y-118815819D01*
X120571390Y-118815819D02*
X120476152Y-118768200D01*
X120476152Y-118768200D02*
X120428533Y-118720580D01*
X120428533Y-118720580D02*
X120333295Y-118577723D01*
X120333295Y-118577723D02*
X120285676Y-118387247D01*
X120285676Y-118387247D02*
X120285676Y-118006295D01*
X120285676Y-118006295D02*
X120333295Y-117911057D01*
X120333295Y-117911057D02*
X120380914Y-117863438D01*
X120380914Y-117863438D02*
X120476152Y-117815819D01*
X120476152Y-117815819D02*
X120666628Y-117815819D01*
X120666628Y-117815819D02*
X120761866Y-117863438D01*
X120761866Y-117863438D02*
X120809485Y-117911057D01*
X120809485Y-117911057D02*
X120857104Y-118006295D01*
X120857104Y-118006295D02*
X120857104Y-118244390D01*
X120857104Y-118244390D02*
X120809485Y-118339628D01*
X120809485Y-118339628D02*
X120761866Y-118387247D01*
X120761866Y-118387247D02*
X120666628Y-118434866D01*
X120666628Y-118434866D02*
X120476152Y-118434866D01*
X120476152Y-118434866D02*
X120380914Y-118387247D01*
X120380914Y-118387247D02*
X120333295Y-118339628D01*
X120333295Y-118339628D02*
X120285676Y-118244390D01*
X152525458Y-39540200D02*
X152477839Y-39444962D01*
X152477839Y-39444962D02*
X152382601Y-39349724D01*
X152382601Y-39349724D02*
X152239743Y-39206867D01*
X152239743Y-39206867D02*
X152192124Y-39111629D01*
X152192124Y-39111629D02*
X152192124Y-39016391D01*
X152430220Y-39064010D02*
X152382601Y-38968772D01*
X152382601Y-38968772D02*
X152287362Y-38873534D01*
X152287362Y-38873534D02*
X152096886Y-38825915D01*
X152096886Y-38825915D02*
X151763553Y-38825915D01*
X151763553Y-38825915D02*
X151573077Y-38873534D01*
X151573077Y-38873534D02*
X151477839Y-38968772D01*
X151477839Y-38968772D02*
X151430220Y-39064010D01*
X151430220Y-39064010D02*
X151430220Y-39254486D01*
X151430220Y-39254486D02*
X151477839Y-39349724D01*
X151477839Y-39349724D02*
X151573077Y-39444962D01*
X151573077Y-39444962D02*
X151763553Y-39492581D01*
X151763553Y-39492581D02*
X152096886Y-39492581D01*
X152096886Y-39492581D02*
X152287362Y-39444962D01*
X152287362Y-39444962D02*
X152382601Y-39349724D01*
X152382601Y-39349724D02*
X152430220Y-39254486D01*
X152430220Y-39254486D02*
X152430220Y-39064010D01*
X152430220Y-40444962D02*
X152430220Y-39873534D01*
X152430220Y-40159248D02*
X151430220Y-40159248D01*
X151430220Y-40159248D02*
X151573077Y-40064010D01*
X151573077Y-40064010D02*
X151668315Y-39968772D01*
X151668315Y-39968772D02*
X151715934Y-39873534D01*
X151430220Y-41064010D02*
X151430220Y-41159248D01*
X151430220Y-41159248D02*
X151477839Y-41254486D01*
X151477839Y-41254486D02*
X151525458Y-41302105D01*
X151525458Y-41302105D02*
X151620696Y-41349724D01*
X151620696Y-41349724D02*
X151811172Y-41397343D01*
X151811172Y-41397343D02*
X152049267Y-41397343D01*
X152049267Y-41397343D02*
X152239743Y-41349724D01*
X152239743Y-41349724D02*
X152334981Y-41302105D01*
X152334981Y-41302105D02*
X152382601Y-41254486D01*
X152382601Y-41254486D02*
X152430220Y-41159248D01*
X152430220Y-41159248D02*
X152430220Y-41064010D01*
X152430220Y-41064010D02*
X152382601Y-40968772D01*
X152382601Y-40968772D02*
X152334981Y-40921153D01*
X152334981Y-40921153D02*
X152239743Y-40873534D01*
X152239743Y-40873534D02*
X152049267Y-40825915D01*
X152049267Y-40825915D02*
X151811172Y-40825915D01*
X151811172Y-40825915D02*
X151620696Y-40873534D01*
X151620696Y-40873534D02*
X151525458Y-40921153D01*
X151525458Y-40921153D02*
X151477839Y-40968772D01*
X151477839Y-40968772D02*
X151430220Y-41064010D01*
X127920761Y-47836942D02*
X127825523Y-47884561D01*
X127825523Y-47884561D02*
X127730285Y-47979800D01*
X127730285Y-47979800D02*
X127587428Y-48122657D01*
X127587428Y-48122657D02*
X127492190Y-48170276D01*
X127492190Y-48170276D02*
X127396952Y-48170276D01*
X127444571Y-47932180D02*
X127349333Y-47979800D01*
X127349333Y-47979800D02*
X127254095Y-48075038D01*
X127254095Y-48075038D02*
X127206476Y-48265514D01*
X127206476Y-48265514D02*
X127206476Y-48598847D01*
X127206476Y-48598847D02*
X127254095Y-48789323D01*
X127254095Y-48789323D02*
X127349333Y-48884561D01*
X127349333Y-48884561D02*
X127444571Y-48932180D01*
X127444571Y-48932180D02*
X127635047Y-48932180D01*
X127635047Y-48932180D02*
X127730285Y-48884561D01*
X127730285Y-48884561D02*
X127825523Y-48789323D01*
X127825523Y-48789323D02*
X127873142Y-48598847D01*
X127873142Y-48598847D02*
X127873142Y-48265514D01*
X127873142Y-48265514D02*
X127825523Y-48075038D01*
X127825523Y-48075038D02*
X127730285Y-47979800D01*
X127730285Y-47979800D02*
X127635047Y-47932180D01*
X127635047Y-47932180D02*
X127444571Y-47932180D01*
X128444571Y-48503609D02*
X128349333Y-48551228D01*
X128349333Y-48551228D02*
X128301714Y-48598847D01*
X128301714Y-48598847D02*
X128254095Y-48694085D01*
X128254095Y-48694085D02*
X128254095Y-48741704D01*
X128254095Y-48741704D02*
X128301714Y-48836942D01*
X128301714Y-48836942D02*
X128349333Y-48884561D01*
X128349333Y-48884561D02*
X128444571Y-48932180D01*
X128444571Y-48932180D02*
X128635047Y-48932180D01*
X128635047Y-48932180D02*
X128730285Y-48884561D01*
X128730285Y-48884561D02*
X128777904Y-48836942D01*
X128777904Y-48836942D02*
X128825523Y-48741704D01*
X128825523Y-48741704D02*
X128825523Y-48694085D01*
X128825523Y-48694085D02*
X128777904Y-48598847D01*
X128777904Y-48598847D02*
X128730285Y-48551228D01*
X128730285Y-48551228D02*
X128635047Y-48503609D01*
X128635047Y-48503609D02*
X128444571Y-48503609D01*
X128444571Y-48503609D02*
X128349333Y-48455990D01*
X128349333Y-48455990D02*
X128301714Y-48408371D01*
X128301714Y-48408371D02*
X128254095Y-48313133D01*
X128254095Y-48313133D02*
X128254095Y-48122657D01*
X128254095Y-48122657D02*
X128301714Y-48027419D01*
X128301714Y-48027419D02*
X128349333Y-47979800D01*
X128349333Y-47979800D02*
X128444571Y-47932180D01*
X128444571Y-47932180D02*
X128635047Y-47932180D01*
X128635047Y-47932180D02*
X128730285Y-47979800D01*
X128730285Y-47979800D02*
X128777904Y-48027419D01*
X128777904Y-48027419D02*
X128825523Y-48122657D01*
X128825523Y-48122657D02*
X128825523Y-48313133D01*
X128825523Y-48313133D02*
X128777904Y-48408371D01*
X128777904Y-48408371D02*
X128730285Y-48455990D01*
X128730285Y-48455990D02*
X128635047Y-48503609D01*
X127216819Y-52705000D02*
X127454914Y-52705000D01*
X127359676Y-52466905D02*
X127454914Y-52705000D01*
X127454914Y-52705000D02*
X127359676Y-52943095D01*
X127645390Y-52562143D02*
X127454914Y-52705000D01*
X127454914Y-52705000D02*
X127645390Y-52847857D01*
X128307180Y-52704999D02*
X128069085Y-52704999D01*
X128164323Y-52943094D02*
X128069085Y-52704999D01*
X128069085Y-52704999D02*
X128164323Y-52466904D01*
X127878609Y-52847856D02*
X128069085Y-52704999D01*
X128069085Y-52704999D02*
X127878609Y-52562142D01*
X134397761Y-55075942D02*
X134302523Y-55123561D01*
X134302523Y-55123561D02*
X134207285Y-55218800D01*
X134207285Y-55218800D02*
X134064428Y-55361657D01*
X134064428Y-55361657D02*
X133969190Y-55409276D01*
X133969190Y-55409276D02*
X133873952Y-55409276D01*
X133921571Y-55171180D02*
X133826333Y-55218800D01*
X133826333Y-55218800D02*
X133731095Y-55314038D01*
X133731095Y-55314038D02*
X133683476Y-55504514D01*
X133683476Y-55504514D02*
X133683476Y-55837847D01*
X133683476Y-55837847D02*
X133731095Y-56028323D01*
X133731095Y-56028323D02*
X133826333Y-56123561D01*
X133826333Y-56123561D02*
X133921571Y-56171180D01*
X133921571Y-56171180D02*
X134112047Y-56171180D01*
X134112047Y-56171180D02*
X134207285Y-56123561D01*
X134207285Y-56123561D02*
X134302523Y-56028323D01*
X134302523Y-56028323D02*
X134350142Y-55837847D01*
X134350142Y-55837847D02*
X134350142Y-55504514D01*
X134350142Y-55504514D02*
X134302523Y-55314038D01*
X134302523Y-55314038D02*
X134207285Y-55218800D01*
X134207285Y-55218800D02*
X134112047Y-55171180D01*
X134112047Y-55171180D02*
X133921571Y-55171180D01*
X134731095Y-56075942D02*
X134778714Y-56123561D01*
X134778714Y-56123561D02*
X134873952Y-56171180D01*
X134873952Y-56171180D02*
X135112047Y-56171180D01*
X135112047Y-56171180D02*
X135207285Y-56123561D01*
X135207285Y-56123561D02*
X135254904Y-56075942D01*
X135254904Y-56075942D02*
X135302523Y-55980704D01*
X135302523Y-55980704D02*
X135302523Y-55885466D01*
X135302523Y-55885466D02*
X135254904Y-55742609D01*
X135254904Y-55742609D02*
X134683476Y-55171180D01*
X134683476Y-55171180D02*
X135302523Y-55171180D01*
X134911180Y-59816999D02*
X134673085Y-59816999D01*
X134768323Y-60055094D02*
X134673085Y-59816999D01*
X134673085Y-59816999D02*
X134768323Y-59578904D01*
X134482609Y-59959856D02*
X134673085Y-59816999D01*
X134673085Y-59816999D02*
X134482609Y-59674142D01*
X133820819Y-59817000D02*
X134058914Y-59817000D01*
X133963676Y-59578905D02*
X134058914Y-59817000D01*
X134058914Y-59817000D02*
X133963676Y-60055095D01*
X134249390Y-59674143D02*
X134058914Y-59817000D01*
X134058914Y-59817000D02*
X134249390Y-59959857D01*
X151997580Y-97655142D02*
X152045200Y-97607523D01*
X152045200Y-97607523D02*
X152092819Y-97464666D01*
X152092819Y-97464666D02*
X152092819Y-97369428D01*
X152092819Y-97369428D02*
X152045200Y-97226571D01*
X152045200Y-97226571D02*
X151949961Y-97131333D01*
X151949961Y-97131333D02*
X151854723Y-97083714D01*
X151854723Y-97083714D02*
X151664247Y-97036095D01*
X151664247Y-97036095D02*
X151521390Y-97036095D01*
X151521390Y-97036095D02*
X151330914Y-97083714D01*
X151330914Y-97083714D02*
X151235676Y-97131333D01*
X151235676Y-97131333D02*
X151140438Y-97226571D01*
X151140438Y-97226571D02*
X151092819Y-97369428D01*
X151092819Y-97369428D02*
X151092819Y-97464666D01*
X151092819Y-97464666D02*
X151140438Y-97607523D01*
X151140438Y-97607523D02*
X151188057Y-97655142D01*
X151092819Y-97988476D02*
X151092819Y-98607523D01*
X151092819Y-98607523D02*
X151473771Y-98274190D01*
X151473771Y-98274190D02*
X151473771Y-98417047D01*
X151473771Y-98417047D02*
X151521390Y-98512285D01*
X151521390Y-98512285D02*
X151569009Y-98559904D01*
X151569009Y-98559904D02*
X151664247Y-98607523D01*
X151664247Y-98607523D02*
X151902342Y-98607523D01*
X151902342Y-98607523D02*
X151997580Y-98559904D01*
X151997580Y-98559904D02*
X152045200Y-98512285D01*
X152045200Y-98512285D02*
X152092819Y-98417047D01*
X152092819Y-98417047D02*
X152092819Y-98131333D01*
X152092819Y-98131333D02*
X152045200Y-98036095D01*
X152045200Y-98036095D02*
X151997580Y-97988476D01*
X151092819Y-98940857D02*
X151092819Y-99559904D01*
X151092819Y-99559904D02*
X151473771Y-99226571D01*
X151473771Y-99226571D02*
X151473771Y-99369428D01*
X151473771Y-99369428D02*
X151521390Y-99464666D01*
X151521390Y-99464666D02*
X151569009Y-99512285D01*
X151569009Y-99512285D02*
X151664247Y-99559904D01*
X151664247Y-99559904D02*
X151902342Y-99559904D01*
X151902342Y-99559904D02*
X151997580Y-99512285D01*
X151997580Y-99512285D02*
X152045200Y-99464666D01*
X152045200Y-99464666D02*
X152092819Y-99369428D01*
X152092819Y-99369428D02*
X152092819Y-99083714D01*
X152092819Y-99083714D02*
X152045200Y-98988476D01*
X152045200Y-98988476D02*
X151997580Y-98940857D01*
X123871657Y-122296980D02*
X123919276Y-122344600D01*
X123919276Y-122344600D02*
X124062133Y-122392219D01*
X124062133Y-122392219D02*
X124157371Y-122392219D01*
X124157371Y-122392219D02*
X124300228Y-122344600D01*
X124300228Y-122344600D02*
X124395466Y-122249361D01*
X124395466Y-122249361D02*
X124443085Y-122154123D01*
X124443085Y-122154123D02*
X124490704Y-121963647D01*
X124490704Y-121963647D02*
X124490704Y-121820790D01*
X124490704Y-121820790D02*
X124443085Y-121630314D01*
X124443085Y-121630314D02*
X124395466Y-121535076D01*
X124395466Y-121535076D02*
X124300228Y-121439838D01*
X124300228Y-121439838D02*
X124157371Y-121392219D01*
X124157371Y-121392219D02*
X124062133Y-121392219D01*
X124062133Y-121392219D02*
X123919276Y-121439838D01*
X123919276Y-121439838D02*
X123871657Y-121487457D01*
X122966895Y-121392219D02*
X123443085Y-121392219D01*
X123443085Y-121392219D02*
X123490704Y-121868409D01*
X123490704Y-121868409D02*
X123443085Y-121820790D01*
X123443085Y-121820790D02*
X123347847Y-121773171D01*
X123347847Y-121773171D02*
X123109752Y-121773171D01*
X123109752Y-121773171D02*
X123014514Y-121820790D01*
X123014514Y-121820790D02*
X122966895Y-121868409D01*
X122966895Y-121868409D02*
X122919276Y-121963647D01*
X122919276Y-121963647D02*
X122919276Y-122201742D01*
X122919276Y-122201742D02*
X122966895Y-122296980D01*
X122966895Y-122296980D02*
X123014514Y-122344600D01*
X123014514Y-122344600D02*
X123109752Y-122392219D01*
X123109752Y-122392219D02*
X123347847Y-122392219D01*
X123347847Y-122392219D02*
X123443085Y-122344600D01*
X123443085Y-122344600D02*
X123490704Y-122296980D01*
X122347847Y-121820790D02*
X122443085Y-121773171D01*
X122443085Y-121773171D02*
X122490704Y-121725552D01*
X122490704Y-121725552D02*
X122538323Y-121630314D01*
X122538323Y-121630314D02*
X122538323Y-121582695D01*
X122538323Y-121582695D02*
X122490704Y-121487457D01*
X122490704Y-121487457D02*
X122443085Y-121439838D01*
X122443085Y-121439838D02*
X122347847Y-121392219D01*
X122347847Y-121392219D02*
X122157371Y-121392219D01*
X122157371Y-121392219D02*
X122062133Y-121439838D01*
X122062133Y-121439838D02*
X122014514Y-121487457D01*
X122014514Y-121487457D02*
X121966895Y-121582695D01*
X121966895Y-121582695D02*
X121966895Y-121630314D01*
X121966895Y-121630314D02*
X122014514Y-121725552D01*
X122014514Y-121725552D02*
X122062133Y-121773171D01*
X122062133Y-121773171D02*
X122157371Y-121820790D01*
X122157371Y-121820790D02*
X122347847Y-121820790D01*
X122347847Y-121820790D02*
X122443085Y-121868409D01*
X122443085Y-121868409D02*
X122490704Y-121916028D01*
X122490704Y-121916028D02*
X122538323Y-122011266D01*
X122538323Y-122011266D02*
X122538323Y-122201742D01*
X122538323Y-122201742D02*
X122490704Y-122296980D01*
X122490704Y-122296980D02*
X122443085Y-122344600D01*
X122443085Y-122344600D02*
X122347847Y-122392219D01*
X122347847Y-122392219D02*
X122157371Y-122392219D01*
X122157371Y-122392219D02*
X122062133Y-122344600D01*
X122062133Y-122344600D02*
X122014514Y-122296980D01*
X122014514Y-122296980D02*
X121966895Y-122201742D01*
X121966895Y-122201742D02*
X121966895Y-122011266D01*
X121966895Y-122011266D02*
X122014514Y-121916028D01*
X122014514Y-121916028D02*
X122062133Y-121868409D01*
X122062133Y-121868409D02*
X122157371Y-121820790D01*
X134524761Y-47836942D02*
X134429523Y-47884561D01*
X134429523Y-47884561D02*
X134334285Y-47979800D01*
X134334285Y-47979800D02*
X134191428Y-48122657D01*
X134191428Y-48122657D02*
X134096190Y-48170276D01*
X134096190Y-48170276D02*
X134000952Y-48170276D01*
X134048571Y-47932180D02*
X133953333Y-47979800D01*
X133953333Y-47979800D02*
X133858095Y-48075038D01*
X133858095Y-48075038D02*
X133810476Y-48265514D01*
X133810476Y-48265514D02*
X133810476Y-48598847D01*
X133810476Y-48598847D02*
X133858095Y-48789323D01*
X133858095Y-48789323D02*
X133953333Y-48884561D01*
X133953333Y-48884561D02*
X134048571Y-48932180D01*
X134048571Y-48932180D02*
X134239047Y-48932180D01*
X134239047Y-48932180D02*
X134334285Y-48884561D01*
X134334285Y-48884561D02*
X134429523Y-48789323D01*
X134429523Y-48789323D02*
X134477142Y-48598847D01*
X134477142Y-48598847D02*
X134477142Y-48265514D01*
X134477142Y-48265514D02*
X134429523Y-48075038D01*
X134429523Y-48075038D02*
X134334285Y-47979800D01*
X134334285Y-47979800D02*
X134239047Y-47932180D01*
X134239047Y-47932180D02*
X134048571Y-47932180D01*
X135334285Y-48598847D02*
X135334285Y-47932180D01*
X135096190Y-48979800D02*
X134858095Y-48265514D01*
X134858095Y-48265514D02*
X135477142Y-48265514D01*
X134911180Y-52704999D02*
X134673085Y-52704999D01*
X134768323Y-52943094D02*
X134673085Y-52704999D01*
X134673085Y-52704999D02*
X134768323Y-52466904D01*
X134482609Y-52847856D02*
X134673085Y-52704999D01*
X134673085Y-52704999D02*
X134482609Y-52562142D01*
X133820819Y-52705000D02*
X134058914Y-52705000D01*
X133963676Y-52466905D02*
X134058914Y-52705000D01*
X134058914Y-52705000D02*
X133963676Y-52943095D01*
X134249390Y-52562143D02*
X134058914Y-52705000D01*
X134058914Y-52705000D02*
X134249390Y-52847857D01*
X141823220Y-62460534D02*
X140823220Y-62460534D01*
X140823220Y-62460534D02*
X140823220Y-62698629D01*
X140823220Y-62698629D02*
X140870839Y-62841486D01*
X140870839Y-62841486D02*
X140966077Y-62936724D01*
X140966077Y-62936724D02*
X141061315Y-62984343D01*
X141061315Y-62984343D02*
X141251791Y-63031962D01*
X141251791Y-63031962D02*
X141394648Y-63031962D01*
X141394648Y-63031962D02*
X141585124Y-62984343D01*
X141585124Y-62984343D02*
X141680362Y-62936724D01*
X141680362Y-62936724D02*
X141775601Y-62841486D01*
X141775601Y-62841486D02*
X141823220Y-62698629D01*
X141823220Y-62698629D02*
X141823220Y-62460534D01*
X140823220Y-63936724D02*
X140823220Y-63460534D01*
X140823220Y-63460534D02*
X141299410Y-63412915D01*
X141299410Y-63412915D02*
X141251791Y-63460534D01*
X141251791Y-63460534D02*
X141204172Y-63555772D01*
X141204172Y-63555772D02*
X141204172Y-63793867D01*
X141204172Y-63793867D02*
X141251791Y-63889105D01*
X141251791Y-63889105D02*
X141299410Y-63936724D01*
X141299410Y-63936724D02*
X141394648Y-63984343D01*
X141394648Y-63984343D02*
X141632743Y-63984343D01*
X141632743Y-63984343D02*
X141727981Y-63936724D01*
X141727981Y-63936724D02*
X141775601Y-63889105D01*
X141775601Y-63889105D02*
X141823220Y-63793867D01*
X141823220Y-63793867D02*
X141823220Y-63555772D01*
X141823220Y-63555772D02*
X141775601Y-63460534D01*
X141775601Y-63460534D02*
X141727981Y-63412915D01*
X146746181Y-107198571D02*
X146793801Y-107150952D01*
X146793801Y-107150952D02*
X146841420Y-107008095D01*
X146841420Y-107008095D02*
X146841420Y-106912857D01*
X146841420Y-106912857D02*
X146793801Y-106770000D01*
X146793801Y-106770000D02*
X146698562Y-106674762D01*
X146698562Y-106674762D02*
X146603324Y-106627143D01*
X146603324Y-106627143D02*
X146412848Y-106579524D01*
X146412848Y-106579524D02*
X146269991Y-106579524D01*
X146269991Y-106579524D02*
X146079515Y-106627143D01*
X146079515Y-106627143D02*
X145984277Y-106674762D01*
X145984277Y-106674762D02*
X145889039Y-106770000D01*
X145889039Y-106770000D02*
X145841420Y-106912857D01*
X145841420Y-106912857D02*
X145841420Y-107008095D01*
X145841420Y-107008095D02*
X145889039Y-107150952D01*
X145889039Y-107150952D02*
X145936658Y-107198571D01*
X145841420Y-107531905D02*
X145841420Y-108150952D01*
X145841420Y-108150952D02*
X146222372Y-107817619D01*
X146222372Y-107817619D02*
X146222372Y-107960476D01*
X146222372Y-107960476D02*
X146269991Y-108055714D01*
X146269991Y-108055714D02*
X146317610Y-108103333D01*
X146317610Y-108103333D02*
X146412848Y-108150952D01*
X146412848Y-108150952D02*
X146650943Y-108150952D01*
X146650943Y-108150952D02*
X146746181Y-108103333D01*
X146746181Y-108103333D02*
X146793801Y-108055714D01*
X146793801Y-108055714D02*
X146841420Y-107960476D01*
X146841420Y-107960476D02*
X146841420Y-107674762D01*
X146841420Y-107674762D02*
X146793801Y-107579524D01*
X146793801Y-107579524D02*
X146746181Y-107531905D01*
X145841420Y-109055714D02*
X145841420Y-108579524D01*
X145841420Y-108579524D02*
X146317610Y-108531905D01*
X146317610Y-108531905D02*
X146269991Y-108579524D01*
X146269991Y-108579524D02*
X146222372Y-108674762D01*
X146222372Y-108674762D02*
X146222372Y-108912857D01*
X146222372Y-108912857D02*
X146269991Y-109008095D01*
X146269991Y-109008095D02*
X146317610Y-109055714D01*
X146317610Y-109055714D02*
X146412848Y-109103333D01*
X146412848Y-109103333D02*
X146650943Y-109103333D01*
X146650943Y-109103333D02*
X146746181Y-109055714D01*
X146746181Y-109055714D02*
X146793801Y-109008095D01*
X146793801Y-109008095D02*
X146841420Y-108912857D01*
X146841420Y-108912857D02*
X146841420Y-108674762D01*
X146841420Y-108674762D02*
X146793801Y-108579524D01*
X146793801Y-108579524D02*
X146746181Y-108531905D01*
X121921981Y-111564771D02*
X121969601Y-111517152D01*
X121969601Y-111517152D02*
X122017220Y-111374295D01*
X122017220Y-111374295D02*
X122017220Y-111279057D01*
X122017220Y-111279057D02*
X121969601Y-111136200D01*
X121969601Y-111136200D02*
X121874362Y-111040962D01*
X121874362Y-111040962D02*
X121779124Y-110993343D01*
X121779124Y-110993343D02*
X121588648Y-110945724D01*
X121588648Y-110945724D02*
X121445791Y-110945724D01*
X121445791Y-110945724D02*
X121255315Y-110993343D01*
X121255315Y-110993343D02*
X121160077Y-111040962D01*
X121160077Y-111040962D02*
X121064839Y-111136200D01*
X121064839Y-111136200D02*
X121017220Y-111279057D01*
X121017220Y-111279057D02*
X121017220Y-111374295D01*
X121017220Y-111374295D02*
X121064839Y-111517152D01*
X121064839Y-111517152D02*
X121112458Y-111564771D01*
X122017220Y-112517152D02*
X122017220Y-111945724D01*
X122017220Y-112231438D02*
X121017220Y-112231438D01*
X121017220Y-112231438D02*
X121160077Y-112136200D01*
X121160077Y-112136200D02*
X121255315Y-112040962D01*
X121255315Y-112040962D02*
X121302934Y-111945724D01*
X121350553Y-113374295D02*
X122017220Y-113374295D01*
X120969601Y-113136200D02*
X121683886Y-112898105D01*
X121683886Y-112898105D02*
X121683886Y-113517152D01*
X139646819Y-28711771D02*
X139170628Y-28378438D01*
X139646819Y-28140343D02*
X138646819Y-28140343D01*
X138646819Y-28140343D02*
X138646819Y-28521295D01*
X138646819Y-28521295D02*
X138694438Y-28616533D01*
X138694438Y-28616533D02*
X138742057Y-28664152D01*
X138742057Y-28664152D02*
X138837295Y-28711771D01*
X138837295Y-28711771D02*
X138980152Y-28711771D01*
X138980152Y-28711771D02*
X139075390Y-28664152D01*
X139075390Y-28664152D02*
X139123009Y-28616533D01*
X139123009Y-28616533D02*
X139170628Y-28521295D01*
X139170628Y-28521295D02*
X139170628Y-28140343D01*
X138742057Y-29092724D02*
X138694438Y-29140343D01*
X138694438Y-29140343D02*
X138646819Y-29235581D01*
X138646819Y-29235581D02*
X138646819Y-29473676D01*
X138646819Y-29473676D02*
X138694438Y-29568914D01*
X138694438Y-29568914D02*
X138742057Y-29616533D01*
X138742057Y-29616533D02*
X138837295Y-29664152D01*
X138837295Y-29664152D02*
X138932533Y-29664152D01*
X138932533Y-29664152D02*
X139075390Y-29616533D01*
X139075390Y-29616533D02*
X139646819Y-29045105D01*
X139646819Y-29045105D02*
X139646819Y-29664152D01*
X138742057Y-30045105D02*
X138694438Y-30092724D01*
X138694438Y-30092724D02*
X138646819Y-30187962D01*
X138646819Y-30187962D02*
X138646819Y-30426057D01*
X138646819Y-30426057D02*
X138694438Y-30521295D01*
X138694438Y-30521295D02*
X138742057Y-30568914D01*
X138742057Y-30568914D02*
X138837295Y-30616533D01*
X138837295Y-30616533D02*
X138932533Y-30616533D01*
X138932533Y-30616533D02*
X139075390Y-30568914D01*
X139075390Y-30568914D02*
X139646819Y-29997486D01*
X139646819Y-29997486D02*
X139646819Y-30616533D01*
X152430134Y-109852638D02*
X152763467Y-109852638D01*
X152763467Y-110376448D02*
X152763467Y-109376448D01*
X152763467Y-109376448D02*
X152287277Y-109376448D01*
X151572991Y-109852638D02*
X151430134Y-109900257D01*
X151430134Y-109900257D02*
X151382515Y-109947876D01*
X151382515Y-109947876D02*
X151334896Y-110043114D01*
X151334896Y-110043114D02*
X151334896Y-110185971D01*
X151334896Y-110185971D02*
X151382515Y-110281209D01*
X151382515Y-110281209D02*
X151430134Y-110328829D01*
X151430134Y-110328829D02*
X151525372Y-110376448D01*
X151525372Y-110376448D02*
X151906324Y-110376448D01*
X151906324Y-110376448D02*
X151906324Y-109376448D01*
X151906324Y-109376448D02*
X151572991Y-109376448D01*
X151572991Y-109376448D02*
X151477753Y-109424067D01*
X151477753Y-109424067D02*
X151430134Y-109471686D01*
X151430134Y-109471686D02*
X151382515Y-109566924D01*
X151382515Y-109566924D02*
X151382515Y-109662162D01*
X151382515Y-109662162D02*
X151430134Y-109757400D01*
X151430134Y-109757400D02*
X151477753Y-109805019D01*
X151477753Y-109805019D02*
X151572991Y-109852638D01*
X151572991Y-109852638D02*
X151906324Y-109852638D01*
X150953943Y-109471686D02*
X150906324Y-109424067D01*
X150906324Y-109424067D02*
X150811086Y-109376448D01*
X150811086Y-109376448D02*
X150572991Y-109376448D01*
X150572991Y-109376448D02*
X150477753Y-109424067D01*
X150477753Y-109424067D02*
X150430134Y-109471686D01*
X150430134Y-109471686D02*
X150382515Y-109566924D01*
X150382515Y-109566924D02*
X150382515Y-109662162D01*
X150382515Y-109662162D02*
X150430134Y-109805019D01*
X150430134Y-109805019D02*
X151001562Y-110376448D01*
X151001562Y-110376448D02*
X150382515Y-110376448D01*
X139875458Y-44215200D02*
X139827839Y-44119962D01*
X139827839Y-44119962D02*
X139732601Y-44024724D01*
X139732601Y-44024724D02*
X139589743Y-43881867D01*
X139589743Y-43881867D02*
X139542124Y-43786629D01*
X139542124Y-43786629D02*
X139542124Y-43691391D01*
X139780220Y-43739010D02*
X139732601Y-43643772D01*
X139732601Y-43643772D02*
X139637362Y-43548534D01*
X139637362Y-43548534D02*
X139446886Y-43500915D01*
X139446886Y-43500915D02*
X139113553Y-43500915D01*
X139113553Y-43500915D02*
X138923077Y-43548534D01*
X138923077Y-43548534D02*
X138827839Y-43643772D01*
X138827839Y-43643772D02*
X138780220Y-43739010D01*
X138780220Y-43739010D02*
X138780220Y-43929486D01*
X138780220Y-43929486D02*
X138827839Y-44024724D01*
X138827839Y-44024724D02*
X138923077Y-44119962D01*
X138923077Y-44119962D02*
X139113553Y-44167581D01*
X139113553Y-44167581D02*
X139446886Y-44167581D01*
X139446886Y-44167581D02*
X139637362Y-44119962D01*
X139637362Y-44119962D02*
X139732601Y-44024724D01*
X139732601Y-44024724D02*
X139780220Y-43929486D01*
X139780220Y-43929486D02*
X139780220Y-43739010D01*
X139780220Y-45119962D02*
X139780220Y-44548534D01*
X139780220Y-44834248D02*
X138780220Y-44834248D01*
X138780220Y-44834248D02*
X138923077Y-44739010D01*
X138923077Y-44739010D02*
X139018315Y-44643772D01*
X139018315Y-44643772D02*
X139065934Y-44548534D01*
X139780220Y-46072343D02*
X139780220Y-45500915D01*
X139780220Y-45786629D02*
X138780220Y-45786629D01*
X138780220Y-45786629D02*
X138923077Y-45691391D01*
X138923077Y-45691391D02*
X139018315Y-45596153D01*
X139018315Y-45596153D02*
X139065934Y-45500915D01*
X153521580Y-98290142D02*
X153569200Y-98242523D01*
X153569200Y-98242523D02*
X153616819Y-98099666D01*
X153616819Y-98099666D02*
X153616819Y-98004428D01*
X153616819Y-98004428D02*
X153569200Y-97861571D01*
X153569200Y-97861571D02*
X153473961Y-97766333D01*
X153473961Y-97766333D02*
X153378723Y-97718714D01*
X153378723Y-97718714D02*
X153188247Y-97671095D01*
X153188247Y-97671095D02*
X153045390Y-97671095D01*
X153045390Y-97671095D02*
X152854914Y-97718714D01*
X152854914Y-97718714D02*
X152759676Y-97766333D01*
X152759676Y-97766333D02*
X152664438Y-97861571D01*
X152664438Y-97861571D02*
X152616819Y-98004428D01*
X152616819Y-98004428D02*
X152616819Y-98099666D01*
X152616819Y-98099666D02*
X152664438Y-98242523D01*
X152664438Y-98242523D02*
X152712057Y-98290142D01*
X152616819Y-98623476D02*
X152616819Y-99242523D01*
X152616819Y-99242523D02*
X152997771Y-98909190D01*
X152997771Y-98909190D02*
X152997771Y-99052047D01*
X152997771Y-99052047D02*
X153045390Y-99147285D01*
X153045390Y-99147285D02*
X153093009Y-99194904D01*
X153093009Y-99194904D02*
X153188247Y-99242523D01*
X153188247Y-99242523D02*
X153426342Y-99242523D01*
X153426342Y-99242523D02*
X153521580Y-99194904D01*
X153521580Y-99194904D02*
X153569200Y-99147285D01*
X153569200Y-99147285D02*
X153616819Y-99052047D01*
X153616819Y-99052047D02*
X153616819Y-98766333D01*
X153616819Y-98766333D02*
X153569200Y-98671095D01*
X153569200Y-98671095D02*
X153521580Y-98623476D01*
X153045390Y-99813952D02*
X152997771Y-99718714D01*
X152997771Y-99718714D02*
X152950152Y-99671095D01*
X152950152Y-99671095D02*
X152854914Y-99623476D01*
X152854914Y-99623476D02*
X152807295Y-99623476D01*
X152807295Y-99623476D02*
X152712057Y-99671095D01*
X152712057Y-99671095D02*
X152664438Y-99718714D01*
X152664438Y-99718714D02*
X152616819Y-99813952D01*
X152616819Y-99813952D02*
X152616819Y-100004428D01*
X152616819Y-100004428D02*
X152664438Y-100099666D01*
X152664438Y-100099666D02*
X152712057Y-100147285D01*
X152712057Y-100147285D02*
X152807295Y-100194904D01*
X152807295Y-100194904D02*
X152854914Y-100194904D01*
X152854914Y-100194904D02*
X152950152Y-100147285D01*
X152950152Y-100147285D02*
X152997771Y-100099666D01*
X152997771Y-100099666D02*
X153045390Y-100004428D01*
X153045390Y-100004428D02*
X153045390Y-99813952D01*
X153045390Y-99813952D02*
X153093009Y-99718714D01*
X153093009Y-99718714D02*
X153140628Y-99671095D01*
X153140628Y-99671095D02*
X153235866Y-99623476D01*
X153235866Y-99623476D02*
X153426342Y-99623476D01*
X153426342Y-99623476D02*
X153521580Y-99671095D01*
X153521580Y-99671095D02*
X153569200Y-99718714D01*
X153569200Y-99718714D02*
X153616819Y-99813952D01*
X153616819Y-99813952D02*
X153616819Y-100004428D01*
X153616819Y-100004428D02*
X153569200Y-100099666D01*
X153569200Y-100099666D02*
X153521580Y-100147285D01*
X153521580Y-100147285D02*
X153426342Y-100194904D01*
X153426342Y-100194904D02*
X153235866Y-100194904D01*
X153235866Y-100194904D02*
X153140628Y-100147285D01*
X153140628Y-100147285D02*
X153093009Y-100099666D01*
X153093009Y-100099666D02*
X153045390Y-100004428D01*
X116924057Y-120215819D02*
X117257390Y-119739628D01*
X117495485Y-120215819D02*
X117495485Y-119215819D01*
X117495485Y-119215819D02*
X117114533Y-119215819D01*
X117114533Y-119215819D02*
X117019295Y-119263438D01*
X117019295Y-119263438D02*
X116971676Y-119311057D01*
X116971676Y-119311057D02*
X116924057Y-119406295D01*
X116924057Y-119406295D02*
X116924057Y-119549152D01*
X116924057Y-119549152D02*
X116971676Y-119644390D01*
X116971676Y-119644390D02*
X117019295Y-119692009D01*
X117019295Y-119692009D02*
X117114533Y-119739628D01*
X117114533Y-119739628D02*
X117495485Y-119739628D01*
X116590723Y-119215819D02*
X115971676Y-119215819D01*
X115971676Y-119215819D02*
X116305009Y-119596771D01*
X116305009Y-119596771D02*
X116162152Y-119596771D01*
X116162152Y-119596771D02*
X116066914Y-119644390D01*
X116066914Y-119644390D02*
X116019295Y-119692009D01*
X116019295Y-119692009D02*
X115971676Y-119787247D01*
X115971676Y-119787247D02*
X115971676Y-120025342D01*
X115971676Y-120025342D02*
X116019295Y-120120580D01*
X116019295Y-120120580D02*
X116066914Y-120168200D01*
X116066914Y-120168200D02*
X116162152Y-120215819D01*
X116162152Y-120215819D02*
X116447866Y-120215819D01*
X116447866Y-120215819D02*
X116543104Y-120168200D01*
X116543104Y-120168200D02*
X116590723Y-120120580D01*
X115590723Y-119311057D02*
X115543104Y-119263438D01*
X115543104Y-119263438D02*
X115447866Y-119215819D01*
X115447866Y-119215819D02*
X115209771Y-119215819D01*
X115209771Y-119215819D02*
X115114533Y-119263438D01*
X115114533Y-119263438D02*
X115066914Y-119311057D01*
X115066914Y-119311057D02*
X115019295Y-119406295D01*
X115019295Y-119406295D02*
X115019295Y-119501533D01*
X115019295Y-119501533D02*
X115066914Y-119644390D01*
X115066914Y-119644390D02*
X115638342Y-120215819D01*
X115638342Y-120215819D02*
X115019295Y-120215819D01*
X116887523Y-93522248D02*
X116887523Y-94236533D01*
X116887523Y-94236533D02*
X116935142Y-94379390D01*
X116935142Y-94379390D02*
X117030380Y-94474629D01*
X117030380Y-94474629D02*
X117173237Y-94522248D01*
X117173237Y-94522248D02*
X117268475Y-94522248D01*
X116458951Y-93617486D02*
X116411332Y-93569867D01*
X116411332Y-93569867D02*
X116316094Y-93522248D01*
X116316094Y-93522248D02*
X116077999Y-93522248D01*
X116077999Y-93522248D02*
X115982761Y-93569867D01*
X115982761Y-93569867D02*
X115935142Y-93617486D01*
X115935142Y-93617486D02*
X115887523Y-93712724D01*
X115887523Y-93712724D02*
X115887523Y-93807962D01*
X115887523Y-93807962D02*
X115935142Y-93950819D01*
X115935142Y-93950819D02*
X116506570Y-94522248D01*
X116506570Y-94522248D02*
X115887523Y-94522248D01*
X114935142Y-94522248D02*
X115506570Y-94522248D01*
X115220856Y-94522248D02*
X115220856Y-93522248D01*
X115220856Y-93522248D02*
X115316094Y-93665105D01*
X115316094Y-93665105D02*
X115411332Y-93760343D01*
X115411332Y-93760343D02*
X115506570Y-93807962D01*
X144750220Y-72607534D02*
X143750220Y-72607534D01*
X143750220Y-72607534D02*
X143750220Y-72845629D01*
X143750220Y-72845629D02*
X143797839Y-72988486D01*
X143797839Y-72988486D02*
X143893077Y-73083724D01*
X143893077Y-73083724D02*
X143988315Y-73131343D01*
X143988315Y-73131343D02*
X144178791Y-73178962D01*
X144178791Y-73178962D02*
X144321648Y-73178962D01*
X144321648Y-73178962D02*
X144512124Y-73131343D01*
X144512124Y-73131343D02*
X144607362Y-73083724D01*
X144607362Y-73083724D02*
X144702601Y-72988486D01*
X144702601Y-72988486D02*
X144750220Y-72845629D01*
X144750220Y-72845629D02*
X144750220Y-72607534D01*
X143750220Y-73512296D02*
X143750220Y-74178962D01*
X143750220Y-74178962D02*
X144750220Y-73750391D01*
X153438123Y-92647419D02*
X153438123Y-93361704D01*
X153438123Y-93361704D02*
X153485742Y-93504561D01*
X153485742Y-93504561D02*
X153580980Y-93599800D01*
X153580980Y-93599800D02*
X153723837Y-93647419D01*
X153723837Y-93647419D02*
X153819075Y-93647419D01*
X153009551Y-92742657D02*
X152961932Y-92695038D01*
X152961932Y-92695038D02*
X152866694Y-92647419D01*
X152866694Y-92647419D02*
X152628599Y-92647419D01*
X152628599Y-92647419D02*
X152533361Y-92695038D01*
X152533361Y-92695038D02*
X152485742Y-92742657D01*
X152485742Y-92742657D02*
X152438123Y-92837895D01*
X152438123Y-92837895D02*
X152438123Y-92933133D01*
X152438123Y-92933133D02*
X152485742Y-93075990D01*
X152485742Y-93075990D02*
X153057170Y-93647419D01*
X153057170Y-93647419D02*
X152438123Y-93647419D01*
X152057170Y-92742657D02*
X152009551Y-92695038D01*
X152009551Y-92695038D02*
X151914313Y-92647419D01*
X151914313Y-92647419D02*
X151676218Y-92647419D01*
X151676218Y-92647419D02*
X151580980Y-92695038D01*
X151580980Y-92695038D02*
X151533361Y-92742657D01*
X151533361Y-92742657D02*
X151485742Y-92837895D01*
X151485742Y-92837895D02*
X151485742Y-92933133D01*
X151485742Y-92933133D02*
X151533361Y-93075990D01*
X151533361Y-93075990D02*
X152104789Y-93647419D01*
X152104789Y-93647419D02*
X151485742Y-93647419D01*
X123219905Y-93526848D02*
X123219905Y-94336371D01*
X123219905Y-94336371D02*
X123172286Y-94431609D01*
X123172286Y-94431609D02*
X123124667Y-94479229D01*
X123124667Y-94479229D02*
X123029429Y-94526848D01*
X123029429Y-94526848D02*
X122838953Y-94526848D01*
X122838953Y-94526848D02*
X122743715Y-94479229D01*
X122743715Y-94479229D02*
X122696096Y-94431609D01*
X122696096Y-94431609D02*
X122648477Y-94336371D01*
X122648477Y-94336371D02*
X122648477Y-93526848D01*
X122219905Y-93622086D02*
X122172286Y-93574467D01*
X122172286Y-93574467D02*
X122077048Y-93526848D01*
X122077048Y-93526848D02*
X121838953Y-93526848D01*
X121838953Y-93526848D02*
X121743715Y-93574467D01*
X121743715Y-93574467D02*
X121696096Y-93622086D01*
X121696096Y-93622086D02*
X121648477Y-93717324D01*
X121648477Y-93717324D02*
X121648477Y-93812562D01*
X121648477Y-93812562D02*
X121696096Y-93955419D01*
X121696096Y-93955419D02*
X122267524Y-94526848D01*
X122267524Y-94526848D02*
X121648477Y-94526848D01*
X127920761Y-54948942D02*
X127825523Y-54996561D01*
X127825523Y-54996561D02*
X127730285Y-55091800D01*
X127730285Y-55091800D02*
X127587428Y-55234657D01*
X127587428Y-55234657D02*
X127492190Y-55282276D01*
X127492190Y-55282276D02*
X127396952Y-55282276D01*
X127444571Y-55044180D02*
X127349333Y-55091800D01*
X127349333Y-55091800D02*
X127254095Y-55187038D01*
X127254095Y-55187038D02*
X127206476Y-55377514D01*
X127206476Y-55377514D02*
X127206476Y-55710847D01*
X127206476Y-55710847D02*
X127254095Y-55901323D01*
X127254095Y-55901323D02*
X127349333Y-55996561D01*
X127349333Y-55996561D02*
X127444571Y-56044180D01*
X127444571Y-56044180D02*
X127635047Y-56044180D01*
X127635047Y-56044180D02*
X127730285Y-55996561D01*
X127730285Y-55996561D02*
X127825523Y-55901323D01*
X127825523Y-55901323D02*
X127873142Y-55710847D01*
X127873142Y-55710847D02*
X127873142Y-55377514D01*
X127873142Y-55377514D02*
X127825523Y-55187038D01*
X127825523Y-55187038D02*
X127730285Y-55091800D01*
X127730285Y-55091800D02*
X127635047Y-55044180D01*
X127635047Y-55044180D02*
X127444571Y-55044180D01*
X128730285Y-56044180D02*
X128539809Y-56044180D01*
X128539809Y-56044180D02*
X128444571Y-55996561D01*
X128444571Y-55996561D02*
X128396952Y-55948942D01*
X128396952Y-55948942D02*
X128301714Y-55806085D01*
X128301714Y-55806085D02*
X128254095Y-55615609D01*
X128254095Y-55615609D02*
X128254095Y-55234657D01*
X128254095Y-55234657D02*
X128301714Y-55139419D01*
X128301714Y-55139419D02*
X128349333Y-55091800D01*
X128349333Y-55091800D02*
X128444571Y-55044180D01*
X128444571Y-55044180D02*
X128635047Y-55044180D01*
X128635047Y-55044180D02*
X128730285Y-55091800D01*
X128730285Y-55091800D02*
X128777904Y-55139419D01*
X128777904Y-55139419D02*
X128825523Y-55234657D01*
X128825523Y-55234657D02*
X128825523Y-55472752D01*
X128825523Y-55472752D02*
X128777904Y-55567990D01*
X128777904Y-55567990D02*
X128730285Y-55615609D01*
X128730285Y-55615609D02*
X128635047Y-55663228D01*
X128635047Y-55663228D02*
X128444571Y-55663228D01*
X128444571Y-55663228D02*
X128349333Y-55615609D01*
X128349333Y-55615609D02*
X128301714Y-55567990D01*
X128301714Y-55567990D02*
X128254095Y-55472752D01*
X128307180Y-59816999D02*
X128069085Y-59816999D01*
X128164323Y-60055094D02*
X128069085Y-59816999D01*
X128069085Y-59816999D02*
X128164323Y-59578904D01*
X127878609Y-59959856D02*
X128069085Y-59816999D01*
X128069085Y-59816999D02*
X127878609Y-59674142D01*
X127216819Y-59817000D02*
X127454914Y-59817000D01*
X127359676Y-59578905D02*
X127454914Y-59817000D01*
X127454914Y-59817000D02*
X127359676Y-60055095D01*
X127645390Y-59674143D02*
X127454914Y-59817000D01*
X127454914Y-59817000D02*
X127645390Y-59959857D01*
X150719220Y-95867571D02*
X150243029Y-95534238D01*
X150719220Y-95296143D02*
X149719220Y-95296143D01*
X149719220Y-95296143D02*
X149719220Y-95677095D01*
X149719220Y-95677095D02*
X149766839Y-95772333D01*
X149766839Y-95772333D02*
X149814458Y-95819952D01*
X149814458Y-95819952D02*
X149909696Y-95867571D01*
X149909696Y-95867571D02*
X150052553Y-95867571D01*
X150052553Y-95867571D02*
X150147791Y-95819952D01*
X150147791Y-95819952D02*
X150195410Y-95772333D01*
X150195410Y-95772333D02*
X150243029Y-95677095D01*
X150243029Y-95677095D02*
X150243029Y-95296143D01*
X150719220Y-96819952D02*
X150719220Y-96248524D01*
X150719220Y-96534238D02*
X149719220Y-96534238D01*
X149719220Y-96534238D02*
X149862077Y-96439000D01*
X149862077Y-96439000D02*
X149957315Y-96343762D01*
X149957315Y-96343762D02*
X150004934Y-96248524D01*
X149719220Y-97153286D02*
X149719220Y-97819952D01*
X149719220Y-97819952D02*
X150719220Y-97391381D01*
X129277305Y-60675448D02*
X129277305Y-61484971D01*
X129277305Y-61484971D02*
X129229686Y-61580209D01*
X129229686Y-61580209D02*
X129182067Y-61627829D01*
X129182067Y-61627829D02*
X129086829Y-61675448D01*
X129086829Y-61675448D02*
X128896353Y-61675448D01*
X128896353Y-61675448D02*
X128801115Y-61627829D01*
X128801115Y-61627829D02*
X128753496Y-61580209D01*
X128753496Y-61580209D02*
X128705877Y-61484971D01*
X128705877Y-61484971D02*
X128705877Y-60675448D01*
X127801115Y-61008781D02*
X127801115Y-61675448D01*
X128039210Y-60627829D02*
X128277305Y-61342114D01*
X128277305Y-61342114D02*
X127658258Y-61342114D01*
X116924057Y-118977580D02*
X116971676Y-119025200D01*
X116971676Y-119025200D02*
X117114533Y-119072819D01*
X117114533Y-119072819D02*
X117209771Y-119072819D01*
X117209771Y-119072819D02*
X117352628Y-119025200D01*
X117352628Y-119025200D02*
X117447866Y-118929961D01*
X117447866Y-118929961D02*
X117495485Y-118834723D01*
X117495485Y-118834723D02*
X117543104Y-118644247D01*
X117543104Y-118644247D02*
X117543104Y-118501390D01*
X117543104Y-118501390D02*
X117495485Y-118310914D01*
X117495485Y-118310914D02*
X117447866Y-118215676D01*
X117447866Y-118215676D02*
X117352628Y-118120438D01*
X117352628Y-118120438D02*
X117209771Y-118072819D01*
X117209771Y-118072819D02*
X117114533Y-118072819D01*
X117114533Y-118072819D02*
X116971676Y-118120438D01*
X116971676Y-118120438D02*
X116924057Y-118168057D01*
X116066914Y-118072819D02*
X116257390Y-118072819D01*
X116257390Y-118072819D02*
X116352628Y-118120438D01*
X116352628Y-118120438D02*
X116400247Y-118168057D01*
X116400247Y-118168057D02*
X116495485Y-118310914D01*
X116495485Y-118310914D02*
X116543104Y-118501390D01*
X116543104Y-118501390D02*
X116543104Y-118882342D01*
X116543104Y-118882342D02*
X116495485Y-118977580D01*
X116495485Y-118977580D02*
X116447866Y-119025200D01*
X116447866Y-119025200D02*
X116352628Y-119072819D01*
X116352628Y-119072819D02*
X116162152Y-119072819D01*
X116162152Y-119072819D02*
X116066914Y-119025200D01*
X116066914Y-119025200D02*
X116019295Y-118977580D01*
X116019295Y-118977580D02*
X115971676Y-118882342D01*
X115971676Y-118882342D02*
X115971676Y-118644247D01*
X115971676Y-118644247D02*
X116019295Y-118549009D01*
X116019295Y-118549009D02*
X116066914Y-118501390D01*
X116066914Y-118501390D02*
X116162152Y-118453771D01*
X116162152Y-118453771D02*
X116352628Y-118453771D01*
X116352628Y-118453771D02*
X116447866Y-118501390D01*
X116447866Y-118501390D02*
X116495485Y-118549009D01*
X116495485Y-118549009D02*
X116543104Y-118644247D01*
X115352628Y-118072819D02*
X115257390Y-118072819D01*
X115257390Y-118072819D02*
X115162152Y-118120438D01*
X115162152Y-118120438D02*
X115114533Y-118168057D01*
X115114533Y-118168057D02*
X115066914Y-118263295D01*
X115066914Y-118263295D02*
X115019295Y-118453771D01*
X115019295Y-118453771D02*
X115019295Y-118691866D01*
X115019295Y-118691866D02*
X115066914Y-118882342D01*
X115066914Y-118882342D02*
X115114533Y-118977580D01*
X115114533Y-118977580D02*
X115162152Y-119025200D01*
X115162152Y-119025200D02*
X115257390Y-119072819D01*
X115257390Y-119072819D02*
X115352628Y-119072819D01*
X115352628Y-119072819D02*
X115447866Y-119025200D01*
X115447866Y-119025200D02*
X115495485Y-118977580D01*
X115495485Y-118977580D02*
X115543104Y-118882342D01*
X115543104Y-118882342D02*
X115590723Y-118691866D01*
X115590723Y-118691866D02*
X115590723Y-118453771D01*
X115590723Y-118453771D02*
X115543104Y-118263295D01*
X115543104Y-118263295D02*
X115495485Y-118168057D01*
X115495485Y-118168057D02*
X115447866Y-118120438D01*
X115447866Y-118120438D02*
X115352628Y-118072819D01*
X144328981Y-54364771D02*
X144376601Y-54317152D01*
X144376601Y-54317152D02*
X144424220Y-54174295D01*
X144424220Y-54174295D02*
X144424220Y-54079057D01*
X144424220Y-54079057D02*
X144376601Y-53936200D01*
X144376601Y-53936200D02*
X144281362Y-53840962D01*
X144281362Y-53840962D02*
X144186124Y-53793343D01*
X144186124Y-53793343D02*
X143995648Y-53745724D01*
X143995648Y-53745724D02*
X143852791Y-53745724D01*
X143852791Y-53745724D02*
X143662315Y-53793343D01*
X143662315Y-53793343D02*
X143567077Y-53840962D01*
X143567077Y-53840962D02*
X143471839Y-53936200D01*
X143471839Y-53936200D02*
X143424220Y-54079057D01*
X143424220Y-54079057D02*
X143424220Y-54174295D01*
X143424220Y-54174295D02*
X143471839Y-54317152D01*
X143471839Y-54317152D02*
X143519458Y-54364771D01*
X143757553Y-55221914D02*
X144424220Y-55221914D01*
X143376601Y-54983819D02*
X144090886Y-54745724D01*
X144090886Y-54745724D02*
X144090886Y-55364771D01*
X143424220Y-55650486D02*
X143424220Y-56269533D01*
X143424220Y-56269533D02*
X143805172Y-55936200D01*
X143805172Y-55936200D02*
X143805172Y-56079057D01*
X143805172Y-56079057D02*
X143852791Y-56174295D01*
X143852791Y-56174295D02*
X143900410Y-56221914D01*
X143900410Y-56221914D02*
X143995648Y-56269533D01*
X143995648Y-56269533D02*
X144233743Y-56269533D01*
X144233743Y-56269533D02*
X144328981Y-56221914D01*
X144328981Y-56221914D02*
X144376601Y-56174295D01*
X144376601Y-56174295D02*
X144424220Y-56079057D01*
X144424220Y-56079057D02*
X144424220Y-55793343D01*
X144424220Y-55793343D02*
X144376601Y-55698105D01*
X144376601Y-55698105D02*
X144328981Y-55650486D01*
X122017220Y-114453962D02*
X121541029Y-114120629D01*
X122017220Y-113882534D02*
X121017220Y-113882534D01*
X121017220Y-113882534D02*
X121017220Y-114263486D01*
X121017220Y-114263486D02*
X121064839Y-114358724D01*
X121064839Y-114358724D02*
X121112458Y-114406343D01*
X121112458Y-114406343D02*
X121207696Y-114453962D01*
X121207696Y-114453962D02*
X121350553Y-114453962D01*
X121350553Y-114453962D02*
X121445791Y-114406343D01*
X121445791Y-114406343D02*
X121493410Y-114358724D01*
X121493410Y-114358724D02*
X121541029Y-114263486D01*
X121541029Y-114263486D02*
X121541029Y-113882534D01*
X121017220Y-115358724D02*
X121017220Y-114882534D01*
X121017220Y-114882534D02*
X121493410Y-114834915D01*
X121493410Y-114834915D02*
X121445791Y-114882534D01*
X121445791Y-114882534D02*
X121398172Y-114977772D01*
X121398172Y-114977772D02*
X121398172Y-115215867D01*
X121398172Y-115215867D02*
X121445791Y-115311105D01*
X121445791Y-115311105D02*
X121493410Y-115358724D01*
X121493410Y-115358724D02*
X121588648Y-115406343D01*
X121588648Y-115406343D02*
X121826743Y-115406343D01*
X121826743Y-115406343D02*
X121921981Y-115358724D01*
X121921981Y-115358724D02*
X121969601Y-115311105D01*
X121969601Y-115311105D02*
X122017220Y-115215867D01*
X122017220Y-115215867D02*
X122017220Y-114977772D01*
X122017220Y-114977772D02*
X121969601Y-114882534D01*
X121969601Y-114882534D02*
X121921981Y-114834915D01*
X148218458Y-61217200D02*
X148170839Y-61121962D01*
X148170839Y-61121962D02*
X148075601Y-61026724D01*
X148075601Y-61026724D02*
X147932743Y-60883867D01*
X147932743Y-60883867D02*
X147885124Y-60788629D01*
X147885124Y-60788629D02*
X147885124Y-60693391D01*
X148123220Y-60741010D02*
X148075601Y-60645772D01*
X148075601Y-60645772D02*
X147980362Y-60550534D01*
X147980362Y-60550534D02*
X147789886Y-60502915D01*
X147789886Y-60502915D02*
X147456553Y-60502915D01*
X147456553Y-60502915D02*
X147266077Y-60550534D01*
X147266077Y-60550534D02*
X147170839Y-60645772D01*
X147170839Y-60645772D02*
X147123220Y-60741010D01*
X147123220Y-60741010D02*
X147123220Y-60931486D01*
X147123220Y-60931486D02*
X147170839Y-61026724D01*
X147170839Y-61026724D02*
X147266077Y-61121962D01*
X147266077Y-61121962D02*
X147456553Y-61169581D01*
X147456553Y-61169581D02*
X147789886Y-61169581D01*
X147789886Y-61169581D02*
X147980362Y-61121962D01*
X147980362Y-61121962D02*
X148075601Y-61026724D01*
X148075601Y-61026724D02*
X148123220Y-60931486D01*
X148123220Y-60931486D02*
X148123220Y-60741010D01*
X148123220Y-62121962D02*
X148123220Y-61550534D01*
X148123220Y-61836248D02*
X147123220Y-61836248D01*
X147123220Y-61836248D02*
X147266077Y-61741010D01*
X147266077Y-61741010D02*
X147361315Y-61645772D01*
X147361315Y-61645772D02*
X147408934Y-61550534D01*
X147218458Y-62502915D02*
X147170839Y-62550534D01*
X147170839Y-62550534D02*
X147123220Y-62645772D01*
X147123220Y-62645772D02*
X147123220Y-62883867D01*
X147123220Y-62883867D02*
X147170839Y-62979105D01*
X147170839Y-62979105D02*
X147218458Y-63026724D01*
X147218458Y-63026724D02*
X147313696Y-63074343D01*
X147313696Y-63074343D02*
X147408934Y-63074343D01*
X147408934Y-63074343D02*
X147551791Y-63026724D01*
X147551791Y-63026724D02*
X148123220Y-62455296D01*
X148123220Y-62455296D02*
X148123220Y-63074343D01*
X142231639Y-31134786D02*
X142326877Y-31087167D01*
X142326877Y-31087167D02*
X142422115Y-30991929D01*
X142422115Y-30991929D02*
X142564972Y-30849071D01*
X142564972Y-30849071D02*
X142660210Y-30801452D01*
X142660210Y-30801452D02*
X142755448Y-30801452D01*
X142707829Y-31039548D02*
X142803067Y-30991929D01*
X142803067Y-30991929D02*
X142898305Y-30896690D01*
X142898305Y-30896690D02*
X142945924Y-30706214D01*
X142945924Y-30706214D02*
X142945924Y-30372881D01*
X142945924Y-30372881D02*
X142898305Y-30182405D01*
X142898305Y-30182405D02*
X142803067Y-30087167D01*
X142803067Y-30087167D02*
X142707829Y-30039548D01*
X142707829Y-30039548D02*
X142517353Y-30039548D01*
X142517353Y-30039548D02*
X142422115Y-30087167D01*
X142422115Y-30087167D02*
X142326877Y-30182405D01*
X142326877Y-30182405D02*
X142279258Y-30372881D01*
X142279258Y-30372881D02*
X142279258Y-30706214D01*
X142279258Y-30706214D02*
X142326877Y-30896690D01*
X142326877Y-30896690D02*
X142422115Y-30991929D01*
X142422115Y-30991929D02*
X142517353Y-31039548D01*
X142517353Y-31039548D02*
X142707829Y-31039548D01*
X141803067Y-31039548D02*
X141612591Y-31039548D01*
X141612591Y-31039548D02*
X141517353Y-30991929D01*
X141517353Y-30991929D02*
X141469734Y-30944309D01*
X141469734Y-30944309D02*
X141374496Y-30801452D01*
X141374496Y-30801452D02*
X141326877Y-30610976D01*
X141326877Y-30610976D02*
X141326877Y-30230024D01*
X141326877Y-30230024D02*
X141374496Y-30134786D01*
X141374496Y-30134786D02*
X141422115Y-30087167D01*
X141422115Y-30087167D02*
X141517353Y-30039548D01*
X141517353Y-30039548D02*
X141707829Y-30039548D01*
X141707829Y-30039548D02*
X141803067Y-30087167D01*
X141803067Y-30087167D02*
X141850686Y-30134786D01*
X141850686Y-30134786D02*
X141898305Y-30230024D01*
X141898305Y-30230024D02*
X141898305Y-30468119D01*
X141898305Y-30468119D02*
X141850686Y-30563357D01*
X141850686Y-30563357D02*
X141803067Y-30610976D01*
X141803067Y-30610976D02*
X141707829Y-30658595D01*
X141707829Y-30658595D02*
X141517353Y-30658595D01*
X141517353Y-30658595D02*
X141422115Y-30610976D01*
X141422115Y-30610976D02*
X141374496Y-30563357D01*
X141374496Y-30563357D02*
X141326877Y-30468119D01*
X151619401Y-32488809D02*
X151619401Y-32250714D01*
X151381306Y-32345952D02*
X151619401Y-32250714D01*
X151619401Y-32250714D02*
X151857496Y-32345952D01*
X151476544Y-32060238D02*
X151619401Y-32250714D01*
X151619401Y-32250714D02*
X151762258Y-32060238D01*
X151619400Y-31398448D02*
X151619400Y-31636543D01*
X151857495Y-31541305D02*
X151619400Y-31636543D01*
X151619400Y-31636543D02*
X151381305Y-31541305D01*
X151762257Y-31827019D02*
X151619400Y-31636543D01*
X151619400Y-31636543D02*
X151476543Y-31827019D01*
X116820458Y-109392209D02*
X116868077Y-109439829D01*
X116868077Y-109439829D02*
X117010934Y-109487448D01*
X117010934Y-109487448D02*
X117106172Y-109487448D01*
X117106172Y-109487448D02*
X117249029Y-109439829D01*
X117249029Y-109439829D02*
X117344267Y-109344590D01*
X117344267Y-109344590D02*
X117391886Y-109249352D01*
X117391886Y-109249352D02*
X117439505Y-109058876D01*
X117439505Y-109058876D02*
X117439505Y-108916019D01*
X117439505Y-108916019D02*
X117391886Y-108725543D01*
X117391886Y-108725543D02*
X117344267Y-108630305D01*
X117344267Y-108630305D02*
X117249029Y-108535067D01*
X117249029Y-108535067D02*
X117106172Y-108487448D01*
X117106172Y-108487448D02*
X117010934Y-108487448D01*
X117010934Y-108487448D02*
X116868077Y-108535067D01*
X116868077Y-108535067D02*
X116820458Y-108582686D01*
X115868077Y-109487448D02*
X116439505Y-109487448D01*
X116153791Y-109487448D02*
X116153791Y-108487448D01*
X116153791Y-108487448D02*
X116249029Y-108630305D01*
X116249029Y-108630305D02*
X116344267Y-108725543D01*
X116344267Y-108725543D02*
X116439505Y-108773162D01*
X115534743Y-108487448D02*
X114915696Y-108487448D01*
X114915696Y-108487448D02*
X115249029Y-108868400D01*
X115249029Y-108868400D02*
X115106172Y-108868400D01*
X115106172Y-108868400D02*
X115010934Y-108916019D01*
X115010934Y-108916019D02*
X114963315Y-108963638D01*
X114963315Y-108963638D02*
X114915696Y-109058876D01*
X114915696Y-109058876D02*
X114915696Y-109296971D01*
X114915696Y-109296971D02*
X114963315Y-109392209D01*
X114963315Y-109392209D02*
X115010934Y-109439829D01*
X115010934Y-109439829D02*
X115106172Y-109487448D01*
X115106172Y-109487448D02*
X115391886Y-109487448D01*
X115391886Y-109487448D02*
X115487124Y-109439829D01*
X115487124Y-109439829D02*
X115534743Y-109392209D01*
X149508981Y-100636171D02*
X149556601Y-100588552D01*
X149556601Y-100588552D02*
X149604220Y-100445695D01*
X149604220Y-100445695D02*
X149604220Y-100350457D01*
X149604220Y-100350457D02*
X149556601Y-100207600D01*
X149556601Y-100207600D02*
X149461362Y-100112362D01*
X149461362Y-100112362D02*
X149366124Y-100064743D01*
X149366124Y-100064743D02*
X149175648Y-100017124D01*
X149175648Y-100017124D02*
X149032791Y-100017124D01*
X149032791Y-100017124D02*
X148842315Y-100064743D01*
X148842315Y-100064743D02*
X148747077Y-100112362D01*
X148747077Y-100112362D02*
X148651839Y-100207600D01*
X148651839Y-100207600D02*
X148604220Y-100350457D01*
X148604220Y-100350457D02*
X148604220Y-100445695D01*
X148604220Y-100445695D02*
X148651839Y-100588552D01*
X148651839Y-100588552D02*
X148699458Y-100636171D01*
X148699458Y-101017124D02*
X148651839Y-101064743D01*
X148651839Y-101064743D02*
X148604220Y-101159981D01*
X148604220Y-101159981D02*
X148604220Y-101398076D01*
X148604220Y-101398076D02*
X148651839Y-101493314D01*
X148651839Y-101493314D02*
X148699458Y-101540933D01*
X148699458Y-101540933D02*
X148794696Y-101588552D01*
X148794696Y-101588552D02*
X148889934Y-101588552D01*
X148889934Y-101588552D02*
X149032791Y-101540933D01*
X149032791Y-101540933D02*
X149604220Y-100969505D01*
X149604220Y-100969505D02*
X149604220Y-101588552D01*
X149032791Y-102159981D02*
X148985172Y-102064743D01*
X148985172Y-102064743D02*
X148937553Y-102017124D01*
X148937553Y-102017124D02*
X148842315Y-101969505D01*
X148842315Y-101969505D02*
X148794696Y-101969505D01*
X148794696Y-101969505D02*
X148699458Y-102017124D01*
X148699458Y-102017124D02*
X148651839Y-102064743D01*
X148651839Y-102064743D02*
X148604220Y-102159981D01*
X148604220Y-102159981D02*
X148604220Y-102350457D01*
X148604220Y-102350457D02*
X148651839Y-102445695D01*
X148651839Y-102445695D02*
X148699458Y-102493314D01*
X148699458Y-102493314D02*
X148794696Y-102540933D01*
X148794696Y-102540933D02*
X148842315Y-102540933D01*
X148842315Y-102540933D02*
X148937553Y-102493314D01*
X148937553Y-102493314D02*
X148985172Y-102445695D01*
X148985172Y-102445695D02*
X149032791Y-102350457D01*
X149032791Y-102350457D02*
X149032791Y-102159981D01*
X149032791Y-102159981D02*
X149080410Y-102064743D01*
X149080410Y-102064743D02*
X149128029Y-102017124D01*
X149128029Y-102017124D02*
X149223267Y-101969505D01*
X149223267Y-101969505D02*
X149413743Y-101969505D01*
X149413743Y-101969505D02*
X149508981Y-102017124D01*
X149508981Y-102017124D02*
X149556601Y-102064743D01*
X149556601Y-102064743D02*
X149604220Y-102159981D01*
X149604220Y-102159981D02*
X149604220Y-102350457D01*
X149604220Y-102350457D02*
X149556601Y-102445695D01*
X149556601Y-102445695D02*
X149508981Y-102493314D01*
X149508981Y-102493314D02*
X149413743Y-102540933D01*
X149413743Y-102540933D02*
X149223267Y-102540933D01*
X149223267Y-102540933D02*
X149128029Y-102493314D01*
X149128029Y-102493314D02*
X149080410Y-102445695D01*
X149080410Y-102445695D02*
X149032791Y-102350457D01*
X146513258Y-78608648D02*
X146846591Y-78132457D01*
X147084686Y-78608648D02*
X147084686Y-77608648D01*
X147084686Y-77608648D02*
X146703734Y-77608648D01*
X146703734Y-77608648D02*
X146608496Y-77656267D01*
X146608496Y-77656267D02*
X146560877Y-77703886D01*
X146560877Y-77703886D02*
X146513258Y-77799124D01*
X146513258Y-77799124D02*
X146513258Y-77941981D01*
X146513258Y-77941981D02*
X146560877Y-78037219D01*
X146560877Y-78037219D02*
X146608496Y-78084838D01*
X146608496Y-78084838D02*
X146703734Y-78132457D01*
X146703734Y-78132457D02*
X147084686Y-78132457D01*
X146132305Y-77703886D02*
X146084686Y-77656267D01*
X146084686Y-77656267D02*
X145989448Y-77608648D01*
X145989448Y-77608648D02*
X145751353Y-77608648D01*
X145751353Y-77608648D02*
X145656115Y-77656267D01*
X145656115Y-77656267D02*
X145608496Y-77703886D01*
X145608496Y-77703886D02*
X145560877Y-77799124D01*
X145560877Y-77799124D02*
X145560877Y-77894362D01*
X145560877Y-77894362D02*
X145608496Y-78037219D01*
X145608496Y-78037219D02*
X146179924Y-78608648D01*
X146179924Y-78608648D02*
X145560877Y-78608648D01*
X145084686Y-78608648D02*
X144894210Y-78608648D01*
X144894210Y-78608648D02*
X144798972Y-78561029D01*
X144798972Y-78561029D02*
X144751353Y-78513409D01*
X144751353Y-78513409D02*
X144656115Y-78370552D01*
X144656115Y-78370552D02*
X144608496Y-78180076D01*
X144608496Y-78180076D02*
X144608496Y-77799124D01*
X144608496Y-77799124D02*
X144656115Y-77703886D01*
X144656115Y-77703886D02*
X144703734Y-77656267D01*
X144703734Y-77656267D02*
X144798972Y-77608648D01*
X144798972Y-77608648D02*
X144989448Y-77608648D01*
X144989448Y-77608648D02*
X145084686Y-77656267D01*
X145084686Y-77656267D02*
X145132305Y-77703886D01*
X145132305Y-77703886D02*
X145179924Y-77799124D01*
X145179924Y-77799124D02*
X145179924Y-78037219D01*
X145179924Y-78037219D02*
X145132305Y-78132457D01*
X145132305Y-78132457D02*
X145084686Y-78180076D01*
X145084686Y-78180076D02*
X144989448Y-78227695D01*
X144989448Y-78227695D02*
X144798972Y-78227695D01*
X144798972Y-78227695D02*
X144703734Y-78180076D01*
X144703734Y-78180076D02*
X144656115Y-78132457D01*
X144656115Y-78132457D02*
X144608496Y-78037219D01*
X130405581Y-96700571D02*
X130453201Y-96652952D01*
X130453201Y-96652952D02*
X130500820Y-96510095D01*
X130500820Y-96510095D02*
X130500820Y-96414857D01*
X130500820Y-96414857D02*
X130453201Y-96272000D01*
X130453201Y-96272000D02*
X130357962Y-96176762D01*
X130357962Y-96176762D02*
X130262724Y-96129143D01*
X130262724Y-96129143D02*
X130072248Y-96081524D01*
X130072248Y-96081524D02*
X129929391Y-96081524D01*
X129929391Y-96081524D02*
X129738915Y-96129143D01*
X129738915Y-96129143D02*
X129643677Y-96176762D01*
X129643677Y-96176762D02*
X129548439Y-96272000D01*
X129548439Y-96272000D02*
X129500820Y-96414857D01*
X129500820Y-96414857D02*
X129500820Y-96510095D01*
X129500820Y-96510095D02*
X129548439Y-96652952D01*
X129548439Y-96652952D02*
X129596058Y-96700571D01*
X130500820Y-97652952D02*
X130500820Y-97081524D01*
X130500820Y-97367238D02*
X129500820Y-97367238D01*
X129500820Y-97367238D02*
X129643677Y-97272000D01*
X129643677Y-97272000D02*
X129738915Y-97176762D01*
X129738915Y-97176762D02*
X129786534Y-97081524D01*
X129596058Y-98033905D02*
X129548439Y-98081524D01*
X129548439Y-98081524D02*
X129500820Y-98176762D01*
X129500820Y-98176762D02*
X129500820Y-98414857D01*
X129500820Y-98414857D02*
X129548439Y-98510095D01*
X129548439Y-98510095D02*
X129596058Y-98557714D01*
X129596058Y-98557714D02*
X129691296Y-98605333D01*
X129691296Y-98605333D02*
X129786534Y-98605333D01*
X129786534Y-98605333D02*
X129929391Y-98557714D01*
X129929391Y-98557714D02*
X130500820Y-97986286D01*
X130500820Y-97986286D02*
X130500820Y-98605333D01*
D11*
%TO.C,D3*%
X152138000Y-100807000D02*
X152138000Y-102307000D01*
X152138000Y-102407000D02*
X152138000Y-102307000D01*
X152138000Y-102507000D02*
X152138000Y-102407000D01*
X151938000Y-102507000D02*
X152138000Y-102507000D01*
X151138000Y-102507000D02*
X151938000Y-102507000D01*
X151138000Y-100807000D02*
X151138000Y-102507000D01*
%TO.C,C57*%
X124843000Y-119140420D02*
X124843000Y-119421580D01*
X123823000Y-119140420D02*
X123823000Y-119421580D01*
%TO.C,C55*%
X136552000Y-32504381D02*
X136552000Y-31981877D01*
X138022000Y-32504381D02*
X138022000Y-31981877D01*
%TO.C,C59*%
X118774036Y-117115000D02*
X118558364Y-117115000D01*
X118774036Y-117835000D02*
X118558364Y-117835000D01*
%TO.C,D6*%
X144025401Y-36498629D02*
X142615401Y-36498629D01*
X144025401Y-36498629D02*
X144025401Y-37158629D01*
X144025401Y-38158629D02*
X144025401Y-38818629D01*
X144025401Y-38818629D02*
X142615401Y-38818629D01*
X142485401Y-39128629D02*
X142005401Y-39128629D01*
X142245401Y-38798629D01*
X142485401Y-39128629D01*
G36*
X142485401Y-39128629D02*
G01*
X142005401Y-39128629D01*
X142245401Y-38798629D01*
X142485401Y-39128629D01*
G37*
%TO.C,R33*%
X118558364Y-120544000D02*
X118774036Y-120544000D01*
X118558364Y-121264000D02*
X118774036Y-121264000D01*
%TO.C,L5*%
X121114000Y-116559000D02*
X121114000Y-119079000D01*
X123234000Y-116559000D02*
X123234000Y-119079000D01*
%TO.C,C29*%
X149932401Y-103556193D02*
X149932401Y-103771865D01*
X150652401Y-103556193D02*
X150652401Y-103771865D01*
%TO.C,C41*%
X144688001Y-30342477D02*
X144688001Y-31764981D01*
X147408001Y-30342477D02*
X147408001Y-31764981D01*
%TO.C,FB3*%
X150336801Y-105023029D02*
X152856801Y-105023029D01*
X150336801Y-106743029D02*
X152856801Y-106743029D01*
%TO.C,C63*%
X118245836Y-93670800D02*
X118030164Y-93670800D01*
X118245836Y-94390800D02*
X118030164Y-94390800D01*
%TO.C,U9*%
X121545200Y-119361000D02*
X120445200Y-119361000D01*
X121745200Y-121161000D02*
X120445200Y-121161000D01*
X122075200Y-119361000D02*
X121795200Y-119361000D01*
X121795200Y-119081000D01*
X122075200Y-119361000D01*
G36*
X122075200Y-119361000D02*
G01*
X121795200Y-119361000D01*
X121795200Y-119081000D01*
X122075200Y-119361000D01*
G37*
%TO.C,Q10*%
X147795401Y-39166629D02*
X148685401Y-39166629D01*
X147795401Y-41016629D02*
X147795401Y-39166629D01*
X150025401Y-39151629D02*
X150915401Y-39151629D01*
X150915401Y-41001629D02*
X150915401Y-39151629D01*
X151255401Y-41631629D02*
X150925401Y-41391629D01*
X151255401Y-41151629D01*
X151255401Y-41631629D01*
G36*
X151255401Y-41631629D02*
G01*
X150925401Y-41391629D01*
X151255401Y-41151629D01*
X151255401Y-41631629D01*
G37*
D12*
%TO.C,Q8*%
X124035201Y-48859329D02*
X124035201Y-49177190D01*
X124035201Y-52199068D02*
X124035201Y-52516929D01*
X124035201Y-52516929D02*
X126880001Y-52516929D01*
X126880001Y-48859329D02*
X124035201Y-48859329D01*
X126880001Y-49110789D02*
X126880001Y-48859329D01*
X126880001Y-52516929D02*
X126880001Y-52265469D01*
%TO.C,Q2*%
X130524901Y-56022829D02*
X130524901Y-56340690D01*
X130524901Y-59362568D02*
X130524901Y-59680429D01*
X130524901Y-59680429D02*
X133369701Y-59680429D01*
X133369701Y-56022829D02*
X130524901Y-56022829D01*
X133369701Y-56274289D02*
X133369701Y-56022829D01*
X133369701Y-59680429D02*
X133369701Y-59428969D01*
D11*
%TO.C,C33*%
X151075401Y-103556193D02*
X151075401Y-103771865D01*
X151795401Y-103556193D02*
X151795401Y-103771865D01*
%TO.C,C58*%
X120933036Y-121560000D02*
X120717364Y-121560000D01*
X120933036Y-122280000D02*
X120717364Y-122280000D01*
D12*
%TO.C,Q4*%
X130524901Y-48859329D02*
X130524901Y-49177190D01*
X130524901Y-52199068D02*
X130524901Y-52516929D01*
X130524901Y-52516929D02*
X133369701Y-52516929D01*
X133369701Y-48859329D02*
X130524901Y-48859329D01*
X133369701Y-49110789D02*
X133369701Y-48859329D01*
X133369701Y-52516929D02*
X133369701Y-52265469D01*
D11*
%TO.C,D5*%
X137188401Y-62253629D02*
X138078401Y-62253629D01*
X137188401Y-64103629D02*
X137188401Y-62253629D01*
X139418401Y-62238629D02*
X140308401Y-62238629D01*
X140308401Y-64088629D02*
X140308401Y-62238629D01*
X140648401Y-64718629D02*
X140318401Y-64478629D01*
X140648401Y-64238629D01*
X140648401Y-64718629D01*
G36*
X140648401Y-64718629D02*
G01*
X140318401Y-64478629D01*
X140648401Y-64238629D01*
X140648401Y-64718629D01*
G37*
%TO.C,C35*%
X147186601Y-107949265D02*
X147186601Y-107733593D01*
X147906601Y-107949265D02*
X147906601Y-107733593D01*
%TO.C,C14*%
X120013801Y-112699065D02*
X120013801Y-112483393D01*
X120733801Y-112699065D02*
X120733801Y-112483393D01*
%TO.C,R22*%
X138682000Y-32102549D02*
X138682000Y-32383709D01*
X139702000Y-32102549D02*
X139702000Y-32383709D01*
%TO.C,FB2*%
X150336801Y-107309029D02*
X152856801Y-107309029D01*
X150336801Y-109029029D02*
X152856801Y-109029029D01*
%TO.C,Q11*%
X140140401Y-42166629D02*
X140140401Y-47846629D01*
X145510401Y-41726629D02*
X145510401Y-47846629D01*
X140405131Y-41655007D02*
X140075131Y-41895007D01*
X140075131Y-41415007D01*
X140405131Y-41655007D01*
G36*
X140405131Y-41655007D02*
G01*
X140075131Y-41895007D01*
X140075131Y-41415007D01*
X140405131Y-41655007D01*
G37*
%TO.C,C38*%
X152218401Y-103556193D02*
X152218401Y-103771865D01*
X152938401Y-103556193D02*
X152938401Y-103771865D01*
%TO.C,R32*%
X118774036Y-119401000D02*
X118558364Y-119401000D01*
X118774036Y-120121000D02*
X118558364Y-120121000D01*
%TO.C,J21*%
X114748000Y-46890429D02*
X114748000Y-90130429D01*
X114748000Y-92730429D02*
X114748000Y-91400429D01*
X116078000Y-92730429D02*
X114748000Y-92730429D01*
X117348000Y-90130429D02*
X114748000Y-90130429D01*
X117348000Y-92730429D02*
X117348000Y-90130429D01*
X119948000Y-46890429D02*
X114748000Y-46890429D01*
X119948000Y-46890429D02*
X119948000Y-92730429D01*
X119948000Y-92730429D02*
X117348000Y-92730429D01*
%TO.C,D7*%
X145200401Y-71695629D02*
X145200401Y-75705629D01*
X145200401Y-75705629D02*
X147200401Y-75705629D01*
X147200401Y-71695629D02*
X147200401Y-75705629D01*
%TO.C,J22*%
X148758600Y-46066400D02*
X148758600Y-89306400D01*
X148758600Y-91906400D02*
X148758600Y-90576400D01*
X150088600Y-91906400D02*
X148758600Y-91906400D01*
X151358600Y-89306400D02*
X148758600Y-89306400D01*
X151358600Y-91906400D02*
X151358600Y-89306400D01*
X153958600Y-46066400D02*
X148758600Y-46066400D01*
X153958600Y-46066400D02*
X153958600Y-91906400D01*
X153958600Y-91906400D02*
X151358600Y-91906400D01*
%TO.C,U2*%
X119733001Y-94827029D02*
X122458001Y-94827029D01*
X119733001Y-95087029D02*
X119733001Y-94827029D01*
X119733001Y-100017029D02*
X119733001Y-100277029D01*
X119733001Y-100277029D02*
X122458001Y-100277029D01*
X125183001Y-94827029D02*
X122458001Y-94827029D01*
X125183001Y-95087029D02*
X125183001Y-94827029D01*
X125183001Y-100017029D02*
X125183001Y-100277029D01*
X125183001Y-100277029D02*
X122458001Y-100277029D01*
X119190501Y-100347029D02*
X118710501Y-100347029D01*
X118950501Y-100017029D01*
X119190501Y-100347029D01*
G36*
X119190501Y-100347029D02*
G01*
X118710501Y-100347029D01*
X118950501Y-100017029D01*
X119190501Y-100347029D01*
G37*
D12*
%TO.C,Q6*%
X124047901Y-56022829D02*
X124047901Y-56340690D01*
X124047901Y-59362568D02*
X124047901Y-59680429D01*
X124047901Y-59680429D02*
X126892701Y-59680429D01*
X126892701Y-56022829D02*
X124047901Y-56022829D01*
X126892701Y-56274289D02*
X126892701Y-56022829D01*
X126892701Y-59680429D02*
X126892701Y-59428969D01*
D13*
%TO.C,Y1*%
X115643801Y-111379829D02*
X115643801Y-111479829D01*
X115643801Y-113979829D02*
X115643801Y-113879829D01*
X116443801Y-111379829D02*
X115643801Y-111379829D01*
X116443801Y-113979829D02*
X115643801Y-113979829D01*
X118043801Y-111379829D02*
X118843801Y-111379829D01*
X118043801Y-113979829D02*
X118843801Y-113979829D01*
X118843801Y-111379829D02*
X118843801Y-111479829D01*
X118843801Y-111479829D02*
X119143801Y-111479829D01*
X118843801Y-113979829D02*
X118843801Y-113879829D01*
D11*
%TO.C,R17*%
X149904401Y-101553793D02*
X149904401Y-101769465D01*
X150624401Y-101553793D02*
X150624401Y-101769465D01*
%TO.C,U4*%
X126405401Y-62440629D02*
X127130401Y-62440629D01*
X126405401Y-63165629D02*
X126405401Y-62440629D01*
X126405401Y-65935629D02*
X126405401Y-66660629D01*
X126405401Y-66660629D02*
X127130401Y-66660629D01*
X130325401Y-62440629D02*
X129900401Y-62440629D01*
X130625401Y-62680629D02*
X130625401Y-63165629D01*
X130625401Y-65935629D02*
X130625401Y-66660629D01*
X130625401Y-66660629D02*
X129900401Y-66660629D01*
X130625401Y-62440629D02*
X130385401Y-62110629D01*
X130865401Y-62110629D01*
X130625401Y-62440629D01*
G36*
X130625401Y-62440629D02*
G01*
X130385401Y-62110629D01*
X130865401Y-62110629D01*
X130625401Y-62440629D01*
G37*
%TO.C,C60*%
X118774036Y-118258000D02*
X118558364Y-118258000D01*
X118774036Y-118978000D02*
X118558364Y-118978000D01*
%TO.C,C43*%
X144909401Y-55718881D02*
X144909401Y-54296377D01*
X146729401Y-55718881D02*
X146729401Y-54296377D01*
%TO.C,R5*%
X120013801Y-114716065D02*
X120013801Y-114500393D01*
X120733801Y-114716065D02*
X120733801Y-114500393D01*
%TO.C,Q12*%
X141483401Y-64848629D02*
X141483401Y-58728629D01*
X146853401Y-64408629D02*
X146853401Y-58728629D01*
X146918671Y-65160251D02*
X146588671Y-64920251D01*
X146918671Y-64680251D01*
X146918671Y-65160251D01*
G36*
X146918671Y-65160251D02*
G01*
X146588671Y-64920251D01*
X146918671Y-64680251D01*
X146918671Y-65160251D01*
G37*
D12*
%TO.C,Q9*%
X140307601Y-29162329D02*
X140307601Y-32007129D01*
X140307601Y-32007129D02*
X140625462Y-32007129D01*
X140559061Y-29162329D02*
X140307601Y-29162329D01*
X143647340Y-32007129D02*
X143965201Y-32007129D01*
X143965201Y-29162329D02*
X143713741Y-29162329D01*
X143965201Y-32007129D02*
X143965201Y-29162329D01*
D11*
%TO.C,C13*%
X116281637Y-109841029D02*
X116065965Y-109841029D01*
X116281637Y-110561029D02*
X116065965Y-110561029D01*
%TO.C,C28*%
X148789401Y-103556193D02*
X148789401Y-103771865D01*
X149509401Y-103556193D02*
X149509401Y-103771865D01*
%TO.C,R29*%
X146010981Y-76213829D02*
X145729821Y-76213829D01*
X146010981Y-77233829D02*
X145729821Y-77233829D01*
%TO.C,C12*%
X128416001Y-97263593D02*
X128416001Y-97479265D01*
X129136001Y-97263593D02*
X129136001Y-97479265D01*
%TD*%
M02*
