%TF.GenerationSoftware,KiCad,Pcbnew,8.0.1*%
%TF.CreationDate,2024-10-20T18:03:53-07:00*%
%TF.ProjectId,POEPico,504f4550-6963-46f2-9e6b-696361645f70,rev?*%
%TF.SameCoordinates,Original*%
%TF.FileFunction,Paste,Top*%
%TF.FilePolarity,Positive*%
%FSLAX46Y46*%
G04 Gerber Fmt 4.6, Leading zero omitted, Abs format (unit mm)*
G04 Created by KiCad (PCBNEW 8.0.1) date 2024-10-20 18:03:53*
%MOMM*%
%LPD*%
G01*
G04 APERTURE LIST*
G04 Aperture macros list*
%AMRoundRect*
0 Rectangle with rounded corners*
0 $1 Rounding radius*
0 $2 $3 $4 $5 $6 $7 $8 $9 X,Y pos of 4 corners*
0 Add a 4 corners polygon primitive as box body*
4,1,4,$2,$3,$4,$5,$6,$7,$8,$9,$2,$3,0*
0 Add four circle primitives for the rounded corners*
1,1,$1+$1,$2,$3*
1,1,$1+$1,$4,$5*
1,1,$1+$1,$6,$7*
1,1,$1+$1,$8,$9*
0 Add four rect primitives between the rounded corners*
20,1,$1+$1,$2,$3,$4,$5,0*
20,1,$1+$1,$4,$5,$6,$7,0*
20,1,$1+$1,$6,$7,$8,$9,0*
20,1,$1+$1,$8,$9,$2,$3,0*%
G04 Aperture macros list end*
%ADD10RoundRect,0.200000X0.275000X-0.200000X0.275000X0.200000X-0.275000X0.200000X-0.275000X-0.200000X0*%
%ADD11RoundRect,0.200000X0.200000X0.275000X-0.200000X0.275000X-0.200000X-0.275000X0.200000X-0.275000X0*%
%ADD12RoundRect,0.135000X-0.185000X0.135000X-0.185000X-0.135000X0.185000X-0.135000X0.185000X0.135000X0*%
%ADD13RoundRect,0.200000X-0.200000X-0.275000X0.200000X-0.275000X0.200000X0.275000X-0.200000X0.275000X0*%
%ADD14RoundRect,0.250000X1.075000X-0.312500X1.075000X0.312500X-1.075000X0.312500X-1.075000X-0.312500X0*%
%ADD15RoundRect,0.250000X-0.262500X-0.450000X0.262500X-0.450000X0.262500X0.450000X-0.262500X0.450000X0*%
%ADD16RoundRect,0.250000X-0.450000X0.262500X-0.450000X-0.262500X0.450000X-0.262500X0.450000X0.262500X0*%
%ADD17RoundRect,0.200000X-0.275000X0.200000X-0.275000X-0.200000X0.275000X-0.200000X0.275000X0.200000X0*%
%ADD18RoundRect,0.135000X0.185000X-0.135000X0.185000X0.135000X-0.185000X0.135000X-0.185000X-0.135000X0*%
%ADD19RoundRect,0.135000X0.135000X0.185000X-0.135000X0.185000X-0.135000X-0.185000X0.135000X-0.185000X0*%
%ADD20RoundRect,0.135000X-0.135000X-0.185000X0.135000X-0.185000X0.135000X0.185000X-0.135000X0.185000X0*%
%ADD21RoundRect,0.140000X0.170000X-0.140000X0.170000X0.140000X-0.170000X0.140000X-0.170000X-0.140000X0*%
%ADD22RoundRect,0.250000X0.475000X-0.250000X0.475000X0.250000X-0.475000X0.250000X-0.475000X-0.250000X0*%
%ADD23RoundRect,0.140000X-0.140000X-0.170000X0.140000X-0.170000X0.140000X0.170000X-0.140000X0.170000X0*%
%ADD24RoundRect,0.350000X1.430000X-0.350000X1.430000X0.350000X-1.430000X0.350000X-1.430000X-0.350000X0*%
%ADD25RoundRect,0.140000X0.140000X0.170000X-0.140000X0.170000X-0.140000X-0.170000X0.140000X-0.170000X0*%
%ADD26RoundRect,0.140000X-0.170000X0.140000X-0.170000X-0.140000X0.170000X-0.140000X0.170000X0.140000X0*%
%ADD27R,2.200000X1.500000*%
%ADD28R,2.200000X3.800000*%
%ADD29RoundRect,0.250000X-0.800000X0.450000X-0.800000X-0.450000X0.800000X-0.450000X0.800000X0.450000X0*%
%ADD30RoundRect,0.150000X-0.512500X-0.150000X0.512500X-0.150000X0.512500X0.150000X-0.512500X0.150000X0*%
%ADD31RoundRect,0.350000X-0.350000X-1.430000X0.350000X-1.430000X0.350000X1.430000X-0.350000X1.430000X0*%
%ADD32R,1.219200X0.406400*%
%ADD33R,3.073400X2.489200*%
%ADD34RoundRect,0.150000X0.587500X0.150000X-0.587500X0.150000X-0.587500X-0.150000X0.587500X-0.150000X0*%
%ADD35RoundRect,0.225000X-0.250000X0.225000X-0.250000X-0.225000X0.250000X-0.225000X0.250000X0.225000X0*%
%ADD36R,1.600000X1.200000*%
%ADD37RoundRect,0.250000X0.250000X0.475000X-0.250000X0.475000X-0.250000X-0.475000X0.250000X-0.475000X0*%
%ADD38R,1.780000X1.585000*%
%ADD39RoundRect,0.245000X-0.290000X-0.245000X0.290000X-0.245000X0.290000X0.245000X-0.290000X0.245000X0*%
%ADD40RoundRect,0.062500X-0.362500X-0.062500X0.362500X-0.062500X0.362500X0.062500X-0.362500X0.062500X0*%
%ADD41RoundRect,0.062500X-0.062500X-0.362500X0.062500X-0.362500X0.062500X0.362500X-0.062500X0.362500X0*%
%ADD42RoundRect,0.292500X0.647500X0.292500X-0.647500X0.292500X-0.647500X-0.292500X0.647500X-0.292500X0*%
%ADD43R,0.800000X0.800000*%
%ADD44RoundRect,0.217500X0.217500X-0.217500X0.217500X0.217500X-0.217500X0.217500X-0.217500X-0.217500X0*%
%ADD45RoundRect,0.062500X0.062500X-0.375000X0.062500X0.375000X-0.062500X0.375000X-0.062500X-0.375000X0*%
%ADD46RoundRect,0.062500X0.375000X-0.062500X0.375000X0.062500X-0.375000X0.062500X-0.375000X-0.062500X0*%
%ADD47RoundRect,0.250000X0.650000X-1.000000X0.650000X1.000000X-0.650000X1.000000X-0.650000X-1.000000X0*%
%ADD48RoundRect,0.250000X-0.475000X0.250000X-0.475000X-0.250000X0.475000X-0.250000X0.475000X0.250000X0*%
%ADD49RoundRect,0.250000X0.325000X0.650000X-0.325000X0.650000X-0.325000X-0.650000X0.325000X-0.650000X0*%
%ADD50RoundRect,0.249999X-0.395001X-0.395001X0.395001X-0.395001X0.395001X0.395001X-0.395001X0.395001X0*%
%ADD51RoundRect,0.050000X-0.387500X-0.050000X0.387500X-0.050000X0.387500X0.050000X-0.387500X0.050000X0*%
%ADD52RoundRect,0.050000X-0.050000X-0.387500X0.050000X-0.387500X0.050000X0.387500X-0.050000X0.387500X0*%
%ADD53RoundRect,0.250000X-0.650000X0.325000X-0.650000X-0.325000X0.650000X-0.325000X0.650000X0.325000X0*%
%ADD54R,0.400000X1.650000*%
%ADD55R,1.825000X0.700000*%
%ADD56R,2.000000X1.500000*%
%ADD57R,1.350000X2.000000*%
%ADD58R,1.430000X2.500000*%
%ADD59RoundRect,0.477500X-0.477500X-1.552500X0.477500X-1.552500X0.477500X1.552500X-0.477500X1.552500X0*%
%ADD60RoundRect,0.225000X0.250000X-0.225000X0.250000X0.225000X-0.250000X0.225000X-0.250000X-0.225000X0*%
G04 APERTURE END LIST*
D10*
%TO.C,R36*%
X128778000Y-124281400D03*
X128778000Y-122631400D03*
%TD*%
D11*
%TO.C,R34*%
X139418401Y-35577629D03*
X137768401Y-35577629D03*
%TD*%
D12*
%TO.C,R31*%
X138326401Y-63155629D03*
X138326401Y-64175629D03*
%TD*%
D13*
%TO.C,R30*%
X147270000Y-36957000D03*
X148920000Y-36957000D03*
%TD*%
D14*
%TO.C,R28*%
X145034000Y-70358000D03*
X145034000Y-67433000D03*
%TD*%
D15*
%TO.C,R27*%
X147180501Y-38735000D03*
X149005501Y-38735000D03*
%TD*%
D16*
%TO.C,R26*%
X150114000Y-32036500D03*
X150114000Y-33861500D03*
%TD*%
D13*
%TO.C,R25*%
X147268001Y-40513000D03*
X148918001Y-40513000D03*
%TD*%
%TO.C,R24*%
X145502401Y-53437629D03*
X147152401Y-53437629D03*
%TD*%
D17*
%TO.C,R23*%
X148336000Y-30798000D03*
X148336000Y-32448000D03*
%TD*%
D10*
%TO.C,R21*%
X141775401Y-31699000D03*
X141775401Y-30049000D03*
%TD*%
D18*
%TO.C,R20*%
X140259401Y-97372029D03*
X140259401Y-96352029D03*
%TD*%
%TO.C,R19*%
X147752401Y-97372029D03*
X147752401Y-96352029D03*
%TD*%
D19*
%TO.C,R18*%
X151223401Y-104356029D03*
X150203401Y-104356029D03*
%TD*%
D12*
%TO.C,R16*%
X149149401Y-103154029D03*
X149149401Y-104174029D03*
%TD*%
D19*
%TO.C,R15*%
X150109401Y-102168029D03*
X149089401Y-102168029D03*
%TD*%
D12*
%TO.C,R14*%
X147625401Y-109306029D03*
X147625401Y-110326029D03*
%TD*%
D20*
%TO.C,R13*%
X140480801Y-113538000D03*
X141500801Y-113538000D03*
%TD*%
D12*
%TO.C,R12*%
X121206801Y-44872829D03*
X121206801Y-45892829D03*
%TD*%
%TO.C,R11*%
X120140001Y-44872829D03*
X120140001Y-45892829D03*
%TD*%
D10*
%TO.C,R10*%
X145692401Y-46865629D03*
X145692401Y-45215629D03*
%TD*%
D17*
%TO.C,R9*%
X140251401Y-41991629D03*
X140251401Y-43641629D03*
%TD*%
%TO.C,R7*%
X143892067Y-41991629D03*
X143892067Y-43641629D03*
%TD*%
D11*
%TO.C,R6*%
X139418401Y-37228629D03*
X137768401Y-37228629D03*
%TD*%
D20*
%TO.C,R4*%
X118586201Y-98313829D03*
X119606201Y-98313829D03*
%TD*%
%TO.C,R3*%
X118591201Y-99456829D03*
X119611201Y-99456829D03*
%TD*%
D12*
%TO.C,R2*%
X125341001Y-95702029D03*
X125341001Y-96722029D03*
%TD*%
%TO.C,R1*%
X124121001Y-95702029D03*
X124121001Y-96722029D03*
%TD*%
D21*
%TO.C,C9*%
X133336001Y-99811029D03*
X133336001Y-98851029D03*
%TD*%
D22*
%TO.C,C67*%
X152042401Y-28449929D03*
X152042401Y-26549929D03*
%TD*%
D23*
%TO.C,C64*%
X117658000Y-45832829D03*
X118618000Y-45832829D03*
%TD*%
D24*
%TO.C,L1*%
X145034000Y-32526829D03*
X145034000Y-27066829D03*
%TD*%
D25*
%TO.C,C26*%
X135631401Y-101914029D03*
X134671401Y-101914029D03*
%TD*%
D26*
%TO.C,C17*%
X142071734Y-42323629D03*
X142071734Y-43283629D03*
%TD*%
D27*
%TO.C,U5*%
X122479600Y-121959400D03*
X122479600Y-119659400D03*
X122479600Y-117359400D03*
D28*
X116179600Y-119659400D03*
%TD*%
D29*
%TO.C,D4*%
X137818401Y-29076929D03*
X137818401Y-33476929D03*
%TD*%
D30*
%TO.C,U7*%
X143826401Y-95437029D03*
X143826401Y-96387029D03*
X143826401Y-97337029D03*
X146101401Y-97337029D03*
X146101401Y-96387029D03*
X146101401Y-95437029D03*
%TD*%
D25*
%TO.C,C65*%
X152598000Y-42926000D03*
X151638000Y-42926000D03*
%TD*%
D31*
%TO.C,L3*%
X137882401Y-49977629D03*
X143342401Y-49977629D03*
%TD*%
D25*
%TO.C,C34*%
X142563001Y-114554000D03*
X141603001Y-114554000D03*
%TD*%
D26*
%TO.C,C20*%
X124536600Y-119659400D03*
X124536600Y-120619400D03*
%TD*%
D21*
%TO.C,C11*%
X135622001Y-99811029D03*
X135622001Y-98851029D03*
%TD*%
D32*
%TO.C,Q3*%
X130084101Y-49713130D03*
X130084101Y-50363128D03*
X130084101Y-51013130D03*
X130084101Y-51663128D03*
D33*
X132484401Y-50688129D03*
%TD*%
D34*
%TO.C,Q14*%
X134463000Y-88027814D03*
X134463000Y-86127814D03*
X132588000Y-87077814D03*
%TD*%
D35*
%TO.C,C47*%
X122809000Y-90637000D03*
X122809000Y-92187000D03*
%TD*%
D36*
%TO.C,FB1*%
X135306401Y-113595600D03*
X135306401Y-111995600D03*
%TD*%
D26*
%TO.C,C24*%
X138227401Y-111575600D03*
X138227401Y-112535600D03*
%TD*%
D25*
%TO.C,C27*%
X135631401Y-103057029D03*
X134671401Y-103057029D03*
%TD*%
D37*
%TO.C,C40*%
X142240000Y-33655000D03*
X140340000Y-33655000D03*
%TD*%
D25*
%TO.C,C44*%
X139060401Y-39150629D03*
X138100401Y-39150629D03*
%TD*%
%TO.C,C25*%
X135631401Y-100898029D03*
X134671401Y-100898029D03*
%TD*%
D22*
%TO.C,C16*%
X123848401Y-65466629D03*
X123848401Y-63566629D03*
%TD*%
D25*
%TO.C,C32*%
X135631401Y-105355029D03*
X134671401Y-105355029D03*
%TD*%
D26*
%TO.C,C52*%
X145692401Y-49459000D03*
X145692401Y-50419000D03*
%TD*%
D38*
%TO.C,T1*%
X143406401Y-53755129D03*
X138326401Y-53755129D03*
X138326401Y-61440129D03*
X143406401Y-61440129D03*
%TD*%
D39*
%TO.C,U3*%
X142365401Y-36680629D03*
X142365401Y-37900629D03*
X142365401Y-39120629D03*
X143685401Y-36680629D03*
X143685401Y-37900629D03*
X143685401Y-39120629D03*
D40*
X141075401Y-36150629D03*
X141075401Y-36650629D03*
X141075401Y-37150629D03*
X141075401Y-37650629D03*
X141075401Y-38150629D03*
X141075401Y-38650629D03*
X141075401Y-39150629D03*
X141075401Y-39650629D03*
D41*
X141775401Y-40350629D03*
X142275401Y-40350629D03*
X142775401Y-40350629D03*
X143275401Y-40350629D03*
X143775401Y-40350629D03*
X144275401Y-40350629D03*
D40*
X144975401Y-39650629D03*
X144975401Y-39150629D03*
X144975401Y-38650629D03*
X144975401Y-38150629D03*
X144975401Y-37650629D03*
X144975401Y-37150629D03*
X144975401Y-36650629D03*
X144975401Y-36150629D03*
D41*
X144275401Y-35450629D03*
X143775401Y-35450629D03*
X143275401Y-35450629D03*
X142775401Y-35450629D03*
X142275401Y-35450629D03*
X141775401Y-35450629D03*
%TD*%
D26*
%TO.C,C4*%
X127621001Y-98851029D03*
X127621001Y-99811029D03*
%TD*%
D34*
%TO.C,Q13*%
X139825001Y-88011629D03*
X139825001Y-86111629D03*
X137950001Y-87061629D03*
%TD*%
D35*
%TO.C,C19*%
X147597401Y-42028629D03*
X147597401Y-43578629D03*
%TD*%
D21*
%TO.C,C21*%
X147625401Y-108321429D03*
X147625401Y-107361429D03*
%TD*%
D23*
%TO.C,C2*%
X126448001Y-96692029D03*
X127408001Y-96692029D03*
%TD*%
D42*
%TO.C,TR1*%
X139474801Y-80678629D03*
X139474801Y-78178629D03*
X139474801Y-75678629D03*
X139474801Y-73178629D03*
X139474801Y-70678629D03*
X123114801Y-80678629D03*
X123114801Y-78178629D03*
X123114801Y-75678629D03*
X123114801Y-73178629D03*
X123114801Y-70678629D03*
%TD*%
D26*
%TO.C,C1*%
X126478001Y-98851029D03*
X126478001Y-99811029D03*
%TD*%
D25*
%TO.C,C37*%
X135631401Y-106486029D03*
X134671401Y-106486029D03*
%TD*%
D26*
%TO.C,C54*%
X139469401Y-63185629D03*
X139469401Y-64145629D03*
%TD*%
D21*
%TO.C,C7*%
X131050001Y-99811029D03*
X131050001Y-98851029D03*
%TD*%
D35*
%TO.C,C18*%
X145712401Y-42028629D03*
X145712401Y-43578629D03*
%TD*%
D43*
%TO.C,D2*%
X151650000Y-101854000D03*
X153150000Y-101854000D03*
%TD*%
D26*
%TO.C,C36*%
X140513401Y-111575600D03*
X140513401Y-112535600D03*
%TD*%
%TO.C,C51*%
X131191000Y-90706000D03*
X131191000Y-91666000D03*
%TD*%
D35*
%TO.C,C46*%
X121158000Y-90637000D03*
X121158000Y-92187000D03*
%TD*%
D26*
%TO.C,C23*%
X137084401Y-111575600D03*
X137084401Y-112535600D03*
%TD*%
D44*
%TO.C,U6*%
X140643401Y-105725029D03*
X141723401Y-105725029D03*
X142803401Y-105725029D03*
X143883401Y-105725029D03*
X140643401Y-104645029D03*
X141723401Y-104645029D03*
X142803401Y-104645029D03*
X143883401Y-104645029D03*
X140643401Y-103565029D03*
X141723401Y-103565029D03*
X142803401Y-103565029D03*
X143883401Y-103565029D03*
X140643401Y-102485029D03*
X141723401Y-102485029D03*
X142803401Y-102485029D03*
X143883401Y-102485029D03*
D45*
X139013401Y-108042529D03*
X139513401Y-108042529D03*
X140013401Y-108042529D03*
X140513401Y-108042529D03*
X141013401Y-108042529D03*
X141513401Y-108042529D03*
X142013401Y-108042529D03*
X142513401Y-108042529D03*
X143013401Y-108042529D03*
X143513401Y-108042529D03*
X144013401Y-108042529D03*
X144513401Y-108042529D03*
X145013401Y-108042529D03*
X145513401Y-108042529D03*
D46*
X146200901Y-107355029D03*
X146200901Y-106855029D03*
X146200901Y-106355029D03*
X146200901Y-105855029D03*
X146200901Y-105355029D03*
X146200901Y-104855029D03*
X146200901Y-104355029D03*
X146200901Y-103855029D03*
X146200901Y-103355029D03*
X146200901Y-102855029D03*
X146200901Y-102355029D03*
X146200901Y-101855029D03*
X146200901Y-101355029D03*
X146200901Y-100855029D03*
D45*
X145513401Y-100167529D03*
X145013401Y-100167529D03*
X144513401Y-100167529D03*
X144013401Y-100167529D03*
X143513401Y-100167529D03*
X143013401Y-100167529D03*
X142513401Y-100167529D03*
X142013401Y-100167529D03*
X141513401Y-100167529D03*
X141013401Y-100167529D03*
X140513401Y-100167529D03*
X140013401Y-100167529D03*
X139513401Y-100167529D03*
X139013401Y-100167529D03*
D46*
X138325901Y-100855029D03*
X138325901Y-101355029D03*
X138325901Y-101855029D03*
X138325901Y-102355029D03*
X138325901Y-102855029D03*
X138325901Y-103355029D03*
X138325901Y-103855029D03*
X138325901Y-104355029D03*
X138325901Y-104855029D03*
X138325901Y-105355029D03*
X138325901Y-105855029D03*
X138325901Y-106355029D03*
X138325901Y-106855029D03*
X138325901Y-107355029D03*
%TD*%
D47*
%TO.C,D1*%
X128420401Y-67376629D03*
X128420401Y-63376629D03*
%TD*%
D21*
%TO.C,C6*%
X129907001Y-99811029D03*
X129907001Y-98851029D03*
%TD*%
%TO.C,C5*%
X128764001Y-99811029D03*
X128764001Y-98851029D03*
%TD*%
%TO.C,C8*%
X132193001Y-99811029D03*
X132193001Y-98851029D03*
%TD*%
%TO.C,C10*%
X134479001Y-99811029D03*
X134479001Y-98851029D03*
%TD*%
D25*
%TO.C,C66*%
X152598000Y-43942000D03*
X151638000Y-43942000D03*
%TD*%
D22*
%TO.C,C42*%
X148463000Y-29144000D03*
X148463000Y-27244000D03*
%TD*%
D48*
%TO.C,C45*%
X152273000Y-30099000D03*
X152273000Y-31999000D03*
%TD*%
D23*
%TO.C,C3*%
X126448001Y-97835029D03*
X127408001Y-97835029D03*
%TD*%
D35*
%TO.C,C50*%
X142263401Y-67604629D03*
X142263401Y-69154629D03*
%TD*%
D49*
%TO.C,C49*%
X134467401Y-67757629D03*
X131517401Y-67757629D03*
%TD*%
D50*
%TO.C,U1*%
X122731001Y-104029029D03*
X122731001Y-105629029D03*
X124331001Y-104029029D03*
X124331001Y-105629029D03*
D51*
X120093501Y-102229029D03*
X120093501Y-102629029D03*
X120093501Y-103029029D03*
X120093501Y-103429029D03*
X120093501Y-103829029D03*
X120093501Y-104229029D03*
X120093501Y-104629029D03*
X120093501Y-105029029D03*
X120093501Y-105429029D03*
X120093501Y-105829029D03*
X120093501Y-106229029D03*
X120093501Y-106629029D03*
X120093501Y-107029029D03*
X120093501Y-107429029D03*
D52*
X120931001Y-108266529D03*
X121331001Y-108266529D03*
X121731001Y-108266529D03*
X122131001Y-108266529D03*
X122531001Y-108266529D03*
X122931001Y-108266529D03*
X123331001Y-108266529D03*
X123731001Y-108266529D03*
X124131001Y-108266529D03*
X124531001Y-108266529D03*
X124931001Y-108266529D03*
X125331001Y-108266529D03*
X125731001Y-108266529D03*
X126131001Y-108266529D03*
D51*
X126968501Y-107429029D03*
X126968501Y-107029029D03*
X126968501Y-106629029D03*
X126968501Y-106229029D03*
X126968501Y-105829029D03*
X126968501Y-105429029D03*
X126968501Y-105029029D03*
X126968501Y-104629029D03*
X126968501Y-104229029D03*
X126968501Y-103829029D03*
X126968501Y-103429029D03*
X126968501Y-103029029D03*
X126968501Y-102629029D03*
X126968501Y-102229029D03*
D52*
X126131001Y-101391529D03*
X125731001Y-101391529D03*
X125331001Y-101391529D03*
X124931001Y-101391529D03*
X124531001Y-101391529D03*
X124131001Y-101391529D03*
X123731001Y-101391529D03*
X123331001Y-101391529D03*
X122931001Y-101391529D03*
X122531001Y-101391529D03*
X122131001Y-101391529D03*
X121731001Y-101391529D03*
X121331001Y-101391529D03*
X120931001Y-101391529D03*
%TD*%
D32*
%TO.C,Q1*%
X130084101Y-56876630D03*
X130084101Y-57526628D03*
X130084101Y-58176630D03*
X130084101Y-58826628D03*
D33*
X132484401Y-57851629D03*
%TD*%
D25*
%TO.C,C22*%
X152153401Y-103214029D03*
X151193401Y-103214029D03*
%TD*%
D53*
%TO.C,C48*%
X133321999Y-89953185D03*
X133321999Y-92903185D03*
%TD*%
D54*
%TO.C,J1*%
X133061501Y-120919429D03*
X133711501Y-120919429D03*
X134361501Y-120919429D03*
X135011501Y-120919429D03*
X135661501Y-120919429D03*
D55*
X131411501Y-122119429D03*
D56*
X131511501Y-120819429D03*
D57*
X131631501Y-122869429D03*
D58*
X133401501Y-124069429D03*
X135321501Y-124069429D03*
D57*
X137111501Y-122869429D03*
D56*
X137261501Y-120799429D03*
D55*
X137361501Y-122119429D03*
%TD*%
D59*
%TO.C,L4*%
X123129000Y-87061629D03*
X130109000Y-87061629D03*
%TD*%
D32*
%TO.C,Q7*%
X123607101Y-49713130D03*
X123607101Y-50363128D03*
X123607101Y-51013130D03*
X123607101Y-51663128D03*
D33*
X126007401Y-50688129D03*
%TD*%
D32*
%TO.C,Q5*%
X123607101Y-56876630D03*
X123607101Y-57526628D03*
X123607101Y-58176630D03*
X123607101Y-58826628D03*
D33*
X126007401Y-57851629D03*
%TD*%
D43*
%TO.C,Y2*%
X149221801Y-106259429D03*
X149221801Y-107559429D03*
X152321801Y-107559429D03*
X152321801Y-106259429D03*
%TD*%
D26*
%TO.C,C30*%
X139370401Y-111575600D03*
X139370401Y-112535600D03*
%TD*%
D60*
%TO.C,C62*%
X126873000Y-124251400D03*
X126873000Y-122701400D03*
%TD*%
D25*
%TO.C,C31*%
X135631401Y-104200029D03*
X134671401Y-104200029D03*
%TD*%
D23*
%TO.C,C15*%
X124719600Y-117359400D03*
X125679600Y-117359400D03*
%TD*%
M02*
